<svg xmlns="http://www.w3.org/2000/svg" aria-hidden="true" focusable="false" class="icon icon-main-logo" viewBox="0 0 176 16" style="">
    <path fill="currentColor" d="M67.2 1.6s1 .7 1 4v5.7l-6.4-9.7h-3s.7.5.7 1.2l-.2 9.7c0 1.6-.7 2.4-.7 2.4h2.9s-.8-1-.8-2.7L60.3 3l8.2 12 .6-.1.2-9c0-3.7.8-4.3.8-4.3h-2.9ZM9.7 15v-2.5C8.5 13 7 14 3.6 14.2V7.7l5.2.5V6.4L3.5 7V2.3C7 2.6 8 3 9.8 3.6v-2H1s.6 1 .6 6.1C1.6 13 1 15 1 15h8.7Zm20 0v-2.5c-1.1.6-2.7 1.5-6.1 1.7V7.7l5.2.5V6.4l-5.2.5V2.3c3.4.3 4.5.7 6.1 1.3v-2H21s.6 1 .6 6.1A30 30 0 0 1 21 15h8.7Zm27.2 0v-2.5c-1.2.6-2.7 1.5-6.1 1.7V7.7l5.2.5V6.4l-5.3.5V2.3c3.5.3 4.5.7 6.2 1.3v-2h-8.7s.6 1 .6 6.1c0 5.2-.6 7.2-.6 7.2H57Zm-37.2 0v-2.5c-1.1.6-2.6 1.5-6.1 1.7V7.8c0-5 .9-6.2.9-6.2H11s.6 1 .6 6.1c0 5.2-.6 7.2-.6 7.2h8.7Zm19.2-.2L42.6 4l1.2 8.1c.3 1.8-.4 2.8-.4 2.8H47s-1-1.8-1.3-3.8L44 3c-.1-.9.5-1.4.5-1.4h-2.3L39 11.3l-3-9.7h-3s.5.7.5 1.3L32 12.4c-.4 1.6-1 2.5-1 2.5h3s-.6-1-.5-2.4l.8-8.5 4.1 10.8h.5Zm36-6.2c0 3.5-.6 6.3-.6 6.3h3s-.6-2.4-.6-6.3l.1-6.3c1 0 2.4.8 4 1.5l-.5-2.2h-9l-.5 2.2c1.6-.7 2.9-1.4 4-1.5v6.3Zm73.7-1c0-5.1.9-6.3.9-6.3H146s.6 1 .6 6.1c0 5.2-.6 7.2-.6 7.2h8.6v-2.4c-1.1.6-2.6 1.5-6 1.7V7.6Zm23.5-6.3s1 .7 1 4V11l-6.4-9.8h-3s.7.6.7 1.2l-.2 9.7c0 1.6-.7 2.5-.7 2.5h2.9s-.7-1.1-.7-2.8l-.5-9.2 8.2 12h.6l.3-9c0-3.7.7-4.3.7-4.3h-2.9Zm-30.4 2.1c1-1 1.9-1.7 2.6-2.1h-3.1a44 44 0 0 1-4.2 6.2c0-4.5.6-6.2.6-6.2h-3s.5 1.8.6 6.6c0 4.8-.6 6.7-.6 6.7h3s-.5-1.7-.6-6l1.5-1.7a29.8 29.8 0 0 1 3.3 7.7h3.3L139.3 6l2.4-2.5ZM91.7 7c1.9-.3 3.2-1.1 3.2-2.7 0-2-1.5-3-4.3-3H86s.6 1 .6 6.1-.6 7.2-.6 7.2h4.6c3.6 0 5.1-2 5.1-4S94.3 7 91.7 7Zm-3.2-5h1.8c1.7 0 2.6 1 2.6 2.5 0 1.6-1 2.3-2.6 2.3h-1.8V2Zm1 11.9h-1V7.5h1.1c3.2 0 4 1.5 4 3.4 0 1.8-2.2 2.9-4.1 2.9Zm15.9-9.6c0-2-1.6-3-4.4-3h-4s.5 1 .5 6.1-.6 7.2-.6 7.2h3s-.6-2-.6-7.2V2.1h1.4c1.7 0 2.6.8 2.6 2.3 0 1.6-1 2.8-2.8 2.8h-.4c0 .2 4 6.2 3.6 7.4h3.1l-5.1-7c2.1-.2 3.7-1.3 3.7-3.3ZM127 1a6.8 6.8 0 0 0-6.7 7c0 3.7 3 6.8 6.7 6.8 3.6 0 6.6-3 6.6-6.9 0-3.8-3-6.9-6.6-6.9Zm2.3 12.6c-2.1.9-5-1-6.2-4.1-1.3-3.2-.5-6.5 1.6-7.4 2.2-1 5 1 6.3 4 1.2 3.2.5 6.6-1.7 7.5Z"></path>
    <path fill="currentColor" d="M112.8 1a6.8 6.8 0 0 0-6.6 7c0 3.7 3 6.8 6.6 6.8 3.7 0 6.7-3 6.7-6.9 0-3.8-3-6.9-6.7-6.9Zm2.4 12.6c-2.2.9-5-1-6.2-4.1-1.3-3.2-.6-6.5 1.6-7.4 2.2-1 5 1 6.3 4 1.2 3.2.5 6.6-1.7 7.5Zm45.1-12.4s.5 1-.2 2.6l-2 4.4-1.7-3.7c-.7-1.4-1-2.5-.7-3.2H152s.9.8 1.3 1.7l3.6 6.4c0 3-.5 5.2-.5 5.2h3s-.6-2.3-.7-6l3-5.5a5 5 0 0 1 1.5-1.9h-2.9Z"></path>
</svg>