<svg id="website-logo-type" class="site-logo" viewBox="0 0 4241 1076" aria-labelledby="logo-type" xmlns="http://www.w3.org/2000/svg">
	<title id="logo-type">Xtracycle</title>
    <g transform="matrix(1,0,0,1,-168.01,-153.085)">
        <g transform="matrix(4.16667,0,0,4.16667,0,0)">
            <g transform="matrix(1,0,0,1,948.673,168.037)">
                <path d="M0,-4.373L0.031,-4.547C2.043,-15.214 8.699,-27.989 19.034,-32.483L19.047,-32.488C23.196,-34.359 27.851,-34.417 31.193,-32.639C33.704,-31.303 35.306,-28.997 35.83,-25.937C37.346,-18.612 34.266,-11.593 27.38,-6.678C19.025,-0.712 7.845,0.287 0.224,-4.229L0,-4.373ZM-493.057,25.128L-493.059,29.507C-493.059,30.022 -493.065,31.773 -493.073,33.589C-493.079,35.222 -493.086,36.907 -493.088,37.796C-502.303,46.386 -514.916,49.227 -525.335,45.025C-539.437,39.338 -541.245,21.339 -541.245,6.294C-541.245,-10.075 -536.391,-23.644 -527.926,-30.937C-522.571,-35.552 -515.925,-37.42 -508.784,-36.355C-493.024,-32.819 -493.035,-13.454 -493.057,25.128M89.587,-3.477L89.086,-2.699C81.399,9.212 70.977,21.106 61.209,29.114C47.738,40.037 35.034,45.073 23.551,44.091C15.665,43.007 9.08,37.508 3.98,27.747C2.852,25.586 1.878,23.14 1.078,20.456C5.809,21.817 11.006,22.48 15.959,22.362C30.59,21.981 44.232,15.512 53.387,4.614C61.735,-5.324 65.281,-17.871 63.373,-30.714C61.61,-42.536 55.112,-52.246 45.075,-58.055C34.224,-64.337 20.369,-65.197 8.022,-60.36C-9.658,-53.637 -23.839,-36.078 -28.986,-14.54C-32.723,0.815 -30.8,21.592 -24.233,37.495C-30.633,42.528 -36.848,44.588 -45.812,44.691L-46.382,44.691C-54.663,44.691 -60.578,40.141 -63.964,31.167C-66.552,24.305 -66.617,17.32 -66.617,17.254C-66.617,16.272 -66.652,-114.052 -66.669,-130.071L-66.67,-131.183L-96.79,-127.969L-96.791,-127.071C-96.811,-108.89 -96.894,8.337 -96.894,17.104C-96.894,22.087 -96.521,26.579 -95.847,30.635C-108.726,38.436 -122.687,41.652 -142.041,41.652C-157.798,41.652 -166.79,34.196 -171.559,27.941C-179.163,17.968 -181.503,4.003 -177.812,-9.441C-175.477,-18.903 -170.162,-27.165 -163.581,-31.551C-158.625,-34.964 -152.308,-35.848 -147.49,-33.806C-144.831,-32.679 -141.462,-30.148 -140.505,-24.445C-139.714,-20.821 -139.743,-15.968 -140.588,-10.409L-140.725,-9.516L-117.739,-3.604L-117.437,-4.472C-114.49,-12.916 -113.603,-22.23 -114.938,-30.695C-116.418,-40.091 -120.507,-47.912 -126.737,-53.291C-139.9,-65.441 -162.387,-66.729 -179.028,-56.293C-195.919,-45.958 -203.693,-29.533 -207.241,-17.569C-208.744,-12.396 -213.838,8.543 -205.756,30.597C-213.723,33.16 -221.387,37.296 -228.669,42.979L-228.771,-59.521L-258.892,-59.521L-258.999,25.282C-259.635,31.703 -263.571,37.584 -269.287,40.637C-272.148,42.229 -275.325,43.036 -278.728,43.036C-284.257,43.036 -288.729,41.295 -292.018,37.862C-298.937,30.641 -298.491,18.206 -298.485,18.064C-298.418,15.462 -298.52,-45.89 -298.54,-58.163L-298.542,-59.521L-328.66,-59.521L-328.662,-58.523C-328.685,-43.736 -328.762,8.034 -328.762,16.839C-328.762,21.951 -328.35,26.525 -327.625,30.627C-340.507,38.434 -354.471,41.652 -373.831,41.652C-389.589,41.652 -398.581,34.196 -403.35,27.941C-410.953,17.967 -413.293,4.002 -409.602,-9.441C-407.267,-18.903 -401.952,-27.165 -395.371,-31.551C-390.416,-34.963 -384.103,-35.85 -379.279,-33.806C-376.621,-32.679 -373.253,-30.148 -372.296,-24.445C-371.504,-20.822 -371.532,-15.968 -372.378,-10.409L-372.515,-9.516L-349.529,-3.604L-349.227,-4.472C-346.281,-12.917 -345.394,-22.23 -346.728,-30.695C-348.209,-40.091 -352.298,-47.912 -358.527,-53.291C-371.69,-65.441 -394.177,-66.729 -410.818,-56.293C-427.709,-45.958 -435.483,-29.533 -439.031,-17.569C-440.857,-11.284 -447.987,18.267 -430.336,44.824C-437.069,48.434 -445.128,49.651 -451.572,47.455C-458.269,45.17 -461.957,39.545 -461.957,31.615C-461.957,31.615 -462.036,-25.371 -462.036,-53.382L-462.036,-54.382L-484.945,-54.382C-502.387,-66.888 -528.036,-66.938 -546.06,-54.468C-557.793,-46.583 -566.561,-34.407 -571.415,-19.253C-575.825,-5.485 -576.726,10.102 -573.949,24.643C-573.909,24.845 -571.952,34.255 -566.052,44.674C-572.708,47.87 -584.623,50.978 -593.449,46.073C-603.139,40.688 -611.487,23.867 -596.237,-25.695C-593.668,-34.046 -594.86,-42.18 -599.596,-48.599C-604.644,-55.439 -613.184,-59.529 -622.442,-59.538L-622.525,-59.538C-627.665,-59.538 -633.104,-59.076 -638.859,-58.587C-644.762,-58.086 -650.825,-57.55 -656.736,-57.575C-678.265,-57.599 -697.559,-59.597 -697.751,-59.617L-698.856,-59.733L-698.81,16.202C-698.81,35.412 -703.277,43.247 -714.231,43.247C-721.539,43.247 -731.255,40.405 -731.255,15.831L-731.309,-80.155L-684.67,-80.155L-684.67,-107.644L-731.324,-107.644L-731.338,-131.297L-763.236,-128.097L-763.249,-108.329C-776.032,-108.935 -783.891,-109.723 -783.891,-109.723L-783.891,-82.233C-783.891,-82.233 -776.04,-81.446 -763.267,-80.841L-763.324,8.931C-763.324,17.616 -763.134,24.865 -762.474,30.918C-768,37.773 -778.977,47.522 -796.727,47.522C-811.656,47.522 -821.567,33.405 -828.149,23.929C-813.532,9.152 -793.811,-16.967 -781.591,-58.236L-781.308,-59.193L-810.405,-67.86L-810.695,-66.91C-818.336,-41.825 -828.768,-21.904 -843.465,-4.368C-848.471,-15.937 -853.901,-30.906 -858.471,-45.748C-859.891,-50.296 -861.245,-55.11 -862.267,-58.795L-862.521,-59.71L-863.448,-59.504C-863.698,-59.448 -891.112,-53.323 -891.112,-53.323L-892.068,-53.109L-891.875,-52.149C-891.383,-49.712 -890.89,-47.443 -890.224,-44.554C-887.385,-32.627 -883.72,-20.498 -879.322,-8.48L-877.902,-4.865C-874.8,3.041 -870.961,12.82 -867.739,20.629C-883.946,32.906 -895.371,38.26 -907.489,42.491L-908.351,42.792L-908.131,43.676C-904.453,58.471 -902.213,67.501 -902.14,67.826L-901.938,68.76L-900.995,68.601C-889.886,66.72 -869.299,56.484 -851.752,44.151C-837.008,63.658 -822.656,72.369 -805.315,72.369C-784.144,72.369 -765.917,61.334 -755.156,51.96C-746.28,65.404 -733.786,72.22 -717.923,72.22C-686.021,72.22 -668.452,54.139 -668.452,21.309L-668.452,17.126C-668.452,4.349 -668.453,-19.065 -668.438,-30.944L-667.271,-30.828C-662.53,-30.352 -659.397,-30.037 -653.318,-30.031C-646.657,-30.029 -641.353,-30.291 -633.77,-31.016C-630.896,-31.293 -628.957,-30.853 -628.004,-29.717C-626.998,-28.52 -626.92,-26.348 -627.77,-23.261C-629.322,-17.621 -642.379,32.585 -622.875,58.185C-615.661,67.654 -604.867,72.455 -590.792,72.455C-571.139,72.455 -560.151,65.504 -553.65,60.34C-547.002,66.257 -538.343,70.891 -527.149,72.135C-525.207,72.351 -523.299,72.452 -521.428,72.452C-506.401,72.452 -493.803,65.936 -485.501,60.073C-484.677,59.434 -483.985,58.825 -483.433,58.252C-483.345,58.37 -483.252,58.488 -483.154,58.603C-476.36,67.99 -466.135,72.362 -450.976,72.362C-438.168,72.362 -424.209,66.727 -415.446,60.895C-405.379,68.474 -393.135,72.365 -379.339,72.364C-376.091,72.364 -372.756,72.148 -369.345,71.714C-348.193,69.026 -328.7,58.499 -319.828,50.752C-314.419,58.77 -307.767,62.952 -303.506,65.623C-302.977,65.956 -302.485,66.263 -302.04,66.551C-291.488,73.391 -272.331,74.217 -259.336,68.392C-259.224,68.342 -259.113,68.292 -259.005,68.242L-259.005,122.784L-258.845,123.748L-228.65,126.924L-228.65,125.814C-228.65,95.074 -222.706,57.481 -194.933,49.789C-193.481,51.601 -191.905,53.392 -190.186,55.15C-179.084,66.504 -164.485,72.365 -147.549,72.364C-144.301,72.364 -140.966,72.148 -137.555,71.714C-116.586,69.049 -97.252,58.682 -88.276,50.955C-82.947,59.08 -76.02,63.731 -70.094,66.861C-63.171,70.518 -56.187,72.349 -49.207,72.349C-44.363,72.349 -39.521,71.467 -34.706,69.701C-25.708,66.4 -18.419,60.576 -12.998,54.96C-9.908,58.213 -6.345,61.222 -2.229,64.051C6.149,69.948 15.595,72.28 24.924,72.28C36.319,72.28 47.541,68.799 56.421,64.085C70.541,56.585 83.238,45.311 95.24,29.612C100.969,22.035 105.295,15.173 108.856,8.019L109.287,7.153L89.587,-3.477Z"></path>
            </g>
        </g>
    </g>
</svg>