<svg class="icon-rso-l-logo " xmlns="http://www.w3.org/2000/svg" viewBox="0 0 31 19.3833"><path d="m2.68647 9.6909c.92819-3.24036 1.85487-6.45054 2.86607-9.6909h25.44747c-.33355 1.44133-.51164 2.15974-1.48058 5.53895-.43268 2.12-1.93853 3.86147-3.97385 4.59567 1.70092.68524 2.54336 2.60335 1.89713 4.31947-.42863 1.46699-.99761 3.46222-1.44133 4.92921h-6.31319l1.02327-3.60107c.28978-.99761 0-1.63301-1.60433-1.63301h-11.2711l-1.49718 5.23408h-6.33885c.84518-3.23885 1.75677-6.45054 2.68647-9.6924zm6.30111.86027c.79767-1.07534 2.08147-1.67898 3.41845-1.60735h7.78169c1.13301.02057 2.11848-.77238 2.34085-1.88354l.51164-1.80054h-12.65657l-1.50925 5.28238h.11168l.00151.00906z" fill="#363636"></path></svg>