<svg class="svg-logo" xmlns="http://www.w3.org/2000/svg" width="105" height="62" viewBox="0 0 105 62" fill="currentColor" aria-hidden="true">
  <g clip-path="url(#clip0_8854_71018)">
    <path d="M0 0H8.38567V53.5631H15.8157V60.5154H0V0Z" stroke="none"></path>
    <path d="M38.4865 0V50.9352C38.4865 58.0546 34.6878 61.1843 27.9984 61.1843C21.309 61.1843 17.582 58.0546 17.582 50.8635V0H25.9677V50.529C25.9677 53.3242 26.4694 54.1604 28.094 54.1604C29.4558 54.1604 30.0291 53.2287 30.0291 50.4334V0H38.4865Z" stroke="none"></path>
    <path d="M40.7812 0H49.5731L53.7301 25.7304L54.9007 33.1843V0H62.0202V60.5154H54.1601L49.0714 30.8908L47.8768 23.2696V60.5154H40.7812V0Z" stroke="none"></path>
    <path d="M70.6443 35.5495L63.4531 0H72.0777L75.4702 23.198L78.5282 0H86.1494L79.0299 35.6212V60.5154H70.6443V35.5495Z" stroke="none"></path>
    <path d="M95.7784 44.5085H91.6214L90.6897 60.5154H83.1641L87.6555 0H100.509L105 60.5154H96.7101L95.7784 44.5085ZM92.9115 21.3345L91.9798 38.3447H95.4439L94.4405 21.3345L93.676 5.85324L92.9115 21.3345Z" stroke="none"></path>
  </g>
  <defs>
    <clipPath id="clip0_8854_71018">
      <rect width="105" height="61.1843" stroke="none"></rect>
    </clipPath>
  </defs>
</svg>