<svg xmlns="http://www.w3.org/2000/svg" class="header-logo" viewBox="0 0 131 38" fill="none">
  <g clip-path="url(#clip0_12883_35)">
    <path d="M23.9991 10.8726C23.9991 6.13056 27.4682 2.92524 31.5078 2.92524C33.0312 2.92524 34.2997 3.30312 35.1459 3.74917L35.9076 2.85856H36.3936V7.71173H35.8646C34.8495 5.03989 33.3469 3.59357 31.3167 3.59357C29.0331 3.59357 26.8118 5.686 26.8118 10.8296C26.8118 15.9732 29.1591 18.0879 31.4856 18.0879C32.6489 18.0879 33.5795 17.7989 34.193 17.2862V13.1236C34.193 12.3219 33.707 11.9218 31.9094 11.8551V11.2994H38.1704V11.8551C36.9019 11.9218 36.647 12.1663 36.647 13.1236V17.3751C35.3148 18.199 33.2846 18.7547 31.4856 18.7547C27.446 18.7547 23.9991 15.994 23.9991 10.8741V10.8726Z" fill="#114734"></path>
    <path d="M39.1618 17.8641C40.3888 17.8419 40.6837 17.6641 40.6837 17.0402V9.8501C40.6837 9.18177 40.3873 8.75943 39.1618 8.7372V8.22447L42.8635 8.06887V10.0724C43.603 8.87057 44.5973 8.00218 45.6984 8.00218C46.8617 8.00218 47.4114 8.78166 47.4114 9.65004C47.4114 10.5184 46.8824 11.1186 46.1207 11.1186C45.359 11.1186 44.7885 10.5851 44.7885 9.78341C44.7885 9.62781 44.83 9.40553 44.873 9.24993C44.0476 9.29439 43.4133 9.91826 42.9065 10.7407V17.0417C42.9065 17.6656 43.2666 17.8212 44.7248 17.8656V18.3783H39.1618V17.8641Z" fill="#114734"></path>
    <path d="M48.2117 13.3666C48.2117 10.1835 50.2419 7.93402 52.9493 7.93402C55.8049 7.93402 57.2215 10.2265 57.0526 12.8761H50.6019V13.2095C50.6019 15.7258 51.6808 17.4833 53.7954 17.4833C55.0432 17.4833 55.9101 16.7705 56.7562 15.6131L57.1163 15.9243C56.2702 17.3944 55.0861 18.5517 52.97 18.5517C50.0092 18.5517 48.2117 16.4371 48.2117 13.3651V13.3666ZM50.6227 12.2982L54.7053 12.2537C54.9172 10.0724 54.3037 8.53566 52.8233 8.53566C51.5548 8.53566 50.7724 9.78193 50.6242 12.2982H50.6227Z" fill="#114734"></path>
    <path d="M58.659 16.0607C58.659 15.1701 59.0606 14.2795 59.9497 13.7667C61.5146 12.8539 63.9893 12.6761 64.4754 12.4093V11.1853C64.4754 9.33736 63.9463 8.62458 62.6778 8.62458C62.0436 8.62458 61.5353 8.8024 61.1974 9.15954C61.4508 9.51519 61.599 9.89455 61.599 10.2947C61.599 11.0741 61.1337 11.6298 60.3083 11.6298C59.5466 11.6298 59.0813 11.0504 59.0813 10.3169C59.0813 8.98171 60.6669 8.00218 63.0572 8.00218C65.4475 8.00218 66.6745 9.07062 66.6745 11.3409V16.3274C66.6745 17.4181 66.9709 17.7752 68.2394 17.4181L68.3668 17.8182C67.6051 18.2405 67.0346 18.4865 66.2936 18.4865C65.0874 18.4865 64.7288 17.9738 64.5806 16.8164H64.4961C63.6707 17.7737 62.6349 18.531 61.3664 18.531C59.4844 18.531 58.659 17.3069 58.659 16.0607ZM64.4754 13.011C61.725 13.5667 61.0492 14.1239 61.0492 15.5939C61.0492 16.6179 61.5368 17.3307 62.5934 17.3307C63.3551 17.3307 64.053 16.7512 64.4754 16.1288V13.011Z" fill="#114734"></path>
    <path d="M70.3318 15.6369V9.09137H68.4498V8.57864L70.3748 8.13407V5.30663L72.5531 4.46048V8.17853H75.5984V9.06914H72.5531V15.6369C72.5531 16.9054 72.9547 17.4403 73.8009 17.4403C74.4144 17.4403 74.9641 16.9735 75.4932 16.0607L75.8948 16.3274C75.1761 17.8419 74.2662 18.5754 72.8703 18.5754C71.2832 18.5754 70.3318 17.6848 70.3318 15.6369Z" fill="#114734"></path>
    <path d="M77.2463 22.7662C79.023 22.6995 79.4246 22.3661 79.4246 21.5644V9.98791C79.4246 9.18621 79.023 8.85279 77.2463 8.7861V8.22891H84.0778V8.7861C82.2595 8.85279 81.9424 9.16398 81.9424 9.98791V22.6551H83.6762C86.5525 22.6551 87.5469 21.4755 88.7101 18.0909L89.2599 18.1131L89.091 23.3234H77.2463V22.7662Z" fill="#114734"></path>
    <path d="M90.6529 21.0072C90.6529 20.1166 91.0545 19.226 91.9436 18.7133C93.5085 17.8004 95.9832 17.6226 96.4693 17.3558V16.1318C96.4693 14.2839 95.9403 13.5711 94.6718 13.5711C94.0375 13.5711 93.5292 13.7489 93.1914 14.1061C93.4448 14.4617 93.5929 14.8411 93.5929 15.2412C93.5929 16.0207 93.1276 16.5764 92.3022 16.5764C91.5405 16.5764 91.0752 15.997 91.0752 15.2634C91.0752 13.9282 92.6608 12.9487 95.0511 12.9487C97.4414 12.9487 98.6684 14.0172 98.6684 16.2874V21.274C98.6684 22.3646 98.9648 22.7218 100.233 22.3646L100.361 22.7647C99.599 23.1871 99.0285 23.4331 98.2876 23.4331C97.0813 23.4331 96.7227 22.9203 96.5745 21.763H96.49C95.6646 22.7203 94.6288 23.4775 93.3603 23.4775C91.4783 23.4775 90.6529 22.2535 90.6529 21.0072ZM96.4693 17.9575C93.7189 18.5132 93.0432 19.0704 93.0432 20.5404C93.0432 21.5644 93.5307 22.2772 94.5873 22.2772C95.349 22.2772 96.047 21.6978 96.4693 21.0754V17.9575Z" fill="#114734"></path>
    <path d="M104.335 22.009C104.335 22.6106 104.609 22.7884 105.435 22.8107V23.3234H100.592V22.8107C101.819 22.7884 102.114 22.6106 102.114 21.9867V9.34181C102.114 8.62902 101.84 8.27337 100.464 8.22891V7.71618L104.335 7.58281V18.4465L107.339 15.219C108.101 14.395 107.973 13.7949 106.577 13.5711V13.0584H111.167V13.5711C109.983 13.7712 109.39 14.195 108.29 15.3079L106.831 16.7557L109.96 21.4755C110.658 22.5217 110.891 22.7218 111.842 22.8344V23.3234H106.893V22.8344C107.929 22.7232 108.077 22.412 107.591 21.6326L105.392 18.2257L104.334 19.2942V22.0105L104.335 22.009Z" fill="#114734"></path>
    <path d="M112.222 18.3131C112.222 15.1301 114.252 12.8806 116.959 12.8806C119.815 12.8806 121.232 15.173 121.063 17.8226H114.612V18.1561C114.612 20.6723 115.691 22.4298 117.805 22.4298C119.053 22.4298 119.92 21.717 120.766 20.5597L121.126 20.8709C120.28 22.3409 119.096 23.4983 116.98 23.4983C114.019 23.4983 112.222 21.3836 112.222 18.3117V18.3131ZM114.633 17.2447L118.715 17.2003C118.927 15.0189 118.314 13.4822 116.833 13.4822C115.565 13.4822 114.782 14.7285 114.634 17.2447H114.633Z" fill="#114734"></path>
    <path d="M122.754 19.9165H123.26C124.403 21.9645 125.375 22.8774 126.709 22.8774C127.872 22.8774 128.442 22.0979 128.442 21.274C128.442 20.25 127.829 19.7595 125.842 19.1593C123.663 18.491 122.796 17.7574 122.796 16.1985C122.796 14.2394 124.235 12.882 126.414 12.882C127.239 12.882 128.106 13.1932 128.635 13.5267L129.1 12.882H129.566V16.0874H129.037C128.042 14.3728 127.324 13.5044 126.16 13.5044C125.188 13.5044 124.511 14.1505 124.511 15.1078C124.511 16.0651 125.314 16.4875 126.901 16.9557C129.038 17.5574 130.053 18.3576 130.053 20.0499C130.053 21.9423 128.785 23.5012 126.5 23.5012C125.717 23.5012 124.47 23.1456 123.877 22.7662L123.2 23.5012H122.755V19.9165H122.754Z" fill="#114734"></path>
    <path d="M33.1794 25.1106C32.7141 23.6642 32.354 23.2626 31.001 23.107V22.5721H37.3035V23.107C35.5904 23.196 35.3148 23.642 35.6542 24.7327L38.5513 34.439H38.6565L41.152 26.1123C41.807 23.9754 41.4691 23.4182 39.6286 23.107V22.5721H44.79V23.107C43.2666 23.4182 42.6324 24.1533 41.9566 26.3346L38.3616 38H37.1983L34.0048 27.8031L30.4305 38H29.2672L25.3551 25.0202C24.9535 23.7072 24.5934 23.3723 23.0715 23.1056V22.5706H29.4169V23.1056C27.7676 23.1945 27.6401 23.7072 27.9365 24.7312L30.6869 34.482H30.7714L33.6269 26.5791L33.1824 25.1091L33.1794 25.1106Z" fill="#114734"></path>
    <path d="M43.4118 32.6578C43.4118 29.4747 45.442 27.2252 48.1494 27.2252C51.005 27.2252 52.4217 29.5177 52.2528 32.1673H45.8021V32.5007C45.8021 35.017 46.8809 36.7745 48.9956 36.7745C50.2433 36.7745 51.1102 36.0617 51.9564 34.9043L52.3165 35.2155C51.4703 36.6856 50.2863 37.8429 48.1702 37.8429C45.2094 37.8429 43.4118 35.7283 43.4118 32.6563V32.6578ZM45.8229 31.5894L49.9055 31.5449C50.1174 29.3636 49.5039 27.8269 48.0235 27.8269C46.755 27.8269 45.9725 29.0731 45.8243 31.5894H45.8229Z" fill="#114734"></path>
    <path d="M53.5613 37.1553C54.7675 37.1331 55.0624 36.9553 55.0624 36.3314V23.6865C55.0624 22.9737 54.7883 22.618 53.4338 22.5736V22.0608L57.2838 21.9275V36.3314C57.2838 36.9553 57.5579 37.1331 58.7849 37.1553V37.6681H53.5598V37.1553H53.5613Z" fill="#114734"></path>
    <path d="M59.7793 37.1553C60.9855 37.1331 61.2804 36.9553 61.2804 36.3314V23.6865C61.2804 22.9737 61.0063 22.618 59.6518 22.5736V22.0608L63.5018 21.9275V36.3314C63.5018 36.9553 63.7759 37.1331 65.0029 37.1553V37.6681H59.7778V37.1553H59.7793Z" fill="#114734"></path>
    <path d="M66.0388 37.1553C67.2658 37.1331 67.5607 36.9553 67.5607 36.3314V29.1413C67.5607 28.473 67.2643 28.0506 66.0388 28.0284V27.5157L69.7405 27.3601V29.3636C70.7556 28.1395 72.0463 27.2934 73.4423 27.2934C75.0709 27.2934 75.9807 28.384 75.9807 30.432V36.3314C75.9807 36.9553 76.2549 37.1331 77.4819 37.1553V37.6681H72.4909V37.1553C73.4645 37.1331 73.7594 36.9553 73.7594 36.3314V31.0099C73.7594 29.3399 73.2304 28.6508 72.0034 28.6508C71.1157 28.6508 70.354 29.2302 69.782 30.0082V36.3314C69.782 36.9553 70.0562 37.1331 71.009 37.1553V37.6681H66.0388V37.1553Z" fill="#114734"></path>
    <path d="M78.451 32.6578C78.451 29.4747 80.4812 27.2252 83.1886 27.2252C86.0442 27.2252 87.4609 29.5177 87.292 32.1673H80.8413V32.5007C80.8413 35.017 81.9201 36.7745 84.0348 36.7745C85.2825 36.7745 86.1494 36.0617 86.9956 34.9043L87.3557 35.2155C86.5095 36.6856 85.3255 37.8429 83.2094 37.8429C80.2486 37.8429 78.451 35.7283 78.451 32.6563V32.6578ZM80.8621 31.5894L84.9447 31.5449C85.1566 29.3636 84.5431 27.8269 83.0627 27.8269C81.7942 27.8269 81.0117 29.0731 80.8635 31.5894H80.8621Z" fill="#114734"></path>
    <path d="M88.9813 34.2612H89.4881C90.6307 36.3092 91.6028 37.222 92.9365 37.222C94.0997 37.222 94.6703 36.4425 94.6703 35.6186C94.6703 34.5946 94.0568 34.1041 92.0696 33.504C89.8912 32.8356 89.0243 32.1021 89.0243 30.5432C89.0243 28.5841 90.4632 27.2267 92.6416 27.2267C93.467 27.2267 94.3339 27.5379 94.8629 27.8713L95.3282 27.2267H95.7935V30.432H95.2645C94.2702 28.7175 93.5515 27.8491 92.3882 27.8491C91.4161 27.8491 90.7388 28.4952 90.7388 29.4525C90.7388 30.4098 91.542 30.8321 93.1291 31.3004C95.266 31.902 96.2811 32.7023 96.2811 34.3946C96.2811 36.2869 95.0126 37.8459 92.7275 37.8459C91.9451 37.8459 90.6973 37.4902 90.1046 37.1109L89.4274 37.8459H88.9828V34.2612H88.9813Z" fill="#114734"></path>
    <path d="M98.0104 34.2612H98.5173C99.6598 36.3092 100.632 37.222 101.966 37.222C103.129 37.222 103.699 36.4425 103.699 35.6186C103.699 34.5946 103.086 34.1041 101.099 33.504C98.9203 32.8356 98.0534 32.1021 98.0534 30.5432C98.0534 28.5841 99.4923 27.2267 101.671 27.2267C102.496 27.2267 103.363 27.5379 103.892 27.8713L104.357 27.2267H104.823V30.432H104.294C103.299 28.7175 102.581 27.8491 101.417 27.8491C100.445 27.8491 99.768 28.4952 99.768 29.4525C99.768 30.4098 100.571 30.8321 102.158 31.3004C104.295 31.902 105.31 32.7023 105.31 34.3946C105.31 36.2869 104.042 37.8459 101.757 37.8459C100.974 37.8459 99.7265 37.4902 99.1337 37.1109L98.4565 37.8459H98.0119V34.2612H98.0104Z" fill="#114734"></path>
    <path d="M22.7158 0.0429747H17.9471C14.2617 0.0429747 11.2727 3.03194 11.2727 6.72183V18.3769H11.2875C16.4815 18.3769 20.693 14.1639 20.693 8.97134V4.41602L23.0344 0.610537C23.1841 0.364544 23.0048 0.0444566 22.7158 0.0444566V0.0429747ZM17.5603 4.65164C17.058 4.65164 16.646 4.24116 16.646 3.73287C16.646 3.22458 17.0565 2.8141 17.5603 2.8141C18.0642 2.8141 18.4791 3.22458 18.4791 3.73287C18.4791 4.24116 18.0686 4.65164 17.5603 4.65164Z" fill="#114734"></path>
    <path d="M1.08325 0H1.06546V0.0163007C1.06546 4.72722 4.57902 8.60976 9.12692 9.20992H1.06546V18.5088H1.08176C6.1839 18.5088 10.3213 14.3921 10.3599 9.29883V9.20992C10.3213 4.11668 6.1839 0 1.08325 0Z" fill="#114734"></path>
    <path d="M1.0625 27.7913V27.8076H1.0788C6.20464 27.8076 10.3613 23.6524 10.3613 18.5251V18.5088H10.345C5.21919 18.5088 1.0625 22.664 1.0625 27.7913Z" fill="#114734"></path>
    <path d="M108.009 26.5554C109.037 26.5554 109.898 27.4016 109.898 28.5085C109.898 29.6155 109.037 30.4839 108.009 30.4839C106.98 30.4839 106.109 29.6377 106.109 28.5085C106.109 27.3793 106.976 26.5554 108.009 26.5554ZM108.009 30.1934C108.88 30.1934 109.556 29.4688 109.556 28.5085C109.556 27.5483 108.88 26.8444 108.009 26.8444C107.137 26.8444 106.453 27.569 106.453 28.5085C106.453 29.448 107.127 30.1934 108.009 30.1934ZM107.274 27.369H108.126C108.649 27.369 108.896 27.5838 108.896 28.0254C108.896 28.4404 108.644 28.6137 108.317 28.6508L108.947 29.6644H108.579L107.979 28.6775H107.616V29.6644H107.274V27.369ZM107.618 28.3885H107.975C108.277 28.3885 108.554 28.3722 108.554 28.0106C108.554 27.7068 108.302 27.6594 108.071 27.6594H107.618V28.39V28.3885Z" fill="#114734"></path>
  </g>
  <defs>
    <clipPath id="clip0_12883_35">
      <rect width="130.625" height="38" fill="currentColor"></rect>
    </clipPath>
  </defs>
</svg>