<svg class="icon icon-logo" version="1.1" id="Layer_1" xmlns="http://www.w3.org/2000/svg" xmlns:xlink="http://www.w3.org/1999/xlink" x="0px" y="0px" viewBox="0 0 877.46 109.82" style="enable-background:new 0 0 877.46 109.82;" xml:space="preserve">
<path d="M53.55,11.07v57.66c0,4.32-1.25,18.41-17.39,18.41c-5.1,0-9.86-2.86-13.05-7.84c-3.83-5.98-3.3-11.45-3.29-11.5l0.04-0.36
	H6.23v3.65c0,6.58,3.57,14.34,9.08,19.78c3.94,3.88,10.74,8.5,20.81,8.5c0.15,0,0.3,0,0.46,0c18.31-0.25,25.59-9.9,28.48-17.94
	c1.82-5.08,2.07-9.6,2.07-13.74V11.07H53.55z"></path>
<path d="M80.57,55.04c0-26.2,19.38-45.13,45.13-45.13c25.94,0,45.19,18.93,45.19,45.13c0,26.39-19.25,44.87-45.19,44.87
	C99.95,99.91,80.57,81.43,80.57,55.04z M125.7,87.1c18.73,0,31.03-12.94,31.03-32.19c0-18.8-12.3-32.19-31.03-32.19
	c-18.48,0-30.97,13.39-30.97,32.19C94.73,74.16,107.22,87.1,125.7,87.1z"></path>
<path d="M188.4,73.06c4.18,8.56,12.23,14.68,24.08,14.68c10.11,0,17.96-4.83,17.96-12.49c0-7.34-6.95-10.56-19.83-14.68
	c-16.61-5.34-29.68-10.88-29.55-26.33c0.13-15.97,15.19-24.33,29.74-24.33c16.16,0,26.46,8.69,31.35,18.03l-10.49,7.34
	c-3.73-6.76-10.82-13.07-20.86-13.07c-8.3,0-16.16,4.25-16.16,11.97s7.15,9.79,19.51,13.97c16.29,5.54,29.87,10.04,29.87,26.97
	c0,16.61-16.29,24.79-31.29,24.79c-17.12,0-29.42-8.76-34.44-19.83L188.4,73.06z"></path>
<path d="M274.63,98.62h-13.52V11.2h13.52V98.62z"></path>
<path d="M296.68,11.2h61.29v12.3H310.2v24.08h41.01v12.3H310.2v26.46h49.12v12.3h-62.64V11.2z"></path>
<path d="M409.15,11.2h16.03l30.19,62.19l30.26-62.19h15.97v87.42h-13.65V35.98L460.2,92.44h-9.66l-27.75-56.46v62.64h-13.65V11.2z"></path>
<path d="M513.59,98.62l36.12-87.42h14.68l36.12,87.42h-14.42l-6.95-18.22h-44.16l-6.95,18.22H513.59z M575.07,69.14l-18.03-42.81
	l-18.03,42.81H575.07z"></path>
<path d="M650.09,11.26c18.03,0,29.74,10.17,29.74,26.52c0,11.97-6.89,20.86-17.7,24.66l21.18,36.18H667.6l-19.76-34.31h-21.82v34.31
	H612.5V11.26H650.09z M626.02,23.43v28.84h23.43c10.75,0,16.29-5.99,16.29-14.48c0-8.69-5.54-14.36-16.29-14.36H626.02z"></path>
<path d="M691.53,98.62l36.12-87.42h14.68l36.12,87.42h-14.42l-6.95-18.22h-44.16l-6.95,18.22H691.53z M753.02,69.14l-18.03-42.81
	l-18.03,42.81H753.02z"></path>
<path d="M789.99,98.62V11.2h13.52l53.24,66.63V11.2h13.52v87.42h-13.65l-53.11-65.99v65.99H789.99z"></path>
</svg>