<svg version="1.1" id="logo_1" xmlns="http://www.w3.org/2000/svg" xmlns:xlink="http://www.w3.org/1999/xlink" x="0px" y="0px" viewBox="0 0 289.8 21.6" style="enable-background:new 0 0 289.8 21.6;" xml:space="preserve" alt="First Truck Parts" class="site-logo-image">
<style type="text/css">
	.logo_st0{fill:#FF3753;}
	.logo_st1{fill:#303030;}
</style>
<g>
	<g>
		<path class="logo_st0" d="M26.1,13.8l1.1-4.2c0.1-0.2,0.3-0.4,0.5-0.4h7.7c0.9,0,1.7-0.6,1.9-1.5l1.9-7.5h4.8L41.4,10
			c-0.6,2.3-2.6,3.9-5,3.9H26.1z"></path>
		<path class="logo_st0" d="M5.4,21.5l4-15.7c0.1-0.2,0-0.5-0.1-0.7C9.1,4.9,8.9,4.8,8.6,4.8h-8l1.2-4.6h9.6c1,0,1.9,0.5,2.5,1.2
			s0.8,1.8,0.6,2.8l-4.4,17.3H5.4z"></path>
		<path class="logo_st0" d="M14.8,21.5L19.2,4c0.6-2.3,2.6-3.9,5-3.9h10.4l-1.1,4.2c-0.1,0.2-0.3,0.4-0.5,0.4h-7.6
			c-0.9,0-1.7,0.6-1.9,1.5l-3.9,15.2H14.8z"></path>
	</g>
	<g>
		<path class="logo_st1" d="M145.9,18.2V3.5h6.8c2.8,0,5.2,2.3,5.2,5.2c0,1.9-1,3.6-2.6,4.5l-0.1,0.1l3.4,5h-3.1l-3-4.4h-3.9v4.4H145.9z
			 M148.5,11.2h4.3c0.7,0,1.3-0.3,1.8-0.8c0.5-0.5,0.8-1.1,0.8-1.8c0-1.4-1.2-2.6-2.6-2.6h-4.3V11.2z"></path>
		<path class="logo_st1" d="M248.8,18.2V3.5h6.8c2.8,0,5.2,2.3,5.2,5.2c0,1.9-1,3.6-2.6,4.5l-0.1,0.1l3.4,5h-3.1l-3-4.4h-3.9v4.4H248.8z
			 M251.4,11.2h4.3c0.7,0,1.3-0.3,1.8-0.8c0.5-0.5,0.8-1.1,0.8-1.8c0-1.4-1.2-2.6-2.6-2.6h-4.3V11.2z"></path>
		<path class="logo_st1" d="M285,9.7c-2.1-0.7-5-1-4.7-2.8c0.3-1.8,4-1.6,7-0.1l0.8-2.1c0,0-2-1.5-5.5-1.5c-3.2,0-4.5,2-4.8,3.4
			c-0.2,1.4-0.1,3.7,4,5c3.5,1.1,4.8,1.5,4.8,2.7c-0.1,1.6-3,2.9-7.9,0.5l-1.1,2.3c0,0,2.5,1.5,5.5,1.5c3.1,0,6-1.4,6.1-4.2
			C289.3,11.4,287.1,10.4,285,9.7z"></path>
		<polygon class="logo_st1" points="112.5,18.2 112.5,6 108.2,6 108.2,3.5 119.5,3.5 119.5,6 115.1,6 115.1,18.2 		"></polygon>
		<polygon class="logo_st1" points="57.3,18.2 57.3,3.5 67.7,3.5 67.7,6 59.9,6 59.9,10.4 65.8,10.4 65.8,12.9 59.9,12.9 59.9,18.2 		"></polygon>
		<rect x="71.4" y="3.5" class="logo_st1" width="2.6" height="14.7"></rect>
		<path class="logo_st1" d="M78.3,18.2V3.5h6.8c2.8,0,5.2,2.3,5.2,5.2c0,1.9-1,3.6-2.6,4.5l-0.1,0.1l3.4,5h-3.1l-3-4.4h-3.9v4.4H78.3z
			 M80.8,11.2h4.3c0.7,0,1.3-0.3,1.8-0.8c0.5-0.5,0.8-1.1,0.8-1.8c0-1.4-1.2-2.6-2.6-2.6h-4.3V11.2z"></path>
		<g>
			<polygon class="logo_st1" points="135.2,18.2 135.2,6 130.8,6 130.8,3.5 142.2,3.5 142.2,6 137.8,6 137.8,18.2 			"></polygon>
			<path class="logo_st1" d="M167.8,18.6c-3.4,0-6.2-2.8-6.2-6.2V3.5h2.6v8.9c0,2,1.6,3.6,3.6,3.6c0,0,0.1,0,0.1,0
				c1.9-0.1,3.5-1.7,3.5-3.7V3.5h2.6v8.9C174,15.8,171.2,18.6,167.8,18.6z"></path>
			<polygon class="logo_st1" points="203.1,18.2 199,12.5 195.9,12.5 195.9,18.2 193.4,18.2 193.4,3.5 195.9,3.5 195.9,9.9 198.8,9.9 
				202.7,3.5 205.7,3.5 201.1,11 206.2,18.2 			"></polygon>
			<path class="logo_st1" d="M188.3,14.6l1.7,1.9c-1.4,1.4-3.3,2.1-5.3,2.1c-4.3,0-7.7-3.5-7.7-7.7s3.5-7.8,7.7-7.8c2,0,3.9,0.7,5.3,2.1
				l-1.7,1.9c-0.9-0.9-2.2-1.4-3.6-1.4c-2.9,0-5.2,2.3-5.2,5.2c0,2.9,2.3,5.2,5.2,5.2C186.1,16,187.3,15.4,188.3,14.6z"></path>
		</g>
		<g>
			<polygon class="logo_st1" points="267.9,18.2 267.9,6 263.5,6 263.5,3.5 274.9,3.5 274.9,6 270.5,6 270.5,18.2 			"></polygon>
			<path class="logo_st1" d="M217.5,18.4V3.7h6.5c2.8,0,5.2,2.3,5.2,5.2c0,2.8-2.3,5.2-5.2,5.2h-3.9v4.4H217.5z M220.1,11.4h3.9
				c0.7,0,1.3-0.3,1.8-0.8c0.5-0.5,0.8-1.1,0.8-1.8c0-1.4-1.2-2.6-2.6-2.6h-3.9V11.4z"></path>
			<path class="logo_st1" d="M240.3,3.5H235l-5.3,14.7h2.7l1.3-3.7h7.7l1.3,3.7h2.7L240.3,3.5z M234.7,11.9l2-5.5h1.9l2,5.5H234.7z"></path>
		</g>
		<path class="logo_st1" d="M101.7,9.7c-2.1-0.7-5-1-4.7-2.8c0.3-1.8,4-1.6,7-0.1l0.8-2.1c0,0-2-1.5-5.5-1.5c-3.2,0-4.5,2-4.8,3.4
			c-0.2,1.4-0.1,3.7,4,5c3.5,1.1,4.8,1.5,4.8,2.7c-0.1,1.6-3,2.9-7.9,0.5L94.2,17c0,0,2.5,1.5,5.5,1.5c3.1,0,6-1.4,6.1-4.2
			C105.9,11.4,103.8,10.4,101.7,9.7z"></path>
	</g>
</g>
</svg>