<svg class="w-full icon icon--logo" id="Layer_1" data-name="Layer 1" xmlns="http://www.w3.org/2000/svg" viewBox="0 0 235.7 37.35"><defs></defs><title>dp-surplus-logoalt</title><path class="cls-1" d="M34.28,115.89a5.62,5.62,0,0,0,1.73,2,7.48,7.48,0,0,0,2.52,1.15,12,12,0,0,0,3,.37,16.61,16.61,0,0,0,2.25-.17,7.73,7.73,0,0,0,2.25-.68,4.93,4.93,0,0,0,1.75-1.37,3.46,3.46,0,0,0,.7-2.23,3.16,3.16,0,0,0-.92-2.35,7.4,7.4,0,0,0-2.43-1.5,24.07,24.07,0,0,0-3.4-1c-1.27-.3-2.55-.63-3.85-1a34.59,34.59,0,0,1-3.9-1.22,13.46,13.46,0,0,1-3.4-1.88,8.43,8.43,0,0,1-3.35-7,9.27,9.27,0,0,1,1.18-4.77,10.57,10.57,0,0,1,3.07-3.38,13.58,13.58,0,0,1,4.3-2,18.43,18.43,0,0,1,4.8-.65,22.58,22.58,0,0,1,5.38.63,13.34,13.34,0,0,1,4.57,2,10.43,10.43,0,0,1,3.18,3.58,11,11,0,0,1,1.17,5.27h-7.6A6.44,6.44,0,0,0,46.61,97a4.51,4.51,0,0,0-1.53-1.65,6.52,6.52,0,0,0-2.17-.85,14,14,0,0,0-2.68-.25,9.43,9.43,0,0,0-1.9.2,5.24,5.24,0,0,0-1.72.7,4.36,4.36,0,0,0-1.28,1.25,3.4,3.4,0,0,0-.5,1.9,3.17,3.17,0,0,0,.4,1.7,3.48,3.48,0,0,0,1.58,1.2,18.88,18.88,0,0,0,3.25,1.1q2.07.55,5.42,1.4c.67.14,1.59.38,2.78.73a13.56,13.56,0,0,1,3.52,1.67,10.6,10.6,0,0,1,3,3.08,8.73,8.73,0,0,1,1.27,4.92,10.94,10.94,0,0,1-.95,4.55,9.88,9.88,0,0,1-2.82,3.63,13.41,13.41,0,0,1-4.65,2.37,21.92,21.92,0,0,1-6.43.85,22.64,22.64,0,0,1-5.72-.72,14.17,14.17,0,0,1-4.9-2.28,11.15,11.15,0,0,1-3.38-3.95,11.87,11.87,0,0,1-1.2-5.7h7.6a6.58,6.58,0,0,0,.65,3" transform="translate(-26.03 -88.14)"></path><path class="cls-1" d="M87,122q-4,3.52-11.2,3.52T64.56,122q-4-3.49-4-10.8V89h7.85v22.2a15.82,15.82,0,0,0,.25,2.85,5.87,5.87,0,0,0,1,2.48A5.76,5.76,0,0,0,72,118.27a9,9,0,0,0,3.82.67q4.2,0,5.8-1.87t1.6-5.88V89H91v22.2q0,7.26-4,10.78" transform="translate(-26.03 -88.14)"></path><path class="cls-1" d="M117,89a11.39,11.39,0,0,1,4.32.78,9.71,9.71,0,0,1,3.3,2.12,9.09,9.09,0,0,1,2.1,3.13,9.88,9.88,0,0,1,.73,3.82,10.66,10.66,0,0,1-1.33,5.45,8.27,8.27,0,0,1-4.32,3.5v.1a6.06,6.06,0,0,1,2.4,1.23,6.85,6.85,0,0,1,1.55,1.95,8.93,8.93,0,0,1,.87,2.47,20.88,20.88,0,0,1,.38,2.7c0,.57.07,1.24.1,2s.09,1.55.17,2.35a17.44,17.44,0,0,0,.4,2.28,5.35,5.35,0,0,0,.83,1.82h-7.85a13.9,13.9,0,0,1-.8-4q-.15-2.34-.45-4.5a7.12,7.12,0,0,0-1.7-4.1,5.87,5.87,0,0,0-4.25-1.3h-7.85v14H97.78V89Zm-2.8,16.15a5.94,5.94,0,0,0,4-1.2,5,5,0,0,0,1.35-3.9,4.75,4.75,0,0,0-1.35-3.77,6,6,0,0,0-4-1.18h-8.6v10Z" transform="translate(-26.03 -88.14)"></path><path class="cls-1" d="M150,89a14.89,14.89,0,0,1,5.7,1,10.79,10.79,0,0,1,3.83,2.57,10,10,0,0,1,2.14,3.65,13.56,13.56,0,0,1,0,8.48,9.83,9.83,0,0,1-2.14,3.67,10.68,10.68,0,0,1-3.83,2.58,14.9,14.9,0,0,1-5.7,1h-8.25v12.8h-7.85V89Zm-2.15,16.8a15.66,15.66,0,0,0,2.6-.2,6,6,0,0,0,2.2-.77,4.2,4.2,0,0,0,1.52-1.63,6.81,6.81,0,0,0,0-5.5,4.17,4.17,0,0,0-1.52-1.62,6.25,6.25,0,0,0-2.2-.78,16.81,16.81,0,0,0-2.6-.2h-6.1v10.7Z" transform="translate(-26.03 -88.14)"></path><polygon class="cls-1" points="149.05 0.85 149.05 29.95 166.45 29.95 166.45 36.55 141.2 36.55 141.2 0.85 149.05 0.85"></polygon><path class="cls-1" d="M223.13,122q-4,3.52-11.2,3.52T200.7,122q-4-3.49-4-10.8V89h7.85v22.2a15.82,15.82,0,0,0,.25,2.85,5.87,5.87,0,0,0,1,2.48,5.72,5.72,0,0,0,2.22,1.75,9.07,9.07,0,0,0,3.83.67q4.2,0,5.8-1.87t1.6-5.88V89h7.85v22.2q0,7.26-4.05,10.78" transform="translate(-26.03 -88.14)"></path><path class="cls-1" d="M239.93,115.89a5.69,5.69,0,0,0,1.72,2,7.62,7.62,0,0,0,2.53,1.15,12,12,0,0,0,3,.37,16.61,16.61,0,0,0,2.25-.17,7.73,7.73,0,0,0,2.25-.68,4.93,4.93,0,0,0,1.75-1.37,3.46,3.46,0,0,0,.7-2.23,3.13,3.13,0,0,0-.93-2.35,7.24,7.24,0,0,0-2.42-1.5,24.07,24.07,0,0,0-3.4-1c-1.27-.3-2.55-.63-3.85-1a34.59,34.59,0,0,1-3.9-1.22,13.46,13.46,0,0,1-3.4-1.88,8.36,8.36,0,0,1-3.35-7,9.37,9.37,0,0,1,1.17-4.77,10.72,10.72,0,0,1,3.08-3.38,13.58,13.58,0,0,1,4.3-2,18.43,18.43,0,0,1,4.8-.65,22.44,22.44,0,0,1,5.37.63,13.3,13.3,0,0,1,4.58,2,10.3,10.3,0,0,1,3.17,3.58,10.89,10.89,0,0,1,1.18,5.27h-7.6a6.29,6.29,0,0,0-.68-2.65,4.4,4.4,0,0,0-1.52-1.65,6.49,6.49,0,0,0-2.18-.85,13.77,13.77,0,0,0-2.67-.25,9.43,9.43,0,0,0-1.9.2,5.38,5.38,0,0,0-1.73.7A4.45,4.45,0,0,0,241,96.39a3.4,3.4,0,0,0-.5,1.9,3.17,3.17,0,0,0,.4,1.7,3.5,3.5,0,0,0,1.57,1.2,19.5,19.5,0,0,0,3.25,1.1q2.09.55,5.43,1.4c.67.14,1.59.38,2.77.73a13.47,13.47,0,0,1,3.53,1.67,10.57,10.57,0,0,1,3,3.08,8.73,8.73,0,0,1,1.28,4.92,10.94,10.94,0,0,1-1,4.55,9.91,9.91,0,0,1-2.83,3.63,13.41,13.41,0,0,1-4.65,2.37,21.85,21.85,0,0,1-6.42.85,22.72,22.72,0,0,1-5.73-.72,14.25,14.25,0,0,1-4.9-2.28,11.23,11.23,0,0,1-3.37-3.95,11.87,11.87,0,0,1-1.2-5.7h7.6a6.58,6.58,0,0,0,.65,3" transform="translate(-26.03 -88.14)"></path></svg>