<svg class="icon icon--site-logo" xmlns="http://www.w3.org/2000/svg" viewBox="0 0 850 230">
<title>Patricks - Logo</title>
	<path d="M70.67,60.31h54.69c3.27,0,6.61,0.51,9.99,1.54c3.38,1.03,6.45,2.76,9.22,5.22c2.76,2.46,5.02,5.71,6.76,9.75
		c1.74,4.05,2.61,9.04,2.61,14.98c0,5.33-0.9,9.96-2.69,13.9c-1.79,3.94-4.1,7.2-6.91,9.76c-2.82,2.56-6.02,4.45-9.6,5.68
		c-3.59,1.23-7.12,1.84-10.6,1.84H85.11v46.7H70.67V60.31z M85.11,110.39h33.49c6.24,0,11.29-1.46,15.13-4.38s5.76-7.7,5.76-14.36
		c0-6.15-1.46-10.8-4.38-13.98c-2.92-3.17-7.76-4.76-14.52-4.76H85.11V110.39z"></path>
	<path d="M191.26,60.31h15.36l39.64,109.38h-15.51l-11.68-33.49h-41.48l-12.6,33.49h-15.51L191.26,60.31z M198.94,78.28h-0.31
		l-16.59,45.32h32.57L198.94,78.28z"></path>
	<polygon points="271.76,72.91 238.89,72.91 238.89,60.31 319.08,60.31 319.08,72.91 286.2,72.91 286.2,169.69 271.76,169.69 	"></polygon>
	<path d="M332.6,60.31h49.47c4.3,0,8.55,0.49,12.75,1.46c4.2,0.98,7.96,2.64,11.29,4.99c3.33,2.36,6.01,5.56,8.06,9.6
		c2.05,4.05,3.07,9.19,3.07,15.44c0,3.48-0.44,6.89-1.31,10.22c-0.87,3.33-2.28,6.38-4.22,9.14c-1.95,2.76-4.56,5.15-7.84,7.14
		c-3.28,2-7.27,3.36-11.98,4.07L422,169.69h-17.51L375,123.3h-27.96v46.39H332.6V60.31z M347.04,110.7h32.72
		c3.38,0,6.48-0.31,9.3-0.92c2.82-0.61,5.25-1.64,7.3-3.07c2.05-1.43,3.63-3.36,4.76-5.76c1.13-2.41,1.69-5.46,1.69-9.14
		c0-3.58-0.56-6.58-1.69-8.99c-1.13-2.4-2.71-4.35-4.76-5.84c-2.05-1.48-4.48-2.53-7.3-3.15c-2.82-0.62-5.92-0.92-9.3-0.92h-32.72
		V110.7z"></path>
	<rect x="436.75" y="60.31" width="14.44" height="109.38"></rect>
	<path d="M560.88,94.11c-0.92-3.69-2.48-7.07-4.69-10.14c-2.2-3.07-4.84-5.71-7.91-7.91c-3.07-2.2-6.48-3.89-10.22-5.07
		s-7.66-1.77-11.75-1.77c-6.76,0-12.62,1.25-17.59,3.76c-4.97,2.51-9.06,5.87-12.29,10.06c-3.23,4.2-5.61,9.06-7.14,14.6
		c-1.54,5.53-2.3,11.32-2.3,17.36c0,6.04,0.77,11.83,2.31,17.36c1.54,5.53,3.93,10.39,7.16,14.59c3.23,4.2,7.34,7.55,12.32,10.06
		c4.98,2.51,10.86,3.76,17.63,3.76c4.72,0,9.13-0.77,13.24-2.3c4.11-1.54,7.72-3.74,10.85-6.61c3.13-2.87,5.72-6.3,7.77-10.29
		c2.05-3.99,3.39-8.4,4.01-13.21l15.05,1.84c-1.23,6.45-3.46,12.29-6.68,17.51c-3.23,5.22-7.12,9.65-11.68,13.29
		c-4.56,3.64-9.65,6.45-15.28,8.45c-5.63,2-11.42,3-17.36,3c-8.5,0-16.16-1.38-22.97-4.15c-6.81-2.76-12.6-6.68-17.36-11.75
		c-4.76-5.07-8.4-11.14-10.91-18.21c-2.51-7.07-3.76-14.85-3.76-23.35c0-8.5,1.25-16.28,3.76-23.35c2.51-7.06,6.14-13.13,10.91-18.2
		c4.76-5.07,10.55-8.99,17.36-11.75c6.81-2.76,14.46-4.15,22.97-4.15c5.84,0,11.42,0.72,16.75,2.15c5.32,1.43,10.14,3.56,14.44,6.37
		c4.3,2.82,8.04,6.33,11.21,10.52c3.17,4.2,5.58,9.12,7.22,14.75L560.88,94.11z"></path>
	<polygon points="594.22,60.31 608.66,60.31 608.66,113.31 660.73,60.31 678.55,60.31 634.62,105.48 680.24,169.69 662.73,169.69 
		624.63,115.92 608.66,131.59 608.66,169.69 594.22,169.69 	"></polygon>
	<path d="M762.43,92.42c-0.21-3.99-1.07-7.45-2.61-10.37c-1.53-2.92-3.57-5.32-6.13-7.22c-2.55-1.89-5.49-3.3-8.81-4.23
		c-3.32-0.92-6.87-1.38-10.65-1.38c-2.55,0-5.26,0.26-8.12,0.77c-2.86,0.51-5.49,1.38-7.89,2.61c-2.4,1.23-4.39,2.92-5.97,5.07
		c-1.58,2.15-2.37,4.81-2.37,7.99c0,3.59,1,6.48,3,8.68c2,2.21,4.61,3.99,7.84,5.38c3.22,1.38,6.94,2.51,11.14,3.38
		c4.2,0.87,8.45,1.79,12.75,2.76c4.3,0.97,8.55,2.15,12.75,3.53c4.2,1.38,7.91,3.28,11.14,5.68c3.23,2.41,5.84,5.48,7.83,9.22
		c2,3.74,3,8.48,3,14.21c0,5.84-1.23,10.88-3.69,15.13c-2.46,4.25-5.66,7.76-9.6,10.52c-3.94,2.76-8.43,4.84-13.44,6.22
		c-5.02,1.38-10.14,2.07-15.36,2.07c-6.45,0-12.52-0.69-18.2-2.07c-5.68-1.38-10.68-3.58-14.98-6.61
		c-4.3-3.02-7.81-6.96-10.52-11.83c-2.72-4.86-4.28-10.78-4.69-17.74l15.67-1.38c0.41,9.94,3.48,17.08,9.22,21.43
		c5.73,4.35,13.37,6.53,22.89,6.53c3.48,0,6.84-0.41,10.06-1.23c3.22-0.82,6.09-2.1,8.6-3.84c2.51-1.74,4.53-3.99,6.07-6.76
		s2.3-6.09,2.3-9.99c0-3.79-1-6.83-3-9.14c-2-2.3-4.61-4.2-7.84-5.68c-3.22-1.48-6.94-2.69-11.14-3.61
		c-4.2-0.92-8.45-1.84-12.75-2.77c-4.3-0.92-8.55-2-12.75-3.23c-4.2-1.23-7.91-2.92-11.14-5.07c-3.23-2.15-5.84-4.86-7.83-8.14
		c-2-3.28-3-7.47-3-12.6c0-5.32,1.15-9.93,3.46-13.83c2.3-3.89,5.32-7.12,9.06-9.68c3.74-2.56,7.93-4.48,12.6-5.76
		c4.66-1.28,9.35-1.92,14.06-1.92c5.63,0,10.96,0.67,15.98,2c5.02,1.33,9.47,3.38,13.37,6.15c3.89,2.76,7.12,6.3,9.68,10.6
		c2.56,4.3,4.25,9.43,5.07,15.36L762.43,92.42z"></path>
</svg>