<svg class="logo-non-sticky-header desktop-only" width="139" height="16" viewBox="0 0 139 16" xmlns="http://www.w3.org/2000/svg">
  <title>Jenni Kayne Logo</title>
  <path fill-rule="evenodd" clip-rule="evenodd" d="M138.695 4.21395C138.748 3.2475 138.466 2.30678 137.911 1.52365C137.345 0.72524 136.006 0 135.037 0H134.559C132.333 0 130.068 2.50618 130.068 4.75507C130.068 4.98984 130.074 5.22784 130.082 5.46262C130.153 7.82889 132.274 9.88401 134.573 9.88401H135.336C136.826 9.88401 138.226 8.68841 138.54 7.20577L138.219 7.13662C137.926 8.47614 136.71 9.57687 135.349 9.57687H134.664C132.999 9.57687 132.225 7.60698 132.225 6.1557C132.225 5.6178 132.156 4.71326 132.249 4.21315H138.695V4.21395ZM132.24 3.74118C132.239 2.7289 132.715 0.307946 134.508 0.307946H134.921C135.34 0.307946 135.72 0.473577 136.01 0.769462C136.308 1.06535 136.514 1.49631 136.573 2.02537V3.9245H132.259V3.90681H132.24V3.74118Z" fill="#49443E"></path>
  <path fill-rule="evenodd" clip-rule="evenodd" d="M2.28231 0.305664H5.7285C5.73006 10.8618 5.72928 10.8924 5.71988 10.9037C5.71675 11.2614 5.70422 11.4906 5.6909 11.6755C5.62589 12.5246 5.52564 13.4412 4.99618 14.2935C4.26857 15.4641 3.12741 15.9908 2.20869 15.9908C1.46463 15.9908 0.755811 15.7126 0 14.9954C0.108868 14.964 0.292142 14.8973 0.325038 14.8973C0.388479 14.8973 1.26726 15.711 2.17658 15.711C3.25978 15.711 3.88557 14.8772 3.88635 13.8649V0.615218H2.28231V0.305664Z" fill="#49443E"></path>
  <path fill-rule="evenodd" clip-rule="evenodd" d="M31.8332 0.0933838C33.1162 0.0933838 34.5957 0.998728 34.5949 2.63574V9.29235H36.2185V9.60191H31.1487V9.29878H32.7645V2.05925C32.7645 1.42728 32.2773 0.391681 31.4064 0.400525C31.2247 0.402133 31.1323 0.385249 30.9263 0.400525C30.2034 0.456808 29.3637 0.858021 28.7043 1.72718C28.3142 2.24096 27.8788 3.35696 27.8772 3.99778V9.29396H29.4883V9.60351H24.4106V9.30039H26.0319V0.618419H24.4106V0.315298H27.8333V2.64137C27.8365 2.63816 27.9876 2.40499 28.0432 2.27152C28.6048 0.922344 30.0961 0.0933838 31.1221 0.0933838H31.8332Z" fill="#49443E"></path>
  <path fill-rule="evenodd" clip-rule="evenodd" d="M47.7893 0.0933838C49.1098 0.0933838 50.5525 1.02365 50.5509 2.66308V9.29316H52.1746V9.60271H47.0977V9.29959H48.7198V2.08578C48.7198 1.44899 48.2663 0.405349 47.3617 0.399721C47.18 0.399721 47.0891 0.402937 46.8808 0.399721C45.9534 0.382836 44.4716 1.51572 44.1669 2.61725C44.1379 2.7258 43.834 3.64561 43.8325 3.96964V9.29235H45.4435V9.6019H40.3667V9.29878H41.988V0.618419H40.3667V0.308865H43.7886V2.64137C43.9131 2.47976 44.0557 2.19915 44.1677 1.97804C44.7668 0.800935 46.1469 0.0933838 47.0774 0.0933838H47.7893Z" fill="#49443E"></path>
  <path fill-rule="evenodd" clip-rule="evenodd" d="M56.354 0.305664H59.8072V9.28914H61.4308V9.5987H56.354V9.29558H57.9753V0.615217H56.354V0.305664Z" fill="#49443E"></path>
  <path fill-rule="evenodd" clip-rule="evenodd" d="M72.9971 0.258179H76.4495V4.33544H76.6508L80.8567 0.61919H79.3772V0.317677H82.6479V0.614366H81.4112L78.1021 3.51693C79.6466 5.43295 81.206 7.38032 82.7631 9.30035H83.6614V9.60428H78.9159V9.2891H80.4024C79.1689 7.75017 77.9212 6.18954 76.6766 4.64258H76.4534V9.29472H77.6063V9.60428H72.9971V9.30116H74.6183V0.567732H72.9971V0.258179Z" fill="#49443E"></path>
  <path fill-rule="evenodd" clip-rule="evenodd" d="M96.9764 9.09981C96.3279 9.60876 95.2666 9.6956 95.2666 8.54422V2.74552C95.2666 1.15192 93.8247 0.0664708 92.3632 0.0294852C92.0945 0.0222488 91.8259 0.021445 91.5573 0.0158167C90.4333 -0.00750031 89.2036 0.702463 88.6241 1.69223C88.4964 1.91012 88.4196 2.12641 88.3491 2.36923C88.3155 2.48581 88.2677 2.59436 88.2246 2.70773L88.545 2.77687C88.6045 2.62411 88.664 2.47616 88.7126 2.31938C89.0611 1.1881 90.2594 0.350295 91.4006 0.336627C91.6301 0.334214 91.8604 0.32537 92.0898 0.322958C93.0861 0.31331 93.4996 1.19694 93.4996 2.10229C93.4996 2.72381 93.5976 3.8784 92.9827 4.28042C91.7405 5.0941 90.1608 5.16084 88.8896 5.90296C88.6899 6.01955 88.505 6.22056 88.3507 6.39423C88.1573 6.61212 87.9121 7.22399 87.9121 7.51747V8.02803C87.9121 9.25177 89.1817 9.90063 90.2328 9.90063H91.0223C91.9927 9.90063 93.1691 9.22684 93.4299 8.21858H93.4644C93.6187 9.14966 94.2915 9.90063 95.2486 9.90063H95.8431C96.2402 9.90063 96.8386 9.59509 97.1377 9.33458L96.9764 9.09981ZM93.4213 6.87906C93.3414 8.48794 92.642 9.44634 91.3035 9.44634C90.0386 9.44634 89.7441 8.50241 89.7441 7.55847C89.7441 5.44949 91.576 5.54677 93.1777 4.58676C93.2897 4.52002 93.379 4.38977 93.3986 4.28444C93.3986 4.28444 93.4143 4.2973 93.4323 4.29891L93.4213 6.87906Z" fill="#49443E"></path>
  <path fill-rule="evenodd" clip-rule="evenodd" d="M124.331 9.28918H125.955V9.59873H120.878V9.29561H122.5V2.10914C122.5 1.31395 121.973 0.431121 121.142 0.396547C120.273 0.36117 119.649 0.595144 118.963 1.1451C118.289 1.68542 117.613 3.07077 117.613 3.9528V9.28837H119.224V9.59793H114.147V9.29481H115.768V0.615245H114.147V0.305691H117.57V2.639C117.658 2.58031 117.676 2.48141 117.714 2.38895C118.2 1.20139 119.554 0.09021 120.845 0.09021H121.57C123.005 0.09021 124.331 1.12179 124.331 2.67277V9.28918Z" fill="#49443E"></path>
  <path fill-rule="evenodd" clip-rule="evenodd" d="M100.049 0.305664H105.21V0.619238H103.461L103.451 0.636123L106.16 7.40047L109 0.615218H107.26V0.306468H110.479V0.609589H109.361C108.205 3.35778 107.092 6.12286 105.92 8.86382C105.186 10.5804 104.602 12.445 103.81 14.1142C103.144 15.518 101.834 16.3381 100.321 15.8662C100.588 15.4448 100.611 15.7238 101.1 15.7238C102.464 15.7238 103.36 14.55 103.811 13.3535C104.249 12.1957 104.7 11.0444 105.141 9.88816L101.493 0.609589H100.05V0.305664H100.049Z" fill="#49443E"></path>
  <path fill-rule="evenodd" clip-rule="evenodd" d="M19.8134 4.22371C19.8667 3.25726 19.5847 2.31654 19.0294 1.53341C18.4639 0.735005 17.1246 0.00976562 16.1558 0.00976562H15.678C13.4521 0.00976562 11.187 2.51594 11.187 4.76483C11.187 4.99961 11.1933 5.2376 11.2003 5.47238C11.2716 7.83866 13.3926 9.89377 15.6913 9.89377H16.455C17.9447 9.89377 19.3443 8.69817 19.6584 7.21553L19.3372 7.14638C19.0443 8.4859 17.8287 9.58663 16.4675 9.58663H15.7822C14.1178 9.58663 13.344 7.61674 13.344 6.16546C13.344 5.62756 13.2751 4.72302 13.3675 4.22291H19.8134V4.22371ZM13.3589 3.75014C13.3581 2.73786 13.8335 0.316907 15.6271 0.316907H16.0399C16.8779 0.316907 17.5585 0.979432 17.6729 2.01744V3.91657H13.3589V3.75014Z" fill="#49443E"></path>
</svg>