<svg class="q-display-logo" xmlns="http://www.w3.org/2000/svg" version="1.1" viewBox="0 0 905 230">
      <path d="M151,163.6l-1.2,45.7H17.9v-5.3h4.6c6.6,0,11.2-.8,13.8-2.5s4.2-4.3,4.9-7.8,1.1-11.8,1.1-24.8v-76.2c0-12.4-.4-20.3-1.1-23.9-.7-3.6-2.2-6.1-4.6-7.4s-7.4-2.1-15.3-2.1h-3.4v-5.3h74.5v5.3h-6.9c-7.6,0-12.6.6-15,1.9-2.4,1.3-4,3.6-4.8,7s-1.2,11.6-1.2,24.5v81.3c0,11.2.3,18.2.9,21.1.6,2.8,2.3,5,5,6.6s8.5,2.3,17.5,2.3h11.8c9.5,0,16.6-.8,21.2-2.5s9-5.3,13.2-11,8-14.6,11.4-26.9h5.5Z"></path>
      <path d="M286.8,161h5.5l-3.3,48.3h-128.6v-5.3h3.2c7.7,0,12.7-1,14.9-3.1s3.7-4.7,4.3-7.8c.6-3.2.9-11.2.9-24.2v-76.2c0-11.8-.3-19.6-1-23.4-.7-3.7-2.1-6.4-4.5-7.8-2.3-1.5-7.2-2.2-14.7-2.2v-5.3h111l3.7,38.7h-5.4c-2.4-10.8-5.4-18.5-9-23.1-3.5-4.5-7.8-7.4-12.7-8.6-4.9-1.2-12.8-1.8-23.6-1.8h-21.5v65.2h16.5c7.6,0,12.8-.7,15.9-2,3-1.3,5-3.3,6-5.9s1.4-7.8,1.4-15.4h5.4v53.1h-5.4c0-8.6-.7-14.4-2.2-17.3s-3.6-4.8-6.4-5.7-7.5-1.3-14.1-1.3h-17.1v36.8c0,18.4,1.2,29.2,3.5,32.5s8.7,4.9,19.1,4.9h11.6c8.2,0,14.9-1,20.2-3.2,5.3-2.1,10.3-6.4,15.1-12.9s8.5-15.5,11.3-27h0ZM233.9,40.5l-17.4-14.4c-8.4-7-13.5-11.5-15.3-13.6s-2.8-4.1-2.8-6.1c0-4.3,2.3-6.4,7-6.4s4.8.9,6.8,2.8c2,1.8,4.8,5.5,8.4,11.1l17.2,26.7h-3.9Z"></path>
      <path d="M439.2,163.6l-1.1,45.7h-131.9v-5.3h4.6c6.6,0,11.2-.8,13.8-2.5s4.2-4.3,4.9-7.8,1.1-11.8,1.1-24.8v-76.2c0-12.4-.4-20.3-1.1-23.9s-2.2-6.1-4.6-7.4-7.4-2.1-15.3-2.1h-3.4v-5.3h74.5v5.3h-6.9c-7.6,0-12.6.6-15,1.9-2.4,1.3-4,3.6-4.8,7s-1.2,11.6-1.2,24.5v81.3c0,11.2.3,18.2.9,21.1.6,2.8,2.3,5,5,6.6s8.5,2.3,17.5,2.3h11.8c9.5,0,16.6-.8,21.2-2.5s9-5.3,13.2-11,8-14.6,11.4-26.9h5.4Z"></path>
      <path d="M447.3,59.3v-5.3h71v5.3h-3.3c-7.6,0-12.6.6-15,1.9-2.4,1.3-4,3.6-4.8,7-.8,3.4-1.2,11.6-1.2,24.5v76.2c0,12.2.3,20.2.9,24s2.1,6.6,4.6,8.4c2.5,1.8,7.2,2.8,14.3,2.8h4.6v5.3h-71v-5.3h4.6c6.6,0,11.2-.8,13.8-2.5s4.2-4.3,4.9-7.8,1-11.8,1-24.8v-76.2c0-12.4-.3-20.3-1-23.9s-2.2-6.1-4.6-7.4-7.5-2.1-15.3-2.1h-3.5Z"></path>
      <path d="M536.2,130.7c0-24,8-43.2,24.1-57.7,16-14.5,36-21.8,60-21.8s44.4,7.2,60.6,21.5c16.2,14.4,24.3,33.9,24.3,58.8s-7.8,43.5-23.3,58.4-36,22.3-61.3,22.3-44.9-7.4-60.7-22.3c-15.8-14.9-23.7-34.6-23.7-59.2h0ZM562.5,131.5c0,25,5,43.7,14.9,56.2,10,12.5,24.9,18.8,44.8,18.8s31.3-6.3,41.5-18.8,15.2-31.2,15.2-56-5-42.6-15-55.5-24.5-19.3-43.5-19.3-33,6.3-43,18.8-14.9,31.1-14.9,55.7h0Z"></path>
      <path d="M887.7,209.3h-41.8c-7.4-5.2-18.7-18.8-34-40.8-4.9-7-10-13.8-15.2-20.2s-8.9-10.4-10.9-11.8c-2-1.4-5.1-2.1-9.3-2.1h-6.2v34.5c0,12.2.3,20.2.9,24s2.1,6.6,4.6,8.4c2.5,1.8,7.2,2.8,14.3,2.8h7.4v5.3h-74.3v-5.3h5c6.6,0,11.2-.8,13.8-2.5s4.2-4.3,4.9-7.8,1-11.8,1-24.8v-76.2c0-12.4-.3-20.3-1-23.9s-2.2-6.1-4.6-7.4c-2.4-1.4-7.5-2.1-15.3-2.1h-2.6v-5.3l22.2-1.1c14.8-.7,26.6-1,35.3-1,14.8,0,26.9,1.4,36.1,4.1,9.3,2.8,16.8,7.2,22.5,13.5s8.6,13.7,8.6,22.5-3.7,18.8-11.2,26-18.5,11.6-33,13.4c6.5,3.1,16.9,14.4,31.4,33.9,11.8,15.8,21,26.2,27.7,31,6.7,4.9,14.7,7.5,23.8,7.8v5.3h0v-.2ZM770.3,129.2c5.7-.2,11.6-.4,17.8-.7,6.1-.3,11.4-1.1,15.9-2.5s8.2-3.4,10.9-6c2.8-2.6,5-6.1,6.6-10.4s2.4-9.5,2.4-15.8c0-10.9-2.7-19.7-8.2-26.2-5.5-6.6-17.3-9.9-35.7-9.9s-6.1,0-9.7.5v71h0Z"></path>
    </svg>