<svg class="icon icon-nav-logo 
" width="206" height="41" viewBox="0 0 206 41" fill="none" xmlns="http://www.w3.org/2000/svg">
      <g clip-path="url(#clip0_7542_400)">
        <path d="M205.426 25.1094C204.745 17.7179 203.186 10.9865 199.04 10.9865C196.012 10.9865 195.435 12.7882 195.435 15.5614C195.435 18.3345 196.702 23.6004 196.702 26.1644C196.702 28.7284 195.181 30.8881 192.802 30.8881C191.002 30.8881 190.358 29.4566 190.358 27.6099C190.358 24.6493 192.396 20.3904 192.825 17.3647C193.312 13.9285 191.721 12.449 189.924 12.4102C186.579 12.339 183.28 17.862 181.769 22.9947C181.432 15.2159 178.191 11.6836 174.213 11.6836C171.701 11.6836 169.417 13.1337 167.738 14.9882C169.648 9.4744 170.76 0.363281 165.253 0.363281C161.632 0.363281 159.752 4.66709 159.206 17.0084C158.49 15.233 156.983 13.6945 155.021 13.82C151.758 14.0292 151.332 17.1323 151.195 19.4283C150.916 24.1179 149.071 29.5697 146.88 29.7091C145.612 29.7897 144.975 28.9438 144.885 27.6176C144.753 25.6981 148.114 19.292 147.938 16.7326C147.761 14.1733 146.176 12.8781 144.435 12.9881C141.232 13.1926 138.652 17.3771 137.28 21.8219C137.261 16.9263 135.181 13.4544 130.972 13.4544C127.804 13.4544 124.8 16.2678 122.689 19.7273C126.626 8.67034 127.038 1.37339 122.457 0.718059C118.494 0.151034 114.775 5.21242 113.845 19.1634C112.171 13.9719 108.072 11.1042 102.353 11.2204C97.7746 11.3149 95.061 13.8681 95.2705 16.274C95.4413 18.2183 97.2993 19.7753 101.663 18.8551C104.862 18.1812 106.151 18.9573 106.428 19.6468C106.945 20.9342 106.007 21.9288 103.166 22.2975C99.2056 22.8088 95.7136 23.5756 93.3996 25.4223C93.3738 17.5072 90.7713 10.8687 85.4004 10.5341C81.1672 10.2692 78.7194 13.8154 76.8744 13.7007C75.3258 13.6031 73.3147 10.2847 69.9065 10.0724C65.6153 9.80439 62.1265 12.9865 60.9889 21.6453C59.9092 16.1315 56.1175 11.8386 49.9973 11.8386C45.1501 11.8386 42.762 15.4731 42.762 18.1393C42.762 20.2742 44.1043 21.2409 45.8994 21.2409C48.6582 21.2409 49.3269 17.9798 51.0963 17.9798C52.2356 17.9798 53.0445 18.6847 53.0445 19.8698C53.0445 21.8049 51.1285 22.1054 45.843 23.9165C43.3517 24.7701 41.5421 25.4921 39.5504 26.9948C40.1031 22.2355 39.7969 16.9743 39.0621 13.2468C38.2435 9.09639 35.8344 6.56956 31.4417 6.56956C26.7975 6.56956 24.8976 9.30398 21.5378 8.9523C18.7935 8.66415 17.7654 4.61132 12.148 4.61132C8.23705 4.61132 4.85787 7.37672 3.17071 11.8231C1.25955 16.8628 -0.0231508 21.9892 0.513456 29.9988C0.903422 35.8209 2.83714 40.3617 6.35167 40.3617C9.55842 40.3617 10.9604 37.7404 11.1151 32.1042C11.2972 25.4378 9.50847 13.7999 14.317 13.8417C18.945 13.8805 15.8849 24.2201 15.358 28.6061C14.2203 38.0735 17.0258 39.9434 19.277 39.9434C21.5281 39.9434 25.091 38.7536 24.5463 27.8779C24.1693 20.3641 24.1886 14.2833 28.338 15.0873C31.6689 15.7318 27.6532 23.6934 27.6532 32.9703C27.6532 37.6335 29.284 40.0658 32.4601 40.0658C35.0851 40.0658 36.6369 38.5491 37.773 35.432C38.9542 37.0835 41.1183 38.1045 44.064 38.1045C47.7574 38.1045 50.0666 36.4065 51.5298 36.4065C52.9929 36.4065 53.7858 37.7342 55.307 37.7342C57.911 37.7342 59.6643 36.3321 60.5747 32.7751C60.926 39.0139 62.5906 40.3617 64.8434 40.3617C67.7246 40.3617 69.1878 38.6684 69.6503 31.8254C69.7873 29.8021 69.8727 26.2915 69.8985 23.3975C69.9307 19.9551 70.8009 18.7172 72.0304 18.7931C73.0939 18.8597 73.6579 20.1115 73.6869 23.0536C73.7208 26.4371 73.0907 30.8602 72.9795 32.4854C72.712 36.453 73.832 39.4244 76.7728 39.6073C79.2577 39.7622 81.0673 37.8969 81.0754 33.4691C81.0802 30.6294 80.6661 26.3736 80.9771 23.2549C81.2107 20.9156 81.5862 19.1185 83.312 19.2269C84.577 19.3059 85.0314 21.0395 85.1056 23.3045C85.2184 26.7408 84.2225 31.3978 84.0903 33.3514C83.8712 36.5924 84.6914 39.6398 88.0851 39.7978C90.275 39.9001 91.5964 38.2191 92.3989 34.9456C93.4302 35.9541 94.7903 36.6513 96.1648 36.9193C99.465 37.5607 101.856 36.5072 103.307 36.9333C104.759 37.3577 106.151 38.7892 107.927 38.6839C110.645 38.5212 112.361 36.3864 113.742 32.0965C113.924 36.9069 114.941 40.3648 118.569 40.3648C123.19 40.3648 122.404 34.7581 122.404 32.0283C122.404 25.6268 124.35 22.3022 126.619 22.3022C130.743 22.3022 126.893 28.1986 125.82 33.4955C125.096 37.068 126.307 38.7335 128.574 38.7335C131.576 38.7335 134.683 34.9192 136.246 29.4256C136.675 34.7721 138.689 38.0115 142.15 37.79C145.671 37.5653 146.49 34.6156 148.309 34.4994C150.128 34.3832 148.823 37.8504 152.56 37.6134C155.507 37.4259 157.981 33.3498 159.096 27.8237C159.449 37.5127 161.386 39.9977 163.847 39.9977C166.675 39.9977 168.02 37.6537 167.954 33.3746C167.877 28.2854 167.16 21.2332 171.043 21.2332C176.166 21.2332 171.701 31.909 171.266 34.3584C170.492 38.7242 171.241 39.9806 173.899 39.9806C176.898 39.9806 179.726 36.0084 181.034 30.6805C181.629 36.3213 184.302 39.2323 188.954 39.2323C192.752 39.2323 195.709 36.7458 196.758 36.7458C198.484 36.7458 197.84 39.2323 200.449 39.2323C203.323 39.2323 206.388 35.6117 205.42 25.1094H205.426ZM50.4114 31.9044C48.0426 33.2739 46.2507 32.9873 45.8849 32.3103C45.445 31.4969 46.1379 29.9523 48.5921 28.5332C51.0463 27.1141 52.6771 26.6447 53.2427 27.692C53.8825 28.8756 52.7802 30.5333 50.4114 31.9044ZM103.914 31.3684C101.829 32.3165 99.7535 32.3428 99.2781 31.4257C98.8027 30.5085 100.108 28.9965 102.192 28.0483C104.277 27.1002 106.352 27.0738 106.828 27.991C107.303 28.9082 105.998 30.4202 103.914 31.3684Z" fill="currentColor"></path>
      </g>
      <defs>
        <clipPath id="clip0_7542_400">
          <rect width="205.217" height="40" fill="white" transform="translate(0.390625 0.363281)"></rect>
        </clipPath>
      </defs>
    </svg>