<svg xmlns="http://www.w3.org/2000/svg" data-name="Group 853" viewBox="0 0 262.736 59.712" class="footer-logo"><defs><clipPath id="a"><path fill="none" d="M0 0h262.736v59.712H0z" data-name="Rectangle 545"></path></clipPath></defs><path fill="currentColor" d="M226.787.701v3.483l15.7-1.273v56h4.544v-56l15.7 1.273V.701Z" data-name="Path 5430"></path><path fill="currentColor" d="m216.659 55.461-23.421 1.236V28.386l20.923.612V25.55l-20.923.546V2.91l22.327 1.238V.701h-26.872v58.207h27.965Z" data-name="Path 5431"></path><g data-name="Group 850"><g fill="currentColor" clip-path="url(#a)" data-name="Group 849"><path d="M121.523 29.029a24.447 24.447 0 0 0-5.007-1.876 14.597 14.597 0 0 0-1.316-.21c4.948-1.393 9.641-6.242 9.641-12.333 0-8.708-6.414-13.907-17.158-13.907H96.559v58.226h12.237c14.232 0 21.15-5.682 21.15-15.985 0-7.536-4.143-11.545-8.423-13.92m-20.42-25.795h5.908c9.039 0 13.249 3.614 13.249 11.374 0 7.653-4.737 11.532-14.482 11.532H101.1Zm7.141 53.166h-7.141V28.373h4.678c12.815 0 19.313 4.833 19.313 14.084 0 9.382-5.512 13.942-16.85 13.942" data-name="Path 5432"></path><path d="M161.428 27.333c-10.4-5.662-14.086-8.627-14.086-15.018 0-3.946 1.724-8.054 6.813-9.541 6.3-1.841 12.734 2.207 14.039 7.813L172.5 8.1c-2.019-4.451-7.007-8.1-14.18-8.1a16.906 16.906 0 0 0-4.56.583c-6.155 1.607-10.787 6.852-10.787 12.617 0 6.857 4.184 10.849 9.335 14.053a47.136 47.136 0 0 0 4.443 2.532c7.223 3.881 14.587 7.382 14.587 15.338 0 5.8-2.172 10.131-8.1 11.75-6.41 1.752-13.359-.464-16.623-9.468a26.729 26.729 0 0 1-1.165-5.3l-4.621 2.667c1.625 8.6 7.8 14.4 16.225 14.872.367.032 1.8.036 1.8.036 9.648-.171 16.8-5.7 16.931-15.25-.191-5.909-2.9-10.853-14.364-17.094" data-name="Path 5433"></path><path d="M78.429 40.736c0 11.226-4.136 16.016-13.83 16.016h-.055a13.728 13.728 0 0 1-6.822-1.846c-3.967-2.49-6.387-7.514-6.387-15.16v-39H46.79V39.72c0 13.337 5.761 19.992 17.809 19.992 11.295 0 16.785-6.205 16.785-18.971V.742h-2.955Z" data-name="Path 5434"></path><path d="M20.6 27.333C10.192 21.671 6.51 18.706 6.51 12.315c0-3.946 1.724-8.054 6.813-9.541 6.3-1.841 12.734 2.207 14.039 7.813L31.668 8.1C29.649 3.649 24.66 0 17.488 0a16.906 16.906 0 0 0-4.56.583C6.773 2.19 2.141 7.435 2.141 13.2c0 6.857 4.184 10.849 9.335 14.053a47.136 47.136 0 0 0 4.443 2.532c7.223 3.881 14.587 7.382 14.587 15.338 0 5.8-2.173 10.131-8.1 11.75C16 58.624 9.051 56.407 5.786 47.4a26.733 26.733 0 0 1-1.165-5.3L0 44.769c1.625 8.6 7.8 14.4 16.225 14.872.367.032 1.8.036 1.8.036 9.647-.171 16.8-5.7 16.931-15.25-.191-5.909-2.9-10.853-14.364-17.094" data-name="Path 5435"></path></g></g></svg>