<svg xmlns="http://www.w3.org/2000/svg" viewBox="0 0 143 30" fill="currentColor" class="svg-logo-type"><path d="M10.947 29.738a8.7 8.7 0 0 1-2.097.253C4.193 29.99 0 25.5 0 19.588c0-5.871 4.193-10.36 8.85-10.36a8.7 8.7 0 0 1 2.098.252c-3.735 1.007-6.75 4.614-6.75 10.108 0 5.538 3.02 9.145 6.75 10.15Zm0-20.258a8.675 8.675 0 0 1 2.096-.252c3.524 0 6.796 2.559 8.179 6.418h-4.067c-1.094-3.314-3.439-5.453-6.208-6.166Zm10.318 13.968c-1.343 3.9-4.657 6.543-8.222 6.543a8.676 8.676 0 0 1-2.095-.253c2.768-.713 5.158-2.852 6.248-6.29h4.069ZM32.547 29.532a7.216 7.216 0 0 1-2.266.419c-3.272 0-6.71-2.977-6.71-6.877V9.857h3.858V23.07c0 3.103 2.39 5.663 5.118 6.459m8.64-19.672V29.36h-3.23v-1.211a5.07 5.07 0 0 1-3.645 1.632 6.38 6.38 0 0 1-1.765-.248c2.557-.964 4.781-3.482 4.781-6.458V9.857h3.86ZM51.208 9.439a5.247 5.247 0 0 1 1.804.292c-2.39.966-4.403 3.399-4.403 6.376v13.252H44.75V9.858h2.942v1.131c1.007-.964 2.265-1.557 3.523-1.557m13.13-.173a5.3 5.3 0 0 1 1.971.377c-2.474.922-4.614 3.397-4.614 6.459v13.264h-3.859V16.107c0-3.103-2.139-5.578-4.824-6.376a5.893 5.893 0 0 1 2.223-.46c1.636 0 3.314.796 4.53 2.097 1.259-1.301 2.943-2.097 4.573-2.097m10.442 6.836v13.252h-3.864V16.107c0-3.062-2.14-5.538-4.614-6.459a5.666 5.666 0 0 1 2.013-.377c3.146 0 6.458 2.976 6.458 6.836M87.191 29.532a7.204 7.204 0 0 1-2.265.419c-3.27 0-6.711-2.977-6.711-6.877V9.857h3.857V23.07c0 3.103 2.392 5.663 5.117 6.459M95.83 9.857V29.36h-3.227v-1.211a5.077 5.077 0 0 1-3.65 1.635 6.384 6.384 0 0 1-1.762-.25c2.56-.965 4.782-3.483 4.782-6.46V9.858h3.857ZM103.254 0h-3.86v29.36h3.86V0ZM115.711 29.532a7.22 7.22 0 0 1-2.266.419c-3.272 0-6.711-2.977-6.711-6.877V9.857h3.86V23.07c0 3.103 2.389 5.663 5.117 6.459m8.64-19.672V29.36h-3.231v-1.211a5.055 5.055 0 0 1-3.648 1.635 6.364 6.364 0 0 1-1.761-.25c2.558-.965 4.781-3.483 4.781-6.46V9.858h3.859ZM134.587 29.705a5.583 5.583 0 0 1-1.888.295c-3.061 0-5.579-2.35-5.789-5.161h3.859c.173 2.518 1.72 4.236 3.818 4.866Zm.083-10.527a7.85 7.85 0 0 1-2.013.293c-2.769 0-5.364-2.18-5.364-5.117 0-2.894 2.559-5.118 5.364-5.118.667.013 1.33.112 1.971.295-1.971.671-3.44 2.348-3.44 4.823 0 2.474 1.426 4.194 3.482 4.824Zm7.675 5.242c0 3.188-2.769 5.58-5.787 5.58a6.24 6.24 0 0 1-1.971-.295c2.18-.671 3.857-2.516 3.857-5.285s-1.677-4.614-3.774-5.242a5.692 5.692 0 0 1 1.888-.294c3.02 0 5.787 2.39 5.787 5.538m-7.717-14.883a7.138 7.138 0 0 1 1.93-.294c2.726 0 5.117 2.014 5.365 4.74h-3.898c-.173-2.307-1.593-3.807-3.397-4.446Z"></path></svg>