<svg xmlns="http://www.w3.org/2000/svg" width="111" height="34" viewBox="0 0 111 34" fill="none" class="logo__image">
        <g clip-path="url(#clip0_1_768)">
          <path d="M108.704 28.5147V20.449C108.704 14.8954 104.368 12.7554 99.8636 12.7554C93.9489 12.7554 91.3489 15.8418 91.1606 17.7181C90.9047 20.256 94.5549 20.8328 96.3631 19.9735C96.5031 19.9076 96.5707 19.7993 96.5562 19.6533C96.3631 17.4733 97.2877 15.0837 99.33 14.8036C101.295 14.5328 102.188 16.0184 102.181 18.1066V18.9447C102.181 20.1312 101.582 20.4726 100.532 20.7975C98.683 21.3696 95.663 22.2877 94.6418 22.5938C89.4224 24.157 88.6837 28.6253 90.7333 31.6482C91.7834 33.1949 93.6278 33.9695 95.8488 33.9695C98.4658 33.9695 100.537 33.089 102.316 31.3209C102.792 32.345 103.49 33.8753 106.457 33.8753C108.813 33.8753 110.483 31.74 110.983 30.876C111.034 30.7865 110.932 30.69 110.841 30.7394C109.617 31.3916 108.702 30.1132 108.702 28.517L108.704 28.5147ZM99.1272 30.5558C96.1892 30.3557 95.3708 27.7425 96.4186 25.8991C97.6643 23.705 100.033 23.4507 102.35 21.9487V29.1692C101.841 29.9861 100.641 30.6594 99.1248 30.5558H99.1272Z"></path>
          <path d="M11.0302 12.8965C4.49755 12.8965 0 17.193 0 23.4482C0 30.033 4.49755 33.9999 11.0302 33.9999C17.5629 33.9999 22.0605 30.033 22.0605 23.4482C22.0605 17.193 17.5629 12.8965 11.0302 12.8965ZM11.023 32.1448C8.66437 32.1448 7.19898 29.7505 7.19898 23.4929C7.19898 17.5438 8.66437 14.8411 11.023 14.8411C13.3816 14.8411 14.7335 17.5438 14.7335 23.4929C14.7335 29.7505 13.3792 32.1448 11.023 32.1448Z"></path>
          <path d="M58.9848 12.8965C52.4521 12.8965 47.9546 17.1906 47.9546 23.4482C47.9546 30.033 52.4521 33.9999 58.9848 33.9999C65.5175 33.9999 70.015 30.033 70.015 23.4482C70.015 17.193 65.5175 12.8965 58.9848 12.8965ZM58.98 32.1448C56.6214 32.1448 55.156 29.7505 55.156 23.4929C55.156 17.5438 56.6214 14.8411 58.98 14.8411C61.3386 14.8411 62.6905 17.5438 62.6905 23.4929C62.6905 29.7505 61.3362 32.1448 58.98 32.1448Z"></path>
          <path d="M89.8085 16.0018C89.7143 14.036 88.1572 12.8966 86.1728 12.8966C82.4019 12.8966 80.345 16.2278 79.5991 17.5721C79.5508 17.6592 79.418 17.6262 79.418 17.5274V12.5646C79.418 12.4657 79.3166 12.3975 79.2224 12.4328L71.9486 15.0836C71.869 15.1119 71.8424 15.2108 71.9003 15.272C72.3856 15.7993 73.2257 17.1672 73.3585 19.1329C73.5371 21.7579 73.4961 26.537 73.3585 29.6541C73.2861 31.2903 72.7067 32.7358 72.4628 33.282C72.429 33.3596 72.487 33.4468 72.5739 33.4468H80.8182C80.9148 33.4468 80.9727 33.3408 80.9196 33.2631C80.5309 32.7099 79.5653 31.2479 79.4325 29.6564C79.1766 26.5465 79.3625 25.2045 79.418 23.6107C79.4832 21.7297 79.826 20.2606 80.5768 19.1989C81.9528 17.2472 84.2101 16.9082 85.801 18.0147C86.4601 18.4714 86.868 19.1212 87.0443 19.406C87.1167 19.5261 87.2422 19.5614 87.3605 19.5308C88.092 19.3425 89.9316 18.5773 89.8085 16.0065V16.0018Z"></path>
          <path d="M45.0336 29.6542C44.8767 26.5372 44.9877 22.5655 45.0336 20.2089C45.1326 14.9872 41.83 12.706 37.9022 12.8519C34.6721 12.9696 32.3762 15.265 31.4057 17.0919C31.3599 17.179 31.2223 17.1484 31.2223 17.0472V0.141359C31.2223 0.0401265 31.1185 -0.0281466 31.0243 0.00952133C29.3103 0.689898 25.0445 2.27195 23.6298 2.78518C23.5549 2.81343 23.5284 2.90053 23.5742 2.9641C23.9026 3.40905 24.8272 4.63326 24.9093 7.60667C25.0638 13.1391 25.1096 26.5419 24.9093 29.6542C24.8055 31.2715 23.8543 32.6817 23.4366 33.2609C23.3787 33.3386 23.4366 33.4469 23.5356 33.4469H31.8427C31.932 33.4469 31.99 33.3574 31.9513 33.2774C31.6858 32.71 31.2802 31.288 31.2223 29.6542C31.1643 28.0933 31.2223 23.4484 31.2223 23.4484C31.2223 20.329 32.608 17.1767 35.2611 17.0495C38.2257 16.9059 38.8413 19.7381 38.9234 22.4243C38.9789 24.23 39.0103 28.0933 38.9234 29.6542C38.8341 31.2857 38.3223 32.7076 38.0446 33.2774C38.006 33.3574 38.0639 33.4469 38.1533 33.4469H46.4072C46.5062 33.4469 46.5642 33.3362 46.5062 33.2585C46.0693 32.6794 45.1157 31.2692 45.0336 29.6542Z"></path>
        </g>
        <defs>
          <clipPath id="clip0_1_768">
            <rect width="111" height="34" fill="white"></rect>
          </clipPath>
        </defs>
      </svg>