<svg xmlns="http://www.w3.org/2000/svg" aria-label="Universal Standard Logo" viewBox="0 0 374.2 21.8" class="header__logo-svg"><path d="M14.6 11.7c0 .5 0 1-.1 1.6 0 .5-.2 1-.4 1.4s-.5.8-.9 1c-.4.3-1 .4-1.7.4s-1.3-.1-1.7-.4-.7-.6-.9-1-.3-.9-.3-1.4-.1-1-.1-1.6V2.2H4v10.1c0 2.7.6 4.7 1.9 5.9 1.2 1.2 3.1 1.9 5.7 1.9s4.5-.6 5.7-1.9c1.2-1.2 1.9-3.2 1.9-5.9V2.2h-4.5v9.5zm25.5 1.2L31.8 2.2h-4.5v17.4h4.5V9l8.3 10.6h4.5V2.2h-4.5zM52.7 2.2h4.5v17.3h-4.5zm19.9 10.6L68.4 2.2h-4.9l7.3 17.4h3.6l7.3-17.4h-4.9zM89 19.6h9.8v-3.8h-5.3v-3h5V9h-5V6.1h5.3V2.2H89zm29.9-8.8c.6-.8 1-1.9 1-3.2 0-.7-.1-1.4-.4-2.1-.2-.6-.6-1.2-1.1-1.7q-.75-.75-1.8-1.2c-1.05-.45-1.6-.4-2.5-.4h-7v17.3h4.5v-6.7l4.3 6.7h5.6l-5.5-7.1c1.3-.2 2.2-.8 2.9-1.6m-4.4-1.4c-.5.4-1.2.6-2 .6h-.9V5.7h.9c.9 0 1.6.2 2 .6.5.4.7.9.7 1.6s-.2 1.2-.7 1.5m21.9-.4c-.4-.1-.7-.2-1.1-.3s-.7-.2-1-.4c-.3-.1-.5-.3-.7-.5s-.3-.5-.3-.8c0-.4.2-.8.6-1.1s.8-.4 1.4-.4c.5 0 .9.1 1.4.3q.75.3 1.5.9l1.8-3.5c-.9-.5-1.8-.8-2.7-1s-1.8-.4-2.7-.4-1.8.1-2.5.4-1.4.7-1.9 1.2-.9 1.1-1.2 1.8-.4 1.5-.4 2.3c0 .9.1 1.6.4 2.1.3.6.6 1 1.1 1.4s.9.7 1.5.9 1.1.4 1.7.6c.5.2.9.3 1.3.5.3.1.6.3.8.4.2.2.4.3.5.5s.1.4.1.7c0 .4-.2.8-.5 1.2s-.9.5-1.6.5c-.6 0-1.3-.1-2-.4s-1.3-.7-2-1.3l-1.9 3.6c1.9 1.3 3.9 2 6.1 2 1.1 0 2-.1 2.8-.4q1.2-.45 2.1-1.2c.6-.5 1-1.1 1.3-1.9.3-.7.4-1.5.4-2.4 0-1.3-.3-2.4-1-3.2s-1.8-1.6-3.3-2.1m16.3-6.8-6.6 17.3h4.8l1-3h6.4l1 3h4.8l-6.6-17.3zm.4 10.9 2-5.8 2 5.8zm22.8-10.9h-4.5v17.4h9.9v-3.8h-5.4zM211.1 9c-.4-.1-.7-.2-1.1-.3s-.7-.2-1-.4c-.3-.1-.5-.3-.7-.5s-.3-.5-.3-.8c0-.4.2-.8.6-1.1s.8-.4 1.4-.4c.5 0 .9.1 1.4.3q.75.3 1.5.9l1.8-3.5c-.9-.5-1.8-.8-2.7-1s-1.8-.4-2.7-.4-1.8.1-2.5.4-1.4.7-1.9 1.2-.9 1.1-1.2 1.8-.4 1.5-.4 2.3c0 .9.1 1.6.4 2.1.3.6.6 1 1.1 1.4s.9.7 1.5.9 1.1.4 1.7.6c.5.2.9.3 1.3.5.3.1.6.3.8.4.2.2.4.3.5.5s.1.4.1.7c0 .4-.2.8-.5 1.2s-.9.5-1.6.5c-.6 0-1.3-.1-2-.4s-1.3-.7-2-1.3l-1.9 3.6c1.9 1.3 3.9 2 6.1 2 1.1 0 2-.1 2.8-.4q1.2-.45 2.1-1.2c.6-.5 1-1.1 1.3-1.9.3-.7.4-1.5.4-2.4 0-1.3-.3-2.4-1-3.2s-1.8-1.6-3.3-2.1m11.7-2.9h3.7v13.5h4.5V6.1h3.7V2.2h-11.9zm22.9-3.9-6.6 17.3h4.8l1-3h6.4l1 3h4.8l-6.6-17.3zm.5 10.9 2-5.8 2 5.8zm30.7-.2-8.4-10.7H264v17.4h4.5V9l8.4 10.6h4.5V2.2h-4.5zm25.4-8c-.8-.8-1.7-1.4-2.7-1.9s-2.1-.7-3.3-.7h-6.7v17.3h6.7c1.2 0 2.3-.2 3.3-.7s1.9-1.1 2.7-1.9 1.4-1.7 1.8-2.8c.4-1 .7-2.1.7-3.3 0-1.1-.2-2.2-.7-3.3-.4-1-1-2-1.8-2.7m-2.6 8c-.2.6-.5 1.1-1 1.5-.4.4-.9.8-1.6 1-.6.2-1.3.4-2.1.4h-1V6.1h1c.8 0 1.5.1 2.1.4.6.2 1.1.6 1.6 1 .4.4.7.9 1 1.5.2.6.3 1.2.3 1.9.1.7 0 1.4-.3 2m16-10.7-6.6 17.3h4.8l1-3h6.4l1 3h4.8l-6.6-17.3zm.5 10.9 2-5.8 2 5.8zm29.8-2.3c.6-.8 1-1.9 1-3.2 0-.7-.1-1.4-.4-2.1-.2-.6-.6-1.2-1.1-1.7s-1.1-.9-1.8-1.2-1.6-.4-2.5-.4h-7v17.3h4.5v-6.7l4.3 6.7h5.6l-5.5-7.1c1.3-.2 2.3-.8 2.9-1.6m-4.4-1.4c-.5.4-1.2.6-2 .6h-.9V5.7h.9c.9 0 1.6.2 2 .6.5.4.7.9.7 1.6s-.2 1.2-.7 1.5m28-1.8c-.4-1-1.1-2-1.8-2.8-.8-.7-1.8-1.4-2.8-1.8-1-.5-2.1-.7-3.3-.7H355v17.3h6.7c1.2 0 2.3-.2 3.3-.7s1.9-1.1 2.7-1.9 1.4-1.7 1.8-2.8c.4-1 .7-2.1.7-3.3q0-1.65-.6-3.3m-4.4 5.3c-.2.6-.5 1.1-1 1.5-.4.4-.9.8-1.6 1-.6.2-1.3.4-2.1.4h-1V6.1h1c.8 0 1.5.1 2.1.4s1.1.6 1.6 1c.4.4.7.9 1 1.5.2.6.3 1.2.3 1.9s-.1 1.4-.3 2"></path></svg>