<svg xmlns="http://www.w3.org/2000/svg" class="g-header__logo" viewBox="0 0 126 49" fill="currentColor">
				<path d="M44.974 6.409C44.974 2.871 42.109 0 38.578 0c-3.53 0-6.396 2.871-6.396 6.409C32.182 2.871 29.317 0 25.787 0c-3.531 0-6.396 2.871-6.396 6.409C19.39 2.871 16.526 0 12.995 0A6.374 6.374 0 0 0 6.83 4.749L.204 29.542A5.923 5.923 0 0 0 0 31.024a5.708 5.708 0 0 0 5.703 5.715c2.635 0 4.848-1.796 5.5-4.232l4.983-18.629.272-1.034a.815.815 0 0 1 .787-.612.818.818 0 0 1 .788 1.02l-.163.6-4.182 15.661a5.924 5.924 0 0 0-.204 1.483 5.708 5.708 0 0 0 5.703 5.716c2.634 0 4.848-1.797 5.5-4.232l5.01-18.602.272-1.034a.815.815 0 0 1 .787-.612.818.818 0 0 1 .788 1.02l-.163.6L27.2 29.513a5.924 5.924 0 0 0-.204 1.483 5.708 5.708 0 0 0 5.703 5.716c2.635 0 4.848-1.797 5.5-4.232l6.531-24.44a5.338 5.338 0 0 0 .245-1.632ZM72.173 5.715A5.708 5.708 0 0 0 66.469 0c-2.634 0-4.847 1.796-5.5 4.232L60.06 7.62l-4.345 16.274a.815.815 0 0 1-.788.613.818.818 0 0 1-.787-1.02l4.345-16.275c.122-.476.204-.966.204-1.483A5.708 5.708 0 0 0 52.985.014c-2.648-.014-4.86 1.782-5.513 4.231l-6.504 24.276a6.324 6.324 0 0 0-.23 1.687c0 3.606 2.919 6.532 6.517 6.532 3.015 0 5.54-2.055 6.287-4.844l-2.62 9.906a5.924 5.924 0 0 0-.204 1.483A5.708 5.708 0 0 0 56.42 49c2.634 0 4.848-1.796 5.5-4.232L71.968 7.212h-.014c.136-.49.218-.98.218-1.497ZM99.005 6.232C99.005 2.79 96.22 0 92.785 0c-3.435 0-6.219 2.79-6.219 6.232C86.566 2.79 83.783 0 80.347 0a6.214 6.214 0 0 0-6.002 4.613L67.678 29.54a5.924 5.924 0 0 0-.204 1.484 5.708 5.708 0 0 0 5.703 5.715c2.635 0 4.848-1.796 5.5-4.232l5.187-19.445.054-.218a.815.815 0 0 1 .788-.612c.448 0 .815.367.815.816h.027l-.054.218-4.346 16.274a5.924 5.924 0 0 0-.203 1.484 5.708 5.708 0 0 0 5.703 5.715c2.634 0 4.848-1.796 5.5-4.232L98.746 7.85c.176-.53.258-1.06.258-1.619ZM126 6.232C126 2.79 123.216 0 119.781 0h-13.077a6.108 6.108 0 0 0-6.11 6.123 6.108 6.108 0 0 0 6.11 6.124h5.038c.448 0 .815.367.815.816 0 .45-.367.816-.815.816H103.5c-2.798.028-5.147 1.946-5.84 4.532l-2.973 11.13a5.924 5.924 0 0 0-.204 1.484 5.708 5.708 0 0 0 5.703 5.715c2.635 0 4.848-1.796 5.5-4.232l1.073-4.014.638-2.368.706-2.667a.815.815 0 0 1 .787-.612.818.818 0 0 1 .788 1.02l-.597 2.232-.231.884-.679 2.545a5.933 5.933 0 0 0-.204 1.483 5.709 5.709 0 0 0 5.703 5.715c2.635 0 4.848-1.796 5.5-4.232l6.599-24.656c.15-.517.231-1.048.231-1.606Z"></path>
			</svg>