<svg class="icon-olistic-logo" width="79" height="22" viewBox="0 0 79 22" fill="none" xmlns="http://www.w3.org/2000/svg" style="overflow: unset;">
  <path d="M10.9769 22C17.1667 22 21.9843 17.1515 21.9843 11C21.9843 4.81819 17.1667 -9.31229e-10 10.9769 -5.95457e-10C4.81764 -2.6134e-10 -2.61061e-10 4.81819 -5.96007e-10 11C-9.29311e-10 17.1515 4.81764 22 10.9769 22ZM3.65897 11C3.65897 6.72728 6.89106 3.36364 10.9769 3.36364C15.0932 3.36364 18.2948 6.72728 18.2948 11C18.2948 15.2727 15.0932 18.6364 10.9769 18.6364C6.89106 18.6364 3.65897 15.2727 3.65897 11Z" fill="black"></path>
  <path d="M27.1023 0.39394L23.7178 0.39394L23.7178 21.6061L27.1023 21.6061L27.1023 0.39394Z" fill="black"></path>
  <path d="M29.4659 6.78788L29.4659 21.6061L32.8504 21.6061L32.8504 6.78788L29.4659 6.78788Z" fill="black"></path>
  <path d="M40.7634 22C44.2699 22 46.7093 19.9697 46.7093 17.0606C46.7093 11.303 38.0192 13.6061 38.0192 10.6667C38.0192 9.48486 39.1474 8.9394 40.3975 8.9394C41.8611 8.9394 42.9283 9.81819 43.1113 10.9394L46.4348 10.9394C46.1299 7.9697 43.6906 6.39394 40.428 6.39394C37.1959 6.39394 34.8481 8.21213 34.8481 11C34.8481 16.5152 43.4162 14.303 43.4162 17.4546C43.4162 18.5455 42.4405 19.3636 40.7634 19.3636C39.0559 19.3636 37.9277 18.4243 37.8058 17.0606L34.5737 17.0606C34.8176 20.1818 37.2569 22 40.7634 22Z" fill="black"></path>
  <path d="M47.1554 9.72728L49.9911 9.72728L49.9911 16.6364C49.9911 20.0303 51.7291 21.6061 55.1442 21.6061L57.3701 21.6061L57.3701 18.6667L55.5711 18.6667C54.138 18.6667 53.3757 17.9091 53.3757 16.394L53.3757 9.72728L57.3701 9.72728L57.3701 6.78788L53.3757 6.78788L53.3757 2.84849L49.9911 2.84849L49.9911 6.78788L47.1554 6.78788L47.1554 9.72728Z" fill="black"></path>
  <path d="M58.8889 6.78788L58.8889 21.6061L62.2734 21.6061L62.2734 6.78788L58.8889 6.78788Z" fill="black"></path>
  <path d="M71.772 22C75.4005 22 78.4801 19.6364 78.8765 16.1818L75.4615 16.1818C75.0956 17.7576 73.51 18.8485 71.711 18.8485C69.2107 18.8485 67.2898 16.8788 67.2898 14.2121C67.2898 11.5152 69.2107 9.54546 71.711 9.54546C73.51 9.54546 75.0956 10.6667 75.431 12.0909L78.8765 12.0909C78.4191 8.81819 75.37 6.39394 71.772 6.39394C67.4117 6.39394 63.9662 9.75758 63.9662 14.2121C63.9662 18.6667 67.4117 22 71.772 22Z" fill="black"></path>
  <ellipse cx="60.5596" cy="2.7563" rx="2.10745" ry="2.09444" fill="black"></ellipse>
  <ellipse cx="31.0552" cy="2.7563" rx="2.10745" ry="2.09444" fill="black"></ellipse>
  <path d="M75.1398 2.72474C75.1398 2.97062 75.1831 3.2009 75.2698 3.41556C75.3565 3.62632 75.4767 3.80976 75.6304 3.96587C75.7841 4.11809 75.9634 4.23908 76.1683 4.32885C76.3732 4.41862 76.5939 4.4635 76.8304 4.4635C77.0668 4.4635 77.2875 4.41862 77.4924 4.32885C77.6973 4.23908 77.8766 4.11809 78.0303 3.96587C78.184 3.80976 78.3042 3.62632 78.3909 3.41556C78.4776 3.2009 78.521 2.97062 78.521 2.72474C78.521 2.47885 78.4776 2.25053 78.3909 2.03977C78.3042 1.82901 78.184 1.64557 78.0303 1.48945C77.8766 1.33333 77.6973 1.21234 77.4924 1.12648C77.2875 1.03671 77.0668 0.991826 76.8304 0.991826C76.5939 0.991826 76.3732 1.03671 76.1683 1.12648C75.9634 1.21234 75.7841 1.33333 75.6304 1.48945C75.4767 1.64557 75.3565 1.82901 75.2698 2.03977C75.1831 2.25053 75.1398 2.47885 75.1398 2.72474ZM74.6787 2.72474C74.6787 2.42811 74.7339 2.14905 74.8442 1.88755C74.9585 1.62606 75.1122 1.39773 75.3053 1.20259C75.5023 1.00354 75.7309 0.847417 75.991 0.734231C76.2511 0.621046 76.5309 0.564453 76.8304 0.564453C77.1299 0.564453 77.4116 0.621046 77.6757 0.734231C77.9397 0.847417 78.1683 1.00354 78.3614 1.20259C78.5584 1.39773 78.7141 1.62606 78.8283 1.88755C78.9426 2.14905 78.9998 2.42811 78.9998 2.72474C78.9998 3.02136 78.9426 3.30237 78.8283 3.56777C78.7141 3.82927 78.5584 4.05759 78.3614 4.25274C78.1683 4.44789 77.9397 4.60401 77.6757 4.7211C77.4116 4.83428 77.1299 4.89087 76.8304 4.89087C76.5309 4.89087 76.2511 4.83428 75.991 4.7211C75.7309 4.60401 75.5023 4.44789 75.3053 4.25274C75.1122 4.05759 74.9585 3.82927 74.8442 3.56777C74.7339 3.30237 74.6787 3.02136 74.6787 2.72474ZM76.8422 1.91097C76.7516 1.91097 76.6629 1.92853 76.5762 1.96366C76.4934 1.99488 76.4186 2.04562 76.3516 2.11588C76.2885 2.18223 76.2373 2.26614 76.1979 2.36762C76.1585 2.46519 76.1388 2.58033 76.1388 2.71303C76.1388 2.84573 76.1585 2.96282 76.1979 3.06429C76.2373 3.16187 76.2885 3.24578 76.3516 3.31603C76.4146 3.38238 76.4895 3.43312 76.5762 3.46825C76.6629 3.50338 76.7535 3.52094 76.8481 3.52094C76.9584 3.52094 77.0511 3.50533 77.1259 3.4741C77.2008 3.44288 77.2619 3.40385 77.3092 3.35701C77.3604 3.30628 77.3998 3.25359 77.4274 3.19895C77.4589 3.1443 77.4806 3.09357 77.4924 3.04673L77.8944 3.22236C77.8668 3.30432 77.8254 3.38824 77.7702 3.4741C77.7151 3.55607 77.6441 3.63217 77.5574 3.70243C77.4708 3.77268 77.3683 3.82927 77.2501 3.8722C77.1318 3.91514 76.9979 3.9366 76.8481 3.9366C76.6786 3.9366 76.521 3.90538 76.3752 3.84293C76.2334 3.78048 76.1112 3.69462 76.0087 3.58534C75.9063 3.47605 75.8255 3.34726 75.7664 3.19895C75.7073 3.05063 75.6777 2.88866 75.6777 2.71303C75.6777 2.53739 75.7073 2.37542 75.7664 2.22711C75.8255 2.0749 75.9063 1.9461 76.0087 1.84072C76.1151 1.73144 76.2393 1.64752 76.3811 1.58898C76.5269 1.52653 76.6806 1.49531 76.8422 1.49531C76.9959 1.49531 77.1318 1.51677 77.2501 1.55971C77.3683 1.60264 77.4688 1.65923 77.5515 1.72948C77.6382 1.79974 77.7072 1.87975 77.7584 1.96952C77.8096 2.05538 77.8491 2.14125 77.8766 2.22711L77.4629 2.39689C77.4471 2.34225 77.4254 2.28565 77.3978 2.22711C77.3703 2.16857 77.3308 2.11783 77.2796 2.0749C77.2284 2.02806 77.1673 1.98903 77.0964 1.95781C77.0254 1.92658 76.9407 1.91097 76.8422 1.91097Z" fill="black"></path>
  </svg>