<svg id="Layer_1" class="inspired_logo" data-name="Layer 1" xmlns="http://www.w3.org/2000/svg" viewBox="1 1 1672.84 136.29"><path d="M165.31,348.67V244.76h9.25V348.67Z" transform="translate(-165.31 -244.02)"></path><path d="M290.13,244.62V350.31h-2.86C265,317.81,242.48,285.47,220,253v95.71h-3.07V339.8a7.33,7.33,0,0,0,.09-1.26V254.9c0-4.62-2.7-8.05-6.54-8.35l-1.14-.14-.28-1.79H225l62.16,90.19V244.62Z" transform="translate(-165.31 -244.02)"></path><path d="M388.43,322.14c0,15.95-12.52,27.43-29.59,27.43-13.09,0-27.89-3.28-35.43-7.9V325.12h1.28c.58,1.19,1.14,3,1.71,4.17,3.42,7.75,10.81,14.31,17.93,16.25A84.38,84.38,0,0,0,358.84,347c13.51,0,23.33-8.94,23.33-21.17,0-9.84-12.38-20.57-29.31-25.49-16.22-4.77-28-16.25-28-27.28,0-16.85,12.52-29.07,29.59-29.07,9.1,0,21.19,3.28,28.73,7.9v16.54l-1,.15-4.27-9.84a19.76,19.76,0,0,0-9.82-9.68,46.6,46.6,0,0,0-13.79-2.54c-13.38,0-23.19,9.54-23.19,23,0,8.95,12.09,18.78,28.73,23.7S388.43,310.21,388.43,322.14Z" transform="translate(-165.31 -244.02)"></path><path d="M490.45,273.38c0,16.56-15.77,28.49-37.55,28.49H433v46.81h-9.1V254.9c0-4.62-2.72-8.05-6.55-8.35l-1.14-.14v-1.65h41.68C476.8,244.76,490.45,256.69,490.45,273.38Zm-9.39.16c0-15.21-9.8-26.24-23.18-26.24H433v52.32H453C469.26,299.62,481.06,288.59,481.06,273.54Z" transform="translate(-165.31 -244.02)"></path><path d="M520.91,348.67V244.76h9.25V348.67Z" transform="translate(-165.31 -244.02)"></path><path d="M651.58,346.29v1.95h-3.42c-9.11,0-10.81-1.19-23.49-16.56-12.8-15.64-22.89-27.88-26.87-32.95H581.44v49.81h-9.11V254.76c0-4.63-2.7-8-6.54-8.35l-1.14-.16v-1.33l39.83-.46c17.93,0,31,11.19,31,26.7,0,13.06-10.08,23.17-25.17,26.25a1.27,1.27,0,0,0-.26,0c-.3.08-.63.15-1,.21a6.61,6.61,0,0,1-.86.12c-.65.11-1.32.19-2,.26h0a24.7,24.7,0,0,1-2.92.34c5.13.3,9.32,5.31,9.83,5.91h0a.06.06,0,0,1,0,0c5.35,6.74,13.68,17,23.55,29.14C647,345.86,647.16,346.29,651.58,346.29Zm-49.8-50h.06c14.94,0,23.85-10.5,23.85-25,0-14.16-9-24.45-21.35-24.45h-22.9V296.2Z" transform="translate(-165.31 -244.02)"></path><path d="M736.36,346.14c-.07.47-.14.91-.21,1.35H736l-.16,1.05H680.37V254.76c0-4.63-2.7-8-6.54-8.35l-1.14-.16v-1.61h62.46V247H689.49v.07h0v44.8h36.28v2.53H689.49v51.74Z" transform="translate(-165.31 -244.02)"></path><path d="M852.61,296.64c0,30.13-19.06,52-45.53,52h-35V254.9c0-4.61-2.7-8.05-6.55-8.34l-1.14-.15v-1.65l36.29-.13C830.84,244.63,852.61,266.52,852.61,296.64Zm-9-.14c0-28.79-18.07-49.5-43-49.5H781.33v99.14l25.75-.16C828.28,346,843.65,325.28,843.65,296.5Z" transform="translate(-165.31 -244.02)"></path><path d="M1037.54,320.21c0,16.54-14.53,28.45-34.43,28.45h-36V254.9c0-4.61-2.72-8.05-6.54-8.34l-1.14-.15-.16-1.65h39.83c17.51,0,30.31,9.83,30.31,23.56,0,12.22-10,21.62-24.75,24.59C1024.15,295.6,1037.54,306.2,1037.54,320.21Zm-61.46-72.9v45.31h12.66l6.26-.16c14.93,0,25.33-10.28,25.33-24,0-12.22-9-21.16-21.35-21.16Zm51.77,72.9c0-15.07-14.92-25.95-35.69-25.95H976.08v52h26C1017.05,346.29,1027.85,335.24,1027.85,320.21Z" transform="translate(-165.31 -244.02)"></path><path d="M1135.86,244.62l-5,8.91a1.77,1.77,0,0,0-.12.17l-27.89,49.66v45.32h-9.38l.14-41.15-27.75-52.63c-2.7-5.21-6.26-7.9-9.94-8.49v-1.65h15.75L1101.43,302l24.75-44.73,7-12.66Z" transform="translate(-165.31 -244.02)"></path><path d="M1306.42,322.14c0,15.95-12.52,27.43-29.59,27.43-13.09,0-27.89-3.28-35.43-7.9V325.12h1.28c.57,1.19,1.15,3,1.71,4.17,3.42,7.75,10.81,14.31,17.93,16.25a84.38,84.38,0,0,0,14.51,1.49c13.51,0,23.33-8.94,23.33-21.17,0-9.84-12.38-20.57-29.31-25.49-16.22-4.77-28-16.25-28-27.28,0-16.85,12.52-29.07,29.59-29.07,9.1,0,21.19,3.28,28.73,7.9v16.54l-1,.15-4.27-9.84a19.76,19.76,0,0,0-9.82-9.68,46.6,46.6,0,0,0-13.79-2.54c-13.38,0-23.19,9.54-23.19,23,0,8.95,12.09,18.78,28.73,23.7S1306.42,310.21,1306.42,322.14Z" transform="translate(-165.31 -244.02)"></path><path d="M1425.67,337.24l-.09,2.78c-9.25,5.66-26.17,9.69-40.12,9.69-30,0-51.77-22.2-51.77-52.77s21.76-52.77,51.77-52.77c14,0,30.87,4,40.12,9.68v15.51l-1.71.15c-.58-1.19-1.14-3-1.72-4.17-3.26-7.61-10.38-14.17-17.34-16.42a98.78,98.78,0,0,0-19.63-2.07c-24.19,0-41.69,21-41.69,50.23,0,24.67,12.45,43.49,30.89,48.77l.86.22a38.57,38.57,0,0,0,9.94,1.27h.12a101.56,101.56,0,0,0,13-.87l.37,0a3,3,0,0,0,.43-.1h.16a88.38,88.38,0,0,0,21.15-9.06Z" transform="translate(-165.31 -244.02)"></path><path d="M1517,346.14c-.07.47-.14.91-.21,1.35h-.14l-.16,1.05H1461V254.76c0-4.63-2.7-8-6.54-8.35l-1.14-.16v-1.61h62.46V247h-45.66v.07h0V252a0,0,0,0,1,0,0v39.85h36.27v2.53h-36.28v51.74Z" transform="translate(-165.31 -244.02)"></path><path d="M1626.15,244.62V350.31h-2.86c-22.33-32.5-44.8-64.84-67.28-97.34v95.71h-3.07V339.8a7.33,7.33,0,0,0,.09-1.26V254.9c0-4.62-2.71-8.05-6.55-8.35l-1.14-.14-.28-1.79H1561l62.16,90.19V244.62Z" transform="translate(-165.31 -244.02)"></path><path d="M1745.51,263.4h-1.13l-3.13-6.26c-2.85-5.82-8.82-9.84-14.51-9.84H1705V348.83h-9.25V247.3h-22.19c-5.54,0-11.52,4-14.36,9.84L1656,263.4l-1.13.14c.43-5.07,1-12.36,1.42-17.43h-.14l.14-1.19h87.49l.15,1C1744.25,246,1745.38,262.21,1745.51,263.4Z" transform="translate(-165.31 -244.02)"></path><path d="M1838.15,322.14c0,15.95-12.52,27.43-29.59,27.43-13.09,0-27.88-3.28-35.42-7.9V325.12h1.28c.57,1.19,1.14,3,1.71,4.17,3.41,7.75,10.81,14.31,17.92,16.25a84.38,84.38,0,0,0,14.51,1.49c13.51,0,23.33-8.94,23.33-21.17,0-9.84-12.38-20.57-29.3-25.49-16.22-4.77-28-16.25-28-27.28,0-16.85,12.52-29.07,29.59-29.07,9.11,0,21.2,3.28,28.74,7.9v16.54l-1,.15-4.27-9.84a19.74,19.74,0,0,0-9.81-9.68,46.66,46.66,0,0,0-13.8-2.54c-13.37,0-23.19,9.54-23.19,23,0,8.95,12.09,18.78,28.74,23.7S1838.15,310.21,1838.15,322.14Z" transform="translate(-165.31 -244.02)"></path></svg>