<svg class="logo" width="180" height="24" xmlns="http://www.w3.org/2000/svg" viewBox="0 0 3531 363"><title>Petal &amp; Pup</title><path d="m2884.54 10.52-.04 216.82c-2.77 60.59 35.12 99.42 99.07 100.54 65.23 1.15 118.45-34.04 118.37-103.82l-.05-213.55h26.46l.05 213.86c.16 88.32-59.99 134.09-149.76 132.6-74.04-1.23-131.26-54.75-131.89-127.57l.04-218.88h37.77ZM46.61 227.35v123.21H11.53V10.52c31.46 1.94 99.08.47 147.85 1.28 36.12.6 109.01 15.5 109.01 101.06s-61.07 106.42-116.36 112.06c-24.62 2.51-63.62 2.43-105.42 2.43Zm0-21.64c50.99 0 90.15.85 117.66-4.09 47.43-8.52 73.88-40.13 73.88-85.98 0-40.48-23.65-83.49-82.95-83.49H46.61v173.56ZM2526.58 227.35v123.21h-35.09V10.52c31.46 1.94 99.08.47 147.85 1.28 36.12.6 109.01 15.5 109.01 101.06s-61.07 106.42-116.36 112.06c-24.62 2.51-63.62 2.43-105.42 2.43Zm0-21.64c50.99 0 90.15.85 117.66-4.09 47.43-8.52 73.88-40.13 73.88-85.98 0-40.48-23.65-83.49-82.95-83.49h-108.6v173.56ZM3293.2 227.35v123.21h-35.09V10.52c31.46 1.94 99.08.47 147.85 1.28 36.12.6 109.01 15.5 109.01 101.06s-61.07 106.42-116.36 112.06c-24.62 2.51-63.62 2.43-105.42 2.43Zm0-21.64c50.99 0 90.15.85 117.66-4.09 47.43-8.52 73.88-40.13 73.88-85.98 0-40.48-23.65-83.49-82.95-83.49h-108.6v173.56ZM595.63 10.52v24.73H401.71V158.9h169.16v23.7H401.71v143.23h198.05v24.73H366.62V10.52h229.01zM975.42 10.52v24.73H848.06v315.31h-35.08V35.25H685.62V10.52h289.8zM1457.63 10.52v315.31h170.55v24.73h-205.63V10.52h35.08zM1167.75 10.66h-19.03L1004.15 350.6h25.8l50.01-114.58 141.98.57 46.4 114.01h38.18L1167.75 10.66Zm-77.95 201.9 61.93-146.6 60.87 146.6h-122.81ZM2185.95 164.01v-34.82c-26.42 11.33-51.94 41.35-66.34 69.91a514.21 514.21 0 0 0-12.43-11.2c-76.4-66.7-110.45-86.8-113.75-125.49-2.29-26.86 20.23-42.91 40.35-42.08 25.66 1.06 42.05 24.59 52.05 45.15.13-.26 8.42-31.6 8.42-31.6-65.99-61.27-186.76 7.55-99.88 95.36 17.58 18.85 71.73 63.48 111.77 102.49-9.96 24.99-22.25 50.96-44.34 67.97-43.58 33.55-95.09 29.9-129.31.85-28.91-24.55-38.11-71-18.98-106.68 13.41-25.03 38.49-37.14 62-40.33l-4.81-4.53c-92.53-2.91-144.1 126.1-41.02 190.81 37.83 23.75 97.04 21.03 133.06-5.79 31.56-24.17 44.39-61.91 54.48-91.27 14.2 14.5 25.6 27.73 31.27 37.87 13.42 24 13.48 57.23-6.62 69.09-.05-.08 1.95 4.19 2.02 4.18 22.21-5.93 36.64-27.23 37.86-49.06 1.71-30.46-18.87-62.68-50.79-94.77 12.7-21.85 34.11-44.52 54.98-46.07Z"></path></svg>