<svg class="icon icon-logo" viewBox="0 0 75 60" fill="none" xmlns="http://www.w3.org/2000/svg">
<g clip-path="url(#clip0_2468_216)">
<path d="M5.69271 15.1439L20.0788 0H16.4484L3.21468 13.7851V0H0.468506V30.3856H3.21468V16.7557L16.8461 30.3856H20.8893L5.69271 15.1439Z" fill="currentColor"></path>
<path d="M35.6731 20.4826V25.9779C33.8127 27.7133 31.4085 28.6021 29.057 28.4273C27.6395 28.3159 26.1963 27.5973 25.3814 26.5956C24.7893 25.868 24.5468 25.0409 24.6613 24.1371C24.7984 23.0269 25.4958 22.0387 26.6784 21.278C28.0612 20.3877 29.9171 19.9297 31.892 19.9297C33.1333 19.9297 34.4243 20.112 35.6731 20.4811M38.8124 28.1954C38.6332 28.0959 38.3304 27.8609 38.3304 27.4165V15.1906C38.3304 10.9094 33.2478 9.77808 30.5604 9.77808C28.709 9.77808 25.9387 10.23 23.2528 12.3766L23.1398 12.467V15.5822L23.6384 15.1589C25.773 13.3482 28.1366 12.3495 30.2983 12.3495C32.8863 12.3495 35.6716 13.4432 35.6716 15.8444V17.9533C31.5546 17.0645 27.3999 17.6867 24.7502 19.6013C23.1383 20.7658 22.2044 22.343 22.0492 24.1582C21.9106 25.7309 22.3625 27.1665 23.3552 28.3128C24.5905 29.7364 26.6076 30.6568 28.7527 30.7758C29.0585 30.7924 29.3552 30.8014 29.6445 30.8014C32.2505 30.8014 34.239 30.11 35.8102 28.6593C36.0783 29.4472 36.6251 30.0753 37.3633 30.4248C38.3078 30.8722 39.4451 30.8075 40.4062 30.2561L40.5584 30.1687V27.8775L40.0959 28.1637C39.7103 28.4032 39.2071 28.4138 38.8139 28.1954" fill="currentColor"></path>
<path d="M45.1635 26.2838C45.1635 29.39 47.5963 30.7789 50.0081 30.7789C50.8803 30.7789 52.1667 30.6524 53.3357 30.0453L53.4999 29.961V27.4784L53.1007 27.611C51.8474 28.0297 51.3834 28.1201 50.4901 28.1201C47.9292 28.1201 47.8238 27.2329 47.8238 23.8389V12.5274H53.3688V10.1744H47.8238V5.02246H45.165V10.1744H40.9727V12.571H45.165V26.2853L45.1635 26.2838Z" fill="currentColor"></path>
<path d="M58.3791 18.3826C58.8325 14.8696 61.6525 12.3524 65.2031 12.3524C69.7223 12.3524 71.6144 15.4089 71.9051 18.3826H58.3791ZM74.6754 20.4403C74.7567 16.9891 73.8664 14.2867 72.0316 12.4067C70.3776 10.7135 67.9538 9.78101 65.2031 9.78101C59.6776 9.78101 55.5109 14.2475 55.5109 20.1707C55.5109 26.5789 59.4562 30.6432 65.8072 30.7787C65.9006 30.7803 65.9925 30.7818 66.0859 30.7818C69.8308 30.7818 72.6041 29.1172 73.8589 27.6605L73.9327 27.5761V24.6266L73.4236 25.1026C71.8509 26.5699 69.2915 28.3022 66.0407 28.2088C61.3181 28.0793 58.346 25.2246 58.2179 20.7371H74.6678L74.6754 20.4418V20.4403Z" fill="currentColor"></path>
<path d="M3.97841 39.8038C2.57143 39.3865 1.35576 39.0265 1.35576 37.7279C1.35576 36.6268 2.33492 35.8284 3.68165 35.8284C4.87321 35.8284 5.76651 36.1462 6.86919 36.9627L7.23224 37.2308V35.7184L7.14336 35.6506C6.23952 34.9546 4.98167 34.572 3.6003 34.572C1.58172 34.572 0 35.973 0 37.7626C0 39.9228 1.80316 40.4711 3.39392 40.9546C4.86719 41.402 6.13859 41.7877 6.13859 43.2308C6.13859 44.0955 5.87497 45.2449 3.6003 45.2449C2.8004 45.2449 1.53653 44.9255 0.384133 44.0322L0.0165704 43.7475V45.3097L0.109967 45.3774C1.10269 46.105 2.55938 46.4862 3.48581 46.4862C6.01657 46.4862 7.52598 45.2569 7.52598 43.1977C7.52598 40.8567 5.64148 40.2994 3.97841 39.8068" fill="currentColor"></path>
<path d="M15.769 42.4415C15.769 44.0563 14.6076 45.275 13.0665 45.275C11.5255 45.275 10.3475 44.0503 10.3475 42.4264C10.3475 40.8025 11.5164 39.5763 13.0665 39.5763C14.6166 39.5763 15.769 40.8085 15.769 42.443M13.0665 38.3862C10.7994 38.3862 9.09113 40.1306 9.09113 42.443C9.09113 44.7553 10.7994 46.4846 13.0665 46.4846C15.3337 46.4846 17.0253 44.7463 17.0253 42.443C17.0253 40.1397 15.3231 38.3862 13.0665 38.3862Z" fill="currentColor"></path>
<path d="M27.2885 38.3845C26.2747 38.3845 25.3814 38.9238 24.821 39.8487C24.3254 38.9012 23.417 38.3845 22.2149 38.3845C21.3412 38.3845 20.698 38.6722 20.118 39.3546V38.5321H18.8782V46.3368H20.118V41.2196C20.6498 40.1636 21.284 39.6378 22.0582 39.6092C22.4198 39.5972 22.938 39.6695 23.3568 40.0762C23.7575 40.4634 23.9684 41.084 23.9684 41.8703V46.3368H25.2081V41.2813C25.7173 40.2028 26.3801 39.6243 27.1303 39.6092C27.7585 39.5972 28.239 39.7433 28.5539 40.0521C28.8898 40.3805 29.0585 40.9032 29.0585 41.6082V46.3368H30.2983V41.429C30.2983 39.552 29.1459 38.386 27.2885 38.386" fill="currentColor"></path>
<path d="M33.4813 41.6082C33.6756 40.5613 34.5282 39.5746 35.9066 39.5746C37.4612 39.5746 38.1466 40.5854 38.2912 41.6082H33.4828H33.4813ZM35.9066 38.3845C33.7705 38.3845 32.1602 40.1078 32.1602 42.3931C32.1602 44.8636 33.6816 46.4302 36.131 46.4829C36.1672 46.4829 36.2018 46.4829 36.238 46.4829C37.6796 46.4829 38.7522 45.8367 39.2387 45.2733L39.2945 45.21V43.8L38.9118 44.1571C38.3379 44.6933 37.407 45.3305 36.2259 45.2914C34.5644 45.2462 33.5039 44.2655 33.409 42.7169H39.5686L39.5732 42.4955C39.6048 41.1699 39.2598 40.1289 38.5488 39.4029C37.9071 38.7461 36.9701 38.3845 35.9081 38.3845" fill="currentColor"></path>
<path d="M44.7657 38.3845C43.8182 38.3845 43.1253 39.0609 42.5543 39.8728V38.5321H41.3146V46.3368H42.5543V41.545C43.187 40.2148 43.8664 39.5686 44.6256 39.6107C45.1664 39.6318 45.6153 39.8623 45.9995 40.3157L46.1697 40.5191L47.0178 39.5414L46.8777 39.3923C46.0612 38.5171 45.2026 38.3875 44.7642 38.3875" fill="currentColor"></path>
<path d="M51.1122 44.3485L48.7366 38.5308H47.4246L50.707 46.4831H51.5325L54.9701 38.5308H53.6897L51.1122 44.3485Z" fill="currentColor"></path>
<path d="M57.4693 38.5308H56.2295V46.3354H57.4693V38.5308Z" fill="currentColor"></path>
<path d="M61.0409 34.7166H59.8011V46.3354H61.0409V34.7166Z" fill="currentColor"></path>
<path d="M64.6111 34.7166H63.3713V46.3354H64.6111V34.7166Z" fill="currentColor"></path>
<path d="M67.8649 41.6082C68.0593 40.5613 68.9119 39.5746 70.2902 39.5746C71.8449 39.5746 72.5303 40.5854 72.6749 41.6082H67.8664H67.8649ZM70.2902 38.3845C68.1542 38.3845 66.5438 40.1078 66.5438 42.3931C66.5438 44.8636 68.0653 46.4302 70.5147 46.4829C70.5509 46.4829 70.5855 46.4829 70.6217 46.4829C72.0633 46.4829 73.1358 45.8367 73.6224 45.2733L73.6781 45.21V43.8L73.2955 44.1571C72.7216 44.6933 71.7921 45.3305 70.6096 45.2914C68.948 45.2462 67.8875 44.2655 67.7926 42.7169H73.9523L73.9568 42.4955C73.9885 41.1699 73.6435 40.1289 72.9325 39.4029C72.2907 38.7461 71.3538 38.3845 70.2918 38.3845" fill="currentColor"></path>
<path d="M56.8501 35.7363C56.4208 35.7363 56.0698 36.0858 56.0698 36.5166C56.0698 36.9475 56.4193 37.2955 56.8501 37.2955C57.2809 37.2955 57.6304 36.946 57.6304 36.5166C57.6304 36.0873 57.2809 35.7363 56.8501 35.7363Z" fill="currentColor"></path>
<path d="M4.10043 53.3688C3.5039 52.9877 2.90585 52.7978 2.24002 52.7978C1.61637 52.7978 1.18404 53.1097 1.18404 53.5767C1.18404 54.131 1.72935 54.3901 2.353 54.589C3.21015 54.8661 4.2571 55.2473 4.2571 56.4418C4.2571 57.3939 3.65152 58.0868 2.08487 58.0868C1.64349 58.0868 0.873718 57.897 0.354009 57.5852V56.7115C1.01231 57.1529 1.81673 57.3261 2.23249 57.3261C3.02034 57.3261 3.40146 56.9796 3.40146 56.487C3.40146 55.898 2.87271 55.6043 2.26714 55.3964C1.40096 55.1102 0.344971 54.7471 0.344971 53.6128C0.344971 52.6954 1.08913 52.0281 2.28371 52.0281C3.00226 52.0281 3.65152 52.2269 4.10194 52.5131V53.3703L4.10043 53.3688Z" fill="currentColor"></path>
<path d="M5.99545 58.0086H5.23322V52.105H5.99545V58.0086ZM6.42779 55.9659L8.60002 58.0086H7.57868L5.41398 55.9659L7.52596 54.1221H8.5473L6.42629 55.9659H6.42779Z" fill="currentColor"></path>
<path d="M9.85489 53.4636H9.09265V52.6667H9.85489V53.4636ZM9.85489 58.0084H9.09265V54.1219H9.85489V58.0084Z" fill="currentColor"></path>
<path d="M11.7424 54.6237C12.0196 54.2516 12.348 54.0437 12.9114 54.0437C13.7429 54.0437 14.4871 54.5016 14.4871 55.5501V58.0085H13.7248V55.9659C13.7248 55.0922 13.3965 54.7969 12.8858 54.7969C12.4098 54.7969 12.0814 55.0741 11.7439 55.5411V58.0085H10.9817V54.122H11.7439V54.6237H11.7424Z" fill="currentColor"></path>
<path d="M23.3071 58.0086H22.5027V55.3859H19.2127V58.0086H18.4083V52.105H19.2127V54.6583H22.5027V52.105H23.3071V58.0086Z" fill="currentColor"></path>
<path d="M25.1494 56.3123C25.279 57.0474 25.8333 57.3246 26.4735 57.3517C27.0791 57.3773 27.6681 57.1348 28.0583 56.8064V57.5762C27.8414 57.7931 27.3051 58.0868 26.5172 58.0868C25.3392 58.0868 24.3706 57.4632 24.3706 56.0442C24.3706 54.7291 25.3061 54.0452 26.3786 54.0452C27.4512 54.0452 28.2918 54.7984 28.2044 56.3138H25.1494V56.3123ZM27.4181 55.6194C27.3232 55.0831 26.933 54.7713 26.3093 54.7713C25.6857 54.7713 25.288 55.0996 25.1841 55.6194H27.4181Z" fill="currentColor"></path>
<path d="M32.7326 57.9905C32.3515 58.2074 31.8499 57.9995 31.7113 57.7223C31.3904 57.9393 31.062 58.0778 30.3781 58.0778C29.7454 58.0778 29.0103 57.7148 29.0103 56.8396C29.0103 55.7399 30.2651 55.2548 31.5381 55.5667V55.3588C31.5381 54.943 31.166 54.7788 30.586 54.7788C30.1702 54.7788 29.6852 54.9611 29.2272 55.2639V54.4595C29.7033 54.1657 30.3872 54.0437 30.812 54.0437C31.297 54.0437 32.2928 54.2425 32.2928 55.056V57.1333C32.2928 57.3412 32.5519 57.4452 32.7341 57.3322V57.9905H32.7326ZM31.5381 56.2671C30.4565 55.9463 29.7726 56.3018 29.7726 56.8215C29.7726 57.1077 30.0241 57.3924 30.5077 57.3924C30.8798 57.3924 31.2172 57.2629 31.5381 57.046V56.2671Z" fill="currentColor"></path>
<path d="M34.3505 58.0086H33.5883V52.105H34.3505V58.0086Z" fill="currentColor"></path>
<path d="M36.705 53.1006V54.1219H37.7173V54.8149H36.705V56.7717C36.705 57.1784 36.8089 57.3517 37.1208 57.3517C37.303 57.3517 37.3979 57.317 37.6571 57.2131V57.9316C37.5185 58.019 37.163 58.0883 37.0244 58.0883C36.4188 58.0883 35.9518 57.8458 35.9518 57.0835V54.8239H35.2076V54.1234H35.9518V53.1021H36.705V53.1006Z" fill="currentColor"></path>
<path d="M39.3713 54.6493C39.6576 54.3209 40.0989 54.0437 40.6096 54.0437C41.3538 54.0437 42.0286 54.4595 42.0286 55.4974V58.0086H41.2664V55.9222C41.2664 55.2564 41.0841 54.7969 40.4695 54.7969C39.9498 54.7969 39.638 55.1434 39.3698 55.5411V58.0086H38.6076V52.105H39.3698V54.6493H39.3713Z" fill="currentColor"></path>
<path d="M49.654 52.8492H46.8928V54.6584H49.3256V55.4025H46.8928V57.2629H49.7233V58.0071H46.0869V52.1035H49.654V52.8477V52.8492Z" fill="currentColor"></path>
<path d="M51.1243 58.0086H50.2325L51.8519 56.0518L50.3801 54.1221H51.2809L52.2857 55.4643L53.42 54.1221H54.3209L52.7105 56.0608L54.3118 58.0086H53.411L52.2767 56.6498L51.1258 58.0086H51.1243Z" fill="currentColor"></path>
<path d="M55.8423 54.4248C56.1978 54.1567 56.5172 54.0437 56.9239 54.0437C58.0326 54.0437 58.8461 54.8481 58.8461 56.008C58.8461 57.168 58.0236 58.0598 56.933 58.0854C56.5428 58.0944 56.1978 58.0342 55.8423 57.8685V59.9985H55.0801V54.1205H55.8423V54.4233V54.4248ZM55.8423 57.1168C56.0668 57.2463 56.3786 57.3503 56.7688 57.3337C57.531 57.3081 58.0417 56.9089 58.0417 56.0442C58.0417 55.1795 57.54 54.7984 56.7778 54.7984C56.4313 54.7984 56.1632 54.9023 55.8423 55.1705V57.1183V57.1168Z" fill="currentColor"></path>
<path d="M60.455 56.3123C60.5845 57.0474 61.1389 57.3246 61.7791 57.3517C62.3847 57.3773 62.9737 57.1348 63.3638 56.8064V57.5762C63.1469 57.7931 62.6106 58.0868 61.8228 58.0868C60.6448 58.0868 59.6761 57.4632 59.6761 56.0442C59.6761 54.7291 60.6116 54.0452 61.6842 54.0452C62.7567 54.0452 63.5973 54.7984 63.5099 56.3138H60.455V56.3123ZM62.7236 55.6194C62.6287 55.0831 62.2385 54.7713 61.6149 54.7713C60.9912 54.7713 60.5935 55.0996 60.4896 55.6194H62.7236Z" fill="currentColor"></path>
<path d="M67.1373 55.169C66.8782 54.8828 66.583 54.7969 66.3675 54.7969C65.9698 54.7969 65.658 55.0214 65.3206 55.7399V58.0085H64.5583V54.122H65.3206V54.7366C65.6761 54.1823 65.9864 54.0437 66.4368 54.0437C66.705 54.0437 67.1463 54.1476 67.5109 54.4504L67.1388 55.169H67.1373Z" fill="currentColor"></path>
<path d="M69.3005 53.1006V54.1219H70.3128V54.8149H69.3005V56.7717C69.3005 57.1784 69.4045 57.3517 69.7163 57.3517C69.8986 57.3517 69.9935 57.317 70.2526 57.2131V57.9316C70.114 58.019 69.7585 58.0883 69.6199 58.0883C69.0143 58.0883 68.5473 57.8458 68.5473 57.0835V54.8239H67.8032V54.1234H68.5473V53.1021H69.3005V53.1006Z" fill="currentColor"></path>
<path d="M73.7504 55.1087C73.3256 54.8662 72.8421 54.7532 72.4956 54.7532C71.9593 54.7532 71.8207 54.9701 71.8207 55.169C71.8207 55.9734 73.889 55.3166 73.889 56.927C73.889 57.6199 73.404 58.0778 72.461 58.0778C72.0889 58.0778 71.4833 57.9739 71.0329 57.7223V56.9345C71.4577 57.1861 71.9593 57.3503 72.3058 57.3503C72.9204 57.3503 73.1449 57.1424 73.1449 56.9179C73.1449 56.0352 71.0495 56.701 71.0495 55.1946C71.0495 54.5107 71.6204 54.0437 72.4338 54.0437C72.9445 54.0437 73.3949 54.1296 73.7489 54.3028V55.1072L73.7504 55.1087Z" fill="currentColor"></path>
</g>
<defs>
<clipPath id="clip0_2468_216">
<rect width="74.6799" height="60" fill="white"></rect>
</clipPath>
</defs>
</svg>