<svg class="c-header-logo lg:h-11 h-9 w-auto" xmlns="http://www.w3.org/2000/svg" width="123.064" height="40" viewBox="0 0 123.064 40">
  <path id="symbol-bg" fill="#FF4A13" d="M0 0h40.16v40H0z"></path>
  <path id="symbol" fill="#FFF" d="M9.926 7.246h20.456l2.52 7.264H28.9v-3.706l-8.82 3.409v3.706h2.891v14.823h-6.226V14.51H7.258z"></path>
  <path id="text-bg" fill="#000" d="M40.16 0h82.904v40H40.16z"></path>
  <path id="text" fill="#fff" d="M48.962 12.631v2.992h4.012v11.765h3.343V15.623h4.027v-2.992zM110.92 12.631v9.458l-6.983-9.458h-3.29v14.757h3.343v-9.72l6.94 9.72h3.333V12.631zM92.443 12.631h-3.244L82.95 27.388h3.461l4.411-10.792 1.625 3.976h-2.521l-1.186 2.986h4.928l1.565 3.83h3.461l-6.249-14.757zM82.967 15.623v-2.992H71.585v2.992h4.012v11.765h3.343V15.623zM62.178 16.166l2.272 2.097.991-.854v9.962h3.495V12.612H66.14z"></path>
</svg>