<svg class="svg-logo" width="120" height="34" fill="none" xmlns="http://www.w3.org/2000/svg" style="opacity:0;" js-svg-logo="container">
  <title>Stoggles, Inc.</title>
  <g id="svg-logo__t_group">
    <path class="svg-logo__t" d="M 20.231 8.33 L 24.612000000000002 8.33 L 24.612000000000002 9.899000000000001 L 20.232000000000003 9.899000000000001 L 20.232000000000003 21.197000000000003 C 20.232000000000003 23.279000000000003 21.007 24.166000000000004 22.590000000000003 24.166000000000004 C 23.400000000000002 24.166000000000004 24.060000000000002 23.939000000000004 24.764000000000003 23.466000000000005 C 24.961284574777345 23.330782106020546 25.23109760570651 23.3834834826964 25.363000000000003 23.583000000000006 C 25.458000000000002 23.729000000000006 25.462000000000003 23.921000000000006 25.363000000000003 24.065000000000005 C 24.280000000000005 25.645000000000003 22.643000000000004 26.760000000000005 20.333000000000002 26.760000000000005 C 17.569000000000003 26.760000000000005 15.548000000000002 25.293000000000006 15.548000000000002 21.469000000000005 L 15.548000000000002 9.899000000000001 L 13.459000000000001 9.899000000000001 L 13.459000000000001 9.113000000000001 C 15.784000000000002 8.055000000000001 17.771 6.144000000000002 19.221000000000004 3.8920000000000012 L 20.231000000000005 3.8920000000000012 L 20.231000000000005 8.329 L 20.231 8.33 Z" fill="#1F1F22"></path>

    <path class="svg-logo__letter-track svg-logo__t_track" stroke-miterlimit="100" stroke-width="14" d="M 18.212 3.878 L 18.247 23.222 C 18.247 23.222 20.666 27.878 25.295 23.589"></path>
  </g>

  <g id="svg-logo__s_group">
    <path class="svg-logo__s" d="M 0.16 24.734 C 0.126 23.98 0.045 22.08 0 21.058 C -0.018845222368129445 20.689040671826092 0.27456176394673465 20.379232069193527 0.644 20.378 L 0.728 20.378 C 1.0110000000000001 20.378 1.262 20.567 1.343 20.842 C 2.143 23.576999999999998 3.814 25.567 6.273 25.567 C 8.093 25.567 9.472999999999999 24.679 9.472999999999999 22.803 C 9.472999999999999 20.959 8.227999999999998 20.243000000000002 5.5649999999999995 19.288 C 1.9580000000000002 18.023 0.10600000000000001 16.589 0.10600000000000001 13.414 C 0.10600000000000001 10.001 2.667 7.9879999999999995 6.373 7.9879999999999995 C 8.399000000000001 7.9879999999999995 10.165 8.485 11.536999999999999 9.286999999999999 C 11.73964916648743 9.405419019354301 11.864444295034138 9.62228860271628 11.864999999999998 9.857 L 11.864999999999998 12.966999999999999 C 11.864999999999998 13.326999999999998 11.576999999999998 13.617999999999999 11.220999999999998 13.617999999999999 C 10.929759401478922 13.616056190160249 10.675834095524458 13.419468866432227 10.600999999999999 13.137999999999998 C 9.989999999999998 10.907999999999998 8.605999999999998 9.180999999999997 6.372999999999999 9.180999999999997 C 4.654999999999999 9.180999999999997 3.6449999999999996 10.203999999999997 3.6449999999999996 11.672999999999998 C 3.6449999999999996 13.242999999999999 4.689 13.992999999999999 7.285 14.948999999999998 C 10.956 16.246 13.079 17.644999999999996 13.079 20.99 C 13.079 24.642 10.383000000000001 26.758 6.24 26.758 C 3.845 26.758 1.8319999999999999 26.160999999999998 0.45199999999999996 25.244999999999997 C 0.27722280281000644 25.132416287535094 0.16826215962008745 24.941735162378404 0.15999999999999992 24.733999999999998 L 0.16 24.734 Z" fill="#1F1F22"></path>

    <path class="svg-logo__letter-track svg-logo__s_track" stroke-miterlimit="100" stroke-width="5.5" d="M 13 12.5 C 8.734 7.172 1.81 8.012 2.153 13.736 C 2.233 15.061 3.747 15.734 4.75 16.313 C 7.181 17 12.565 19.653 11.544 23.445 C 11.32 24.279 10.1 25.035 9.42 25.415 C 7.069 26.732 4.244 26.61 2.187 24.788 C 1.9 24.534 0.311 23 0 20"></path>
  </g>

  <g id="svg-logo__o_group">
    <path class="svg-logo__o" d="M 37.953 18.159 C 37.953 22.631 36.842 25.532 34.346 25.532 C 31.652 25.532 30.472 21.64 30.472 16.59 C 30.472 12.117 31.619 9.25 34.112 9.25 C 36.808 9.25 37.953 13.107 37.953 18.159 Z M 25.521 17.784 C 25.521 23.21 29.026 26.76 34.181 26.76 C 39.2 26.76 42.941 22.801 42.941 16.998 C 42.941 11.605 39.436 7.988 34.281 7.988 C 29.262 7.988 25.521 11.982 25.521 17.784 Z" fill="#1F1F22"></path>

    <ellipse class="svg-logo__letter-track svg-logo__o_track" stroke-miterlimit="100" stroke-width="6.5" cx="34.32" cy="17.713" rx="6.822" ry="8.547"></ellipse>
  </g>

  <g id="svg-logo__gg_group">
    <path class="svg-logo__gg" d="M 46.645 28.976 C 46.645 31.265 48.637 32.701 51.807 32.701 C 55.112 32.701 58.082 31.574 58.082 29.011 C 58.082 27.507 57.068 26.961 55.416 26.961 L 47.633 26.961 C 47.114 27.487 46.645 28.158 46.645 28.976 Z M 70.09 9.124 C 68.199 9.124 67.424 11.004 67.426 13.669 C 67.426 16.471 68.369 18.829 70.36 18.829 C 72.216 18.829 72.957 16.949 72.957 14.216 C 72.957 11.483 72.046 9.124 70.09 9.124 Z M 73.733 22.622 C 76.615 22.622 79.322 24.296 79.32 27.304 C 79.32 31.611 75.419 34.002 69.819 34.002 C 64.894 34.002 62.172 32.499 62.172 29.731 C 62.172 27.988 63.375 27.032 64.995 26.519 C 63.678 26.007 62.902 24.811 62.902 23.409 C 62.902 21.393 64.488 20.093 66.039 19.103 C 64.251 18.215 63.081 16.547 63.081 14.121 C 63.081 12.747 63.388 12.353 63.689 11.733 C 63.99 11.114 63.083 10.188 61.066 10.188 C 59.05 10.188 58.139 11.119 58.442 11.733 C 58.745 12.345 59.05 12.747 59.05 14.119 C 59.05 17.742 56.123 19.956 51.906 19.956 C 50.725 19.956 49.965 19.834 49.173 19.584 C 48.407 20.017 47.353 20.742 47.353 21.46 C 47.353 22.178 47.793 22.622 48.533 22.622 L 55.488 22.622 C 58.655 22.622 61.077 24.295 61.077 27.303 C 61.077 31.609 57.176 34 51.576 34 C 46.65 34 43.929 32.497 43.929 29.728 C 43.929 27.986 45.132 27.03 46.752 26.518 C 45.435 26.006 44.659 24.808 44.659 23.408 C 44.659 21.391 46.245 20.091 47.796 19.101 C 46.007 18.212 44.692 16.64 44.692 14.214 C 44.692 10.284 47.828 7.961 52.045 7.961 C 53.293 7.961 54.157 8.114 55.048 8.439 C 55.837 8.724 56.568 9.151 57.205 9.698 C 57.205 9.698 58.601 8.633 61.072 8.633 C 63.543 8.633 64.935 9.698 64.935 9.698 C 65.599 9.128 66.464 8.733 66.551 8.695 L 66.614 8.668 C 66.698 8.631 66.783 8.596 66.869 8.564 L 66.942 8.534 C 67.027 8.501 67.112 8.473 67.197 8.443 L 67.281 8.414 L 67.534 8.337 C 67.648 8.302 67.764 8.27 67.88 8.242 L 67.988 8.214 C 68.07 8.195 68.153 8.178 68.236 8.161 L 68.353 8.138 C 68.435 8.123 68.517 8.109 68.6 8.096 C 68.643 8.09 68.685 8.081 68.728 8.076 C 68.809 8.063 68.892 8.053 68.975 8.043 L 69.109 8.026 C 69.194 8.017 69.278 8.01 69.363 8.003 C 69.406 7.997 69.451 7.993 69.496 7.99 C 69.586 7.985 69.678 7.979 69.77 7.975 L 69.892 7.97 C 70.022 7.964 70.156 7.962 70.292 7.962 C 71.54 7.962 72.404 8.116 73.295 8.441 C 73.758 8.611 74.429 8.915 74.828 9.235 C 75.619 8.417 76.757 7.076 77.683 6.855 C 78.593 6.638 79.188 7.076 79.418 7.308 C 79.767 7.643 79.985 8.116 79.985 8.64 C 79.985 9.35 79.587 9.965 79.005 10.27 C 78.757 10.399 78.477 10.473 78.177 10.473 C 77.446 10.473 76.819 10.036 76.532 9.405 C 76.382 9.563 76.043 9.934 75.872 10.115 C 75.903 10.148 75.933 10.181 75.962 10.215 C 76.647 11.03 77.376 12.534 77.376 14.114 C 77.376 17.735 74.373 19.956 70.156 19.956 C 68.975 19.956 68.522 19.88 67.556 19.66 C 66.558 19.922 65.603 20.742 65.603 21.46 C 65.603 22.178 66.043 22.622 66.783 22.622 Z M 52.11 18.829 C 53.964 18.829 54.707 16.949 54.709 14.216 C 54.709 11.483 53.798 9.124 51.841 9.124 C 49.951 9.124 49.176 11.004 49.176 13.669 C 49.176 16.471 50.119 18.829 52.11 18.829 Z M 70.055 32.703 C 73.361 32.703 76.33 31.574 76.33 29.011 C 76.33 27.507 75.316 26.961 73.664 26.961 L 65.882 26.961 C 65.384 27.468 64.894 28.158 64.894 28.978 C 64.894 31.267 66.885 32.703 70.055 32.703 Z" fill="#1F1F22"></path>
  </g>

  <g id="svg-logo__l_group">
    <path class="svg-logo__l" d="M 87.415 23.82 C 87.415 25 87.94900000000001 25.203 89.48100000000001 25.305 L 89.48100000000001 26.418 L 80.721 26.418 L 80.721 25.305 C 82.254 25.205 82.786 25.002 82.786 23.82 L 82.786 4.04 C 82.786 2.9210000000000003 81.891 2.408 80.787 2.408 L 80.787 1.6179999999999999 L 86.683 0 L 87.415 0 L 87.415 23.82 Z" fill="#1F1F22"></path>

    <line class="svg-logo__letter-track svg-logo__l_track" stroke-miterlimit="100" stroke-width="10" x1="85" y1="0" x2="85" y2="26.5"></line>
  </g>

  <g id="svg-logo__e_group">
    <path class="svg-logo__e" d="M 94.21 14.539 C 94.479 11.398 95.693 9.146 97.917 9.146 C 100.106 9.146 100.948 11.331 100.948 14.539 Z M 105.127 15.016 C 105.127 10.922 102.768 7.883 98.254 7.883 C 93.638 7.883 89.932 11.91 89.932 17.747 C 89.932 23.003 93.2 26.656 98.086 26.656 C 101.852 26.656 104.281 24.463 105.219 21.238 C 105.265 21.073 105.193 20.898 105.044 20.813 C 104.885 20.721 104.682 20.762 104.572 20.91 C 103.39 22.519 101.913 23.413 99.736 23.413 C 96.434 23.413 94.008 20.581 94.143 15.801 L 105.127 15.801 Z" fill="#1F1F22"></path>

    <path class="svg-logo__letter-track svg-logo__e_track" stroke-miterlimit="100" stroke-width="5.3" d="M 94.4 15.059 L 105.298 15.123 L 103.131 15.152 C 103.131 15.152 104.272 8.517 97.864 8.478 C 91.456 8.439 92.016 18.719 92.016 18.719 C 92.016 18.719 96.866 31.71 105.272 20.494"></path>
  </g>

  <g id="svg-logo__s2_group">
    <path class="svg-logo__s2" d="M 107.08 24.729 L 106.92099999999999 21.058999999999997 C 106.90219109878912 20.68971968033662 107.19524858010948 20.379369967171485 107.565 20.377 L 107.649 20.377 C 107.933 20.377 108.183 20.564999999999998 108.264 20.840999999999998 C 109.063 23.575999999999997 110.735 25.564999999999998 113.19399999999999 25.564999999999998 C 115.01299999999999 25.564999999999998 116.39499999999998 24.676999999999996 116.39499999999998 22.801 C 116.39499999999998 20.958 115.14899999999999 20.241 112.48699999999998 19.285999999999998 C 108.88099999999999 18.022999999999996 107.02899999999998 16.589 107.02899999999998 13.415999999999997 C 107.02899999999998 10.002999999999997 109.58999999999997 7.989999999999997 113.29599999999998 7.989999999999997 C 115.32199999999997 7.989999999999997 117.08799999999998 8.486999999999997 118.45999999999998 9.288999999999996 C 118.66279837848938 9.407270735024625 118.78764747654529 9.624234106377408 118.78799999999998 9.858999999999996 L 118.78799999999998 12.968999999999996 C 118.78799999999998 13.328999999999995 118.49999999999999 13.620999999999995 118.14399999999998 13.620999999999995 C 117.8524738375564 13.618934482312675 117.59845556827699 13.42186546100035 117.52399999999997 13.139999999999995 C 116.91299999999997 10.909999999999995 115.52899999999997 9.182999999999996 113.29599999999998 9.182999999999996 C 111.57799999999997 9.182999999999996 110.56799999999998 10.205999999999996 110.56799999999998 11.674999999999997 C 110.56799999999998 13.244999999999997 111.61199999999998 13.994999999999997 114.20699999999998 14.949999999999998 C 117.87899999999998 16.247999999999998 120.00199999999998 17.647 120.00199999999998 20.991999999999997 C 120.00199999999998 24.644 117.30599999999998 26.759999999999998 113.16299999999998 26.759999999999998 C 110.76999999999998 26.759999999999998 108.75899999999999 26.162999999999997 107.37899999999998 25.249999999999996 C 107.19999593334558 25.13580719733534 107.08829111070018 24.94116434559694 107.07999999999997 24.728999999999996 L 107.08 24.729 Z" fill="#1F1F22"></path>

    <path class="svg-logo__letter-track svg-logo__s2_track" stroke-miterlimit="100" stroke-width="7" d="M 107.16 20.382 C 107.585 21.801 108.44 24.331 109.827 25.16 C 112.363 26.675 116.643 26.517 117.646 23.35 C 119.428 17.726 114.52 18.279 111.359 16.109 C 109.392 14.76 107.83 12.653 109.519 10.255 C 111.404 7.58 115.394 7.721 117.257 9.797 C 117.476 10.041 118.231 11.043 118.643 11.767 C 118.862 12.152 118.75 12.581 118.307 14"></path>
  </g>
</svg>