<svg width="180px" height="22px" viewBox="0 0 180 22" version="1.1" xmlns="http://www.w3.org/2000/svg" xmlns:xlink="http://www.w3.org/1999/xlink" class="logo-dark logo__img logo__img--color">
  <g id="Logo/Dark-v2" stroke="none" stroke-width="1" fill="none" fill-rule="evenodd">
      <g id="Logo-House-of-Leon" transform="translate(-0.000000, 0.000000)">
          <rect id="Rectangle" x="6.82121026e-13" y="0" width="180" height="22"></rect>
          <g id="logo_1" transform="translate(-0.000000, 0.500000)" fill="#3C3C3C" fill-rule="nonzero">
              <path d="M17.74,4.30626462 C18.06,4.14626462 18.18,4.10626462 18.18,3.94626462 C18.18,3.84626462 18.14,3.80626462 18.02,3.80626462 C17.92,3.80626462 17.62,3.82626462 17.18,3.86626462 C16.46,3.90626462 15.38,3.98626462 14.44,3.98626462 C14.36,3.98626462 14.3,3.98626462 14.22,3.98626462 C14.12,3.98626462 14.02,3.98626462 13.92,3.98626462 C13.88,3.98626462 13.86,3.98626462 13.82,3.98626462 C12.8,3.94626462 11.62,3.82626462 11.42,3.82626462 C11.36,3.82626462 11.32,3.84626462 11.3,3.86626462 C11.26,3.88626462 11.26,3.92626462 11.26,3.98626462 C11.26,4.14626462 11.36,4.18626462 11.68,4.30626462 C12.48,4.66626462 12.52,5.20626462 12.52,10.9262646 C12.52,11.6462646 12.14,11.7262646 9.68,11.7262646 C9.5,11.7262646 9.28,11.7262646 9.08,11.7262646 C8.86,11.7262646 8.66,11.7262646 8.48,11.7262646 C6.06,11.7262646 5.66,11.6662646 5.66,10.9062646 C5.66,5.22626462 5.7,4.68626462 6.5,4.32626462 C6.82,4.20626462 6.92,4.16626462 6.92,4.00626462 C6.92,3.94626462 6.9,3.90626462 6.88,3.88626462 C6.86,3.86626462 6.82,3.84626462 6.76,3.84626462 C6.56,3.84626462 5.22,3.98626462 4.16,4.00626462 C4.12,4.00626462 4.06,4.00626462 4.02,4.00626462 C3.98,4.00626462 3.92,4.00626462 3.88,4.00626462 C2.9,4.00626462 1.76,3.92626462 1,3.88626462 C0.56,3.86626462 0.24,3.82626462 0.16,3.82626462 C0.04,3.82626462 -9.09494702e-14,3.86626462 -9.09494702e-14,3.96626462 C-9.09494702e-14,4.12626462 0.12,4.16626462 0.44,4.32626462 C1.34,4.76626462 1.38,5.30626462 1.38,11.8662646 C1.38,18.4262646 1.34,18.9462646 0.44,19.3862646 C0.12,19.5662646 -9.09494702e-14,19.6062646 -9.09494702e-14,19.7662646 C-9.09494702e-14,19.8662646 0.04,19.9062646 0.16,19.9062646 C0.26,19.9062646 0.56,19.8862646 1,19.8462646 C1.72,19.8062646 2.8,19.7262646 3.74,19.7262646 C3.82,19.7262646 3.88,19.7262646 3.96,19.7262646 C4.06,19.7262646 4.14,19.7262646 4.24,19.7262646 C4.26,19.7262646 4.26,19.7262646 4.26,19.7262646 C4.3,19.7262646 4.32,19.7262646 4.36,19.7262646 C5.38,19.7662646 6.56,19.8862646 6.76,19.8862646 C6.82,19.8862646 6.86,19.8862646 6.88,19.8462646 C6.92,19.8262646 6.92,19.7862646 6.92,19.7262646 C6.92,19.5862646 6.82,19.5462646 6.5,19.4062646 C5.74,19.0662646 5.68,18.3262646 5.66,12.9462646 C5.66,12.2262646 6.08,12.1662646 8.48,12.1662646 C8.66,12.1662646 8.86,12.1662646 9.06,12.1662646 C9.34,12.1662646 9.6,12.1662646 9.84,12.1662646 C12.12,12.1662646 12.5,12.2262646 12.5,12.9262646 C12.5,18.3262646 12.44,19.0862646 11.66,19.4262646 C11.34,19.5662646 11.24,19.6062646 11.24,19.7462646 C11.24,19.8062646 11.26,19.8462646 11.28,19.8662646 C11.3,19.8862646 11.34,19.9062646 11.4,19.9062646 C11.6,19.9062646 12.94,19.7662646 14,19.7462646 C14.08,19.7462646 14.14,19.7462646 14.22,19.7462646 C14.24,19.7462646 14.26,19.7462646 14.3,19.7462646 C15.28,19.7462646 16.42,19.8262646 17.18,19.8662646 C17.62,19.9062646 17.94,19.9262646 18.02,19.9262646 C18.14,19.9262646 18.18,19.8662646 18.18,19.7862646 C18.18,19.6462646 18.06,19.5862646 17.74,19.4062646 C16.84,18.9862646 16.8,18.4662646 16.8,11.8862646 C16.8,5.28626462 16.84,4.74626462 17.74,4.30626462" id="Path"></path>
              <path d="M27.36,3.40626462 C27.28,3.40626462 27.22,3.40626462 27.14,3.40626462 C27.06,3.40626462 27,3.40626462 26.92,3.40626462 C22.24,3.50626462 18.74,6.70626462 18.74,11.7462646 C18.74,16.6462646 22.14,19.8862646 26.72,20.0862646 C26.86,20.0862646 27,20.0862646 27.14,20.0862646 C27.28,20.0862646 27.42,20.0862646 27.56,20.0862646 C32.14,19.9062646 35.5400853,16.6462646 35.5400853,11.7462646 C35.56,6.68626462 32.06,3.50626462 27.36,3.40626462 M27.86,19.6462646 C27.62,19.6862646 27.38,19.7262646 27.14,19.7262646 C26.88,19.7262646 26.64,19.7062646 26.4,19.6462646 C24.4,19.2062646 23,16.9062646 23,11.7462646 C23,6.48626462 24.4,4.28626462 26.38,3.88626462 L26.38,3.88626462 C26.62,3.82626462 26.88,3.80626462 27.14,3.80626462 C27.4,3.80626462 27.64,3.82626462 27.88,3.86626462 C29.9,4.26626462 31.26,6.44626462 31.26,11.7462646 C31.28,16.9062646 29.88,19.2262646 27.86,19.6462646" id="Shape"></path>
              <path d="M52.38,3.70626462 C52.3,3.70626462 52.16,3.72626462 51.96,3.74626462 C51.52,3.80626462 50.84,3.88626462 50.16,3.88626462 C50.06,3.88626462 49.98,3.88626462 49.88,3.88626462 L49.84,3.88626462 C49.02,3.88626462 48.06,3.72626462 47.86,3.72626462 L47.84,3.72626462 C47.72,3.72626462 47.66,3.78626462 47.66,3.88626462 C47.66,4.04626462 47.78,4.08626462 48.02,4.14626462 C49.16,4.44626462 49.66,5.06626462 49.66,7.12626462 L49.66,12.5462646 C49.66,14.9662646 49.1,16.5662646 48.28,17.5662646 C47.46,18.5662646 46.36,18.9662646 45.28,18.9662646 C42.62,18.9662646 41.14,17.1062646 41.14,13.4862646 L41.16,7.32626462 C41.16,6.64626462 41.18,6.14626462 41.22,5.74626462 C41.24,5.52626462 41.28,5.32626462 41.32,5.18626462 C41.32,5.18626462 41.32,5.16626462 41.32,5.16626462 C41.32,5.16626462 41.32,5.14626462 41.32,5.14626462 C41.32,5.12626462 41.34,5.10626462 41.34,5.08626462 C41.38,4.98626462 41.42,4.88626462 41.46,4.82626462 C41.46,4.80626462 41.48,4.78626462 41.48,4.78626462 C41.48,4.78626462 41.48,4.78626462 41.48,4.76626462 C41.5,4.72626462 41.52,4.70626462 41.56,4.66626462 C41.58,4.64626462 41.58,4.62626462 41.6,4.62626462 C41.62,4.60626462 41.66,4.56626462 41.68,4.54626462 C41.72,4.50626462 41.78,4.46626462 41.82,4.44626462 C41.82,4.44626462 41.82,4.44626462 41.82,4.44626462 C41.86,4.42626462 41.9,4.40626462 41.92,4.38626462 C41.94,4.36626462 41.96,4.36626462 41.98,4.34626462 C42.42,4.08626462 42.54,4.04626462 42.54,3.90626462 C42.54,3.86626462 42.54,3.82626462 42.52,3.80626462 C42.5,3.76626462 42.44,3.76626462 42.38,3.76626462 C42.1,3.76626462 40.62,3.92626462 39.4,3.92626462 C39.18,3.92626462 38.96,3.92626462 38.74,3.90626462 C38.74,3.90626462 38.72,3.90626462 38.72,3.90626462 C37.9,3.88626462 37.1,3.82626462 36.6,3.78626462 C36.56,3.78626462 36.52,3.78626462 36.48,3.78626462 C36.26,3.76626462 36.12,3.76626462 36.06,3.76626462 C35.94,3.76626462 35.9,3.78626462 35.9,3.90626462 C35.9,4.06626462 36.04,4.08626462 36.34,4.28626462 C37,4.68626462 37.1,5.24626462 37.1,7.10626462 L37.1,12.3862646 C37.1,18.2662646 39.88,20.1462646 44.22,20.1462646 C47.96,20.1462646 50.4,17.8262646 50.4,12.5262646 L50.4,8.04626462 C50.4,5.32626462 50.78,4.64626462 51.76,4.24626462 C52.12,4.08626462 52.44,4.04626462 52.44,3.88626462 C52.52,3.74626462 52.46,3.70626462 52.38,3.70626462" id="Path"></path>
              <path d="M61.56,9.18626462 L59.46,8.66626462 C57.52,8.16626462 56.46,7.58626462 56.46,6.12626462 C56.46,5.48626462 56.7,4.92626462 57.18,4.50626462 C57.7,4.10626462 58.42,3.88626462 59.3,3.88626462 C59.34,3.88626462 59.36,3.88626462 59.4,3.88626462 C59.52,3.88626462 59.66,3.90626462 59.78,3.90626462 C59.82,3.90626462 59.86,3.90626462 59.92,3.92626462 C59.96,3.92626462 59.98,3.92626462 60,3.94626462 C60.02,3.94626462 60.06,3.94626462 60.08,3.96626462 C60.12,3.96626462 60.16,3.98626462 60.2,3.98626462 C62.5,4.38626462 63.96,6.22626462 65.08,8.62626462 C65.1,8.68626462 65.14,8.74626462 65.16,8.80626462 C65.2,8.96626462 65.28,9.02626462 65.4,9.02626462 C65.5,9.02626462 65.56,8.94626462 65.56,8.86626462 C65.56,8.70626462 65.38,7.22626462 65.28,6.04626462 C65.2,5.14626462 65.18,4.00626462 65.18,3.76626462 C65.18,3.60626462 65.14,3.54626462 65,3.54626462 C64.84,3.54626462 64.78,3.66626462 64.74,4.00626462 C64.74,4.02626462 64.74,4.04626462 64.74,4.06626462 C64.66,4.50626462 64.54,4.74626462 64.14,4.74626462 C64.1,4.74626462 64.08,4.74626462 64.04,4.74626462 C63.4,4.68626462 62.52,4.08626462 61,3.76626462 C60.5,3.64626462 59.92,3.54626462 59.22,3.54626462 C58.74,3.54626462 58.28,3.58626462 57.82,3.68626462 C55.36,4.10626462 53.12,5.68626462 53.12,8.60626462 C53.12,11.0862646 54.56,12.8262646 58.04,13.6462646 L59.24,13.9462646 C62.26,14.7062646 63.02,15.5262646 63.02,17.0862646 C63.02,18.7062646 61.86,19.7262646 60.02,19.7262646 L60.02,19.7262646 C56.8,19.7262646 55.14,17.4062646 53.76,14.5062646 C53.7,14.3862646 53.64,14.2462646 53.58,14.1262646 C53.48,13.9062646 53.44,13.8462646 53.32,13.8462646 C53.22,13.8462646 53.16,13.9262646 53.16,14.0462646 C53.16,14.2662646 53.34,15.5262646 53.34,17.3462646 C53.34,18.5862646 53.26,19.5262646 53.26,19.8662646 C53.26,20.0862646 53.28,20.1462646 53.42,20.1462646 C53.58,20.1462646 53.6,20.0662646 53.66,19.8262646 C53.7,19.6262646 53.76,19.4662646 53.84,19.3462646 C54.02,19.0862646 54.28,18.9662646 54.6,18.9662646 C54.64,18.9662646 54.7,18.9662646 54.74,18.9662646 C55.56,19.0462646 56.88,19.8262646 58.86,20.0462646 C59.24,20.1062646 59.64,20.1262646 60.06,20.1262646 C61,20.1262646 61.94,19.9462646 62.76,19.6062646 C62.76,19.6062646 62.76,19.6062646 62.78,19.6062646 C64.86,18.8262646 66.54,17.1262646 66.54,14.3862646 C66.56,11.3462646 64.86,10.0062646 61.56,9.18626462" id="Path"></path>
              <path d="M82.18,3.84626462 C82.18,3.74626462 82.14,3.70626462 82.02,3.70626462 C81.86,3.70626462 81.42,3.70626462 80.78,3.72626462 C80.74,3.72626462 80.68,3.72626462 80.64,3.72626462 C80.6,3.72626462 80.56,3.72626462 80.52,3.72626462 C80.5,3.72626462 80.46,3.72626462 80.44,3.72626462 C80.38,3.72626462 80.34,3.72626462 80.28,3.72626462 C80.22,3.72626462 80.16,3.72626462 80.1,3.72626462 C80.04,3.72626462 79.96,3.72626462 79.9,3.72626462 C79.86,3.72626462 79.84,3.72626462 79.8,3.72626462 C79.8,3.72626462 79.78,3.72626462 79.78,3.72626462 C79.64,3.72626462 79.48,3.72626462 79.3,3.74626462 C79.22,3.74626462 79.14,3.74626462 79.06,3.74626462 C79.04,3.74626462 79.02,3.74626462 79,3.74626462 C78.92,3.74626462 78.84,3.74626462 78.78,3.74626462 C78.7,3.74626462 78.64,3.74626462 78.56,3.74626462 C78.34,3.74626462 78.12,3.74626462 77.9,3.76626462 C77.74,3.76626462 77.6,3.76626462 77.44,3.76626462 C77.44,3.76626462 77.42,3.76626462 77.42,3.76626462 C75.36,3.80626462 73.16,3.84626462 72.02,3.84626462 C70.44,3.84626462 69.08,3.76626462 68.24,3.70626462 C67.86,3.68626462 67.58,3.66626462 67.46,3.66626462 C67.34,3.66626462 67.3,3.72626462 67.3,3.80626462 C67.3,3.96626462 67.42,4.00626462 67.74,4.16626462 C68.64,4.62626462 68.68,5.14626462 68.68,11.7462646 C68.68,18.2462646 68.64,18.7862646 67.74,19.2062646 C67.4,19.3862646 67.3,19.4262646 67.3,19.5862646 C67.3,19.6862646 67.34,19.7462646 67.46,19.7462646 C67.64,19.7462646 67.9,19.7262646 68.3,19.7262646 L68.3,19.7262646 C68.6,19.7062646 68.96,19.7062646 69.42,19.6862646 C69.44,19.6862646 69.44,19.6862646 69.46,19.6862646 C70.02,19.6862646 70.7,19.6662646 71.56,19.6662646 C73.76,19.6662646 81.1,19.7462646 82.04,19.7462646 C82.16,19.7462646 82.2,19.6862646 82.2,19.5862646 C82.2,19.3062646 81.52,19.4662646 81.52,18.3062646 C81.52,15.6262646 82.02,12.2062646 82.02,11.9662646 C82.02,11.8462646 81.98,11.7662646 81.88,11.7662646 C81.76,11.7662646 81.64,11.8462646 81.62,12.1662646 C81.48,13.0862646 81.3,13.8862646 81.08,14.6062646 C80.54,16.3462646 79.78,17.5262646 78.92,18.2662646 C78.56,18.5662646 78.18,18.8062646 77.78,18.9662646 C77.12,19.2262646 76.38,19.3062646 75.54,19.2862646 L75.54,19.2862646 C74.3,19.2862646 73.86,19.1662646 73.58,18.8262646 C73.26,18.4462646 73.08,17.4462646 73.04,12.3662646 C73.04,11.8062646 73.26,11.6862646 74.46,11.6862646 C75.48,11.6862646 76.1,11.8462646 76.52,12.1862646 C76.52,12.1862646 76.52,12.1862646 76.52,12.1862646 C77.1,12.5262646 77.42,13.0862646 77.8,13.9462646 C77.84,14.0462646 77.9,14.1662646 77.96,14.2862646 C78,14.4462646 78.08,14.4862646 78.18,14.4862646 C78.22,14.4862646 78.3,14.4262646 78.3,14.3062646 C78.3,14.0862646 78.18,13.3062646 78.18,11.5862646 C78.18,10.1062646 78.3,9.02626462 78.3,8.84626462 C78.3,8.72626462 78.22,8.66626462 78.18,8.66626462 C78.08,8.66626462 78.02,8.72626462 77.96,8.86626462 C77.9,9.00626462 77.84,9.12626462 77.78,9.26626462 C77.74,9.36626462 77.68,9.46626462 77.64,9.56626462 C77.04,10.8062646 76.48,11.3462646 74.76,11.3462646 C74.66,11.3462646 74.58,11.3462646 74.5,11.3462646 C74.5,11.3462646 74.48,11.3462646 74.48,11.3462646 C73.92,11.3262646 73.52,11.2662646 73.28,11.1262646 C73.28,11.1262646 73.28,11.1262646 73.28,11.1262646 C73.12,11.0262646 73.04,10.8662646 73.02,10.6462646 C73.02,10.6262646 73.02,10.6062646 73.02,10.5862646 C73.04,6.54626462 73.16,5.34626462 73.38,4.84626462 C73.4,4.82626462 73.4,4.78626462 73.42,4.76626462 C73.44,4.72626462 73.48,4.68626462 73.5,4.64626462 C73.8,4.26626462 74.28,4.14626462 75.62,4.14626462 C76.68,4.14626462 77.58,4.26626462 78.36,4.74626462 C78.36,4.74626462 78.36,4.74626462 78.38,4.74626462 C79.32,5.26626462 80.22,6.20626462 80.98,7.86626462 C81.2,8.34626462 81.4,8.88626462 81.6,9.50626462 C81.64,9.72626462 81.74,9.80626462 81.84,9.80626462 C81.94,9.80626462 82,9.74626462 82,9.60626462 C82,9.38626462 81.5,6.84626462 81.5,5.08626462 C81.48,3.98626462 82.18,4.12626462 82.18,3.84626462" id="Path"></path>
              <path d="M154.7,3.40626462 C154.62,3.40626462 154.56,3.40626462 154.48,3.40626462 C154.4,3.40626462 154.34,3.40626462 154.26,3.40626462 C149.58,3.50626462 146.08,6.70626462 146.08,11.7462646 C146.08,16.6462646 149.48,19.8862646 154.06,20.0862646 C154.2,20.0862646 154.34,20.1062646 154.48,20.1062646 C154.62,20.1062646 154.76,20.1062646 154.9,20.0862646 C159.48,19.9062646 162.88,16.6462646 162.88,11.7462646 C162.88,6.68626462 159.38,3.50626462 154.7,3.40626462 M155.2,19.6462646 C154.96,19.6862646 154.72,19.7262646 154.48,19.7262646 C154.22,19.7262646 153.98,19.7062646 153.74,19.6462646 C151.74,19.2062646 150.34,16.9062646 150.34,11.7462646 C150.34,6.48626462 151.74,4.28626462 153.72,3.88626462 L153.72,3.88626462 C153.96,3.82626462 154.22,3.80626462 154.48,3.80626462 C154.74,3.80626462 154.98,3.82626462 155.22,3.86626462 C157.24,4.26626462 158.6,6.44626462 158.6,11.7462646 C158.6,16.9062646 157.22,19.2262646 155.2,19.6462646" id="Shape"></path>
              <path d="M179.8,3.72626462 C179.7,3.72626462 179.26,3.78626462 178.74,3.82626462 C178.66,3.82626462 178.58,3.84626462 178.5,3.84626462 C178.46,3.84626462 178.44,3.84626462 178.4,3.84626462 C178.34,3.84626462 178.28,3.86626462 178.22,3.86626462 C178.22,3.86626462 178.2,3.86626462 178.2,3.86626462 C178.14,3.86626462 178.08,3.86626462 178,3.88626462 C177.94,3.88626462 177.88,3.88626462 177.82,3.90626462 C177.76,3.90626462 177.7,3.90626462 177.64,3.90626462 C177.62,3.90626462 177.58,3.90626462 177.56,3.90626462 C177.5,3.90626462 177.44,3.90626462 177.4,3.90626462 C177.38,3.90626462 177.34,3.90626462 177.32,3.90626462 C176.76,3.90626462 175.3,3.74626462 175.04,3.74626462 C174.9,3.74626462 174.86,3.78626462 174.86,3.90626462 C174.86,4.06626462 174.98,4.12626462 175.32,4.22626462 C176.02,4.44626462 176.5,4.78626462 176.78,5.42626462 C177.04,5.96626462 177.14,6.72626462 177.14,7.76626462 L177.14,12.0062646 C177.14,12.2662646 176.84,12.4262646 176.66,12.2462646 C174.84,10.6262646 169.3,5.94626462 167.16,4.18626462 C166.76,3.86626462 166.54,3.70626462 166.26,3.70626462 C165.86,3.70626462 165.46,3.86626462 164.62,3.86626462 C164.14,3.86626462 163.12,3.70626462 163,3.70626462 C162.92,3.70626462 162.84,3.74626462 162.84,3.86626462 C162.84,4.12626462 163.8,4.26626462 164.46,5.04626462 C165.04,5.72626462 165.16,6.84626462 165.16,10.1262646 L165.16,14.3062646 C165.16,18.5262646 164.38,19.1462646 163.08,19.4862646 C162.8,19.5462646 162.72,19.5862646 162.72,19.6862646 C162.72,19.8062646 162.76,19.8662646 162.92,19.8662646 C163,19.8662646 163.1,19.8662646 163.22,19.8462646 C163.78,19.8062646 164.76,19.7262646 165.28,19.7062646 C165.32,19.7062646 165.36,19.7062646 165.4,19.7062646 C165.42,19.7062646 165.44,19.7062646 165.46,19.7062646 C165.5,19.7062646 165.54,19.7062646 165.58,19.7062646 C165.58,19.7062646 165.6,19.7062646 165.6,19.7062646 C166.26,19.7462646 167.32,19.9062646 167.88,19.9062646 C167.98,19.9062646 168.02,19.8862646 168.06,19.8462646 C168.08,19.8262646 168.1,19.7862646 168.1,19.7462646 C168.1,19.5862646 167.98,19.5262646 167.7,19.4462646 C166.66,19.0862646 166.12,18.6262646 165.9,17.6262646 C165.78,17.1462646 165.74,16.5262646 165.74,15.7462646 L165.74,10.2662646 C165.74,10.0062646 166,9.86626462 166.2,10.0062646 C166.26,10.0462646 166.34,10.1062646 166.4,10.1662646 C168.3,11.8662646 173.6,16.8062646 175.96,19.0062646 C176.54,19.5462646 176.94,19.9062646 177.06,20.0262646 C177.2,20.1462646 177.28,20.2262646 177.36,20.2662646 C177.44,20.3062646 177.48,20.3262646 177.56,20.3262646 C177.68,20.3262646 177.76,20.2062646 177.76,19.9662646 L177.76,8.50626462 C177.76,5.52626462 178.32,4.56626462 179.62,4.12626462 C179.88,4.02626462 180,3.96626462 180,3.86626462 C179.98,3.74626462 179.92,3.72626462 179.8,3.72626462" id="Path"></path>
              <path d="M127.44,18.4462646 C127.44,17.1862646 127.58,15.5862646 127.94,12.7462646 C127.96,12.4462646 127.94,12.3462646 127.8,12.3462646 C127.68,12.3462646 127.58,12.4262646 127.54,12.7462646 C127.38,13.6862646 127.16,14.5062646 126.92,15.2062646 C126,17.8262646 124.64,18.8462646 123.34,19.1662646 C123.34,19.1662646 123.32,19.1662646 123.32,19.1662646 C122.88,19.2862646 122.4,19.3262646 121.88,19.3262646 C120.58,19.3262646 119.92,19.1662646 119.66,18.6662646 C119.38,18.1662646 119.34,17.4862646 119.34,12.1662646 C119.34,5.22626462 119.36,4.64626462 120.12,4.26626462 C120.52,4.06626462 120.66,4.04626462 120.66,3.90626462 C120.66,3.86626462 120.66,3.82626462 120.62,3.80626462 C120.6,3.76626462 120.56,3.76626462 120.48,3.76626462 C120.24,3.76626462 119.16,3.90626462 117.98,3.92626462 C117.94,3.92626462 117.9,3.92626462 117.86,3.92626462 C117.74,3.92626462 117.6,3.92626462 117.48,3.92626462 L117.4,3.92626462 C117.36,3.92626462 117.32,3.92626462 117.28,3.92626462 C117.24,3.92626462 117.2,3.92626462 117.16,3.92626462 C116.18,3.92626462 115.3,3.86626462 114.68,3.80626462 C114.24,3.76626462 113.94,3.74626462 113.84,3.74626462 C113.72,3.74626462 113.68,3.80626462 113.68,3.88626462 C113.68,4.04626462 113.8,4.08626462 114.12,4.24626462 C115.02,4.68626462 115.06,5.22626462 115.06,12.1662646 C115.06,18.4062646 115.02,18.9862646 114.12,19.4262646 C113.8,19.5862646 113.68,19.6262646 113.68,19.7262646 C113.68,19.8262646 113.72,19.8862646 113.84,19.8862646 C114.54,19.8862646 118.2,19.8062646 121.24,19.8062646 C122.86,19.8062646 124.36,19.8262646 125.54,19.8462646 C125.54,19.8462646 125.54,19.8462646 125.56,19.8462646 C126.14,19.8462646 126.64,19.8662646 127.04,19.8662646 C127.46,19.8662646 127.78,19.8862646 127.94,19.8862646 C128.06,19.8862646 128.1,19.8462646 128.1,19.7262646 C128.12,19.4462646 127.44,19.6062646 127.44,18.4462646" id="Path"></path>
              <path d="M144.44,3.84626462 C144.44,3.74626462 144.4,3.68626462 144.28,3.68626462 C144.12,3.68626462 143.66,3.68626462 143.02,3.70626462 C142.98,3.70626462 142.92,3.70626462 142.88,3.70626462 C142.84,3.70626462 142.8,3.70626462 142.76,3.70626462 C142.74,3.70626462 142.7,3.70626462 142.68,3.70626462 C142.62,3.70626462 142.58,3.70626462 142.52,3.70626462 C142.46,3.70626462 142.4,3.70626462 142.34,3.70626462 C142.28,3.70626462 142.2,3.70626462 142.14,3.70626462 C142.1,3.70626462 142.08,3.70626462 142.04,3.70626462 C142.04,3.70626462 142.02,3.70626462 142.02,3.70626462 C141.88,3.70626462 141.72,3.70626462 141.54,3.72626462 C141.46,3.72626462 141.38,3.72626462 141.3,3.72626462 C141.28,3.72626462 141.26,3.72626462 141.24,3.72626462 C141.16,3.72626462 141.08,3.72626462 141.02,3.72626462 C140.94,3.72626462 140.88,3.72626462 140.8,3.72626462 C140.58,3.72626462 140.36,3.72626462 140.12,3.74626462 C139.96,3.74626462 139.82,3.74626462 139.66,3.74626462 C139.66,3.74626462 139.64,3.74626462 139.64,3.74626462 C137.56,3.78626462 135.34,3.82626462 134.22,3.82626462 C132.62,3.82626462 131.26,3.74626462 130.42,3.68626462 C130.04,3.66626462 129.76,3.64626462 129.64,3.64626462 C129.52,3.64626462 129.48,3.70626462 129.48,3.80626462 C129.48,3.96626462 129.6,4.00626462 129.94,4.16626462 C130.84,4.62626462 130.88,5.14626462 130.88,11.7862646 C130.88,18.3262646 130.84,18.8662646 129.94,19.2862646 C129.6,19.4662646 129.48,19.5062646 129.48,19.6662646 C129.48,19.7662646 129.52,19.8262646 129.64,19.8262646 C129.82,19.8262646 130.08,19.8062646 130.48,19.8062646 L130.48,19.8062646 C130.78,19.8062646 131.14,19.7862646 131.62,19.7662646 C131.64,19.7662646 131.64,19.7662646 131.66,19.7662646 C132.22,19.7462646 132.92,19.7462646 133.78,19.7462646 C135.98,19.7462646 143.36,19.8262646 144.32,19.8262646 C144.44,19.8262646 144.48,19.7662646 144.48,19.6662646 C144.48,19.3862646 143.8,19.5462646 143.8,18.3862646 C143.8,15.6862646 144.3,12.2462646 144.3,12.0262646 C144.3,11.9062646 144.26,11.8262646 144.16,11.8262646 C144.04,11.8262646 143.92,11.9062646 143.9,12.2262646 C143.76,13.1462646 143.58,13.9662646 143.36,14.6662646 C142.82,16.4262646 142.06,17.6062646 141.18,18.3462646 C140.82,18.6462646 140.44,18.8862646 140.04,19.0462646 C139.38,19.3062646 138.64,19.3862646 137.78,19.3662646 L137.78,19.3662646 C136.52,19.3662646 136.08,19.2462646 135.82,18.9062646 C135.5,18.5262646 135.32,17.5262646 135.28,12.4062646 C135.28,11.8462646 135.5,11.7262646 136.72,11.7262646 C137.74,11.7262646 138.36,11.8862646 138.8,12.2262646 C138.8,12.2262646 138.8,12.2262646 138.8,12.2262646 C139.38,12.5662646 139.7,13.1462646 140.1,14.0062646 C140.16,14.1262646 140.2,14.2262646 140.26,14.3462646 C140.3,14.5062646 140.38,14.5462646 140.48,14.5462646 C140.52,14.5462646 140.6,14.4862646 140.6,14.3662646 C140.6,14.1462646 140.48,13.3462646 140.48,11.6462646 C140.48,10.1662646 140.6,9.06626462 140.6,8.88626462 C140.6,8.76626462 140.52,8.70626462 140.48,8.70626462 C140.38,8.70626462 140.32,8.76626462 140.26,8.90626462 C140.2,9.04626462 140.14,9.16626462 140.08,9.30626462 C140.04,9.40626462 139.98,9.50626462 139.94,9.60626462 C139.34,10.8462646 138.78,11.3862646 137.04,11.3862646 C136.94,11.3862646 136.86,11.3862646 136.78,11.3862646 C136.78,11.3862646 136.76,11.3862646 136.76,11.3862646 C136.2,11.3662646 135.8,11.3062646 135.56,11.1662646 C135.56,11.1662646 135.56,11.1662646 135.56,11.1662646 C135.4,11.0662646 135.32,10.9062646 135.3,10.6862646 C135.3,10.6662646 135.3,10.6462646 135.3,10.6262646 C135.32,6.56626462 135.44,5.36626462 135.66,4.86626462 C135.68,4.84626462 135.68,4.80626462 135.7,4.78626462 C135.72,4.74626462 135.76,4.70626462 135.78,4.66626462 C136.08,4.26626462 136.56,4.16626462 137.92,4.16626462 C138.98,4.16626462 139.9,4.28626462 140.68,4.76626462 C140.68,4.76626462 140.68,4.76626462 140.7,4.76626462 C141.64,5.28626462 142.54,6.22626462 143.3,7.88626462 C143.52,8.36626462 143.74,8.90626462 143.92,9.52626462 C143.96,9.74626462 144.06,9.82626462 144.16,9.82626462 C144.26,9.82626462 144.32,9.76626462 144.32,9.62626462 C144.32,9.40626462 143.82,6.84626462 143.82,5.08626462 C143.74,3.96626462 144.44,4.12626462 144.44,3.84626462" id="Path"></path>
              <path d="M132.12,2.50626462 C131.98,2.50626462 131.96,2.20626462 132.12,2.18626462 C133.84,1.98626462 135.86,1.74626462 136.86,1.52626462 C139.42,0.986264622 141.22,0.306264622 141.98,0.00626462206 C142.08,-0.0337353779 142.16,0.126264622 142.1,0.246264622 C141.84,0.806264622 141.62,1.72626462 141.58,2.32626462 C141.58,2.42626462 141.52,2.50626462 141.44,2.50626462 L132.12,2.50626462 L132.12,2.50626462 Z" id="Path"></path>
              <path d="M100,15.8462646 C100,18.4462646 97.86,20.0662646 94.86,20.0662646 C91.86,20.0662646 89.72,18.4462646 89.72,15.8462646 C89.72,13.2462646 91.86,11.6262646 94.86,11.6262646 C97.86,11.6262646 100,13.2462646 100,15.8462646 M96.26,15.8462646 C96.24,12.6662646 95.78,11.9262646 94.86,11.9062646 C93.94,11.9262646 93.48,12.6662646 93.46,15.8462646 C93.48,19.0262646 93.94,19.7662646 94.86,19.7862646 C95.78,19.7862646 96.24,19.0462646 96.26,15.8462646" id="Shape"></path>
              <path d="M102.7,8.00626462 C102.7,9.02626462 104.08,9.92626462 104.26,11.9262646 C105,11.9062646 105.66,11.8862646 105.8,11.8862646 C105.96,11.8862646 106.12,11.9462646 106.12,12.1662646 C106.12,12.3662646 105.98,12.4462646 105.8,12.4462646 C105.68,12.4462646 105.02,12.4262646 104.28,12.4062646 L104.28,16.4662646 C104.28,18.2062646 104.48,19.2262646 105.46,19.5062646 C105.9,19.6262646 106,19.6462646 106,19.7862646 C106,19.8662646 105.94,19.9262646 105.86,19.9262646 C105.64,19.9262646 103.68,19.7862646 102.48,19.7862646 C101.3,19.7862646 99.84,19.9262646 99.64,19.9262646 C99.56,19.9262646 99.5,19.8862646 99.5,19.8062646 C99.5,19.6862646 99.6,19.6662646 99.88,19.5062646 C100.6,19.1462646 100.66,18.4262646 100.66,16.2662646 L100.66,12.5662646 C100.66,12.5062646 100.66,12.4662646 100.66,12.4062646 C100.18,12.4062646 99.82,12.4262646 99.7,12.4262646 C99.52,12.4262646 99.44,12.3062646 99.44,12.1662646 C99.44,12.0062646 99.52,11.9062646 99.7,11.9062646 C99.82,11.9062646 100.18,11.9262646 100.66,11.9262646 C100.84,7.58626462 102.88,6.66626462 104.64,6.66626462 C106.18,6.66626462 106.86,7.28626462 106.88,8.08626462 C106.88,8.82626462 106.32,9.40626462 105.54,9.40626462 C104.8,9.40626462 104.56,8.96626462 104.3,8.20626462 C104.14,7.68626462 103.94,7.26626462 103.44,7.26626462 C103,7.26626462 102.7,7.56626462 102.7,8.00626462" id="Path"></path>
          </g>
      </g>
  </g>
</svg>