<svg class="o-logo" xmlns="http://www.w3.org/2000/svg" viewBox="0 0 297 51">
  <path d="M237.565 25.464a19.234 19.234 0 0 0 7.874-15.494V7.914h-6.731V9.97a12.736 12.736 0 0 1-12.789 12.655h-5.927V7.914h-6.73V44h6.73V29.3h7.4a12.735 12.735 0 0 1 12.789 12.654V44h6.731v-2.053a19.282 19.282 0 0 0-9.347-16.483zM64.8 45.279a19.32 19.32 0 1 1 19.523-19.318A19.442 19.442 0 0 1 64.8 45.279zm0-31.977a12.658 12.658 0 1 0 12.793 12.659A12.739 12.739 0 0 0 64.8 13.3zM23.029 25.961V44h6.731V25.961A12.739 12.739 0 0 1 42.548 13.3V6.641a19.442 19.442 0 0 0-19.519 19.32zm-3.51-9.32V9.979H6.731V0H0v25.055h.01A19.443 19.443 0 0 0 19.519 44v-6.661A12.737 12.737 0 0 1 6.731 24.682v-8.041h12.788zm87.095-10a19.442 19.442 0 0 0-19.52 19.32V51h6.73V40.536a19.546 19.546 0 0 0 32.308-14.575 19.442 19.442 0 0 0-19.518-19.32zm0 31.976A12.658 12.658 0 1 1 119.4 25.961a12.739 12.739 0 0 1-12.786 12.656zm83.619-31.976a19.32 19.32 0 1 0 0 38.638 19.548 19.548 0 0 0 12.788-4.743V44h6.731V25.961a19.442 19.442 0 0 0-19.519-19.32zm0 31.976a12.658 12.658 0 1 1 12.788-12.656 12.74 12.74 0 0 1-12.788 12.656zm77.494-31.976a19.32 19.32 0 1 0 0 38.638 19.545 19.545 0 0 0 12.787-4.743V44h6.731V25.961a19.441 19.441 0 0 0-19.518-19.32zm0 31.976a12.658 12.658 0 1 1 12.787-12.656 12.739 12.739 0 0 1-12.787 12.656zm-103.15-9.324h3.069a19.187 19.187 0 0 0 .3-3.332 19.52 19.52 0 1 0-19.519 19.318 19.533 19.533 0 0 0 18.549-13.312h-7.3a12.824 12.824 0 0 1-23.576-2.674h28.478zM148.423 13.3a12.781 12.781 0 0 1 12.325 9.327H136.1a12.781 12.781 0 0 1 12.323-9.327zm144.415 1.578a4.12 4.12 0 1 1 4.162-4.12 4.145 4.145 0 0 1-4.162 4.121zm0-7.143a3.023 3.023 0 1 0 3.054 3.023 3.042 3.042 0 0 0-3.054-3.022zm-1.43 1.144h1.626a1.425 1.425 0 0 1 1.036.358 1.1 1.1 0 0 1 .305.805v.009a1.094 1.094 0 0 1-.763 1.092l.869 1.255h-.914l-.762-1.124h-.615V12.4h-.782V8.88zm1.574 1.711a.516.516 0 0 0 .6-.5v-.01a.514.514 0 0 0-.615-.5h-.777v1.012h.792z" fill="#000" fill-rule="evenodd"></path>
</svg>