<svg xmlns="http://www.w3.org/2000/svg" alt="Springfree Trampoline" class="navbar-brand__logo" viewBox="0 0 184 33" fill="none" focusable="false"><title>springfree</title>
<path fill-rule="evenodd" clip-rule="evenodd" d="M68.0925 3.53101C67.801 4.54783 67.1885 5.44315 66.3466 6.08346C65.5046 6.72376 64.4782 7.07473 63.4205 7.08401C61.2655 7.08401 59.8605 5.51801 60.2805 3.55501C60.5734 2.53882 61.1861 1.64413 62.0277 1.00373C62.8693 0.363327 63.895 0.011343 64.9525 1.18255e-05C67.1115 -0.00498787 68.5185 1.57601 68.0925 3.53101ZM123.188 7.872C123.172 7.872 123.125 7.84525 123.053 7.80431C122.579 7.53281 121.012 6.63726 120.176 8.781L120.076 9.022L121.746 9.017L120.514 12.367L119.003 12.374L114.803 24.255H107.218L111.296 12.317H109.326L110.437 9.052L112.437 9.046L112.463 8.924C114.163 3.898 118.601 2.34 122.514 2.324C123.468 2.3115 124.419 2.44436 125.334 2.718L123.188 7.872ZM93.4645 31.172C100.265 31.112 103.111 27.21 104.174 24.072C106.792 16.347 109.2 8.929 109.2 8.929H102.024L101.159 11.186C101.142 11.1643 101.125 11.1422 101.109 11.1195L101.053 11.0443L101.052 11.0436C100.431 10.2041 99.4121 8.82872 95.4835 8.841C94.1979 8.74648 92.9112 9.01119 91.7673 9.60558C90.6234 10.2 89.6672 11.1006 89.0055 12.207C87.522 14.9318 86.4982 17.8828 85.9755 20.941C85.9375 22.531 86.4775 24.245 90.2695 24.231C92.8105 24.3319 95.3072 23.5437 97.3295 22.002C97.3665 21.977 97.4215 21.966 97.4055 22.022C97.3291 22.2413 97.2413 22.5193 97.1501 22.8087L97.1499 22.8093C96.9715 23.375 96.7794 23.9841 96.6305 24.283C94.4985 29.503 87.9785 28.695 86.2785 28.172C86.2785 28.172 86.6645 31.232 93.4645 31.172ZM95.6869 14.7693C95.9501 14.0968 96.6675 12.264 98.3915 12.264C99.4075 12.261 100.067 13.436 100.154 14.335L99.0995 17.196L98.6925 18.174C98.3725 18.986 96.5425 20.749 95.3185 20.755C93.4035 20.759 94.0435 18.597 94.2885 18.106L95.6275 14.918C95.6441 14.8788 95.6637 14.8285 95.6869 14.7693ZM83.4565 24.255H75.3805L78.1245 16C78.3245 15.469 79.0495 13.309 77.1365 13.315C75.9165 13.315 74.0025 15.076 73.7225 15.933L70.9005 24.255L62.9585 24.261L66.7155 13.306L67.8585 8.93302H75.9755L75.3755 11.278C77.4674 9.65068 80.0625 8.80625 82.7115 8.89102C86.5055 8.87602 86.9115 10.675 86.9195 12.224C86.9205 12.223 86.8905 13.804 83.4565 24.255ZM37.0316 20.771C36.3579 21.8751 35.3937 22.7727 34.2444 23.3658C33.095 23.9589 31.8047 24.2247 30.5145 24.134C26.6205 24.146 25.5306 22.783 24.9056 21.958C24.8846 21.925 24.8055 21.969 24.8055 21.969L21.7276 31.138L14.3416 31.161L20.0106 14.011L20.9626 8.93202H28.2626L28.3786 11.407L28.4785 11.38C30.5117 9.72863 33.0715 8.86458 35.6896 8.94602C39.4826 8.93402 39.9346 10.689 39.9396 12.278C39.9516 13.908 38.0876 19.18 37.0316 20.771ZM30.7676 12.471C30.0264 12.5927 29.3212 12.8762 28.7021 13.3014C28.083 13.7266 27.5652 14.283 27.1856 14.931L26.1746 17.951C25.8916 18.766 26.4666 20.558 27.6886 20.602C29.5686 20.715 30.4606 18.595 30.6586 18.063L31.6315 15.199C31.6436 15.1594 31.6594 15.111 31.6776 15.0553L31.6777 15.055L31.6778 15.0549C31.9048 14.3606 32.5019 12.5346 30.7676 12.467V12.471ZM154.155 20.533C154.155 20.533 141.489 24.103 143.355 17.303L155.709 17.264C160.334 8.27303 147.648 8.31203 147.648 8.31203C139.081 8.33503 135.057 14.306 135.073 17.735C135.087 23.567 141.87 24.192 144.555 24.311C151.688 24.068 154.155 20.533 154.155 20.533ZM143.792 15.426C144.478 11.874 147.171 11.866 147.171 11.866V11.865C147.171 11.865 150.76 11.856 149.016 15.41L143.792 15.426ZM54.9796 14.173C54.9796 14.173 49.1796 12.343 47.3586 17.383L45.0086 24.254H37.7526L41.5136 13.384L42.3826 8.93199H48.8606L48.8006 10.886L48.9316 10.894C50.0048 10.0843 51.1782 9.4168 52.4226 8.90799C53.8576 8.65377 55.3269 8.66326 56.7586 8.93599L54.9796 14.173ZM58.1975 8.93501L57.0925 13.335L53.2455 24.272L60.8005 24.246L66.1805 8.93501H58.1975ZM12.3738 13.3621C12.411 13.5724 12.4006 13.7883 12.3435 13.994C13.7542 13.9896 14.8758 13.9801 15.8391 13.972H15.8392H15.8393H15.8394H15.8394C17.0345 13.9619 17.9861 13.9539 18.9445 13.96C19.6965 10.58 16.4355 9.00901 10.2445 9.02801C8.46694 9.0302 6.69981 9.29989 5.00251 9.82801C4.93563 9.8505 4.86625 9.8736 4.79466 9.89743C3.12157 10.4545 0.245701 11.412 0.0165069 14.263C-0.252149 17.8457 2.80985 18.1763 5.45976 18.4625C7.48519 18.6813 9.26987 18.874 9.14251 20.473C8.61851 23.805 0.665507 21.899 0.665507 21.899C1.11751 23.347 3.22351 24.835 7.94251 24.821C13.2445 24.804 17.0275 21.876 17.2555 18.836C17.4155 16.727 15.2265 15.867 12.8265 15.582C12.0627 15.5033 11.2784 15.3806 10.5035 15.2593L10.5035 15.2593C10.1461 15.2034 9.79083 15.1478 9.44051 15.097L9.41092 15.0939C9.0497 15.0566 8.02851 14.9512 8.02851 13.988C8.02851 12.583 9.42851 12.332 9.92851 12.33C9.96242 12.3299 10.0001 12.3295 10.0411 12.3291C10.6039 12.3239 11.7789 12.3129 12.1285 12.779C12.2528 12.9526 12.3366 13.1519 12.3738 13.3621ZM135.804 13.67C135.804 13.67 129.867 12.239 128.051 17.276L125.677 24.214L118.41 24.237L122.204 13.279L123.078 8.87103L129.554 8.85303L129.493 10.783H129.627C130.736 10.0307 131.902 9.36667 133.116 8.79703C134.575 8.4185 136.09 8.29502 137.592 8.43202L135.804 13.67ZM176.072 20.533C176.072 20.533 163.406 24.103 165.272 17.303L177.627 17.264C182.251 8.27303 169.566 8.31203 169.566 8.31203C160.999 8.33503 156.975 14.306 156.991 17.735C157.004 23.567 163.787 24.192 166.472 24.311C173.605 24.068 176.072 20.533 176.072 20.533ZM165.708 15.426C166.394 11.874 169.087 11.866 169.087 11.866V11.865C169.087 11.865 172.677 11.856 170.932 15.41L165.708 15.426ZM183.199 8.50699C183.21 8.88103 183.108 9.2496 182.907 9.56551C182.707 9.88142 182.417 10.1303 182.074 10.2803C181.731 10.4303 181.351 10.4746 180.983 10.4075C180.615 10.3404 180.275 10.165 180.007 9.90375C179.74 9.64246 179.556 9.3072 179.48 8.94085C179.403 8.57451 179.438 8.19376 179.58 7.84734C179.721 7.50092 179.963 7.20458 180.274 6.99627C180.584 6.78795 180.95 6.67713 181.324 6.67799C181.568 6.67308 181.81 6.71669 182.037 6.8063C182.264 6.8959 182.47 7.0297 182.645 7.19991C182.819 7.37012 182.958 7.57334 183.054 7.79774C183.149 8.02214 183.198 8.26323 183.199 8.50699ZM179.909 8.50699C179.903 8.69768 179.935 8.88758 180.005 9.06534C180.074 9.24309 180.178 9.40505 180.312 9.54153C180.445 9.67801 180.604 9.78621 180.781 9.85965C180.957 9.9331 181.146 9.97028 181.336 9.96899C181.711 9.94792 182.063 9.78402 182.319 9.51112C182.576 9.23821 182.719 8.8771 182.717 8.50229C182.716 8.12748 182.57 7.76756 182.311 7.49677C182.052 7.22598 181.699 7.06498 181.324 7.04698C181.135 7.04772 180.948 7.08631 180.773 7.16049C180.599 7.23467 180.441 7.34295 180.309 7.47897C180.177 7.61498 180.074 7.77599 180.005 7.95253C179.936 8.12907 179.903 8.31758 179.909 8.50699ZM181.035 9.46698H180.611V7.63799C180.842 7.59702 181.077 7.57827 181.311 7.58199C181.532 7.56428 181.753 7.61082 181.947 7.71599C182.005 7.76517 182.051 7.82661 182.082 7.89583C182.113 7.96504 182.128 8.04026 182.125 8.11598C182.118 8.21835 182.076 8.31526 182.008 8.39172C181.939 8.46819 181.847 8.51994 181.746 8.53899V8.56199C181.838 8.59893 181.917 8.66011 181.976 8.7389C182.035 8.81769 182.071 8.9111 182.081 9.00899C182.099 9.16826 182.145 9.32317 182.215 9.46698H181.758C181.687 9.32606 181.638 9.17541 181.611 9.01999C181.579 8.81999 181.467 8.73098 181.232 8.73098H181.033L181.035 9.46698ZM181.046 8.42999H181.246C181.48 8.42999 181.671 8.35199 181.671 8.16199C181.671 7.99399 181.548 7.88299 181.279 7.88299C181.201 7.88147 181.123 7.88851 181.046 7.90399L181.046 8.42999ZM151.047 29.176C151.047 31.35 149.726 32.504 148.112 32.504C147.71 32.4979 147.312 32.4079 146.946 32.2398C146.58 32.0716 146.253 31.8289 145.985 31.5273C145.718 31.2256 145.517 30.8716 145.394 30.4878C145.271 30.1039 145.23 29.6987 145.272 29.298C145.272 27.291 146.519 25.979 148.206 25.979C149.931 25.979 151.047 27.303 151.047 29.176ZM146.147 29.276C146.147 30.626 146.878 31.835 148.163 31.835C149.448 31.835 150.189 30.644 150.189 29.21C150.189 27.954 149.532 26.642 148.173 26.642C146.814 26.642 146.144 27.892 146.144 29.279L146.147 29.276ZM114.618 26.166C115.135 26.0742 115.66 26.0303 116.184 26.035C116.837 25.9686 117.49 26.1531 118.011 26.551C118.175 26.7039 118.305 26.89 118.391 27.097C118.477 27.3039 118.518 27.5269 118.511 27.751C118.516 28.113 118.402 28.4666 118.187 28.7578C117.972 29.049 117.668 29.2619 117.32 29.364V29.392C117.574 29.5041 117.793 29.681 117.956 29.9048C118.119 30.1287 118.22 30.3916 118.249 30.667C118.36 31.2584 118.523 31.8387 118.736 32.401H117.892C117.706 31.9121 117.564 31.4069 117.47 30.892C117.283 30.02 116.945 29.692 116.205 29.664H115.436V32.401H114.62L114.618 26.166ZM115.434 29.044H116.267C117.139 29.044 117.693 28.566 117.693 27.844C117.693 27.029 117.102 26.672 116.24 26.663C115.97 26.6549 115.699 26.6801 115.434 26.738V29.044ZM109.23 26.777H107.308V26.083H111.987V26.777H110.058V32.402H109.233L109.23 26.777ZM122.002 32.401L122.658 30.414H124.899L125.574 32.401H126.446L124.29 26.082H123.306L121.159 32.401H122.002ZM124.111 27.958L124.73 29.777H122.826L123.445 27.948C123.564 27.564 123.67 27.18 123.764 26.805H123.783L123.804 26.8834L123.804 26.8835L123.804 26.8836L123.804 26.8836L123.804 26.8837L123.804 26.8838C123.891 27.2242 123.982 27.5756 124.111 27.958ZM134.591 29.627C134.544 28.746 134.491 27.686 134.497 26.899H134.469C134.254 27.64 133.991 28.437 133.669 29.299L132.553 32.364H131.934L130.912 29.355C130.612 28.465 130.359 27.649 130.181 26.899H130.162C130.143 27.687 130.097 28.746 130.04 29.693L129.871 32.403H129.093L129.534 26.084H130.577L131.655 29.14C131.917 29.918 132.133 30.612 132.292 31.268H132.32C132.479 30.631 132.704 29.937 132.985 29.14L134.11 26.084H135.151L135.544 32.403H134.744L134.591 29.627ZM140.295 26.035C139.771 26.032 139.248 26.0728 138.73 26.157V32.4H139.545V29.869C139.761 29.9132 139.981 29.932 140.201 29.925C140.553 29.9454 140.906 29.8944 141.238 29.7752C141.57 29.6559 141.874 29.4708 142.132 29.231C142.299 29.0497 142.428 28.8371 142.512 28.6055C142.596 28.3739 142.633 28.128 142.62 27.882C142.63 27.6347 142.586 27.3882 142.49 27.1599C142.395 26.9315 142.25 26.7268 142.067 26.56C141.561 26.1739 140.931 25.9871 140.295 26.035ZM140.22 29.27C139.994 29.2763 139.767 29.2542 139.545 29.204V26.747C139.799 26.6964 140.057 26.6746 140.314 26.682C141.213 26.682 141.804 27.085 141.804 27.919C141.804 28.792 141.204 29.27 140.22 29.27ZM154.85 26.083H154.034V32.402H157.55V31.717H154.85V26.083ZM161.203 26.083V32.402H160.387V26.083H161.203ZM164.559 26.083V32.402H165.326V29.702C165.326 28.651 165.307 27.895 165.26 27.095L165.288 27.086C165.64 27.8121 166.034 28.5164 166.47 29.195L168.477 32.402H169.301V26.083H168.533V28.727C168.533 29.714 168.551 30.483 168.626 31.327L168.607 31.336C168.275 30.6275 167.896 29.9417 167.473 29.283L165.448 26.083H164.559ZM175.925 29.44H173.469V31.717H176.206V32.402H172.655V26.083H176.067V26.767H173.467V28.767H175.925V29.44Z" fill="#0088CE"></path></svg>