<svg xmlns="http://www.w3.org/2000/svg" width="141" height="24" fill="none" viewBox="0 0 141 24" class="logo header__heading-logo">
            <g fill="currentColor" clip-path="url(#a2)">
              <path d="M17.083.07 23.23.035v.399h-3.147V23.53h3.294v.398h-9.518v-.398h3.467V1.408c-.438 1.652-1.1 4.12-1.985 7.401a850.493 850.493 0 0 1-2.773 10.02c-.963 3.4-1.503 5.1-1.618 5.1-.086 0-.435-1.015-1.046-3.045-.612-2.03-1.385-4.701-2.324-8.012-.937-3.311-1.634-5.78-2.09-7.41-.455-1.63-.81-2.908-1.064-3.833v20.343c0 .396.133.706.398.93.266.225.601.379 1.009.465.407.085.826.133 1.258.141.433.01.761.016.987.023l.035.469-7.965-.07v-.4c2.335 0 3.502-.53 3.502-1.593l.034-19.98c0-.46-.189-.787-.567-.978C2.74.787 2.293.665 1.777.612 1.261.558.669.499 0 .435v-.4h7.048l4.75 17.945h.216L17.084.07ZM30.32.034h16.816v8.012h-.277a80.967 80.967 0 0 0-.294-2.634 10.525 10.525 0 0 0-.445-1.82 5.096 5.096 0 0 0-.99-1.766c-.438-.504-1.008-.848-1.712-1.031-.967-.242-2.09-.363-3.362-.363-.19 0-.594.006-1.21.018a91.27 91.27 0 0 1-1.729.018l-.493.106v10.084c.461 0 1.017.004 1.665.013l1.482.022c.635 0 1.104-.28 1.41-.84.305-.561.519-1.219.644-1.974.124-.756.244-1.497.359-2.223l.172.036v10.8h-.208c-.087-.643-.165-1.23-.234-1.757a10.32 10.32 0 0 0-.311-1.518 2.94 2.94 0 0 0-.652-1.208c-.298-.321-.691-.482-1.18-.482h-3.147V23.46c.335 0 .839.012 1.513.036.674.023 1.185.035 1.53.035 1.13 0 2.131-.124 3.005-.371.873-.249 1.655-.718 2.347-1.408.46-.455.831-.958 1.11-1.51.28-.552.485-1.098.615-1.638.13-.54.237-1.154.324-1.842l.25-1.97h.208v9.172l-17.385.035v-.47h3.293l.32-.398V.574c-.386-.07-.952-.118-1.698-.141a58.86 58.86 0 0 0-1.734-.035V.034h-.001ZM61.52 0c1.337 0 2.442.24 3.315.718.874.478 1.636 1.192 2.287 2.142.784-.578 1.478-1.399 2.083-2.461l.035 8.631-.173-.08c-.369-1.504-.673-2.64-.911-3.408-.239-.767-.635-1.554-1.185-2.359-.55-.805-1.292-1.456-2.226-1.952-1.05-.577-2.04-.868-2.975-.868-.53 0-1.026.083-1.487.249-1.389.554-2.25 1.257-2.585 2.107-.328.803-.493 1.431-.493 1.886 0 .537.177.971.528 1.302 1.02 1.028 2.282 1.936 3.786 2.727 1.504.79 2.963 1.558 4.375 2.302 1.411.744 2.5 1.608 3.264 2.593.763.986 1.145 2.302 1.145 3.95 0 .384-.012.684-.034.903-.197 2.184-1.34 3.827-3.433 4.93a5.389 5.389 0 0 1-2.62.655c-1.487 0-2.894-.495-4.219-1.487a5.785 5.785 0 0 1-.877-.792 19.6 19.6 0 0 1-.679-.766c-.415.324-.848.813-1.297 1.465-.45.652-.784 1.167-1.003 1.545v-9.608h.242A16.54 16.54 0 0 0 57.4 18.1a10.794 10.794 0 0 0 1.99 3.206 7.307 7.307 0 0 0 3.02 2.04c.59.218 1.19.328 1.807.328 1.412 0 2.59-.507 3.536-1.523a5.02 5.02 0 0 0 1.025-1.536c.262-.598.394-1.184.394-1.756 0-.679-.214-1.249-.64-1.709-.611-.661-1.559-1.337-2.844-2.027a339.007 339.007 0 0 1-4.35-2.382c-1.613-.897-2.86-1.866-3.739-2.903-.88-1.04-1.318-2.276-1.318-3.71 0-.998.236-2.086.708-3.267C57.68 1.154 59.19.201 61.518 0h.002ZM75.988 0h9.632v.399h-3.328l-.035 9.826h9.062V.469L87.956.434V.071l4.457-.004c1.892-.003 3.643-.013 5.253-.032V.47h-3.51v23.062h3.613v.398h-9.813l-.034-.398h3.398V10.765h-9.027V23.53h3.328v.434h-9.527v-.434h3.328V.399h-3.398L75.99 0h-.002ZM124.435.07v.256c-2.024.183-3.64 1.027-4.85 2.532-.507.614-1.245 1.513-2.213 2.7a191.026 191.026 0 0 0-2.18 2.709l6.942 15.263h2.87l-.034.434c-3.919 0-6.954-.012-9.104-.036v-.398h2.87l-5.455-12.696-2.438 2.975v9.72h3.502v.4h-9.657v-.4h3.467V.434h-3.433V.034h9.804v.399l-3.683.035V12.72l8.067-9.862c.213-.249.32-.561.32-.939 0-.378-.124-.719-.371-1.005a1.362 1.362 0 0 0-.933-.482h-1.557V.034c.917.007 2.22.013 3.913.022 1.692.01 3.077.013 4.154.013h-.001ZM131.344 0h9.657v.399h-3.328V23.53h3.328v.434h-9.657v-.434h3.215V.399h-3.215V0Z"></path>
            </g>
            <defs>
              <clipPath id="a2"><path fill="#fff" d="M0 0h141v24H0z"></path></clipPath>
            </defs>
          </svg>