<svg class="hidden logos" xmlns="http://www.w3.org/2000/svg">
	<defs>
		
				<symbol id="logo-def-primary" viewBox="0 0 60 60">
<path d="M58.5489 29.9537C58.5489 45.6994 45.7685 58.4512 30.004 58.4512C14.2394 58.4512 1.45898 45.6994 1.45898 29.9537C1.45898 14.2081 14.232 1.4563 29.9966 1.4563C45.7611 1.4563 58.5415 14.2155 58.5415 29.9537H58.5489Z" fill="white"></path>
<path d="M29.9963 59.9074C13.4543 59.9074 0 46.4682 0 29.9537C0 13.4393 13.4543 0 29.9963 0C46.5383 0 59.9926 13.4393 59.9926 29.9537C59.9926 46.4682 46.5383 59.9074 29.9963 59.9074ZM29.9963 2.90519C15.0611 2.90519 2.91003 15.0434 2.91003 29.9537C2.91003 44.864 15.0611 57.0023 29.9963 57.0023C44.9315 57.0023 57.0825 44.8714 57.0825 29.9537C57.0825 15.036 44.9389 2.90519 29.9963 2.90519Z" fill="white"></path>
<path d="M29.9964 57.8522C14.5873 57.8522 2.05859 45.337 2.05859 29.9536C2.05859 14.5701 14.5947 2.05493 29.9964 2.05493C45.3981 2.05493 57.9416 14.5701 57.9416 29.9462C57.9416 45.3222 45.4055 57.8448 29.9964 57.8448V57.8522ZM29.9964 5.02665C16.2311 5.02665 5.02786 16.2112 5.02786 29.9536C5.02786 43.6959 16.2311 54.8879 29.9964 54.8879C43.7617 54.8879 54.9649 43.7033 54.9649 29.9536C54.9649 16.2039 43.7691 5.02665 29.9964 5.02665Z" fill="black"></path>
<path d="M30.0482 8.84863L15.9941 35.7715L24.0356 49.3734H36.0534L44.0652 35.8085L30.0482 8.84863Z" fill="white"></path>
<path d="M30.0702 8.39014L15.831 35.8009L23.991 49.558H36.1494L44.302 35.8009L30.0702 8.39014ZM30.085 48.8336H24.4056C24.1983 48.4861 16.8973 36.1409 16.7048 35.8083C17.6156 34.0563 30.085 9.99427 30.085 9.99427V12.9068L36.1791 32.9918L30.085 45.7214V48.8262V48.8336ZM30.9292 45.9358L37.4379 32.3265L41.7992 36.5919L30.9218 45.9284L30.9292 45.9358Z" fill="black"></path>
<path d="M18.3784 36.592L29.2485 45.9359L22.7398 32.3267L18.3784 36.592Z" fill="black"></path>
<path d="M30.0926 45.7363V12.8774L23.9985 32.9994L30.0926 45.7363Z" fill="black"></path>
</symbol>
				<symbol id="logo-def-secondary" viewBox="0 0 165.09 42.72">
  				<path d="m46.07,0h-9.15c-5.15,0-8.21,1.29-8.21,6.72v5.55c0,5.44,3.06,6.72,8.21,6.72h9.15c5.15,0,8.21-1.28,8.21-6.72v-5.55c0-5.44-3.06-6.72-8.21-6.72Zm2.35,10.5c0,2.7-.57,3.72-3.27,3.72h-7.31c-2.7,0-3.27-1.03-3.27-3.72v-2c0-2.31.57-3.72,3.58-3.72h6.69c3.01,0,3.58,1.41,3.58,3.72v2ZM15.39,24.95c-.44-.37-.92-.64-1.45-.84-.53-.19-1.07-.29-1.61-.29s-1.07.1-1.61.29c-.53.19-1,.47-1.42.84-.44.38-.78.86-1.04,1.44-.26.57-.39,1.24-.39,1.98v9.81c0,.78.13,1.45.39,2.01.26.56.61,1.02,1.04,1.38.42.38.89.67,1.42.86.53.19,1.07.29,1.61.29s1.07-.1,1.61-.29c.53-.19,1.01-.48,1.45-.86.42-.37.76-.83,1.02-1.38.26-.56.39-1.23.39-2.01v-9.81c0-.75-.13-1.41-.39-1.98-.26-.57-.6-1.05-1.02-1.44Zm-1.25,13.23c0,.64-.18,1.12-.53,1.42-.36.3-.78.46-1.27.46s-.91-.15-1.27-.46c-.36-.3-.53-.78-.53-1.42v-9.81c0-.64.18-1.12.53-1.42.36-.3.78-.46,1.27-.46s.91.15,1.27.46c.36.3.53.78.53,1.42v9.81Zm30.54-.05c0,.66-.16,1.15-.47,1.46-.31.31-.7.47-1.17.47s-.86-.16-1.17-.47c-.31-.31-.47-.8-.47-1.46v-14.15h-2.66v14.41c0,.61.11,1.17.34,1.68.23.51.54.97.94,1.37.4.4.86.71,1.37.94.51.23,1.07.34,1.66.34s1.15-.11,1.67-.34c.52-.23.98-.54,1.38-.94.4-.4.71-.86.93-1.37.22-.51.33-1.07.33-1.68v-14.41h-2.66v14.15Zm31.61-24.11h-12.83V.21h-5.71v18.59h18.54v-4.78Zm-62.75,0L6.25.21H0l10.01,18.59h7.05L27.06.21h-6.25l-7.28,13.81Zm89.04-.62v-1.74h-5.71c0,2.31-.77,2.57-3.34,2.57h-6.1c-2.7,0-3.27-1.03-3.27-3.72v-2c0-2.31.57-3.72,3.57-3.72h6.22c1.7,0,2.68.39,2.68,1.72v.51h5.71c.05-5.26-1-7.01-9.13-7.01h-6.71c-5.15,0-8.21,1.29-8.21,6.72v5.55c0,5.44,3.06,6.72,8.21,6.72h9.21c5.74,0,6.87-2.46,6.87-5.6Zm52.21,13.08h3.08v16.08h2.66v-16.08h3.08v-2.51h-8.82v2.51Zm-86.7,0h3.08v16.08h2.66v-16.08h3.08v-2.51h-8.82v2.51Zm58.8,16.08h7.93v-2.66h-5.27v-5.45h4.59v-2.51h-4.59v-5.45h5.27v-2.51h-7.93v18.58ZM156.33.21l-6.46,11.96L143.41.21h-8.77v18.59h5.55V5.44h.05l7.49,13.35h4.27l7.48-13.35h.05v13.35h5.55V.21h-8.77Zm-25.14,12.07v-5.55c0-5.44-3.06-6.72-8.21-6.72h-9.15c-5.15,0-8.21,1.29-8.21,6.72v5.55c0,5.44,3.06,6.72,8.21,6.72h9.15c5.14,0,8.21-1.28,8.21-6.72Zm-5.87-1.77c0,2.7-.57,3.72-3.27,3.72h-7.31c-2.7,0-3.27-1.03-3.27-3.72v-2c0-2.31.57-3.72,3.57-3.72h6.69c3.01,0,3.58,1.41,3.58,3.72v2Zm-25,13.48h-2.66v18.58h7.93v-2.66h-5.27v-15.92Z"></path>
				</symbol>
      
	</defs>
</svg>