<svg xmlns="http://www.w3.org/2000/svg" width="1914" height="291" viewBox="0 0 1914 291" fill="#fff" class="svg logo replaced-svg">
    <path d="M1012.4 287c15.1-95.6 30.3-191.2 45.5-286.9h59.9c-5.9 37.4-11.8 74.7-17.7 112 10.5-7.7 21.6-15 34.2-19 12.1-3.9 25.2-4.9 37.9-3.6 9.5 1 19.4 4 26.5 10.8 6.6 6.2 9.9 15.1 11.1 23.8 1.7 12.4.3 24.8-1.7 37-6.6 42-13.3 83.9-20 125.9h-60.2c6.1-38.9 12.2-77.7 18.3-116.6 1-6.8 2.6-13.5 2.7-20.4 0-4.6-1.2-10-5.4-12.5-4.7-2.7-10.3-2-15.4-1.8-12.7.8-25.1 6.4-33.8 15.5-7.4 45.2-14.4 90.5-21.6 135.8h-60.3zM1519 21c19.8-6.6 41-4.9 61.5-3.7 24.1 1.8 48.2 4.1 71.9 8.3-1.3 8.9-2.7 17.9-4.1 26.8-32.1-.7-64.2-2.5-96.3-3.5-8.1-.1-16.6.4-24 4-6 2.8-10.5 8.1-13.2 14-4.4 9.5-5.1 20.1-6.8 30.3-1.4 9.8-3.8 20.1-1 29.9 1.5 5.6 6.6 9.5 12.2 10.4 9.2 1.5 18.5.7 27.8.9h40c11.7.2 23.9 3 33 10.8 7.7 6.5 12.3 16.1 14.1 25.9 2.2 11.5 1 23.3-.9 34.8-1.9 11.7-2.6 23.7-6.3 35.1-4.4 14.3-14 27.3-27.2 34.6-15.3 8.8-33.3 10.2-50.4 11.4h-7.7c-29.5-1.9-59.2-3.6-88.2-9.9 1.4-9 2.7-18.1 4.1-27.2 30.4 3.1 61 3.6 91.5 3.7 12.1 0 24.8-1.6 34.9-8.7 7.2-5 11.5-13.2 12.7-21.7 1.5-10.1 3.5-20.1 4.6-30.2.5-6.4.4-13.9-4.4-18.8-4.9-4.9-12.3-5.7-18.9-5.9-16-.1-32 0-47.9 0-14.7 0-30.3-2-42.4-10.9-7.8-5.6-12.9-14.3-14.9-23.5-2.6-11.3-1.6-22.9.2-34.2 2.9-18.2 4.2-37.3 13-53.9 6.6-13.5 18.7-24.1 33.1-28.8zM297.2 18.2c15-.2 29.9 0 44.8-.1 2.7 0 5.9-.2 7.9 2.1 2.1 2.4 1.7 5.8 1.3 8.7-2 12.3-3.7 24.7-5.8 36.9-.7 4.4-5 7.4-9.3 7.2-14.7.1-29.4 0-44.2 0-2.4 0-5.2 0-7.1-1.8-2.1-1.8-2.4-4.7-2-7.2 2-12.5 3.8-25.1 5.8-37.6.6-4.3 4.3-7.9 8.6-8.2zm965.7.3c11.4 0 22.8.1 34.2 0-7 45.8-14.4 91.5-21.6 137.3-2.5 16.7-5.8 33.3-6.2 50.2-.1 9.9.5 20.1 4.4 29.4 2.9 7.1 8.4 13.1 15.4 16.5 9.8 4.7 21.1 5.5 31.9 5.5 15.5.1 31.8-2.4 44.6-11.7 12.3-8.8 19.7-22.7 24.4-36.8 6.8-20.3 8.7-41.7 12.3-62.6 6.8-42.6 13.5-85.2 20.2-127.8h34.4c-7.8 50.7-15.6 101.4-23.5 152.1-2.9 19.8-6.7 39.8-14.4 58.5-6.1 15.1-15.3 29.4-28.2 39.7-14.1 11.5-31.9 17.6-49.7 20-8.7 1-17.4 2.1-26.1 2-17.7-1.1-36.3-3.3-51.4-13.3-12.9-8.3-21.4-22.2-25.1-36.9-5.4-21.5-3.8-43.9-.5-65.6 8.3-52.1 16.6-104.3 24.9-156.5zm-1219.7.4H183c16.8.2 34.7 4 47.6 15.4C242.5 44.7 248 60.6 248.7 76c.7 17.4-2.2 35.7-12.5 50.1-7.9 11.6-20.6 19.8-34.5 21.9 12.2 2.6 22 11.9 27.1 23 7.9 16.5 7.7 35.5 4.2 53.1-3.2 16.5-8.7 33.7-21.4 45.5-8.3 7.8-19.3 12.2-30.4 14.5-15.8 3.3-32.1 3.3-48.3 3.3H.2C9 232.3 17.8 177.2 26.7 122.1H161c7.1.1 14.3-2.7 19.1-8.1 5.6-6.2 7.6-14.8 8-23.1.2-5.3-.8-11.3-4.8-15.2-3.7-3.7-9.2-4.8-14.3-4.8H34.9c2.8-17.4 5.6-34.7 8.3-52m27.2 152.5c-3.4 21.3-6.7 42.6-10.1 64H146c6.9-.1 14-2.5 18.7-7.7 6.5-6.9 8.9-16.5 10.2-25.7 1-7.8 1-16.5-3.6-23.3-3.5-5.3-10.2-7.4-16.3-7.3H70.4zm443.4-98c3-18.3 5.9-36.5 8.9-54.8h202.8c-2.9 18.3-5.9 36.5-8.8 54.8h-72.4c-11.2 71.2-22.5 142.4-33.7 213.6h-60.3c11.2-71.2 22.5-142.4 33.7-213.6h-70.2zm1235.1-3.5c8.9-17.1 17.6-34.4 26.8-51.5 11.9.2 23.8.1 35.8.1l50.1 270c-11.6 0-23.2.1-34.8-.1-4.3-23.7-8.8-47.3-13.3-70.9h-103.4c-12.3 23.7-24.6 47.3-36.9 71h-37.5c37.7-72.9 75.5-145.7 113.2-218.6M1726.4 185h82c-7-40.1-14-80.1-21-120.2-20.3 40.1-40.7 80.1-61 120.2zm123.2-166.5h26.2c0 .9-.1 2.7-.1 3.6h-11.2v31.6c-1 0-3 0-4 .1V22.1h-10.9v-3.6zm28.8 35.3c.8-11.8 1.6-23.5 2.4-35.3h5.4c3.3 9.6 6.4 19.3 9.9 28.8 3.3-9.6 6.3-19.2 9.6-28.8h5.2c1 11.7 2 23.5 2.9 35.3-1 0-2.9-.1-3.9-.1-.8-9.4-1.5-18.8-2.3-28.3-3.2 9.5-6.3 18.9-9.5 28.4h-4c-3.3-9.5-6.5-19-9.8-28.4-.6 9.4-1.3 18.9-2 28.3-1 0-2.9.1-3.9.1z"></path><path d="M739.1 87.9c19.9-1.5 40.5-1.5 59.9 4.1 12.7 3.8 25.3 11.2 31.7 23.3 7.1 12.7 6.4 27.9 4.2 41.8-2.7 16.2-10.5 31.9-23.5 42.2-15.8 12.7-36.6 17.2-56.4 17.7-13.4.1-27-1.1-39.9-4.9-.9 7.1-2.2 15.3 2.1 21.7 4.8 6.3 13.6 6.8 20.9 7.3 27.4.9 54.8-1.9 81.8-6.3-2.4 14.2-4.9 28.4-7.3 42.7C778 288.6 741.1 291 705 287.9c-13.4-1.1-26.9-6.6-35.7-17.1-10.6-12.4-14.3-29-15.3-44.8-1.4-24.3 2.5-48.5 8.2-72 4.4-17.5 10.9-35.7 24.8-47.9 14.3-12.6 33.7-16.6 52.1-18.2m-8.5 54.7c-7.1 8.4-8.6 19.8-10.5 30.2 12.4 2 25.5 2.8 37.5-1.3 7.4-2.5 14-8.1 16.1-15.8 1.5-5.5 2.4-12.2-1.5-17-3.7-4.2-9.9-4.8-15.2-5.1-9.4-.5-20 1.4-26.4 9zM891.9 96c16.3-8.4 35.3-7.4 53.1-6.6 24.7 1.6 49.6 4.1 73.1 12-1.8 12.1-3.7 24.2-5.6 36.4-21.2-1.6-42.3-2.4-63.5-2.4-6.8.1-14 .1-20 3.5-6.3 3.5-9.8 10.2-12.3 16.7-4.2 11.2-6.3 22.9-8.4 34.6-1.6 10.5-3.3 21.1-2.8 31.8.4 6 1.7 12.8 7 16.5 5.6 3.9 12.9 3.9 19.5 4.1 22.4 0 44.8-1.2 67.1-3.2-1.9 12.1-3.8 24.2-5.8 36.3-6.2 3.2-13.1 5-19.8 6.9-21 5.7-42.9 6.4-64.5 6.5-9.9-.1-20.2.5-29.7-3.3-13.2-4.8-23-16.4-27.8-29.3-7.4-19.6-7.1-41-5-61.4 2.5-20.9 6.5-41.7 14.3-61.3 6.2-15.3 16-30.2 31.1-37.8zm-460.4-5.2c18.7-1.5 37.7-2.3 56 1.8 14 3 27.6 10.1 35.9 22 9.9 14.3 12 32.4 12 49.4-.5 21.1-3.7 42.2-9 62.6-4.8 17.7-12.7 35.8-28 46.9-16.5 11.8-37.5 14.2-57.2 15.1-21.3.8-43.9.6-63.2-9.7-12.9-6.7-22-19.5-25.6-33.5-4.6-17.6-3.5-36.1-1.2-53.9 2.9-19.4 6.5-38.9 14.4-56.9 5.4-12.5 13.8-24.2 25.5-31.5 12-7.8 26.4-10.9 40.4-12.3m9.1 46c-4.3.6-8.6 2-12 4.9-6.2 5.4-8.5 13.7-10.6 21.4-3.5 14.8-5.9 29.8-7.8 44.9-.8 8.7-2.1 18 1.6 26.3 3 6.4 10.9 7.8 17.3 8 7.9 0 16.2.7 23.7-2.4 6.6-2.8 10-9.7 12.1-16.2 3.9-12 5.8-24.5 7.8-37 1.6-11.5 3.6-23.1 2.5-34.7-.5-5.8-3.5-11.9-9.3-13.8-8.1-2.8-16.9-2.3-25.3-1.4zm-161-44.5c20.1 0 40.1-.1 60.2 0-10.2 64.9-20.5 129.8-30.8 194.7h-60.2c10.2-64.9 20.5-129.8 30.8-194.7z">
    </path>
</svg>