<svg class="site-logo" viewBox="0 0 149 24" fill="none" xmlns="http://www.w3.org/2000/svg">
      <title>Meermin Shoes logo</title>
      <path d="M0 0.0978394H0.320434L10.6407 11.6441L20.9609 0.0978394H21.2814V23.3515H17.5006V9.17866L10.8019 16.6689H10.4492L3.78264 9.17866V23.3515H0V0.0978394Z" fill="#010001"></path>
      <path d="M27.7867 0.648499H42.4016V4.02143H31.632V10.7673H41.1198V14.1402H31.632V19.9786H42.722V23.3515H27.7867V0.648499Z" fill="#010001"></path>
      <path d="M48.5562 0.648499H63.171V4.02143H52.4014V10.7673H61.8892V14.1402H52.4014V19.9786H63.4914V23.3515H48.5562V0.648499Z" fill="#010001"></path>
      <path d="M69.3237 0.648499H76.3107C81.7922 0.648499 85.0288 3.98881 85.0288 8.17332C85.0288 11.1568 83.4266 13.6548 80.5408 14.8866L85.9579 23.3515H81.6311L76.7904 15.6655H73.1689V23.3515H69.3237V0.648499ZM76.087 12.5516C79.4847 12.5516 81.1514 10.6387 81.1514 8.17332C81.1514 5.7079 79.4525 3.76242 76.087 3.76242H73.1689V12.5516H76.087Z" fill="#010001"></path>
      <path d="M91.3427 0.0978394H91.6632L101.983 11.6441L112.304 0.0978394H112.624V23.3515H108.841V9.17866L102.143 16.6709H101.79L95.1235 9.17866V23.3515H91.3408V0.0978394H91.3427Z" fill="#010001"></path>
      <path d="M119.577 0.648499H123.422V23.3515H119.577V0.648499Z" fill="#010001"></path>
      <path d="M134.192 8.95036V23.3496H130.409V0H130.762L145.217 15.2108V0.648493H149V24H148.647L134.192 8.95036Z" fill="#010001"></path>
    </svg>