<svg class="icon icon-logo transition-height duration-300 ease-in-out" width="1416" height="110" viewBox="0 0 1416 110" fill="none" xmlns="http://www.w3.org/2000/svg"><path d="M0 1.21533H17.472V90.8073H62.4912V108.12H0V1.21533Z" fill="currentColor"></path><path d="M100.148 1.21533H163.532V18.3685H117.62V45.4693H154.509V62.3355H117.62V90.9348H163.532V108.088H100.148V1.21533Z" fill="currentColor"></path><path d="M206.148 1.21533H268.193V18.3685H223.62V45.4693H258.405V62.3356H223.62V108.12H206.148V1.21533Z" fill="currentColor"></path><path d="M326.321 18.3685H298.773V1.21533H371.499V18.3685H343.793V108.088H326.321V18.3685Z" fill="currentColor"></path><path d="M463.07 54.6479C463.07 23.7849 487.461 0 517.718 0C548.135 0 572.366 23.7849 572.366 54.6479C572.366 85.5109 548.135 109.296 517.718 109.296C487.461 109.296 463.07 85.5109 463.07 54.6479ZM554.607 54.6479C554.607 33.2543 538.793 16.5474 517.718 16.5474C496.643 16.5474 480.829 33.2543 480.829 54.6479C480.829 76.0416 496.643 92.7485 517.718 92.7485C538.793 92.7485 554.607 76.0416 554.607 54.6479Z" fill="currentColor"></path><path d="M631.581 39.886V108.084H614.109V0L687.122 69.4099V1.21158H704.594V109.328L631.581 39.886Z" fill="currentColor"></path><path d="M811.238 1.21533H873.283V18.3685H828.71V45.4693H863.495V62.3356H828.71V108.12H811.238V1.21533Z" fill="currentColor"></path><path d="M940.27 62.6225H930.195V108.088H912.723V1.21533H947.348C967.211 1.21533 981.367 14.0005 981.367 31.9189C981.367 45.7562 972.95 56.756 959.4 60.9645L993.419 108.088H972.504L940.27 62.6225ZM945.722 47.4142C957.774 47.4142 963.64 41.5476 963.64 32.5247C963.64 23.3423 957.774 17.3164 945.722 17.3164H930.227V47.4461H945.722V47.4142Z" fill="currentColor"></path><path d="M1030.5 1.21533H1047.97V108.12H1030.5V1.21533Z" fill="currentColor"></path><path d="M1095.86 1.21533H1129.75C1161.67 1.21533 1185.77 24.3945 1185.77 54.6517C1185.77 84.9089 1161.67 108.088 1129.75 108.088H1095.86V1.21533ZM1129.72 91.8275C1152.77 91.8275 1167.95 75.7265 1167.95 54.6517C1167.95 33.5768 1152.74 17.4758 1129.72 17.4758H1113.3V91.8594H1129.72V91.8275Z" fill="currentColor"></path><path d="M1261.33 0L1313.59 108.116H1294.78L1283.65 84.3313H1238.92L1227.76 108.116H1209.11L1261.33 0ZM1246.44 68.3578H1276.1L1261.33 36.7296L1246.44 68.3578Z" fill="currentColor"></path><path d="M1359.09 63.0662L1319.81 1.18066H1340.28L1367.82 45.3072L1395.37 1.18066H1416L1376.56 63.0662V108.085H1359.09V63.0662Z" fill="currentColor"></path></svg>