<svg class="icon-logo" width="259" role="presentation" aria-hidden="true" height="18" viewBox="0 0 259 18" xmlns="http://www.w3.org/2000/svg"><g fill="none" fill-rule="evenodd"><path d="M81.897 12.281l1.318-1.547 4.042 6.938h5.221l-6.26-10.5L91.97.328h-5.36L81.897 6.61V.328h-4.62v17.344h4.62v-5.39zM71.085.328h-4.228v9.727h-.045L60.552.328H56v17.344h4.228V7.97h.046l6.538 9.703h4.273V.328zm26.384 17.344h4.62V.328h-4.62v17.344zm35.993-10.617c-1.686-.422-3.026-.844-3.026-1.992 0-.82.67-1.266 1.987-1.266 1.478 0 3.14 1.008 4.089 2.18l3.095-2.578C138.245 1.71 136.072 0 132.445 0c-3.881 0-6.514 1.946-6.514 5.484 0 3.938 3.72 4.665 6.514 5.391 1.687.422 3.05.844 3.05 1.945 0 1.078-1.063 1.501-2.471 1.501-1.78 0-3.466-.962-4.482-2.626l-3.42 2.157c1.456 2.367 3.789 4.148 7.693 4.148 5.267 0 7.185-2.742 7.185-5.508 0-3.89-3.743-4.757-6.538-5.437zm-12.452 6.843h-7.97v-3.211h5.405V7.032h-5.405V4.219h7.576V.33H108.42v17.343h12.59v-3.774zM0 17.672h4.62v-6.328h5.012V7.687H4.62V4.22h7.184V.33H0v17.343zm41.168-6.562l1.64-4.805h.046l1.572 4.805h-3.258zM45.118.258h-4.296l-6.053 17.414h4.204l1.109-3.235h5.383l1.04 3.235h4.666L45.118.258zM23.264 8.086h-1.987v-3.96h1.987c1.893 0 2.726.515 2.726 1.968 0 1.453-.833 1.992-2.726 1.992zm7.23-2.109c0-4.172-2.679-5.649-7.069-5.649H16.75v17.344h4.528V11.65h1.27l3.303 6.023h4.898l-3.627-6.632c2.24-.774 3.374-2.344 3.374-5.063zM201.9 17.672h4.61V.328h-4.61v17.344zM196.412.328h-5.347l-4.704 6.281V.328h-4.61v17.344h4.61V12.28l1.315-1.547 4.034 6.938h5.21l-6.248-10.5 5.74-6.844zm27.249 9.726h-.046L217.368.328h-4.542v17.344h4.22V7.968h.044l6.525 9.704h4.264V.328h-4.218v9.726zm10.535 7.618h4.61V.328h-4.61v17.344zm18.28-10.617c-1.682-.422-3.02-.845-3.02-1.992 0-.822.67-1.266 1.983-1.266 1.476 0 3.135 1.008 4.08 2.179l3.09-2.578C257.247 1.711 255.08 0 251.461 0c-3.873 0-6.5 1.946-6.5 5.484 0 3.937 3.71 4.664 6.5 5.391 1.683.422 3.043.844 3.043 1.945 0 1.078-1.06 1.5-2.467 1.5-1.775 0-3.458-.96-4.472-2.625l-3.412 2.156c1.452 2.367 3.781 4.149 7.677 4.149 5.255 0 7.169-2.743 7.169-5.507 0-3.892-3.734-4.759-6.523-5.438zm-94.652 7.1h-2.306v-3.678h2.26c1.751 0 2.511.608 2.511 1.804 0 1.195-.737 1.875-2.465 1.875zm-2.306-10.24h2.237c1.612 0 2.234.632 2.234 1.664 0 1.007-.622 1.663-2.28 1.663h-2.19V3.914zm5.624 4.686v-.047c1.706-.328 3.228-1.453 3.228-3.96 0-3.82-3.366-4.266-6.202-4.266H151v17.344h7.446c2.88 0 6.338-1.032 6.338-4.805 0-2.883-1.566-3.89-3.642-4.266zm9.683 9.07h4.61V.329h-4.61v17.344z" fill="#231F20"></path></g></svg>