<svg class="default-logo" width="296" height="119" viewBox="0 0 296 119" fill="none" xmlns="http://www.w3.org/2000/svg">
<path d="M15.4773 71.0167C14.9554 70.84 14.3851 70.8785 13.8915 71.1236C13.3978 71.3688 13.0213 71.8006 12.8446 72.3242C12.7489 72.6081 12.7147 72.9092 12.7441 73.2075C13.146 76.8483 14.1887 80.3119 15.2036 83.7337C16.0454 86.6652 17.334 88.7516 18.8166 91.471C20.3685 94.2947 22.1768 97.7304 24.0543 100.165C27.1096 104.136 30.6638 107.964 34.6509 110.757C39.7084 114.297 45.4692 116.223 51.805 117.315C53.4365 117.597 55.1062 118.313 56.814 118.539C58.0819 118.71 59.367 118.439 60.6764 118.439C64.5978 118.439 68.0237 117.58 71.6749 116.7C75.326 115.82 78.9217 115.253 82.2506 113.57C87.0241 111.153 90.9732 107.916 94.6867 104.045C96.5815 102.074 98.7223 99.9351 100.302 97.6608C102.664 94.2634 103.797 90.5599 105.197 86.6339C105.65 85.3681 106.482 84.0779 106.897 82.7669C107.923 79.5119 108.535 76.14 108.72 72.731C108.733 72.4697 108.695 72.2082 108.607 71.9616C108.52 71.715 108.385 71.4883 108.21 71.2944C108.034 71.1005 107.823 70.9432 107.587 70.8317C107.351 70.7202 107.096 70.6566 106.835 70.6446C106.654 70.6347 106.472 70.6511 106.295 70.6933C106.109 70.7304 105.919 70.7433 105.73 70.7315L103.246 70.5576C102.812 70.5144 102.373 70.5576 101.955 70.6847C101.537 70.8119 101.149 71.0204 100.811 71.2985C100.474 71.5766 100.194 71.9187 99.9885 72.3053C99.7828 72.692 99.655 73.1155 99.6126 73.5517C99.6126 73.6526 99.6126 73.7534 99.6126 73.8543C99.6024 75.2839 99.4633 76.7097 99.1969 78.1141C98.5491 81.2716 97.1184 84.3005 95.7328 87.1555C93.7548 91.2519 91.1464 95.3553 88.0253 98.5337C83.7679 102.867 78.558 105.808 72.6829 107.721C68.9001 108.952 64.861 109.23 60.6695 109.23C58.1615 109.23 55.8198 109.004 53.5301 108.91C51.7807 108.841 50.066 109.008 48.334 108.451C44.1771 107.123 39.9405 103.965 36.5804 101.336C32.5205 98.1651 29.3058 93.8635 26.7528 89.3428C25.6131 87.3189 25.0208 84.7978 24.2656 82.5722C23.3046 79.9504 22.5767 77.2483 22.0902 74.4976C21.7438 72.2581 19.7104 70.5229 17.4795 70.9019L16.468 71.0723C16.1376 71.1243 15.7999 71.1053 15.4773 71.0167Z" fill="#FFEFDC"></path>
<path d="M35.4442 70.5124C33.3103 70.3351 31.5817 72.0286 32.1048 74.1151C32.2468 74.6819 32.3923 75.2418 32.5205 75.8016C33.3657 79.4738 34.5608 82.9617 36.4834 86.0531C38.3297 89.002 40.2696 91.5857 42.9439 93.627C45.2094 95.3657 47.7243 96.0021 50.4124 97.0627C53.7137 98.3598 56.9214 99.4587 60.6799 99.4587C62.457 99.4587 64.2756 98.9614 66.0665 98.7145C69.4197 98.2589 72.6483 97.7234 75.3156 96.2177C78.7 94.2947 80.8893 91.2971 83.3141 88.1813C86.4734 84.1231 88.8566 79.2095 89.6153 73.8403C89.9028 71.8339 88.2296 70.1786 86.2205 70.1786H84.3568C82.3407 70.1786 80.7507 71.8269 80.4632 73.8334C80.2622 75.3077 79.8698 76.7492 79.2958 78.1211C78.8039 79.2686 77.8547 80.3745 77.2451 81.4107C76.2059 83.1877 75.3191 84.7734 73.8572 86.0531C71.3484 88.3104 68.2461 89.7963 64.9199 90.3338C63.5585 90.5355 62.1487 90.24 60.6903 90.24C57.1916 90.24 53.5197 89.7288 50.6618 88.1535C47.1077 86.1887 43.9554 83.0486 42.2441 79.2895C41.5318 77.6609 41.0727 75.9322 40.8828 74.1637C40.6264 72.0321 38.8459 70.3386 36.7259 70.5194L36.3795 70.5472C36.1755 70.5646 35.9703 70.5646 35.7663 70.5472L35.4442 70.5124Z" fill="#FFEFDC"></path>
<path d="M53.6548 70.1438C51.6491 70.1716 49.9794 71.8582 50.6549 73.7534C50.7358 73.9902 50.8295 74.2223 50.9355 74.4489C51.3343 75.3546 51.8541 76.2016 52.4805 76.9666C53.7587 78.5106 55.4595 79.3034 57.4064 79.9363C58.4456 80.284 59.5437 80.8404 60.6903 80.8404C62.8172 80.8404 64.4142 80.2145 66.0769 79.1365C67.6427 78.1211 69.4232 76.7023 70.3828 75.0296C70.6005 74.6473 70.777 74.2428 70.9093 73.823C71.5259 71.8895 69.6969 70.1821 67.6739 70.1821H66.6554L63.0182 70.5298C62.7465 70.5611 62.4722 70.5611 62.2006 70.5298L59.0137 70.1125C58.8404 70.0882 58.6655 70.0777 58.4906 70.0812L53.6548 70.1438Z" fill="#FFEFDC"></path>
<path d="M95.9683 65.4075H93.5434C92.5721 65.3944 91.6434 65.005 90.9514 64.3207C90.2594 63.6364 89.8576 62.71 89.8299 61.7353C89.7122 58.7864 89.3484 55.8862 88.2573 53.3616C86.3347 48.9105 82.8152 46.2641 78.9043 43.3674C73.7082 39.5005 67.5283 36.0926 60.6694 36.0926C58.6395 36.0926 56.6373 35.9014 54.687 36.2769C45.528 38.0365 37.5364 44.1499 33.6289 52.2001C31.9662 55.6254 31.5505 59.7253 31.4812 63.8078C31.4781 63.9181 31.463 64.0277 31.4362 64.1347C31.3444 64.4224 31.1795 64.6812 30.9578 64.8854C30.7361 65.0897 30.4652 65.2325 30.1718 65.2997C29.9466 65.3659 29.7135 65.401 29.479 65.404H25.3983C24.9434 65.4118 24.4914 65.3296 24.0681 65.162C23.6448 64.9945 23.2586 64.7448 22.9314 64.4274C22.6043 64.11 22.3426 63.731 22.1614 63.312C21.9802 62.893 21.883 62.4423 21.8753 61.9856C21.8753 61.9022 21.8753 61.8187 21.8753 61.7388C22.3222 55.8271 23.881 50.1623 26.7042 45.4296C29.9639 39.9595 34.9418 35.7553 40.4289 32.3996C43.5881 30.4626 47.0452 28.4701 50.7137 27.3955C53.8903 26.4636 57.2296 26.321 60.6729 26.321C72.3018 26.321 79.2715 29.5029 86.404 37.6192C88.673 40.1995 94.1323 44.9636 95.7327 48.0133C97.8735 52.0993 99.0721 56.8286 99.4635 61.7388C99.5195 62.6531 99.2116 63.5523 98.6076 64.2388C98.0035 64.9254 97.1527 65.3432 96.2419 65.4005C96.1588 65.4075 96.0653 65.4075 95.9683 65.4075Z" fill="#F6B8B6"></path>
<path d="M80.4146 62.4516C80.4736 62.7609 80.4911 63.0766 80.4666 63.3905C80.424 63.8617 80.2333 64.307 79.9219 64.6621C79.6105 65.0172 79.1947 65.2636 78.7345 65.3657C78.6066 65.3903 78.4768 65.4042 78.3466 65.4074L73.4033 65.5013C72.9234 65.34 72.4987 65.0459 72.1781 64.6527C71.8576 64.2595 71.6543 63.7834 71.5916 63.2793C71.505 62.7362 71.3741 62.2012 71.2002 61.6796C70.8984 60.7579 70.473 59.8816 69.9358 59.075C68.8966 57.5032 67.7015 55.9453 65.8863 55.229C64.3968 54.6309 62.3564 54.7108 60.6902 54.7108C58.5563 54.7108 56.471 55.7297 54.7078 56.7973C52.9446 57.8649 51.5901 58.9464 50.731 60.699C50.2974 61.6731 50.0698 62.727 50.0625 63.7939C50.0165 64.0235 49.9016 64.2334 49.7334 64.3955C49.4389 64.8024 49.0994 65.3901 48.6006 65.3935H44.5234C44.2314 65.3936 43.9409 65.3515 43.6609 65.2683C42.3445 64.8824 41.0767 63.707 41.0974 62.3334C41.1006 62.1078 41.132 61.8835 41.191 61.6657C41.5568 60.3483 42.0057 59.0556 42.535 57.7953C43.065 56.4982 43.3283 54.8778 44.0835 53.7337C45.5578 51.5749 47.4703 49.7534 49.6953 48.3889C51.4585 47.3282 53.045 46.9318 55.1546 46.3824C56.9178 45.9233 58.778 45.2974 60.6971 45.2974C63.8425 45.2974 66.7731 46.4137 69.3573 47.7108C71.4739 48.7749 73.3652 49.7555 74.9552 51.4108C76.8882 53.4207 78.3777 56.2374 79.313 59.0611C79.7079 60.2817 80.1306 61.1545 80.4146 62.4516Z" fill="#F6B8B6"></path>
<path d="M56.9663 4.24622C56.8388 3.96234 56.7685 3.65593 56.7594 3.34464C56.7503 3.03335 56.8026 2.72333 56.9134 2.43243C57.0241 2.14154 57.1911 1.87551 57.4047 1.64967C57.6183 1.42382 57.8743 1.24263 58.158 1.11652C58.3787 1.02155 58.6122 0.959462 58.8508 0.932219L61.622 0.605339C62.0286 0.55385 62.4413 0.586995 62.8345 0.702708C63.4516 0.87824 63.998 1.24453 64.396 1.74955C64.794 2.25457 65.0233 2.87264 65.0515 3.51596L65.1311 5.23034C65.1414 5.45222 65.131 5.67459 65.1 5.89453L64.615 9.4589C64.5872 9.6992 64.5872 9.94192 64.615 10.1822C64.6974 10.9772 64.462 11.7724 63.9605 12.3932C63.4591 13.014 62.7326 13.4095 61.9407 13.4927C61.8368 13.4927 61.7329 13.4927 61.629 13.4927H60.472C59.5014 13.4955 58.5693 13.1121 57.8798 12.4264C57.1903 11.7408 56.7995 10.8087 56.7931 9.83447C56.7931 9.71971 56.7931 9.60843 56.7931 9.48672L57.1569 5.36943C57.1878 4.98493 57.1223 4.59877 56.9663 4.24622Z" fill="#F6B8B6"></path>
<path d="M9.53286 56.8356C9.86275 56.8197 10.1925 56.8692 10.5033 56.9815C10.8141 57.0937 11.0998 57.2663 11.344 57.4895C11.5882 57.7127 11.7862 57.9821 11.9266 58.2822C12.0669 58.5823 12.147 58.9073 12.1621 59.2385C12.169 59.3346 12.169 59.431 12.1621 59.5271L11.982 62.2256C11.9681 62.376 11.9681 62.5273 11.982 62.6777C12.0249 62.9777 12.0081 63.2833 11.9325 63.5768C11.857 63.8703 11.7242 64.1458 11.5418 64.3874C11.3595 64.629 11.1312 64.8319 10.8702 64.9843C10.6092 65.1367 10.3206 65.2356 10.0213 65.2753C9.88809 65.2928 9.75374 65.2997 9.61946 65.2962H9.22802L4.03192 65.0597C3.89008 65.0493 3.74768 65.0493 3.60584 65.0597C3.23099 65.1001 2.85187 65.0657 2.49034 64.9584C2.1288 64.8511 1.79198 64.673 1.49929 64.4345C1.2066 64.1959 0.963823 63.9016 0.784939 63.5685C0.606055 63.2353 0.494602 62.8699 0.457002 62.4934C0.441416 62.3082 0.441416 62.1221 0.457002 61.937L0.508963 61.3562C0.526276 61.1584 0.526276 60.9594 0.508963 60.7616L0.488178 60.4069C0.450483 60.0082 0.491491 59.6059 0.608853 59.2231C0.726215 58.8402 0.917628 58.4844 1.17214 58.176C1.42665 57.8675 1.73925 57.6124 2.09207 57.4254C2.44488 57.2384 2.83098 57.123 3.22826 57.0859C3.42178 57.0668 3.6167 57.0668 3.81022 57.0859L7.03873 57.2772C7.45601 57.2999 7.87411 57.2517 8.2754 57.1346L8.91626 56.9434C9.11629 56.8808 9.32355 56.8446 9.53286 56.8356Z" fill="#F6B8B6"></path>
<path d="M117.806 56.8738C118.209 56.8523 118.612 56.9241 118.983 57.0837C119.354 57.2433 119.683 57.4865 119.946 57.7944C120.208 58.1023 120.397 58.4667 120.497 58.8594C120.597 59.2521 120.605 59.6626 120.522 60.0591C120.459 60.3696 120.452 60.6886 120.501 61.0015L120.747 62.542C120.792 62.8252 120.78 63.1145 120.714 63.3933C120.647 63.6721 120.527 63.9351 120.359 64.167C120.191 64.3989 119.979 64.5953 119.735 64.7449C119.491 64.8945 119.221 64.9944 118.939 65.0388C118.734 65.0667 118.527 65.0667 118.322 65.0388C118.175 65.0215 118.026 65.0215 117.879 65.0388L112.045 65.5153C111.367 65.5721 110.694 65.3564 110.175 64.9156C109.655 64.4748 109.331 63.845 109.274 63.1645C109.254 62.9179 109.269 62.6696 109.319 62.4273C109.365 62.1985 109.38 61.9646 109.364 61.7318L109.312 61.0363C109.244 60.0676 109.562 59.1116 110.196 58.3781C110.83 57.6447 111.728 57.1937 112.693 57.1242C112.885 57.1085 113.079 57.1085 113.271 57.1242L117.806 56.8738Z" fill="#F6B8B6"></path>
<path d="M16.3501 23.3895C15.5846 22.8109 15.0789 21.9511 14.9438 20.9988C14.8088 20.0464 15.0554 19.0791 15.6296 18.309C15.7366 18.1729 15.8523 18.044 15.976 17.923L17.4967 16.3999C17.6727 16.223 17.8817 16.0827 18.1117 15.987C18.3418 15.8913 18.5883 15.842 18.8373 15.842C19.0864 15.842 19.3329 15.8913 19.563 15.987C19.793 16.0827 20.002 16.223 20.1779 16.3999C20.2736 16.4969 20.3584 16.6042 20.4308 16.7198C20.5488 16.8978 20.6937 17.0562 20.8604 17.1893L22.8418 18.7367C23.1491 18.9761 23.4158 19.2638 23.6316 19.5887L24.9826 21.6091C25.1491 21.8524 25.3697 22.0536 25.6269 22.1968C25.8369 22.3102 26.0226 22.464 26.1732 22.6496C26.3239 22.8352 26.4366 23.0488 26.5048 23.2782C26.573 23.5076 26.5955 23.7482 26.5708 23.9863C26.5462 24.2244 26.475 24.4553 26.3613 24.6658C26.2779 24.8222 26.1717 24.9652 26.0461 25.09L24.4457 26.6757C24.1179 27.0015 23.7294 27.2594 23.3024 27.4345C22.8754 27.6096 22.4182 27.6986 21.9569 27.6963C21.4956 27.6941 21.0393 27.6006 20.614 27.4213C20.1887 27.242 19.8028 26.9804 19.4782 26.6514C19.3781 26.5485 19.2833 26.4406 19.1941 26.328L18.0094 24.7875C17.8125 24.5239 17.5792 24.2897 17.3166 24.092L16.3501 23.3895Z" fill="#F6B8B6"></path>
<path d="M107.691 21.6299C108.065 21.5081 108.375 21.2422 108.554 20.8907C108.732 20.5393 108.764 20.131 108.643 19.7556C108.571 19.5333 108.446 19.3317 108.28 19.1679L104.996 15.8956C104.839 15.74 104.653 15.6171 104.448 15.5339C104.244 15.4506 104.025 15.4088 103.805 15.4107C103.584 15.4127 103.366 15.4584 103.164 15.5452C102.961 15.632 102.777 15.7582 102.623 15.9165L102.571 15.9687L99.7995 19.0984L97.5791 21.0736C97.3905 21.2428 97.223 21.4343 97.0802 21.6439C96.6789 22.2399 96.4964 22.9574 96.5641 23.6736C96.6317 24.3898 96.9452 25.0602 97.4509 25.5699L99.9901 28.1119C100.122 28.2388 100.277 28.3384 100.447 28.4048C100.617 28.4713 100.799 28.5033 100.981 28.4991C101.164 28.4949 101.344 28.4546 101.511 28.3804C101.678 28.3061 101.828 28.1995 101.954 28.0667C102.05 27.963 102.131 27.8459 102.193 27.7189C102.317 27.4541 102.52 27.235 102.775 27.093L103.998 26.3975C104.611 26.0595 105.116 25.5528 105.453 24.937L106.839 22.3393C107.02 22.0008 107.326 21.7464 107.691 21.6299Z" fill="#F6B8B6"></path>
<path d="M153.768 91.7565H151.724C144.498 91.7565 140.885 91.2001 140.885 90.0873C140.885 89.444 141.491 88.7416 142.696 87.9765C143.875 87.2794 144.737 86.1496 145.101 84.826C145.495 83.4628 145.693 79.6457 145.693 73.3747C145.693 67.1038 145.509 63.5324 145.142 62.6607C144.735 61.7235 144.05 60.9345 143.181 60.4004C142.218 59.7362 141.737 59.1416 141.737 58.6234C141.737 58.1053 142.281 57.1281 143.365 55.7685C144.51 54.3141 145.308 52.6152 145.696 50.8027C146.833 46.0108 148.398 42.5333 150.394 40.3704C152.934 37.5884 156.498 36.1974 161.087 36.1974C163.304 36.1974 165.079 36.5927 166.411 37.3832C167.745 38.1517 168.41 39.1498 168.41 40.3877C168.41 41.6257 168.064 42.5368 167.413 43.128C166.861 43.6835 166.116 44.0026 165.334 44.0182C164.617 44.0182 163.436 43.5731 161.78 42.6828C160.124 41.7926 158.922 41.351 158.084 41.351C156.726 41.351 155.677 42.203 154.938 43.9069C154.206 45.6687 153.841 47.5621 153.865 49.4708C153.865 51.4947 154.284 52.9772 155.122 53.9185C155.42 54.2384 156.508 54.8921 158.416 55.8797C160.325 56.8673 161.264 57.6984 161.264 58.4391C161.264 59.0025 160.289 59.5821 158.34 60.1779C156.391 60.7737 155.183 61.4031 154.717 62.0661C153.927 63.2253 153.532 66.9809 153.532 73.333C153.532 79.6851 153.757 83.486 154.208 84.7355C154.748 86.1082 155.69 87.2842 156.91 88.1087C158.24 89.0708 158.905 89.8114 158.905 90.3307C158.909 91.2789 157.197 91.7542 153.768 91.7565Z" fill="#FFEFDC"></path>
<path d="M172.221 82.7882C172.221 83.8731 172.726 84.812 173.738 85.6049C174.604 86.3285 175.684 86.7452 176.811 86.7907H177.704L177.926 86.7525C180.614 86.7525 182.748 85.7394 184.328 83.7132C185.069 82.7464 185.438 80.9057 185.436 78.191L185.474 77.3008V75.9689C185.474 74.4597 185.003 73.7051 184.068 73.7051H183.375L181.078 73.9659C178.826 73.9337 176.632 74.6802 174.864 76.0802C173.09 77.4712 172.202 78.9282 172.2 80.4513L172.162 80.9104V82.0962C172.201 82.3247 172.221 82.5562 172.221 82.7882ZM179.09 55.1008H180.974C185.983 55.1008 189.535 56.8302 191.63 60.2891C192.743 62.1183 193.298 66.3804 193.296 73.0757C193.294 79.7709 193.491 83.6135 193.888 84.6034C194.311 85.6165 195.174 86.3456 196.476 86.7907C197.782 87.2358 198.437 87.74 198.437 88.3103C198.437 89.1241 197.896 89.7778 196.809 90.2716C195.184 91.0219 193.418 91.4144 191.63 91.4227C190.845 91.449 190.063 91.3146 189.332 91.0276C188.6 90.7407 187.935 90.3071 187.376 89.7535C186.268 88.6407 185.564 88.0878 185.266 88.0878C184.968 88.0878 184.366 88.3451 183.455 88.8633C182.544 89.3814 181.321 90.0143 179.793 90.755C178.178 91.4881 176.422 91.8549 174.649 91.8295H173.762C170.832 91.8295 168.501 90.9775 166.772 89.2736C165.042 87.5697 164.191 85.3082 164.219 82.4891C164.183 81.1941 164.445 79.9082 164.986 78.7319C165.527 77.5556 166.331 76.5207 167.336 75.7081C169.431 73.9763 172.156 72.7163 175.512 71.9281C180.867 70.6693 183.616 69.99 183.76 69.8903C184.699 69.2435 185.168 67.8595 185.166 65.7383C185.164 63.617 184.586 62.0232 183.434 60.9568C182.24 59.8731 180.674 59.2971 179.066 59.3502C177.341 59.3502 175.577 60.4375 173.776 62.6121C171.975 64.7866 170.243 65.8611 168.58 65.8356C167.077 65.8356 166.324 64.7924 166.321 62.7059C166.319 60.6195 167.497 58.9213 169.855 57.6115C172.663 55.9827 175.846 55.1173 179.09 55.1008Z" fill="#FFEFDC"></path>
<path d="M201.108 88.8633C201.108 88.4181 201.638 87.6183 202.701 86.4569C203.655 85.465 204.332 84.2379 204.662 82.8995C204.932 81.7102 205.067 75.4589 205.067 64.1456C205.067 52.8323 204.808 45.976 204.291 43.5765C204.131 42.5502 203.572 41.6296 202.736 41.0172C201.308 40.0052 200.591 39.4627 200.591 39.3897C200.591 38.4624 201.072 37.8191 202.032 37.4597C204.083 36.7138 206.254 36.36 208.434 36.4165H209.653C210.79 36.4165 211.593 36.879 212.057 37.8075C212.522 38.736 212.771 40.7459 212.799 43.8478L212.761 45.2179C212.74 46.129 212.726 47.0436 212.726 47.9616L212.65 50.7018V53.4386C212.65 56.6842 213.218 58.307 214.354 58.307C214.475 58.2826 215.106 58.0253 216.239 57.528C219.668 55.998 222.542 55.2329 224.861 55.2329C229.2 55.2329 232.245 56.9717 233.995 60.4491C235.15 62.8207 235.727 68.6524 235.727 77.9441C235.727 81.5259 235.851 83.7619 236.098 84.6521C236.345 85.5423 237.048 86.4441 238.208 87.3575C239.365 88.2964 239.94 88.8876 239.94 89.1345C239.94 89.8995 239.434 90.4212 238.423 90.6924C237.411 90.9636 234.872 91.0993 230.802 91.0993H229.506C226.818 91.0993 225.474 90.5556 225.474 89.4683C225.474 89.2214 225.796 88.6059 226.437 87.6149C227.088 86.5794 227.517 85.4186 227.694 84.207C227.893 82.9481 227.991 79.6492 227.989 74.3102C227.986 68.9711 227.737 65.6073 227.241 64.2186C225.536 61.9977 223.649 60.6392 221.58 60.1431C218.742 60.1431 216.473 61.1562 214.773 63.1824C213.519 64.6638 212.89 68.0485 212.885 73.3365C212.881 78.6245 213.004 81.986 213.256 83.4211C213.496 84.8311 214.039 86.1719 214.846 87.3506C215.684 88.5097 216.104 89.2261 216.104 89.4996C216.104 90.3899 213.6 90.835 208.593 90.835C203.587 90.835 201.091 90.1777 201.108 88.8633Z" fill="#FFEFDC"></path>
<path d="M242.268 89.604C242.268 89.0823 242.825 88.4147 243.934 87.601C245.042 86.7872 245.832 85.5145 246.227 83.7758C246.622 82.037 246.819 75.4021 246.819 63.9126C246.819 52.4232 246.684 45.9134 246.411 44.3798C246.137 42.8463 245.538 41.7509 244.526 41.0832C242.91 40.0191 242.101 39.3642 242.101 39.1185V38.6734C242.101 38.2526 242.448 37.884 243.175 37.5606C245.392 36.5962 248.352 36.1151 252.054 36.1174H252.791C254.052 36.1174 254.78 36.9694 254.974 38.6734C255.002 38.9052 255.014 40.7703 255.012 44.2686V52.2389L254.974 53.7585V56.0919L254.953 57.6115V69.3652C254.953 76.6795 255.069 81.2129 255.299 82.9655C255.53 84.7182 256.085 85.9781 256.962 86.7455C257.063 86.8185 257.579 87.1419 258.518 87.7088C259.456 88.2756 259.924 88.8563 259.924 89.4475C259.924 90.3145 258.395 90.7469 255.338 90.7446L253.82 90.8176H252.303L246.234 90.9289H245.458C243.336 90.9358 242.272 90.4942 242.268 89.604Z" fill="#FFEFDC"></path>
<path d="M268.463 71.8168V73.187C268.463 77.3877 269.271 80.8721 270.888 83.6402C271.602 84.9006 272.604 85.9732 273.811 86.7698C274.872 87.4937 276.118 87.8924 277.4 87.9174H278.142C280.386 87.9174 282.321 86.8301 283.947 84.6556C285.573 82.481 286.4 79.3687 286.428 75.3186V72.6688C286.428 68.6906 285.601 65.3187 283.947 62.5529C282.294 59.7872 280.222 58.3962 277.733 58.38H276.586C274.321 58.38 272.397 59.6029 270.815 62.0487C269.233 64.4945 268.449 67.7506 268.463 71.8168ZM295.358 71.9664V73.8164C295.311 76.0008 294.906 78.1624 294.159 80.2149C292.51 85.0601 289.217 88.4448 284.28 90.369C282.305 91.1758 280.197 91.604 278.065 91.6313H276.846C272.135 91.6313 268.201 90.0502 265.044 86.8881C263.503 85.2647 262.322 83.3316 261.58 81.2164C260.686 78.8227 260.236 76.2855 260.25 73.7294V73.1C260.263 70.6252 260.688 68.1701 261.507 65.8356C263.124 61.0669 266.317 57.7564 271.089 55.9041C273.05 55.0981 275.146 54.6699 277.265 54.6418H279.115C281.356 54.653 283.566 55.16 285.589 56.1266C287.514 56.9833 289.249 58.2181 290.691 59.7584C292.133 61.2987 293.254 63.1132 293.986 65.095C294.852 67.2819 295.313 69.6096 295.344 71.9629L295.358 71.9664Z" fill="#FFEFDC"></path>
</svg>