<svg class="logo-image" width="222" height="18" viewBox="0 0 222 18" fill="none" xmlns="http://www.w3.org/2000/svg"> <path d="M17.9621 17.9996H20.5866V0.000527285H19.0914L10.3241 15.0222L2.03651 0.000527285H0V17.9817H1.03054V2.9354L9.30822 17.9817H9.80749L17.9621 4.02473V17.9996Z" fill="black"></path> <path d="M60.4528 17.9996C62.3217 17.9996 64.4054 17.5875 66.2261 16.1683V15.6192C64.9563 16.3512 63.6392 16.7174 61.986 16.7174C57.1478 16.7174 53.062 13.873 53.062 8.37744C53.062 3.86198 55.8317 0.961733 60.5743 0.961733C62.8975 0.961733 64.622 1.64893 66.1318 3.09147V1.39625C64.646 0.412126 62.8498 0 60.3585 0C55.2802 0 50.5195 3.54181 50.5195 8.99535C50.5195 14.6513 55.1113 17.9996 60.4528 17.9996Z" fill="black"></path> <path d="M131.225 10.099V0H128.752V10.1906C128.752 13.5113 127.041 17.152 122.49 17.152C118.753 17.152 115.932 15.1597 115.932 9.77851V0H113.386V9.84681C113.386 15.824 117.076 17.9996 121.987 17.9996C126.898 17.9996 131.225 14.633 131.225 10.099Z" fill="black"></path> <path d="M149.278 17.9996C151.601 17.9766 154.466 17.427 156.573 15.2744V8.2394H153.983V16.1215C152.929 16.4877 151.937 16.7175 150.811 16.7175C145.972 16.7175 142.02 13.8363 142.02 8.34081C142.02 3.82658 145.014 0.96205 149.757 0.96205C152.08 0.96205 153.805 1.64896 155.314 3.09207V1.39678C153.829 0.412654 152.104 0 149.613 0C145.013 0 139.84 2.86481 139.84 9.37078C139.84 14.3167 144.271 18.0449 149.278 17.9996Z" fill="black"></path> <path d="M173.678 17.9996C176.001 17.9766 178.865 17.427 180.973 15.2744V8.2394H178.383V16.1215C177.329 16.4877 176.337 16.7175 175.211 16.7175C170.372 16.7175 166.42 13.8363 166.42 8.34081C166.42 3.82658 169.414 0.96205 174.157 0.96205C176.48 0.96205 178.205 1.64896 179.714 3.09207V1.39678C178.229 0.412654 176.504 0 174.013 0C169.413 0 164.24 2.86481 164.24 9.37078C164.24 14.3167 168.671 18.0449 173.678 17.9996Z" fill="black"></path> <path d="M222 17.9996V17.0837H214.478V0.000527285H211.849V17.9996H222Z" fill="black"></path> <path d="M101.982 8.78907C101.982 14.0253 97.6545 17.0832 93.3416 17.0832H90.4659V0.939587H93.3416C97.6545 0.939587 101.982 3.55376 101.982 8.78907ZM104.557 8.78907C104.557 3.3368 99.2013 0 93.3984 0H87.8377L87.8123 17.9996H93.3731C99.2013 17.9996 104.557 14.2428 104.557 8.78907Z" fill="black"></path> <path d="M196.284 0.000527285H195.754L188.229 17.9996H189.377L195.203 4.06421L201.108 17.9996H204.056L196.284 0.000527285Z" fill="black"></path> <path d="M36.1845 0.000527285H35.6554L28.1295 17.9996H29.2791L35.1036 4.06421L41.0088 17.9996H43.9562L36.1845 0.000527285Z" fill="black"></path> </svg>