<svg aria-hidden="true" focusable="false" role="presentation" class="logo logo-brand" xmlns="http://www.w3.org/2000/svg" viewBox="0 0 427.84 142.01334"><g fill="#fff"><path d="M67.6411983 132.71229023h8.1295998l-4.04786656-9.93589308zm14.48586631 8.86614378h-2.71039993l-2.80933326-6.6572905h-9.76879976l-2.84319993 6.6572905h-2.57653327l10.43853308-24.1859034 10.26973307 24.1859034M119.24733035 132.9805169c0 5.51926652-3.47906658 8.93125057-8.49679979 8.93125057-5.31879986 0-8.46413312-3.34374405-8.46413312-8.93125058v-14.82025296h2.5094666v14.7541063c0 4.01354656 1.83959996 6.85625316 5.95466652 6.85625316 4.11506657 0 6.02186652-3.0427066 6.02186652-6.8916665v-14.71869296h2.47493327v14.82025296M146.03199635 129.56802364c-2.34133328-.96975997-4.28133323-2.47495993-4.28133323-5.68589319 0-3.5135999 2.70933327-6.1562665 6.5546665-6.1562665 3.2466666 0 5.18666654 1.57293328 6.35733318 2.81093325l-1.37199997 1.7041333c-.76799998-.80213332-2.4746666-2.40733328-4.9173332-2.40733328-2.47599994 0-4.1479999 1.63906663-4.1479999 4.0807999 0 1.87493329 1.10399997 2.77599993 2.77599993 3.47813325l3.21199992 1.33954663c2.94399992 1.23698663 5.35199986 2.8421866 5.35199986 6.5890665 0 4.28125323-3.54533324 6.6921865-7.49333314 6.6921865-3.54533325 0-5.98799985-1.47343996-7.39333315-2.9453066l1.47199996-1.74010662c1.47199997 1.47447997 3.14533326 2.61093327 5.88799986 2.61093327 2.47599993 0 5.05066654-1.43906663 5.05066654-4.58281322 0-2.2427066-1.5373333-3.44582658-3.71199991-4.38333322l-3.34533325-1.40467997M176.02932893 118.16026393h14.6866663v2.17439995h-6.08933318V141.578434h-2.50933327v-21.24377013h-6.08799985v-2.17439995M215.25866129 120.20079721v10.10419975h2.50933327c3.07733325 0 5.3533332-1.73953329 5.3533332-5.05366654 0-3.24319992-2.10799995-5.0505332-5.21999987-5.0505332zm-2.47599994-2.04053328h5.21999987c4.38133322 0 7.45866648 2.7098666 7.45866648 7.09106649 0 3.14586659-1.70666663 5.4198132-4.3479999 6.4573065l6.08666652 9.8697971h-2.84133326l-5.5533332-9.30103711c-.40133332.03385333-.80266664.03385333-1.2053333.03385333h-2.34133327v9.26718377h-2.47599994v-23.41817008M252.91732701 132.71229023h8.1279998l-4.0479999-9.93589308zm14.48399964 8.86614378h-2.70799993l-2.81199993-6.6572905h-9.76799976l-2.84399993 6.6572905h-2.57599993l10.4386664-24.1859034 10.26933308 24.1859034M289.03199277 118.16026393h2.50933327v21.21035947h8.02933314v2.20781061h-10.5386664v-23.41817008M321.57199196 118.16026393h2.50933327v23.41817008h-2.50933327v-23.41817008M351.94132453 132.71229023h8.12933313l-4.0479999-9.93589308zm14.48399964 8.86614378h-2.70799993l-2.8106666-6.6572905h-9.76799975l-2.84399993 6.6572905h-2.57733327l10.4386664-24.1859034 10.26933308 24.1859034M161.78932929 100.00453105c-22.57733277 0-36.65333242-14.6266663-36.65333242-35.79386577 0-23.67799941 17.14266624-36.62959909 34.28399914-36.62959909 19.23466619 0 30.24533258 11.97813304 30.38266591 31.8931992 0 2.08853329 0 4.45733323-.41866665 6.96359983h-56.30333193c.69666665 14.76293297 11.14999972 26.46093267 29.26599927 26.46093267 8.78133311 0 18.3986662-2.92186659 24.94666604-9.33079976h.55733332v7.93853313c-5.4333332 5.15519987-16.58399958 8.49799979-26.06133268 8.49799979m20.20933283-41.78239896c0-13.92853298-7.10933316-23.6775994-23.55333275-23.6775994-10.45333307 0-24.11066606 7.52093314-25.36466603 25.06879937h48.91799878v-1.39119997M207.64266148 2.2293335h7.5239998v95.96213093h-7.5239998V2.22933349M239.27599402 2.2293335h7.52533314v95.96213093h-7.52533314V2.22933349M302.26799244 100.00453105c-22.57599943 0-36.65333241-14.6266663-36.65333241-35.79386577 0-23.67799941 17.1413329-36.62959909 34.28533247-36.62959909 19.23199952 0 30.24133258 11.97813304 30.38133258 31.8931992 0 2.08853329 0 4.45733323-.41866666 6.96359983h-56.30533193c.69733332 14.76293297 11.14933306 26.46093267 29.26799927 26.46093267 8.78133312 0 18.39599954-2.92186659 24.94799938-9.33079976h.55733332v7.93853313c-5.43599987 5.15519987-16.58399959 8.49799979-26.06266602 8.49799979m20.20666616-41.78239896c0-13.92853298-7.10533315-23.6775994-23.5519994-23.6775994-10.45066641 0-24.11066607 7.52093314-25.3653327 25.06879937h48.9173321v-1.39119997M395.0186568 100.14253105c-30.05199926 0-51.91733204-19.24119952-51.91733204-49.99946542 0-30.7578659 22.7786661-50.14039875 53.457332-50.14039875 11.25066638 0 24.65866604 5.2053332 30.82266589 10.49973307v9.19266644h-.61599999c-6.6266665-6.5478665-20.03733283-12.17106636-30.97999922-12.17106636-28.33866596 0-44.45999889 18.98413286-44.45999889 42.06173228 0 27.43639931 17.4893329 43.0358656 44.1519989 43.0358656 12.63599968 0 23.89066607-5.9025332 31.75066587-12.72706636h.61733332V88.669598c-6.4746665 5.43066653-19.88266617 11.47293305-32.82666585 11.47293305"></path><path d="M393.4413235 77.6721316c-15.50933295 0-27.29999932-12.10093302-27.29999932-27.5983993 0-15.39106628 12.32266636-27.59946598 27.61733264-27.59946598 15.71999961 0 27.08799933 11.67706638 27.08799933 27.59946598 0 15.49746628-11.79199971 27.5983993-27.40533265 27.5983993m.1-47.76093213c-11.05733306 0-19.59199952 8.91826644-19.59199952 20.16253283 0 11.53279971 8.53466646 20.16093283 19.59199951 20.16093283 11.34799972 0 19.49466618-8.91866645 19.49466618-20.16093283 0-11.24426639-8.24266646-20.16253283-19.49466618-20.16253283M28.08853263 98.17839776L0 .00400022h9.12447977C26.09119935 59.98986538 28.80413261 69.96906513 32.3671992 84.64453143 36.49946575 70.25346513 39.923999 59.85239873 60.02653183.00400022h7.41146648C86.83119783 61.13413202 89.6817311 70.1081318 93.96039765 84.64453143 97.52399756 70.5373318 100.2343975 60.8487987 118.05626372.00400022h9.26919976L97.37919757 98.17839776h-7.41359982C71.29373155 39.1882659 68.0139983 29.35546615 63.30626508 12.6903999c-4.84786654 15.95266627-8.55839978 26.642666-27.80626597 85.48799786h-7.41146648"></path></g></svg>