<svg xmlns="http://www.w3.org/2000/svg" viewBox="0 0 440 60" class="logo" fill="currentColor">
  <title>Modibodi AU</title>
  <path d="M303.338 17.6143C285.803 17.6143 274.704 28.0381 274.704 40.2468C274.704 47.9934 280.88 58.1817 297.084 58.1817C312.526 58.1817 325.383 49.5055 325.383 35.5616C325.383 23.1175 313.107 17.6143 303.338 17.6143ZM302.046 47.1877C300.625 54.6245 299.371 56.3969 296.877 56.3969C294.874 56.3969 294.047 54.8724 294.047 52.3687C294.047 48.328 296.968 33.7768 299.048 25.1006C300.134 20.5022 301.555 19.4487 303.39 19.4487C303.768 19.4497 304.142 19.5248 304.489 19.6695C304.836 19.8141 305.149 20.0252 305.408 20.2898C305.667 20.5544 305.867 20.8669 305.995 21.2082C306.124 21.5495 306.178 21.9124 306.155 22.2746C306.103 28.8562 304.01 36.6895 302.007 47.1877H302.046Z" fill="black"></path>
  <path d="M108.001 17.6142C93.2058 17.6142 82.9846 25.0509 80.1548 34.6815L77.2861 42.267C74.3658 50.0136 73.4096 51.315 71.859 51.315C71.6767 51.3161 71.4961 51.2801 71.3293 51.2095C71.1625 51.1388 71.0132 51.0351 70.8911 50.9052C70.7691 50.7752 70.6771 50.622 70.6212 50.4555C70.5653 50.289 70.5468 50.1131 70.5668 49.9392C70.5668 47.4603 77.9839 23.2785 77.9839 16.4739C77.9947 15.089 77.7153 13.7162 77.1623 12.437C76.6092 11.1577 75.7939 9.99808 74.7645 9.02694C73.7352 8.05581 72.513 7.29297 71.1703 6.78372C69.8277 6.27446 68.3921 6.02918 66.9487 6.06243C59.0148 6.06243 53.6781 14.3048 51.8303 20.6013H51.6623C53.0837 9.61967 49.5819 6.06243 42.4749 6.06243C33.8819 6.06243 29.2043 14.7386 27.4469 21.4937H27.2789C28.4548 10.5864 25.2761 6.06243 17.9236 6.06243C9.44689 6.06243 5.62205 12.991 3.54164 19.9815C3.43827 20.3534 1.96519 25.6954 1.86182 26.0549H3.87761L5.66081 20.1551C7.1985 15.3831 8.72327 13.0901 10.0025 13.0901C11.2818 13.0901 11.6694 13.8958 10.6615 18.5809L2.99893 57.376C6.34566 57.1281 9.76993 56.9669 12.8582 56.9669C14.4476 56.9669 15.9465 57.0537 17.4455 57.1281L21.8776 57.376C24.8755 39.1064 28.7003 23.1917 29.9537 19.7212C32.0471 13.9826 32.6285 12.7679 34.7089 12.7679C35.5488 12.7679 35.8848 13.8958 35.0449 18.0232L27.6407 57.376C30.9745 57.2148 34.1016 56.9669 36.686 56.9669C38.2624 56.9669 39.7743 57.0537 41.2732 57.1281L45.8604 57.376C49.1296 38.7097 53.2775 21.4317 54.3629 18.9528C56.5338 13.9949 57.7097 12.7555 59.2086 12.7555C59.3495 12.753 59.4894 12.7793 59.6189 12.8325C59.7485 12.8858 59.8647 12.9648 59.96 13.0644C60.0553 13.164 60.1275 13.2819 60.1717 13.4103C60.2159 13.5387 60.2312 13.6746 60.2165 13.809C60.2165 15.9905 53.5489 42.0067 53.5489 47.0141C53.5489 52.9139 56.5596 57.8469 63.3177 57.8469C73.513 57.8469 76.6788 50.3358 79.5216 42.2546C80.5037 49.6913 86.9387 58.1692 101.76 58.1692C117.266 58.1692 130.072 49.493 130.072 35.5491C130.046 23.1174 117.77 17.6142 108.001 17.6142ZM106.709 47.1876C105.301 54.6244 104.047 56.3968 101.54 56.3968C99.5374 56.3968 98.6975 54.8723 98.6975 52.3686C98.6975 48.3279 101.618 33.7767 103.711 25.1005C104.797 20.5021 106.218 19.4486 108.053 19.4486C108.43 19.4513 108.803 19.5276 109.148 19.673C109.494 19.8184 109.805 20.0297 110.062 20.2941C110.32 20.5586 110.518 20.8705 110.646 21.211C110.774 21.5515 110.828 21.9133 110.805 22.2745C110.754 28.856 108.673 36.6894 106.657 47.1876H106.709Z" fill="currentColor"></path>
  <path d="M402.914 14.2301C407.256 14.2301 413.678 12.8543 413.678 7.599C413.678 1.69918 407.592 0.0878906 402.578 0.0878906C398.314 0.0878906 391.892 1.46368 391.892 6.79335C391.944 12.7675 397.875 14.2301 402.914 14.2301Z" fill="currentColor"></path>
  <path d="M207.795 14.2301C212.137 14.2301 218.559 12.8543 218.559 7.599C218.559 1.69918 212.46 0.0878906 207.459 0.0878906C203.195 0.0878906 196.76 1.46368 196.76 6.79335C196.786 12.7675 202.717 14.2301 207.795 14.2301Z" fill="currentColor"></path>
  <path d="M255.333 17.6138C251.91 17.7626 248.641 19.0161 246.055 21.1711L245.887 21.0099L249.763 0.0878906C242.411 0.571279 235.808 0.980292 228.791 0.980292H223.041L222.615 3.32288H229.554L223.455 36.1189C220.948 49.6166 227.124 58.1813 242.32 58.1813C267.544 58.1813 272.312 41.9444 272.312 34.9042C272.286 24.5672 266.355 17.6138 255.333 17.6138ZM249.311 45.4892C247.567 55.4049 246.481 56.4832 244.22 56.4832C241.636 56.4832 240.718 55.3553 240.718 52.926C240.718 49.1332 242.295 38.1392 244.31 29.7357C245.887 23.117 246.895 22.3857 249.234 22.3857C251.146 22.3857 251.986 24.3193 251.986 25.8562C251.986 30.6281 250.733 37.817 249.311 45.4892V45.4892Z" fill="currentColor"></path>
  <path d="M415.241 42.0176C414.401 44.0379 412.398 51.2268 409.556 51.2268C408.47 51.2268 407.979 50.5822 407.979 49.4543C407.979 46.7895 412.153 36.9234 412.153 30.0568C412.153 22.6201 407.475 17.8606 400.123 17.8606C390.767 17.8606 387.511 24.0579 384.836 34.2586L382.51 42.7489C381.929 44.8931 380.223 51.9581 376.657 51.9581C375.739 51.9581 375.248 50.8301 375.494 49.3676L384.423 0C377.083 0.483388 370.48 0.892401 363.464 0.892401H357.003L356.576 3.23498H364.174L360.298 24.4049H360.272C359.106 22.2389 357.309 20.4442 355.1 19.2385C352.891 18.0328 350.365 17.4681 347.828 17.6127C335.475 17.6127 327.787 30.4659 327.787 39.7618C327.787 48.7231 332.219 58.1801 343.577 58.1801C351.007 58.1801 356.021 54.0527 357.856 47.434H358.024C358.192 54.7096 361.28 58.1801 369.046 58.1801C378.479 58.1801 382.652 50.669 384.552 42.7489L386.93 34.2586C388.428 29.0901 389.514 24.7272 391.814 24.7272C393.481 24.7272 393.558 26.4252 393.558 27.4788C393.558 30.1436 389.811 39.7618 389.811 46.9506C389.811 54.1395 393.817 57.8579 400.743 57.8579C407.204 57.8579 413.665 55.5897 417.283 42.0176H415.241ZM356.783 43.7157C354.871 51.549 353.281 52.6026 351.614 52.6026C349.599 52.6026 348.358 51.3631 348.358 47.3473C348.43 43.1784 348.932 39.0267 349.857 34.9527C351.02 29.214 352.441 23.5621 355.698 23.5621C358.036 23.5621 358.954 24.6156 358.954 28.1605C358.896 33.4111 358.166 38.6351 356.783 43.7157V43.7157Z" fill="currentColor"></path>
  <path d="M214.413 51.2268C213.328 51.2268 212.824 50.5822 212.824 49.4543C212.824 46.7895 216.998 36.9234 216.998 30.0568C216.998 22.6201 212.333 17.8606 204.981 17.8606C195.625 17.8606 192.369 24.0579 189.694 34.2586L187.368 42.7489C186.787 44.8931 185.081 51.9581 181.515 51.9581C180.597 51.9581 180.093 50.8301 180.352 49.3676L189.281 0C181.928 0.483388 175.338 0.892401 168.322 0.892401H161.861L161.447 3.23498H169.032L165.156 24.4049H164.988C163.822 22.2389 162.025 20.4442 159.816 19.2385C157.607 18.0328 155.081 17.4681 152.544 17.6127C140.191 17.6127 132.502 30.4659 132.502 39.7618C132.502 48.7231 136.935 58.1801 148.28 58.1801C155.723 58.1801 160.724 54.0527 162.571 47.434H162.739C162.894 54.7096 165.996 58.1801 173.762 58.1801C183.195 58.1801 187.368 50.669 189.268 42.7489L191.645 34.2586C193.144 29.0901 194.23 24.7272 196.53 24.7272C198.197 24.7272 198.274 26.4252 198.274 27.4788C198.274 30.1436 194.514 39.7618 194.514 46.9506C194.514 54.1395 198.533 57.8579 205.459 57.8579C211.92 57.8579 218.316 55.5897 221.999 42.0176H219.996C219.259 44.0379 217.256 51.2268 214.413 51.2268ZM161.641 43.7157C159.716 51.549 158.139 52.6026 156.472 52.6026C154.469 52.6026 153.216 51.3631 153.216 47.3473C153.293 43.178 153.799 39.0263 154.728 34.9527C155.891 29.214 157.312 23.5621 160.569 23.5621C162.907 23.5621 163.825 24.6156 163.825 28.1605C163.762 33.4116 163.029 38.6357 161.641 43.7157Z" fill="currentColor"></path>
  <path d="M430.724 15.9389C429.622 15.9389 428.59 15.7347 427.628 15.3261C426.666 14.9175 425.822 14.3659 425.097 13.6712C424.386 12.963 423.821 12.139 423.402 11.1992C422.984 10.2595 422.775 9.25159 422.775 8.17562C422.775 7.11327 422.984 6.11221 423.402 5.17244C423.821 4.23267 424.386 3.41548 425.097 2.72086C425.822 2.02625 426.666 1.47465 427.628 1.06605C428.59 0.657453 429.622 0.453156 430.724 0.453156C431.812 0.453156 432.837 0.657453 433.799 1.06605C434.761 1.47465 435.598 2.02625 436.309 2.72086C437.034 3.41548 437.599 4.23267 438.004 5.17244C438.422 6.11221 438.631 7.11327 438.631 8.17562C438.631 9.25159 438.422 10.2595 438.004 11.1992C437.599 12.139 437.034 12.963 436.309 13.6712C435.598 14.3659 434.761 14.9175 433.799 15.3261C432.837 15.7347 431.812 15.9389 430.724 15.9389ZM430.724 14.9175C431.686 14.9175 432.572 14.7472 433.381 14.4067C434.203 14.0526 434.908 13.5759 435.493 12.9766C436.079 12.3637 436.539 11.6487 436.874 10.8315C437.209 10.0143 437.376 9.12901 437.376 8.17562C437.376 7.23585 437.209 6.35737 436.874 5.54018C436.539 4.72299 436.079 4.01475 435.493 3.41548C434.908 2.8162 434.203 2.34632 433.381 2.00582C432.572 1.6517 431.686 1.47465 430.724 1.47465C429.762 1.47465 428.869 1.6517 428.046 2.00582C427.224 2.34632 426.512 2.8162 425.913 3.41548C425.327 4.01475 424.867 4.72299 424.532 5.54018C424.197 6.35737 424.03 7.23585 424.03 8.17562C424.03 9.12901 424.197 10.0143 424.532 10.8315C424.867 11.6487 425.327 12.3637 425.913 12.9766C426.512 13.5759 427.224 14.0526 428.046 14.4067C428.869 14.7472 429.762 14.9175 430.724 14.9175ZM434.678 12.5067H433.381L430.849 8.52293H428.862V12.5067H427.774V3.86493H431.644C432.816 3.86493 433.632 4.06923 434.092 4.47783C434.552 4.88642 434.782 5.44484 434.782 6.15307C434.782 6.57529 434.712 6.93621 434.573 7.23585C434.433 7.53549 434.238 7.78065 433.987 7.97132C433.736 8.14838 433.436 8.28458 433.088 8.37992C432.753 8.46164 432.39 8.50931 432 8.52293L434.678 12.5067ZM430.515 7.68531C430.822 7.68531 431.156 7.68531 431.519 7.68531C431.881 7.68531 432.216 7.64445 432.523 7.56273C432.844 7.48101 433.102 7.33119 433.297 7.11327C433.506 6.89535 433.611 6.56848 433.611 6.13264C433.611 5.79214 433.541 5.52656 433.402 5.33588C433.276 5.13158 433.109 4.98176 432.899 4.88642C432.69 4.77746 432.453 4.70937 432.188 4.68213C431.923 4.64127 431.658 4.62084 431.393 4.62084H428.862V7.68531H430.515Z" fill="currentColor"></path>
</svg>