<svg class="milani-logo-svg" xmlns="http://www.w3.org/2000/svg" width="273" height="35" viewBox="0 0 273 60.7" alt="Milani Cosmetics">
          <path id="milani-logo-white" d="M78,42.6H93.3v8.1H90.1V94.5h3.2v8.1H78V94.5h3.2V50.7H78Zm-24.1,0H46l-8.7,6.5V42.6H29.4l-8.7,6.5V42.6H9.4v8.1h2.2V96H8.5v6.7H23.8V96H20.6V58.3l7.8-6v50.3H40.3V95.9H37.1V58.3l7.8-6v50.3H57V95.9H53.8V42.6Zm80.8,51.9h-8.8V50.7H129V42.6H113.5v8.1h3.3V94.5h-3.3v8.1H143V84.7h-8.3ZM281.5,50.7V42.5h-15v8.2h2.8V94.4h-2.6v8.2h14.7V94.4h-2.9V50.7Zm-40.1-8.1h-7.9l-8.7,6.5V42.6H213.5v8.1h2.2V94.5h-3.2v8.1h15.3V94.5h-3.2V58.3l7.6-5.9v50.2h12.4V94.5h-3.5ZM189.3,96.4h3.9v6.2H180.4l-.1-23.3-7.9.1v17h2.9v6.2H160.5V96.4h2.9V52.2c.1-5.8,6.3-10.2,13-10.2s12.8,4.5,12.8,10.5Zm-8.9-43.1h0a2.34,2.34,0,0,0-.7-1.6,4.133,4.133,0,0,0-3-1.2h-.4a4.179,4.179,0,0,0-3,1.2,2.34,2.34,0,0,0-.7,1.6h0V71.9h7.9V53.3Z" transform="translate(-8.5 -42)" fill="#ffffff"></path>
        </svg>