<svg xmlns="http://www.w3.org/2000/svg" class="BaseIcon Footer__logo" viewBox="0 0 48 32" role="presentation" preserveAspectRatio="xMidYMid meet" focusable="false">
      <path d="M47.1722 25.1637C47.2349 25.3297 47.4148 25.8361 46.8878 26.5002C46.6368 26.8116 46.3022 26.4795 45.9717 26.0644C45.8714 25.9357 45.7375 25.5829 45.5284 25.5082C45.3192 25.4376 44.8926 25.2592 44.6332 25.1014C44.3739 24.9437 44.2903 24.8067 44.01 24.6241C43.7298 24.4415 43.4913 24.3294 43.1693 24.0969C42.8388 23.8604 42.7761 23.686 42.3662 23.4868C41.9604 23.2875 41.4543 22.9845 40.76 22.9181C40.1786 22.8642 37.3719 23.0427 36.1631 23.0136C36.3931 23.2751 36.7403 23.7234 36.8616 23.9019C37.008 24.1177 37.8822 24.9852 38.2001 25.2924C38.518 25.5995 38.9488 26.355 39.1412 26.5418C39.3336 26.7285 39.9485 27.0564 40.4254 27.4508C41.1239 28.0277 41.6969 28.7458 42.0525 29.2481C42.408 29.7544 43.0061 31.4438 41.9772 31.614C41.3497 31.7178 40.7098 30.6967 40.6763 30.1737C40.6429 29.6548 40.2748 29.5926 39.823 29.2398C39.3713 28.8911 37.6522 27.5587 36.8365 26.8987C36.0209 26.2387 35.4938 25.4335 34.8162 24.9271C34.1386 24.4207 32.1434 23.74 31.5829 23.1215C31.0224 22.4989 30.7463 22.0299 30.5999 21.9136C30.4661 21.7808 30.2193 21.7435 30.0102 21.7435C29.801 21.7435 25.5137 21.2952 22.5941 18.5515C19.6787 15.8079 18.7208 16.1565 17.5705 16.1565C16.4202 16.1565 16.0856 16.1565 15.6339 16.6878C15.178 17.2191 14.4711 18.4893 12.593 18.4893C11.1708 18.4893 9.76122 17.63 9.76122 17.63C9.76122 17.63 9.33458 18.1489 9.19655 18.3066C9.0627 18.4644 8.96231 18.73 8.8661 19.0579C8.7699 19.3858 7.99608 20.9797 7.08841 21.0544C6.18075 21.1291 5.29817 20.9341 5.25216 20.7016C5.20197 20.4733 5.55751 20.6061 5.59516 20.3031C5.6328 20.0001 5.60771 19.83 5.76665 19.7096C5.9256 19.5892 6.25604 19.5768 6.29368 19.4315C6.33133 19.2862 6.29368 19.0455 6.63667 18.6926C6.97966 18.3398 7.44395 17.8334 7.87478 16.9991C7.87478 16.9991 6.4359 16.638 6.05526 17.3021C5.67463 17.9663 5.13505 19.5892 3.14821 20.328C1.16138 21.0669 0.734742 20.353 0.74729 20.0873C0.759839 19.8217 0.822578 19.3734 1.07773 19.2281C1.33706 19.0828 1.38307 19.0123 1.39562 18.7798C1.40817 18.5515 1.73861 18.041 2.3493 17.655C2.96417 17.2689 4.23574 16.5052 4.75023 15.7539C5.26471 15.0068 5.59516 13.7823 6.26022 13.7823C6.9211 13.7823 8.017 14.8698 8.64442 14.9902C8.64442 14.9902 8.91212 14.6373 8.91212 14.2306C8.91212 13.8196 9.05851 13.2136 9.58555 13.2136C10.1126 13.2136 10.0206 13.4876 10.4598 13.4876C10.4598 13.4876 10.4221 12.0763 10.5183 11.7235C10.6145 11.3707 10.8488 10.8269 10.8111 10.5986C10.7735 10.3703 10.3217 10.0549 10.3217 9.39907V8.7557L10.4556 8.81381C10.4556 8.81381 10.3928 8.02932 10.7484 7.91724C10.7484 7.91724 10.8948 7.38595 11.0412 7.21576C11.1876 7.04558 11.3591 7.1203 11.3591 7.1203C11.3591 7.1203 11.5055 6.73427 11.6268 6.62635C11.7481 6.51843 11.8945 6.68862 11.8945 6.68862C11.8945 6.68862 12.3462 6.25278 12.4717 6.27769C12.593 6.30259 12.5679 6.44787 12.5679 6.44787C12.5679 6.44787 12.8147 6.29014 12.9611 6.27769C13.1075 6.26524 13.12 6.42297 13.12 6.42297C13.12 6.42297 13.4505 6.24033 13.622 6.27769L13.7934 6.31505C13.7934 6.31505 14.3707 6.31505 14.5045 6.53504C14.6384 6.75088 14.5547 7.16596 14.3707 7.28633C14.3707 7.28633 16.1107 6.79239 18.8337 7.92555C21.5567 9.06286 25.635 11.1797 27.6343 11.3956C29.6337 11.6114 31.5829 11.5533 32.4864 11.1175C33.3941 10.6817 33.5656 10.6568 33.5656 10.6568C33.5656 10.6568 33.5906 10.4741 33.3941 10.3413C33.1975 10.2085 33.0636 9.2787 33.5656 8.28666C34.0675 7.29463 34.1511 7.23237 34.3017 7.23237C34.3017 7.23237 33.8834 7.06219 33.553 6.87125C33.2226 6.67616 33.0762 6.29014 32.4989 6.08675C31.9217 5.88337 30.8091 5.7713 29.9725 5.49319C29.1401 5.21509 28.1948 4.86643 27.9146 4.55097C27.6343 4.23551 28.0233 4.16495 27.4001 3.69176C26.7769 3.21857 26.2582 2.86991 26.1871 2.74953C26.1118 2.62916 26.0281 2.26389 26.3586 2.25144C26.689 2.23899 27.3039 1.97334 27.6343 1.91108C27.9648 1.85297 28.3831 1.82806 28.3831 1.82806C28.3831 1.82806 28.0401 1.53751 28.1154 1.01866C28.1907 0.499817 28.3371 0.366992 28.7511 0.379445C29.1694 0.391897 29.2154 0.935648 30.1608 1.10583C31.1061 1.27601 32.6621 2.13522 33.2728 2.43823C33.8876 2.74123 34.4858 3.40536 34.7911 3.82873C35.0965 4.25211 35.8326 5.45999 35.979 5.49734C36.1254 5.5347 36.2467 5.60526 36.3597 5.7879C36.4684 5.97053 36.6776 6.36901 37.305 6.47693C37.9282 6.58485 38.6393 7.1535 39.3755 7.77197C40.1116 8.39043 40.3082 8.60627 40.3291 8.88437C40.3542 9.16248 40.6219 9.5485 40.8938 9.81415C41.1615 10.0798 41.5171 10.4907 41.5296 10.6235C41.5422 10.7564 41.7011 10.9639 41.9102 11.1424C42.1194 11.325 42.203 11.711 42.0692 11.9518C41.9353 12.1925 41.9353 12.2673 41.9228 12.3378C41.9102 12.4125 41.7387 12.811 41.5296 12.977C41.3205 13.1472 41.1615 13.1348 40.9315 13.1472C40.6972 13.1597 40.5885 13.3631 40.3082 13.3631H40.028C40.028 13.3631 39.9569 13.7159 39.6474 13.7283C39.342 13.7408 39.1454 13.5581 38.9865 13.7283C38.8275 13.8985 38.7899 14.0687 38.9865 14.4796C39.1831 14.8905 39.7603 16.3558 39.1831 17.5263C38.6058 18.7009 37.5267 20.1869 37.5267 20.1869C37.5267 20.1869 37.6856 20.5024 38.1625 20.7058C38.6393 20.9133 39.3378 21.262 40.0991 21.2122C40.8604 21.1624 41.7638 21.3076 42.0525 21.4446C42.5209 21.6687 43.3449 22.528 44.056 22.8683C44.7671 23.2087 45.5869 23.7856 45.771 24.0305C45.955 24.2713 46.1976 24.2173 46.5364 24.4166C46.9338 24.6407 47.1095 24.9894 47.1722 25.1637Z"></path>
    </svg>