<svg xmlns="http://www.w3.org/2000/svg" viewBox="0 0 131 12" class="header__logo-image">
  <path d="M31.7044487,2.22044605e-14 C33.8338805,2.22044605e-14 35.1216683,0.746084193 36.2276826,1.80664363 L34.9236166,3.31485358 C33.9990743,2.45345171 33.0085147,1.87292859 31.687869,1.87292859 C29.4758403,1.87292859 27.8745461,3.69591646 27.8745461,5.96655485 L27.8745461,5.99984866 C27.8745461,8.27109239 29.4758403,10.1264661 31.687869,10.1264661 C33.1076912,10.1264661 34.0159554,9.54685096 35.0062135,8.61855878 L36.3099781,9.94456075 C35.1053901,11.2039751 33.7847444,12 31.6221532,12 C28.2546726,12 25.7454157,9.36464297 25.7454157,6.03314248 L25.7454157,5.99984866 C25.7454157,2.70164199 28.2049336,2.22044605e-14 31.7044487,2.22044605e-14 Z M112.530133,2.13162821e-14 C116.079688,2.13162821e-14 118.555183,2.70164199 118.555183,5.96655485 L118.555183,5.99984866 C118.555183,9.26536686 116.045926,12 112.497275,12 C108.948323,12 106.471924,9.29835801 106.471924,6.03314248 L106.471924,5.99984866 C106.471924,2.73493581 108.980879,2.13162821e-14 112.530133,2.13162821e-14 Z M63.7721126,0.165742679 L66.6120584,8.80125104 L69.3688045,0.199036497 L71.4982363,0.199036497 L67.470885,11.8836532 L65.7212782,11.8836532 L62.881031,3.5471839 L60.0398793,11.8836532 L58.2899711,11.8836532 L54.2626198,0.199036497 L56.4577674,0.199036497 L59.2148149,8.80125104 L62.0550622,0.165742679 L63.7721126,0.165742679 Z M2.16259117,0.199157566 L5.67868587,5.68507075 L9.19447912,0.199157566 L11.3570703,0.199157566 L11.3570703,11.8011451 L9.32651354,11.8011451 L9.32651354,3.48071733 L5.67868587,8.95028628 L5.61236721,8.95028628 L1.99739742,3.51401115 L1.99739742,11.8011451 L-6.39488462e-14,11.8011451 L-6.39488462e-14,0.199157566 L2.16259117,0.199157566 Z M40.2632634,0.199036497 L40.2632634,6.03302141 L45.759573,0.199036497 L48.2525517,0.199036497 L43.4489706,5.18796378 L48.4668815,11.801024 L46.0073636,11.801024 L42.0626092,6.58025071 L40.2632634,8.4365324 L40.2632634,11.801024 L38.2327067,11.801024 L38.2327067,0.199036497 L40.2632634,0.199036497 Z M81.8946507,0.199036497 L81.8946507,2.02232704 L75.3577411,2.02232704 L75.3577411,5.03874694 L81.1515802,5.03874694 L81.1515802,6.86173481 L75.3577411,6.86173481 L75.3577411,9.97803617 L81.9769461,9.97803617 L81.9769461,11.801024 L73.3268829,11.801024 L73.3268829,0.199036497 L81.8946507,0.199036497 Z M86.3826755,0.199036497 L86.3826755,9.94443968 L92.4571631,9.94443968 L92.4571631,11.801024 L84.3518173,11.801024 L84.3518173,0.199036497 L86.3826755,0.199036497 Z M98.5820229,0.199127298 C102.213874,0.199127298 104.722829,2.70161172 104.722829,5.96652458 L104.722829,5.9998184 C104.722829,9.2653366 102.213874,11.8011148 98.5820229,11.8011148 L94.2734202,11.8011148 L94.2734202,0.199127298 L98.5820229,0.199127298 Z M122.812057,0.199036497 L129.002603,8.22072792 L129.002603,0.199036497 L131,0.199036497 L131,11.801024 L129.299831,11.801024 L122.928115,3.5471839 L122.928115,11.801024 L120.930717,11.801024 L120.930717,0.199036497 L122.812057,0.199036497 Z M20.0874695,0.116074356 L25.1720005,11.8009938 L23.0253861,11.8009938 L21.853656,9.00007567 L16.3899029,9.00007567 L15.2012916,11.8009938 L13.1212973,11.8009938 L18.2058283,0.116074356 L20.0874695,0.116074356 Z M112.497275,1.87292859 C110.20265,1.87292859 108.601657,3.71286604 108.601657,5.96655485 L108.601657,5.99984866 C108.601657,8.25414281 110.235507,10.1264661 112.530133,10.1264661 C114.82506,10.1264661 116.425751,8.28713396 116.425751,6.03314248 L116.425751,5.99984866 C116.425751,3.74585719 114.791298,1.87292859 112.497275,1.87292859 Z M98.5820229,2.05571166 L96.3036755,2.05571166 L96.3036755,9.94453048 L98.5820229,9.94453048 C101.008984,9.94453048 102.593397,8.30405327 102.593397,6.03311222 L102.593397,5.9998184 C102.593397,3.72918001 101.008984,2.05571166 98.5820229,2.05571166 Z M19.1131881,2.55257649 L17.1326718,7.19343204 L21.110887,7.19343204 L19.1131881,2.55257649 Z" fill=" currentColor"></path>
</svg>