<svg class="icon icon--site-logo" xmlns="http://www.w3.org/2000/svg" viewBox="0 0 120.85 34.08">
  <title>Tipsy Elves</title>
  <defs>
    <style>
    .site-logo__black {
      fill: #0a0b09;
    }

    .site-logo__yellow {
      fill: #e9c647;
    }

    .site-logo__green {
      fill: #128141;
    }
    </style>
  </defs>
  <path class="site-logo__black" d="M120.73,16.62a6.51,6.51,0,0,0-1.94-3.46,2.48,2.48,0,0,0,.84-2.82A7.1,7.1,0,0,0,118.53,8a2,2,0,1,0-2.37-2V6a7.71,7.71,0,0,0-1-.47,7.26,7.26,0,0,0-5.08.35A6.63,6.63,0,0,0,107,8.51,9.63,9.63,0,0,0,95.15,7a2.51,2.51,0,0,0-1.34-.91l-3.55-1A2.52,2.52,0,0,0,89.59,5a2.48,2.48,0,0,0-2.32,1.58l-.48,1.21-.49-1.2A2.48,2.48,0,0,0,84,5a2.18,2.18,0,0,0-.44,0L80,5.68l-.15-2.75A2.5,2.5,0,0,0,77.19.57L72.61.84a2.49,2.49,0,0,0-1.75.87,2.53,2.53,0,0,0-.59,1.87l.35,3.5a9.71,9.71,0,0,0-5.28-1.56,9.76,9.76,0,0,0-7,3l-.14-1.22a2.5,2.5,0,0,0-.95-1.71,2.54,2.54,0,0,0-1.88-.5l-3.87.56a2.47,2.47,0,0,0-1.24.56.18.18,0,0,0-.07,0,2.45,2.45,0,0,0-1.87-.49l-3.62.52a2.5,2.5,0,0,0-1.08.44,6.28,6.28,0,0,0-4.06-1.41,8,8,0,0,0-2.65.46,6.79,6.79,0,0,0-3.34,2.55,8,8,0,0,0-2.08-1.5A8.83,8.83,0,0,0,27.81,6l-.66,0c-.31,0-.63.06-.95.1a2.53,2.53,0,0,0-1.28-.39l-3.34-.07a4.14,4.14,0,0,0,0-.61,5.43,5.43,0,0,0-5.35-5H16a5.33,5.33,0,0,0-4.1,2A2.43,2.43,0,0,0,11,1.06,2.53,2.53,0,0,0,9.45.64L5.12.91a2.5,2.5,0,0,0-1.75.88A2.54,2.54,0,0,0,2.8,3.66l.42,4-1.08.16A2.49,2.49,0,0,0,0,10.67l.55,3.91a2.55,2.55,0,0,0,1,1.66,2.52,2.52,0,0,0,1.88.46l.7-.12.7,7.57a2.49,2.49,0,0,0,2.81,2.24l3.64-.48h.11A4.45,4.45,0,0,0,13.56,25a3.32,3.32,0,0,0,2.24.6l2.77.05-.08,5.93a2.5,2.5,0,0,0,.73,1.81,2.47,2.47,0,0,0,1.76.72L24.44,34a2.51,2.51,0,0,0,2.44-2.41l.25-7.32a9.72,9.72,0,0,0,6.11-2.56,8,8,0,0,0,6.54,3.36,9.2,9.2,0,0,0,1.64-.16,7.38,7.38,0,0,0,.78-.19,2.44,2.44,0,0,0,.37.67A10.82,10.82,0,0,0,50.82,29c.33,0,.67,0,1,0a7.8,7.8,0,0,0,7.43-6.12,9.69,9.69,0,0,0,9.29,1.59,9.56,9.56,0,0,0,3.58-2.22l.14,1.42a2.54,2.54,0,0,0,.91,1.69A2.57,2.57,0,0,0,75,25.9l7.85-.82a2.53,2.53,0,0,0,1.69-.93,2.74,2.74,0,0,0,.29-.46,2.51,2.51,0,0,0,2.23,1.37h0a2.51,2.51,0,0,0,2.25-1.51l1.88-4.39a9.64,9.64,0,0,0,13.93,4.27l.08,0a8.94,8.94,0,0,0,1.93-1.63,8.13,8.13,0,0,0,6.48,3.3,8.52,8.52,0,0,0,2.17-.29,6.4,6.4,0,0,0,4.42-3.91A7.63,7.63,0,0,0,120.73,16.62Z"></path>
  <polygon class="site-logo__yellow" points="13.08 8.77 9.94 9.11 9.61 3.13 5.28 3.4 5.95 9.81 2.5 10.32 3.05 14.23 6.39 13.69 7.33 23.92 10.98 23.43 10.2 13.04 13.47 12.58 13.08 8.77"></polygon>
  <polygon class="site-logo__yellow" points="15.69 23.07 18.8 23.13 18.96 9.19 14.38 9.08 15.69 23.07"></polygon>
  <path class="site-logo__yellow" d="M57,20.17,55.68,7.57l-3.86.56L52.75,15a1.37,1.37,0,0,1-1.26,1.57,1.59,1.59,0,0,1-2-1.36l-.86-7L45,8.67l1.12,8.27a4.08,4.08,0,0,0,4,3.15,3.6,3.6,0,0,0,3.4-1.67,3.38,3.38,0,0,1-2.88,4.68,5.15,5.15,0,0,1-3.56-1.54l-2.55,2.3a8.36,8.36,0,0,0,7.09,2.65C57.55,26,57,20.17,57,20.17Z"></path>
  <path class="site-logo__yellow" d="M41.23,14c-2.09-.66-2.72-1-2.9-1.16A1.07,1.07,0,0,1,38.92,11c1.36-.36,1.71,1.15,1.71,1.15l3.11-.68c-1.26-4.06-4.14-4-6.06-3.39a4.11,4.11,0,0,0-2.76,4.33c.26,1.93,2.3,2.89,3.43,3.26a6.89,6.89,0,0,1,2.29.95,1.17,1.17,0,0,1-.13,1.81c-1.81,1.18-3.1-1.56-3.1-1.56l-3.3,1.21c1.16,3.35,3.8,5,6.85,4.42s3.57-3.77,3.39-5A4.27,4.27,0,0,0,41.23,14Z"></path>
  <path class="site-logo__yellow" d="M30.32,9a6,6,0,0,0-3-.48A9.75,9.75,0,0,0,24.86,9V8.21l-3.53-.08L21,31.59l3.4-.08.25-9.71c4.3.47,8.42-1.33,8.87-6.43A6.16,6.16,0,0,0,30.32,9Zm-2.7,9a4.67,4.67,0,0,1-3-.35l.08-5.15a3.75,3.75,0,0,1,2-.56c2,0,3,.9,3.22,2.53A3,3,0,0,1,27.62,18Z"></path>
  <path class="site-logo__yellow" d="M16.38,5.17C14.44,4.1,14,3.54,13.93,3.28h-.14c-.13,0-.29,0-.34.14s0,.46.55,1a9.84,9.84,0,0,0,2,1.43,7.08,7.08,0,0,0,3.06,1c.12,0,.28-.05.33-.15s0-.28-.14-.49C19,6.29,18.3,6.23,16.38,5.17Z"></path>
  <path class="site-logo__yellow" d="M15.17,7.11a2.63,2.63,0,0,0,1.5.33A2.54,2.54,0,0,0,18,6.92,10.31,10.31,0,0,1,15.91,6a10.33,10.33,0,0,1-2.07-1.46l0,0a2.41,2.41,0,0,0,.08,1A2.67,2.67,0,0,0,15.17,7.11Z"></path>
  <path class="site-logo__yellow" d="M16.48,5a9.19,9.19,0,0,0,2.29,1,2.57,2.57,0,0,0-1.15-3.3,2.63,2.63,0,0,0-1.5-.33A2.52,2.52,0,0,0,14.25,3.4,7.53,7.53,0,0,0,16.48,5ZM15.34,3a1.34,1.34,0,0,1,.36-.17.22.22,0,0,1,.11,0h.1a1.08,1.08,0,0,1,.19,0,.65.65,0,0,1,.16.09l-.17,0h-.37a1,1,0,0,0-.34.12l-.15.09A.61.61,0,0,1,15.34,3Z"></path>
  <polygon class="site-logo__green" points="78.16 18.63 77.34 3.06 72.76 3.33 74.76 23.41 82.61 22.6 82.06 18.12 78.16 18.63"></polygon>
  <polygon class="site-logo__green" points="89.59 7.48 86.82 14.48 83.99 7.5 80.29 8.16 87.08 22.56 93.14 8.47 89.59 7.48"></polygon>
  <path class="site-logo__green" d="M100.08,8.12a7.15,7.15,0,1,0,5.23,12l-2.23-2.83a3.35,3.35,0,0,1-3.24,1,2.68,2.68,0,0,1-2.52-2.8l9.8,1a7.12,7.12,0,0,0-7-8.37Zm-2.51,5.27a2.42,2.42,0,0,1,2.88-2.06,2.6,2.6,0,0,1,2.63,2.58Z"></path>
  <path class="site-logo__green" d="M72.09,12.91a7.17,7.17,0,1,0-.21,5.22l-3-1.94a3.33,3.33,0,0,1-2.73,2,2.68,2.68,0,0,1-3.3-1.82l9.58-2.28A8.29,8.29,0,0,0,72.09,12.91Zm-9.74,1.41a2.42,2.42,0,0,1,2.05-2.89A2.6,2.6,0,0,1,67.72,13Z"></path>
  <path class="site-logo__green" d="M114.94,13.87a9.62,9.62,0,0,1-3-1,1.07,1.07,0,0,1,.47-1.89c1.34-.45,1.78,1,1.78,1l3.06-.88c-1.53-4-4.4-3.77-6.26-3a4.09,4.09,0,0,0-2.48,4.5c.38,1.9,2.49,2.73,3.64,3a7,7,0,0,1,2.35.8,1.18,1.18,0,0,1,0,1.82c-1.74,1.29-3.2-1.36-3.2-1.36L108.1,18.4c1.39,3.26,4.13,4.73,7.13,4s3.31-4,3.06-5.23A4.28,4.28,0,0,0,114.94,13.87Z"></path>
  <path class="site-logo__green" d="M118.18,4.56A1.42,1.42,0,1,0,119.6,6,1.41,1.41,0,0,0,118.18,4.56Zm0,2.53A1.12,1.12,0,1,1,119.3,6,1.11,1.11,0,0,1,118.18,7.09Z"></path>
  <path class="site-logo__green" d="M118.82,5.64c0-.39-.34-.36-.34-.36h-.9s0,1.38,0,1.41h.47V6.09h.08c.07,0,.31.53.31.53H119l-.34-.6A.35.35,0,0,0,118.82,5.64Zm-.79.15V5.53s.37-.06.37.13S118.05,5.77,118,5.79Z"></path>
</svg>