<svg class="logo-min" viewBox="0 0 725 168" xmlns="http://www.w3.org/2000/svg">
    <title>Qwetch</title>
    <path fill="currentColor" d="m141.546 130.17 16.299 18.694L136.326 168l-17.407-20.02a88.43 88.43 0 0 1-39.352 8.803C35.017 156.783 0 127.541 0 78.505S35.016 0 79.546 0c44.529 0 79.567 29.458 79.567 78.505 0 21.108-6.509 38.477-17.567 51.665Zm-62-99.828c-24.982 0-43.912 18.252-43.912 47.28 0 29.027 18.93 47.494 43.912 47.494a43.567 43.567 0 0 0 16.544-3.081l-8.874-10.355 21.53-19.394 9.14 10.548c3.664-7.036 5.625-15.612 5.625-25.288-.075-28.736-18.952-47.204-43.965-47.204ZM332.779 52.311l-33.078 101.833h-30.829L249.27 91.758l-19.804 62.386h-30.829L165.548 52.311h33.089l17.769 65.058 19.388-65.058h26.75l19.409 65.058 17.748-65.058h33.078ZM440.363 111.174h-71.652c1.417 14.675 12.432 21.269 25.738 21.269 13.05 0 24.502-5.775 30.212-9.697l12.869 17.153c-3.271 2.479-16.545 16.529-47.8 16.529-31.022 0-53.702-19.395-53.702-53.087 0-33.693 24.502-52.883 54.33-52.883s50.463 20.041 50.463 49.79c-.021 4.967-.458 10.926-.458 10.926Zm-29.999-18.791c-.213-9.299-6.935-20.472-20.634-20.472-13.466 0-20.411 10.775-20.838 20.472h41.472ZM515.914 77.514H493.66v36.558c0 8.62 1.214 10.775 2.844 12.596 1.449 1.659 3.484 2.489 7.777 2.489a29.945 29.945 0 0 0 9.779-1.864l1.641 25.859a86.934 86.934 0 0 1-23.266 3.308c-11.644 0-19.41-3.512-24.502-9.503-5.092-5.991-7.159-14.471-7.159-29.954v-39.49h-14.296V52.528h14.286V24.836h32.896v27.69h22.254v24.988ZM612.505 144.231c-1.066.83-11.719 12.186-38.351 12.186-27.581 0-53.105-19.007-53.105-52.872 0-34.09 25.929-53.098 53.51-53.098 25.737 0 37.37 10.775 37.37 10.775l-7.158 24.987a41.115 41.115 0 0 0-25.919-9.083c-13.849 0-24.939 9.697-24.939 25.859 0 16.162 10.035 26.237 25.344 26.237 9.391-.185 18.415-3.728 25.471-9.999l7.777 25.008ZM725 154.144h-32.875v-53.508c0-12.39-1.63-23.122-15.33-23.122-13.699 0-17.961 11.54-17.961 26.624v49.995h-32.683V11.626h32.683v33.876c0 10.322-.191 21.474-.191 21.474 5.092-9.083 14.69-16.529 29.594-16.529C717.436 50.447 725 69.26 725 94.042v60.102Z"></path>
</svg>