<svg aria-hidden="true" focusable="false" class="icon icon-logo" viewBox="0 0 456 118" fill="none" xmlns="http://www.w3.org/2000/svg">
<title>maude®</title>
<path fill-rule="evenodd" clip-rule="evenodd" d="M78.9 12.1C73.9258 12.0591 69.0259 13.3091 64.6792 15.7278C60.3324 18.1466 56.6873 21.6514 54.1 25.9C51.8835 22.3131 48.9088 19.2548 45.3846 16.9399C41.8604 14.625 37.8722 13.1096 33.7 12.5V0H24.8V12.5C17.9035 13.5781 11.6175 17.0804 7.07178 22.3777C2.52605 27.6749 0.0185816 34.4197 0 41.4V117.4H8.89999V41.4C8.89999 35.9896 11.0493 30.8007 14.875 26.975C18.7008 23.1493 23.8896 21 29.3 21C34.7104 21 39.8992 23.1493 43.725 26.975C47.5507 30.8007 49.7 35.9896 49.7 41.4V117.4H58.6V41.4C58.6 38.721 59.1277 36.0683 60.1528 33.5932C61.178 31.1182 62.6807 28.8693 64.575 26.975C66.4693 25.0807 68.7182 23.5781 71.1933 22.5529C73.6683 21.5277 76.321 21 79 21C81.679 21 84.3317 21.5277 86.8067 22.5529C89.2818 23.5781 91.5307 25.0807 93.425 26.975C95.3193 28.8693 96.8219 31.1182 97.8471 33.5932C98.8723 36.0683 99.4 38.721 99.4 41.4V117.4H108.3V41.4C108.25 33.6273 105.133 26.1887 99.6276 20.7018C94.122 15.2149 86.6728 12.1235 78.9 12.1ZM365.799 93.4C359.399 93.4 354.199 91.1 350.399 86.4C346.599 81.7 344.699 75.5 344.699 67.8C344.699 60.1 346.699 54 350.699 49.3C352.503 47.0949 354.777 45.3216 357.355 44.1104C359.934 42.8991 362.751 42.2805 365.599 42.3C368.091 42.2637 370.56 42.7834 372.826 43.8214C375.093 44.8593 377.099 46.3892 378.699 48.3V25.5H387.799V92.1H379.499V87.5C377.765 89.3994 375.647 90.9078 373.284 91.9251C370.922 92.9424 368.371 93.4452 365.799 93.4ZM367.199 50.6C358.599 50.6 353.899 56.7 353.899 67.8C353.899 78.9 358.599 85.1 367.199 85.1C368.736 85.1723 370.271 84.9352 371.714 84.4027C373.157 83.8701 374.478 83.0531 375.599 82C376.614 81.0535 377.421 79.9076 377.972 78.6342C378.523 77.3608 378.804 75.9873 378.799 74.6V61.7C378.815 60.1951 378.522 58.7031 377.938 57.316C377.354 55.929 376.492 54.6765 375.405 53.636C374.318 52.5956 373.028 51.7893 371.617 51.2671C370.205 50.7448 368.702 50.5178 367.199 50.6ZM221.998 92.0014V61.3013C221.998 54.1013 218.998 50.6013 212.798 50.6013C206.798 50.6013 203.198 54.4013 203.198 60.7013V92.0014H194.598V61.3013C194.598 54.1013 191.598 50.6013 185.398 50.6013C179.398 50.6013 175.798 54.4013 175.798 60.7013V92.0014H166.898V43.6013H175.198V48.1013C176.64 46.2692 178.477 44.7869 180.573 43.7652C182.668 42.7435 184.967 42.2089 187.298 42.2013C189.813 42.1171 192.304 42.7022 194.518 43.897C196.732 45.0918 198.589 46.8534 199.898 49.0014C201.425 46.8784 203.439 45.1529 205.77 43.9696C208.102 42.7864 210.684 42.1799 213.298 42.2013C223.898 42.2013 230.698 48.8013 230.698 59.1013V92.0014H221.998ZM259.598 93.4008C249.298 93.4008 242.898 88.0008 242.898 79.4008C242.898 71.2008 247.498 67.0008 259.198 64.3008C264.898 62.8008 268.098 61.8008 269.698 60.9008C270.534 60.5643 271.248 59.9833 271.748 59.2338C272.248 58.4844 272.509 57.6014 272.498 56.7008C272.498 52.7008 268.898 50.3008 263.198 50.3008C257.198 50.3008 253.598 53.2008 252.098 59.3008V59.4008L244.098 56.6008V56.5008C245.898 47.6008 252.998 42.3008 262.898 42.3008C275.098 42.3008 281.798 48.6008 281.798 60.2008V92.1008H273.798V87.2008C272.502 88.8492 270.908 90.2398 269.098 91.3008C266.15 92.7628 262.889 93.4836 259.598 93.4008ZM261.198 70.9008C268.153 69.1376 271.174 68.238 272.798 66.6042V76.1008C272.798 81.4008 267.398 85.4008 260.298 85.4008C254.998 85.4008 251.598 83.0008 251.598 78.9008C251.598 74.8008 254.098 72.7008 261.198 70.9008ZM295.098 75.0016C295.098 86.9016 300.998 93.4016 311.798 93.4016C317.498 93.4016 321.898 91.3016 324.898 87.4016V92.0016H333.698V43.6016H324.598V73.4016C324.598 80.5016 320.598 84.8016 313.798 84.8016C306.798 84.8016 304.198 81.8016 304.198 73.8016V43.6016H295.098V75.0016ZM405.198 86.4008C409.398 91.1009 414.898 93.4008 421.598 93.4008C430.398 93.4008 437.598 89.2008 441.598 81.7008L441.698 81.6008L434.898 76.4008L434.798 76.5009C433.646 78.5375 432.197 80.3911 430.498 82.0009C428.298 84.1009 425.198 85.2008 421.298 85.2008C413.498 85.2008 408.398 79.6008 408.098 70.6008H442.998V67.8008C442.998 60.0008 440.998 53.7008 436.898 49.2008C434.941 46.9513 432.508 45.1651 429.775 43.9717C427.043 42.7784 424.079 42.2076 421.098 42.3008C418.081 42.2224 415.084 42.8088 412.319 44.0185C409.554 45.2283 407.089 47.0317 405.098 49.3008C400.898 54.0008 398.898 60.1008 398.898 67.8008C398.898 75.5008 400.998 81.7009 405.198 86.4008ZM421.098 50.4009C428.698 50.4009 433.498 55.2009 433.998 63.4009H408.198C408.32 60.1226 409.554 56.9834 411.698 54.5009C412.844 53.1403 414.289 52.0626 415.919 51.3514C417.549 50.6403 419.322 50.315 421.098 50.4009ZM440.328 34.325C440.328 36.2937 441.087 38.1866 442.447 39.61C443.491 40.6471 444.819 41.3518 446.262 41.6354C447.706 41.9189 449.202 41.7686 450.56 41.2033C451.919 40.638 453.079 39.6831 453.896 38.459C454.712 37.2349 455.148 35.7964 455.148 34.325C455.148 32.8536 454.712 31.4151 453.896 30.191C453.079 28.9669 451.919 28.012 450.56 27.4467C449.202 26.8814 447.706 26.7311 446.262 27.0146C444.819 27.2982 443.491 28.0029 442.447 29.04C441.087 30.4634 440.328 32.3563 440.328 34.325ZM453.906 34.325C453.906 35.9653 453.268 37.5413 452.127 38.72C451.564 39.3004 450.887 39.7581 450.138 40.0644C449.39 40.3707 448.586 40.519 447.777 40.5C446.945 40.5335 446.115 40.3986 445.337 40.1033C444.559 39.8081 443.848 39.3586 443.247 38.7819C442.647 38.2052 442.169 37.5132 441.843 36.7473C441.517 35.9814 441.349 35.1575 441.349 34.325C441.349 33.4925 441.517 32.6686 441.843 31.9027C442.169 31.1369 442.647 30.4448 443.247 29.8681C443.848 29.2914 444.559 28.8419 445.337 28.5467C446.115 28.2514 446.945 28.1165 447.777 28.15C448.586 28.1292 449.39 28.2767 450.139 28.5831C450.888 28.8895 451.565 29.3482 452.127 29.93C453.268 31.1087 453.906 32.6847 453.906 34.325ZM445.127 29.89V38.81L446.547 38.85V35.3H447.607L449.397 38.81H450.967L449.017 35.13C449.626 35.0526 450.183 34.7477 450.576 34.2765C450.969 33.8054 451.17 33.2029 451.137 32.59C451.137 30.78 450.077 29.89 447.967 29.89H445.127ZM447.917 34.03H446.567V31.16H447.917C449.147 31.16 449.737 31.61 449.737 32.59C449.737 33.57 449.147 34.03 447.917 34.03Z" fill="currentColor"></path>
</svg>