<svg class="w-9 mx-auto lg:absolute lg:top-0 lg:left-0 lg:right-0 shield-logo" xmlns="http://www.w3.org/2000/svg" xmlns:xlink="http://www.w3.org/1999/xlink" viewBox="0 0 510.2 698.7">
  <polygon class="fill-sg-navy" points="254.5,668.9 24.7,504.6 24.7,178.5 484.4,178.5 483.9,504.6 "></polygon>
  <path class="fill-white" d="M254.5,676L18.9,507.6V172.8h471.2l-0.5,334.8L254.5,676z M30.4,501.7l224.1,160.2l223.7-160.2l0.5-317.4H30.4
    V501.7z"></path>
  <path class="fill-sg-gold" d="M344.4,124l45.2-76.4c5.1-8,6.8-15.9,3.8-17.9c-3.2-2.1-10.3,2.8-15.8,11.1c-5.6,8.3-7.6,16.7-4.4,18.8
    c0.4,0.2,0.7,0.4,1.2,0.4c-10.8,9.9-24.1,20-32.7,19.8c-11.9-0.3-19.5-13-23-21.4c2.7-2.5,4.5-9.1,4.5-17c0-10-3.1-18.1-6.9-18.1
    c-3.8,0-6.9,8.1-6.9,18.1c0,7.8,1.9,14.4,4.5,17c-3.8,8.3-12.2,21.5-27.2,21.5c-23.3,0.1-29.5-44.5-29.5-44.5
    c3.8,0,5.1-7.5,5.1-17.4c0-10-3.1-18-6.9-18h-1.5c-3.8,0-6.9,8.1-6.9,18c0,10,1.3,17.4,5.1,17.4c0,0-6.2,44.7-29.5,44.5
    c-14.9-0.1-23.4-13.3-27.2-21.5c2.6-2.5,4.5-9.2,4.5-17c0-10-3.1-18.1-6.9-18.1c-3.8,0-6.9,8.1-6.9,18.1c0,7.8,1.9,14.5,4.5,17
    c-3.5,8.4-11,21.1-23,21.4C159,80.1,145.7,70,134.9,60c0.4-0.1,0.8-0.2,1.1-0.4c3.2-2.1,1.2-10.6-4.4-18.8
    c-5.6-8.3-12.7-13.2-15.8-11.1c-3.1,2.1-1.4,10,3.8,17.9l41.2,76.5L344.4,124z"></path>
  <path class="fill-sg-navy" d="M255.1,698.7L0,517.8v-366h510.2l-0.5,366L255.1,698.7z M12.5,511.3l242.6,172.1l242.1-172.1l0.5-347.1H12.5V511.3z"></path>
  <path class="fill-white" d="M289,498.8c-1.5,0-2.9,0.6-4,1.5l-6.3,0c-5.2,0-11.8,0-14.9-0.1c0.1-12.3,0.3-60.7-0.2-78.1
    c-0.2-8-0.3-32.8-0.3-61.5c-0.1-43.3-0.3-92.4-0.9-101.7c-1-15.6-5.1-28.9-5.3-29.5l-3-9.9l-3,9.9c-0.2,0.6-4.2,13.9-5.3,29.5
    c-0.6,9.3-0.8,58.2-0.9,101.2c-0.1,29-0.1,54-0.3,62c-0.5,17.4-0.3,65.8-0.2,78.2c-3.9,0-16.1,0.1-20.5,0.1
    c-1.2-1.1-2.7-1.7-4.3-1.7c-3.5,0-6.3,2.8-6.3,6.3c0,3.5,2.8,6.3,6.3,6.3c1.5,0,3-0.6,4.1-1.6l20.9,1.8l1.3,0.7l0,1.7
    c-1,0.9-1.6,2.2-1.6,3.6c0,1.5,0.7,2.9,1.8,3.8l0,5.3c-0.9,0.9-1.5,2.1-1.5,3.4c0,1.4,0.6,2.6,1.6,3.5l1,48.2
    c-0.2,1-0.8,4.2-1.1,5.6c-1.2,1.6-3.1,4.1-3.1,7.7c0.1,4.9,2.8,6.7,4.4,7.8c0.5,0.3,1.1,0.8,1.8,1.3c0,0.2-0.1,0.5-0.1,0.7
    c0,2.7,2.2,4.9,4.9,4.9c2.7,0,4.9-2.2,4.9-4.9c0-0.2,0-0.5,0-0.7c0.7-0.5,1.4-1,2-1.4c1.3-0.9,4-2.7,4.1-7.6c0-3.6-1.9-6.1-3.1-7.7
    c-0.3-1.4-0.9-4.6-1.1-5.7l1.3-48.2c1-0.9,1.6-2.1,1.6-3.5c0-1.3-0.6-2.6-1.5-3.4l0.1-5.4c1-0.9,1.7-2.2,1.7-3.7
    c0-1.4-0.6-2.7-1.6-3.6l0-1.6l1.5-0.8l20.9-1.6c1,0.8,2.4,1.5,4.2,1.5c3.5,0,6.3-2.8,6.3-6.3C295.3,501.7,292.5,498.8,289,498.8z"></path>
  <path class="fill-white" d="M401.7,448.9c-1.2,0-2.3,0.5-3.3,1.3c-3.4,0-14.4,0-18,0c0.1-9.9,0.2-50.7-0.1-65.3c-0.2-6.7-0.2-27.7-0.3-52
    c-0.1-35.7-0.2-76.2-0.7-83.9c-0.9-13-4.2-24.1-4.4-24.5l-2.3-7.4l-2.3,7.4c-0.1,0.5-3.5,11.6-4.4,24.5c-0.5,7.6-0.6,47.6-0.7,82.8
    c-0.1,23.8-0.1,46.3-0.3,53.1c-0.4,14.6-0.2,55.5-0.2,65.3c-2.9,0-13.8,0.1-17.4,0.1c-0.9-0.9-2.2-1.5-3.5-1.5c-2.7,0-5,2.2-5,5
    c0,2.8,2.2,5,5,5c1.2,0,2.4-0.5,3.3-1.3l17.5,1.5l1.3,0.7v1.7c-0.8,0.7-1.3,1.8-1.3,2.8c0,1.2,0.6,2.3,1.5,3l0,4.6
    c-0.8,0.7-1.3,1.6-1.3,2.7c0,1.1,0.5,2.1,1.4,2.8l0.9,40c0,0-0.7,3.7-1,5l0,0.1c-0.9,1.2-2.5,3.3-2.5,6.2c0.1,3.9,2.2,5.3,3.5,6.2
    l1.7,1.2c0,0.2-0.1,0.4-0.1,0.7c0,2.1,1.7,3.8,3.8,3.8c2.1,0,3.8-1.7,3.8-3.8c0-0.2,0-0.5-0.1-0.7c0.6-0.4,1.3-0.9,1.8-1.2
    c1.1-0.7,3.3-2.2,3.4-6.2c0-2.8-1.4-4.8-2.5-6.3c-0.3-1.3-0.9-4.6-0.9-4.6l1.1-40.5c0.8-0.7,1.4-1.7,1.4-2.8c0-1.1-0.5-2-1.2-2.7
    l0.1-4.7c0.9-0.7,1.4-1.8,1.4-2.9c0-1.2-0.5-2.2-1.4-2.9l0-1.6l1.4-0.7l17.5-1.4c0.8,0.7,1.9,1.3,3.4,1.3c2.7,0,5-2.2,5-5
    C406.7,451.1,404.4,448.9,401.7,448.9z"></path>
  <path class="fill-white" d="M164.7,450.3c-1.2,0-2.3,0.5-3.2,1.2l-3.6,0c-4.7,0-11.6,0-14.4-0.1c0.1-9.8,0.2-50.7-0.1-65.2
    c-0.2-6.8-0.2-28-0.3-52.5c-0.1-35.5-0.2-75.7-0.7-83.4c-0.9-12.9-4.2-24-4.4-24.5l-2.3-7.4l-2.3,7.4c-0.1,0.5-3.5,11.6-4.4,24.5
    c-0.5,7.7-0.6,48-0.7,83.5c-0.1,24.5-0.1,45.6-0.3,52.4c-0.4,14.6-0.2,55.5-0.2,65.3c-2.9,0-13.8,0.1-17.4,0.1
    c-0.9-0.9-2.2-1.4-3.5-1.4c-2.7,0-5,2.2-5,5c0,2.7,2.2,5,5,5c1.3,0,2.4-0.5,3.3-1.3l17.5,1.5l1.3,0.7l0,1.7
    c-0.8,0.7-1.3,1.7-1.3,2.9c0,1.2,0.6,2.3,1.5,3l0,4.6c-0.8,0.7-1.3,1.6-1.3,2.7c0,1.1,0.5,2.1,1.3,2.8l0.9,40.1c0,0-1,5-1,5v0
    c-1,1.3-2.6,3.4-2.5,6.3c0.1,3.9,2.2,5.4,3.5,6.2c0.4,0.3,1.1,0.7,1.7,1.2c0,0.2-0.1,0.5-0.1,0.7c0,2.1,1.7,3.8,3.8,3.8
    c2.1,0,3.8-1.7,3.8-3.8c0-0.2,0-0.5-0.1-0.7l1.8-1.2c1.1-0.8,3.2-2.2,3.3-6.1c0-2.8-1.4-4.8-2.5-6.3c-0.3-1.3-0.9-4.6-0.9-4.6
    l1.1-40.5c0.8-0.7,1.4-1.7,1.4-2.8c0-1.1-0.5-2.1-1.2-2.7l0.1-4.7c0.9-0.7,1.4-1.8,1.4-3c0-1.2-0.5-2.2-1.4-2.9l0-1.6l1.4-0.8
    l17.5-1.4c0.8,0.7,1.9,1.2,3.4,1.2h0c2.7,0,5-2.2,5-4.9C169.6,452.5,167.4,450.3,164.7,450.3z"></path>
</svg>