<svg class="logo-svg" xmlns="http://www.w3.org/2000/svg" viewBox="0 0 585.91 62.53">
  <g id="Layer_2" data-name="Layer 2">
    <g id="Layer_1-2" data-name="Layer 1">
      <g>
        <path class="cls-1" d="M81.18,1H75.34a.7.7,0,0,0-.65.46L64,32.52c-.88,2.54-1.74,5.12-2.61,7.75-.64,1.94-1.26,3.89-1.84,5.8-1.28-4.56-2.73-9.11-4.3-13.55L44.6,1.47A.7.7,0,0,0,44,1H38.47a.68.68,0,0,0-.64.46L27.15,32.52q-1.3,3.7-2.56,7.61C24,42,23.38,44,22.8,46c-.55-2-1.15-4-1.79-5.94-.87-2.6-1.73-5.1-2.6-7.51L7.64,1.47A.7.7,0,0,0,7,1H.68a.66.66,0,0,0-.55.29A.67.67,0,0,0,0,1.91L20.84,62a.68.68,0,0,0,.64.46h1.95a.68.68,0,0,0,.64-.47l11.8-34.48q1.4-4.08,2.74-8.21,1.1-3.35,2.27-7.21c.79,2.58,1.56,5,2.28,7.21q1.35,4.13,2.75,8.22L57.79,62a.69.69,0,0,0,.65.46h1.85a.7.7,0,0,0,.65-.46L81.83,1.92A.69.69,0,0,0,81.18,1Z"></path>
        <path class="cls-1" d="M157,1h-6.22a.69.69,0,0,0-.69.68v26H117.48v-26a.69.69,0,0,0-.69-.68h-6.22a.69.69,0,0,0-.68.68V60.83a.69.69,0,0,0,.68.68h6.22a.69.69,0,0,0,.69-.68V34.44h32.61V60.83a.69.69,0,0,0,.69.68H157a.69.69,0,0,0,.68-.68V1.69A.69.69,0,0,0,157,1Z"></path>
        <rect class="cls-1" x="191.18" y="1.01" width="7.59" height="60.5" rx="0.68"></rect>
        <path class="cls-1" d="M274.18,1h-47a.69.69,0,0,0-.69.68V7.07a.69.69,0,0,0,.69.68h19.65V60.83a.68.68,0,0,0,.68.68h6.22a.68.68,0,0,0,.68-.68V7.75h19.75a.68.68,0,0,0,.68-.68V1.69A.68.68,0,0,0,274.18,1Z"></path>
        <path class="cls-1" d="M335.81,54.77h-27.2V34.44h22.1a.68.68,0,0,0,.69-.68V28.39a.68.68,0,0,0-.69-.68h-22.1v-20h27.2a.69.69,0,0,0,.69-.68V1.69a.69.69,0,0,0-.69-.68h-34.1a.68.68,0,0,0-.68.68V60.83a.68.68,0,0,0,.68.68h34.1a.69.69,0,0,0,.69-.68V55.45A.69.69,0,0,0,335.81,54.77Z"></path>
        <path class="cls-1" d="M431.31,1H397.2a.69.69,0,0,0-.68.68V60.83a.69.69,0,0,0,.68.68h6.23a.69.69,0,0,0,.68-.68V34.44h22.1a.68.68,0,0,0,.68-.68V28.39a.68.68,0,0,0-.68-.68h-22.1v-20h27.2a.69.69,0,0,0,.68-.68V1.69A.69.69,0,0,0,431.31,1Z"></path>
        <path class="cls-1" d="M507.66,8.56a31,31,0,0,0-10.12-6.34,33.49,33.49,0,0,0-24,0,30.76,30.76,0,0,0-10.11,6.35,31.17,31.17,0,0,0-7,9.85,30.63,30.63,0,0,0-2.61,12.75A30.71,30.71,0,0,0,463.45,54a30.76,30.76,0,0,0,10.11,6.35,33.35,33.35,0,0,0,24,0,30.7,30.7,0,0,0,19.71-29.13,30.47,30.47,0,0,0-2.62-12.75A31.46,31.46,0,0,0,507.66,8.56Zm1.91,22.61a25,25,0,0,1-2,10.11,23.71,23.71,0,0,1-5.32,7.7,24.24,24.24,0,0,1-25.83,5,23.6,23.6,0,0,1-7.63-5,24.18,24.18,0,0,1-5.28-7.71,24.8,24.8,0,0,1-2-10.1,25,25,0,0,1,2-10.07,23.59,23.59,0,0,1,5.28-7.7,24.3,24.3,0,0,1,25.78-4.92,24.62,24.62,0,0,1,7.68,4.92,23.29,23.29,0,0,1,5.32,7.7A25,25,0,0,1,509.57,31.17Z"></path>
        <path class="cls-1" d="M566.91,30.33l18-28.27a.68.68,0,0,0-.58-1h-6.68a.68.68,0,0,0-.58.32L566.72,17.47c-.73,1.24-1.54,2.56-2.41,4-.66,1.09-1.27,2.15-1.83,3.16-.55-1-1.17-2.07-1.83-3.16-.87-1.42-1.67-2.74-2.42-4L548.11,1.33a.68.68,0,0,0-.58-.32h-7.15a.69.69,0,0,0-.59.35.66.66,0,0,0,0,.69l18,28.65L538.88,60.46a.66.66,0,0,0,0,.7.67.67,0,0,0,.59.35h6.69a.67.67,0,0,0,.57-.32l10.88-17.07c.74-1.23,1.57-2.59,2.5-4.06.75-1.2,1.46-2.41,2.13-3.6.69,1.19,1.37,2.36,2,3.53.83,1.44,1.7,2.84,2.57,4.14l10.68,17.06a.67.67,0,0,0,.57.32h7.15a.7.7,0,0,0,.6-.35.68.68,0,0,0,0-.69Z"></path>
      </g>
    </g>
  </g>
</svg>