<svg xmlns="http://www.w3.org/2000/svg" class="header__logo-image" viewBox="0 0 380 62.09" id="Layer_1"><defs><style>.cls-1{fill:#d2202b;}.cls-1,.cls-2{stroke-width:0px;}.cls-2{fill:#fff;}</style></defs><path d="M21.9,2.58L2.78,7.2c-1.85.92-1.54,2.16-1.85,2.46v9.56c0,2.16,1.54,1.54,1.54,1.54l6.78-1.23c1.54-.31,1.23,1.23,1.23,1.23v25.59c0,2.16-1.54,2.16-1.54,2.16H2.16c-2.16,0-2.16,1.85-2.16,1.85v9.25c.31,2.16,2.16,1.85,2.16,1.85h22.51V4.12c0-2.16-2.78-1.54-2.78-1.54" class="cls-1"></path><path d="M42.56,15.22c9.56-1.85,14.49,5.86,14.49,5.86.62.93,1.54.31,1.54.31l10.79-8.64c.31-.31,0-.93,0-.93C56.13-6.06,34.54,1.65,34.54,1.65v18.2c3.08-3.7,8.02-4.63,8.02-4.63" class="cls-1"></path><path d="M69.7,48.22l-10.49-7.71c-.93-.62-1.54,0-1.54,0-4.63,5.55-8.94,6.17-8.94,6.17-9.25,2.16-13.88-4.32-13.88-4.32v18.19c24.36,6.79,34.85-11.1,34.85-11.1.93-.62,0-1.23,0-1.23" class="cls-1"></path><path d="M89.71,31.76c0-9.93,7.48-13.97,14.07-13.97s14.07,4.03,14.07,13.97-7.48,13.96-14.07,13.96-14.07-4.03-14.07-13.96ZM111.66,31.76c0-5.63-3.42-8.49-7.89-8.49s-7.89,2.85-7.89,8.49,3.42,8.49,7.89,8.49,7.89-2.85,7.89-8.49Z" class="cls-2"></path><path d="M142.18,18.44h3.46c.71,0,1.12.42,1.12,1.14v24.35c0,.72-.41,1.14-1.12,1.14h-4.47c-.6,0-1-.23-1.34-.76l-10.49-17.05v16.67c0,.72-.41,1.14-1.12,1.14h-3.46c-.71,0-1.12-.42-1.12-1.14v-24.35c0-.72.41-1.14,1.12-1.14h5.17c.6,0,1,.27,1.34.76l9.79,15.79v-15.41c0-.72.41-1.14,1.12-1.14Z" class="cls-2"></path><path d="M173.14,23.92h-12.91v4.95h10.94c.71,0,1.12.42,1.12,1.14v2.85c0,.72-.41,1.14-1.12,1.14h-10.94v5.59h12.84c.71,0,1.12.42,1.12,1.14v3.2c0,.72-.41,1.14-1.12,1.14h-17.6c-.71,0-1.12-.42-1.12-1.14v-24.35c0-.72.41-1.14,1.12-1.14h17.68c.71,0,1.12.42,1.12,1.14v3.2c0,.72-.41,1.14-1.12,1.14Z" class="cls-2"></path><path d="M186.16,31.76c0-10.2,7.37-13.97,14.1-13.97,3.87,0,7.18,1.26,9.64,3.2.52.42.6.95.26,1.56l-1.6,2.89c-.37.69-.97.76-1.56.27-1.82-1.45-4.09-2.44-6.74-2.44-4.5,0-7.93,2.85-7.93,8.49s3.42,8.49,7.93,8.49c2.57,0,4.99-.84,6.81-2.21.6-.46,1.15-.38,1.53.31l1.64,3.01c.34.65.34,1.07-.07,1.37-2.42,1.79-5.8,3.01-9.9,3.01-6.74,0-14.1-3.77-14.1-13.96Z" class="cls-2"></path><path d="M213.7,31.76c0-9.93,7.48-13.97,14.07-13.97s14.07,4.03,14.07,13.97-7.48,13.96-14.07,13.96-14.07-4.03-14.07-13.96ZM235.66,31.76c0-5.63-3.42-8.49-7.89-8.49s-7.89,2.85-7.89,8.49,3.42,8.49,7.89,8.49,7.89-2.85,7.89-8.49Z" class="cls-2"></path><path d="M247.05,31.99v-12.4c0-.72.41-1.14,1.12-1.14h3.65c.71,0,1.12.42,1.12,1.14v12.52c0,5.59,2.12,8.14,5.69,8.14s5.69-2.51,5.69-8.14v-12.52c0-.72.41-1.14,1.12-1.14h3.65c.71,0,1.12.42,1.12,1.14v12.4c0,10.31-5.77,13.74-11.57,13.74s-11.57-3.35-11.57-13.74Z" class="cls-2"></path><path d="M295.68,18.44h3.46c.71,0,1.12.42,1.12,1.14v24.35c0,.72-.41,1.14-1.12,1.14h-4.47c-.6,0-1-.23-1.34-.76l-10.49-17.05v16.67c0,.72-.41,1.14-1.12,1.14h-3.46c-.71,0-1.12-.42-1.12-1.14v-24.35c0-.72.41-1.14,1.12-1.14h5.17c.6,0,1,.27,1.34.76l9.79,15.79v-15.41c0-.72.41-1.14,1.12-1.14Z" class="cls-2"></path><path d="M326.65,19.59v3.2c0,.72-.41,1.14-1.12,1.14h-6.66v20.02c0,.72-.41,1.14-1.12,1.14h-3.65c-.71,0-1.12-.42-1.12-1.14v-20.02h-6.59c-.71,0-1.12-.42-1.12-1.14v-3.2c0-.72.41-1.14,1.12-1.14h19.13c.71,0,1.12.42,1.12,1.14Z" class="cls-2"></path><path d="M352.44,45.08h-4.5c-.59,0-1-.23-1.34-.72l-5.73-8.94h-4.02v8.52c0,.72-.41,1.14-1.12,1.14h-3.65c-.71,0-1.12-.42-1.12-1.14v-24.35c0-.72.41-1.14,1.12-1.14h8.37c6.51,0,12.17,1.71,12.17,8.07,0,4.22-2.23,6.66-5.58,7.88l6.14,9.32c.52.8.15,1.37-.74,1.37ZM336.84,30.24h3.28c4.09,0,6.33-1.14,6.33-3.35,0-2.74-3.72-2.97-6.33-2.97h-3.28v6.32Z" class="cls-2"></path><path d="M379.75,19.81l-9.45,14.35v9.78c0,.72-.41,1.14-1.12,1.14h-3.65c-.71,0-1.12-.42-1.12-1.14v-10.05l-9.3-14.08c-.52-.8-.19-1.37.71-1.37h4.47c.59,0,1.04.23,1.34.76l5.84,9.59,5.77-9.59c.3-.53.74-.76,1.34-.76h4.46c.89,0,1.23.57.71,1.37Z" class="cls-2"></path></svg>