<svg fill="none" class="kosas-logo icon" data-image="icon" focusable="false" role="presentation" viewBox="0 0 158 39" xmlns="http://www.w3.org/2000/svg">
  <title>Kosas Cosmetics</title>
  <path fill="#000" fill-rule="evenodd" d="m23.701 0-13.24 14.37V0H0v37.49h10.462V25.95l4.277-4.229 10.899 15.77h13.024L21.834 14.76 36.748 0H23.701Z" clip-rule="evenodd"></path>
  <path fill="#000" fill-rule="evenodd" d="M51.696 9.739c8.936 0 15.186 6.198 15.186 14.317 0 8.061-6.25 14.21-15.186 14.21-8.942 0-15.145-6.149-15.145-14.21 0-8.119 6.203-14.317 15.145-14.317Zm0 21.796c4.365 0 5.784-4.086 5.784-7.48 0-3.45-1.419-7.585-5.784-7.585-4.362 0-5.73 4.136-5.73 7.586 0 3.393 1.368 7.479 5.73 7.479Zm25.853-2.958c0 1.374.58 2.362 1.528 3.05.895.587 2.15.934 3.514.934 1.788 0 4.42-.743 4.42-2.846 0-2.129-2.94-2.515-4.615-2.853-5.96-1.424-13.359-1.575-13.359-8.857 0-6.501 7.513-8.266 13.143-8.266 6.364 0 12.938 1.716 13.304 8.75h-8.732c0-1.178-.476-1.863-1.202-2.352-.797-.444-1.845-.702-3.003-.702-1.578 0-4.111.209-4.111 2.075 0 2.504 6.366 3.007 10.686 3.89 5.828 1.073 7.36 5.017 7.36 7.28 0 7.185-7.36 9.586-13.832 9.586-6.843 0-13.838-2.104-14.1-9.689h8.999Zm21.856-9.742c.155-3.548 1.942-5.806 4.482-7.233 2.565-1.33 5.884-1.863 9.194-1.863 6.785 0 13.414 1.414 13.414 9.04V30.6c0 2.26 0 4.776 1.1 6.883h-9.466c-.361-.826-.477-1.67-.575-2.566-2.423 2.424-6.054 3.349-9.52 3.349-5.475 0-9.796-2.606-9.796-8.16 0-8.763 10.211-8.117 16.732-9.35 1.644-.297 2.531-.84 2.531-2.512 0-2.008-2.616-2.809-4.579-2.809-2.567 0-4.264 1.138-4.674 3.4h-8.843Zm12.206 13.97c4.526 0 5.987-2.4 5.786-7.963-1.322.78-3.794.926-5.83 1.476-2.121.486-3.893 1.268-3.893 3.434 0 2.178 1.826 3.054 3.937 3.054Zm26.715-4.228c0 1.374.592 2.362 1.546 3.05.891.587 2.146.934 3.505.934 1.792 0 4.42-.743 4.42-2.846 0-2.129-2.936-2.515-4.629-2.853-5.943-1.424-13.345-1.575-13.345-8.857 0-6.501 7.505-8.266 13.149-8.266 6.349 0 12.928 1.716 13.293 8.75h-8.718c0-1.178-.48-1.863-1.224-2.352-.781-.444-1.837-.702-3.004-.702-1.572 0-4.093.209-4.093 2.075 0 2.504 6.365 3.007 10.687 3.89 5.84 1.073 7.359 5.017 7.359 7.28 0 7.185-7.359 9.586-13.837 9.586-6.838 0-13.836-2.104-14.099-9.689h8.99Z" clip-rule="evenodd"></path>
</svg>