<svg class="header__logo-image" xmlns="http://www.w3.org/2000/svg" viewBox="0 0 714.7 74.78"><path fill="black" d="M114.24 72.27L96.1 21.88l-33.37 52.9-33.25-52.9-18.15 50.39H0L26.43 0l36.3 57.14L99.17 0l26.4 72.27zm73.48.07c-27.37 0-47-14.74-47-36.13S160.35.09 187.72.09s47.07 14.75 47.07 36.13-19.12 36.12-47.07 36.12zm0-63.79c-20.41 0-36.1 11-36.1 27.67s15.81 27.67 36.1 27.67c20.53 0 36.21-10.88 36.21-27.67S208.17 8.55 187.72 8.55zm72.17 63.79V.09h38.57c25.72 0 42.23 13.07 42.23 36.13s-16.52 36.12-42.23 36.12zm38.57-9.07c18 0 31.38-9.19 31.38-27.07S316.51 9.28 298.46 9.28h-28.29v54zm67.35 9.07V.09h10.26v63.2h51.67v9.06zm119.72 0c-27.37 0-47-14.74-47-36.13S458.17.09 485.53.09s47.07 14.75 47.07 36.13-19.11 36.12-47.07 36.12zm0-63.79c-20.41 0-36.1 11-36.1 27.67s15.81 27.67 36.1 27.67c20.53 0 36.21-10.88 36.21-27.67s-15.8-27.67-36.21-27.67zm82.44 31.81v32h-10.26V.09h66.3v9.19h-55.92v22h46.48v9.07zm103.2 31.98V9.28h-33.26V.09h76.79v9.19h-33.38v63.06z"></path></svg>