<svg xmlns="http://www.w3.org/2000/svg" fill="none" viewBox="0 0 130 77" class="footer__logo-svg" aria-hidden="true"><path d="M110.688 70.55V41.153h-1.223l-7.879 2.089v1.492l.627.09c2.208.298 2.805 1.342 2.805 3.133v22.591c0 2.149-1.223 2.656-3.432 3.134v1.7h12.564v-1.7c-2.178-.478-3.462-.985-3.462-3.134ZM96.543 68.908V48.794h-1.224l-7.879 2.089v1.492l.627.149c2.238.268 2.865 1.283 2.865 3.133V68.55c-2.208 2.715-4.178 3.67-6.148 3.67-2.805 0-4.446-1.73-4.446-5.222V48.793h-1.283l-7.88 2.09v1.492l.628.149c2.238.268 2.865 1.283 2.865 3.133v11.818c0 5.581 3.163 8.595 7.759 8.595 3.133 0 5.82-1.582 8.475-5.61v5.61h1.224l8.087-2.298v-1.7h-.985c-2.029 0-2.685-1.016-2.685-3.164ZM70.639 72.071c-1.94 0-2.596-.925-2.596-3.163V49.51h-2.298l-2 2.447c-1.283-1.701-3.372-3.163-6.894-3.163-7.013 0-12.743 5.431-12.743 14.473 0 6.954 3.88 12.773 10.774 12.773 3.372 0 6.088-2 7.46-4.536v4.566h1.224l8.088-2.298v-1.7h-1.015Zm-8.267-2.358c-.925 1.702-3.133 2.866-5.312 2.866-5.013 0-7.043-5.73-7.043-11.192 0-6.237 2.716-10.236 6.387-10.236 4.387 0 5.968 4.029 5.968 7.938v10.624ZM31.067 60.462c8.177 0 13.459-3.163 13.459-9.61 0-6.505-5.252-9.668-13.46-9.668h-15.25v1.7c3.79.21 4.746 1.284 4.746 3.82v23.278c0 2.149-.985 3.313-4.745 3.67v1.702H32.08v-1.701c-4.297-.299-5.52-1.134-5.52-3.79v-9.4h4.506Zm-4.507-17.07h3.283c5.58 0 8.237 2.805 8.237 7.46 0 4.507-2.776 7.402-8.237 7.402H26.56V43.392ZM26.381 0h-15.04v1.701c3.312.209 4.536 1.015 4.536 3.82v20.055c0 5.371-2.209 7.37-4.865 7.37-2.775 0-4.596-2.954-4.745-6.863L0 27.665c.716 4.357 4.536 7.222 10.743 7.222 6.954 0 11.102-3.522 11.102-10.326V5.52c0-2.805 1.164-3.64 4.536-3.82V0ZM76.04 29.366V16.265c0-5.581-3.163-8.655-7.819-8.655-3.074 0-5.79 1.641-8.445 5.61V7.61h-1.224l-7.878 2.089v1.492l.626.15c2.209.268 2.806 1.283 2.806 3.133v14.892c0 2.148-1.224 2.656-3.432 3.133V34.2h12.593v-1.7c-2.208-.449-3.461-.986-3.461-3.134V15.13c2.208-2.656 4.178-3.67 6.147-3.67 2.805 0 4.447 1.79 4.447 5.252v12.624c0 2.149-1.164 2.715-3.163 3.133v1.701h12.325v-1.7c-2.239-.448-3.522-.956-3.522-3.104ZM123.103 19.07l-5.163-1.79c-2.089-.807-3.88-1.791-3.88-3.94 0-2.208 1.731-3.641 4.537-3.641 2.805 0 5.073 2 6.177 5.073l4.148-3.163c-1.164-1.79-4.387-3.999-9.878-3.999-5.789 0-9.52 2.955-9.52 7.73 0 4.148 3.014 5.968 6.596 7.251l5.103 1.79c1.999.717 3.432 2.06 3.462 4.179 0 2.507-2.239 4.178-4.954 4.178-2.955 0-5.671-2.447-7.043-6.178l-4.268 3.552c2 2.924 6.386 4.745 10.833 4.745 6.178 0 9.968-3.73 9.968-8.297 0-3.999-2.597-6.267-6.118-7.49ZM106.48 30.888c-1.94 0-2.596-.926-2.596-3.164V8.326h-2.298l-2 2.447c-1.283-1.7-3.372-3.163-6.893-3.163-7.013 0-12.743 5.431-12.743 14.474 0 6.953 3.88 12.773 10.773 12.773 3.372 0 6.088-2 7.46-4.536v4.566h1.224l8.088-2.298v-1.701h-1.015Zm-8.266-2.358c-.925 1.701-3.134 2.865-5.312 2.865-5.014 0-7.043-5.73-7.043-11.191 0-6.237 2.715-10.236 6.386-10.236 4.387 0 5.969 4.028 5.969 7.938V28.53ZM37.632 7.61c-7.043 0-12.683 5.79-12.683 14.175 0 7.521 4.745 13.102 12.385 13.102 7.102 0 12.773-5.67 12.773-14.116 0-7.461-4.805-13.161-12.475-13.161Zm.567 24.919c-5.013 0-7.371-6.864-7.371-12.922 0-5.61 2.298-9.61 6.088-9.61 5.014 0 7.371 6.864 7.371 12.833 0 5.64-2.298 9.699-6.088 9.699Z" fill="#FFF4E8"></path></svg>