<svg class="icon--logo c-pointer" height="30px" version="1.1" xmlns="http://www.w3.org/2000/svg" xmlns:xlink="http://www.w3.org/1999/xlink" x="0px" y="0px" viewBox="0 0 372.8 76" xml:space="preserve">
      <g class="hover-fill" fill="currentColor">
        <path d="M111,63.5H81.2v-1.8h1.5c1.1,0,2-0.4,2.7-1.1c0.7-0.7,1.1-1.6,1.2-2.7V19.1c-0.1-0.9-0.5-1.8-1.2-2.4c-0.7-0.7-1.6-1-2.6-1
        	h-1.5v-1.8h20.9c0.7,0,1.5,0,2.4-0.1s1.7-0.2,2.6-0.4c0.8-0.1,1.6-0.3,2.3-0.5c0.7-0.2,1.3-0.4,1.6-0.6v10.2h-1.8v-1.8
        	c0-0.9-0.3-1.8-1-2.4c-0.6-0.7-1.4-1-2.4-1.1H92.3v20.2h11.1c0.8,0,1.5-0.3,2-0.9c0.5-0.5,0.8-1.2,0.8-2v-1.6h1.8V45h-1.8v-1.6
        	c0-0.8-0.3-1.4-0.8-2c-0.5-0.5-1.2-0.8-1.9-0.9H92.4v19.7h9.3c1.8,0,3.3-0.2,4.5-0.7c1.3-0.4,2.3-1.1,3.3-1.9
        	c0.9-0.8,1.7-1.8,2.4-2.9c0.7-1.1,1.3-2.3,1.8-3.7h1.9L111,63.5z M137.6,57.8c0.1,1,0.5,1.9,1.2,2.7c0.7,0.7,1.6,1.1,2.7,1.1h1.5
        	v1.8h-16.5v-1.8h1.5c1.1,0,2-0.4,2.7-1.1c0.7-0.7,1.1-1.6,1.2-2.7V19.3c-0.1-1-0.5-1.9-1.2-2.7c-0.7-0.8-1.6-1.1-2.7-1.1h-1.5v-1.8
        	H143v1.8h-1.5c-1.1,0-2,0.4-2.7,1.1c-0.7,0.8-1.1,1.7-1.2,2.7V38l16.9-20.2c0.3-0.3,0.4-0.7,0.4-1c0-0.4-0.1-0.7-0.4-1
        	c-0.3-0.3-0.7-0.4-1.2-0.4H152v-1.8h15.8v1.8H167c-1.4,0-2.7,0.3-4,0.9c-1.2,0.6-2.2,1.3-3.1,2.3L143,37.1L162.6,59
        	c0.9,0.9,1.8,1.5,2.8,1.9s2.3,0.6,3.8,0.6v1.8h-3.5c-0.5,0-1.2,0-2.1-0.1c-0.9-0.1-1.8-0.2-2.8-0.5s-2.1-0.7-3.1-1.2
        	c-1.1-0.5-2-1.3-2.9-2.3l-17.3-19.8v18.4H137.6z M202.2,42c1.5,1.4,2.4,2.8,2.9,4.4c0.5,1.5,0.7,3,0.7,4.5c0,2-0.3,3.8-1,5.5
        	c-0.6,1.7-1.5,3.1-2.7,4.3s-2.6,2.1-4.3,2.8c-1.7,0.7-3.6,1-5.6,1c-0.9,0-1.9-0.1-3-0.2s-2.2-0.4-3.4-0.7c-1.1-0.3-2.2-0.8-3.3-1.3
        	c-1-0.5-1.9-1.2-2.6-1.9c-0.1-0.4-0.2-0.9-0.2-1.4s-0.1-1-0.1-1.5c0-1.1,0.1-2.4,0.3-3.8c0.2-1.4,0.5-2.7,0.9-3.9h1.7
        	c0,0.5-0.1,0.9-0.1,1.2s0,0.6,0,0.8c0,2.9,0.8,5.2,2.5,6.8c1.7,1.7,3.8,2.5,6.4,2.5h0.6c1.2,0,2.3-0.3,3.4-0.7c1.1-0.4,2-1,2.8-1.8
        	s1.4-1.7,1.9-2.7s0.7-2.2,0.7-3.5c0-2.5-0.9-4.5-2.6-6L185,34.1c-1.4-1.4-2.4-2.9-3.1-4.5c-0.6-1.6-0.9-3.2-0.9-4.6
        	c0-1.5,0.3-3,0.9-4.5c0.6-1.5,1.4-2.8,2.4-3.9c1.1-1.2,2.4-2.1,4-2.8s3.4-1.1,5.5-1.1c0.9,0,2,0.1,3,0.2c1.1,0.1,2.1,0.3,3,0.5h3.3
        	v9.7h-1.8c0-2.2-0.7-4-2.1-5.2c-1.4-1.3-3.1-1.9-5.1-1.9c-1.2,0-2.3,0.2-3.2,0.6c-1,0.4-1.8,0.9-2.5,1.6s-1.3,1.5-1.6,2.3
        	c-0.4,0.9-0.6,1.8-0.6,2.8c0,0.9,0.2,1.8,0.5,2.9c0.4,1.1,1.1,2.1,2.2,3.1L202.2,42z M249.2,13.7c0.7,0,1.5,0,2.4-0.1
        	s1.7-0.2,2.6-0.4c0.8-0.1,1.6-0.3,2.3-0.5c0.7-0.2,1.3-0.4,1.6-0.6v10.2h-1.8v-1.8c0-0.9-0.3-1.8-1-2.4c-0.6-0.7-1.4-1-2.4-1.1
        	h-12.7v40.9c0.1,1,0.5,1.9,1.2,2.7c0.7,0.7,1.6,1.1,2.7,1.1h1.5v1.8h-16.3v-1.8h1.5c1,0,1.9-0.4,2.6-1.1c0.7-0.7,1.1-1.6,1.2-2.6V17
        	H222c-1,0-1.7,0.4-2.4,1.1c-0.6,0.7-1,1.5-1,2.4v1.8h-1.8V12.1c0.4,0.2,1,0.4,1.7,0.6c0.7,0.2,1.5,0.4,2.3,0.5s1.7,0.3,2.6,0.4
        	c0.9,0.1,1.7,0.1,2.4,0.1C225.8,13.7,249.2,13.7,249.2,13.7z M298.2,63.5h-29.8v-1.8h1.5c1.1,0,2-0.4,2.7-1.1
        	c0.7-0.7,1.1-1.6,1.2-2.7V19.1c-0.1-0.9-0.5-1.8-1.2-2.4c-0.7-0.7-1.6-1-2.6-1h-1.5v-1.8h20.9c0.7,0,1.5,0,2.4-0.1s1.7-0.2,2.6-0.4
        	c0.8-0.1,1.6-0.3,2.3-0.5c0.7-0.2,1.3-0.4,1.6-0.6v10.2h-1.8v-1.8c0-0.9-0.3-1.8-1-2.4c-0.6-0.7-1.4-1-2.4-1.1h-13.5v20.2h11.1
        	c0.8,0,1.5-0.3,2-0.9c0.5-0.5,0.8-1.2,0.8-2v-1.6h1.8V45h-1.8v-1.6c0-0.8-0.3-1.4-0.8-2c-0.5-0.5-1.2-0.8-1.9-0.9h-11.1v19.7h9.3
        	c1.8,0,3.3-0.2,4.5-0.7c1.3-0.4,2.3-1.1,3.3-1.9c0.9-0.8,1.7-1.8,2.4-2.9c0.7-1.1,1.3-2.3,1.8-3.7h1.9L298.2,63.5z M332.1,13.9
        	c4.4,0,7.8,1.2,10.3,3.6s3.8,5.8,3.8,10c0,1.6-0.3,3.2-0.8,4.7s-1.3,2.9-2.2,4.2c-0.9,1.3-2.1,2.3-3.4,3.2s-2.7,1.4-4.2,1.6
        	c0.7,0.5,1.3,1.2,2,1.9c0.6,0.8,1.2,1.5,1.8,2.1c1.1,1.6,2.2,3.1,3.3,4.6c0.9,1.2,1.8,2.5,2.8,3.8s1.8,2.3,2.5,3
        	c1.4,1.5,2.8,2.7,4.2,3.7c1.4,0.9,3.2,1.4,5.4,1.4v1.8h-4.4c-1.7,0-3.1-0.2-4.4-0.6c-1.3-0.4-2.5-0.9-3.5-1.5s-1.9-1.3-2.6-2
        	s-1.4-1.5-2-2.2c-0.1-0.1-0.3-0.4-0.6-0.9c-0.3-0.4-0.7-1-1.2-1.7c-0.4-0.7-0.9-1.4-1.5-2.2c-0.5-0.8-1.1-1.6-1.7-2.4
        	c-1-1.4-2.1-2.9-3.2-4.4s-1.8-2.6-2.2-3.1c-0.4-0.5-0.8-1-1.3-1.5c-0.5-0.4-0.9-0.8-1.5-1c-0.5-0.3-1.8-0.4-3.7-0.4v18.2
        	c0.1,1,0.5,1.9,1.2,2.7c0.7,0.7,1.6,1.1,2.7,1.1h1.5v1.8h-16.3v-1.8h1.5c1.1,0,2-0.4,2.7-1.1c0.7-0.7,1.1-1.6,1.2-2.7V19.4
        	c-0.1-1-0.5-1.9-1.2-2.7c-0.7-0.8-1.6-1.1-2.7-1.1h-1.5v-1.8L332.1,13.9z M327.8,37.9c0.4,0,0.9,0,1.4-0.1c0.9,0,1.8-0.1,2.8-0.2
        	c1-0.2,2-0.5,2.9-1c1-0.5,1.9-1.1,2.7-2c0.8-0.9,1.4-2,1.9-3.5c0.2-0.9,0.4-2,0.4-3.3v-0.6c-0.1-3-0.8-5.3-2.2-7.1
        	c-1.4-1.8-3.3-2.7-5.7-2.8c-0.8,0-1.6-0.1-2.4-0.1s-1.5,0-2.2,0s-1.3,0-1.8,0s-1,0-1.3,0h-0.4V38L327.8,37.9L327.8,37.9z M34.2,64.6
        	l0.3,0.1c0.1,0,0.2,0,0.2,0c0.1,0,0.2,0,0.2,0l0.3-0.1c0.8-0.2,20.2-4.4,21.2-19c0-0.1,0-0.1,0-0.2V17.6c0-0.3-0.1-0.6-0.4-0.8
        	c-0.2-0.2-0.5-0.3-0.8-0.3c0,0-1.1,0.1-2.8,0.1c-4.4,0-12.4-0.6-17.1-5c-0.4-0.4-1.1-0.4-1.5,0c-3.5,3.3-8.9,4.4-13.3,4.8
        	c-1.4,0.1-2.7,0.2-3.8,0.2c-1.7,0-2.8-0.1-2.8-0.1c-0.3,0-0.6,0.1-0.8,0.3c-0.2,0.2-0.4,0.5-0.4,0.8v7.5v20.4c0,0.1,0,0.1,0,0.2
        	C14,60.2,33.4,64.5,34.2,64.6z M15.2,18.8c0.5,0,1.1,0,1.8,0c1.1,0,2.4,0,3.8-0.2c4.4-0.4,10-1.5,14-4.8c5.3,4.3,13.4,4.9,17.8,4.9
        	c0.7,0,1.3,0,1.8,0v26.6l0,0c-0.8,13-18.7,16.9-19.5,17.1h-0.1h-0.1c-0.8-0.2-18.7-4-19.5-17.1l0,0V25.1
        	C15.2,25.1,15.2,18.8,15.2,18.8z M45.1,45.7c-0.1,0.2-0.2,0.3-0.2,0.5c-0.3,0.6-0.6,1.2-0.9,1.8c-0.4,0.7-0.9,1.3-1.5,1.8
        	s-1.3,0.9-2,1.2c-0.6,0.2-1.4,0.4-2.2,0.4c-0.2,0-0.4,0-0.6,0h-5.8V39.1h7c0.4,0,0.8,0.2,1.2,0.6c0.3,0.3,0.5,0.7,0.5,1.2v1h1.2
        	v-7.6h-1.2v1c0,0.5-0.2,0.9-0.5,1.3c-0.3,0.3-0.8,0.5-1.3,0.6h-6.9V24.5h8.4c0.6,0.1,1.1,0.3,1.5,0.7c0.4,0.4,0.6,0.9,0.6,1.5v1.2
        	h1.2v-6.4c-0.2,0.1-0.6,0.2-1,0.4c-0.6,0-1.1,0.1-1.6,0.2s-1.1,0.2-1.6,0.2c-0.5,0.1-1,0.1-1.5,0.1H24.8v1.2h0.9
        	c0.6,0,1.2,0.2,1.6,0.6c0.5,0.4,0.7,0.9,0.8,1.5V50c-0.1,0.7-0.3,1.3-0.8,1.7c-0.4,0.5-1,0.7-1.7,0.7h-0.9v1.2h13.5h5.2l2.7-7.3
        	l0.2-0.5h-1.2V45.7z"></path>
      </g>
      <style>.main-nav__logo-wrapper .icon--logo:hover .hover-fill { fill: ;}</style>
    </svg>