<svg xmlns="http://www.w3.org/2000/svg" class="header__logo--wordmark" viewBox="0 0 74 21" fill="none">
  <path d="M58.064 8.12752C58.1067 8.5498 58.1258 8.9741 58.1214 9.39848V20.3605H60.4146V7.97289C60.4146 7.35224 60.4429 6.84314 60.4713 6.25285L57.6367 6.22461C57.8748 6.7916 58.001 7.41366 58.064 8.12752Z" fill="#0E334B"></path>
  <path d="M69.0846 13.292C72.7943 12.6565 74.1272 9.80529 71.3522 7.15745C70.6549 6.49302 69.6862 6.14209 68.4978 6.14209C65.7553 6.14209 63.3247 9.15992 63.3247 13.842C63.3247 17.1416 65.1431 20.4411 68.7813 20.4411C71.1595 20.4411 72.8106 18.7776 73.7063 16.7751L73.0069 16.2957C72.1388 17.6492 71.1878 18.5516 69.6203 18.5516C66.5908 18.5516 65.5909 15.6616 65.5909 13.1952C65.5839 13.1952 67.3129 13.5956 69.0846 13.292ZM68.6594 7.15745C70.3807 7.15745 70.8136 8.624 70.8136 9.69584C70.8136 10.9668 70.2318 11.7181 69.3524 12.0203C67.1159 12.7899 65.581 11.944 65.581 11.944C65.581 11.944 65.7072 7.15745 68.6594 7.15745Z" fill="#0E334B"></path>
  <path d="M26.2346 13.292C29.9443 12.6565 31.278 9.80529 28.5022 7.15745C27.8049 6.49302 26.8362 6.14209 25.6478 6.14209C22.9054 6.14209 20.4712 9.15992 20.4712 13.842C20.4712 17.1416 22.2903 20.4411 25.9277 20.4411C28.3066 20.4411 29.9571 18.7776 30.8528 16.7751L30.1534 16.2957C29.286 17.6492 28.3343 18.5516 26.7675 18.5516C23.7373 18.5516 22.7374 15.6616 22.7374 13.1952C22.7396 13.1952 24.463 13.5956 26.2346 13.292ZM25.8158 7.15745C27.5371 7.15745 27.9707 8.624 27.9707 9.69584C27.9707 10.9668 27.3882 11.7181 26.5088 12.0203C24.2723 12.7899 22.7374 11.944 22.7374 11.944C22.7374 11.944 22.8607 7.15745 25.8158 7.15745Z" fill="#0E334B"></path>
  <path d="M37.981 13.292C41.6908 12.6565 43.0244 9.80529 40.2487 7.15745C39.5514 6.49302 38.5827 6.14209 37.3943 6.14209C34.6518 6.14209 32.2212 9.15992 32.2212 13.842C32.2212 17.1416 34.0403 20.4411 37.6777 20.4411C40.0566 20.4411 41.7071 18.7776 42.6028 16.7751L41.9034 16.2957C41.036 17.6492 40.0843 18.5516 38.5175 18.5516C35.4873 18.5516 34.4874 15.6616 34.4874 13.1952C34.4839 13.1952 36.2094 13.5956 37.981 13.292ZM37.5622 7.15745C39.2835 7.15745 39.7172 8.624 39.7172 9.69584C39.7172 10.9668 39.1347 11.7181 38.2553 12.0203C36.0188 12.7899 34.4839 11.944 34.4839 11.944C34.4839 11.944 34.6072 7.15745 37.5622 7.15745Z" fill="#0E334B"></path>
  <path d="M17.0364 6.12012C15.9628 6.12012 15.539 6.79585 15.539 7.69682C15.539 8.82303 16.9513 9.35754 16.9513 10.2303C16.9513 10.906 16.5559 12.0597 16.3582 12.5667L14.3775 17.6583H14.3216L10.6798 6.34183H10.3121L6.69798 17.1796H6.642L3.27808 6.12012L0.629883 6.89187C1.09192 7.39037 1.42285 7.98349 1.6808 8.58296C1.73418 8.70111 1.78828 8.83362 1.84308 8.98049C1.93662 9.22409 2.02024 9.46416 2.09748 9.69576C2.02024 9.46416 1.93662 9.22409 1.84308 8.98049C1.93024 9.20926 2.02095 9.47475 2.12016 9.77625L5.53865 20.3888H6.69586L9.85995 10.7612H9.91664L13.0247 20.3888H14.2677L17.4034 12.7037C18.0816 11.0147 18.6464 9.55101 18.6464 7.9729C18.6464 6.8488 18.1659 6.12012 17.0364 6.12012Z" fill="#0E334B"></path>
  <path d="M59.2822 0.976074C58.3737 0.976074 57.855 1.59602 57.855 2.3466C57.855 3.09717 58.3737 3.71923 59.2822 3.71923C60.1907 3.71923 60.7094 3.09929 60.7094 2.34942C60.7094 1.59955 60.1907 0.976074 59.2822 0.976074Z" fill="#0E334B"></path>
  <path d="M49.8095 19.0417C49.5413 19.0717 49.2716 19.0866 49.0017 19.0862H47.1628L55.1576 7.46183V6.67454H49.0555C48.5184 6.67454 47.9536 6.64629 47.3888 6.61876C46.8517 6.59051 46.3436 6.53403 45.9474 6.47754L45.4337 8.72291C46.8509 8.14038 48.8734 7.80499 50.2921 7.71461C50.5047 7.69766 50.7173 7.68848 50.9483 7.68848H52.474L44.5918 19.0325V20.1008H51.3721C51.8724 20.1002 52.3723 20.1283 52.8694 20.1849C53.3499 20.2414 53.8296 20.2978 54.2251 20.4101L54.7615 17.9233C53.3988 18.558 51.3147 18.928 49.8095 19.0417Z" fill="#0E334B"></path>
</svg>