<svg xmlns="http://www.w3.org/2000/svg" class="logo" width="200" height="33.933" viewBox="0 0 200 33.933">
    <g id="Layer_2" data-name="Layer 2" transform="translate(0 0.004)">
      <g id="Layer_1" data-name="Layer 1" transform="translate(0 -0.004)">
        <path id="Path_1" data-name="Path 1" d="M1208.663.081a3.659,3.659,0,0,1,2.105.14,2.746,2.746,0,0,1,1.587,2.16q1.245,11.712,2.5,23.427a2.729,2.729,0,0,1-1.5,2.684,3.423,3.423,0,0,1-1.365.314L1169.07,33.38c-2.905-1.87-5.769-3.817-8.663-5.712-.969-.65-1.954-1.275-2.91-1.94-.05-1.289-.177-2.577-.228-3.862,1.02.044,2.042.055,3.061.112a2.676,2.676,0,0,0,4.775-.509,2.741,2.741,0,0,0-.385-2.611,2.678,2.678,0,0,0-4.579.556c-1.013-.021-2.026-.064-3.038-.093-.11-1.254-.164-2.514-.261-3.768q4.949-5.331,9.909-10.653a1.93,1.93,0,0,1,.4-.388Q1187.905,2.292,1208.663.081Z" transform="translate(-1014.863 0.004)" fill="#b9031b"></path>
        <path id="Path_2" data-name="Path 2" d="M0,38.89H21.382v5.784H14.173V68.023c-2.3.033-4.6.01-6.9.012-.009-7.787.007-15.575-.007-23.363-2.416,0-4.839.009-7.264,0Z" transform="translate(0 -34.116)" fill="#b9031b"></path>
        <path id="Path_3" data-name="Path 3" d="M198.778,38.87h12.138a18.432,18.432,0,0,1,6.383.839,7.693,7.693,0,0,1,4.042,3.91,9.343,9.343,0,0,1,.786,5.594,7.241,7.241,0,0,1-2.378,4.354,10.655,10.655,0,0,1-2.521,1.619q2.686,6.4,5.35,12.824c-2.516.034-5.032.007-7.549.015q-2.246-5.759-4.48-11.52c-1.632-.007-3.266,0-4.9,0V68.012c-2.288.033-4.58.012-6.874.011Q198.771,53.446,198.778,38.87Zm6.874,5.212v7.385h4.308a9.327,9.327,0,0,0,3.012-.328,3.8,3.8,0,0,0,1.952-4.837,3.249,3.249,0,0,0-2.562-2.086c-2.233-.2-4.478-.114-6.713-.134Z" transform="translate(-174.376 -34.099)" fill="#b9031b"></path>
        <path id="Path_4" data-name="Path 4" d="M417.934,38.852c2.662.009,5.325-.023,7.987.017Q430.44,53.437,435,67.988c-2.455.038-4.91.017-7.365.011-.6-1.987-1.187-3.979-1.791-5.966q-4.695-.007-9.39,0c-.608,1.983-1.216,3.965-1.807,5.954-2.011.049-4.021.011-6.032.02Q413.267,53.425,417.934,38.852ZM418.1,56.63h6.137q-1.523-5.088-3.053-10.172C420.179,49.852,419.13,53.237,418.1,56.63Z" transform="translate(-358.47 -34.079)" fill="#b9031b"></path>
        <path id="Path_5" data-name="Path 5" d="M648.748,38.86h6.806V68.016h-6.8Q648.737,53.44,648.748,38.86Z" transform="translate(-569.121 -34.09)" fill="#b9031b"></path>
        <path id="Path_6" data-name="Path 6" d="M751.877,38.852h7.365c3.269,5.706,6.581,11.387,9.827,17.1-.141-2.332-.042-4.672-.071-7.01V38.85h5.271c.025,4.132,0,8.265.01,12.4-.014,1.3.028,2.594-.022,3.891-1.458.279-2.867.779-4.3,1.189-2.332.723-4.627,1.556-6.9,2.445-1.979-3.456-3.989-6.892-5.97-10.355-.027.582.07,1.156.091,1.735V61.408c-1.793.966-3.609,1.9-5.311,3.023Q751.879,51.64,751.877,38.852Z" transform="translate(-659.592 -34.081)" fill="#b9031b"></path>
        <path id="Path_7" data-name="Path 7" d="M973.185,38.859q11.017-.009,22.036,0c.007,1.69,0,3.378,0,5.068-2.417,3.082-4.872,6.137-7.3,9.212-.133.123-.232.361-.447.338-2.7.088-5.412.238-8.113.414q3.748-4.727,7.468-9.475c-4.55-.017-9.1,0-13.65-.007Q973.182,41.632,973.185,38.859Z" transform="translate(-853.74 -34.085)" fill="#b9031b"></path>
        <path id="Path_8" data-name="Path 8" d="M969.9,182.777c2.773-.265,5.558-.384,8.347-.517-1.6,1.985-3.153,3.99-4.751,5.97h15.164v5.587H965.151q-.011-2.422,0-4.839a.533.533,0,0,1,.172-.389C966.852,186.659,968.365,184.709,969.9,182.777Z" transform="translate(-846.692 -159.891)" fill="#b9031b"></path>
        <path id="Path_9" data-name="Path 9" d="M854.89,197.472c3.191-1.295,6.453-2.373,9.747-3.352.032,3.367.023,6.736,0,10.1-1.964-.011-3.918.02-5.874-.016C857.481,201.961,856.163,199.727,854.89,197.472Z" transform="translate(-749.968 -170.296)" fill="#b9031b"></path>
        <path id="Path_10" data-name="Path 10" d="M754.3,251.232c.9-.529,1.786-1.089,2.73-1.542.007,1.094,0,2.187,0,3.282-1.776-.018-3.56.043-5.33-.034A30.673,30.673,0,0,1,754.3,251.232Z" transform="translate(-659.442 -219.045)" fill="#b9031b"></path>
      </g>
    </g>
  </svg>