<svg version="1.1" id="Layer_1" class="icon icon--wide icon-logo" role="img" aria-labelledby="soylent-logo-svg" xmlns="http://www.w3.org/2000/svg" xmlns:xlink="http://www.w3.org/1999/xlink" x="0px" y="0px" viewBox="0 0 150 71" style="enable-background:new 0 0 150 71;" xml:space="preserve">
  <title id="soylent-logo-svg">soylent logo</title>
  <path class="st0" d="M62.6,123h-0.4c-2.7,0-4.9,1.8-4.9,4v2.3h10.1v-2.3C67.4,124.8,65.3,123,62.6,123z M15.3,127.1
    c0-2.2-2.2-4-4.8-4H10c-2.7,0-4.8,1.8-4.8,4v7.5c0,2.2,2.2,4,4.8,4h0.5c2.7,0,4.8-1.8,4.8-4L15.3,127.1L15.3,127.1z"></path>
  <g>
    <path class="st1" d="M21.2,34.3c-3.1-0.6-5-1.5-5-2.5v-0.3c0-2.6,4.4-2.6,4.6-2.6h0.3c2.2,0,3.8,0.9,4.7,1.6
      c0.7,0.6,1.9,0.2,2.2-0.6c0.2-0.5,0-1.1-0.5-1.5c-1.3-0.9-3.3-2.2-6.5-2.2h-0.3c-3.5,0-7.3,1.6-7.3,5.2v0.3c0,3.9,5.5,4.7,7.3,5
      c3.6,0.6,5.7,1.4,5.7,3.6c0,3.1-4.3,3.2-5.2,3.2h-0.4c-1.9,0-4.6-1.2-5.5-2.7c-0.2-0.4-0.7-0.7-1.2-0.7c-0.5,0-1.1,0.3-1.3,0.7
      c-0.2,0.4-0.2,0.9,0,1.2c1.4,2.6,5.1,4.1,8,4.1h0.4c3.7,0,8-1.5,8-5.9C29.3,35.6,24.6,34.8,21.2,34.3L21.2,34.3L21.2,34.3z
       M41.1,26.2h-0.5c-4.2,0-7.6,2.9-7.6,6.4v7.1c0,3.6,3.4,6.4,7.6,6.4h0.5c4.2,0,7.6-2.9,7.6-6.4v-7.1C48.6,29.1,45.2,26.2,41.1,26.2
      L41.1,26.2z M41.1,43.6h-0.5c-2.6,0-4.8-1.7-4.8-3.8v-7.1c0-2.1,2.1-3.8,4.8-3.8h0.5c2.6,0,4.8,1.7,4.8,3.8v7.1
      C45.8,41.9,43.7,43.6,41.1,43.6L41.1,43.6z M67.5,26.2c-0.8,0-1.4,0.6-1.4,1.3V40l0,0.4c-0.2,1.8-2.4,3.2-4.8,3.2h-0.5
      c-2.6,0-4.8-1.7-4.8-3.9V27.5c0-0.8-0.6-1.3-1.4-1.3c-0.8,0-1.4,0.6-1.4,1.3v12.2c0,3.6,3.4,6.5,7.6,6.5h0.5c1.7,0,3.5-0.5,4.8-1.3
      v2.6c0,2.1-2.1,3.8-4.8,3.8h-0.5c-2.5,0-4.7-1.1-5.3-2.6c-0.2-0.5-0.7-0.9-1.3-0.9c-0.7,0-1.4,0.5-1.4,1.3c0,0.1,0,0.3,0.1,0.6
      c1.1,2.8,4.8,4.2,7.9,4.2h0.5c4.2,0,7.6-2.9,7.6-6.4v-20C68.9,26.7,68.2,26.2,67.5,26.2L67.5,26.2L67.5,26.2z M81.6,44.1
      c-0.3-0.3-0.7-0.5-1.1-0.5c-1.8,0-3.3-1.2-3.3-2.6V19.8c0-0.8-0.6-1.3-1.4-1.3c-0.8,0-1.4,0.6-1.4,1.3V41c0,2.9,2.7,5.2,6.1,5.2
      c0.9,0,1.4-0.7,1.4-1.3c0-0.2,0-0.3-0.1-0.5C81.8,44.5,81.7,44.3,81.6,44.1C81.6,44.1,81.6,44.1,81.6,44.1z M92.6,26.2h-0.4
      c-4.2,0-7.6,2.9-7.6,6.4v7.1c0,3.6,3.4,6.4,7.6,6.4h0.5c3.2,0,6.1-1.7,7.1-4.3l0-0.1c0-0.1,0.1-0.2,0.1-0.4c0-0.7-0.6-1.3-1.5-1.3
      c-0.6,0-1.2,0.4-1.3,0.8c-0.7,1.6-2.5,2.7-4.5,2.7h-0.5c-2.6,0-4.8-1.7-4.8-3.8v-2.3h11.4c0.8,0,1.4-0.6,1.4-1.3v-3.5
      C100.3,29,97,26.2,92.6,26.2L92.6,26.2z M97.5,32.6v2.2h-10v-2.2c0-2.1,2.2-3.8,4.8-3.8h0.4C95.3,28.8,97.5,30.5,97.5,32.6z
       M113.1,26.2h-0.4c-1.8,0-3.5,0.5-4.8,1.4v0c0-0.7-0.6-1.3-1.4-1.3c-0.8,0-1.4,0.6-1.4,1.3v17.4c0,0.7,0.6,1.3,1.4,1.3
      c0.8,0,1.4-0.6,1.4-1.3V32.3c0-1.9,2.2-3.5,4.8-3.5h0.4c2.7,0,4.8,1.7,4.8,3.9v12.2c0,0.7,0.6,1.3,1.4,1.3c0.7,0,1.4-0.5,1.4-1.3
      V32.7C120.7,29.1,117.3,26.2,113.1,26.2L113.1,26.2z M133,43.6c-1.8,0-3.3-1.1-3.3-2.6V28.9h3c0.9,0,1.4-0.7,1.4-1.3
      c0-0.6-0.5-1.3-1.4-1.3h-3v-6.5c0-0.7-0.6-1.3-1.4-1.3c-0.8,0-1.4,0.6-1.4,1.3v6.5h-1.5c-0.9,0-1.4,0.7-1.4,1.3c0,0.1,0,0.1,0,0.2
      c0,0.2,0.1,0.4,0.1,0.4c0.2,0.4,0.7,0.8,1.3,0.8h1.5V41c0,2.9,2.7,5.2,6.1,5.2c0.9,0,1.4-0.7,1.4-1.3
      C134.4,44.3,133.9,43.6,133,43.6L133,43.6z"></path>
    <path class="st1" d="M0,0v71h150V0H0z M3.2,68V3h143.7v65L3.2,68L3.2,68z"></path>
  </g>
  </svg>