<svg class="header__heading-logo-svg" width="165" height="52.5" viewBox="0 0 241 72" fill="none" xmlns="http://www.w3.org/2000/svg">
            <path d="M32.0094 32.79C31.1693 33.7292 30.1912 34.1926 29.0878 34.1926C28.047 34.1926 27.2194 34.0173 26.605 33.6541C25.9905 33.3035 25.4513 32.8902 24.9999 32.4394C24.5485 31.9886 24.0595 31.5878 23.5454 31.2247C23.0313 30.8741 22.3165 30.6862 21.4011 30.6862C20.6237 30.6862 19.8588 30.9617 19.119 31.5127C18.3666 32.0637 17.677 32.765 17.0249 33.604C16.3729 34.443 15.7961 35.3948 15.2694 36.4717C14.7553 37.5361 14.2914 38.563 13.9026 39.5273V67.503C14.0907 68.0916 14.517 68.5424 15.1691 68.868C15.8211 69.1936 16.5484 69.419 17.3635 69.5442C18.1785 69.6694 19.0187 69.7571 19.8964 69.7821C20.7742 69.8197 21.5265 69.8948 22.1786 70.0201V70.9968H0.397766V70.0201C1.88995 69.8948 3.16895 69.5943 4.2348 69.1435C5.30064 68.6927 5.83983 67.9413 5.83983 66.9144V34.0924C5.83983 33.579 5.78968 33.1908 5.68936 32.9278C5.58905 32.6648 5.31318 32.3768 4.86176 32.0512C4.27242 31.7256 3.59529 31.3249 2.81785 30.8365C2.04041 30.3481 1.26299 29.9474 0.485551 29.6218V29.0332L13.2255 24.0742H13.8149L13.6268 37.5737H13.8149C14.1409 36.7973 14.655 35.6703 15.3697 34.1801C16.0845 32.6898 16.9873 31.1871 18.0908 29.6593C19.1942 28.1441 20.5234 26.8292 22.0783 25.7272C23.6332 24.6252 25.4137 24.0742 27.4326 24.0742C29.0501 24.0742 30.4295 24.5626 31.5706 25.5269C32.6991 26.5036 33.2759 27.7309 33.2759 29.2211C33.2759 30.6486 32.8496 31.8258 32.0094 32.765V32.79Z" fill="white"></path>
            <path d="M74.6056 61.0522C73.7028 62.8304 72.4614 64.4709 70.9065 65.9611C69.3517 67.4513 67.4833 68.6785 65.314 69.6553C63.1447 70.6321 60.7246 71.1079 58.0663 71.1079C54.7559 71.1079 51.7464 70.4943 49.0254 69.2671C46.3044 68.0399 43.9846 66.2992 42.0661 64.0702C40.1476 61.8411 38.6805 59.2113 37.6397 56.2059C36.5989 53.2004 36.0848 50.0072 36.0848 46.6385C36.0848 43.9211 36.5738 41.2162 37.5394 38.5238C38.5174 35.8314 39.8842 33.4271 41.6774 31.2857C43.458 29.1443 45.6272 27.4162 48.1978 26.0888C50.7558 24.7614 53.5897 24.0977 56.712 24.0977C59.245 24.0977 61.6274 24.4232 63.8594 25.0744C66.0914 25.7256 68.0476 26.7149 69.6902 28.0423C71.3454 29.3697 72.6871 31.0352 73.7279 33.0389C74.7686 35.0425 75.3831 37.4093 75.5712 40.1267H44.3483C44.3483 40.6402 44.3106 41.2413 44.2479 41.93C44.1852 42.6062 44.1476 43.3075 44.1476 44.0213C44.1476 46.7387 44.5363 49.3435 45.3138 51.8355C46.0912 54.3275 47.2197 56.5315 48.7119 58.4349C50.2041 60.3509 52.085 61.8536 54.3546 62.9556C56.6242 64.0576 59.2449 64.6086 62.2293 64.6086C65.4644 64.6086 68.3109 63.7821 70.7435 62.1291C73.1761 60.4761 74.7812 58.46 75.5586 56.0556L76.336 56.256C76.0727 57.6836 75.4959 59.2865 74.5805 61.0647L74.6056 61.0522ZM63.4707 28.3178C61.8155 26.6022 59.5961 25.7381 56.8123 25.7381C54.9941 25.7381 53.364 26.2766 51.8969 27.341C50.4423 28.4055 49.1759 29.6577 48.0975 31.0853C47.0317 32.5129 46.204 33.953 45.6147 35.4057C45.0253 36.8583 44.6743 37.9853 44.5489 38.7618C46.0411 38.7618 47.3702 38.7618 48.5364 38.7618C49.7025 38.7618 50.8562 38.7492 51.9847 38.7117C53.1132 38.6741 54.3045 38.649 55.5333 38.6115C56.7622 38.5739 58.129 38.5614 59.6211 38.5614C60.5992 38.5614 61.502 38.5238 62.3422 38.4612C63.1823 38.3986 63.9346 38.2358 64.5742 37.9728C65.0256 37.4594 65.3642 36.971 65.5899 36.5202C65.8156 36.0694 65.9284 35.3931 65.9284 34.479C65.9284 32.0871 65.1008 30.0334 63.4456 28.3053L63.4707 28.3178Z" fill="white"></path>
            <path d="M165.578 61.0483C164.676 62.8265 163.434 64.467 161.879 65.9572C160.324 67.4474 158.456 68.6746 156.287 69.6514C154.117 70.6282 151.697 71.104 149.039 71.104C145.729 71.104 142.719 70.4904 139.998 69.2632C137.277 68.036 134.957 66.2953 133.039 64.0663C131.12 61.8372 129.653 59.2074 128.612 56.202C127.572 53.1965 127.058 50.0032 127.058 46.6346C127.058 43.9172 127.547 41.2123 128.512 38.5199C129.49 35.8275 130.857 33.4232 132.65 31.2818C134.431 29.1404 136.6 27.4123 139.171 26.0849C141.729 24.7575 144.575 24.0938 147.685 24.0938C150.218 24.0938 152.6 24.4193 154.832 25.0705C157.064 25.7217 159.02 26.711 160.663 28.0384C162.318 29.3658 163.66 31.0313 164.701 33.035C165.741 35.0386 166.356 37.4054 166.544 40.1228H135.321C135.321 40.6363 135.283 41.2373 135.221 41.9261C135.158 42.6023 135.12 43.3036 135.12 44.0174C135.12 46.7348 135.509 49.3395 136.287 51.8316C137.064 54.3236 138.193 56.5276 139.685 58.431C141.177 60.347 143.058 61.8497 145.327 62.9517C147.597 64.0537 150.218 64.6047 153.202 64.6047C156.437 64.6047 159.284 63.7782 161.716 62.1252C164.149 60.4722 165.754 58.4561 166.531 56.0517L167.309 56.2521C167.046 57.6797 166.469 59.2826 165.553 61.0608L165.578 61.0483ZM154.444 28.3139C152.788 26.5983 150.569 25.7342 147.785 25.7342C145.967 25.7342 144.337 26.2727 142.87 27.3371C141.415 28.4016 140.149 29.6538 139.083 31.0814C138.017 32.509 137.189 33.9491 136.6 35.4018C136.011 36.8544 135.66 37.9814 135.534 38.7578H139.522C140.688 38.7578 141.841 38.7453 142.97 38.7078C144.099 38.6702 145.29 38.6451 146.519 38.6076C147.747 38.57 149.114 38.5575 150.606 38.5575C151.585 38.5575 152.487 38.5199 153.328 38.4573C154.168 38.3947 154.92 38.2319 155.56 37.9689C156.011 37.4555 156.349 36.9671 156.575 36.5163C156.801 36.0655 156.914 35.3892 156.914 34.4751C156.914 32.0832 156.086 30.0295 154.431 28.3014L154.444 28.3139Z" fill="white"></path>
            <path d="M170.143 71.0086V69.9442C173.127 69.7564 175.108 69.4433 176.074 69.0175C177.052 68.5918 177.528 67.8654 177.528 66.8261V10.9747C177.528 10.4613 177.478 10.0731 177.378 9.81013C177.278 9.54715 177.002 9.25913 176.55 8.93354C175.974 8.60795 175.096 8.10704 173.93 7.43081C172.764 6.75459 171.785 6.25368 171.008 5.92809V5.33952L184.927 0.78125H185.604V67.3144C185.604 67.9656 185.754 68.454 186.043 68.7671C186.331 69.0927 186.77 69.3181 187.359 69.4433C187.949 69.5685 188.688 69.6562 189.591 69.6812C190.494 69.7188 191.572 69.7939 192.801 69.9192V70.9836H170.143V71.0086Z" fill="white"></path>
            <path d="M239.686 65.0814C239.172 66.246 238.482 67.2979 237.642 68.2371C236.802 69.1763 235.811 69.8901 234.67 70.3785C233.529 70.8669 232.288 71.1048 230.921 71.1048C228.714 71.1048 226.758 70.4537 225.04 69.1638C223.322 67.874 222.47 65.6074 222.47 62.364L222.269 62.2638C221.755 63.1028 221.053 64.042 220.175 65.0814C219.297 66.1208 218.256 67.085 217.065 67.9992C215.861 68.9008 214.532 69.6397 213.078 70.1907C211.623 70.7417 210.018 71.0172 208.263 71.0172C207.222 71.0172 206.168 70.8669 205.103 70.5789C204.037 70.2909 203.059 69.7649 202.181 69.0261C201.303 68.2872 200.589 67.323 200.037 66.1584C199.485 64.9937 199.209 63.5662 199.209 61.8881C199.209 60.0723 199.936 58.3317 201.404 56.6411C202.858 54.9631 204.664 53.4353 206.795 52.0703C208.94 50.7053 210.833 49.5407 212.488 48.5765C214.144 47.5997 215.586 46.7857 216.814 46.097C218.043 45.4207 219.134 44.8322 220.075 44.3438C221.015 43.8554 221.805 43.4171 222.457 43.0289V33.0232C222.457 32.898 222.344 32.585 222.119 32.0966C221.893 31.6082 221.504 31.1073 220.952 30.5938C220.401 30.0804 219.636 29.6045 218.67 29.1913C217.692 28.7655 216.438 28.5652 214.871 28.5652C213.83 28.5652 212.814 28.7405 211.811 29.1036C210.808 29.4543 209.918 29.9176 209.14 30.4686C208.363 31.0196 207.748 31.5706 207.297 32.1216C206.846 32.6726 206.62 33.136 206.62 33.5242V37.8946C206.62 38.7962 206.143 39.6102 205.216 40.324C204.275 41.0378 203.259 41.3884 202.156 41.3884C201.115 41.3884 200.225 41.0127 199.485 40.2739C198.745 39.5351 198.369 38.671 198.369 37.6942C198.369 36.9178 198.557 36.204 198.958 35.5528C199.347 34.9017 199.836 34.3256 200.413 33.7997C201.002 33.2862 201.629 32.8229 202.306 32.4347C202.984 32.0465 203.585 31.6958 204.112 31.3703C205.792 30.3935 207.51 29.4668 209.266 28.5526C211.021 27.651 212.689 26.8746 214.269 26.2234C215.861 25.5722 217.316 25.0588 218.645 24.6706C219.974 24.2824 221.065 24.082 221.905 24.082C223.586 24.082 225.178 24.5203 226.67 25.3969C228.162 26.2735 229.228 27.3505 229.88 28.6528C230.144 29.1036 230.307 29.9051 230.369 31.0321C230.432 32.1717 230.47 33.2862 230.47 34.3882C230.47 36.7175 230.457 38.8213 230.42 40.6997C230.382 42.5781 230.369 44.3939 230.369 46.1345C230.369 47.8877 230.357 49.6785 230.319 51.5193C230.282 53.3601 230.269 55.3888 230.269 57.5928C230.269 60.5106 230.771 62.4391 231.774 63.3658C232.777 64.305 233.931 64.7683 235.222 64.7683C236.714 64.7683 237.818 64.4678 238.533 63.8417C239.247 63.228 239.736 62.4391 239.987 61.4623H240.576C240.514 62.6896 240.213 63.8918 239.699 65.0564L239.686 65.0814ZM222.47 44.5817C221.303 45.4207 219.849 46.3099 218.093 47.2491C216.338 48.1883 214.645 49.2026 212.99 50.3046C211.335 51.4066 209.905 52.6213 208.714 53.9487C207.51 55.2761 206.908 56.7788 206.908 58.4694C206.908 60.16 207.498 61.6752 208.664 63.0402C209.83 64.4052 211.36 65.0814 213.241 65.0814C214.921 65.0814 216.413 64.881 217.717 64.4928C219.009 64.1046 220.213 63.3658 221.316 62.2638C222.093 61.55 222.482 60.6484 222.482 59.5464V44.5942L222.47 44.5817Z" fill="white"></path>
            <path d="M127.585 23.9977H120.675C118.431 23.9977 116.136 24.2732 114.932 27.5792C111.91 35.4059 104.512 57.0076 102.932 61.6535C102.895 61.7662 102.87 61.8288 102.87 61.8288C98.1297 49.6693 94.2174 39.6887 89.5027 27.4665C88.3365 24.2732 86.2299 24.0854 84.023 24.0854H76.8129V24.9745C76.8129 24.9745 80.4869 24.5988 83.2455 31.7618C86.0167 38.9248 89.9165 48.993 93.6532 58.6355C95.0952 62.3673 96.5498 66.0991 98.0043 69.8308C98.4557 70.9704 101.164 71.6216 101.49 70.8702C101.628 70.5446 113.001 37.5348 116.4 28.7313C117.378 26.0514 118.594 25.8135 120.688 25.8135H124.688C123.309 26.2768 121.967 26.9906 120.161 31.6741C118.368 36.3201 108.048 65.8361 106.794 69.1797C106.142 70.9203 104.312 71.2083 104.312 71.2083H106.117C106.982 71.2083 108.186 70.5321 108.562 69.5679C109.867 66.2493 120.136 36.6957 121.929 32.0498C124.375 25.7133 127.522 25.8761 127.547 25.8761C127.697 25.8886 127.848 25.8385 127.961 25.7384C128.074 25.6382 128.136 25.5004 128.136 25.3502V24.4986C128.136 24.2106 127.898 23.9727 127.61 23.9727L127.585 23.9977Z" fill="white"></path>
            </svg>