<svg class="logo" fill="#111" version="1.1" id="Layer_1" xmlns="http://www.w3.org/2000/svg" xmlns:xlink="http://www.w3.org/1999/xlink" x="0px" y="0px" viewBox="0 0 203.8 55.7" xml:space="preserve">
                <g>
                  <path d="M65.8,27.9c0,10.7-7.3,15.2-13.7,15.2c-3.8,0-6.8-1.5-8.6-3.7v15.1h4v1.3h-9.9h-4v-1.3h4V14.6h-4v-1.3h9.9v4.9
                    c1.8-4,5.1-5.6,9.2-5.6C58.8,12.7,65.8,17.2,65.8,27.9z M59.7,27.9c0-9.7-3.5-13.7-8.2-13.7c-4.4,0-8,3.9-8,11v12.2
                    c1.8,2.7,4.6,4.2,7.8,4.2C56.2,41.5,59.7,37.5,59.7,27.9z"></path>
                  <path d="M85,41.2v1.3h-9.9h-4v-1.3h4V1.3h-4V0h9.9v41.2H85z"></path>
                  <path d="M120.8,38.6c-1.3,3.6-3.5,4.5-6.2,4.5c-2.7,0-4.9-0.9-5.6-4c-1.8,2-4.6,4-8.9,4c-5.2,0-9.1-2.2-9.1-7.2
                    c0-4.7,2.7-7.9,13.6-9.1l4.2-0.5v-3.6c0-6.7-1.8-8.7-5.7-8.7c-3.4,0-5.5,1.4-5.5,3.3c0,1.6,1.8,2.2,1.8,3.9c0,2-1.5,3.2-3.4,3.2
                    c-1.9,0-3.4-1.5-3.4-3.8c0-4.2,4.1-7.9,11.1-7.9c8,0,11.1,3.1,11.1,10.4v14.4c0,2.3,0.6,3.5,2.2,3.5c1.3,0,2.2-0.8,2.8-2.8
                    L120.8,38.6z M108.7,37.6v-1v-9.1l-4.2,0.5c-4.7,0.6-7.7,2.2-7.7,7.3c0,4.7,2.7,5.9,5.5,5.9C105,41.2,107.1,39.7,108.7,37.6z"></path>
                  <path d="M188.2,41.2v1.3h-9.9h-4.1v-1.3h4.1V21.4c0-5-1.8-7.1-5.4-7.1c-3.7,0-6.8,2.8-9,7v19.9h4v1.3H158h-4v-1.3h4V1.3h-4V0h8.7
                    h1.2v18.9c2-3.2,5.3-6.2,10.4-6.2c6.8,0,9.9,3.4,9.9,10.8v17.7H188.2z"></path>
                  <path d="M148.8,34.1c0-11.7-19.5-7-19.5-15c0-2.9,2.4-5.2,7.5-5.2c4.2,0,7.2,1.7,7.2,3.2s-1.9,1.6-1.9,3.3c0,1.8,1.3,2.9,3.1,2.9
                    c2,0,3-1.4,3-3.5c0-4.3-5-7.2-11.3-7.2c-7.5,0-10.9,4.4-10.9,8.8c0,11.4,19.6,6.3,19.6,14.8c0,4.1-3.7,5.6-8.2,5.6
                    c-6.3,0-10.9-4.4-10.9-10.7h-1.3v11.3h1.3c0-1,0.3-1.6,1.6-1.6c1.6,0,4,2.2,9.3,2.3c0,0,0.1,0,0.1,0
                    C145.1,43,148.8,39.1,148.8,34.1z"></path>
                  <path d="M4.9,10.4c0-3.8,2.4-6.6,8.4-6.6c0.6,0,1.7,0.1,1.7,0.1c3.7,0.2,6.2,1.8,6.2,3.1c0,1.5-1.9,1.6-1.9,3.3
                    c0,1.8,1.3,2.9,3.1,2.9c2,0,3-1.4,3-3.5c0-4.3-5-7.2-11.3-7.2c0,0-0.6,0-0.9,0C5.5,2.5,1,6.8,1,12.5C1,27,24.4,22.7,24.4,34.6
                    c0,4.2-2.7,7-9.3,7c-7.5,0-13.8-6-13.8-13.7H0v14.4h1.3c0-2,0.5-2.8,1.8-2.8c1.8,0,5.1,3.5,12.2,3.5c8.7,0,12.9-4.4,12.9-11.2
                    C28.1,17.3,4.9,21.1,4.9,10.4z"></path>
                  <g>
                    <path d="M197.9,37v0.7h-1.8v4.8h-0.7v-4.8h-1.8V37H197.9z"></path>
                    <path d="M198.6,37h1.1l1.6,4.6l1.6-4.6h1.1v5.5h-0.7v-3.2c0-0.1,0-0.3,0-0.6c0-0.3,0-0.5,0-0.8l-1.6,4.6h-0.7l-1.6-4.6V38
                      c0,0.1,0,0.3,0,0.6s0,0.5,0,0.6v3.2h-0.7V37z"></path>
                  </g>
                </g>
              </svg>