<svg class="logo-magazine" xmlns="http://www.w3.org/2000/svg" id="Calque_1" x="0" y="0" version="1.1" viewBox="0 0 222 74" xml:space="preserve">
  <path d="M57.04 54.092l3.019 6.828 3.124-6.828 1.661 9.451h-1.357l-.844-5.299-2.597 5.708-2.531-5.722-.949 5.313h-1.371l1.845-9.451zM76.5 54.196l4.192 9.346h-1.45l-.923-2.136h-3.757l-.989 2.136H72.15l4.35-9.346zm1.279 5.959l-1.305-2.98-1.358 2.98h2.663zM94.668 57.281c-.751-1.002-1.568-1.45-2.636-1.45-1.859 0-3.282 1.45-3.282 3.335 0 .975.356 1.793 1.055 2.412.619.567 1.397.883 2.135.883 1.318 0 2.505-1.002 2.623-2.242h-2.188v-1.251h3.638v.408c0 1.147-.238 1.938-.778 2.676-.765 1.041-2.017 1.661-3.335 1.661-2.465 0-4.482-2.043-4.482-4.547a4.557 4.557 0 014.588-4.588 4.43 4.43 0 012.636.858c.329.237.567.461.976.935l-.95.91zM107.09 54.196l4.192 9.346h-1.45l-.923-2.136h-3.757l-.989 2.136h-1.424l4.351-9.346zm1.279 5.959l-1.305-2.98-1.358 2.98h2.663zM122.503 56.002h-3.612V54.75h5.787l-4.311 7.539h4.218v1.253h-6.393l4.311-7.54zM132.603 54.75h1.331v8.792h-1.331V54.75zM142.637 54.157l6.406 6.697V54.75h1.332v9.332l-6.407-6.697v6.157h-1.331v-9.385zM158.947 54.75h4.851v1.251h-3.52v2.109h3.414v1.253h-3.414v2.926h3.52v1.253h-4.851V54.75z"></path>
  <g>
      <path d="M95.374 32.183c-.131 2.972-1.354 5.559-3.667 7.769-2.306 2.198-5.165 3.23-8.573 3.079-3.122-.138-5.695-1.245-7.743-3.268-2.04-2.032-2.988-4.653-2.851-7.884.163-3.27 1.394-5.864 3.739-7.778 2.336-1.925 5.123-2.8 8.35-2.665 3.267.143 5.904 1.22 7.925 3.236 2.025 2.003 2.962 4.493 2.82 7.511m-6.506 1.465c.156-2.692-.156-5.138-.953-7.357-.791-2.211-2.052-3.382-3.783-3.492-1.523-.088-2.748.615-3.674 2.068-.921 1.452-1.463 3.545-1.627 6.272-.185 2.979.142 5.452.971 7.412.828 1.968 2.061 2.989 3.701 3.08 1.616.111 2.874-.576 3.774-2.045.918-1.47 1.437-3.445 1.591-5.938M19.027 31.485c-.018.468-.018.813-.018 1.031 0 2.275.554 4.21 1.682 5.813 1.117 1.584 2.623 2.38 4.527 2.38 1.958 0 3.883-.844 5.771-2.549.384-.324.66-.513.823-.513.424 0 .623.238.623.693 0 .354-.483.983-1.446 1.899-.974.916-2.154 1.613-3.555 2.103-1.411.454-2.86.699-4.363.699-3.299 0-5.861-1.007-7.73-3.023-1.87-2.016-2.79-4.375-2.79-7.096 0-3.277 1.058-6.025 3.201-8.252 2.132-2.216 4.802-3.319 7.99-3.319 3.016 0 5.298 1 6.871 3.026 1.569 2.011 2.348 3.932 2.348 5.757 0 .569-.14.919-.453 1.039-.301.107-1.289.17-2.981.17l-10.5.142zm.155-1.776c2.387.049 3.753.067 4.133.067 1.83 0 2.942-.13 3.351-.408.408-.245.623-.778.623-1.55 0-1.336-.387-2.508-1.137-3.508-.762-1.037-1.676-1.541-2.721-1.541-2.479 0-3.901 2.313-4.249 6.94M36.679 24.024h-1.38v-1.497h1.473c1.905 0 5.364 0 6.338-1.227v4.991h.096c1.268-2.75 4.343-4.328 7.473-4.328 2.737 0 5.077 1.347 5.954 4.328 1.542-2.795 4.295-4.328 7.473-4.328 3.918 0 6.062 2.188 6.062 7.226v12.277h1.383v1.576h-8.946v-1.576h1.123V27.797c0-2.807-.464-3.63-2.191-3.63-3.179 0-4.904 4.459-4.904 5.263v12.037h1.231v1.576h-8.932v-1.576h1.258v-13.67c0-2.807-.805-3.55-2.175-3.575-3.205-.103-4.906 4.403-4.906 5.207v12.037h1.084v1.576h-8.895v-1.576h1.38V24.024zM97.324 22.671h1.466c1.89 0 5.324 0 6.287-1.218v20.013h1.381v1.576h-9.135v-1.576h1.38V23.984h-1.38v-1.313zM101.892 12.103a2.85 2.85 0 012.853 2.872 2.848 2.848 0 01-2.853 2.851 2.851 2.851 0 01-2.858-2.851 2.853 2.853 0 012.858-2.872M22.199 18.455c3.191-3.403 3.895-5.574 3.731-6.473-.186-1.058 1.119-1.641 2.086-1.543.536.056 1.029.207 1.446.606.417.405.63.872.63 1.391 0 .982-.843 2.094-2.548 3.322-1.317.983-1.694 1.243-2.878 2.209-.272.231-1.401 1.224-1.764 1.208-.305-.018-.573-.177-.748-.307-.139-.111-.139-.175.045-.413M198.753 32.183c-.149 2.972-1.359 5.559-3.682 7.769-2.301 2.198-5.16 3.23-8.569 3.079-3.126-.138-5.699-1.245-7.749-3.268-2.035-2.032-2.988-4.653-2.831-7.884.151-3.27 1.387-5.864 3.729-7.778 2.335-1.925 5.124-2.8 8.339-2.665 3.277.143 5.915 1.22 7.945 3.236 2.017 2.003 2.947 4.493 2.818 7.511m-6.509 1.465c.154-2.692-.158-5.138-.958-7.357-.79-2.211-2.061-3.382-3.785-3.492-1.526-.088-2.74.615-3.674 2.068-.916 1.452-1.461 3.545-1.625 6.272-.182 2.979.142 5.452.968 7.412.828 1.968 2.069 2.989 3.704 3.08 1.618.111 2.865-.576 3.778-2.045.911-1.47 1.435-3.445 1.592-5.938M122.405 31.485a17.18 17.18 0 00-.029 1.031c0 2.275.557 4.21 1.689 5.813 1.113 1.584 2.627 2.38 4.53 2.38 1.956 0 3.871-.844 5.766-2.549.388-.324.652-.513.821-.513.416 0 .633.238.633.693 0 .354-.498.983-1.454 1.899-.971.916-2.16 1.613-3.563 2.103a14.037 14.037 0 01-4.353.699c-3.298 0-5.862-1.007-7.729-3.023-1.869-2.016-2.798-4.375-2.798-7.096 0-3.277 1.068-6.025 3.203-8.252 2.126-2.216 4.803-3.319 7.998-3.319 3.002 0 5.288 1 6.875 3.026 1.565 2.011 2.343 3.932 2.343 5.757 0 .569-.138.919-.455 1.039-.305.107-1.298.17-2.988.17l-10.489.142zm.141-1.776c2.388.049 3.763.067 4.146.067 1.819 0 2.933-.13 3.346-.408.41-.245.622-.778.622-1.55 0-1.336-.389-2.508-1.151-3.508-.746-1.037-1.656-1.541-2.707-1.541-2.48 0-3.897 2.313-4.256 6.94M140.045 24.024h-1.374v-1.497h1.465c1.917 0 5.366 0 6.347-1.227v4.991h.095c1.27-2.75 4.338-4.328 7.473-4.328 2.731 0 5.077 1.347 5.963 4.328 1.534-2.795 4.281-4.328 7.463-4.328 3.921 0 6.067 2.188 6.067 7.226v12.277h1.381v1.576h-8.948v-1.576h1.128V27.797c0-2.807-.475-3.63-2.193-3.63-3.188 0-4.898 4.459-4.898 5.263v12.037h1.225v1.576h-8.936v-1.576h1.264v-13.67c0-2.807-.816-3.55-2.187-3.575-3.196-.103-4.897 4.403-4.897 5.207v12.037h1.084v1.576h-8.896v-1.576h1.374V24.024zM200.705 22.671h1.45c1.893 0 5.324 0 6.296-1.218v20.013h1.373v1.576h-9.118v-1.576h1.364V23.984h-1.364v-1.313zM205.263 12.103a2.853 2.853 0 012.855 2.872 2.851 2.851 0 01-2.855 2.851 2.858 2.858 0 01-2.862-2.851 2.86 2.86 0 012.862-2.872M125.572 18.455c3.184-3.403 3.894-5.574 3.727-6.473-.192-1.058 1.124-1.641 2.086-1.543.533.056 1.028.207 1.448.606.419.405.629.872.629 1.391 0 .982-.842 2.094-2.543 3.322-1.323.983-1.699 1.243-2.885 2.209-.277.231-1.406 1.224-1.765 1.208-.305-.018-.568-.177-.739-.307-.145-.111-.145-.175.042-.413" class="st0"></path>
  </g>
</svg>