<svg class="fill-green mx-auto w-20 lg:w-32 z-10 absolute logo p-2" id="Layer_1" data-name="Layer 1" xmlns="http://www.w3.org/2000/svg" viewBox="0 0 781.93 587.67">
            <path class="cls-1" d="m83.74,349.12c-15.58-26.49-34.82-64.16-45.15-84.4l-4.13-8.07c-5.39-10.5-17.48-17-25.59-17l-8.87.18v337.54c0,4.24,3.57,8.98,8.36,8.98h1.66c42.26,0,80.74-39.81,80.74-83.53,0-50.48-.01-84.96-.05-134.86,0-3.8-6.22-17.57-6.97-18.85Z"></path>
            <path class="cls-1" d="m412.11,585.8l-130.21-249.66c.32-.08.62-.16.91-.23,3.04-.77,6.47-1.63,9.42-2.92,4.89-2.13,18.98-8.55,18.98-8.55,37.6-17.05,65.46-47.17,82.8-89.52,20.82-50.85,14.91-108.99-15.79-155.51C346.47,31.29,292.54,2.03,233.97,1.13,223.21.96,80.39.09,18.08,0c-2.07,0-3.96,1.05-5.05,2.79-1.1,1.75-1.22,3.9-.32,5.76l14.73,30.48c21.56,44.95,58.21,50.58,94.67,50.05,4.39-.07,97.01-1.06,104.15-.77,20.44.82,36.18,2.18,52.62,12.16,32.56,19.77,48.2,59.9,38.03,97.57-10.52,38.97-53.22,61.54-88.22,60.73-22.56-.48-52.75-.81-58.68-.83-6.26-.7-11.46,1.39-14.69,5.92-3.96,5.57-3.96,13.63-1.67,18.2,10.09,20.18,136.65,267.48,141.73,273.76,3.73,4.87,8.11,9.62,13.36,13.85,10.44,9.03,28.82,16.54,43.76,16.46l13.98-.1c6.84.25,11.15.31,23.15.31,3.05,0,6.59,0,10.8-.01.8,0,1.56-.2,2.27-.49l9.43-.05Z"></path>
            <g>
                <path class="cls-1" d="m779.13,2.12c-1.75-1.1-3.9-1.22-5.76-.32l-30.48,14.73c-44.95,21.56-50.58,58.21-50.05,94.67.07,4.39,1.06,289.14.77,296.29-.82,20.44-2.18,36.18-12.16,52.62-19.77,32.56-59.9,52.29-97.57,42.12-10.96-2.96-22.82-8.34-30.64-19.99-7.82-11.65-79.35-149.33-79.35-149.33-37.8,18.9-59.92,73.05-40.37,112.15,12.83,25.66,44.04,84.23,45.5,87.16.5,1,13.01,20.18,19.87,24.99,12.84,10.05,28.87,18.69,45.5,23.07,50.6,13.34,111.63,9.87,158.16-20.84,48.11-31.75,77.37-85.68,78.27-144.26.17-10.76,1.04-345.71,1.13-408.02,0-2.07-1.05-3.96-2.79-5.05Z"></path>
                <path class="cls-1" d="m36.05,395.36c0-.11.02-.22.02-.33,0-4.65-.01-3.21-.02.33Z"></path>
                <path class="cls-1" d="m36.05,395.36c0,.1-.02.21-.02.31,0,31.68,0,8.79.02-.31Z"></path>
            </g>
        </svg>