<svg class="
    icon icon-bb-logo tw-w-[30px] tw-h-full
" width="36" height="36" viewBox="0 0 36 36" fill="none" xmlns="http://www.w3.org/2000/svg">
            <path d="M31.7778 6.44444C31.7778 6.33333 31.6667 6.33333 31.7778 6.44444C28.3333 2.44444 23.4444 0 18 0C12.5556 0 7.66667 2.44444 4.33333 6.33333V6.44444C1.55556 9.55556 0 13.5556 0 18C0 27.8889 8.11111 36 18 36C27.8889 36 36 27.8889 36 18C36 13.5556 34.3333 9.55556 31.7778 6.44444ZM29.1111 19.7778C28.2222 21.2222 26.6667 22.6667 25 24.2222C22.6667 26.4444 20 28.7778 19.1111 31.7778V26.1111C19.2222 21.5556 23.1111 18 26.5556 14.8889L26.6667 14.7778C29.1111 12.4444 30.2222 10 30 7.44444C31.3333 11.8889 31.1111 16.5556 29.1111 19.7778ZM6 7.44444C6.11111 7.44444 6.11111 7.44444 6 7.44444C5.88889 10 6.88889 12.4444 9.44444 14.6667L9.66667 14.8889C13 18 16.7778 21.4444 17 26V31.7778C16 28.7778 13.4444 26.4444 11.1111 24.2222C9.44444 22.6667 7.88889 21.2222 7 19.7778C4.88889 16.5556 4.66667 11.8889 6 7.44444ZM17 13.2222V20C15.3333 17.4444 13.1111 15.3333 11 13.4444L10.7778 13.2222C8 10.5556 7.33333 8.11111 8.88889 5.11111L17 13.2222ZM19 20V13.2222L27.1111 5.11111C28.5556 8.11111 28 10.6667 25.1111 13.2222L25 13.3333C23 15.2222 20.6667 17.4444 19 20ZM19 10.3333V2.11111C21.3333 2.22222 23.5556 2.88889 25.4444 3.88889L19 10.3333ZM17 10.3333L10.4444 3.88889C12.4444 2.88889 14.5556 2.22222 16.8889 2.11111V10.3333H17ZM2 18C2 15.8889 2.44444 14 3.11111 12.1111C3 15.3333 3.66667 18.4444 5.11111 20.7778C6.11111 22.4444 7.77778 24 9.55556 25.6667C12.2222 28.1111 15 30.6667 15.2222 33.6667C7.77778 32.4444 2 25.8889 2 18ZM20.6667 33.6667C20.8889 30.6667 23.6667 28.1111 26.3333 25.6667C28.1111 24 29.7778 22.5556 30.7778 20.7778C32.2222 18.3333 33 15.3333 32.7778 12.1111C33.5556 13.8889 33.8889 15.8889 33.8889 18C34 25.8889 28.2222 32.4444 20.6667 33.6667Z" fill="#28291E"></path>
        </svg>