<svg class="icon logo" viewBox="0 0 500 80.55" xmlns="http://www.w3.org/2000/svg"><path d="m79.39 79.82h-62.67c-11.21 0-22.38-10.92-13.51-27.18l20.46-38.64c3.95-8 15.71-13.91 21.99-13.91h75.34s-24.56 19.81-37.81 19.81h-34.39c-4.64 0-7.38 1.75-8.73 5.33l-14.34 26.6c-1.73 3.27-1.1 8.33 5.27 8.33h58.62z"></path><path d="m160.48 50.6 16.64-30.7h23.76l-22.94 42.44c-5.6 9.69-14.61 17.48-26.61 17.48h-44.24c-16.09 0-20.9-14.75-14.74-25.52l21-40.27c4-8.06 15.72-13.94 22-13.94h75.35s-24.29 19.81-37.54 19.81h-33.16c-4.65 0-8.05 2.44-9.4 6l-13.67 26.5c-2.73 5.45 2.61 8.45 6.7 7.76h24.55c7.26 0 9.71-5 12.31-9.55"></path><path d="m166.47 79.82 60.07-59.92c24.7-22.4 42.46-19.81 49.14-19.81v79.73h-19.68v-19.66h-42.83l-19.4 19.66zm66.35-39.32h23.18v-23.2z"></path><path d="m336.17.09h69.76c-14.2 11.91-26.22 19.81-43.14 19.81h-29.5c-4.91 0-5.59 3.27-5.59 3.27l-1.78 3.55s-1.5 3.68 3.15 3.68h33.17a16.88 16.88 0 0 1 14.46 25.81l-5.86 11.06c-6.3 11.88-18 12.81-25.94 12.55h-68.9l10.37-19.66h61.63c4.78 0 6.13-2.46 6.13-2.46l2.06-3.82s.95-3.83-3-3.83h-27.13c-18.7 1.51-27.72-14.33-21.31-25.79l4.78-9.26c6.47-13.54 15.47-14.91 26.64-14.91"></path><path d="m451.79 19.9-31.4 59.92h-22l31.28-59.92h-34.12l10.5-19.79h93.95s-24.31 19.79-37.55 19.79z"></path><path d="m449.22 71.67c1.35 0 2.54-.07 2.54-1.53 0-1.28-1.08-1.44-2.12-1.44h-2v3zm-3.09-4.32h3.78c2.17 0 3.34.92 3.34 2.86a2.6 2.6 0 0 1 -2.64 2.7l2.8 4.21h-1.49l-2.7-4.1h-1.6v4.1h-1.49zm10.21 4.84a6.88 6.88 0 1 0 -6.88 7 6.93 6.93 0 0 0 6.88-7m-6.88-8.36a8.36 8.36 0 1 1 -8.35 8.36 8.35 8.35 0 0 1 8.35-8.36"></path></svg>