<svg aria-label="GOLO for Life logo" role="img" focusable="false" class="icon--logo icon--logo--golo" height="98px" xmlns="http://www.w3.org/2000/svg" viewBox="0 0 126.4 54.5" alt="golo logo">
    <path d="M30.1 33.7c-3.6 2-7.4 2.8-11.5 2.8-9.3 0-15.9-6.7-15.9-16.1.1-9.4 6.6-16.2 16-16.2 4.5 0 8.2 1.4 11 4.2l-2.1 2.2c-1.9-2.2-5.6-3.8-9-3.8-8 0-13 5.9-13 13.5s5 13.5 13 13.5c3.3 0 6.3-.4 8.6-1.8V20.9h-7.4v-2.5H30v15.3zM49.8 4.2c9.3 0 15.9 6.7 15.9 16.1 0 9.3-6.5 16.1-15.9 16.1S34 29.7 34 20.3C34 11 40.5 4.2 49.8 4.2zm0 29.6c8 0 13-5.9 13-13.5s-5-13.5-13-13.5-13 5.9-13 13.5 5 13.5 13 13.5z" fill="#54b948"></path>
    <path d="M69.9 4.3h2.9v29.5h15.4v2.6H69.9V4.3zm33.8-.1c9.3 0 15.9 6.7 15.9 16.1 0 9.3-6.5 16.1-15.9 16.1-9.3 0-15.9-6.7-15.9-16.1 0-9.3 6.5-16.1 15.9-16.1zm0 29.6c8 0 13-5.9 13-13.5s-5-13.5-13-13.5-13 5.9-13 13.5 5 13.5 13 13.5z" fill="#0079be"></path>
    <path class="logo-path--for-life" d="M39.3 45.5h-1.1v-.7h1.1V43c0-1.5 1-1.9 1.7-1.9.4 0 .6 0 .8.1l-.1.6c-.2-.1-.4-.1-.7-.1-.7 0-1 .5-1 1.5v1.5h1.3v.7H40v4.9h-.7v-4.8zm6.9-.8c1.7 0 3 1.2 3 3 0 1.7-1.2 3-3 3-1.7 0-3-1.2-3-3 .1-1.8 1.3-3 3-3zm0 5.2c1.4 0 2.2-1 2.2-2.3 0-1.2-.8-2.3-2.2-2.3s-2.2 1-2.2 2.3.9 2.3 2.2 2.3zm5.8-3.5v-1.6h.7v1c.4-.7.9-1.1 1.8-1.1h.4l-.1.7h-.3c-1.2 0-1.8.9-1.8 1.9v3H52v-3.9zm9.9-4.5H63v7.4h4v1.1h-5.1v-8.5zm7.8-.1c.4 0 .8.4.8.8s-.4.8-.8.8-.8-.4-.8-.8.4-.8.8-.8zm-.5 2.9h1.1v5.7h-1.1v-5.7zm4.4.9h-1.2v-.9h1.2v-1.3c0-1.5.5-2.2 1.9-2.2.2 0 .5 0 .8.1l-.1 1c-.2-.1-.4-.1-.6-.1-.8 0-.9.5-.9 1.3v1.3H76v.9h-1.3v4.8h-1.1v-4.9zm5.6 2.3c0 1 .9 1.7 1.9 1.7.7 0 1.1-.4 1.6-.8l.8.6c-.6.8-1.5 1.2-2.5 1.2-1.8 0-3-1.3-3-3s1.2-3 3-3c2 0 2.8 1.5 2.8 3v.4l-4.6-.1zm3.5-.8c0-1-.6-1.7-1.6-1.7-1.1 0-1.8.9-1.8 1.7h3.4z" fill="#808285"></path>
    <path d="M122.3 7.7c0 1.1-.9 1.9-1.9 1.9-1.1 0-2-.9-2-1.9s.9-1.9 2-1.9a1.97 1.97 0 0 1 1.9 1.9zm-.3 0c0-.9-.7-1.7-1.6-1.7s-1.6.7-1.6 1.7.7 1.7 1.6 1.7c.9.1 1.6-.7 1.6-1.7zm-2.1 1.2h-.3V6.6h.9c.5 0 .7.2.7.7 0 .4-.3.6-.5.7l.7 1.1h-.4l-.6-1.1h-.4l-.1.9zm.4-1.3c.3 0 .7 0 .7-.4 0-.3-.3-.4-.5-.4h-.5v.7l.3.1z" fill="#0079be"></path></svg>