<svg aria-label="Secondary icon" class="icon icon-logo-secondary" width="54" height="54" viewBox="0 0 54 54" fill="none" xmlns="http://www.w3.org/2000/svg">
<g clip-path="url(#clip0_26_1519)">
<path d="M19.4844 1.06167L24.3415 19.1479L25.1034 17.8278L20.532 0.775879L19.4844 1.06167Z" fill="black"></path>
<path d="M16.1633 2.25876L23.3469 19.5965L13.9728 3.34747L13.034 3.89182L22.4082 20.1408L10.9932 5.25271L10.1361 5.90594L21.551 20.794L8.28571 7.52539L7.52381 8.28749L20.7891 21.5561L5.90476 10.1383L5.2517 10.9957L20.1361 22.4135L3.89116 13.037L3.34694 13.9624L19.5918 23.3525L2.2585 16.167L1.85034 17.1741L19.1701 24.346L1.06122 19.4876L0.77551 20.5355L18.898 25.3938L0.29932 22.9442L0.163265 24.0193L18.7619 26.4689H0V27.544H18.7619L0.163265 29.9936L0.29932 31.0687L18.8707 28.6191L24.3265 19.1474L17.1701 1.85049L16.1633 2.25876Z" fill="black"></path>
<path d="M16.7354 32.3076L3.34766 40.0375L3.89187 40.9765L17.2796 33.233" fill="black"></path>
<path d="M17.9721 30.1573L1.84961 36.8392L2.25777 37.8327L17.0877 31.6951L17.9721 30.1573Z" fill="black"></path>
<path d="M0.775391 33.4644L1.0611 34.5123L18.0951 29.9533L18.857 28.6196L0.775391 33.4644Z" fill="black"></path>
<path d="M27.8906 16.0719L28.775 17.6097L31.0607 0.299175L29.9859 0.163086L27.8906 16.0719Z" fill="black"></path>
<path d="M22.9395 0.299083L25.2252 17.6096L26.1095 16.0718L24.0143 0.162994L22.9395 0.299083Z" fill="black"></path>
<path d="M28.8984 17.8278L29.6603 19.1478L34.5039 1.06162L33.4563 0.775833L28.8984 17.8278Z" fill="black"></path>
<path d="M27.5377 0H26.4629V15.4597H27.5377V0Z" fill="black"></path>
<path d="M32.4629 33.233L45.701 46.4745L46.4765 45.7124L34.0003 33.233H32.4629Z" fill="black"></path>
<path d="M36.7207 33.2328L50.1085 40.9763L50.6527 40.0372L37.2649 32.3074" fill="black"></path>
<path d="M35.9044 29.9533L52.9384 34.5122L53.2105 33.4643L35.1289 28.6196L35.9044 29.9533Z" fill="black"></path>
<path d="M36.9116 31.6951L51.728 37.8327L52.1497 36.8392L36.0137 30.1573L36.9116 31.6951Z" fill="black"></path>
<path d="M29.6602 19.1475L35.1295 28.6192L53.701 31.0688L53.837 29.9937L35.2384 27.5441H54.0003V26.469H35.2384L53.837 24.0194L53.701 22.9443L35.1023 25.3939L53.2112 20.5356L52.9391 19.4877L34.8166 24.346L52.15 17.1742L51.7282 16.1671L34.3949 23.3526L50.6534 13.9625L50.1091 13.0371L33.8642 22.4136L48.7486 10.9957L48.0819 10.1384L33.1976 21.5562L46.4765 8.28758L45.701 7.52549L32.4357 20.7941L43.8642 5.90603L43.0071 5.2528L31.5785 20.1409L40.9663 3.89192L40.0275 3.34756L30.6534 19.5966L37.8234 2.25885L36.8302 1.85059L29.6602 19.1475Z" fill="black"></path>
<path d="M21.5381 33.2329L10.1367 48.0938L10.9939 48.7606L22.4088 33.8725L13.0347 50.1215L13.9735 50.6659L23.3476 34.4033L16.1639 51.741L17.1707 52.1629L24.3408 34.8251L19.4837 52.9522L20.5313 53.2243L25.3884 35.0973L22.9394 53.7007L24.0143 53.8504L26.4633 35.247V54.0137H27.5381V35.247L29.9871 53.8504L31.0619 53.7007L28.6129 35.0973L33.4701 53.2243L34.5041 52.9522L29.6469 34.8251L36.8306 52.1629L37.8238 51.741L30.6537 34.4033L40.0279 50.6659L40.9667 50.1215L31.5925 33.8725L43.0075 48.7606L43.8646 48.0938L32.4633 33.2329H21.5381Z" fill="black"></path>
<path d="M19.9996 33.233L7.52344 45.7124L8.28534 46.4745L21.5234 33.233H19.9996Z" fill="black"></path>
<path d="M34.2305 33.2329L48.0808 43.8751L48.7475 43.0177L36.0128 33.2329H34.2305Z" fill="black"></path>
<path d="M17.9866 33.233L5.25195 43.0178L5.90501 43.8752L19.769 33.233H17.9866Z" fill="black"></path>
</g>
<defs>
<clipPath id="clip0_26_1519">
<rect width="54" height="54" fill="white"></rect>
</clipPath>
</defs>
</svg>