<svg class=" max-w-full logo" viewBox="0 0 340 20" width="340" height="20" xmlns="http://www.w3.org/2000/svg"><path d="M11.722 1.101A6.03 6.03 0 0 0 9.826.514a7.073 7.073 0 0 0-.652-.072C7.633.357 5.91.348 4.204.353h-.143l-2.65.015H.305a.32.32 0 0 0-.04 0H0v.116h.067c.028 0 .067 0 .11.01.374.043 1.237.298 1.237 1.704v14.743l-.01.707c.012 1.767-.884 1.968-1.185 1.986h-.1v.113H4.47v-.111h-.099c-.3-.018-1.179-.214-1.182-1.944l.032-1.59v-.158-5.21h.995c1.703 0 3.426 0 4.966-.09 2.705-.148 5.372-2.004 5.386-4.913v-.19c.053-1.858-.986-3.576-2.847-4.44zm.334 7.069a3.828 3.828 0 0 1-1.414 1.504 3.262 3.262 0 0 1-1.428.458c-2.013.146-3.84.076-5.798.061a.194.194 0 0 1-.164-.097 2.27 2.27 0 0 1-.03-.408v-4.15V1.39a2.297 2.297 0 0 1 .03-.408.194.194 0 0 1 .164-.097C5.374.869 7.201.799 9.214.947c.507.035.999.186 1.437.442a4.388 4.388 0 0 1 1.401 1.518 5.79 5.79 0 0 1 0 5.263h.004zm32.856 10.066l-1.307-1.492-2.61-2.974-2.567-2.925a2.421 2.421 0 0 1-.314-.353c-.092-.163 0-.134.177-.177.298-.08.599-.162.896-.25 1.097-.333 2.103-.776 2.924-1.591.693-.693 1.237-1.59 1.327-2.587v-.029c.246-2.802-1.767-5.17-4.7-5.421h-.191C35.62.339 31.39.385 30.342.426h-.677v.111h.065c.096.005.191.019.285.043.942.233 1.021 1.286 1.021 2.051v15.476c-.115 1.32-.822 1.534-1.127 1.564h-.14v.113h4.363v-.113h-.099a1.03 1.03 0 0 1-.274-.055c-.383-.13-.92-.556-.91-1.93 0 0-.009-5.634-.009-6.993v-.143a.2.2 0 0 1 .105-.164.504.504 0 0 1 .224-.021h.914c.111 0 .222 0 .334.012.111.013.212.013.318.023.106.01.203.021.304.037a3.656 3.656 0 0 1 .57.135 2.792 2.792 0 0 1 .54.238 3.079 3.079 0 0 1 .517.37c.082.07.177.159.257.245.08.087.176.19.256.288.08.1.177.221.258.336.02.025.037.051.055.076l5.8 6.562c.845 1.087 1.452 1.06 2.827 1.06a.05.05 0 0 0 .037-.08l-1.244-1.431zM37.313 9.93l-4.09-.023h-.121a.543.543 0 0 1-.12 0 .177.177 0 0 1-.119-.09.313.313 0 0 1-.026-.081v-.919-.441l.035-7.455c0-.094.073-.171.166-.177l.354-.01c.769-.025 1.537-.017 2.306-.02.768-.022 1.537.025 2.297.14.092.015.177.026.276.046.262.054.53.118.788.197 2.139.647 2.918 2.989 2.368 5.62-.378 1.815-2.138 3.178-4.116 3.217l.002-.004zm171.409 6.767c-.126.069-.23.321-.256.366a9.587 9.587 0 0 1-.242.41c-.734 1.173-1.838 1.845-3.245 1.862h-2.92c-.176 0-.353 0-.516-.009h-1.829a.267.267 0 0 1-.266-.265v-4.156c.01-3.577 0-7.156.017-10.734 0-.202 0-.407-.014-.612V2.472c-.012-1.767.884-1.968 1.184-1.986h.078a.023.023 0 0 0 .023-.023V.396a.023.023 0 0 0-.023-.023h-4.355a.023.023 0 0 0-.023.023v.067c0 .013.01.023.023.023h.078c.304.018 1.197.217 1.184 1.986V3.56c0 .205-.016.41-.014.612.016 3.578 0 7.157.018 10.734v2.743c.012 1.767-.884 1.966-1.184 1.984h-.078a.023.023 0 0 0-.023.023v.067c0 .013.01.023.023.023h11.39a.965.965 0 0 0 .965-.883c.035-.396.072-.79.111-1.186.028-.297.085-.585.094-.884a.135.135 0 0 0-.025-.081.148.148 0 0 0-.175-.014zM264.047.378H260.417v.106h.065c.466.011.886.28 1.09.698.108.236.159.494.15.753 0 .47-.178.884-.331 1.315l-.9 2.515-.54 1.516-.195.544-3.223 9.026-6.074-14.746-.062-.15c-.287-.62-.594-.967-1.008-1.206a5.279 5.279 0 0 0-1.247-.456L247.788.2a.046.046 0 0 0-.044.014.048.048 0 0 0-.018.058l.04.078.213.435c1.06 2.576 2.11 5.165 3.181 7.742 1.49 3.62 2.98 7.237 4.471 10.854.05.119.1.237.147.354h.258l.785-2.199 5.195-14.567.106-.299c.044-.102.103-.222.177-.353.196-.392.445-.755.74-1.078.117-.113.237-.223.354-.324.016-.012.03-.028.044-.04l.028-.02c.181-.14.38-.255.592-.343.077-.017.155-.027.234-.031h.065V.368h-.295l-.014.01zm15.265-.09h-3.027v.113h.1c.29.016 1.13.205 1.18 1.801v15.543c-.05 1.59-.884 1.785-1.18 1.8h-.1v.114h4.4v-.113h-.1c-.287-.016-1.105-.198-1.177-1.729V2.138c.068-1.539.883-1.72 1.176-1.737h.101V.288h-1.373zm59.944 0h-4.352v.113h.1c.182.014.356.075.506.177.31.201.63.63.671 1.567v5.34c0 .53.126 1.277-.441 1.561-.167.077-.347.121-.53.13h-10.25a1.4 1.4 0 0 1-.53-.13c-.568-.284-.442-1.037-.442-1.562V2.138c.04-.936.353-1.366.671-1.567.15-.102.325-.163.506-.177h.1V.281h-4.4v.113h.099c.288.016 1.111.203 1.177 1.753v15.591.046c-.066 1.551-.884 1.739-1.177 1.754h-.1v.114h4.401v-.114h-.12a1.076 1.076 0 0 1-.505-.176c-.31-.2-.63-.63-.672-1.559v-7.45c0-.199-.016-.4.145-.545a.898.898 0 0 1 .408-.19c.184-.037.37-.051.557-.045h9.987c.186-.007.372.008.554.044.151.028.292.093.41.191.161.145.145.354.145.544v7.465c-.042.93-.353 1.36-.671 1.559-.151.1-.325.16-.506.177h-.1v.113h4.4v-.113h-.1c-.289-.016-1.11-.204-1.176-1.755V2.202v-.048c.066-1.55.884-1.737 1.175-1.753h.101V.288h-.04zM235.973 16.697l-.363-.988-.074-.198L229.828 0h-.72l-6.08 17.142-.105.299a5.14 5.14 0 0 1-.906 1.431 7.59 7.59 0 0 1-.4.364 1.453 1.453 0 0 1-.851.396h-.064v.115h3.925v-.111h-.065a1.237 1.237 0 0 1-1.093-.697c-.288-.597-.137-1.295.126-2.021l.25-.718c.087-.242.176-.484.26-.726.171-.471.342-.943.511-1.414.117-.322.227-.649.354-.968.111-.288.44-.354.716-.354.364 0 .733.014 1.099.014h5.194a.737.737 0 0 1 .87.596l.741 2.006.15.408c.255.684.508 1.368.76 2.052.137.37.205.69.027 1.06a1.285 1.285 0 0 1-1.127.73h-.068v.113h5.276v-.113h-.068c-1.403-.009-2.172-1.833-2.567-2.907zm-5.376-4.418h-5.346v-.013c0-.024.03-.085.032-.09.014-.04.028-.08.044-.118.016-.04.014-.043.023-.064l.353-1.032 3.08-8.642c.792 2.151 1.577 4.304 2.37 6.45l1.296 3.503-1.852.006zM72.27 17.31c-.815.675-1.458 1.352-2.246 1.714-1.06.486-2.121.53-3.252.53h-3.28a.256.256 0 0 1-.258-.258c.02-2.316.069-4.84.02-6.994l-.013-1.921c0-.154.064-.3.177-.405a.884.884 0 0 1 .41-.19c.182-.037.369-.052.555-.045h2.175a5.655 5.655 0 0 1 2.248.438c.381.167.75.362 1.103.583l.222.133a.129.129 0 0 0 .195-.1c-.04-.807-.013-1.618-.013-2.425a.129.129 0 0 0-.197-.106c-.584.353-1.16.735-1.828.9a8.824 8.824 0 0 1-2.101.176h-1.545a1.99 1.99 0 0 1-.926-.138c-.457-.228-.473-.762-.463-1.214.05-2.154 0-4.678-.02-6.997a.254.254 0 0 1 .259-.256h4.367c1.73.055 3.26.74 4.227 2.374.02.036.059.058.1.058.031.002.06-.01.08-.034a.037.037 0 0 0 .01-.017.187.187 0 0 0 0-.055V2.98c0-.478.013-.955 0-1.425 0-1.028-.266-1.184-1.18-1.17-3.266.052-6.538.018-9.8.023h-1.238V.52h.066c.378.01.733.185.97.48.237.309.354.693.327 1.082 0 2.297-.016 4.595-.016 6.892v2.338c0 2.297.016 4.595.016 6.892a1.59 1.59 0 0 1-.327 1.082 1.287 1.287 0 0 1-.97.48h-.064v.112h1.237c2.568 0 5.136 0 7.703.021h2.32c.167.01.334-.021.487-.088a.643.643 0 0 0 .261-.188c.056-.11.09-.23.101-.353.06-.288.11-.58.154-.87.05-.32.093-.64.141-.96a.129.129 0 0 0-.194-.13zm229.732-7.703c-1.543-.51-3.055-1.06-4.398-2.011-2.547-1.817-1.912-4.208-.326-5.746 1.782-1.726 5.035-1.334 6.682-.238l.036.024c.423.313.77.717 1.016 1.183.274.473.53.961.785 1.445l.16.306c.025.044.043.088.067.138.025.05.041.065.08.065a.078.078 0 0 0 .074-.069v-.016c0-.137.01-.291.013-.415 0-.595.038-1.194 0-1.79-.013-.207-.02-.362-.041-.49a.576.576 0 0 0-.085-.254.801.801 0 0 0-.104-.117.901.901 0 0 0-.262-.176 14.371 14.371 0 0 0-3.767-1.139l-.177-.019c-.087 0-.177-.02-.258-.026a9.333 9.333 0 0 0-.57-.04h-.033c-5.301-.176-6.086 4.164-6.084 4.164-.371 1.37-.085 2.626 1.021 3.844 1.186 1.306 2.699 2.046 4.353 2.548 1.449.44 2.827 1.015 4.027 1.974.707.568 1.343 1.206 1.607 2.096.454 1.541-.408 3.323-1.944 4.114-1.789.923-3.662.697-5.479.251a4.787 4.787 0 0 1-1.032-.378 4.58 4.58 0 0 1-.873-.57 5.28 5.28 0 0 1-.728-.746 6.62 6.62 0 0 1-.602-.896c-.115-.204-.223-.409-.33-.614-.056-.1-.109-.203-.162-.304-.024-.044-.042-.09-.063-.134-.022-.044-.043-.069-.083-.069-.038 0-.07.03-.075.067v.018c0 .136-.01.29-.012.413 0 .598-.039 1.195 0 1.79.044.73.01.849.786 1.15 1.944.752 3.966 1.04 6.03 1.06 1.861.014 3.547-.495 4.772-1.988 1.207-1.46 1.66-3.445.457-5.223-1.09-1.638-2.665-2.585-4.478-3.182zM161.136.45h-2.374v.11h.05a.848.848 0 0 1 .684.443c.166.284.11.599 0 .896-.191.5-.428.983-.707 1.44-.272.488-.544.977-.815 1.467l-1.012 1.824-1.04 1.871-.883 1.607-.574 1.035c-.041.073-.078.149-.122.218a.477.477 0 0 0-.06.107c-.126-.201-.216-.327-.287-.464a2569.61 2569.61 0 0 1-3.467-6.727c-.248-.484-.504-.963-.742-1.449a91.566 91.566 0 0 1-.354-.75 2.51 2.51 0 0 1-.252-.72c-.027-.285.231-.546.463-.675a.793.793 0 0 1 .367-.106h.051V.465H145.733v.113h.05a.829.829 0 0 1 .625.334c.391.515.73 1.068 1.009 1.65.284.598.604 1.177.915 1.768l.834 1.569.835 1.57.832 1.57.832 1.57.833 1.57.095.177c.035.057.066.116.092.177a.92.92 0 0 1 .076.407c0 1.767 0 3.534-.016 5.301 0 .341.028.667-.177.963a.884.884 0 0 1-.648.426h-.083v.117h3.654v-.111h-.083a.871.871 0 0 1-.689-.469c-.168-.282-.15-.622-.147-.94.03-1.954 0-3.91.02-5.865.002-.346.086-.685.245-.992 1.71-3.066 3.441-6.118 5.164-9.177.154-.266.332-.517.53-.75.178-.233.372-.452.58-.657l.027-.026a.735.735 0 0 1 .123-.094.502.502 0 0 1 .143-.069.751.751 0 0 1 .177-.031h.05v-.11h-.495V.45zm-58.43-.096c-1.22.02-2.44.025-3.662.028H91.57c-1.22 0-2.44-.008-3.66-.028-.914-.014-1.173.143-1.18 1.17 0 .47 0 .947.008 1.425v.083a.177.177 0 0 0 0 .053.053.053 0 0 0 .01.019.1.1 0 0 0 .08.032c.042 0 .08-.022.1-.058.968-1.632 2.498-2.317 4.228-2.374h2.976a.256.256 0 0 1 .258.258v4.241c-.01 3.58 0 7.158-.017 10.736 0 .202 0 .405.014.61v1.089c.012 1.767-.884 1.968-1.184 1.986h-.094v.122h4.4v-.111h-.1c-.302-.018-1.197-.216-1.184-1.987v-1.088c0-.205.016-.409.014-.61-.016-3.579 0-7.157-.018-10.736V.974a.256.256 0 0 1 .258-.258h2.976c1.73.056 3.26.742 4.227 2.373.02.037.06.06.101.058a.1.1 0 0 0 .08-.031v-.02a.136.136 0 0 0 0-.053v-.085c0-.477.014-.954.01-1.424.006-1.036-.252-1.193-1.166-1.179zm28.862 0c-1.22.02-2.44.025-3.66.028h-7.477c-1.22 0-2.442-.008-3.661-.028-.914-.014-1.172.143-1.18 1.17 0 .47 0 .947.01 1.425v.083a.136.136 0 0 0 0 .053v.019a.1.1 0 0 0 .08.032.111.111 0 0 0 .1-.058c.967-1.632 2.499-2.317 4.227-2.374h2.978a.256.256 0 0 1 .256.258v4.241c-.01 3.58 0 7.158-.018 10.736 0 .202 0 .405.015.61v1.089c.014 1.767-.884 1.968-1.184 1.986h-.1v.122h4.4v-.111h-.1c-.302-.018-1.198-.216-1.184-1.987v-1.088c0-.205.016-.409.014-.61-.016-3.579 0-7.157-.017-10.736V.974a.256.256 0 0 1 .258-.258h2.976c1.73.056 3.26.742 4.229 2.373.02.036.057.059.099.058a.1.1 0 0 0 .08-.031.053.053 0 0 0 .01-.02.177.177 0 0 0 0-.053V2.96c0-.477.012-.954 0-1.424.023-1.038-.237-1.195-1.15-1.18z" fill="currentColor"></path></svg>