<svg xmlns="http://www.w3.org/2000/svg" aria-hidden="true" focusable="false" role="presentation" class="icon icon--wide icon-logo" viewBox="0 0 387.77 73"><path d="M207.47 33.8c0 4 1.4 6.8 4.3 8.3a8.61 8.61 0 0 0 4.3 1.1 7.94 7.94 0 0 0 7.5-4.3 8.25 8.25 0 0 0 1.1-4.2c0-3.2-1.6-5.6-4.7-7.2-.6-.3-1.8-.8-3.7-1.5-3.6-1.3-6.3-2.7-8-4.3a10.19 10.19 0 0 1-3.5-8.1 12.15 12.15 0 0 1 2.8-7.7c2.6-3.1 6.5-4.6 11.5-4.6h2V6c-7.5-.1-11.2 2.5-11.2 7.6a6 6 0 0 0 2.7 5.1 22.63 22.63 0 0 0 5.4 2.6 27.63 27.63 0 0 1 6.1 2.8c3.8 2.7 5.7 6.2 5.7 10.4a12.29 12.29 0 0 1-1.9 6.6 13.5 13.5 0 0 1-5 4.8 14.8 14.8 0 0 1-6.9 1.8c-4.5 0-8-1.6-10.5-5-2.8-3.7-2.5-9.1-2.5-9.1h4.5zm25 14.1v-42h-9.8V1.2h25v4.7h-10v42zM297.87 47.8V1.1h11.8c6.6 0 11.3 1.2 14.2 3.5a13.83 13.83 0 0 1 5.4 11.2c0 5.2-2 9.1-6.1 11.7a15.76 15.76 0 0 1-7 2.4l13.5 17.9h-6.5l-16.5-22.1c4 0 6.4 0 7.3-.1a11.08 11.08 0 0 0 7-2.7 9.13 9.13 0 0 0 3.2-7.1 9 9 0 0 0-4-7.9c-2-1.4-5.1-2.1-9.4-2.1h-7.6v41.9h-5.3zM378.37 2.7h-2.1v5.9h-1.8V2.7h-2.1V1.2h6zm9.4 5.9h-1.7V3.4l-1.9 5.2H383l-1.9-5.2v5.2h-1.7V1.2h2.4l1.8 4.8 1.8-4.8h2.4v7.4z"></path><path d="M344.17 39.2l26.2-38h-6.1l-25.4 37.5V1.2h-5v43.9l-17 23.1a3.16 3.16 0 0 0-.7 1.9 2.9 2.9 0 0 0 2.9 2.9 3.17 3.17 0 0 0 2.3-1.1l.1-.1a.1.1 0 0 1 .1-.1l17.9-25.6h.1l4.6-6.9zM127.67 68.3l-28.6-38 .8-.2a14.14 14.14 0 0 0 5.5-2.2c4.1-2.6 6.1-6.5 6.1-11.7a13.83 13.83 0 0 0-5.3-11.1c-2.8-2.3-7.5-3.5-14-3.5h-11.9v45.6h5.8V7h7.1c4.1 0 7.1.7 9 2a8.59 8.59 0 0 1 3.8 7.4 8.6 8.6 0 0 1-3 6.7 10.9 10.9 0 0 1-6.7 2.5c-.9.1-3.2.1-7.1.1h-.7L123 71.6a2.82 2.82 0 0 0 5.2-1.5 2.27 2.27 0 0 0-.53-1.8zM75.87 14.8a22.53 22.53 0 0 0-8.8-9.8 24.73 24.73 0 0 0-25.7 0 22.53 22.53 0 0 0-8.8 9.8 23.14 23.14 0 0 0-2.3 9.9 22.56 22.56 0 0 0 4 13.1l.3.4-.5.4a17.29 17.29 0 0 1-8.3 3.4 20.19 20.19 0 0 1-4.9-.1A17 17 0 0 1 9.17 35a18.4 18.4 0 0 1-3.4-8.5A16.53 16.53 0 0 1 7 17.2a18.09 18.09 0 0 1 5.8-7.4 17.61 17.61 0 0 1 7.9-3.3 17.09 17.09 0 0 1 3.2 0 23.09 23.09 0 0 1 5 1h.2L34 3.8l-.4-.2a20.66 20.66 0 0 0-12.4-2.3H21A24.14 24.14 0 0 0 9.47 5.9a23.4 23.4 0 0 0-7.4 9.3 21.93 21.93 0 0 0-1.9 12A23.49 23.49 0 0 0 14 45.7a21.85 21.85 0 0 0 11.6 1.7h.2A23 23 0 0 0 37 42.9a.78.78 0 0 0 .4-.4l.3-.3.4-.3.3.3A23.82 23.82 0 0 0 54.07 48h.1a24 24 0 0 0 17.1-7 22.11 22.11 0 0 0 6.8-16.4 23.76 23.76 0 0 0-2.2-9.8zM70 33.9a17.26 17.26 0 0 1-6.7 6.7 17.81 17.81 0 0 1-18.2 0 17.61 17.61 0 0 1-2.9-2.1l-.4-.3.3-.4a22.68 22.68 0 0 0 4.1-11.3 27 27 0 0 0-.2-6.2l-.1-.5-5 3.7v.2a24.12 24.12 0 0 1-.5 5 19.22 19.22 0 0 1-1.6 4.2l-.5 1-.5-1a17.73 17.73 0 0 1-1.9-8A17.43 17.43 0 0 1 39.47 14a17.39 17.39 0 0 1 14.6-7.4 17.39 17.39 0 0 1 14.6 7.4 17.43 17.43 0 0 1 3.6 10.9 17 17 0 0 1-2.27 9z"></path><path d="M112.67 33.8v.4a27.8 27.8 0 0 0 .4 3.7 12.54 12.54 0 0 0 5.1 7.4 14.59 14.59 0 0 0 8.6 2.6c5.5 0 9.5-2.3 12.1-6.8a13.57 13.57 0 0 0 1.8-6.8 11.94 11.94 0 0 0-6-10.9c-1.2-.8-3.4-1.6-6.9-2.7a20.48 20.48 0 0 1-5.8-2.3 5.52 5.52 0 0 1-2.6-4.8 7.1 7.1 0 0 1 2-5.1 7.27 7.27 0 0 1 5.1-2 6.64 6.64 0 0 1 5.1 2.1 7.62 7.62 0 0 1 2.1 5.6v.3h5.7v-.3a12.89 12.89 0 0 0-3.7-9.3 12.77 12.77 0 0 0-9.1-3.5 13.18 13.18 0 0 0-9.2 3.5 11.94 11.94 0 0 0-3.8 8.9 11.61 11.61 0 0 0 .7 4.4c.9 2.5 3 4.5 6 6a33.57 33.57 0 0 0 4.4 1.6 38.14 38.14 0 0 1 4.5 1.5c3.7 1.6 5.5 4.1 5.5 7.5a8.11 8.11 0 0 1-1.1 4.1c-1.5 2.6-3.8 3.9-7.3 3.9q-7.8 0-8.4-8.7v-.3h-5.2M178.07 47.2h5.7V7.1h10.1V1.8h-50.7v45.4h25.4V42h-19.7V26.9h19.1v-5.2h-19.1V7.1h29.2v40.1M269.17 0a24.2 24.2 0 1 0 24.2 24.2A24.16 24.16 0 0 0 269.17 0zm10.9 14.9l-9.5 4.4 8.4 4h.1l.2.1.1.1c.1 0 .1.1.2.1l.1.1.1.1a.1.1 0 0 0 .1.1l.1.2a.35.35 0 0 0 .1.2v.6a1.69 1.69 0 0 1-.9 1.4l-9 4.9 7.6 3.6a1.78 1.78 0 0 1 .8 1.1 2.2 2.2 0 0 1-.2 1.4 2 2 0 0 1-2.5.7l-6.6-6.1-6.7 6.1a1.91 1.91 0 0 1-2.5-.7 1.7 1.7 0 0 1-.2-1.4 1.78 1.78 0 0 1 .8-1.1l7.9-3.5-8.9-4.9-.2-.1a1.73 1.73 0 0 1-.6-2.5 2 2 0 0 1 1.2-.8l8.7-3.7-10.4-4.7a2.1 2.1 0 0 1-.8-1.1 2.2 2.2 0 0 1 .2-1.4 2 2 0 0 1 2.5-.7l9.5 7 8.6-6.9a1.94 1.94 0 0 1 2.5.7 2.24 2.24 0 0 1-.8 2.7z"></path><path d="M263.17 25.1l6.3 6.1 6.1-6-6.2-5.1-6.2 5z"></path></svg>