<svg id="Biossance-Logo__desktop" xmlns="http://www.w3.org/2000/svg" width="140" height="24" viewBox="0 0 139.321 23.328" alt="Biossance" class="md:w-[190px] sm:w-[140px] w-[120px] logo" data-astro-cid-r6zccy7c="" aria-label="biossance logo">
  <g data-name="Group 9">
    <path data-name="Path 613" d="M229.75,310.539a3.1,3.1,0,0,0,1.81-1.4,6.27,6.27,0,0,0,.652-3.054V304.8a5.617,5.617,0,0,0-1.074-3.694,4.651,4.651,0,0,0-3.714-1.288h-4.917v22.94h5.014a4.84,4.84,0,0,0,3.907-1.45,5.987,5.987,0,0,0,1.2-3.951v-1.969a6.283,6.283,0,0,0-.8-3.3A3.6,3.6,0,0,0,229.75,310.539Zm-5.415-9.024h3.056a2.8,2.8,0,0,1,2.349.835,4.3,4.3,0,0,1,.643,2.577v1.452a5.662,5.662,0,0,1-.217,1.707,2.155,2.155,0,0,1-.657,1.018,2.641,2.641,0,0,1-1.137.53,7.924,7.924,0,0,1-1.69.157h-2.347Zm6.469,15.808a4.464,4.464,0,0,1-.754,2.8,3.057,3.057,0,0,1-2.529.936h-3.186V311.49h2.636a4.271,4.271,0,0,1,2.889.845,3.838,3.838,0,0,1,.943,2.955Z" transform="translate(-222.507 -299.622)"></path>
    <rect data-name="Rectangle 1272" width="1.827" height="22.94" transform="translate(15.199 0.194)"></rect>
    <path data-name="Path 614" d="M417.185,299.9a4.445,4.445,0,0,0-1.627-1.243,5.54,5.54,0,0,0-2.315-.452,5.429,5.429,0,0,0-2.3.452,4.326,4.326,0,0,0-1.6,1.243,5.271,5.271,0,0,0-.918,1.868,8.724,8.724,0,0,0-.3,2.322v11.557a8.714,8.714,0,0,0,.3,2.322,5.262,5.262,0,0,0,.918,1.868,4.326,4.326,0,0,0,1.6,1.243,5.427,5.427,0,0,0,2.3.452,5.532,5.532,0,0,0,2.315-.452,4.436,4.436,0,0,0,1.627-1.242,5.107,5.107,0,0,0,.936-1.87,8.705,8.705,0,0,0,.3-2.322V304.1a8.717,8.717,0,0,0-.3-2.322A5.117,5.117,0,0,0,417.185,299.9Zm-.594,15.845a5.162,5.162,0,0,1-.794,2.955,2.84,2.84,0,0,1-2.553,1.136,2.757,2.757,0,0,1-2.52-1.133,5.328,5.328,0,0,1-.764-2.957V304a5.33,5.33,0,0,1,.764-2.957,2.756,2.756,0,0,1,2.52-1.133,2.839,2.839,0,0,1,2.553,1.135,5.166,5.166,0,0,1,.794,2.954Z" transform="translate(-385.736 -298.21)"></path>
    <path data-name="Path 615" d="M543.94,310.991h0a17.968,17.968,0,0,0-1.988-1.6A23.478,23.478,0,0,1,540,307.888a7.36,7.36,0,0,1-1.484-1.72,4.247,4.247,0,0,1-.572-2.266,5.27,5.27,0,0,1,.732-2.893,2.669,2.669,0,0,1,2.454-1.1,3.288,3.288,0,0,1,1.473.3,2.662,2.662,0,0,1,.986.834,3.544,3.544,0,0,1,.554,1.264,7.135,7.135,0,0,1,.173,1.623v.752h1.763v-.655a9.055,9.055,0,0,0-.28-2.3,5.228,5.228,0,0,0-.885-1.852,4.123,4.123,0,0,0-1.55-1.23,5.394,5.394,0,0,0-2.269-.435,4.552,4.552,0,0,0-3.8,1.618,6.784,6.784,0,0,0-1.18,4.17,5.833,5.833,0,0,0,.617,2.777,7.739,7.739,0,0,0,1.551,2.014,16.5,16.5,0,0,0,1.99,1.582,21.376,21.376,0,0,1,1.954,1.489,7.433,7.433,0,0,1,1.484,1.719,4.194,4.194,0,0,1,.571,2.234,5.189,5.189,0,0,1-.746,2.892,3.4,3.4,0,0,1-5.008,0,5.2,5.2,0,0,1-.746-2.892v-1.43h-1.763v1.333a8.988,8.988,0,0,0,.28,2.3,5.071,5.071,0,0,0,.9,1.854,4.206,4.206,0,0,0,1.581,1.228,6.207,6.207,0,0,0,4.565,0,4.2,4.2,0,0,0,1.581-1.228,5.093,5.093,0,0,0,.9-1.854,9.017,9.017,0,0,0,.28-2.3,5.658,5.658,0,0,0-.619-2.729A7.862,7.862,0,0,0,543.94,310.991Z" transform="translate(-498.19 -298.21)"></path>
    <path data-name="Path 616" d="M661.592,310.991h0a18,18,0,0,0-1.988-1.6,23.548,23.548,0,0,1-1.955-1.506,7.366,7.366,0,0,1-1.484-1.72,4.25,4.25,0,0,1-.572-2.266,5.272,5.272,0,0,1,.732-2.893,2.67,2.67,0,0,1,2.454-1.1,3.285,3.285,0,0,1,1.473.3,2.669,2.669,0,0,1,.986.834,3.551,3.551,0,0,1,.554,1.264,7.145,7.145,0,0,1,.173,1.623v.752h1.763v-.655a9.05,9.05,0,0,0-.28-2.3,5.214,5.214,0,0,0-.885-1.852,4.114,4.114,0,0,0-1.549-1.23,5.4,5.4,0,0,0-2.269-.435,4.552,4.552,0,0,0-3.8,1.618,6.785,6.785,0,0,0-1.179,4.17,5.834,5.834,0,0,0,.617,2.777,7.736,7.736,0,0,0,1.551,2.014,16.43,16.43,0,0,0,1.99,1.582,21.442,21.442,0,0,1,1.953,1.489,7.433,7.433,0,0,1,1.484,1.719,4.19,4.19,0,0,1,.571,2.234,5.19,5.19,0,0,1-.746,2.892,3.4,3.4,0,0,1-5.008,0,5.194,5.194,0,0,1-.747-2.892v-1.43h-1.763v1.333a9.005,9.005,0,0,0,.28,2.3,5.069,5.069,0,0,0,.9,1.854,4.2,4.2,0,0,0,1.581,1.228,6.208,6.208,0,0,0,4.565,0,4.2,4.2,0,0,0,1.58-1.228,5.089,5.089,0,0,0,.9-1.854,9.038,9.038,0,0,0,.28-2.3,5.654,5.654,0,0,0-.619-2.729A7.864,7.864,0,0,0,661.592,310.991Z" transform="translate(-601.646 -298.21)"></path>
    <path data-name="Path 617" d="M767.769,299.552l-5.014,22.972h1.705l1.129-5h6.765l1.13,5h1.835l-5.112-22.972Zm-1.876,16.335,3.049-13.673,3.109,13.673Z" transform="translate(-697.57 -299.39)"></path>
    <path data-name="Path 618" d="M909.366,318.075l-6.487-18.256H900.65v22.94h1.7V303.448l6.777,19.311h1.94v-22.94h-1.7Z" transform="translate(-818.828 -299.625)"></path>
    <path data-name="Path 619" d="M1041.176,299.906h0a4.372,4.372,0,0,0-1.579-1.243,5.988,5.988,0,0,0-4.568,0,4.365,4.365,0,0,0-1.579,1.243,5.078,5.078,0,0,0-.9,1.87,9.2,9.2,0,0,0-.28,2.319v11.557a9.193,9.193,0,0,0,.28,2.32,5.072,5.072,0,0,0,.9,1.87,4.354,4.354,0,0,0,1.579,1.243,5.993,5.993,0,0,0,4.569,0,4.361,4.361,0,0,0,1.579-1.243,5.067,5.067,0,0,0,.9-1.87,9.181,9.181,0,0,0,.28-2.319V312.9H1040.6v2.85a7.367,7.367,0,0,1-.173,1.64,3.374,3.374,0,0,1-.568,1.276,2.79,2.79,0,0,1-1,.837,3.865,3.865,0,0,1-3.01,0,2.777,2.777,0,0,1-1-.837,3.366,3.366,0,0,1-.567-1.275,7.366,7.366,0,0,1-.173-1.64V304a7.372,7.372,0,0,1,.173-1.641,3.534,3.534,0,0,1,.569-1.294,2.724,2.724,0,0,1,1-.851,3.87,3.87,0,0,1,3.01,0,2.73,2.73,0,0,1,1,.851,3.545,3.545,0,0,1,.569,1.293A7.374,7.374,0,0,1,1040.6,304v2.14h1.763V304.1a9.2,9.2,0,0,0-.28-2.32A5.086,5.086,0,0,0,1041.176,299.906Z" transform="translate(-934.564 -298.21)"></path>
    <path data-name="Path 620" d="M1159.882,322.756h9.253v-1.7h-7.424v-9.084h6.165v-1.7h-6.165v-8.761h7.424v-1.7h-9.253Z" transform="translate(-1046.781 -299.622)"></path>
    <path data-name="Path 621" d="M1291.681,403.681a1.938,1.938,0,1,0,1.938,1.938A1.94,1.94,0,0,0,1291.681,403.681Z" transform="translate(-1160.974 -390.955)"></path>
    <path data-name="Path 622" d="M1291.681,459.379a1.938,1.938,0,1,0,1.938,1.938A1.94,1.94,0,0,0,1291.681,459.379Z" transform="translate(-1160.974 -439.933)"></path>
    <path data-name="Path 623" d="M1347.007,459.379a1.938,1.938,0,1,0,1.938,1.938A1.94,1.94,0,0,0,1347.007,459.379Z" transform="translate(-1209.624 -439.933)"></path>
  </g>
  <g data-name="Group 11" transform="translate(123.603 0.194)">
    <g data-name="Group 10" transform="translate(0)">
      <path data-name="Path 624" d="M1247.361,301.159v-1.142h-.434v-.2h1.1v.2h-.437v1.142Z" transform="translate(-1246.926 -299.819)"></path>
      <path data-name="Path 625" d="M1257.835,301.159v-1.341h.329l.339,1.071.327-1.071h.322v1.341h-.2v-1.125l-.346,1.125h-.2l-.36-1.142v1.142Z" transform="translate(-1256.519 -299.819)"></path>
    </g>
  </g>
</svg>