<svg class="atari-logo" width="96" height="24" viewBox="0 0 96 24" fill="none" xmlns="http://www.w3.org/2000/svg">
  <g clip-path="url(#clip0_2538_8813)">
    <path d="M56.1569 1.03711H43.5957V4.40109H48.2149V23.2792H51.5156V4.40109H56.1569V1.03711Z" fill="black"></path>
    <path d="M91.8198 1.03711H88.3262V23.2792H91.8198V1.03711Z" fill="black"></path>
    <path d="M35.2328 14.5321L37.6989 6.03361L40.1682 14.5321H35.2328ZM40.2915 3.1502C39.9753 1.88554 38.9857 1.00977 37.6989 1.00977C37.1675 1.00914 36.6483 1.1691 36.2094 1.46868C35.7704 1.76826 35.4322 2.19348 35.2392 2.6886C35.1886 2.82771 29.2637 23.2772 29.2637 23.2772H32.6909L34.3223 17.6716H41.0787L42.6975 23.2709H46.1595L40.2915 3.1502Z" fill="black"></path>
    <path d="M59.803 14.5321L62.2627 6.03361L64.7225 14.5321H59.803ZM64.8616 3.1502C64.5454 1.88554 63.5558 1.00977 62.2785 1.00977C61.7483 1.01084 61.2307 1.17157 60.793 1.47101C60.3554 1.77046 60.0182 2.19474 59.8251 2.6886C59.7745 2.82771 53.8496 23.2772 53.8496 23.2772H57.28L58.9114 17.6716H65.6362L67.2518 23.2709H70.7075L64.8616 3.1502Z" fill="black"></path>
    <path d="M85.3264 6.89563C85.3749 7.70637 85.3304 8.52001 85.1936 9.3206C85.0724 10.1576 84.7609 10.9557 84.2829 11.6535C83.805 12.3512 83.1733 12.93 82.4366 13.3454C81.76 13.7406 81.3806 14.0125 81.3806 14.0125C81.2808 14.0931 81.2005 14.1953 81.1457 14.3114C81.091 14.4274 81.0632 14.5544 81.0645 14.6827C81.0602 14.9355 81.133 15.1837 81.2731 15.3941C81.2731 15.3941 81.5071 15.7103 82.1837 16.7631C82.8603 17.8159 86.5468 23.2792 86.5468 23.2792H82.6295L77.5898 15.6534C77.2054 15.1478 77.0027 14.5274 77.0144 13.8923C77.0042 13.4015 77.1499 12.9201 77.4305 12.5173C77.7112 12.1146 78.1123 11.8111 78.5763 11.6507C78.5763 11.6507 82.0541 10.522 82.0541 7.81883C82.0603 7.346 82.0008 6.87461 81.877 6.41822C81.72 5.84408 81.3821 5.33587 80.9133 4.96907C80.4446 4.60226 79.87 4.39643 79.275 4.38212H76.6224C76.5229 4.38171 76.4243 4.40095 76.3322 4.43873C76.2402 4.47652 76.1565 4.53211 76.086 4.60232C76.0155 4.67253 75.9596 4.75597 75.9214 4.84786C75.8832 4.93974 75.8636 5.03826 75.8636 5.13776V23.2792H72.5186V3.84465C72.5177 3.10306 72.8106 2.39133 73.3332 1.86518C73.8558 1.33903 74.5656 1.04129 75.3071 1.03711H79.1833C79.9911 1.03669 80.7911 1.19545 81.5375 1.5043C82.284 1.81315 82.9623 2.26604 83.5336 2.83711C84.105 3.40817 84.5582 4.08621 84.8674 4.8325C85.1767 5.57878 85.3358 6.37868 85.3358 7.1865" fill="black"></path>
    <path d="M94.391 21.9363H94.6597C94.751 21.9451 94.8427 21.9252 94.9221 21.8794C94.9449 21.8614 94.9631 21.8382 94.9752 21.8118C94.9873 21.7855 94.9929 21.7566 94.9917 21.7276C94.9934 21.6887 94.9811 21.6506 94.9569 21.6201C94.9339 21.5876 94.9021 21.5624 94.8652 21.5474C94.792 21.5284 94.7163 21.521 94.6407 21.5252H94.391V21.9363ZM94.1697 22.7109V21.3355H94.6407C94.7581 21.3309 94.8755 21.3448 94.9885 21.3766C95.0594 21.4008 95.1204 21.4475 95.1624 21.5094C95.2027 21.5681 95.2247 21.6374 95.2256 21.7086C95.2266 21.7574 95.2175 21.8058 95.199 21.851C95.1805 21.8961 95.153 21.937 95.1181 21.971C95.0426 22.0472 94.9408 22.0913 94.8336 22.0943C94.877 22.1121 94.9167 22.1378 94.9506 22.1702C95.0283 22.2527 95.0962 22.3439 95.1529 22.4421L95.3205 22.7109H95.0486L94.9284 22.4959C94.8707 22.3777 94.7926 22.2707 94.6976 22.1797C94.6446 22.1468 94.583 22.1303 94.5206 22.1323H94.391V22.7172L94.1697 22.7109ZM94.7293 20.9403C94.5454 20.942 94.365 20.9898 94.2044 21.0795C94.0367 21.1691 93.8984 21.3053 93.8061 21.4715C93.7138 21.6333 93.6652 21.8164 93.6652 22.0027C93.6652 22.1889 93.7138 22.372 93.8061 22.5338C93.8998 22.6987 94.0363 22.8353 94.2013 22.929C94.3629 23.0202 94.5453 23.068 94.7308 23.068C94.9164 23.068 95.0988 23.0202 95.2604 22.929C95.4251 22.836 95.5608 22.6992 95.6525 22.5338C95.7466 22.3726 95.7963 22.1893 95.7963 22.0027C95.7963 21.816 95.7466 21.6327 95.6525 21.4715C95.5629 21.3042 95.4252 21.1677 95.2573 21.0795C95.0977 20.9902 94.9184 20.9424 94.7356 20.9403H94.7293ZM94.7356 20.7285C94.9569 20.7288 95.1745 20.7854 95.3679 20.8929C95.5677 21.0015 95.7322 21.165 95.8422 21.364C95.9517 21.5569 96.0105 21.7745 96.0129 21.9963C96.0134 22.2182 95.9557 22.4362 95.8453 22.6287C95.7374 22.8281 95.5737 22.9918 95.3742 23.0997C95.182 23.2107 94.9639 23.2692 94.7419 23.2692C94.5199 23.2692 94.3018 23.2107 94.1096 23.0997C93.9098 22.9912 93.7453 22.8277 93.6353 22.6287C93.5263 22.4357 93.4687 22.218 93.4678 21.9963C93.4702 21.7745 93.5289 21.5569 93.6385 21.364C93.7497 21.1648 93.9153 21.0014 94.1159 20.8929C94.3094 20.7855 94.5269 20.729 94.7482 20.7285" fill="black"></path>
    <path d="M0 23.2792C0 23.2792 3.63272 22.8682 6.46239 20.5318C9.15927 18.3186 10.1331 16.3932 10.8065 14.2085C11.4799 12.0238 11.5811 6.81342 11.5811 5.26422V1.03711H9.90541V2.61793C9.87696 4.97019 9.67145 9.44075 8.59333 12.3463C6.00711 19.3367 0 19.969 0 19.969V23.2792Z" fill="black"></path>
    <path d="M27.6455 23.2792C27.6455 23.2792 24.0286 22.8682 21.1831 20.5318C18.4863 18.3186 17.5125 16.3932 16.8391 14.2085C16.1656 12.0238 16.0645 6.81342 16.0645 5.26422V1.03711H17.7401V2.61793C17.7717 4.97019 17.9741 9.44075 19.0522 12.3463C21.6542 19.3367 27.6455 19.969 27.6455 19.969V23.2792Z" fill="black"></path>
    <path d="M15.3726 1.03711H12.2773V23.2792H15.3726V1.03711Z" fill="black"></path>
  </g>
  <defs>
    <clipPath id="clip0_2538_8813">
      <rect width="96" height="22.2801" fill="black" transform="translate(0 1)"></rect>
    </clipPath>
  </defs>
</svg>