<svg class="site-header__logo-icon" version="1.1" xmlns="http://www.w3.org/2000/svg" xmlns:xlink="http://www.w3.org/1999/xlink" x="0px" y="0px" width="55.69px" height="60px" viewBox="0 0 55.69 60" style="overflow:visible;enable-background:new 0 0 55.69 60;" xml:space="preserve">
<defs>
</defs>
<g>
	<g>
		<path class="st0" d="M51.41,28.65l-2.75-2.78c2.28-2.82,3.53-6.3,3.53-9.97c0-4.24-1.65-8.22-4.59-11.16l-0.08-0.09
			c-3-3-6.98-4.65-11.22-4.65h0c-3.76,0-7.32,1.31-10.17,3.7C19.96-0.6,11.38-0.01,5.87,5.49c-3,3-4.64,6.98-4.64,11.22
			c0,3.04,0.86,5.95,2.45,8.46c-2.55,3.07-3.79,6.66-3.67,10.69c0.14,4.36,1.76,8.13,4.82,11.19c0,0,8.08,8.12,8.2,8.24l0.07,0.07
			C16.19,58.45,20.26,60,24.32,60s8.12-1.55,11.22-4.64c0.17-0.17,0.32-0.35,0.48-0.53c1.25,0.31,2.53,0.48,3.82,0.48
			c4.06,0,8.12-1.55,11.21-4.64c3-3,4.65-6.98,4.65-11.22C55.69,35.4,54.17,31.59,51.41,28.65 M36.31,3.43
			c3.32,0,6.44,1.29,8.73,3.58l0.08,0.09c2.35,2.35,3.64,5.47,3.64,8.79c0,2.76-0.9,5.37-2.55,7.52c0,0-17.42-17.37-17.46-17.41
			C30.92,4.34,33.54,3.43,36.31,3.43 M14.48,36.51l14.15,14.15l-0.01,0.01c0.09,0.09,0.19,0.17,0.29,0.26l0.11,0.1
			c0.04,0.04,0.08,0.06,0.12,0.1c1.03,0.94,2.14,1.74,3.33,2.36c-2.36,2.05-5.14,3.06-8.3,2.95c-3.46-0.11-6.48-1.43-8.97-3.92
			l-0.06-0.06C11.03,47.99,10.82,41.23,14.48,36.51 M26.35,8.45c3.97,4.42,4.21,11.02,0.72,15.7C23.1,19.73,22.86,13.13,26.35,8.45
			 M31.33,48.51L16.94,34.11c2.12-1.57,4.67-2.43,7.36-2.43c3.32,0,6.44,1.29,8.73,3.58l0.08,0.09c4.19,4.19,4.75,10.65,1.69,15.46
			C33.55,50.26,32.38,49.49,31.33,48.51 M17.11,29.17c-3.18,0-6.16-1.19-8.47-3.35L8.32,25.5c2.31-1.7,4.87-2.49,7.77-2.41
			c3.31,0.1,6.17,1.29,8.54,3.52C22.48,28.26,19.87,29.17,17.11,29.17 M32.86,14.9l10.92,10.92c-4.14,3.1-9.78,3.29-14.1,0.55
			C32.25,23.03,33.31,18.9,32.86,14.9 M8.3,7.92c4.2-4.2,10.68-4.75,15.45-1.71c-3.2,4.16-4.06,9.54-2.57,14.36
			c-1.56-0.54-3.21-0.84-4.97-0.9c-3.68-0.12-7.02,0.94-9.96,3.11c-1.03-1.83-1.59-3.91-1.59-6.07C4.66,13.39,5.95,10.27,8.3,7.92
			 M7.26,44.62c-2.43-2.43-3.71-5.41-3.82-8.87c-0.09-2.91,0.73-5.53,2.43-7.82l0.02,0.03c0.1,0.1,0.2,0.18,0.3,0.27l5.84,5.84
			c-2.79,3.4-3.95,7.7-3.48,11.85L7.26,44.62z M48.62,48.25c-2.82,2.82-6.67,3.99-10.35,3.53c1.38-2.42,2.05-5.12,1.96-8.08
			c-0.13-4.36-1.79-8.16-4.92-11.29l-0.77-0.77c0.6,0.07,1.2,0.11,1.8,0.11c3.51,0,7.01-1.16,9.9-3.47l2.39,2.39
			c2.35,2.35,3.64,5.47,3.64,8.79C52.26,42.78,50.97,45.9,48.62,48.25"></path>
	</g>
</g>
</svg>