<svg viewBox="0 0 216 24" xmlns="http://www.w3.org/2000/svg" class="svg-logo-barefoot-dreams" data-v-3f29369d=""><path fill="currentColor" d="M7.68 9.52l-.077-.086c-.033.078-.195.28-.483.603-.22.249-.33.48-.33.688 0 .249.102.457.305.632.865 1.034 1.296 2.41 1.296 4.127 0 1.57-.313 3.05-.943 4.444-.799.956-1.9 1.473-3.306 1.547-.353.022-1.734.03-4.142.03V1.004c2.559 0 4.043.011 4.451.03 1.646.078 2.754.755 3.332 2.034.442 1.528.663 2.77.663 3.726 0 1.034-.258 1.941-.766 2.726zM6.333 5.418a1.003 1.003 0 00-.026-.372C6 4.243 5.493 3.72 4.779 3.47c-.287-.096-1.024-.208-2.21-.345-.22.706-.338 1.558-.356 2.55-.019 1.51-.033 2.366-.052 2.566-.018.201-.051.424-.103.674l.585.658c1.528.056 2.603-.257 3.23-.945.32-.476.482-1.022.482-1.636a25.833 25.833 0 00-.022-1.573zM6.28 14.51a15.21 15.21 0 01-.077-1.346l-1.068-1.29c-.747-.116-1.263-.171-1.55-.171-.593 0-1.093.219-1.502.658l.228 6.738c1.66 0 2.798-.22 3.41-.658.423-.726.636-1.588.636-2.581 0-.346-.025-.796-.077-1.35zM19.204 2.265l-.103.803 1.476.342 4.275 20.56a.522.522 0 00-.13.03h-.15a13.4 13.4 0 01-.98-.03 8.344 8.344 0 00-.548-.03c-.203-.364-.372-.84-.508-1.435-.254-1.09-.416-1.766-.482-2.034-.151-.591-.313-1.07-.483-1.435h-5.114c-.526.966-.89 2.108-1.093 3.424a13.068 13.068 0 01-.332 1.536H13.56v-.747c.508-2.257 1.17-5.716 1.984-10.364.663-3.849 1.307-7.036 1.933-9.56.409-.19.67-.517.788-.979-.037.004.276-.022.939-.081zm1.322 9.92c-.324-1.394-.807-4.328-1.45-8.801-.833 3.748-1.393 6.53-1.68 8.345a41.73 41.73 0 00-.456 5.19h4.274a31.1 31.1 0 00-.688-4.733zM39.295 20.646c.019 0 .033-.008.052-.03-.762 0-1.178-.007-1.248-.03a1.506 1.506 0 01-.405-.115c-.509-2.142-.891-3.633-1.145-4.473a22.061 22.061 0 00-2.162-4.842c-.405-.212-.703-.316-.89-.316-.814 0-1.322.524-1.525 1.576-.22 1.109-.324 2.592-.305 4.444.018 1.529.187 2.86.508 3.987l.305-.257-.471-.316c-.133.23-.232.346-.298.346-.199 0-.53-.067-.994-.201-.2-2.58-.298-5.649-.298-9.204v-.431h-1.856v.773c.228 0 .427.02.6.056.103.019.243.049.42.086.56.134.836-.03.836-.487v-2.64l.103-8.286C30.86.096 31.317 0 31.895 0s1.237.048 1.984.145c.832.115 1.517.152 2.062.115 1.392.499 2.206 1.127 2.441 1.893.339 1.052.508 2.112.508 3.183 0 1.837-.475 3.414-1.425 4.73 0 .614.144 1.138.431 1.577-.508.614-.762 1.339-.762 2.18 0 .438.085.858.254 1.26.273.632.563 1.547.876 2.751.313 1.205.667 2.169 1.057 2.897l-.026-.085zm-6.51-18.984c-.507 1.454-.761 2.726-.761 3.816 0 .88.162 2.179.482 3.9 1.002.078 2.135.019 3.41-.17.677-.9 1.074-1.875 1.196-2.927.066-.632.103-1.566.103-2.812-.442-.766-1.027-1.279-1.756-1.546-.667-.25-1.554-.335-2.673-.26zM52.623 24h-9.182V3.354h8.7c.051.287.077.591.077.919 0 .17-.018.316-.052.431h-5.85l-.762 1.29.177 6.08c1.001.305 1.822.458 2.467.458h1.678c.542 0 .976.067 1.296.197v1.123l-5.441.286v8.23l6.892.286c.015.19.026.439.026.744 0 .286-.008.487-.026.602zM65.469 4.042h-5.622l-1.171 1.491.15 6.683 1.094 1.06h3.181c.541 0 1.002.03 1.374.085 0 .152-.019.402-.052.744h-4.68l-1.067 1.145.15 8.631h-1.093V3.384h7.732v.658h.004zM79.864 19.01c-.136.725-.56 1.424-1.27 2.093-1.053.974-2.323 1.462-3.814 1.462-1.458 0-2.688-.42-3.69-1.261-.577-.476-1.1-1.491-1.575-3.038l.103-13.476c.254-.86.747-1.614 1.476-2.265 1.035-.937 2.28-1.406 3.74-1.406 2.052 0 3.587.852 4.603 2.551l.585 1.607-.158 13.733zM77.066 4.905l-.663-1.12c-.305-.516-.773-.803-1.399-.862l-.43-.171c-1.34.193-2.272 1.034-2.799 2.528l-.15 12.837a3.819 3.819 0 001.222 2.068c.626.554 1.322.833 2.084.833.626 0 1.119-.257 1.476-.777.103-.134.32-.488.663-1.064V4.905h-.004zM95.022 19.01c-.136.725-.56 1.424-1.27 2.093-1.053.974-2.323 1.462-3.815 1.462-1.458 0-2.687-.42-3.689-1.261-.578-.476-1.1-1.491-1.576-3.038l.104-13.476c.254-.86.747-1.614 1.476-2.265 1.035-.937 2.279-1.406 3.74-1.406 2.051 0 3.587.852 4.603 2.551l.585 1.607-.158 13.733zM92.224 4.905l-.663-1.12c-.306-.516-.773-.803-1.399-.862l-.43-.171c-1.34.193-2.272 1.034-2.799 2.528l-.15 12.837a3.819 3.819 0 001.221 2.068c.626.554 1.322.833 2.084.833.626 0 1.12-.257 1.477-.777.103-.134.32-.488.662-1.064V4.905h-.003zM101.178 4.016h9.234v.658c-.24.171-.578.525-1.017 1.06h-.891c-.846-.018-1.62.372-2.315 1.175v16.232h-.888l-.103-16.373c-.611-.707-1.333-1.052-2.161-1.034h-.942c-.17-.23-.475-.584-.917-1.06v-.658zM136.198 19.612c-.644 1.186-1.737 1.874-3.28 2.064-1.83 0-3.325.011-4.477.03V1.146h3.814c2.136 0 3.45.698 3.943 2.093l.508 1.435c0 .287.034 1.577.104 3.871.033 1.146.051 2.466.051 3.957 0 2.927-.221 5.295-.663 7.11zm-1.704-14.596c-.273-1.108-1.016-1.662-2.239-1.662-.475 0-1.009.123-1.601.372v15.34c.39.323.821.486 1.296.486.338 0 .729-.055 1.17-.17.748-.19 1.245-.834 1.503-1.923l-.129-12.443zM150.951 20.646c.015 0 .033-.008.052-.03-.762 0-1.178-.007-1.245-.03a1.592 1.592 0 01-.408-.115c-.509-2.142-.891-3.633-1.145-4.473a22.024 22.024 0 00-2.162-4.846c-.408-.212-.703-.316-.891-.316-.813 0-1.321.524-1.524 1.577-.221 1.108-.324 2.592-.305 4.444.014 1.528.187 2.86.508 3.986l.305-.257-.471-.316c-.133.23-.232.346-.298.346-.199 0-.53-.067-.994-.2-.199-2.582-.299-5.65-.299-9.204v-.432h-1.855v.774c.228 0 .427.018.6.056.103.018.243.048.42.085.559.134.835-.03.835-.487v-2.64l.104-8.29c.338-.181.795-.278 1.373-.278.574 0 1.237.048 1.984.145.832.115 1.517.152 2.062.115 1.392.499 2.205 1.127 2.441 1.893.339 1.052.508 2.112.508 3.183 0 1.837-.475 3.414-1.425 4.73 0 .614.144 1.138.431 1.577-.508.614-.762 1.339-.762 2.18 0 .438.085.858.254 1.26.272.632.563 1.547.876 2.751.313 1.205.667 2.169 1.057 2.897l-.026-.085zm-6.513-18.984c-.508 1.454-.762 2.726-.762 3.816 0 .88.162 2.179.482 3.9 1.002.078 2.136.019 3.41-.17.677-.9 1.075-1.875 1.196-2.927.066-.632.103-1.566.103-2.812-.442-.766-1.027-1.279-1.756-1.546-.663-.25-1.554-.335-2.673-.26zM164.279 24h-9.182V3.354h8.7c.051.287.077.591.077.919 0 .17-.018.316-.052.431h-5.85l-.762 1.29.177 6.08c1.001.305 1.822.458 2.467.458h1.678c.542 0 .976.067 1.296.197v1.123l-5.441.286v8.23l6.892.286c.018.19.026.439.026.744 0 .286-.011.487-.026.602zM174.68 2.265l-.103.803 1.476.342 4.275 20.56a.518.518 0 00-.129.03h-.151c-.409 0-.733-.011-.979-.03a8.433 8.433 0 00-.545-.03c-.203-.364-.372-.84-.508-1.435-.254-1.09-.416-1.766-.483-2.034-.154-.591-.313-1.07-.482-1.435h-5.114c-.526.966-.891 2.108-1.093 3.424a13.19 13.19 0 01-.332 1.536h-1.473v-.747c.509-2.257 1.171-5.716 1.985-10.364.663-3.849 1.307-7.036 1.933-9.56.409-.19.67-.517.788-.979-.041.004.276-.022.935-.081zm1.322 9.92c-.324-1.394-.807-4.328-1.451-8.801-.832 3.748-1.392 6.53-1.679 8.345a41.074 41.074 0 00-.456 5.19h4.274a30.274 30.274 0 00-.688-4.733zM196.428 23.714c0-3.057-.066-7.925-.203-14.596l-2.315 2.294-2.441 8.088h-.052c-.287-.784-.703-2.034-1.244-3.755-.678-2.124-1.823-5.392-3.435-9.806l-.229 17.719-.942.056V3.239h.942c.766 2.235 2.397 6.902 4.897 13.993a1123.11 1123.11 0 004.716-13.937l1.123-.06.103 20.416-.92.063zM209.575 8.285l-.025-.085c-.137-1.168-.534-1.949-1.197-2.35a3.037 3.037 0 00-2.01-.744c-.663 0-1.245.238-1.756.717-.729.688-1.094 1.588-1.094 2.696 0 .383.066.882.203 1.492.508.974 1.281 1.788 2.315 2.435l2.902 1.491c.592.42.975 1.09 1.145 2.008.795.707 1.196 1.614 1.196 2.726 0 .48-.066 1.004-.202 1.577-.899 1.815-2.11 2.752-3.638 2.811-1.679.056-2.864-.19-3.56-.744-.931-.937-1.535-2.026-1.804-3.268.508-.25.898-.372 1.171-.372h.077c.221 1.547.95 2.629 2.187 3.239 2.051.078 3.325-.469 3.814-1.636.137-.536.236-.986.306-1.346a5.134 5.134 0 00-.026-1.837c-.71-1.053-1.797-2.131-3.255-3.24l-.787-.602c-1.186-.918-1.919-1.528-2.187-1.837-.763-.859-1.145-1.759-1.145-2.696 0-1.435.526-2.562 1.575-3.384.729-.572 1.595-.859 2.596-.859 1.035 0 1.966.305 2.798.919a9 9 0 011.524 2.725h-.077c-.239.034-.585.09-1.046.164zM213.975 4.637c1.064 0 2.025.87 2.025 2.216 0 1.35-.957 2.22-2.025 2.22-1.075 0-2.032-.87-2.032-2.22 0-1.346.957-2.216 2.032-2.216zm0 3.946c.828 0 1.502-.737 1.502-1.726 0-.993-.685-1.725-1.502-1.725-.839 0-1.509.729-1.509 1.725 0 .99.673 1.726 1.509 1.726zm-.328-.517h-.445V5.637h.887c.497 0 .788.198.788.722 0 .446-.239.625-.578.65l.578 1.057h-.512l-.53-1.038h-.191v1.038h.003zm0-1.443h.424c.221 0 .364-.082.364-.305 0-.234-.213-.279-.39-.279h-.398v.584z" class="svg-logo-path"></path></svg>