<svg class="icon-vip-welcome-logo" xmlns="http://www.w3.org/2000/svg" fill="none" viewBox="0 0 249 50">
                <path fill="white" d="M0.775 12.37H4.309L9.114 29.699L14.57 12.37H17.856L23.281 29.73L28.21 12.37H31.62L24.955 35H21.607L16.182 17.609L10.726 35H7.285L0.775 12.37ZM39.1482 35.31C37.9288 35.31 36.8128 35.1033 35.8002 34.69C34.7875 34.2767 33.9195 33.7187 33.1962 33.016C32.4935 32.2927 31.9458 31.4453 31.5532 30.474C31.1605 29.482 30.9642 28.428 30.9642 27.312C30.9642 26.1753 31.1708 25.111 31.5842 24.119C31.9975 23.127 32.5658 22.2693 33.2892 21.546C34.0125 20.8227 34.8598 20.2543 35.8312 19.841C36.8232 19.407 37.8875 19.19 39.0242 19.19C40.1608 19.19 41.2148 19.3863 42.1862 19.779C43.1782 20.1717 44.0255 20.7193 44.7282 21.422C45.4308 22.1247 45.9785 22.9617 46.3712 23.933C46.7845 24.9043 46.9912 25.9583 46.9912 27.095V28.397H34.1572C34.3845 29.5957 34.9322 30.5567 35.8002 31.28C36.6682 32.0033 37.7842 32.365 39.1482 32.365C40.2022 32.365 41.1115 32.117 41.8762 31.621C42.6615 31.1043 43.2608 30.4223 43.6742 29.575L46.4022 31.094C45.7202 32.3753 44.7695 33.3983 43.5502 34.163C42.3515 34.9277 40.8842 35.31 39.1482 35.31ZM39.0242 22.104C37.8668 22.104 36.8645 22.4243 36.0172 23.065C35.1905 23.7057 34.6222 24.5427 34.3122 25.576H43.6122C43.3642 24.46 42.8372 23.6023 42.0312 23.003C41.2252 22.4037 40.2228 22.104 39.0242 22.104ZM49.6862 12.37H53.0032V35H49.6862V12.37ZM63.7583 35.31C62.6009 35.31 61.5263 35.1033 60.5343 34.69C59.5629 34.256 58.7156 33.6773 57.9923 32.954C57.2689 32.2307 56.7006 31.3833 56.2873 30.412C55.8739 29.42 55.6673 28.366 55.6673 27.25C55.6673 26.1133 55.8739 25.0593 56.2873 24.088C56.7006 23.096 57.2689 22.2383 57.9923 21.515C58.7363 20.7917 59.5939 20.2233 60.5653 19.81C61.5573 19.3967 62.6216 19.19 63.7583 19.19C65.4943 19.19 67.0029 19.6343 68.2843 20.523C69.5656 21.391 70.5059 22.5277 71.1053 23.933L68.1293 25.204C67.7366 24.2947 67.1579 23.5817 66.3933 23.065C65.6493 22.5483 64.7709 22.29 63.7583 22.29C63.0763 22.29 62.4356 22.4243 61.8363 22.693C61.2576 22.941 60.7513 23.2923 60.3173 23.747C59.8833 24.181 59.5423 24.708 59.2943 25.328C59.0463 25.9273 58.9223 26.568 58.9223 27.25C58.9223 27.932 59.0463 28.5727 59.2943 29.172C59.5423 29.7713 59.8833 30.2983 60.3173 30.753C60.7513 31.2077 61.2679 31.5693 61.8673 31.838C62.4666 32.086 63.1176 32.21 63.8203 32.21C64.8743 32.21 65.7733 31.9207 66.5173 31.342C67.2819 30.7633 67.8399 30.04 68.1913 29.172L71.1983 30.443C70.5783 31.869 69.6379 33.0367 68.3773 33.946C67.1166 34.8553 65.5769 35.31 63.7583 35.31ZM80.9824 35.31C79.8664 35.31 78.8227 35.1033 77.8514 34.69C76.8801 34.2767 76.0224 33.7083 75.2784 32.985C74.5551 32.241 73.9867 31.3833 73.5734 30.412C73.1601 29.42 72.9534 28.366 72.9534 27.25C72.9534 26.1133 73.1601 25.0593 73.5734 24.088C73.9867 23.096 74.5551 22.2383 75.2784 21.515C76.0224 20.7917 76.8801 20.2233 77.8514 19.81C78.8227 19.3967 79.8664 19.19 80.9824 19.19C82.0984 19.19 83.1421 19.3967 84.1134 19.81C85.1054 20.2233 85.9631 20.7917 86.6864 21.515C87.4097 22.2383 87.9781 23.096 88.3914 24.088C88.8254 25.0593 89.0424 26.1133 89.0424 27.25C89.0424 28.366 88.8254 29.42 88.3914 30.412C87.9781 31.3833 87.4097 32.241 86.6864 32.985C85.9631 33.7083 85.1054 34.2767 84.1134 34.69C83.1421 35.1033 82.0984 35.31 80.9824 35.31ZM80.9824 32.21C81.6437 32.21 82.2637 32.086 82.8424 31.838C83.4211 31.5693 83.9274 31.2077 84.3614 30.753C84.7954 30.2983 85.1364 29.7713 85.3844 29.172C85.6324 28.5727 85.7564 27.932 85.7564 27.25C85.7564 26.568 85.6324 25.9273 85.3844 25.328C85.1364 24.7287 84.7954 24.2017 84.3614 23.747C83.9274 23.2923 83.4211 22.941 82.8424 22.693C82.2637 22.4243 81.6437 22.29 80.9824 22.29C80.3211 22.29 79.7011 22.4243 79.1224 22.693C78.5437 22.941 78.0374 23.2923 77.6034 23.747C77.1901 24.2017 76.8594 24.7287 76.6114 25.328C76.3634 25.9273 76.2394 26.568 76.2394 27.25C76.2394 27.932 76.3634 28.5727 76.6114 29.172C76.8594 29.7713 77.1901 30.2983 77.6034 30.753C78.0374 31.2077 78.5437 31.5693 79.1224 31.838C79.7011 32.086 80.3211 32.21 80.9824 32.21ZM91.6748 19.5H94.9608V21.36C95.4568 20.678 96.0871 20.151 96.8518 19.779C97.6371 19.3863 98.5258 19.19 99.5178 19.19C100.758 19.19 101.801 19.438 102.649 19.934C103.517 20.43 104.178 21.112 104.633 21.98C105.17 21.112 105.883 20.43 106.772 19.934C107.681 19.438 108.714 19.19 109.872 19.19C111.98 19.19 113.571 19.779 114.646 20.957C115.741 22.135 116.289 23.716 116.289 25.7V35H112.91V25.917C112.91 24.739 112.6 23.809 111.98 23.127C111.38 22.4243 110.492 22.073 109.314 22.073C108.26 22.073 107.381 22.4243 106.679 23.127C105.976 23.8297 105.625 24.8733 105.625 26.258V35H102.277V25.762C102.277 24.6253 101.967 23.7263 101.347 23.065C100.747 22.4037 99.8898 22.073 98.7738 22.073C97.6784 22.073 96.7691 22.4347 96.0458 23.158C95.3431 23.8813 94.9918 24.956 94.9918 26.382V35H91.6748V19.5ZM127.062 35.31C125.843 35.31 124.727 35.1033 123.714 34.69C122.702 34.2767 121.834 33.7187 121.11 33.016C120.408 32.2927 119.86 31.4453 119.467 30.474C119.075 29.482 118.878 28.428 118.878 27.312C118.878 26.1753 119.085 25.111 119.498 24.119C119.912 23.127 120.48 22.2693 121.203 21.546C121.927 20.8227 122.774 20.2543 123.745 19.841C124.737 19.407 125.802 19.19 126.938 19.19C128.075 19.19 129.129 19.3863 130.1 19.779C131.092 20.1717 131.94 20.7193 132.642 21.422C133.345 22.1247 133.893 22.9617 134.285 23.933C134.699 24.9043 134.905 25.9583 134.905 27.095V28.397H122.071C122.299 29.5957 122.846 30.5567 123.714 31.28C124.582 32.0033 125.698 32.365 127.062 32.365C128.116 32.365 129.026 32.117 129.79 31.621C130.576 31.1043 131.175 30.4223 131.588 29.575L134.316 31.094C133.634 32.3753 132.684 33.3983 131.464 34.163C130.266 34.9277 128.798 35.31 127.062 35.31ZM126.938 22.104C125.781 22.104 124.779 22.4243 123.931 23.065C123.105 23.7057 122.536 24.5427 122.226 25.576H131.526C131.278 24.46 130.751 23.6023 129.945 23.003C129.139 22.4037 128.137 22.104 126.938 22.104Z"></path>
                <path fill="#FFC56F" d="M155 10.8097C155 4.83965 159.753 0 165.616 0H237.806C243.669 0 248.422 4.83965 248.422 10.8097V38.9148C248.422 44.8848 243.669 49.7245 237.806 49.7245H165.616C159.753 49.7245 155 44.8848 155 38.9148V10.8097Z"></path>
                <path fill="black" d="M176.347 40.6836L173.082 9.04077H182.106L183.395 24.9489L190.528 9.04077H199.939L185.2 40.6836H176.347Z"></path>
                <path fill="black" d="M202.663 9.04077H211.601L206.101 40.6836H197.163L202.663 9.04077Z"></path>
                <path fill="black" d="M215.019 9.04077H225.891C227.323 9.04077 228.727 9.3442 230.102 9.95104C231.477 10.5579 232.666 11.4248 233.669 12.5518C234.671 13.6499 235.416 14.9937 235.903 16.583C236.419 18.1435 236.505 19.8918 236.161 21.828C235.846 23.5618 235.345 25.1223 234.657 26.5094C233.998 27.8964 233.124 29.0812 232.036 30.0638C230.947 31.0174 229.629 31.7543 228.082 32.2744C226.564 32.7946 224.817 33.0547 222.84 33.0547H219.789L218.457 40.6836H209.519L215.019 9.04077ZM222.539 17.2766L221.25 24.6455H223.313C224.573 24.6455 225.518 24.3131 226.149 23.6485C226.808 22.9839 227.237 22.1169 227.438 21.0477C227.638 19.8629 227.438 18.9382 226.836 18.2736C226.263 17.6089 225.461 17.2766 224.43 17.2766H222.539Z"></path>
            </svg>