<svg xmlns="http://www.w3.org/2000/svg" aria-hidden="true" focusable="false" role="presentation" class="icon account-logo" viewBox="0 0 57 57"><path d="M28.1 34.7h-.8c-2.7-.2-5.4-1.7-7.4-4.1-1.6-1.9-2.7-4.3-3.6-7.4-1-3.7-1.8-9.2.3-14.3 1-2.4 2.5-4.4 4.4-5.9 2-1.6 4.5-2.5 7-2.6h.3c2.4 0 4.9.8 6.9 2.3 2 1.4 3.6 3.5 4.7 5.9 2.3 5.3 1.5 10.8.4 14.6-1 3.4-2.4 6.1-4.4 8-1.2 1.2-2.5 2.1-3.9 2.7-1.2.5-2.5.8-3.9.8zm0-32.3c-2 .1-4.1.8-5.8 2.2-1.6 1.3-2.9 3-3.8 5.1-1.9 4.6-1.2 9.5-.2 12.9.8 2.8 1.8 5 3.2 6.7 1.6 2 3.8 3.2 6 3.4h.6c1 0 2.1-.2 3.2-.7 1.2-.5 2.3-1.3 3.2-2.3 1.7-1.7 3-4.1 3.9-7.2 1.4-4.8 1.3-9.5-.3-13.2-.9-2.1-2.3-3.8-4-5.1-1.7-1.2-3.8-1.9-5.8-1.9l-.2.1zM55.3 55.8c-.2 0-.5-.1-.7-.2-.2-.2-.3-.4-.4-.7-.4-3.9-3.2-7.6-7.9-10.3-4.9-2.8-11.2-4.4-18-4.4-6.7 0-13.1 1.6-18 4.4-4.7 2.7-7.6 6.4-8 10.3 0 .3-.1.5-.4.7-.2.2-.4.2-.7.2h-.1c-.3 0-.5-.2-.7-.4-.2-.2-.2-.5-.2-.8.5-4.6 3.7-8.8 9-11.9 5.2-3 11.9-4.6 19-4.6s13.9 1.7 19.1 4.7c5.3 3.1 8.5 7.3 9 11.9 0 .3-.1.5-.2.8-.2.2-.4.3-.7.4l-.1-.1z"></path></svg>