<svg class="logo" width="235" height="29" viewBox="0 0 235 29" fill="none" xmlns="http://www.w3.org/2000/svg">
    <path d="M207.428 0.5C208.275 0.66154 209.142 0.752591 209.963 0.999307C213.413 2.03463 215.315 4.56054 216.192 7.97051C216.504 9.1806 216.615 10.4435 216.827 11.7417C214.218 11.7417 211.8 11.7417 209.341 11.7417C209.23 11.0515 209.155 10.3745 209.008 9.71368C208.739 8.50506 208.119 7.95142 207.001 7.84715C205.66 7.72233 204.692 8.17317 204.279 9.28046C204.002 10.0235 203.778 10.8401 203.778 11.6243C203.775 13.9886 203.762 16.3677 204.008 18.7129C204.203 20.5795 205.428 21.3461 207.155 21.1052C208.034 20.9833 208.637 20.5075 208.878 19.6587C209.107 18.8466 209.237 18.0036 209.419 17.1343C211.8 17.1343 214.22 17.1343 216.638 17.1343C217.461 22.4901 213.103 27.9472 207.777 28.2468C205.934 28.3496 204.122 28.2174 202.4 27.4817C199.641 26.3024 197.936 24.1231 197.063 21.2947C195.65 16.7157 195.617 12.078 197.076 7.51673C198.397 3.38717 201.223 0.983153 205.568 0.607204C205.757 0.59105 205.941 0.536714 206.128 0.5C206.562 0.5 206.995 0.5 207.428 0.5Z" fill="#2D2A38"></path>
    <path d="M132.393 0.5C133.169 0.646855 133.955 0.751122 134.719 0.950845C137.567 1.6954 139.319 3.71319 140.654 6.29049C138.748 7.54463 136.876 8.77674 134.973 10.0294C134.725 9.57123 134.53 9.1292 134.263 8.73856C133.71 7.92939 132.683 7.68708 131.834 8.12177C130.803 8.65045 130.707 9.83997 131.691 10.4289C132.328 10.8107 133.049 11.0427 133.713 11.382C135.061 12.0707 136.492 12.6449 137.715 13.5202C140.508 15.5203 141.286 18.4721 140.844 21.7499C140.414 24.9367 138.394 26.8502 135.495 27.8649C130.794 29.5112 125.498 27.8708 122.741 23.9395C122.686 23.8617 122.638 23.7765 122.534 23.6106C124.445 22.1361 126.351 20.6661 128.302 19.1609C129.031 20.3709 130.071 21.0891 131.448 21.0333C131.99 21.0112 132.638 20.7425 133.025 20.3621C133.618 19.7806 133.414 18.779 132.619 18.2929C131.824 17.8069 130.937 17.4764 130.082 17.0946C129.117 16.6643 128.124 16.2898 127.175 15.8273C122.119 13.3586 121.362 5.95126 126.355 2.25932C127.696 1.26805 129.202 0.776087 130.804 0.502937C131.335 0.5 131.865 0.5 132.393 0.5Z" fill="#2D2A38"></path>
    <path d="M9.88165 0.500977C10.5411 0.618461 11.2092 0.702168 11.86 0.859303C14.6046 1.52015 16.6406 3.29269 18.101 6.29881C16.2265 7.53386 14.3419 8.77625 12.4531 10.0216C12.1674 9.52375 11.9451 9.03472 11.6334 8.61471C10.9567 7.70127 9.46173 7.67925 8.79074 8.53688C8.26549 9.20801 8.33475 9.9041 9.04759 10.3505C9.59593 10.6942 10.2034 10.938 10.7878 11.2199C12.0433 11.8264 13.3535 12.3375 14.5483 13.0497C19.3015 15.8826 19.3289 22.5909 16.6233 25.506C15.0274 27.2256 13.0389 28.1156 10.7749 28.3608C8.99564 28.5547 7.21931 28.4078 5.4906 27.8938C3.15295 27.1977 1.38383 25.7351 0 23.6086C1.9264 22.1224 3.83404 20.6509 5.77199 19.156C6.51802 20.413 7.58872 21.0607 9.00286 21.0577C9.68251 21.0563 10.2915 20.8565 10.632 20.1825C10.9928 19.4688 10.7676 18.6478 9.95524 18.1852C9.18612 17.7462 8.32754 17.4745 7.52956 17.0809C6.0678 16.3584 4.47906 15.7959 3.19624 14.8208C-0.108225 12.3081 -0.493505 7.10504 2.22799 3.80962C3.71139 2.01505 5.5743 0.907765 7.88021 0.612586C8.02018 0.594964 8.15582 0.539159 8.29435 0.500977C8.82393 0.500977 9.35351 0.500977 9.88165 0.500977Z" fill="#2D2A38"></path>
    <path d="M67.9639 0.927588C70.4271 0.927588 72.8051 0.911434 75.1832 0.956959C75.391 0.961365 75.6825 1.34172 75.7806 1.60753C77.0028 4.92204 78.1962 8.24831 79.3982 11.5702C79.4775 11.7919 79.5699 12.0093 79.7791 12.2119C79.7791 8.48768 79.7791 4.76344 79.7791 0.983393C82.3462 0.983393 84.8311 0.983393 87.3736 0.983393C87.3736 9.95623 87.3736 18.9203 87.3736 27.9753C87.1543 27.9915 86.9263 28.0209 86.6968 28.0209C84.629 28.0253 82.5612 28.0062 80.4949 28.0355C80.0028 28.0429 79.7806 27.8769 79.6146 27.4114C78.4126 24.0367 77.1861 20.6708 75.9638 17.3034C75.8686 17.039 75.756 16.782 75.5281 16.5456C75.5281 20.3433 75.5281 24.1395 75.5281 27.9709C72.9711 27.9709 70.4877 27.9709 67.9639 27.9709C67.9639 18.9511 67.9639 9.9856 67.9639 0.927588Z" fill="#2D2A38"></path>
    <path d="M56.1935 0.949777C58.7822 0.949777 61.2555 0.949777 63.7865 0.949777C63.7865 9.94758 63.7865 18.9351 63.7865 28.0225C63.0419 28.0225 62.306 28.0225 61.5686 28.0225C60.0059 28.0225 58.4417 28.0019 56.8803 28.0342C56.3868 28.0445 56.1718 27.8771 56.0044 27.4072C54.7505 23.8944 53.4677 20.3934 52.1935 16.8879C52.1617 16.8013 52.1286 16.7147 51.9655 16.6368C51.9655 20.3919 51.9655 24.147 51.9655 27.9608C49.3825 27.9608 46.8991 27.9608 44.3652 27.9608C44.3652 18.9659 44.3652 9.99751 44.3652 0.924812C44.6307 0.924812 44.8862 0.924812 45.1416 0.924812C47.1372 0.924812 49.1343 0.94684 51.1286 0.911595C51.7144 0.901315 51.9987 1.05992 52.2079 1.65762C53.4027 5.06172 54.6509 8.44672 55.8818 11.8376C55.9453 12.0124 56.0145 12.1842 56.1949 12.3398C56.1935 8.56861 56.1935 4.79885 56.1935 0.949777Z" fill="#2D2A38"></path>
    <path d="M22.0648 0.956055C24.6073 0.956055 27.0777 0.956055 29.665 0.956055C29.665 1.2483 29.665 1.53026 29.665 1.81075C29.665 6.92571 29.6549 12.0407 29.6766 17.1571C29.6795 17.9075 29.7935 18.6682 29.9392 19.4054C30.0676 20.0545 30.3822 20.6229 31.1542 20.6434C31.9738 20.6669 32.2942 20.0736 32.437 19.3996C32.5784 18.7358 32.6737 18.0485 32.6766 17.3715C32.6953 12.1831 32.6867 6.99473 32.6867 1.80488C32.6867 1.54054 32.6867 1.27767 32.6867 0.969272C35.2379 0.969272 37.7285 0.969272 40.2797 0.969272C40.2927 1.17487 40.3187 1.38487 40.3187 1.59634C40.3216 7.2018 40.3533 12.8058 40.3071 18.4098C40.2826 21.3381 39.4615 23.9873 37.336 26.1167C33.6708 29.7881 24.4948 29.7587 22.4688 21.4717C22.2105 20.4129 22.0619 19.2997 22.0547 18.21C22.0143 12.6296 22.0359 7.04907 22.0373 1.47005C22.0373 1.32907 22.0532 1.18515 22.0648 0.956055Z" fill="#2D2A38"></path>
    <path d="M195.509 28.0181C192.945 28.0181 190.474 28.0284 188.004 27.9961C187.842 27.9946 187.606 27.695 187.541 27.488C187.311 26.7699 187.167 26.0224 186.93 25.3072C186.87 25.1236 186.593 24.896 186.41 24.8916C185.112 24.8563 183.814 24.8563 182.518 24.893C182.343 24.8975 182.079 25.1383 182.02 25.3233C181.792 26.0415 181.658 26.7934 181.423 27.5085C181.353 27.7171 181.068 27.9976 180.877 27.999C178.475 28.0299 176.072 28.0152 173.668 28.0093C173.6 28.0093 173.534 27.9682 173.405 27.9271C173.899 26.0415 174.389 24.1617 174.884 22.2834C176.694 15.4224 178.513 8.56425 180.301 1.69731C180.459 1.09227 180.7 0.899887 181.313 0.911635C183.475 0.952754 185.638 0.939538 187.801 0.917509C188.264 0.913104 188.459 1.04821 188.583 1.52402C190.847 10.1562 193.131 18.7824 195.41 27.4116C195.454 27.5717 195.466 27.7435 195.509 28.0181ZM185.835 18.452C185.401 16.4944 184.988 14.6352 184.576 12.7775C184.518 12.776 184.46 12.7746 184.401 12.7731C183.955 14.644 183.509 16.515 183.047 18.4505C183.987 18.452 184.858 18.452 185.835 18.452Z" fill="#2D2A38"></path>
    <path d="M219.338 0.964844C224.585 0.964844 229.769 0.964844 235 0.964844C235 3.53334 235 6.06365 235 8.67326C232.334 8.67326 229.7 8.67326 227.018 8.67326C227.018 9.61901 227.018 10.484 227.018 11.4268C229.227 11.4268 231.404 11.4268 233.644 11.4268C233.644 13.4372 233.644 15.3728 233.644 17.3656C231.449 17.3656 229.27 17.3656 227.029 17.3656C227.029 18.3554 227.029 19.2894 227.029 20.3056C229.689 20.3056 232.321 20.3056 234.999 20.3056C234.999 22.8903 234.999 25.3956 234.999 27.9612C229.781 27.9612 224.582 27.9612 219.339 27.9612C219.338 18.9634 219.338 9.99789 219.338 0.964844Z" fill="#2D2A38"></path>
    <path d="M118.934 8.69676C116.257 8.69676 113.624 8.69676 110.95 8.69676C110.95 9.62195 110.95 10.4678 110.95 11.4297C113.165 11.4297 115.381 11.4297 117.632 11.4297C117.632 13.4637 117.632 15.3845 117.632 17.3759C115.4 17.3759 113.198 17.3759 110.954 17.3759C110.954 18.3628 110.954 19.2791 110.954 20.2733C113.605 20.2733 116.238 20.2733 118.931 20.2733C118.931 22.8741 118.931 25.4001 118.931 27.9729C113.726 27.9729 108.541 27.9729 103.305 27.9729C103.305 18.9781 103.305 9.98909 103.305 0.961914C108.512 0.961914 113.697 0.961914 118.935 0.961914C118.934 3.50691 118.934 6.03869 118.934 8.69676Z" fill="#2D2A38"></path>
    <path d="M173.342 0.96875C173.342 3.56074 173.342 6.0749 173.342 8.67276C170.663 8.67276 168.008 8.67276 165.308 8.67276C165.308 9.62438 165.308 10.4908 165.308 11.4424C167.528 11.4424 169.731 11.4424 171.988 11.4424C171.988 13.4411 171.988 15.3591 171.988 17.3695C169.77 17.3695 167.551 17.3695 165.258 17.3695C165.258 20.9454 165.258 24.4318 165.258 27.9695C162.694 27.9695 160.206 27.9695 157.653 27.9695C157.653 18.979 157.653 9.99592 157.653 0.96875C162.876 0.96875 168.079 0.96875 173.342 0.96875Z" fill="#2D2A38"></path>
    <path d="M99.1159 27.9768C96.5936 27.9768 94.1073 27.9768 91.582 27.9768C91.582 18.9643 91.582 9.9959 91.582 0.977539C94.0856 0.977539 96.5734 0.977539 99.1159 0.977539C99.1159 9.96066 99.1159 18.9467 99.1159 27.9768Z" fill="#2D2A38"></path>
</svg>