<svg id="Layer_2" xmlns="http://www.w3.org/2000/svg" viewBox="0 0 438.5 35.06" class="medium-up--hide mobile-logo-img">
    <defs>
       <style>.cls-1{fill:#13322b;stroke-width:0px;}</style>
    </defs>
    <g id="Layer_1-2">
       <path class="cls-1" d="M1.96,7.22c1.3-2.24,3.03-3.91,5.18-5.01,2.15-1.1,4.49-1.65,7.02-1.65,4.2,0,7.52.81,9.97,2.44s3.76,4.15,3.94,7.55v.35l-9.41,2.46c.06-.48.1-.87.1-1.18,0-1.27-.41-2.21-1.23-2.82-.82-.61-1.88-.92-3.17-.92-1.56,0-2.83.52-3.82,1.56-.98,1.04-1.47,2.85-1.47,5.43,0,2.84.53,4.84,1.6,6,1.06,1.16,2.6,1.74,4.62,1.74.99,0,1.89-.14,2.69-.43.8-.28,1.44-.71,1.92-1.29.48-.57.72-1.27.72-2.1,0-.55-.12-1.07-.37-1.55l9.41,1.24c.09.61.14,1.13.14,1.57,0,1.86-.54,3.56-1.63,5.11-1.08,1.55-2.71,2.79-4.86,3.71-2.16.92-4.77,1.38-7.84,1.38-5.17,0-9.03-1.25-11.6-3.76-2.57-2.5-3.85-6.39-3.85-11.64,0-3.24.65-5.98,1.96-8.22Z"></path>
       <path class="cls-1" d="M33.09,11.57c1.13-1.84,2.64-3.23,4.54-4.17,1.9-.94,3.97-1.41,6.22-1.41,4.42,0,7.71,1.03,9.88,3.09s3.25,5.27,3.25,9.64c0,2.58-.56,4.78-1.68,6.61-1.12,1.82-2.63,3.19-4.55,4.12-1.92.92-4.06,1.38-6.44,1.38-4.35,0-7.59-1.02-9.72-3.06s-3.2-5.22-3.2-9.53c0-2.6.56-4.81,1.69-6.65ZM46.58,23.4c.6-.3,1.07-.82,1.41-1.58.34-.76.51-1.79.51-3.11,0-2.01-.41-3.46-1.23-4.33-.82-.87-1.9-1.31-3.24-1.31-.89,0-1.64.15-2.25.44-.61.29-1.08.81-1.43,1.57s-.52,1.8-.52,3.15c0,1.98.42,3.41,1.26,4.29.84.88,1.92,1.33,3.25,1.33.89,0,1.64-.15,2.24-.45Z"></path>
       <path class="cls-1" d="M59.22,6.57h8.33l-.95,7.79,1.01.17c.45-2.13,1.07-3.82,1.84-5.07.77-1.25,1.73-2.14,2.88-2.67,1.14-.54,2.53-.8,4.16-.8,5.84,0,8.75,4.17,8.74,12.49,0,3.05-.35,5.48-1.05,7.29s-1.67,3.11-2.92,3.87c-1.25.77-2.76,1.15-4.54,1.15-2.17,0-4.04-.52-5.6-1.57-1.56-1.05-2.68-2.69-3.35-4.92l-.99.21.97,7.34v3.2h-8.52V6.57ZM67.74,19.04v3.14c.9.97,1.75,1.67,2.54,2.1.79.43,1.61.65,2.48.65,1.27,0,2.21-.48,2.82-1.43.61-.96.92-2.43.92-4.42s-.3-3.55-.9-4.46-1.57-1.37-2.9-1.37c-.85,0-1.64.22-2.37.65s-1.33,1.08-1.79,1.93c-.46.85-.73,1.89-.79,3.12v.1Z"></path>
       <path class="cls-1" d="M87.61,6.57h8.33l-.95,7.79,1.01.17c.45-2.13,1.07-3.82,1.84-5.07.77-1.25,1.73-2.14,2.88-2.67,1.14-.54,2.53-.8,4.16-.8,5.84,0,8.75,4.17,8.74,12.49,0,3.05-.35,5.48-1.05,7.29s-1.67,3.11-2.92,3.87c-1.25.77-2.76,1.15-4.54,1.15-2.17,0-4.04-.52-5.6-1.57-1.56-1.05-2.68-2.69-3.35-4.92l-.99.21.97,7.34v3.2h-8.52V6.57ZM96.13,19.04v3.14c.9.97,1.75,1.67,2.54,2.1.79.43,1.61.65,2.48.65,1.27,0,2.21-.48,2.82-1.43.61-.96.92-2.43.92-4.42s-.3-3.55-.9-4.46-1.57-1.37-2.9-1.37c-.85,0-1.64.22-2.37.65s-1.33,1.08-1.79,1.93c-.46.85-.73,1.89-.79,3.12v.1Z"></path>
       <path class="cls-1" d="M117.63,11.54c1.14-1.85,2.62-3.23,4.45-4.16,1.83-.93,3.77-1.4,5.82-1.4,3.55,0,6.39.8,8.53,2.41,2.14,1.61,3.32,4.09,3.55,7.45l-15.32,5.13c.3,1.08.81,1.85,1.53,2.29.72.45,1.65.67,2.77.67,1.36,0,2.39-.27,3.12-.81.72-.54,1.08-1.3,1.08-2.29,0-.22-.05-.43-.16-.64l8.62.93c.04.35.06.7.06,1.07,0,1.65-.47,3.13-1.4,4.43s-2.36,2.32-4.26,3.07c-1.91.75-4.27,1.12-7.08,1.12-4.35,0-7.61-1.03-9.77-3.08-2.16-2.05-3.24-5.23-3.24-9.53,0-2.6.57-4.82,1.7-6.66ZM124.37,18.79l7.19-2.34c-.03-1.3-.36-2.3-1.01-2.98s-1.45-1.03-2.42-1.03c-1.18,0-2.1.43-2.77,1.3-.67.87-1.01,2.36-1.01,4.47,0,.27,0,.46.02.58Z"></path>
       <path class="cls-1" d="M152.19,6.57l-.95,8.6.83.17c.35-2.26.84-4.03,1.46-5.31.63-1.28,1.43-2.19,2.4-2.73.98-.54,2.21-.81,3.71-.81.5,0,1.11.03,1.82.1l-.15,8.23c-.87-.06-1.58-.1-2.15-.1-1.61,0-2.88.18-3.79.55s-1.55.9-1.91,1.59c-.36.69-.54,1.58-.54,2.66v10.69h-8.52V6.57h7.79Z"></path>
       <path class="cls-1" d="M174.74,7.22c1.3-2.24,3.03-3.91,5.18-5.01,2.15-1.1,4.49-1.65,7.02-1.65,4.2,0,7.52.81,9.97,2.44s3.76,4.15,3.94,7.55v.35l-9.41,2.46c.06-.48.1-.87.1-1.18,0-1.27-.41-2.21-1.23-2.82s-1.88-.92-3.17-.92c-1.56,0-2.83.52-3.82,1.56-.98,1.04-1.47,2.85-1.47,5.43,0,2.84.53,4.84,1.6,6s2.61,1.74,4.62,1.74c1,0,1.89-.14,2.69-.43s1.44-.71,1.92-1.29c.48-.57.72-1.27.72-2.1,0-.55-.12-1.07-.37-1.55l9.41,1.24c.09.61.14,1.13.14,1.57,0,1.86-.54,3.56-1.63,5.11-1.08,1.55-2.71,2.79-4.86,3.71-2.16.92-4.77,1.38-7.84,1.38-5.17,0-9.03-1.25-11.6-3.76-2.57-2.5-3.85-6.39-3.85-11.64,0-3.24.65-5.98,1.96-8.22Z"></path>
       <path class="cls-1" d="M205.87,11.57c1.13-1.84,2.64-3.23,4.54-4.17,1.9-.94,3.97-1.41,6.22-1.41,4.42,0,7.71,1.03,9.88,3.09,2.17,2.06,3.25,5.27,3.25,9.64,0,2.58-.56,4.78-1.68,6.61-1.12,1.82-2.63,3.19-4.55,4.12-1.92.92-4.06,1.38-6.44,1.38-4.35,0-7.59-1.02-9.72-3.06-2.13-2.04-3.2-5.22-3.2-9.53,0-2.6.56-4.81,1.69-6.65ZM219.35,23.4c.6-.3,1.07-.82,1.41-1.58.34-.76.51-1.79.51-3.11,0-2.01-.41-3.46-1.23-4.33-.82-.87-1.9-1.31-3.25-1.31-.89,0-1.64.15-2.25.44-.61.29-1.08.81-1.43,1.57-.35.76-.52,1.8-.52,3.15,0,1.98.42,3.41,1.26,4.29.84.88,1.92,1.33,3.25,1.33.89,0,1.64-.15,2.24-.45Z"></path>
       <path class="cls-1" d="M238.69,6.59l3.51,17.51h.89l3.14-17.51h11.18l3.14,17.51h.85l3.53-17.51h8.81l-5.37,23.63h-13.15l-2.98-16.35h-.85l-2.98,16.35h-13.13l-5.38-23.63h8.81Z"></path>
       <path class="cls-1" d="M286.44,7.22c1.3-2.24,3.03-3.91,5.18-5.01,2.15-1.1,4.49-1.65,7.02-1.65,4.2,0,7.52.81,9.97,2.44s3.76,4.15,3.94,7.55v.35l-9.41,2.46c.06-.48.1-.87.1-1.18,0-1.27-.41-2.21-1.23-2.82s-1.88-.92-3.17-.92c-1.56,0-2.83.52-3.82,1.56-.98,1.04-1.47,2.85-1.47,5.43,0,2.84.53,4.84,1.6,6s2.61,1.74,4.62,1.74c1,0,1.89-.14,2.69-.43s1.44-.71,1.92-1.29c.48-.57.72-1.27.72-2.1,0-.55-.12-1.07-.37-1.55l9.41,1.24c.09.61.14,1.13.14,1.57,0,1.86-.54,3.56-1.63,5.11-1.08,1.55-2.71,2.79-4.86,3.71-2.16.92-4.77,1.38-7.84,1.38-5.17,0-9.03-1.25-11.6-3.76-2.57-2.5-3.85-6.39-3.85-11.64,0-3.24.65-5.98,1.96-8.22Z"></path>
       <path class="cls-1" d="M317.58,11.57c1.13-1.84,2.64-3.23,4.54-4.17,1.9-.94,3.97-1.41,6.22-1.41,4.42,0,7.71,1.03,9.88,3.09,2.17,2.06,3.25,5.27,3.25,9.64,0,2.58-.56,4.78-1.68,6.61-1.12,1.82-2.63,3.19-4.55,4.12-1.92.92-4.06,1.38-6.44,1.38-4.35,0-7.59-1.02-9.72-3.06-2.13-2.04-3.2-5.22-3.2-9.53,0-2.6.56-4.81,1.69-6.65ZM331.06,23.4c.6-.3,1.07-.82,1.41-1.58.34-.76.51-1.79.51-3.11,0-2.01-.41-3.46-1.23-4.33-.82-.87-1.9-1.31-3.25-1.31-.89,0-1.64.15-2.25.44-.61.29-1.08.81-1.43,1.57-.35.76-.52,1.8-.52,3.15,0,1.98.42,3.41,1.26,4.29.84.88,1.92,1.33,3.25,1.33.89,0,1.64-.15,2.24-.45Z"></path>
       <path class="cls-1" d="M359.14,7.57c-.85,0-1.51.1-1.99.3-.47.2-.8.5-.99.91-.19.41-.28.95-.28,1.64v1.84h6.92l-.6,6.86h-6.31v11.1h-8.52l-.02-11.1h-4.15v-6.86h4.15v-2.85c0-3.37.85-5.78,2.55-7.23,1.7-1.45,4.14-2.18,7.31-2.18,1.91,0,3.86.21,5.85.62l-.29,7.61c-1.33-.44-2.54-.66-3.62-.66Z"></path>
       <path class="cls-1" d="M380.1,7.57c-.85,0-1.51.1-1.99.3-.47.2-.8.5-.99.91-.19.41-.28.95-.28,1.64v1.84h6.92l-.6,6.86h-6.31v11.1h-8.52l-.02-11.1h-4.15v-6.86h4.15v-2.85c0-3.37.85-5.78,2.55-7.23,1.7-1.45,4.14-2.18,7.31-2.18,1.91,0,3.86.21,5.85.62l-.29,7.61c-1.33-.44-2.54-.66-3.62-.66Z"></path>
       <path class="cls-1" d="M387.03,11.54c1.14-1.85,2.62-3.23,4.45-4.16,1.83-.93,3.77-1.4,5.82-1.4,3.55,0,6.39.8,8.53,2.41,2.14,1.61,3.32,4.09,3.55,7.45l-15.32,5.13c.3,1.08.81,1.85,1.53,2.29.72.45,1.65.67,2.77.67,1.36,0,2.39-.27,3.12-.81.72-.54,1.08-1.3,1.08-2.29,0-.22-.05-.43-.16-.64l8.62.93c.04.35.06.7.06,1.07,0,1.65-.47,3.13-1.4,4.43s-2.36,2.32-4.26,3.07c-1.91.75-4.27,1.12-7.08,1.12-4.35,0-7.61-1.03-9.77-3.08-2.16-2.05-3.24-5.23-3.24-9.53,0-2.6.57-4.82,1.7-6.66ZM393.77,18.79l7.19-2.34c-.03-1.3-.36-2.3-1.01-2.98s-1.45-1.03-2.42-1.03c-1.18,0-2.1.43-2.77,1.3-.67.87-1.01,2.36-1.01,4.47,0,.27,0,.46.02.58Z"></path>
       <path class="cls-1" d="M414.44,11.54c1.14-1.85,2.62-3.23,4.45-4.16,1.83-.93,3.77-1.4,5.82-1.4,3.55,0,6.39.8,8.53,2.41,2.14,1.61,3.32,4.09,3.55,7.45l-15.32,5.13c.3,1.08.81,1.85,1.53,2.29.72.45,1.65.67,2.77.67,1.36,0,2.39-.27,3.12-.81.72-.54,1.08-1.3,1.08-2.29,0-.22-.05-.43-.16-.64l8.62.93c.04.35.06.7.06,1.07,0,1.65-.47,3.13-1.4,4.43s-2.36,2.32-4.26,3.07c-1.91.75-4.27,1.12-7.08,1.12-4.35,0-7.61-1.03-9.77-3.08-2.16-2.05-3.24-5.23-3.24-9.53,0-2.6.57-4.82,1.7-6.66ZM421.18,18.79l7.19-2.34c-.03-1.3-.36-2.3-1.01-2.98s-1.45-1.03-2.42-1.03c-1.18,0-2.1.43-2.77,1.3-.67.87-1.01,2.36-1.01,4.47,0,.27,0,.46.02.58Z"></path>
    </g>
 </svg>