<svg xmlns="http://www.w3.org/2000/svg" class="header__icon icon icon--logo" width="168.95px" height="21.7px" fill="#ffffff" viewBox="0 0 614.13 35.93">
    <g id="Layer_1" data-name="Layer 1">
      <g>
        <polygon class="cls-1" points="553.07 0 553.07 8.63 579.22 8.63 579.22 35.93 587.85 35.93 587.85 8.63 606.81 8.63 614.13 4.41 614.13 0 553.07 0"></polygon>
        <polygon class="cls-1" points="368.95 27.3 366.24 27.3 330.36 0 316.12 0 316.12 0 316.12 0 316.12 35.93 324.74 35.93 324.74 8.63 327.46 8.63 363.33 35.93 377.58 35.93 377.58 0 368.95 0 368.95 27.3"></polygon>
        <path class="cls-1" d="M133.19,0h-46.18c-4.11,0-7.44,3.33-7.44,7.44v21.05c0,4.11,3.33,7.44,7.44,7.44h46.18c4.11,0,7.44-3.33,7.44-7.44V7.44C140.62,3.33,137.29,0,133.19,0ZM132,25.38c0,1.05-.85,1.9-1.9,1.9h-40.01c-1.05,0-1.9-.85-1.9-1.9v-14.84c0-1.05.85-1.9,1.9-1.9h40.01c1.05,0,1.9.85,1.9,1.9v14.84Z"></path>
        <path class="cls-1" d="M212.7,0h-46.18c-4.11,0-7.44,3.33-7.44,7.44v21.05c0,4.11,3.33,7.44,7.44,7.44h46.18c4.11,0,7.44-3.33,7.44-7.44V7.44C220.14,3.33,216.81,0,212.7,0ZM211.51,25.38c0,1.05-.85,1.9-1.9,1.9h-40.01c-1.05,0-1.9-.85-1.9-1.9v-14.84c0-1.05.85-1.9,1.9-1.9h40.01c1.05,0,1.9.85,1.9,1.9v14.84Z"></path>
        <path class="cls-1" d="M61.05,17.76V7.44C61.05,3.33,57.72,0,53.62,0H0v4.4l7.31,4.22h43.39c1.05,0,1.9.85,1.9,1.9v4.15c0,1.05-.85,1.9-1.9,1.9H0v19.36h8.62v-10.74h38.46l5.07,10.74h9.54l-5.33-11.27c2.74-1.1,4.68-3.77,4.68-6.9Z"></path>
        <polygon class="cls-1" points="238.6 0 238.6 8.63 238.6 15.94 238.6 24.56 238.6 35.93 247.23 35.93 247.23 24.56 286.24 24.56 293.55 20.34 293.55 15.94 247.23 15.94 247.23 8.63 292.34 8.63 299.65 4.41 299.65 0 247.23 0 238.6 0"></polygon>
        <path class="cls-1" d="M482.99,0c-4.11,0-7.44,3.33-7.44,7.44v6.73c0,4.11,3.33,7.44,7.44,7.44h43.26c1.05,0,1.9.84,1.9,1.89v1.91c0,1.05-.85,1.9-1.9,1.9h-50.7v8.62h53.62c4.11,0,7.44-3.33,7.44-7.44v-6.73c0-4.11-3.33-7.44-7.44-7.44h-43.26c-1.05,0-1.9-.84-1.9-1.89v-1.91c0-1.05.85-1.9,1.9-1.9h43.39l7.31-4.22V0h-53.62Z"></path>
        <polygon class="cls-1" points="396.04 0 396.04 35.92 396.04 35.93 449.78 35.93 457.09 31.71 457.09 27.3 404.66 27.3 404.66 21.6 455.92 21.6 455.92 14.32 404.66 14.32 404.66 8.63 457.09 8.63 457.09 0 396.04 0"></polygon>
      </g>
    </g>
  </svg>