<svg focusable="false" role="presentation" aria-hidden="true" class="logo" viewBox="0 0 241 54" fill="none" xmlns="http://www.w3.org/2000/svg">
  <path fill="currentColor" d="M51.8101 11.2317C55.376 18.733 49.8073 29.6145 46.1681 35.438C44.6293 37.8977 42.9359 40.2597 41.1855 42.4018L40.9983 42.5973C39.9236 43.9819 38.7268 45.562 36.1704 46.1158C33.4024 46.2869 32.5882 45.6434 31.2774 44.8208C27.9313 42.8579 24.0316 40.2027 21.2065 37.0914C18.4059 34.0045 15.3284 30.3719 13.4071 26.6823C13.2361 26.3484 13.2117 25.5095 13.4071 25.1919C13.7002 24.7276 13.9688 24.4914 14.5876 24.19C20.1563 21.5023 29.1118 22.3575 33.5408 22.9276C33.9641 22.9846 34.3793 22.7484 34.5503 22.3575L35.6657 19.7756C35.8448 19.3602 35.6412 18.8796 35.226 18.7249C33.3779 18.0244 30.0562 17.1204 23.3477 17.2425H23.2582C16.5822 17.5439 13.0163 18.7249 11.3717 19.7104C10.9809 19.9466 10.4762 19.7186 10.3703 19.2787C9.89812 17.2588 9.99582 16.0452 10.2238 15.5729L10.2401 15.5403C10.9402 13.7566 15.2307 11.7041 26.5636 11.7041C37.8964 11.7041 41.5275 15.0516 42.1869 16.4688L42.2032 16.5014C42.6021 17.3321 42.6103 19.4172 39.8259 25.1837C39.3049 26.2588 38.7268 27.3502 38.0918 28.4335C37.8801 28.8 37.4568 29.0036 37.0334 28.9385C31.2693 28.1321 25.8146 28.0995 22.8104 28.6615C22.2893 28.7593 22.0695 29.3864 22.4115 29.7937C27.4266 35.7068 31.5217 38.4271 34.8027 40.0072C35.3726 40.2842 36.0483 40.1294 36.4554 39.6489C43.229 31.6181 49.6363 19.238 46.9171 13.5448C44.4258 8.2181 34.7294 7.02081 26.474 7.02081H26.4577H26.4415C18.1779 7.02081 8.48152 8.22624 5.99839 13.5529C2.1068 21.7059 14.4166 42.2471 30.0481 50.0416C31.7415 50.7502 30.7808 51.4914 30.2761 51.7032C28.9734 52.2407 27.7278 52.5176 26.5066 52.5258H26.4822H26.3926C23.1035 52.5014 19.5457 50.5629 15.5157 46.5964C12.5034 43.6317 9.38521 39.6733 6.75554 35.4624C3.1489 29.6145 -2.41982 18.7249 1.14611 11.2235C4.17471 4.781 12.4138 1.6371 26.3275 1.61267H26.3763H26.5066C40.5017 1.61267 48.7733 4.76471 51.8182 11.2317M235.529 31.2109C235.529 30.1602 236.465 29.305 237.605 29.305C238.745 29.305 239.681 30.1602 239.681 31.2109C239.681 32.2615 238.745 33.1167 237.605 33.1167C236.465 33.1167 235.529 32.2615 235.529 31.2109ZM235.871 31.2109C235.871 32.0742 236.652 32.7747 237.613 32.7747C238.574 32.7747 239.355 32.0742 239.355 31.2109C239.355 30.3475 238.574 29.6471 237.613 29.6471C236.652 29.6471 235.871 30.3475 235.871 31.2109ZM237.157 32.3593H236.791V30.1032C236.978 30.0787 237.247 30.0624 237.491 30.0624C237.882 30.0624 238.134 30.1195 238.305 30.2498C238.444 30.3475 238.525 30.5104 238.525 30.6896C238.525 30.9828 238.289 31.1864 237.996 31.2679C238.207 31.3412 238.338 31.5041 238.403 31.7403C238.492 32.0579 238.558 32.2778 238.623 32.3674H238.248C238.199 32.3023 238.134 32.1068 238.061 31.8217C237.98 31.5041 237.825 31.39 237.491 31.3819H237.149V32.3756L237.157 32.3593ZM237.157 31.1457H237.532C237.923 31.1457 238.167 30.9747 238.167 30.714C238.167 30.4208 237.906 30.2905 237.515 30.2905C237.345 30.2905 237.222 30.2986 237.157 30.3149V31.1457ZM67.5962 39.8851H58.9338V0.439819H69.6316C72.0659 0.439819 74.1908 1.00181 75.9982 2.11765C77.8056 3.23348 78.7093 5.00905 78.7093 7.42805V12.1602C78.7093 15.2226 76.9263 17.2914 73.3522 18.3747C76.9426 19.2217 78.7418 21.3882 78.7418 24.8905L78.6034 29.2072C78.6034 35.5113 79.1408 39.0869 80.2236 39.9339H71.5611C70.6248 38.8181 70.1608 35.6416 70.1608 30.4208V30.3638L70.2178 28.0018C70.2748 24.7195 70.2992 23.0416 70.2992 22.9683C70.2992 21.6326 69.4036 20.9566 67.6044 20.9566V39.8769L67.5962 39.8851ZM67.5962 16.1756C69.3711 16.1756 70.2666 15.4751 70.2666 14.0824V7.57466C70.2666 6.19819 69.3792 5.50588 67.5962 5.50588V16.1756ZM223.317 34.819H215.729V0.439819H207.067V39.8769H223.317V34.819ZM240.992 34.819H233.404V0.439819H224.742V39.8769H240.992V34.819ZM80.077 33.1249V7.68869C80.077 2.56561 83.3987 0 90.0339 0C96.6692 0 99.8525 2.54118 99.8525 7.63167V33.0679C99.8525 35.3647 98.9406 37.1321 97.117 38.3701C95.2933 39.6081 92.916 40.2271 89.977 40.2271C83.3743 40.2271 80.0689 37.857 80.0689 33.1167L80.077 33.1249ZM88.9756 33.5403C88.9756 34.3303 89.0244 34.7213 90.0014 34.7213C90.9784 34.7213 90.9702 34.3303 90.9702 33.5403V6.61357C90.9702 5.82353 90.9377 5.42443 90.0014 5.42443C89.0651 5.42443 88.9756 5.82353 88.9756 6.61357V33.5403ZM185.37 33.1249V7.68869C185.37 2.56561 188.691 0 195.327 0C201.962 0 205.145 2.54118 205.145 7.63167V33.0679C205.145 35.3647 204.233 37.1321 202.41 38.3701C200.586 39.6081 198.209 40.2271 195.27 40.2271C188.667 40.2271 185.362 37.857 185.362 33.1167L185.37 33.1249ZM194.26 33.5403C194.26 34.3303 194.309 34.7213 195.286 34.7213C196.263 34.7213 196.255 34.3303 196.255 33.5403V6.61357C196.255 5.82353 196.222 5.42443 195.286 5.42443C194.35 5.42443 194.26 5.82353 194.26 6.61357V33.5403ZM111.682 40.2353C113.994 40.2353 116.062 39.6733 117.894 38.5412C119.726 37.4172 120.646 35.9185 120.646 34.0452V24.0353H112.284V33.5403C112.284 34.3303 112.252 34.7213 111.316 34.7213C110.379 34.7213 110.29 34.3303 110.29 33.5403V6.61357C110.29 5.82353 110.339 5.42443 111.316 5.42443C112.293 5.42443 112.284 5.82353 112.284 6.61357V14.2208H120.646V7.06968C120.646 2.41086 117.658 0.081448 111.682 0.081448C105.014 0.081448 101.676 2.63891 101.676 7.75385V33.1412C101.676 37.8733 105.014 40.2353 111.682 40.2353ZM58.9175 53.9919H107.505V49.4308H58.9175V53.9919ZM58.9175 47.305H107.505V42.7439H58.9175V47.305ZM192.412 53.9919H241V49.4308H192.412V53.9919ZM192.412 42.7439V47.305H241V42.7439H192.412ZM125.205 44.9348V51.7683C125.205 52.4688 124.602 53.0226 123.389 53.4136C122.176 53.8045 120.67 54 118.871 54H111.21V42.7113H118.83C120.491 42.7113 121.965 42.8905 123.267 43.257C124.562 43.6235 125.213 44.1855 125.213 44.9348H125.205ZM119.058 44.7475C119.058 44.3566 118.48 44.1529 117.316 44.1529V52.5502C118.48 52.5502 119.058 52.3547 119.058 51.9475V44.7394V44.7475ZM133.607 48.5756H138.801V47.2072H133.607V44.1529H139.363V42.7032H127.493V53.9919H139.436V52.5421H133.599V48.5756H133.607ZM151.917 47.8507L148.424 42.7032H141.479V53.9919H146.576V47.9728L150.728 53.9919H157.013V42.7032H151.909V47.8507H151.917ZM159.293 54H165.399V42.7113H159.293V54ZM178.327 48.5593L175.535 42.7032H167.679V53.9919H172.449V47.6552L176.097 53.9919H180.306L183.489 47.6552V53.9919H188.936V42.7032H180.754L178.327 48.5593ZM159.529 39.8851L157.461 35.9837C156.582 37.1973 155.466 38.1584 154.131 38.8425C152.698 39.5756 151.16 39.9421 149.548 39.9421C148.139 39.9421 146.845 39.6244 145.713 38.9973C145.151 38.6878 144.63 38.3131 144.15 37.8896L144.736 39.8851H135.219L131.897 25.2814V39.8851H123.235V0.439819H131.897V13.6181L135.691 0.439819H143.718L138.386 18.4235L140.608 25.9249C140.641 25.6724 140.657 25.4362 140.698 25.1756C140.853 24.1982 141.121 23.2127 141.496 22.2516C141.87 21.2905 142.383 20.3294 143.026 19.4009C143.629 18.5294 144.394 17.6986 145.29 16.9412C144.663 16.2163 144.125 15.2308 143.67 14.0172C143.181 12.7059 142.937 11.305 142.937 9.84706C142.937 8.71493 143.116 7.57466 143.466 6.46697C143.816 5.35113 144.321 4.34118 144.972 3.46968C145.623 2.59005 146.397 1.86516 147.292 1.31131C148.196 0.757466 149.214 0.472398 150.313 0.472398C151.64 0.472398 152.796 0.765611 153.749 1.33575C154.701 1.90588 155.483 2.66335 156.077 3.58371C156.663 4.49593 157.111 5.51403 157.396 6.61357C157.681 7.70498 157.819 8.79638 157.819 9.84706C157.819 10.8977 157.705 11.9158 157.477 12.7629C157.249 13.6018 156.948 14.3674 156.574 15.0271C156.199 15.6869 155.768 16.2652 155.304 16.7457C154.897 17.1611 154.489 17.5113 154.082 17.7882L156.842 22.2434C157.176 21.1846 157.469 20.1014 157.722 19.0262C157.998 17.8127 158.243 16.6398 158.438 15.5321L158.471 15.3611H164.218V0.439819H174.916C177.351 0.439819 179.475 1.00181 181.283 2.11765C183.09 3.23348 183.994 5.00905 183.994 7.42805V12.1602C183.994 15.2226 182.211 17.2914 178.637 18.3747C182.227 19.2217 184.026 21.3882 184.026 24.8905L183.888 29.2072C183.888 35.5113 184.425 39.0869 185.508 39.9339H176.846C175.909 38.8181 175.445 35.6416 175.445 30.4208V30.3638L175.502 28.0018C175.559 24.7195 175.584 23.0416 175.584 22.9683C175.584 21.6326 174.688 20.9566 172.889 20.9566V39.8769H164.853H159.529V39.8851ZM172.889 16.1756C174.664 16.1756 175.559 15.4751 175.559 14.0824V7.57466C175.559 6.19819 174.672 5.50588 172.889 5.50588V16.1756ZM160.864 28.7023L162.818 31.7973H164.227V22.5692H162.704C162.444 23.7665 162.167 24.8742 161.866 25.8679C161.564 26.8697 161.222 27.8226 160.864 28.7023ZM148.823 9.68416C148.823 10.238 148.896 10.7186 149.027 11.1258C149.165 11.533 149.328 11.8914 149.523 12.1846C149.719 12.4778 149.922 12.7303 150.142 12.9258C150.337 13.105 150.508 13.2434 150.655 13.3412C150.687 13.3167 150.736 13.276 150.801 13.2027C150.964 13.0398 151.143 12.7955 151.322 12.486C151.502 12.1765 151.664 11.8018 151.803 11.3701C151.941 10.9385 152.014 10.4824 152.014 10.0018C152.014 9.24434 151.876 8.51946 151.599 7.84344C151.339 7.22443 150.915 6.92308 150.288 6.92308C149.857 6.92308 149.523 7.19185 149.255 7.7457C148.97 8.34027 148.823 8.99185 148.823 9.67602V9.68416ZM153.35 29.4679L149.263 22.9928C149.075 23.1801 148.88 23.4244 148.652 23.7258C148.392 24.076 148.147 24.467 147.936 24.8824C147.724 25.2977 147.537 25.7538 147.382 26.2262C147.235 26.6905 147.154 27.1629 147.154 27.6434C147.154 28.2706 147.227 28.8326 147.382 29.305C147.529 29.7855 147.732 30.2009 147.968 30.543C148.204 30.8769 148.473 31.1294 148.766 31.2923C149.059 31.4552 149.352 31.5367 149.653 31.5367C150.158 31.5367 150.777 31.3738 151.51 31.0398C152.194 30.7303 152.812 30.2009 153.35 29.4679Z"></path>
</svg>