<svg class="svg-logo" xmlns="http://www.w3.org/2000/svg" viewBox="0 0 280 61.87">
	<path d="M33.93 27h-7.66c.26-5.05-2.58-7.2-8.91-7.42-3.45-.07-7.72.46-8 4-.3 3.83 2.65 4.42 8 5.82l3.51.93c6.7 1.77 13 1.19 13 10 0 4.47-2.73 9.8-15.76 9.8C9.65 50.32-.49 47.46 0 36.17h7.69c-.27 5.51 3.1 8.29 10.56 8.27 5.87 0 8.36-1.12 8.58-3.86.27-3.46-4.1-4.85-8.6-6-6.12-1.71-16.09-3.15-16.1-11 0-6.23 5.92-9.8 14.86-9.8 8.24-.2 17.44 2.49 16.94 13.22zm45.63 5.1c0 10.65-6.79 18.08-16.5 18.08-9.9 0-13-6.5-13.91-9.3a.09.09 0 00-.08-.07s-.14 0-.16.06a.09.09 0 000 .08 33 33 0 01.76 6.58V61.8h-6.85V14.65h6.83v2a32.94 32.94 0 01-.74 6.49v.19a.46.46 0 00.16.06.09.09 0 00.09-.08C50 20.52 53.14 14 63.06 14c9.72 0 16.5 7.44 16.5 18.12zm-6.83 0c0-7.67-4.11-12.07-11.27-12.07-7.4 0-11.81 4.51-11.81 12.07s4.41 12 11.81 12c7.16.02 11.27-4.35 11.27-11.97zM120.38 0a4.89 4.89 0 00-5 4.88 4.86 4.86 0 005 4.94 4.92 4.92 0 005-4.94 5 5 0 00-5-4.88zm-3.19 49.53h6.5V14.65h-6.5zM153.26 14c-6.77 0-11.6 3.74-13.27 10.25a.08.08 0 01-.08.07.5.5 0 01-.17-.06v-.07a34 34 0 00.78-6.74v-2.8h-6.82v34.88h6.82V34c0-8.47 4.43-13.95 11.28-13.95 5.49 0 7.73 2.62 7.73 9v20.48h6.76V28.35c0-9.27-4.63-14.35-13.03-14.35zm53.13-2.21l4.91 3.53-2.09 3a13 13 0 01-3 3 12 12 0 012.18 7.18c0 6-3.75 10.57-11.76 14.31 3.94-.1 6.92.69 8.86 2.35a7.5 7.5 0 012.5 6c0 9.72-9.75 10.73-32 10.73h-.68v-6.1h.69c19.49 0 25.16-.67 25.16-5a3 3 0 00-1.2-2.6c-2.73-2-9.91-1.39-20.76 1.91l-.65.19-1.55-5.22.67-.18c5.31-1.48 10.42-1.59 15.2-3.08a.09.09 0 00.06-.09v-.14a.1.1 0 00-.09 0 20.76 20.76 0 01-15.7-3.63 12.62 12.62 0 01-4.2-9.72c0-8.78 6.79-14.23 17.7-14.23a20.62 20.62 0 0111.22 3 10.23 10.23 0 002.52-2.41zm-4.81 16.59c0-5.58-3.55-8.29-10.87-8.29s-10.94 2.79-10.94 8.29 3.68 8.35 10.94 8.35 10.87-2.73 10.87-8.38zm-108.9-4.2a.08.08 0 01-.07.07.6.6 0 01-.18-.07v-.06a33.86 33.86 0 00.75-6.74v-2.73h-6.73v34.9h7.14V31.1c0-6.56 3.29-10 9.53-10h6V14h-3.67c-6.61.14-11.13 3.78-12.77 10.18zM276.33 14c-6.58.18-11.1 3.82-12.74 10.22a.08.08 0 01-.07.07.51.51 0 01-.18-.07v-.06a33.86 33.86 0 00.75-6.74v-2.73h-6.75v34.9h7.14V31.1c0-6.56 3.29-10 9.52-10h6V14zm-27 16.88v2.57h-27.25v.27c.41 4.77 3.15 10.81 11.08 10.94 4.68.14 7.92-2.77 9.18-6.87h6.9l-.27.89c-2.31 7-8.13 11.36-15.88 11.43-23.36.19-24-36.24-.72-36.23 10.14-.25 17.02 6.3 16.99 16.96zM242.68 29c-.14-5.74-4.48-9.37-10.31-9.16-8.79 0-10.12 7.45-10.31 9.16z" fill="currentColor"></path>
</svg>