<svg class="icon icon-logo" version="1.1" xml:space="preserve" viewBox="0 0 1599.9467 285.46667" xmlns="http://www.w3.org/2000/svg" xmlns:svg="http://www.w3.org/2000/svg">
  <g transform="matrix(1.3333333,0,0,-1.3333333,0,285.46667)">
    <g transform="scale(0.1)">
      <path fill="currentColor" d="m 3042.73,1986.26 c 80.13,0 152.24,-36.51 216.33,-109.51 64.11,-72.99 125.53,-192.29 184.29,-357.87 l 53.41,13.35 -120.19,534.15 h -53.4 l -26.71,-66.77 h -40.06 c -67.67,26.71 -134.43,40.05 -200.31,40.05 -170.91,0 -307.13,-82.34 -408.62,-247.03 -101.49,-164.69 -152.24,-389.48 -152.24,-674.36 0,-356.098 58.32,-614.27 174.94,-774.508 116.63,-160.25 267.53,-240.364 452.69,-240.364 122.85,0 212.77,43.622 269.75,130.852 56.97,87.25 91.69,248.379 104.15,483.41 h -66.77 C 3417.53,505.781 3387.71,361.57 3340.53,285.012 3293.34,208.441 3220.78,170.16 3122.86,170.16 c -126.41,0 -213.65,48.52 -261.73,145.559 -48.08,97.031 -72.12,248.82 -72.12,455.351 v 761.16 c 0,302.68 84.58,454.03 253.72,454.03"></path>
      <path fill="currentColor" d="m 4447.53,557.422 c 0,-133.543 -22.25,-231.473 -66.76,-293.781 -44.51,-62.332 -115.73,-93.481 -213.66,-93.481 -97.92,0 -169.15,31.149 -213.65,93.481 -44.52,62.308 -66.78,160.238 -66.78,293.781 V 1572.29 c 0,133.54 22.26,231.47 66.78,293.78 44.5,62.32 115.73,93.48 213.65,93.48 97.93,0 169.15,-31.16 213.66,-93.48 44.51,-62.31 66.76,-160.24 66.76,-293.78 z M 4578.4,1793.96 c -108.61,154.9 -245.7,232.36 -411.29,232.36 -165.58,0 -302.68,-77.46 -411.29,-232.36 -108.61,-154.9 -162.92,-397.94 -162.92,-729.11 0,-331.17 54.31,-574.202 162.92,-729.1 108.61,-154.898 245.71,-232.352 411.29,-232.352 165.59,0 302.68,77.454 411.29,232.352 108.61,154.898 162.91,397.93 162.91,729.1 0,331.17 -54.3,574.21 -162.91,729.11"></path>
      <path fill="currentColor" d="m 5515.82,1946.2 h 186.95 l 64.11,-64.1 96.14,-1017.549 h -26.71 l -640.98,1041.579 40.07,40.07 h 146.89 v 53.41 h -640.98 v -53.41 h 186.95 l 90.81,-109.5 -21.37,-1610.45 -69.44,-42.738 h -186.95 v -53.41 h 560.86 v 53.41 h -173.61 l -64.09,40.058 16.02,1241.89 h 21.37 L 5932.45,130.102 h 50.74 l -149.56,1760.008 56.1,56.09 h 173.59 v 53.41 h -547.5 v -53.41"></path>
      <path fill="currentColor" d="m 6755.04,1238.45 -280.42,333.84 c -89.02,106.83 -133.54,195.86 -133.54,267.07 0,40.96 13.8,73.45 41.39,97.49 27.61,24.04 62.77,36.05 105.5,36.05 163.81,0 301.8,-178.05 413.96,-534.14 l 53.42,13.35 -120.18,627.62 h -53.42 l -26.71,-80.12 -40.06,-13.35 c -83.69,26.7 -159.35,40.06 -227.01,40.06 -105.04,0 -186.94,-28.94 -245.7,-86.8 -58.75,-57.87 -88.14,-135.76 -88.14,-233.69 0,-122.85 48.96,-243.04 146.9,-360.55 l 280.42,-333.84 c 60.53,-72.999 107.27,-133.088 140.2,-180.268 32.95,-47.192 64.55,-108.172 94.82,-182.953 30.27,-74.778 45.41,-149.559 45.41,-224.34 0,-178.051 -71.24,-267.078 -213.67,-267.078 -58.75,0 -109.94,17.371 -153.56,52.078 -43.62,34.73 -88.59,105.941 -134.87,213.672 -46.29,107.711 -92.58,259.5 -138.88,455.359 l -53.42,-8.019 93.48,-739.789 h 160.24 c 74.79,-17.813 146,-26.704 213.66,-26.704 258.18,0 387.25,164.692 387.25,494.082 0,124.641 -19.58,232.801 -58.75,324.489 -39.17,91.701 -108.6,197.191 -208.32,316.481"></path>
      <path fill="currentColor" d="m 9302.88,474.629 c -33.83,-80.129 -70.77,-143.328 -110.83,-189.617 -40.07,-46.301 -94.8,-80.133 -164.25,-101.5 h -146.88 l -66.78,42.738 v 1119.03 l 13.36,13.35 h 120.18 c 78.34,0 141.11,-16.92 188.29,-50.74 47.18,-33.83 100.14,-97.03 158.9,-189.62 l 66.77,-106.83 53.42,26.71 -360.56,667.68 -53.41,-26.71 53.41,-93.48 c 10.69,-21.35 16.92,-44.51 18.7,-69.43 1.78,-24.93 -7.57,-48.52 -28.03,-70.77 -20.49,-22.27 -52.98,-33.39 -97.49,-33.39 H 8827.5 l -13.36,13.36 v 478.05 l 66.78,42.74 h 120.17 c 69.45,-12.47 128.2,-37.4 176.26,-74.79 48.08,-37.39 100.61,-105.93 157.58,-205.64 l 53.42,26.71 -213.65,427.31 h -53.42 l -13.36,-120.18 h -724.11 -10.34 -427.63 v -53.41 h 106.82 l 66.77,-42.74 V 771.07 c 0,-80.121 -1.78,-146.429 -5.34,-198.961 -3.56,-52.531 -10.68,-105.5 -21.37,-158.91 -10.68,-53.418 -26.26,-95.699 -46.73,-126.867 -20.48,-31.152 -47.63,-56.082 -81.46,-74.773 -33.83,-18.7 -75.67,-28.047 -125.53,-28.047 -49.85,0 -91.7,9.347 -125.52,28.047 -33.83,18.691 -60.98,43.621 -81.45,74.773 -20.49,31.168 -36.06,73.449 -46.75,126.867 -10.68,53.41 -17.8,106.379 -21.36,158.91 -3.56,52.532 -5.34,118.84 -5.34,198.961 v 1132.39 l 66.77,42.74 h 106.82 v 53.41 H 7091.2 v -53.41 h 106.83 l 66.77,-42.74 V 690.949 c 0,-391.711 169.15,-587.551 507.44,-587.551 167.36,0 278.2,49.403 332.5,148.223 54.31,98.82 81.46,258.609 81.46,479.391 V 1903.46 l 66.77,42.74 h 120.5 10.34 96.49 l 66.77,-42.74 V 226.25 l -66.77,-42.738 h -106.83 v -53.41 h 801.23 l 40.06,-80.1215 h 53.41 l 200.3,667.6795 -56.09,18.692 -109.5,-261.723"></path>
      <path fill="currentColor" d="m 10499.6,731.012 -106.8,-253.723 c -33.9,-81.898 -70.8,-145.988 -110.9,-192.277 -40,-46.301 -96.6,-80.133 -169.6,-101.5 h -123.04 l -66.78,42.738 v 1677.21 l 66.78,42.74 h 106.84 v 53.41 h -614.28 v -53.41 h 106.82 l 66.77,-37.4 V 226.25 l -66.77,-42.738 h -106.82 v -53.41 h 777.38 l 40.1,-80.1215 h 53.4 l 200.3,667.6795 -53.4,13.352"></path>
      <path fill="currentColor" d="m 11121.9,944.672 h -307.2 l -13.3,21.367 160.2,539.481 h 10.7 l 173.6,-531.469 z m 614.2,-761.16 -58.7,42.738 -582.2,1773.36 h -280.5 l 106.9,-331.18 V 1599 L 10499.2,169.191 c 12.2,-16.3 17,-22.793 29.2,-39.089 h 406.5 v 53.41 h -240.3 l -98.9,88.136 176.3,592.903 42.7,26.711 h 320.5 l 42.8,-24.043 202.9,-630.289 -72.1,-53.418 h -186.9 v -53.41 h 721.1 v 53.41 h -106.9"></path>
      <path fill="currentColor" d="m 11941.5,183.512 h 16.1 l 12.9,-33.032 12.8,33.032 h 16.3 v -53.41 h -12.6 v 37.168 l -15.1,-37.168 h -4.2 l -15.1,37.168 v -37.168 h -11.1 z m -36.2,-9.961 h -15.2 v 9.961 h 43.1 v -9.961 h -15.3 v -43.449 h -12.6 v 43.449"></path>
      <path fill="currentColor" d="m 1116,1760.46 85.81,170.75 c -0.83,3.17 -1.36,5.15 -2.19,8.32 l -84.96,56.9 c -2.96,0 -5.18,0 -8.14,0 l -84.96,-56.9 c -0.83,-3.17 -1.35,-5.15 -2.18,-8.32 l 85.81,-170.75 c 4.97,0 5.84,0 10.81,0 z m 82.18,6.35 154.04,64.03 71.98,189.52 c -3.92,3.32 -3.92,3.33 -7.83,6.65 l -136.39,-79.37 -87.69,-174.49 c 2.91,-3.13 2.97,-3.2 5.89,-6.34 z m -175.18,0 c 2.92,3.14 2.99,3.21 5.9,6.34 l -87.701,174.49 -136.386,79.37 c -3.915,-3.32 -3.915,-3.33 -7.833,-6.65 l 71.985,-189.52 z M 514.863,706 c -4.785,42.539 -10.097,85 -16.062,127.371 l -17.192,127.207 -19.441,126.882 c -6.238,42.33 -13.145,84.57 -20.547,126.73 l -6.758,-0.98 c -17.793,-45.79 -23.593,-89.85 -26.64,-133.52 -2.317,-43.56 -0.125,-86.479 5.918,-128.831 6.004,-42.371 16.047,-84.148 30.554,-125.289 15.188,-41.031 33.285,-81.66 63.418,-120.539 z m 38.516,926.27 c 15.398,41.79 30.293,83.74 44.559,125.92 l 43.488,126.27 41.328,127 c 14.016,42.25 27.383,84.72 40.266,127.36 l -6.465,2.16 c -37.035,-34.55 -62.578,-72.94 -85.481,-112.21 -22.195,-39.52 -40.09,-80.47 -54.289,-122.66 -14.226,-42.19 -24.597,-85.65 -30.68,-130.57 -5.429,-45.12 -8.078,-91.18 0.809,-141.11 z m -97.949,-139.78 6.777,-0.74 c 6.863,50.28 13.191,100.61 18.856,151.03 l 17.746,151.14 15.476,151.41 c 5.403,50.44 10.141,100.96 14.367,151.52 l -6.777,0.74 c -29.539,-47.79 -47.031,-96.9 -61.77,-146.31 -13.984,-49.49 -23.457,-99.49 -29.058,-149.92 -5.625,-50.41 -7.219,-101.27 -4.317,-152.62 3.59,-51.43 10.094,-103.18 28.7,-156.25 z m -99.012,-60.8 c 16.98,-57.94 38.047,-115.28 70.496,-170.97 l 6.746,0.98 c -7.254,59.34 -15.039,118.61 -23.484,177.78 l -24.61,177.62 -26.867,177.29 c -8.711,59.14 -18.086,118.18 -27.976,177.13 l -6.746,-0.98 c -15.161,-62.58 -18.997,-123.54 -18.86,-183.91 -0.547,-60.48 4.629,-120.13 12.988,-179.32 8.633,-59.13 20.645,-117.79 38.313,-175.62 z M 109.57,1338.77 c 17.09,-40.67 37.93,-79.75 62.93,-117.06 25.637,-37.05 53.965,-72.95 93.508,-104.13 l 6.277,2.66 c -15.945,41.14 -32.383,82.08 -49.441,122.76 l -50.489,122.31 -52.589,121.42 c -17.293,40.58 -35.2152,80.88 -53.6137,121 l -6.2812,-2.66 c -5.0547,-50.02 1.0352,-95.33 9.6992,-139.55 9.3555,-43.94 22.8828,-86.11 39.9997,-126.75 z m 37.637,-513.911 c -9.57,28.602 -19.641,57.02 -30.332,85.192 L 85.4961,994.84 51.9805,1078.8 c -10.9375,28.08 -22.5,55.91 -34.5508,83.57 l -6.3633,-2.45 C -0.507813,1123.19 -1.30859,1090.59 1.11328,1059.24 3.99219,1028.06 11.1133,998.52 21.8633,970.371 32.5977,942.211 47.1172,915.512 65.8594,890.441 85.0195,865.512 107.488,841.871 140.84,822.422 Z M 75.9844,1154.71 c 19.1719,-36.73 41.9256,-71.58 68.6956,-104.32 27.383,-32.43 57.351,-63.499 98.101,-88.91 l 6.035,3.168 c -18.062,37.312 -36.597,74.372 -55.73,111.132 l -56.731,110.6 -58.7495,109.55 c -19.3633,36.62 -39.3242,72.93 -59.7344,109.02 l -6.043,-3.18 c -2.1406,-47.91 6.461,-90.18 17.5157,-131.17 11.7226,-40.64 27.4609,-79.17 46.6406,-115.89 z m 137.2966,315.83 c 15.742,-59.18 34.785,-117.5 59.348,-174.34 23.894,-57.02 51.766,-112.99 90.769,-166.01 l 6.59,1.75 c -14.39,59.53 -29.304,118.94 -44.859,178.17 L 279.172,1488 231.016,1665.3 c -15.813,59.16 -32.278,118.15 -49.239,177.01 l -6.589,-1.75 c -7.5,-65.34 -3.95,-127.75 3.496,-189.13 6.765,-61.56 19.129,-121.64 34.597,-180.89 z m 225.574,-804.071 6.504,2.043 c -9.793,35.539 -20.093,70.898 -31.035,106.066 L 382.219,880.301 347.93,985.328 c -11.192,35.092 -23.028,69.972 -35.352,104.702 l -6.504,-2.05 c -11.804,-42.33 -12.617,-81.2 -10.129,-119.031 2.961,-37.668 10.254,-73.988 21.25,-109.129 10.981,-35.16 25.832,-69.09 44.993,-101.672 19.597,-32.437 42.578,-63.808 76.667,-91.679 z M 277.461,803.93 221.609,887.559 c -18.406,28 -37.379,55.652 -56.785,83.011 l -5.715,-3.73 c -1.796,-41.168 6.067,-76.051 16.836,-109.031 11.172,-32.739 26.164,-62.969 44.399,-91.09 18.219,-28.141 39.844,-54.047 65.261,-77.489 25.79,-23.21 54.551,-44.468 93.079,-59.371 l 5.711,3.719 c -17.176,28.813 -34.805,57.32 -53,85.481 z M 521.223,620.109 c 18.086,21.012 35.652,42.45 52.832,64.231 l -5.149,4.469 c -36.277,-5.168 -63.855,-17.918 -88.816,-32.938 -24.594,-15.34 -45.766,-33.66 -63.985,-54.531 -18.253,-20.852 -33.437,-44.36 -45.207,-70.86 -11.425,-26.769 -20.175,-55.878 -20.136,-92.628 l 5.144,-4.473 c 19.192,20.031 37.973,40.43 56.25,61.25 l 55.395,62 z m -286.145,63.7 -52.793,51.312 c -17.422,17.289 -35.32,34.098 -53.586,50.527 l -4.832,-4.808 c 0.352,-34.32 8.86,-60.481 19.832,-84.199 11.313,-23.379 25.832,-43.551 43.117,-60.969 17.254,-17.434 37.403,-32.012 60.743,-43.391 23.664,-11.051 49.836,-19.609 84.25,-19.929 l 4.832,4.808 c -16.387,18.32 -33.145,36.25 -50.379,53.731 z M 1807.15,1079.69 c -3.06,43.67 -8.85,87.74 -26.65,133.53 l -6.75,0.97 c -7.41,-42.16 -14.31,-84.4 -20.55,-126.72 L 1733.76,960.578 1716.57,833.379 C 1710.61,791 1705.28,748.539 1700.51,706 l 6.75,-0.969 c 30.14,38.879 48.23,79.508 63.42,120.539 14.51,41.149 24.54,82.918 30.55,125.289 6.05,42.352 8.23,85.271 5.92,128.831 z m -233.2,804.77 43.48,-126.28 c 14.26,-42.17 29.15,-84.12 44.56,-125.91 l 6.47,2.17 c 8.88,49.91 6.24,95.98 0.8,141.1 -6.08,44.92 -16.45,88.38 -30.68,130.57 -14.2,42.19 -32.09,83.14 -54.28,122.66 -22.9,39.27 -48.45,77.66 -85.48,112.2 l -6.47,-2.15 c 12.88,-42.64 26.25,-85.1 40.27,-127.36 z m 142.61,-90.53 17.74,-151.15 c 5.67,-50.41 12,-100.75 18.86,-151.03 l 6.78,0.75 c 18.6,53.07 25.11,104.82 28.69,156.25 2.91,51.34 1.32,102.2 -4.31,152.61 -5.6,50.43 -15.07,100.43 -29.06,149.92 -14.73,49.42 -32.22,98.53 -61.76,146.31 l -6.78,-0.74 c 4.23,-50.56 8.96,-101.08 14.36,-151.52 z m 71.9,-533.21 c 32.45,55.69 53.51,113.03 70.49,170.97 17.67,57.83 29.68,116.49 38.32,175.62 8.36,59.19 13.53,118.84 12.97,179.32 0.15,60.37 -3.69,121.33 -18.84,183.91 l -6.75,0.98 c -9.89,-58.95 -19.27,-117.99 -27.98,-177.13 l -26.87,-177.29 -24.6,-177.62 c -8.45,-59.17 -16.24,-118.44 -23.49,-177.78 z M 1992.53,1243 c -17.06,-40.68 -33.51,-81.61 -49.44,-122.76 l 6.28,-2.66 c 39.54,31.18 67.87,67.08 93.5,104.13 25,37.32 45.84,76.4 62.93,117.06 17.12,40.64 30.65,82.81 40,126.75 8.65,44.22 14.76,89.53 9.7,139.55 l -6.28,2.66 c -18.4,-40.1 -36.32,-80.42 -53.62,-120.98 l -52.58,-121.44 z m 211.78,-83.08 -6.37,2.45 c -12.05,-27.66 -23.61,-55.49 -34.55,-83.56 l -33.52,-83.97 -31.37,-84.781 c -10.7,-28.18 -20.77,-56.598 -30.34,-85.2 l 6.37,-2.437 c 33.34,19.449 55.82,43.09 74.98,68.019 18.74,25.071 33.26,51.77 44,79.938 10.75,28.141 17.87,57.681 20.74,88.861 2.43,31.35 1.63,63.95 -9.94,100.68 z m -125.3,26.46 -56.72,-110.6 c -19.14,-36.76 -37.67,-73.81 -55.74,-111.132 l 6.05,-3.168 c 40.74,25.418 70.71,56.48 98.08,88.91 26.78,32.74 49.53,67.59 68.7,104.32 19.18,36.73 34.93,75.26 46.65,115.89 11.05,40.99 19.65,83.26 17.51,131.17 l -6.04,3.18 c -20.41,-36.09 -40.37,-72.4 -59.74,-109.02 z m -233.64,-54.44 6.59,-1.75 c 39.02,53.02 66.89,108.99 90.78,166.01 24.56,56.84 43.61,115.16 59.35,174.34 15.46,59.25 27.82,119.33 34.6,180.89 7.44,61.38 11,123.79 3.5,189.13 l -6.6,1.75 c -16.96,-58.86 -33.42,-117.85 -49.23,-177.01 l -48.17,-177.3 -45.96,-177.89 c -15.55,-59.23 -30.46,-118.64 -44.86,-178.17 z m 7.8,-373.78 c 19.17,32.57 34.03,66.5 45,101.66 11,35.149 18.29,71.461 21.24,109.141 2.5,37.819 1.69,76.689 -10.12,119.019 l -6.5,2.06 c -12.32,-34.73 -24.17,-69.62 -35.35,-104.7 L 1833.15,880.301 1801.04,774.578 C 1790.11,739.41 1779.8,704.051 1770.01,668.52 l 6.5,-2.051 c 34.1,27.871 57.07,59.25 76.66,91.691 z m 76.6,-68.93 c 25.41,23.442 47.04,49.36 65.26,77.5 18.23,28.11 33.22,58.352 44.39,91.079 10.78,32.98 18.64,67.863 16.84,109.031 l -5.71,3.73 c -19.41,-27.359 -38.38,-55.011 -56.79,-83.011 l -55.85,-83.629 -53.94,-84.86 c -18.19,-28.16 -35.82,-56.679 -52.99,-85.492 l 5.71,-3.719 c 38.52,14.903 67.29,36.172 93.08,59.371 z m -130.5,-87.878 c -18.23,20.867 -39.4,39.179 -63.99,54.527 -24.96,15.019 -52.54,27.762 -88.82,32.93 l -5.14,-4.469 c 17.18,-21.781 34.74,-43.219 52.83,-64.219 l 53.67,-63.492 55.39,-62 c 18.28,-20.82 37.06,-41.219 56.25,-61.25 l 5.15,4.473 c 0.04,36.757 -8.71,65.859 -20.14,92.636 -11.76,26.492 -26.95,50 -45.2,70.864 z m 233.82,133.769 -52.8,-51.312 -51.18,-52.918 c -17.23,-17.481 -33.99,-35.411 -50.38,-53.731 l 4.82,-4.808 c 34.43,0.32 60.6,8.878 84.26,19.937 23.34,11.371 43.48,25.949 60.74,43.383 17.29,17.418 31.81,37.59 43.12,60.976 10.97,23.711 19.48,49.872 19.83,84.192 l -4.83,4.808 c -18.26,-16.429 -36.16,-33.238 -53.58,-50.527 z M 1686.96,453.238 c -2,2.231 -4.31,3.903 -6.93,5.032 -2.61,1.128 -5.43,1.55 -8.38,1.57 -2.97,0.019 -6.11,-0.66 -9.29,-1.891 -3.17,-1.258 -6.25,-3.211 -9.21,-5.871 -2.96,-2.656 -5.23,-5.508 -6.8,-8.539 -1.57,-3.019 -2.58,-6.051 -2.87,-9 -0.33,-2.949 -0.04,-5.937 0.79,-8.66 0.86,-2.731 2.26,-5.207 4.27,-7.438 4.13,-4.601 9.37,-6.851 15.58,-6.89 6.21,-0.063 12.28,2.719 18.21,8.051 l -0.43,-0.122 c 5.93,5.321 9.35,11.071 10.11,17.391 0.75,6.32 -0.91,11.77 -5.05,16.367 z m -143.89,-68.218 -45.81,34.07 9.49,-56.449 z m 26.72,-19.84 -57.7,-35.532 4.34,-25.687 -40.59,-24.992 -22.13,153.801 56.01,34.5 126.87,-89.258 -45.99,-28.352 z M 1426.7,267.02 c 3,5.589 3.41,11.308 1.22,17.07 -1.05,2.801 -2.6,5.211 -4.64,7.219 -2.03,2 -4.48,3.421 -7.24,4.5 -2.75,1.089 -5.93,1.613 -9.33,1.589 -3.41,0 -6.98,-0.699 -10.71,-2.109 -3.73,-1.41 -6.88,-3.238 -9.44,-5.488 -2.56,-2.242 -4.62,-4.731 -5.97,-7.36 -1.33,-2.632 -2.17,-5.511 -2.38,-8.363 -0.2,-2.848 0.23,-5.68 1.28,-8.469 2.17,-5.789 6.25,-9.789 12.02,-12.089 5.77,-2.301 12.44,-1.911 19.9,0.91 l -0.43,0.039 c 7.45,2.812 12.71,6.929 15.72,12.551 z m -176.68,22.41 c 7.25,1.3 12.49,3.672 15.93,7.121 3.43,3.449 4.61,8.109 3.55,13.988 l -0.14,0.801 c -1.1,6.09 -3.84,10.031 -8.22,11.89 -4.39,1.829 -9.9,2.059 -16.76,0.809 l -26.86,-4.828 6.15,-34.121 z m 2.8,-31.289 -23.14,-4.18 7.69,-42.742 -50,-9.02 -25.26,140.242 79.8,14.379 c 22.57,4.059 40.3,3.41 53.26,-2.16 12.94,-5.57 20.68,-15.91 23.38,-31.012 l 0.16,-0.789 c 0.98,-5.488 1.06,-10.328 0.42,-14.711 -0.62,-4.347 -1.96,-8.238 -3.98,-11.636 -2.02,-3.41 -4.69,-6.524 -7.81,-9.512 -3.09,-2.98 -6.68,-5.66 -10.66,-8.191 l 50.72,-47.758 -54.7,-9.86 z M 1110.25,220.73 c 0.08,3 -0.45,5.801 -1.56,8.411 -1.12,2.629 -2.87,4.879 -5,6.929 -2.13,2.039 -4.87,3.731 -8.05,5.008 -3.15,1.281 -6.7,1.981 -10.69,2.094 -3.99,0.117 -7.61,-0.383 -10.83,-1.492 -3.2,-1.121 -6.04,-2.641 -8.29,-4.559 -2.26,-1.941 -4.11,-4.269 -5.37,-6.832 -1.28,-2.559 -1.94,-5.34 -2.02,-8.32 -0.19,-6.168 2.08,-11.449 6.54,-15.739 4.47,-4.32 10.79,-6.492 18.76,-6.71 l -0.41,0.218 c 7.98,-0.218 14.41,1.594 19.33,5.641 4.89,4.051 7.43,9.172 7.59,15.351 z m -123.172,-10.871 18.322,107.039 49.49,-8.468 5.72,33.39 -149.079,25.508 -5.711,-33.387 49.09,-8.402 L 936.621,218.5 Z m -126.16,31.7 c 5.859,2.492 9.734,6.679 11.672,12.543 0.918,2.847 1.219,5.679 0.887,8.519 -0.34,2.84 -1.36,5.469 -2.825,8.051 -1.464,2.578 -3.609,4.969 -6.277,7.078 -2.656,2.129 -5.879,3.82 -9.668,5.059 -3.801,1.242 -7.394,1.793 -10.781,1.632 -3.418,-0.132 -6.563,-0.769 -9.258,-2 -2.703,-1.203 -5.148,-2.929 -7.102,-5 -1.941,-2.101 -3.367,-4.562 -4.312,-7.402 -1.914,-5.879 -1.242,-11.551 1.797,-16.969 3.054,-5.39 8.504,-9.261 16.07,-11.75 l -0.308,0.321 c 7.578,-2.481 14.265,-2.582 20.105,-0.082 z m -112.988,32.273 74.558,121.379 -54.148,33.258 -70.86,-41.098 4.129,82.09 -54.812,33.687 -74.563,-121.378 37.688,-23.149 47.336,77.059 -6.606,-102.09 14.094,-8.641 88.594,51.731 -47.344,-77.071 z m 797.98,357.277 C 1434.59,516.988 1279.32,445.93 1107.69,445.93 c -171.635,0 -326.909,71.058 -438.237,185.179 L 635.82,590.789 C 756.355,469.191 923.359,393.73 1107.69,393.73 c 184.32,0 351.32,75.461 471.86,197.059 z M 1737.06,401.98 C 1573.46,245.07 1351.72,148.352 1107.69,148.352 863.652,148.352 641.914,245.07 478.313,401.98 L 444.824,361.832 V 0 c 17.09,11.5195 34.563,21.7813 52.207,30.8711 V 315.91 c 15.149,-12.488 30.598,-24.621 46.492,-36.18 V 52.2109 c 17.54,7.0977 35.012,13.1875 52.207,18.4297 V 244.422 c 15.215,-9.613 30.735,-18.762 46.504,-27.524 V 83 c 18.137,4.1484 35.625,7.4219 52.207,9.9609 v 96.8671 c 15.305,-7.308 30.774,-14.316 46.504,-20.84 V 98.6484 c 20.11,1.8316 37.805,2.6606 52.207,2.9416 v 47.57 c 98.606,-34.262 204.399,-53.0194 314.538,-53.0194 110.14,0 215.92,18.7574 314.53,53.0194 v -47.57 c 14.4,-0.281 32.1,-1.11 52.2,-2.9416 v 70.3396 c 15.74,6.524 31.21,13.532 46.51,20.84 V 92.9609 c 16.58,-2.539 34.07,-5.8125 52.2,-9.9609 v 133.898 c 15.78,8.762 31.29,17.911 46.51,27.524 V 70.6406 c 17.2,-5.2422 34.67,-11.332 52.21,-18.4297 V 279.719 c 15.89,11.57 31.34,23.703 46.49,36.191 V 30.8711 C 1735.99,21.7813 1753.46,11.5195 1770.55,0 v 361.832 0 l -33.49,40.148"></path>
      <path fill="currentColor" d="m 1287.96,744.648 c 153.56,34.032 218.41,91.321 263.42,234.614 -52.96,67.668 -81.66,153.958 -80.96,243.778 0.7,88.91 30.01,173.79 82.97,240.05 l -71.9,102.51 c -0.09,0 -0.19,-0.1 -0.19,-0.1 -149.99,-31.72 -224.95,133.01 -363.81,37.96 l -6.85,-4.73 -6.84,4.73 c -138.573,94.86 -215.148,-69.7 -363.812,-37.96 -0.105,0 -0.105,0.1 -0.203,0.1 l -71.894,-102.51 c 52.863,-66.26 82.265,-151.14 82.968,-240.05 0.704,-89.82 -27.988,-176.11 -80.957,-243.778 C 714.91,835.969 779.766,778.68 933.32,744.648 c 75.12,-16.617 128.79,-41.289 177.32,-81.668 48.43,40.379 102.1,65.051 177.32,81.668 z m 365.32,268.342 C 1643.73,989.922 1614.4,855.398 1520.87,775.762 1392.87,666.73 1269.27,708.039 1162.1,619.68 l -51.46,-42.489 -51.56,42.489 C 955.703,704.922 826.211,668.73 700.313,775.762 608.262,854.141 575.598,994.41 567.898,1012.99 c 12.27,18.88 93.032,80.55 92.036,206.13 -1.028,130.01 -88.008,189.27 -109.153,219.61 l 151.043,202.18 49.543,-9.16 c 106.426,-22.82 204.883,115.23 359.273,44.71 152.03,69.43 255.3,-67 359.28,-44.71 l 49.44,9.16 151.04,-202.18 c -20.45,-29.39 -108.03,-89.48 -109.05,-219.61 -0.99,-124.98 79.7,-187.3 91.93,-206.13 z m -648.3,266.38 c -7.968,-37.86 4.4,-73.76 33.09,-96.05 l 11.29,-8.78 -11.29,-8.77 c -28.66,-22.26 -41.027,-58 -33.12,-95.6 8.81,-41.83 40.63,-75.42 81.06,-85.549 38.49,-9.652 118.95,-6.891 225.49,119.919 l 19.64,23.36 V 904.031 l -94.16,45.43 c -63.07,-48.102 -162.19,-55.981 -236.69,-18.563 -78.837,39.582 -98.181,96.912 -115.239,147.482 -11.406,33.77 -22.168,65.66 -50.141,87.39 l -11.609,9.02 11.867,8.71 c 28.477,20.93 38.738,51.63 50.633,87.2 16.965,50.71 36.164,108.16 114.489,147.5 74.55,37.44 173.76,29.51 236.86,-18.69 l 93.99,42.45 v -219.12 l -19.64,23.36 c -106.21,126.41 -186.49,129.14 -224.92,119.5 -40.67,-10.2 -72.7,-44.08 -81.6,-86.33"></path>
    </g>
  </g>
</svg>