<svg class="icon icon-logo" width="3829" height="230" viewBox="0 0 3829 230" fill="none" xmlns="http://www.w3.org/2000/svg">
<path d="M3.01009 158.243C3.38009 151.513 20.3701 152.053 40.4701 152.343C48.4901 152.423 50.7301 155.253 52.6001 161.063C65.1801 199.853 129.39 199.313 135.16 165.883C140.73 133.363 84.2801 130.623 61.5701 124.643C-21.6199 102.753 -6.20992 -12.6973 111.24 4.16272C140.1 8.31272 178.69 31.1127 177.73 66.9127C177.56 73.4327 168.88 72.4827 148.95 72.3127C136.66 72.2327 132.75 72.7327 130.76 68.0327C126.77 58.6027 121.37 51.0927 110.28 44.9827C82.7401 29.7427 45.4101 52.1227 62.7301 73.6427C77.1401 91.5027 123.45 88.5127 153.35 103.833C185.33 120.193 192.47 158.403 175.49 190.093C165.73 208.323 137.45 222.443 117.55 225.563C63.1001 234.123 0.680091 204.303 3.01009 158.243Z"></path>
<path d="M264.36 8.44273C271.79 7.73273 305.93 6.32272 329.02 7.53272C373.17 9.86272 410.13 19.4127 418.44 62.2327C421.97 80.4227 418.52 105.343 403.9 121.703C368.52 161.323 302.15 126.193 295.92 155.633C295.05 159.663 295.01 163.693 294.96 167.763C294.71 225.783 294.63 221.173 283.5 221.583C277.31 221.793 265.64 222.743 252.1 220.833C244.25 219.753 244.87 207.173 245.16 150.063C245.16 149.603 245.49 98.5627 245.62 92.2927C247.41 17.5727 238.93 10.8127 264.35 8.44273H264.36ZM325.79 106.163C335.97 106.453 348.88 105.453 357.69 100.433C368.07 94.4927 372.89 82.8627 371.44 72.2727C367.66 44.8227 344.57 46.6927 323.51 45.9427C321.89 45.8627 313.17 46.1127 306.15 47.5227C297.8 49.2227 294.81 56.7827 294.6 65.3827C293.44 108.073 296.3 105.373 325.79 106.163Z"></path>
<path d="M499.31 9.60269C502.72 9.43269 513.89 8.31269 518.54 10.5127C528.26 15.0827 524.94 23.5927 525.72 39.5027C525.93 43.8227 525.97 76.7527 526.18 81.1627C526.3 83.5327 527.09 172.203 527.34 176.143C527.96 188.233 528.84 204.133 525.89 215.393C525.1 218.343 522.86 218.923 520.37 219.463C512.15 221.333 490.38 221.083 486.77 220.663C473.56 219.083 477.09 205.293 476.43 128.883C475.27 0.422676 471.07 11.0627 499.31 9.60269Z"></path>
<path d="M595.87 20.1527C595.87 12.8427 599.82 8.73271 606.88 7.28271C613.03 5.99271 705.97 5.62271 732.8 11.7227C777.78 21.9427 785.46 80.9527 761.08 106.123C754.48 112.973 754.52 121.823 759.21 128.343C773.5 148.073 771.96 170.913 773.46 189.233C774.87 206.923 782.85 222.213 772.55 223.163C760.8 224.283 748.96 223.583 737.21 223.623C718.89 223.703 729.44 185.953 714.45 153.103C708.72 140.683 698.25 139.523 685.79 138.773C646.34 136.283 645.26 142.843 645.26 176.903C645.3 217.973 648.83 223.173 635.67 223.213C601.57 223.293 598.83 225.293 596.59 215.943C594.97 209.293 596.63 216.363 596.01 130.053C595.93 120.173 595.76 46.3627 595.89 20.1627L595.87 20.1527ZM646.62 95.4027C647.33 99.3527 651.27 103.663 654.76 104.333C668.05 106.903 692.51 105.913 700.69 104.333C730.8 98.4727 729.6 56.5727 705.72 48.6827C693.51 44.6127 681.17 45.5727 672 45.4427C641.89 45.0227 646.91 60.8527 646.21 72.0227C646.13 73.7627 646 91.9127 646.63 95.4027H646.62Z"></path>
<path d="M863.25 9.60269C866.66 9.43269 877.83 8.31269 882.48 10.5127C892.2 15.0827 888.88 23.5927 889.66 39.5027C889.87 43.8227 889.91 76.7527 890.12 81.1627C890.24 83.5327 891.03 172.203 891.28 176.143C891.9 188.233 892.78 204.133 889.83 215.393C889.04 218.343 886.8 218.923 884.31 219.463C876.09 221.333 854.32 221.083 850.71 220.663C837.5 219.083 841.03 205.293 840.37 128.883C839.21 0.422676 835.01 11.0627 863.25 9.60269Z"></path>
<path d="M953.16 49.8827C947.89 49.5127 944.98 48.3027 943.86 41.7427C942.61 34.2627 943.4 13.6227 943.44 13.1227C943.86 4.15273 950.38 5.98273 991.7 5.40273C1027.62 4.86273 1096.44 5.19274 1109.28 5.44274C1114.8 5.52274 1119 5.90273 1119.54 11.3827C1119.75 13.4227 1120.74 37.7927 1120.74 38.2927C1120.2 53.6227 1116.3 48.5527 1078.46 49.4627C1048.77 50.2127 1059.6 56.6427 1057.78 208.983C1057.57 226.593 1051.92 224.223 1042.62 224.603C1020.69 225.513 1008.44 227.593 1008.44 212.763C1008.44 187.513 1008.23 162.223 1008.48 136.973C1009.1 76.7527 1013.34 55.3627 995.77 51.5027C992.16 50.7127 961.55 50.4227 953.16 49.8827Z"></path>
<path d="M1324.83 3.87272C1328.82 3.62272 1343.35 4.04272 1348.88 5.61272C1358.35 8.27272 1354.36 16.4927 1355.77 74.9727C1356.23 93.8727 1356.56 142.463 1353.49 162.523C1342.53 234.203 1223.41 251.363 1184.04 188.683C1170 166.293 1169.67 145.903 1170.09 70.3227C1170.09 68.8227 1170.42 44.1627 1170.51 42.6627C1172.38 3.21271 1170.43 4.74271 1184.63 3.54271C1190.28 3.04271 1200.79 3.04272 1210.55 4.00272C1214.2 4.37272 1217.98 8.73271 1218.27 12.4327C1218.56 15.7927 1218.44 19.1627 1218.48 22.5627C1220.27 130.383 1214.16 150.893 1228.74 171.993C1234.1 179.713 1241.24 184.703 1250.54 186.693C1263.04 189.353 1277 186.483 1285.59 182.293C1310.18 170.293 1306.65 144.213 1306.81 119.333C1307.56 -7.25727 1300.41 5.62272 1324.83 3.87272Z"></path>
<path d="M1514.42 8.68272C1528.21 8.80272 1532.07 19.8127 1540.63 42.7827C1604.63 214.223 1615.1 216.553 1588.81 218.793C1552.1 221.903 1558.12 217.053 1545.41 189.393C1541.59 181.043 1540.01 175.023 1529.84 173.153C1522.36 171.783 1521.28 172.693 1500.1 173.443C1482.82 174.063 1478.79 172.823 1472.02 174.193C1461.68 176.273 1454.58 192.593 1451.17 202.643C1447.39 213.653 1447.31 219.093 1439.54 220.123C1433.39 220.953 1407.85 221.533 1404.03 220.123C1397.55 217.753 1401.21 212.193 1410.76 185.733C1428.95 135.483 1450.09 79.5827 1471.31 30.0727C1480.95 7.60272 1480.99 8.43272 1514.42 8.68272ZM1511.43 139.673C1513.3 139.753 1515.08 139.253 1516.91 138.923C1523.76 137.763 1527.67 131.363 1523.6 120.653C1513.42 93.9927 1512.18 89.4627 1507.07 85.3927C1497.52 77.7527 1491.91 90.6627 1487.22 101.923C1483.81 110.023 1481.24 118.413 1478.87 126.843C1476.88 134.113 1480.7 138.803 1488.38 139.093C1496.06 139.383 1503.75 138.973 1511.43 139.673Z"></path>
<path d="M1663.89 221.333C1652.3 218.053 1658.24 204.143 1656.25 138.523C1656.21 137.363 1655.42 19.1227 1655.42 17.9127C1655.42 11.1827 1657.37 6.86272 1664.06 5.87272C1666.22 5.58272 1686.9 4.87272 1689.02 4.96272C1712.03 6.25272 1703.31 7.41273 1705.3 72.9927C1708.12 165.313 1699.32 176.153 1717.09 180.393C1728.76 183.173 1798.03 180.723 1802.56 182.723C1808.08 185.173 1805.3 213.413 1804.3 217.273C1803.01 222.383 1797.61 222.543 1786.11 222.543C1665.17 222.373 1670.98 223.373 1663.88 221.343L1663.89 221.333Z"></path>
<path d="M2143.29 105.043C2158.16 104.923 2155.58 123.363 2156.08 138.353C2156.12 138.813 2156.99 206.463 2156.91 210.243C2156.83 213.563 2156.95 217.013 2155.83 220.293C2154.87 223.113 2155.12 222.663 2152.18 222.953C2151.72 222.993 2134.11 223.703 2128.13 223.703C2122.44 223.663 2120.9 215.933 2110.11 216.933C2102.39 217.643 2034.52 252.193 1984.73 198.663C1950.26 161.613 1949.55 97.5327 1974.85 54.4627C2026.22 -33.0073 2151.4 -0.437279 2151.82 74.2327C2151.86 79.3027 2144.55 79.5527 2139.94 79.8427C2102.27 81.9627 2110.83 81.4227 2102.44 66.7627C2081.76 30.5927 2005.42 40.3927 2008.79 126.863C2010.49 171.263 2047.79 197.843 2087.28 181.763C2105.64 174.283 2123.79 145.593 2104.1 140.063C2086.66 135.203 2070.58 144.753 2069.01 134.043C2067.68 124.943 2068.8 113.773 2070.71 108.123C2071.42 106.043 2072.5 105.253 2074.74 105.253C2096.34 105.253 2088.86 105.463 2143.31 105.043H2143.29Z"></path>
<path d="M2319.67 8.68272C2333.46 8.80272 2337.32 19.8127 2345.88 42.7827C2409.88 214.223 2420.35 216.553 2394.06 218.793C2357.35 221.903 2363.37 217.053 2350.66 189.393C2346.84 181.043 2345.26 175.023 2335.09 173.153C2327.61 171.783 2326.53 172.693 2305.35 173.443C2288.07 174.063 2284.04 172.823 2277.27 174.193C2266.93 176.273 2259.83 192.593 2256.42 202.643C2252.64 213.653 2252.56 219.093 2244.79 220.123C2238.64 220.953 2213.1 221.533 2209.28 220.123C2202.8 217.753 2206.46 212.193 2216.01 185.733C2234.2 135.483 2255.34 79.5827 2276.56 30.0727C2286.2 7.60272 2286.24 8.43272 2319.67 8.68272ZM2316.68 139.673C2318.55 139.753 2320.33 139.253 2322.16 138.923C2329.01 137.763 2332.92 131.363 2328.85 120.653C2318.67 93.9927 2317.43 89.4627 2312.32 85.3927C2302.77 77.7527 2297.16 90.6627 2292.47 101.923C2289.06 110.023 2286.49 118.413 2284.12 126.843C2282.08 134.113 2285.95 138.803 2293.63 139.093C2301.31 139.383 2309 138.973 2316.68 139.673Z"></path>
<path d="M2461.59 186.653C2461.59 7.36273 2457.27 6.44271 2472.22 3.79271C2479.82 2.42271 2497.68 2.25271 2505.15 6.32271C2525.29 17.3327 2570.73 113.353 2584.77 118.793C2590.83 121.163 2595.32 117.883 2596.32 111.813C2597.32 105.873 2597.32 53.0027 2597.77 46.1127C2599.56 16.3727 2595.44 6.36272 2607.99 4.20272C2615.09 3.00272 2633.45 2.58271 2639.01 4.66271C2646.82 7.57271 2644.78 16.0427 2645.03 29.9527C2645.65 68.4927 2644.82 178.633 2644.53 183.873C2643.28 204.843 2647.31 221.043 2633.44 222.663C2620.44 224.243 2604.62 223.283 2599.63 222.293C2591.12 220.593 2589.87 212.283 2536.34 135.363C2532.39 129.673 2528.41 123.983 2524.13 118.543C2521.06 114.643 2515.91 113.313 2511.55 117.093C2506.48 121.453 2508.73 137.733 2507.69 176.363C2507.57 180.353 2507.77 184.293 2507.44 188.243C2504.62 224.463 2511.01 223.623 2480.24 222.923C2470.19 222.673 2463.59 221.423 2462.3 212.703C2460.97 203.563 2461.88 194.343 2461.59 186.663V186.653Z"></path>
<path d="M2891.64 105.043C2906.51 104.923 2903.93 123.363 2904.43 138.353C2904.47 138.813 2905.34 206.463 2905.26 210.243C2905.18 213.563 2905.3 217.013 2904.18 220.293C2903.22 223.113 2903.47 222.663 2900.53 222.953C2900.07 222.993 2882.46 223.703 2876.48 223.703C2870.79 223.663 2869.25 215.933 2858.46 216.933C2850.74 217.643 2782.87 252.193 2733.08 198.663C2698.61 161.613 2697.9 97.5327 2723.2 54.4627C2774.57 -33.0073 2899.75 -0.437279 2900.17 74.2327C2900.21 79.3027 2892.9 79.5527 2888.29 79.8427C2850.62 81.9627 2859.18 81.4227 2850.79 66.7627C2830.11 30.5927 2753.77 40.3927 2757.14 126.863C2758.84 171.263 2796.14 197.843 2835.63 181.763C2853.99 174.283 2872.14 145.593 2852.45 140.063C2835.01 135.203 2818.93 144.753 2817.36 134.043C2816.03 124.943 2817.15 113.773 2819.06 108.123C2819.77 106.043 2820.85 105.253 2823.09 105.253C2844.69 105.253 2837.21 105.463 2891.66 105.043H2891.64Z"></path>
<path d="M2961.79 158.243C2962.16 151.513 2979.15 152.053 2999.25 152.343C3007.27 152.423 3009.51 155.253 3011.38 161.063C3023.96 199.853 3088.17 199.313 3093.94 165.883C3099.51 133.363 3043.06 130.623 3020.35 124.643C2937.16 102.753 2952.57 -12.6973 3070.02 4.16272C3098.88 8.31272 3137.47 31.1127 3136.51 66.9127C3136.34 73.4327 3127.66 72.4827 3107.73 72.3127C3095.44 72.2327 3091.53 72.7327 3089.54 68.0327C3085.55 58.6027 3080.15 51.0927 3069.06 44.9827C3041.52 29.7427 3004.19 52.1227 3021.51 73.6427C3035.92 91.5027 3082.23 88.5127 3112.13 103.833C3144.11 120.193 3151.25 158.403 3134.27 190.093C3124.51 208.323 3096.23 222.443 3076.33 225.563C3021.88 234.123 2959.46 204.303 2961.79 158.243Z"></path>
<path d="M3197.9 49.8827C3192.63 49.5127 3189.72 48.3027 3188.6 41.7427C3187.35 34.2627 3188.14 13.6227 3188.18 13.1227C3188.6 4.15273 3195.12 5.98273 3236.44 5.40273C3272.36 4.86273 3341.18 5.19274 3354.02 5.44274C3359.54 5.52274 3363.74 5.90273 3364.28 11.3827C3364.49 13.4227 3365.48 37.7927 3365.48 38.2927C3364.94 53.6227 3361.04 48.5527 3323.2 49.4627C3293.51 50.2127 3304.34 56.6427 3302.52 208.983C3302.31 226.593 3296.66 224.223 3287.36 224.603C3265.43 225.513 3253.18 227.593 3253.18 212.763C3253.18 187.513 3252.97 162.223 3253.22 136.973C3253.84 76.7527 3258.08 55.3627 3240.51 51.5027C3236.9 50.7127 3206.25 50.4227 3197.9 49.8827Z"></path>
<path d="M3426.53 221.203C3419.26 218.873 3418.06 210.153 3417.6 202.513C3417.18 195.533 3417.6 24.6727 3420.22 15.0027C3422.59 6.15273 3427.78 8.35273 3447.8 7.94273C3448.3 7.94273 3569.4 7.07272 3569.94 7.07272C3580.9 7.03272 3580.03 15.1327 3580.78 27.0127C3581.11 32.5327 3580.99 38.0227 3580.16 43.4127C3579.45 48.1427 3577.5 49.2227 3573.22 49.3927C3543.32 50.3027 3483.14 49.5627 3475.16 51.7227C3470.84 52.8827 3466.73 57.4127 3465.82 61.7327C3464.74 66.8827 3464.91 78.3027 3466.15 83.4127C3467.89 90.6827 3474 91.7227 3481.48 92.1327C3505.78 93.5827 3544.44 91.5527 3565.08 92.6727C3568.11 92.8427 3570.02 93.5427 3570.65 98.5327C3572.35 112.823 3574.68 128.523 3564.63 130.093C3556.91 131.253 3480.28 131.293 3479.78 131.343C3472.26 132.003 3467.11 134.453 3466.12 142.353C3465.37 148.623 3464.42 163.073 3467.16 171.383C3470.52 181.643 3482.78 178.323 3568.16 178.523C3575.47 178.523 3580.58 182.173 3581.41 189.323C3582.12 195.593 3581.53 211.953 3580.7 216.613C3579.87 221.393 3574.05 222.223 3569.2 222.263C3422.68 222.683 3430.19 222.433 3426.54 221.223L3426.53 221.203Z"></path>
<path d="M3644.61 20.1527C3644.61 12.8427 3648.56 8.73271 3655.62 7.28271C3661.77 5.99271 3754.71 5.62271 3781.54 11.7227C3826.52 21.9427 3834.2 80.9527 3809.82 106.123C3803.22 112.973 3803.26 121.823 3807.95 128.343C3822.24 148.073 3820.7 170.913 3822.2 189.233C3823.61 206.923 3831.59 222.213 3821.29 223.163C3809.54 224.283 3797.7 223.583 3785.95 223.623C3767.63 223.703 3778.18 185.953 3763.19 153.103C3757.46 140.683 3746.99 139.523 3734.53 138.773C3695.08 136.283 3694 142.843 3694 176.903C3694.04 217.973 3697.57 223.173 3684.41 223.213C3650.31 223.293 3647.57 225.293 3645.33 215.943C3643.71 209.293 3645.37 216.363 3644.75 130.053C3644.67 120.173 3644.5 46.3627 3644.63 20.1627L3644.61 20.1527ZM3695.36 95.4027C3696.07 99.3527 3700.01 103.663 3703.5 104.333C3716.79 106.903 3741.25 105.913 3749.43 104.333C3779.54 98.4727 3778.34 56.5727 3754.46 48.6827C3742.25 44.6127 3729.91 45.5727 3720.74 45.4427C3690.63 45.0227 3695.65 60.8527 3694.95 72.0227C3694.87 73.7627 3694.74 91.9127 3695.37 95.4027H3695.36Z"></path>
</svg>