<svg viewBox="0 0 157 24" fill="none" xmlns="http://www.w3.org/2000/svg" class="logo-cart-drawer">
      <g clip-path="url(#clip0_2518_1857)">
        <path d="M136.131 0.128906H131.249V23.6339H136.131V0.128906Z" fill="black"></path>
        <path d="M0 0.136719V23.6349H3.63644H4.88226H11.4346V18.7182H4.88226V0.136719H0Z" fill="black"></path>
        <path d="M46.5056 0.117188V0.130751H42.8691V23.6357H47.7581V14.3449H54.3037V9.42151H47.7581V5.03383H54.3037V0.117188H46.5056Z" fill="black"></path>
        <path d="M149.202 0.121094V0.141438H145.565V23.6396H150.448V23.6328H157V18.7162H150.448V14.3488H157V9.4322H150.448V5.03774H157V0.121094H149.202Z" fill="black"></path>
        <path d="M26.9164 6.80279L28.2835 15.3747L25.4955 15.4154L26.9164 6.80279ZM26.9164 0.122938L23.7851 0.109375L18.9971 23.6279L23.9803 23.6482L24.7615 19.6403H29.0848L29.866 23.6482L34.8493 23.6279L30.0478 0.116157L26.9164 0.12972V0.122938Z" fill="black"></path>
        <path d="M94.6821 0.319821V17.5789C94.6821 18.6165 93.8268 19.4574 92.7898 19.4574C91.7527 19.4574 90.8975 18.6097 90.8975 17.5789V0.319821C90.8975 0.258787 90.8975 0.197753 90.9042 0.136719H85.9883V18.4673H85.995C86.1768 21.5529 89.0995 24.0011 92.6686 24.0011C96.2377 24.0011 99.1603 21.5529 99.3421 18.4673H99.3488V0.136719H94.6686C94.6686 0.197753 94.6753 0.258787 94.6753 0.319821" fill="black"></path>
        <path d="M121.464 6.07726C121.35 4.87692 121.148 2.82889 119.437 1.35728C117.821 -0.0397207 115.888 -0.019376 115.336 0.00096869H109.201V23.6348H114.016V14.2558H114.487C116.218 14.2558 116.494 14.6763 116.494 17.2669V20.5966C116.481 21.6545 116.528 22.4548 116.575 22.7735C116.615 23.038 116.676 23.2686 116.676 23.2686C116.716 23.4313 116.764 23.5534 116.791 23.6415C118.373 23.6415 119.956 23.6415 121.538 23.6415C121.478 23.3025 121.403 22.8142 121.35 22.2174C121.296 21.5732 121.296 21.0849 121.289 20.834C121.235 19.2132 121.316 18.5893 121.275 17.4296C121.208 15.585 121.174 14.4864 120.508 13.3539C120.07 12.6079 119.518 12.1196 119.127 11.828C119.471 11.6449 119.929 11.3398 120.353 10.8515C121.76 9.24426 121.552 7.06059 121.457 6.07726M116.642 8.24059C116.642 10.4514 115.989 10.8244 114.528 10.8244H114.03V3.72405H114.676C116.346 3.72405 116.642 4.45647 116.642 6.00267V8.24059Z" fill="black"></path>
        <path d="M69.5297 6.75982L70.8967 15.3317L68.1088 15.3724L69.5297 6.75982ZM69.5297 0.0799694L66.3983 0.0664062L61.6104 23.5849L66.5936 23.6053L67.3748 19.5973H71.6981L72.4793 23.6053L77.4625 23.5849L72.6611 0.0664062L69.5297 0.0799694Z" fill="black"></path>
      </g>
      <defs>
        <clipPath id="clip0_2518_1857">
          <rect width="157" height="24" fill="white"></rect>
        </clipPath>
      </defs>
    </svg>