<svg xmlns="http://www.w3.org/2000/svg" viewBox="0 0 85 32" class="icon icon-site-logo" fill="none">
      <path d="M44.9372 0.519407C44.6524 0.670193 44.6356 1.42412 44.6356 12.532C44.6356 21.5288 44.6859 24.444 44.8367 24.5948C45.1383 24.8964 45.7247 24.8461 46.0262 24.4943C46.2943 24.2095 46.3111 23.1372 46.3111 12.599C46.3111 1.22307 46.3111 1.00527 45.976 0.670193C45.6074 0.301605 45.3561 0.268099 44.9372 0.519407Z" fill="#E84621"></path>
      <path d="M81.0263 7.1372C80.0713 7.80735 79.9373 9.13091 80.7582 9.95186C81.9311 11.1079 83.8411 10.3204 83.8411 8.6618C83.8411 7.74034 82.9698 6.86913 82.0483 6.86913C81.6965 6.86913 81.2274 6.98641 81.0263 7.1372ZM83.0871 7.62306C83.6735 8.19269 83.6735 9.23144 83.0871 9.80107C81.9143 10.9906 79.9038 9.46599 80.6912 7.99165C80.9928 7.42201 81.3446 7.22097 82.0483 7.20421C82.5007 7.20421 82.8023 7.32149 83.0871 7.62306Z" fill="#E84621"></path>
      <path d="M81.5458 7.65658C81.2777 7.75711 81.2442 9.71732 81.4955 9.71732C81.596 9.71732 81.663 9.53302 81.663 9.29847C81.663 8.74559 82.0484 8.76234 82.417 9.31522C82.7521 9.81784 82.9699 9.75082 82.6348 9.23145C82.4672 8.96339 82.4672 8.84611 82.6348 8.67857C83.238 8.07543 82.4002 7.30475 81.5458 7.65658ZM82.5845 8.20946C82.5845 8.36025 82.4002 8.47753 82.1322 8.51103C81.7468 8.56129 81.663 8.49428 81.663 8.20946C81.663 7.92465 81.7468 7.85763 82.1322 7.90789C82.4002 7.9414 82.5845 8.05868 82.5845 8.20946Z" fill="#E84621"></path>
      <path d="M1.5431 7.89112C1.25827 8.04191 1.24152 8.62829 1.24152 16.2178C1.24152 24.8293 1.24152 24.7958 1.99547 24.7958C2.73266 24.7958 2.74942 24.6283 2.74942 19.6021C2.74942 13.3864 2.91696 12.4649 4.34109 11.0074C5.37987 9.9351 6.46891 9.48274 8.02708 9.48274C9.16638 9.46599 9.51822 9.53301 10.3224 9.9351C11.3612 10.4377 12.2492 11.3257 12.8356 12.4314C13.2042 13.1351 13.221 13.3194 13.3047 18.8147C13.3885 24.8964 13.3718 24.7791 14.2597 24.7958C15.0975 24.7958 15.1477 24.4608 15.1477 18.8482C15.1477 12.6827 15.1812 12.532 16.6389 11.0409C19.2693 8.37699 23.3407 9.04714 25.0329 12.4314L25.5355 13.4534V18.7477C25.5355 24.4775 25.5858 24.7958 26.4402 24.7958C27.1942 24.7958 27.2109 24.6953 27.2109 19.0157C27.2109 13.2021 27.1439 12.6157 26.2727 11.1246C25.7198 10.1864 24.4297 9.01363 23.4077 8.47751C20.3751 6.9529 16.6054 7.94138 14.5111 10.8063C14.1592 11.2922 14.1425 11.2922 13.9414 10.9738C13.489 10.2032 12.2324 9.0639 11.3277 8.57803C8.83129 7.23772 5.53066 7.6063 3.52012 9.46599C3.16828 9.78432 2.84995 10.0524 2.81644 10.0524C2.78293 10.0524 2.74942 9.60002 2.74942 9.04714C2.74942 8.24295 2.6824 8.02515 2.43108 7.87437C2.02898 7.67332 1.91169 7.67332 1.5431 7.89112Z" fill="#E84621"></path>
      <path d="M29.1545 8.07543C28.9199 8.39375 28.8864 9.18119 28.8864 13.2524C28.8864 18.4461 28.9869 19.3173 29.7074 20.8587C31.6174 24.9634 37.0793 26.0524 40.447 23.0199L41.1674 22.3665L41.0837 23.7404C41.0167 24.8461 40.8994 25.3152 40.4638 26.2032C39.7936 27.5602 38.47 28.8168 37.1296 29.3362C35.873 29.8388 33.6949 29.889 32.5389 29.4199C31.5671 29.0346 30.9472 29.1519 30.7964 29.755C30.6456 30.3246 31.031 30.71 32.12 31.0618C36.4427 32.5027 41.1674 30.0901 42.4743 25.8011C42.7759 24.7623 42.7926 24.2597 42.7591 16.3351L42.7089 7.95815L42.2565 7.80737C41.8879 7.67334 41.7203 7.70684 41.4523 7.95815C41.1339 8.24297 41.1172 8.44402 41.1172 13.5037C41.1172 18.3288 41.0837 18.8315 40.7821 19.6356C40.1454 21.3445 38.9223 22.4168 37.0626 22.8859C34.65 23.5058 32.2038 22.2995 31.0812 19.9372L30.6456 19.0157L30.5954 13.5707C30.5451 8.76234 30.5116 8.10894 30.277 7.90789C29.8582 7.60632 29.4393 7.65658 29.1545 8.07543Z" fill="#E84621"></path>
      <path d="M54.5207 7.89114C53.2306 8.14245 51.6557 9.0304 50.5667 10.1362C45.8922 14.777 47.8692 22.6849 54.1689 24.5278C57.2852 25.4325 61.2058 23.9917 62.9147 21.311C63.4006 20.5404 63.4006 20.0377 62.8645 19.7529C62.4121 19.5016 61.9597 19.7027 61.5576 20.3561C61.055 21.177 59.9659 22.0985 58.8937 22.6011C58.0727 22.9864 57.7376 23.0367 56.28 23.0367C54.7218 23.0367 54.5207 23.0032 53.4987 22.5006C51.5887 21.5623 50.0305 19.4346 49.729 17.3739L49.6284 16.5864L56.9669 16.6199L64.3221 16.6702L64.4394 17.5917C64.808 20.5068 66.9693 23.2545 69.7338 24.2932C71.6606 25.0304 74.1402 24.9131 76.067 24.0252C77.6084 23.3048 79.3509 21.6461 79.5854 20.6576C79.7027 20.2053 79.2671 19.6021 78.8315 19.6021C78.6807 19.6021 78.0775 20.1383 77.4911 20.8084C75.933 22.5173 74.7936 23.0367 72.6156 23.0367C71.1747 23.0367 70.9234 22.9864 69.9013 22.5006C68.494 21.8304 67.3714 20.7246 66.7347 19.3843C66.2656 18.3456 65.8803 16.8545 66.0478 16.6702C66.0981 16.6199 69.2982 16.5864 73.1517 16.5864C77.6754 16.5864 80.2891 16.5194 80.5069 16.4189C80.909 16.2011 80.9258 15.5309 80.5739 14.1571C79.5352 10.1362 75.9497 7.45554 72.0292 7.7571C70.4877 7.87438 69.4322 8.24297 68.0416 9.16444C66.4499 10.2199 64.9588 12.3309 64.6572 13.9561C64.5064 14.7435 64.3053 14.7435 64.1881 13.9896C64.0038 12.9006 63.0153 11.1749 61.9597 10.1194C59.9827 8.14245 57.3187 7.33826 54.5207 7.89114ZM58.9272 10.0189C60.6194 10.8063 61.943 12.3477 62.4959 14.1571L62.7137 14.911H56.28C48.841 14.911 49.4274 15.0953 50.4159 13.1016C52.0243 9.88485 55.7773 8.52779 58.9272 10.0189ZM74.425 9.68381C76.3351 10.2869 77.9435 11.7948 78.6304 13.6545C78.8315 14.1739 78.9823 14.6597 78.9823 14.7435C78.9823 14.844 76.5529 14.911 72.515 14.911H66.0646L66.1651 14.5257C67.2709 10.7226 70.9066 8.5948 74.425 9.68381Z" fill="#E84621"></path>
    </svg>