<svg class="icon icon-logo" width="16" height="110" viewBox="0 0 15 101" fill="none" xmlns="http://www.w3.org/2000/svg">
<g clip-path="url(#clip0_136_1916)">
<path d="M4.3351 96.9942C4.1673 96.7043 4.09102 96.3977 4.09102 96.1883C4.09102 94.3829 5.49345 93.3187 6.98741 93.3187C9.06948 93.3187 10.4819 94.909 11.0053 96.7754C11.141 97.2588 11.1284 97.7748 10.9485 98.2435C10.9233 98.3088 10.898 98.3656 10.8743 98.4124L12.8712 98.4124C13.969 98.4124 14.0606 98.2998 14.1516 97.0584L14.5787 97.0584L14.5787 100.992L14.1516 100.992C14.06 99.96 13.9685 99.8311 12.9932 99.8311L6.10366 99.8311C5.1431 99.8311 5.09734 99.9116 4.99108 100.878L4.6097 100.878C4.48766 100.153 4.22832 99.2341 3.939 98.4124L5.12838 98.4124L4.33563 96.9937L4.3351 96.9942ZM9.63129 98.4124C9.73913 98.4124 9.84223 98.3651 9.90904 98.2804C10.1863 97.9295 10.3872 97.4003 10.3872 96.9458C10.3872 95.6722 9.30462 94.818 7.59761 94.818C5.89061 94.818 5.05157 95.8174 5.05157 96.9137C5.05157 97.3971 5.35668 98.01 5.646 98.4129L9.63129 98.4129L9.63129 98.4124Z" fill="currentColor"></path>
<path d="M10.8833 86.3866C11.0074 86.6112 11.0248 86.8816 10.9238 87.1178C10.8696 87.244 10.7991 87.3576 10.7218 87.4381C10.5219 87.647 10.3067 87.7595 10.0605 87.8237C10.4756 88.4665 11.029 89.2377 11.029 89.688C11.029 90.8611 10.0911 91.6643 9.13787 91.6643C8.36932 91.6643 7.90798 91.2467 7.63129 90.3787C7.32355 89.4602 6.93218 88.3371 6.65653 87.9273C6.63286 87.8921 6.59288 87.8721 6.5508 87.8721L6.30882 87.8721C5.23253 87.8721 4.61759 88.386 4.61759 89.1577C4.61759 89.4471 4.72543 89.688 4.90955 89.849C5.1247 90.042 5.46294 90.1862 5.93954 90.315C6.21623 90.3955 6.32407 90.5723 6.32407 90.8295C6.32407 91.1346 6.01686 91.5849 5.64758 91.5849C5.40139 91.5849 5.23254 91.3761 5.0016 91.0547C4.72017 90.6486 4.24042 89.7785 4.00949 88.9557C3.93532 88.6917 3.9169 88.4134 3.96372 88.143C4.02264 87.8063 4.14784 87.4912 4.33984 87.2461C4.80118 86.6517 5.43138 86.4907 6.26147 86.4907L9.05949 86.4907C9.75123 86.4907 9.96638 86.2177 9.96638 85.9442C9.96638 85.7516 9.88958 85.5265 9.81278 85.3655L10.2278 85.2051L10.8812 86.3871L10.8833 86.3866ZM7.17468 87.8637C7.34354 88.2009 7.6155 88.8679 7.76963 89.2214C8.04633 89.8158 8.32303 90.1535 8.89221 90.1535C9.69179 90.1535 10.0605 89.5265 10.0605 89.0446C10.0605 88.6896 9.85644 88.2472 9.63077 87.9452C9.56186 87.8526 9.32619 87.8263 9.19889 87.8263L7.17521 87.8642L7.17468 87.8637Z" fill="currentColor"></path>
<path d="M10.9795 52.0397C11.1037 52.2644 11.121 52.5347 11.02 52.7709C10.9659 52.8972 10.8954 53.0108 10.818 53.0913C10.6182 53.3001 10.403 53.4127 10.1568 53.4769C10.5719 54.1197 11.1253 54.8909 11.1253 55.3412C11.1253 56.5142 10.1873 57.3175 9.23414 57.3175C8.46559 57.3175 8.00425 56.8998 7.72755 56.0319C7.41982 55.1134 7.02844 53.9903 6.7528 53.5805C6.72913 53.5453 6.68915 53.5253 6.64706 53.5253L6.40508 53.5253C5.3288 53.5253 4.71386 54.0392 4.71386 54.8109C4.71386 55.1002 4.8217 55.3412 5.00581 55.5021C5.22096 55.6952 5.55921 55.8393 6.0358 55.9682C6.3125 56.0487 6.42034 56.2254 6.42034 56.4827C6.42034 56.7878 6.11313 57.2381 5.74385 57.2381C5.49766 57.2381 5.3288 57.0292 5.09787 56.7078C4.81644 56.3017 4.33669 55.4316 4.10576 54.6089C4.03158 54.3448 4.01317 54.0666 4.05999 53.7962C4.11891 53.4595 4.2441 53.1444 4.43611 52.8993C4.89745 52.3049 5.52765 52.1439 6.35774 52.1439L9.15576 52.1439C9.8475 52.1439 10.0627 51.8709 10.0627 51.5973C10.0627 51.4048 9.98585 51.1797 9.90905 51.0187L10.3241 50.8582L10.9774 52.0403L10.9795 52.0397ZM7.27095 53.5174C7.43981 53.8546 7.71177 54.5216 7.8659 54.8751C8.1426 55.4695 8.4193 55.8072 8.98847 55.8072C9.78806 55.8072 10.1568 55.1802 10.1568 54.6983C10.1568 54.3433 9.95271 53.9009 9.72704 53.5989C9.65813 53.5063 9.42246 53.48 9.29516 53.48L7.27147 53.5179L7.27095 53.5174Z" fill="currentColor"></path>
<path d="M10.9138 84.385L10.5014 84.385C10.3946 83.3708 10.3183 83.2419 9.3104 83.2419L2.11889 83.2419C1.11099 83.2419 1.06523 83.3382 0.973695 84.3366L0.607044 84.3366C0.515513 83.4833 0.255648 82.437 0.0725859 81.8416L9.3104 81.8416C10.3183 81.8416 10.4098 81.7127 10.5014 80.6827L10.9138 80.6827L10.9138 84.385Z" fill="currentColor"></path>
<path d="M10.8407 3.71069L10.4282 3.71069C10.3215 2.69648 10.2452 2.56761 9.23728 2.56761L2.04577 2.56761C1.03787 2.56761 0.992107 2.66387 0.900575 3.6623L0.533924 3.6623C0.442393 2.80906 0.182528 1.76276 -0.000534169 1.16728L9.23728 1.16728C10.2452 1.16728 10.3367 1.0384 10.4282 0.00841143L10.8407 0.00841141L10.8407 3.71069Z" fill="currentColor"></path>
<path d="M7.45295 72.3838C9.94429 72.3838 11.1284 74.2618 11.1284 75.8994C11.1284 78.1629 9.4214 79.4633 7.72965 79.4633C5.19203 79.4633 4.02316 77.4086 4.02316 75.8836C4.02316 73.861 5.57656 72.3844 7.45295 72.3844L7.45295 72.3838ZM7.22255 77.8257C9.16049 77.8257 10.606 77.0067 10.606 75.7226C10.606 74.8078 9.96007 74.0214 7.82224 74.0214C5.9611 74.0214 4.54657 74.7437 4.54657 76.0761C4.54657 77.0072 5.46925 77.8257 7.22255 77.8257Z" fill="currentColor"></path>
<path d="M7.35617 13.6755C9.8475 13.6755 11.0316 15.5535 11.0316 17.191C11.0316 19.4546 9.32462 20.755 7.63287 20.755C5.09524 20.755 3.92638 18.7003 3.92638 17.1753C3.92638 15.1526 5.47978 13.676 7.35617 13.676L7.35617 13.6755ZM7.12576 19.1174C9.0637 19.1174 10.5093 18.2984 10.5093 17.0143C10.5093 16.0995 9.86328 15.3131 7.72545 15.3131C5.86431 15.3131 4.44979 16.0353 4.44979 17.3678C4.44979 18.2989 5.37247 19.1174 7.12576 19.1174Z" fill="currentColor"></path>
<path d="M7.33986 4.85009C9.83119 4.85009 11.0153 6.72807 11.0153 8.36563C11.0153 10.6292 9.3083 11.9296 7.61655 11.9296C5.07893 11.9296 3.91006 9.87484 3.91006 8.34985C3.91006 6.32722 5.46347 4.85062 7.33986 4.85062L7.33986 4.85009ZM7.10945 10.292C9.04739 10.292 10.493 9.47295 10.493 8.18888C10.493 7.2741 9.84697 6.48766 7.70914 6.48766C5.848 6.48766 4.43348 7.20992 4.43348 8.54238C4.43348 9.47348 5.35615 10.292 7.10945 10.292Z" fill="currentColor"></path>
<path d="M10.9169 62.1671L10.5056 62.1671C10.414 61.2665 10.3378 61.106 9.28674 61.106L6.72649 61.106C5.61391 61.106 5.02001 61.54 5.02001 62.4569C5.02001 62.9724 5.26357 63.5016 5.67441 64.0592C5.71965 64.1208 5.79382 64.1534 5.86852 64.1434C6.01581 64.1234 6.1752 64.1134 6.3914 64.1134L9.37827 64.1134C10.323 64.1134 10.4146 63.9688 10.5056 63.116L10.9169 63.116L10.9169 66.6058L10.5056 66.6058C10.414 65.6568 10.3378 65.5285 9.36249 65.5285L6.71124 65.5285C5.5834 65.5285 5.00476 65.9625 5.00476 66.8793C5.00476 67.4396 5.34248 67.9998 5.68703 68.4527C5.72701 68.5048 5.78803 68.5359 5.85326 68.5359L9.36301 68.5359C10.323 68.5359 10.4146 68.407 10.5061 67.6516L10.9175 67.6516L10.9175 71.125L10.5061 71.125C10.4146 70.0798 10.3383 69.9514 9.33303 69.9514L6.17888 69.9514C5.21886 69.9514 5.14258 69.9998 5.00581 70.9004L4.64021 70.9004C4.51817 70.1929 4.32038 69.3244 4.01527 68.5527L5.24937 68.5527C5.02054 68.215 4.76173 67.8772 4.48766 67.4112C4.22885 66.9772 4.06104 66.5911 4.06104 66.0766C4.06104 65.2886 4.53342 64.6132 5.31039 64.2912C4.9753 63.8251 4.70071 63.3743 4.45715 62.9887C4.2441 62.6347 4.06104 62.2165 4.06104 61.7667C4.06104 60.4801 4.91428 59.692 6.40771 59.692L9.34881 59.692C10.3546 59.692 10.4004 59.5958 10.5066 58.6789L10.918 58.6789L10.918 62.1686L10.9169 62.1671Z" fill="currentColor"></path>
<path d="M4.55026 21.4494C4.65757 22.2547 4.84116 22.3994 5.66757 22.7213C6.92218 23.2368 8.9264 23.9454 11.0074 24.6861L11.0074 25.169C9.38563 25.8129 7.90114 26.473 6.34038 27.1175C7.85538 27.7292 9.3546 28.3736 11.0074 29.0017L11.0074 29.5009C9.17153 30.0806 7.35038 30.7087 5.545 31.3689C4.7491 31.6425 4.64231 31.7876 4.55026 32.5441L4.13731 32.5441L4.13731 29.098L4.55026 29.098C4.68808 30.0643 4.79487 30.1285 5.45294 29.9191C6.58551 29.5488 7.76332 29.1622 8.91114 28.7761L8.91114 28.744C7.45769 28.148 5.92743 27.5683 4.21359 26.9081L4.21359 26.4573C5.77436 25.8613 7.35038 25.2011 8.95691 24.5409L8.95691 24.5088C7.96216 24.1706 6.58551 23.7197 5.545 23.4457C4.79539 23.2526 4.68808 23.3494 4.55026 24.3799L4.13731 24.3799L4.13731 21.4494L4.55026 21.4494Z" fill="currentColor"></path>
<path d="M6.97688 41.3337L6.97688 48.5458L8.10472 49.0565L8.10472 41.3337L8.10472 34.1217L6.97688 33.6109L6.97688 41.3337Z" fill="currentColor"></path>
</g>
<defs>
<clipPath id="clip0_136_1916">
<rect width="101" height="14.5792" fill="white" transform="translate(0 101) rotate(-90)"></rect>
</clipPath>
</defs>
</svg>