<svg aria-hidden="true" focusable="false" class="icon logo-account" fill="none" xmlns="http://www.w3.org/2000/svg" viewBox="0 0 1389.61 125.24">
  <path d="M977.68,119.98h-4.81c-1.27,0-2.31-1.03-2.31-2.31l-.06-109.82c0-1.32,1.07-2.39,2.39-2.39h4.62c1.86,0,3.37-1.51,3.37-3.37V.61h-40.3v.98c0,2.14,1.74,3.88,3.88,3.88h4.31c1.24,0,2.24,1,2.24,2.24V55.71h-47.12V7.78c0-1.28,1.04-2.31,2.31-2.31h4.74c1.86,0,3.37-1.51,3.37-3.37V.61h-40.3v.98c0,2.14,1.74,3.88,3.88,3.88h4.21c1.29,0,2.34,1.05,2.34,2.34V117.77c0,1.22-.99,2.2-2.2,2.2h-4.34c-2.14,0-3.88,1.74-3.88,3.88v.98h40.3v-1.49c0-1.86-1.51-3.37-3.37-3.37h-4.87c-1.2,0-2.18-.98-2.18-2.18V60.58h47.12l.06,57.17c0,1.23-1,2.23-2.23,2.23h-4.2c-2.14,0-3.88,1.74-3.88,3.88v.98h40.3v-1.49c0-1.86-1.51-3.37-3.37-3.37Z"></path>
  <path d="M219.39,65.61c-3.53-2.61-7.52-4.66-11.86-6.11-2.13-.71-4.25-1.29-6.35-1.73,1.81-.48,3.59-1.07,5.32-1.77,3.71-1.51,7.05-3.51,9.91-5.97,2.88-2.47,5.2-5.39,6.9-8.67,1.72-3.32,2.6-6.99,2.6-10.91,0-2.82-.59-6.01-1.76-9.46-1.19-3.51-3.41-6.82-6.59-9.82-3.15-2.98-7.51-5.51-12.96-7.55-6.47-2.4-15.07-3.3-25.72-2.96-1.68,.06-42.33-.07-42.33-.07-.02,0-.05,.02-.05,.04-.4,2.59,1.59,4.82,4.1,4.82h6.58c2.16,0,3.91,1.75,3.91,3.91V115.28c0,2.46-2,4.46-4.46,4.46h-6.29c-2.15,0-3.89,1.74-3.89,3.89v.98s40.98,.11,42.52,.17c1.54,.06,3.11,.09,4.7,.09,7.88,0,14.9-.9,20.85-2.68,5.99-1.78,11.03-4.28,14.99-7.42,3.98-3.16,7.01-6.99,9-11.39,1.98-4.37,2.99-9.25,2.99-14.49s-1.14-9.59-3.38-13.49c-2.22-3.86-5.16-7.15-8.72-9.78ZM170.52,5.8c1.19-.13,2.57-.22,4.12-.27,4.99-.13,9.83-.2,14.81,.74,2.79,.53,5.35,1.65,7.62,3.33,2.24,1.67,4.1,4.2,5.52,7.54,1.45,3.39,2.19,7.98,2.19,13.65,0,5.05-.5,9.26-1.47,12.51-.95,3.19-2.31,5.72-4.03,7.55-1.71,1.81-3.78,3.09-6.15,3.81-2.47,.75-5.25,1.13-8.28,1.13h-14.33V5.8Zm37.35,98.17c-1.07,3.95-2.76,7.17-5.04,9.54-2.26,2.36-5.2,4.04-8.74,4.99-3.66,.98-8.14,1.48-13.31,1.48-3,0-5.32-.08-6.9-.25-1.2-.12-2.32-.23-3.37-.33V60.66h17.38c7.21,0,12.48,2.38,16.1,7.29,3.66,4.95,5.52,11.88,5.52,20.6,0,6.17-.56,11.36-1.65,15.43Z"></path>
  <path d="M664.2,18.28c-5.45-5.55-11.73-9.98-18.67-13.14-13.53-6.17-28.21-6.55-42.45,0-6.88,3.16-13.16,7.58-18.66,13.13-5.49,5.55-10.05,12.18-13.53,19.71-3.51,7.57-5.29,15.92-5.29,24.8,0,7.99,1.46,15.84,4.35,23.34,2.89,7.5,6.97,14.2,12.13,19.91,5.17,5.73,11.39,10.38,18.51,13.82,7.14,3.46,15,5.21,23.35,5.21s15.86-1.81,22.95-5.38c7.04-3.55,13.27-8.28,18.49-14.06,5.22-5.77,9.38-12.46,12.37-19.89,3-7.44,4.52-15.16,4.52-22.94,0-8.87-1.66-17.21-4.94-24.78-3.28-7.54-7.69-14.18-13.13-19.74Zm-5.17,70.08c-1.28,7.15-3.44,13.19-6.4,17.96-2.93,4.71-6.77,8.26-11.41,10.56-4.68,2.31-10.49,3.49-17.28,3.49s-12.74-1.17-17.36-3.48c-4.59-2.29-8.4-5.84-11.33-10.56-2.97-4.77-5.12-10.82-6.4-17.96-1.29-7.21-1.95-15.81-1.95-25.56,0-7.46,.49-14.78,1.47-21.75,.96-6.89,2.82-13.12,5.54-18.5,2.69-5.32,6.47-9.61,11.25-12.75,4.76-3.14,11.08-4.73,18.79-4.73s14.03,1.59,18.79,4.73c4.78,3.15,8.56,7.44,11.24,12.75,2.72,5.39,4.59,11.61,5.55,18.5,.97,6.97,1.47,14.28,1.47,21.75,0,9.72-.66,18.32-1.95,25.56Z"></path>
  <path d="M1094.94,18.28c-5.45-5.55-11.73-9.98-18.67-13.14-13.53-6.17-28.21-6.55-42.45,0-6.88,3.16-13.16,7.58-18.66,13.13-5.49,5.55-10.05,12.18-13.53,19.71-3.51,7.57-5.29,15.92-5.29,24.8,0,7.99,1.46,15.84,4.35,23.34,2.89,7.5,6.97,14.2,12.13,19.91,5.17,5.73,11.39,10.38,18.51,13.82,7.14,3.46,15,5.21,23.35,5.21s15.86-1.81,22.95-5.38c7.04-3.55,13.27-8.28,18.49-14.06,5.22-5.77,9.38-12.46,12.37-19.89,3-7.44,4.52-15.16,4.52-22.94,0-8.87-1.66-17.21-4.94-24.78-3.28-7.54-7.69-14.18-13.13-19.74Zm-5.17,70.08c-1.28,7.15-3.44,13.19-6.4,17.96-2.93,4.71-6.77,8.26-11.41,10.56-4.68,2.31-10.49,3.49-17.28,3.49s-12.74-1.17-17.36-3.48c-4.59-2.29-8.4-5.84-11.33-10.56-2.97-4.77-5.12-10.82-6.4-17.96-1.29-7.21-1.95-15.81-1.95-25.56,0-7.46,.49-14.78,1.47-21.75,.96-6.89,2.82-13.12,5.54-18.5,2.69-5.32,6.47-9.61,11.25-12.75,4.76-3.14,11.08-4.73,18.79-4.73s14.03,1.59,18.79,4.73c4.78,3.15,8.56,7.44,11.24,12.75,2.72,5.39,4.59,11.61,5.55,18.5,.97,6.97,1.47,14.28,1.47,21.75,0,9.72-.66,18.32-1.95,25.56Z"></path>
  <path d="M1363.29,118.46h-50.88V60.64h48.28v-4.87h-48.28l.07-48.8h50.86c3.52,0,6.37-2.85,6.37-6.37h-91.28v.98c0,2.14,1.74,3.88,3.88,3.88h8.19c1.41,0,2.55,1.14,2.55,2.55l-.07,109.01c0,1.63-1.32,2.96-2.96,2.96h-7.79c-2.14,0-3.88,1.74-3.88,3.88v.98l91.3-.02h0c0-3.51-2.85-6.36-6.36-6.36Z"></path>
  <path d="M330.02,65.61c-3.53-2.61-7.52-4.66-11.86-6.11-2.13-.71-4.25-1.29-6.35-1.73,1.81-.48,3.59-1.07,5.32-1.77,3.71-1.51,7.05-3.51,9.91-5.97,2.88-2.47,5.2-5.39,6.9-8.67,1.72-3.32,2.6-6.99,2.6-10.91,0-2.82-.59-6.01-1.76-9.46-1.19-3.51-3.41-6.82-6.59-9.82-3.15-2.98-7.51-5.51-12.96-7.55-6.47-2.4-15.07-3.3-25.72-2.96-1.68,.06-42.33-.07-42.33-.07-.02,0-.05,.02-.05,.04-.4,2.59,1.59,4.82,4.1,4.82h6.58c2.16,0,3.91,1.75,3.91,3.91V115.28c0,2.46-2,4.46-4.46,4.46h-6.29c-2.15,0-3.89,1.74-3.89,3.89v.98s40.98,.11,42.52,.17c1.54,.06,3.11,.09,4.7,.09,7.88,0,14.9-.9,20.85-2.68,5.99-1.78,11.03-4.28,14.99-7.42,3.98-3.16,7.01-6.99,9-11.39,1.98-4.37,2.99-9.25,2.99-14.49s-1.14-9.59-3.38-13.49c-2.22-3.86-5.16-7.15-8.72-9.78ZM281.16,5.8c1.19-.13,2.57-.22,4.12-.27,4.99-.13,9.83-.2,14.81,.74,2.79,.53,5.35,1.65,7.62,3.33,2.24,1.67,4.1,4.2,5.52,7.54,1.45,3.39,2.19,7.98,2.19,13.65,0,5.05-.5,9.26-1.47,12.51-.95,3.19-2.31,5.72-4.03,7.55-1.71,1.81-3.78,3.09-6.15,3.81-2.47,.75-5.25,1.13-8.28,1.13h-14.33V5.8Zm37.35,98.17c-1.07,3.95-2.76,7.17-5.04,9.54-2.26,2.36-5.2,4.04-8.74,4.99-3.66,.98-8.14,1.48-13.31,1.48-3,0-5.32-.08-6.9-.25-1.2-.12-2.32-.23-3.37-.33V60.66h17.38c7.21,0,12.48,2.38,16.1,7.29,3.66,4.95,5.52,11.88,5.52,20.6,0,6.17-.56,11.36-1.65,15.43Z"></path>
  <g>
      <path d="M1382.11,0V.83h-2.34V6.94h-.95V.83h-2.34V0h5.62Z"></path>
      <path d="M1382.95,0h1.35l1.99,5.86,1.98-5.86h1.34V6.94h-.9V2.84c0-.14,0-.38,0-.7,0-.33,0-.68,0-1.05l-1.98,5.85h-.93l-2-5.85v.21c0,.17,0,.43,.01,.78,.01,.35,.01,.6,.01,.77V6.94h-.9V0Z"></path>
  </g>
  <path d="M423.87,.61v.98c0,2.14,1.74,3.88,3.88,3.88h3.37c1.2,0,1.98,1.27,1.43,2.34l-27.04,52.92L372.38,.61h-23.51v.98c0,2.14,1.74,3.88,3.88,3.88h4.1c1.47,0,2.83,.79,3.55,2.07l34.54,61.32v48.63c0,1.37-1.11,2.49-2.49,2.49h-8.26c-2.14,0-3.88,1.74-3.88,3.88v.98h48.68v-1.49c0-1.86-1.51-3.37-3.37-3.37h-8.73c-1.4,0-2.53-1.13-2.53-2.53v-47.98L446.4,7.85c.77-1.46,2.28-2.38,3.93-2.38h4.38c1.86,0,3.37-1.51,3.37-3.37V.61h-34.22Z"></path>
  <path d="M1249.39,5.47h4.04c1.86,0,3.37-1.51,3.37-3.37V.62h-29.85l-33.74,97.91-.02-.04L1159.37,.61l-29.84,.02v.98c0,2.14,1.74,3.88,3.88,3.88h3.69c1.58,0,2.87,1.28,2.87,2.87l-.08,108.59c0,1.68-1.37,3.05-3.05,3.05h-3.5c-2.14,0-3.88,1.74-3.88,3.88v.98h40.25v-1.49c0-1.86-1.51-3.37-3.37-3.37h-7.02l.08-81.66,29.92,86.51h7.77l29.92-86.43,.05,81.55h-6.56c-2.14,0-3.88,1.74-3.88,3.88v.98h40.32v-1.49c0-1.86-1.51-3.37-3.37-3.37h-3.83c-1.79,0-3.24-1.45-3.24-3.24l-.12-108.21c0-1.68,1.36-3.04,3.04-3.04Z"></path>
  <path d="M808.15,5.46c1.86,0,3.37-1.51,3.37-3.37V.61h-33.1v.98c0,2.14,1.74,3.88,3.88,3.88h4.16c1.3,0,2.36,1.06,2.36,2.36V87.08L725.54,.65h0v-.04h-27.21v.97c0,2.14,1.73,3.87,3.86,3.88l4.16,.02c1.32,0,2.38,1.07,2.38,2.39V117.67c0,1.28-1.04,2.32-2.32,2.32h-4.2c-2.14,0-3.88,1.74-3.88,3.88v.98h33.1v-1.49c0-1.86-1.51-3.37-3.37-3.37h-4.82c-1.24,0-2.25-1.01-2.25-2.25V27.49l67.85,92.42v.08h-6.52c-2.14,0-3.88,1.74-3.88,3.88v.98h33.1v-1.49c0-1.86-1.51-3.37-3.37-3.37h-4.9c-1.2,0-2.18-.98-2.18-2.18V7.94c0-1.37,1.11-2.48,2.48-2.48h4.6Z"></path>
  <path d="M122.39,119.98h-3.97c-1.85,0-3.5-1.15-4.13-2.88L73.5,.61h-19.93L13.15,117.06c-.61,1.75-2.26,2.93-4.11,2.93H3.88c-2.14,0-3.88,1.74-3.88,3.88v.98H33.79v-1.49c0-1.86-1.51-3.37-3.37-3.37h-2.26c-1.53,0-2.61-1.51-2.1-2.96l14.63-41.98h38.76l14.6,41.9c.52,1.49-.59,3.05-2.16,3.05h-3.35c-2.14,0-3.88,1.74-3.88,3.88v.98h41.11v-1.49c0-1.86-1.51-3.37-3.37-3.37ZM42.38,70.17L60.06,19.43l17.68,50.74H42.38Z"></path>
  <path d="M536.7,60.86c-6.57-4.86-19.57-8.01-36.41-13.28-17.03-4.94-20.11-11.02-22.11-16.12-1.71-5.04-.25-11.59,1.84-15.41,7.23-11.53,23.06-11.34,28.07-10.77,14.67,2.09,20.81,18.02,20.81,18.02h6.99V.21h-1.17c-2.04,0-3.69,1.65-3.69,3.69v2.6c0,1.59-1.8,2.49-3.09,1.56-3.72-2.69-10.58-6.68-19.29-7.47-22.81-1.72-31.92,8.79-36.41,15.04-7.13,10.46-8.32,26.12-1.37,36.29,6.95,10.17,23.95,14.83,36.17,18.03,12.79,3.04,18.96,7.08,23.71,13.51,4.76,6.44,4.57,20.19-2.39,27.95-8.31,9.05-17.87,9.32-31.31,8.44-20.91-1.89-26.8-23.77-26.8-23.77h-6.83v25.75h1.17c2.04,0,3.69-1.65,3.69-3.69v-4.55c0-1.31,1.61-1.9,2.49-.92,13.03,14.53,31.25,12.98,41.35,11.95,24.38-3.46,32.37-17.66,36.03-31.07,3.72-19.88-4.9-27.83-11.47-32.69Z"></path>
</svg>