<svg alt="Graf Lantz Logo" class="logo" id="glLogoSVG" data-name="Layer 1" xmlns="http://www.w3.org/2000/svg" viewBox="0 0 216 40">
  <path class="cls-1" d="M277.73,363.78h-2.14c-3.14,0-3.69,2.52-3.65,5v2h4.53V374h-4.53v16.35h-3.85V374h-3.78v-3.23h3.78v-2c0-5.15,2.22-8.68,7.5-8.68h2.14Z" transform="translate(-189.13 -360.13)" style="fill: white;"></path>
  <path class="cls-1" d="M306.13,360.13v30.23h-3.82V360.13Z" transform="translate(-189.13 -360.13)" style="fill: white;"></path>
  <path class="cls-1" d="M381.61,370.78V374h-4.15v16.35h-3.81V374h-3.53v-3.23h3.53V363.4h3.81v7.38Z" transform="translate(-189.13 -360.13)" style="fill: white;"></path>
  <path class="cls-1" d="M206.1,370.78v2.34a10.14,10.14,0,1,0,0,14.93c-.12,6.19-2.81,8.48-7,8.48a6.5,6.5,0,0,1-5.66-3.36c-.5.26-2.68,1.47-3.18,1.68a9.93,9.93,0,0,0,8.84,5.28c6.46,0,10.69-3.52,10.69-12.74V370.78Zm-6.83,16.4a6.58,6.58,0,1,1,6.57-6.58A6.58,6.58,0,0,1,199.27,387.18Z" transform="translate(-189.13 -360.13)" style="fill: white;"></path>
  <path class="cls-1" d="M253.41,371v2.18a10.14,10.14,0,1,0,0,14.93v2.15H257V371Zm-6.85,16.22a6.58,6.58,0,1,1,6.57-6.58A6.58,6.58,0,0,1,246.56,387.18Z" transform="translate(-189.13 -360.13)" style="fill: white;"></path>
  <path class="cls-1" d="M331.1,371v2.18a10.14,10.14,0,1,0,0,14.93v2.15h3.56V371Zm-6.86,16.22a6.58,6.58,0,1,1,6.58-6.58A6.58,6.58,0,0,1,324.24,387.18Z" transform="translate(-189.13 -360.13)" style="fill: white;"></path>
  <path class="cls-1" d="M222.64,373.52V371h-3.57v19.26h3.57v-9.36h0c0-.29.55-6.87,9-6.87v-3.57C227.34,370.43,224.5,371.79,222.64,373.52Z" transform="translate(-189.13 -360.13)" style="fill: white;"></path>
  <path class="cls-1" d="M361.34,382.19a12.71,12.71,0,0,0-2.69-8.34,8,8,0,0,0-6.25-2.79,9.65,9.65,0,0,0-6.2,2.48V371h-3.56v10.75c0,.1,0,.2,0,.3h0v8.21h3.56v-8.59c.1-3.39,2.45-7,6.25-7,3.21,0,5.26,2.88,5.33,7.62.08,6,0,8,0,8.06l3.56.15C361.35,390.37,361.43,388.36,361.34,382.19Z" transform="translate(-189.13 -360.13)" style="fill: white;"></path>
  <polygon class="cls-1" points="216 10.73 199.5 10.73 199.5 13.96 211.59 13.96 199.51 26.98 199.5 26.98 199.5 30.21 216 30.21 216 26.98 203.92 26.98 215.99 13.97 215.99 13.96 216 13.96 216 10.73" style="fill: white;"></polygon>
</svg>