<svg id="pride-logo" class="header__heading-logo motion-reduce" xmlns="http://www.w3.org/2000/svg" viewBox="0 0 218.1 39.3" aria-labelledby="wildone-logo" role="image" style="width:140px;height:25px;"><title id="wildone-logo">Wild One</title><polygon points="42.2 2.8 33.6 26.1 25.4 2.8 22 2.8 13.8 26.1 5.2 2.8 0 2.8 13.7 39.3 23.6 12.2 33.5 39.3 47.2 2.8 "></polygon><rect x="53.1" y="14.5" width="4.7" height="23.3"></rect><rect x="67.6" width="4.7" height="37.8"></rect><path d="M98.2 22v8.2c-0.3 0.5-2.4 3.7-6.4 3.7 -4.3 0-7.2-3.2-7.2-7.8 0-4.5 3-7.8 7.2-7.8C95.8 18.3 97.9 21.5 98.2 22M98.2 16.8c-1-1-3.2-2.9-7-2.9 -6.3 0-11.3 5.4-11.3 12.3 0 6.9 5 12.3 11.3 12.3 4.1 0 6.4-2.1 7.4-3.3V37.8h4.4V0h-4.7V16.8z"></path><path d="M144.2 33.9c-7.7 0-12.3-6.9-12.3-13.6 0-6.7 4.6-13.6 12.3-13.6 7.7 0 12.3 6.9 12.3 13.6C156.6 27 152 33.9 144.2 33.9M144.2 2.2c-9.9 0-17.3 7.8-17.3 18.1 0 10.3 7.4 18.1 17.3 18.1 9.9 0 17.3-7.8 17.3-18.1C161.6 10 154.1 2.2 144.2 2.2"></path><path d="M179.6 13.9c-3.6 0-5.8 2-6.7 3.2v-2.6h-4.4v23.3h4.7V21.9c0.3-0.5 2.1-3.6 5.4-3.6 3.3 0 5.2 1.9 5.2 5.3v14.2h4.7V22.9C188.5 16.7 183.9 13.9 179.6 13.9"></path><path d="M206.7 18.3c4.2 0 6.4 3.2 6.7 5.6h-13.6C200.2 21.8 202.1 18.3 206.7 18.3M206.7 13.9c-6.8 0-11.7 5.2-11.7 12.3 0 7 5.2 12.3 12.2 12.3 6.1 0 9.5-4.4 9.7-4.6l0.2-0.2 -3-3.1 -0.2 0.3c0 0-2.3 3.2-6.6 3.2 -3.8 0-7.1-2.7-7.5-6.1h18.3l0-0.3c0.1-0.6 0.1-0.9 0.1-1.4C218.1 19 213.4 13.9 206.7 13.9"></path><path d="M55.4 4.4c-1.7 0-3.1 1.4-3.1 3.1 0 1.7 1.4 3.1 3.1 3.1s3.1-1.4 3.1-3.1C58.5 5.8 57.1 4.4 55.4 4.4"></path></svg>