<svg class="header__logo" fill="none" xmlns="http://www.w3.org/2000/svg" viewBox="0 0 163 48"><path d="M44.982 38.5a3.588 3.588 0 0 1-3.574-3.574v-4.684h3.675v5.188h4.33v-6.797l-7.3-12.687a5.048 5.048 0 0 1-.705-2.366V8.293a3.587 3.587 0 0 1 3.574-3.574h4.531a3.555 3.555 0 0 1 3.577 3.574v4.683h-3.676V7.788h-4.33v6.142l7.35 12.689c.704 1.209.654 2.318.654 2.318v5.99a3.555 3.555 0 0 1-3.575 3.574h-4.53ZM65.826 38.199V16.5h-5.388v21.698h-3.574V13.328h3.574v1.661c.504-.856 1.41-1.661 3.072-1.661h2.366a3.587 3.587 0 0 1 3.575 3.574V38.2h-3.625ZM76.801 38.199a3.587 3.587 0 0 1-3.575-3.575v-7.048A3.587 3.587 0 0 1 76.801 24h2.318c1.41 0 2.318.552 2.82 1.259V16.5h-5.133v4.38h-3.575v-3.978a3.587 3.587 0 0 1 3.575-3.574h5.185a3.587 3.587 0 0 1 3.575 3.574V38.2h-8.765Zm5.132-11.076h-5.085v7.954h5.085v-7.954ZM89.589 45.7V13.328h8.76c1.963 0 3.574 1.611 3.574 3.625v17.67a3.589 3.589 0 0 1-3.574 3.576h-2.115c-1.661 0-2.567-.756-3.02-1.611V45.7h-3.625Zm8.76-29.2h-5.133v18.577h5.133V16.501ZM105.849 38.199V5.022h8.306a3.586 3.586 0 0 1 3.575 3.574v15.456a3.584 3.584 0 0 1-3.575 3.574h-4.631v10.573h-3.675Zm8.205-30.057h-4.53v16.262h4.53V8.142ZM124.833 38.199a3.589 3.589 0 0 1-3.574-3.575v-7.048A3.588 3.588 0 0 1 124.833 24h2.318c1.409 0 2.318.552 2.819 1.259V16.5h-5.137v4.38h-3.574v-3.978a3.584 3.584 0 0 1 3.574-3.574h5.188a3.584 3.584 0 0 1 3.574 3.574V38.2h-8.762Zm5.132-11.076h-5.085v7.954h5.085v-7.954ZM146.025 4.801v9.484c-.503-.552-1.309-.957-2.518-.957h-2.615a3.584 3.584 0 0 0-3.574 3.574v17.722a3.589 3.589 0 0 0 3.574 3.575h8.761V4.8h-3.628Zm0 30.276h-5.085V16.501h5.085v18.576Z" fill="#292929"></path><path class="logo--animated__wheel" d="M33.837 21.664c0 6.658-5.417 12.075-12.075 12.075-6.657 0-12.074-5.417-12.074-12.075 0-6.658 5.417-12.074 12.074-12.074 6.658 0 12.075 5.417 12.075 12.074Zm4.407 6.774-9.617 9.67-13.639.038-9.67-9.618-.037-13.638 9.62-9.67 13.637-.037 9.668 9.618.038 13.637Zm-3.351-6.774c0-7.24-5.89-13.13-13.13-13.13-7.24 0-13.13 5.89-13.13 13.13 0 7.24 5.89 13.13 13.13 13.13 7.24 0 13.13-5.89 13.13-13.13Zm-9.147 0a3.983 3.983 0 1 0-7.966.001 3.983 3.983 0 0 0 7.966 0Z" fill="#292929"></path><path d="M157.308 7.39c0 1.556-1.222 2.778-2.811 2.778-1.574 0-2.829-1.222-2.829-2.778 0-1.524 1.255-2.745 2.829-2.745 1.589 0 2.811 1.221 2.811 2.745Zm-4.938 0c0 1.221.904 2.193 2.143 2.193 1.205 0 2.092-.972 2.092-2.177 0-1.222-.887-2.207-2.108-2.207-1.222 0-2.126.985-2.126 2.19h-.001Zm1.691 1.44h-.636V6.084A5.56 5.56 0 0 1 154.479 6c.519 0 .754.084.955.201a.755.755 0 0 1 .267.603c0 .301-.234.535-.569.636v.033c.268.1.419.302.503.67.083.418.134.586.2.686h-.686c-.083-.1-.134-.351-.218-.67-.05-.3-.217-.434-.569-.434h-.301V8.83Zm.017-1.557h.301c.352 0 .636-.117.636-.402 0-.25-.184-.418-.586-.418a1.538 1.538 0 0 0-.351.033v.787Z" fill="#292929"></path></svg>