<svg class="c-main-menu__logo-icon" fill="none" xmlns="http://www.w3.org/2000/svg" viewBox="0 0 146 36"><path d="M92.129 1.6h-6.375L73.606 34.85h4.988l3.05-8.788H95.87l3.003 8.789h5.174L92.129 1.599ZM83.166 21.69l3.143-9.025c.867-2.418 1.326-4.23 1.48-6.788.032-.538.47-.955.993-.955h.025c.526 0 .967.424.992.962.133 2.547.624 4.323 1.448 6.78l3.093 9.026H83.163h.003ZM71.873 34.85 56.63 15.328 69.562 1.599h-6.235L49.053 17.276a.98.98 0 0 1-1.419.037l-.014-.015a1.039 1.039 0 0 1-.115-1.33c1.014-1.448 1.598-3.18 1.598-6.534V1.599h-4.619v33.252h4.62V23.213l4.34-4.514L65.82 34.85h6.052ZM144.338 1.6h-4.619v33.25h4.619V1.6ZM5.885 1.6h-4.62v33.25h4.62V1.6ZM40.97 34.85 25.728 15.328 38.66 1.599h-6.236L18.147 17.276a.976.976 0 0 1-1.415.037l-.014-.015a1.039 1.039 0 0 1-.115-1.33c1.014-1.448 1.598-3.18 1.598-6.534V1.599h-4.619v33.252h4.62V23.213l4.339-4.514L34.918 34.85h6.053ZM119.43 21.066c4.343 0 6.465 1.566 7.206 5.796l1.294 7.935h5.035l-1.616-8.362c-.817-4.16-2.398-5.97-6.379-6.272-.516-.04-.917-.487-.917-1.021v-.085c0-.523.383-.954.885-1.013 3.673-.431 7.429-2.245 7.429-7.474 0-5.23-3.742-9.025-10.443-9.025h-13.811v33.252h4.619V5.912h8.501c3.601 0 6.281 1.662 6.281 5.417s-2.68 5.462-6.281 5.462h-1.799v4.275h-.004Z" fill="#FBF0D4"></path></svg>