<svg class="logo" width="110" height="12" viewBox="0 0 110 12" fill="none" xmlns="http://www.w3.org/2000/svg">
  <title>Faithfull the Brand</title>
  <path d="M0 11.6956V0H9.24239V1.3788H1.5586V4.96038H6.28734V6.33919H1.5586V11.6945H0V11.6956Z" fill="currentColor" style="fill-opacity:1;"></path>
  <path d="M9.93842 11.6956L15.3654 0H16.8335L22.2605 11.6956H20.5585L18.9646 8.18458H13.1262L11.55 11.6956H9.93842ZM13.6821 6.93042H18.4109L16.1 1.82554H15.993L13.6821 6.93042Z" fill="currentColor" style="fill-opacity:1;"></path>
  <path d="M25.8939 11.6956V0H27.4525V11.6956H25.8939Z" fill="currentColor" style="fill-opacity:1;"></path>
  <path d="M31.0694 0H41.7082V1.3788H37.177V11.6956H35.6184V1.3788H31.0694V0Z" fill="currentColor" style="fill-opacity:1;"></path>
  <path d="M45.3229 11.6956V0H46.8815V4.65705H54.0634V0H55.6033V11.6956H54.0634V6.03585H46.8815V11.6956H45.3229Z" fill="currentColor" style="fill-opacity:1;"></path>
  <path d="M60.8494 11.6956V0H70.0917V1.3788H62.408V4.96038H67.1367V6.33919H62.408V11.6945H60.8494V11.6956Z" fill="currentColor" style="fill-opacity:1;"></path>
  <path d="M83.5577 0V7.5404C83.5577 10.3885 81.3549 12 78.3999 12C75.4448 12 73.2773 10.3885 73.2773 7.5404V0H74.8183V7.5404C74.8183 9.52808 76.3934 10.6201 78.3999 10.6201C80.4063 10.6201 81.9991 9.52808 81.9991 7.5404V0H83.5577Z" fill="currentColor" style="fill-opacity:1;"></path>
  <path d="M90.1098 0V10.3168H97.4891V11.6956H88.5523V0H90.1098Z" fill="currentColor" style="fill-opacity:1;"></path>
  <path d="M102.485 0V10.3168H109.863V11.6956H100.926V0H102.485Z" fill="currentColor" style="fill-opacity:1;"></path>
</svg>