<svg aria-hidden="true" focusable="false" role="presentation" class="header-logo" fill="none" viewBox="0 0 130 62" xmlns="http://www.w3.org/2000/svg">
  <path d="M92.6,55.4L92.6,55.4c0.2-0.1,0.4-0.1,0.6-0.2c1.3-0.5,2-1.3,2.1-2.5c0,0,0,0,0,0c0-0.1,0-0.2,0-0.3c0-1.9-1.3-3.2-3.3-3.2
	h-7.7v2.5h1.2v7.5h-1.2v2.5h5.5v-2.5h-1v-2.8h1l1.7,2.8h-0.6v2.5h5v-2.5h-1L92.6,55.4z M90.1,54.3h-1.3v-2.6h1.3
	c1.2,0,1.7,0.4,1.7,1.3C91.8,53.9,91.2,54.3,90.1,54.3L90.1,54.3z" fill="currentColor"></path>
  <path d="M79.8,55.1c1.6-0.4,2.3-1.3,2.3-2.6c0-2.1-1.4-3.3-4.1-3.3h-6.2v2.5h1.3v7.5h-1.3v2.5h6.7c2.6,0,4-1.3,4-3.5
    C82.6,56.5,81.7,55.5,79.8,55.1z M76.4,51.7h1c1,0,1.5,0.4,1.5,1.2c0,0.8-0.5,1.2-1.5,1.2h-1V51.7z M77.4,59.2h-1v-3h1
    c1.2,0,1.8,0.5,1.8,1.5C79.2,58.7,78.6,59.2,77.4,59.2z" fill="currentColor"></path>
  <path d="M107.9,50.5c-1.2-1-2.7-1.6-4.4-1.6c-1.8,0-3.2,0.5-4.4,1.6c-0.7,0.6-1.3,1.4-1.7,2.2c-0.4,0.8-0.6,1.8-0.6,2.7
    c0,0.9,0.2,1.9,0.6,2.7c0.4,0.8,1,1.6,1.7,2.2c1.2,1,2.7,1.6,4.4,1.6c1.7,0,3.2-0.5,4.4-1.6c0.7-0.6,1.3-1.4,1.7-2.2
    c0.4-0.8,0.6-1.8,0.6-2.7c0-0.9-0.2-1.8-0.6-2.7S108.6,51.1,107.9,50.5z M103.5,58.9c-1.8,0-3.2-1.4-3.2-3.5c0-2,1.4-3.5,3.2-3.5
    s3.2,1.4,3.2,3.5S105.3,58.9,103.5,58.9z" fill="currentColor"></path>
  <path d="M118.1,53.8l-1.1-0.2c-1.2-0.2-1.7-0.6-1.7-1.2c0-0.6,0.6-1.1,1.3-1.1c0.9,0,1.6,0.6,2.3,1.8h2.7v-3.9h-2.7l0.1,1.1
    c-0.7-0.9-1.7-1.4-2.9-1.4c-2.4,0-4.2,1.7-4.2,4c0,2.2,1.4,3.4,4.3,3.9l1.3,0.2c1,0.2,1.5,0.6,1.5,1.2c0,0.6-0.5,1.1-1.4,1.1
    c-1.1,0-1.9-0.6-2.8-1.9h-2.9v4.2h2.7l-0.1-1.3c0.9,1,2.1,1.5,3.6,1.5c2.6,0,4.3-1.7,4.3-4.1C122.4,55.6,121,54.4,118.1,53.8z" fill="currentColor"></path>
  <path d="M111.6,3.3L94,8.3v3l17.6-6.9V3.3z" fill="currentColor"></path>
  <path d="M53.8,29.3c-1.9-1.6-4.2-2.2-6.9-1.7c-1.7,0.3-3.3,1-4.6,2v0v0c-1.1,0.8-2.1,1.7-2.9,2.8c-2.1,2.6-3.1,5.4-3.1,8.4
    c0,2.8,0.9,5,2.8,6.6c1.9,1.6,4.2,2.2,6.9,1.7c2.9-0.6,5.5-2.1,7.5-4.7c2.1-2.6,3.1-5.4,3.1-8.4C56.6,33.2,55.7,31,53.8,29.3z
    M48.9,43.5c-1.8,1.1-4.4-0.4-5.6-3.3c-1.3-2.9-0.9-6.1,1-7.2c1.8-1.1,4.4,0.4,5.6,3.3C51.2,39.2,50.8,42.4,48.9,43.5z" fill="currentColor"></path>
  <path d="M39.2,28.6l29.1-10.4v3l15.3-6v-4.1l-10.9,3.1l0.7-4.2l-27.3,10l0.7-4.5l-12.2,5V6.3l-7.1,2.3v15L21,26.3V5l-9.4,2.7v3.9
    l2.3-0.7v18.2L0.4,34.8v1.4l13.5-3.7V55c6.2-2,7.1-6.5,7.1-9.4v-15l6.5-1.8V30v22.3c6.2-2,7.1-6.5,7.1-7.3V26.8l4.7-1.3L39.2,28.6z" fill="currentColor"></path>
  <path d="M114.5,29.3v6.3c6.2-2,7.1-6.5,7.1-9.3V10.9c-6.2,2-7.1,6.5-7.1,9.3v3.6c-0.5,1.3-1.2,2.5-2,3.7c-0.1,0.1-0.1,0.1-0.2,0.2
    c-0.2,0.3-0.5,0.6-0.8,0.9c0,0-0.1,0.1-0.1,0.1c-2.6,2.7-5.8,3.6-8,1.7c5.8-3.4,8.8-6.7,8.8-9.8c0-1.8-0.9-3.1-2.8-4
    c-1.7-0.8-3.5-1-5.3-0.6c-2.8,0.5-5.2,2-7.2,4.4c-2,2.4-3,5.1-3,7.9c0,2.9,1,5.2,2.9,7c1.9,1.7,4.3,2.3,7.2,1.8
    c2.7-0.5,5.2-1.8,7.5-3.9C112.5,32.1,113.6,30.7,114.5,29.3z M102.2,28.1c-1,0-1.6-1.7-1.3-3.9c0.3-2.2,1.4-4.1,2.4-4.1
    c1,0,1.6,1.7,1.3,3.9C104.4,26.2,103.3,28.1,102.2,28.1L102.2,28.1z" fill="currentColor"></path>
  <path d="M125.7,10.1c-2.5,0.5-3.5,3.1-3.2,5.3c0.2,2,1.5,3.6,3.6,3.2c2.1-0.4,3.3-2.7,3.3-4.8C129.3,11.5,127.9,9.6,125.7,10.1z" fill="currentColor"></path>
  <path d="M74.6,43.7c4.5-0.8,6.8-4.4,6.8-10.8c0.4-0.1,0.7-0.1,1-0.2c1-0.2,1.9-0.6,2.8-1.2v9.9c6.2-2,7.1-6.5,7.1-9.4V0.1l-9.4,2.7
    v3.9l2.3-0.7v22.7c-0.5,0.7-1,1.1-1.6,1.2c-1.5,0.3-2.3-0.5-2.3-2.4c0-0.2,0-0.6,0-1.2v-1.2c0-1.6-0.6-2.2-1.7-2
    c-0.9,0.2-1.7,0.7-2.2,1.6c-0.5,0.9-0.8,1.9-0.8,2.9c0,2.2,0.7,3.6,2,4.5v1.2c0,2-0.7,3.1-2,3.3C75.6,36.8,75,35.9,75,34V23.1
    l-6.7,2.3v4.3v5.7c0,1.9-0.6,2.9-1.7,3.1c-1.2,0.2-1.9-0.6-1.9-2.6v-3V22.4l-9.4,2.7v3.9l2.7-0.8V30c0,0,0,0,0,0l0,9.3
    c0,1.9,0.4,3.4,1.2,4.7c1,1.5,2.3,2.1,4.1,1.8c2.8-0.5,4.8-2.3,5.8-5.3C70,43.1,71.9,44.2,74.6,43.7z" fill="currentColor"></path>
</svg>