<svg xmlns="http://www.w3.org/2000/svg" class="bigfudgelogo-new" viewBox="0 0 432 302" xmlns:v="https://vecta.io/nano"><path d="M153.3 5.1h117.2c2.4 0 4.8.1 7.1.7 6.6 1.7 12 5.2 16.1 10.7 2.2 2.9 3.7 6.2 4.6 9.8.1.3.2.5.2.8.2.7.7 1 1.4 1 3.7.1 7.4 0 11 .3 3.2.2 6.3.7 9.4 1.1 1.7.2 3.4.6 5.2.9 4.9.8 9.6 2.2 14.3 3.7 5.3 1.7 10.5 3.8 15.5 6.2 7.5 3.6 14.5 8 21.1 13 11.7 8.9 21.4 19.6 29.3 32a120.01 120.01 0 0 1 7.9 14.5c1.6 3.6 3.2 7.2 4.4 11 .9 2.9 2 5.8 2.8 8.8 1.4 5.6 2.5 11.2 3.2 16.9 1 7.8 1 15.7.5 23.6a108.62 108.62 0 0 1-1.8 13.8c-.6 2.7-1.1 5.5-1.8 8.2-.4 1.9-1 3.7-1.6 5.6-1.4 3.9-2.6 7.7-4.3 11.5a152.71 152.71 0 0 1-5.6 11.5c-2.7 5.1-6 9.9-9.5 14.5-4.5 5.8-9.4 11.2-14.8 16.2-5.8 5.3-12 10.1-18.8 14.2-5.4 3.3-11 6.3-16.9 8.7-3.7 1.5-7.4 2.9-11.2 4.1-3.3 1.1-6.7 1.8-10.1 2.6-3.5.8-7.1 1.5-10.7 1.9-4.5.5-9 .7-13.5.9-1.3.1-2.6 0-3.9 0-1 0-1.2.1-1.5 1.1s-.6 2-1 3c-2.5 7.3-7.3 12.5-14.2 16-2.4 1.2-4.8 2.1-7.4 2.4-.6.1-1.1.4-1.7.6-.4.1-.8.3-1.2.3-.6.1-1.2 0-1.8 0H35.3c-1.2 0-2.4.1-3.4-.6-.3-.2-.9-.2-1.3-.3-6.8-1.2-12.3-4.6-16.7-9.8-2.7-3.2-4.6-6.9-5.5-11-.7-2.9-1.2-5.7-1.2-8.7V35.7c0-6.1 1.3-11.9 4.6-17.1 2.5-4 5.8-7.1 9.8-9.5 2.5-1.5 5.2-2.6 8.1-3.1 1.8-.4 3.7-.5 5.6-.6 2.5-.1 5 0 7.5 0l110.5-.3zM287.7 151h0V93.1 43.7 32.8c0-3.5-1.1-6.7-3.2-9.5-3.4-4.6-8.1-6.8-13.8-6.8H37.8h-2.3c-4.4.1-8.2 1.7-11.4 4.8-3.6 3.5-5 7.9-5 12.8v232.2 1.8c0 2.6.5 5.1 1.7 7.5 2 4.1 5.2 6.9 9.5 8.5 2.3.9 4.8 1 7.2 1h231.6 2.2c2.4-.1 4.8-.5 7-1.7 5.9-3.1 9.1-7.8 9.4-14.5.1-1.7 0-3.5 0-5.2v-63.1V151zm69.2-.5c0 6.1-1 11.9-2.8 17.5-1.9 5.9-4.8 11.3-8.6 16.2-4.8 6.3-10.8 11.3-17.8 15-3 1.6-6.1 2.9-9.4 3.9-3 .9-5.9 1.7-9 2-2.9.3-5.8.3-8.7.5-1.3.1-1.5.2-1.6 1.5v3.7c0 1.1.3 1.4 1.4 1.5h1c5.1-.1 10.1-.6 15-1.8 4.1-1 8-2.4 11.8-4.2 4.3-2.1 8.4-4.6 12.1-7.6 10.3-8.3 17.2-18.8 20.8-31.4 1.3-4.5 2-9.1 2.2-13.7.3-7.1-.6-14-2.7-20.8a58.41 58.41 0 0 0-6.4-14.2c-8.2-13-19.5-21.9-34.2-26.6-4.4-1.4-8.9-2.2-13.5-2.7-2-.2-4-.2-5.9-.2-1.6 0-1.7.2-1.7 1.7v3.4c0 1.4.2 1.6 1.6 1.6 3.4 0 6.8.1 10.2.7 4.7.8 9.1 2.1 13.4 4 6 2.7 11.5 6.4 16.2 11.1 6.9 6.9 11.7 15 14.3 24.4a46.2 46.2 0 0 1 2.3 14.5zm-57.7.2v7.7c0 1.3.2 1.5 1.4 1.8 1.3.3 2.5 0 3.8-.3 3.7-.9 6.6-4.3 7-7.9a9.67 9.67 0 0 0-10.4-10.9c-1.6.1-1.9.4-1.9 2 .1 2.7.1 5.1.1 7.6zm-67.5 25.8v-26.1-.3c0-1.7.2-1.9 1.9-1.9h34 .7c.7 0 1.1.3 1.1 1v6.2c0 .7-.4 1-1 1h-.8-24.2c-1.6 0-1.7.1-1.7 1.7v11.7.4c.1 1.1.2 1.3 1.3 1.3h1.2 20.4.6c.9.1 1.1.2 1.1 1.2v4.1 3.2c0 1.2-.1 1.3-1.4 1.3h-1.5-19.6-1.1c-.9.1-1.1.2-1.1 1.1v12.8c0 .8.2 1 1.1 1.1h.8 24.2c1.5 0 1.7.1 1.7 1.6v5.1c0 1.3-.2 1.5-1.5 1.5h-9.2-24.8-.8c-.9-.1-1.1-.3-1.2-1.2v-.8c-.2-8.6-.2-17.3-.2-26zm-17.5-10.1c-1.2.1-2-.4-2.6-1.3-1.2-1.9-2.7-3.4-4.6-4.7-3.9-2.6-8.2-3.6-12.9-2.4-4.6 1.2-8 4-10.4 8-2.9 4.9-3.6 10.2-2.1 15.7 1.6 5.6 4.9 10 10.5 12.2 5.4 2.2 10.5 1.4 15.2-1.9 1-.7 1.8-1.6 2.8-2.5.6-.5.6-1.1.3-1.9l-4.2-9.6a41.19 41.19 0 0 0-.6-1.6c-.1-.3.9-.2 1.3-.2h7.7c1 0 1.5.4 1.9 1.3l8.1 18.4 3 6.9c.1.3.3.5.2.8 0 .3-.3.5-.5.7-.1.1-.4.1-.5.1h-7.9c-.9 0-1.4-.4-1.8-1.2-.5-1.3-1.1-2.5-1.6-3.8-.2-.4-.5-.7-.8-1.2-.5.3-.8.6-1.2.9-5.5 4.2-11.7 6-18.6 5.1-9.7-1.3-16.4-6.8-20.6-15.4-3.3-6.8-3.7-13.9-1.6-21.1 2.2-7.5 6.7-13.2 13.7-16.9 3-1.6 6.3-2.6 9.7-2.8 3.6-.2 7.2.1 10.6 1.4 4.5 1.7 8.3 4.4 11.3 8.1 1.7 2.1 3.1 4.4 4.2 6.9.1.2.2.3.2.5.3.8 0 1.2-.9 1.3m-98.2 10.4v-26.3c0-2.1 0-2.2 2.1-2.2h14.3c7.8 0 14.5 2.6 20.1 7.9 3.5 3.3 5.9 7.2 7.4 11.7 1.5 4.2 1.6 8.6 1.2 12.9-.4 3.3-1.5 6.3-3 9.2-2.3 4.2-5.3 7.7-9.3 10.3-3.3 2.2-6.8 3.7-10.8 4.4-2.5.4-5 .5-7.5.5h-12.6-1c-.7 0-1-.3-1-1v-1.2l.1-26.2zm9.5-.1V194c0 1.5.1 1.6 1.6 1.6h6.6c2.6 0 5.1-.6 7.4-1.8 4.9-2.5 8.3-6.2 10-11.6 1.3-4.2 1.2-8.5-.4-12.6-2-5-5.5-8.6-10.4-10.6-2.3-.9-4.6-1.5-7.1-1.5h-6.2c-1.4 0-1.5.1-1.5 1.5v.1 17.4zm-16 5.6v.3h0v1.4c-.1 7.7-3.4 13.7-9.8 18-3.9 2.6-8.3 3.6-13 2.9-7.9-1.1-13-5.7-16.2-12.8-1.2-2.7-1.7-5.5-1.7-8.5v-33.2-.7c.1-1 .3-1.2 1.3-1.2H81h3.2c1 0 1.3.3 1.3 1.3v1.1 31.7c0 3.1.6 6 2.5 8.6 2.7 3.6 7.2 5.5 11.8 3.8 3-1.1 5-3.3 6.3-6.2.9-1.9 1.2-3.9 1.2-6h0v-32.4-.7c.1-1 .3-1.2 1.3-1.2h3.6 3.2c1 0 1.3.3 1.3 1.3v1.1 18.7c.1 4.2.1 8.4.1 12.7zm-81.9-5.6v-26.1-1.1a.94.94 0 0 1 1-1H37h33.7.7c1 .1 1.2.2 1.3 1.2v5.8c0 1-.3 1.2-1.3 1.2h-.8-23.9c-1.7 0-1.9.2-1.9 1.8v5 6.8c0 1.5.2 1.7 1.7 1.7h21.3c2 0 2 0 2 2v6.2c0 1.6 0 1.6-1.6 1.6h-21c-2.8 0-2.3.3-2.3 2.3v19.2c0 1.6-.2 1.7-1.7 1.7h-6.5c-1.6 0-1.7-.2-1.7-1.7l-.1-26.6z"></path><path d="M141.9 103.7c-1.2.1-2-.4-2.6-1.3-1.2-1.9-2.7-3.4-4.6-4.7-3.9-2.6-8.2-3.6-12.9-2.4-4.6 1.2-8 4-10.4 8-2.9 4.9-3.6 10.2-2.1 15.7 1.6 5.6 4.9 10 10.5 12.2 5.4 2.2 10.5 1.4 15.2-1.9 1-.7 1.8-1.6 2.8-2.5.6-.5.6-1.1.3-1.9l-4.4-10c-.1-.3-.2-.7-.4-1.2-.1-.3.9-.2 1.3-.2h7.7c1 0 1.5.4 1.9 1.3l8.1 18.4 3 6.9c.1.3.3.5.2.8 0 .3-.3.5-.5.7-.1.1-.4.1-.5.1h-7.9c-.9 0-1.4-.4-1.8-1.2-.5-1.3-1.1-2.5-1.6-3.8-.2-.4-.5-.7-.8-1.2-.5.3-.8.6-1.2.9-5.5 4.2-11.7 6-18.6 5.1-9.7-1.3-16.4-6.8-20.6-15.4-3.3-6.8-3.7-13.9-1.6-21.1 2.2-7.5 6.7-13.2 13.7-16.9 3-1.6 6.3-2.6 9.7-2.8 3.6-.2 7.2.1 10.6 1.4 4.5 1.7 8.3 4.4 11.3 8.1 1.7 2.1 3.1 4.4 4.2 6.9.1.2.2.3.2.5.3.8 0 1.2-.9 1.3m-65 10V87.2v-.6c0-.9.2-1.1 1.2-1.2h1.8 5.5c1.3 0 1.4.2 1.4 1.4v1.8 51c0 2.2 0 2.2-2.2 2.2H86c-1.6 0-1.7-.2-1.7-1.8l-.1-26.5zM78.9 126c-.2-5.4-2.3-9.7-7.1-12.5-.3-.1-.5-.4-.8-.7 1.1-1.1 2.2-2 3.1-3 2.6-3.4 3.3-7.3 2.7-11.5-.4-3.3-1.8-6.2-4.2-8.5-3.1-2.9-6.7-4.3-10.9-4.3H36.2c-.4 0-.8 0-1.1.1a1.21 1.21 0 0 0-.7.7c-.1.3 0 .7 0 1v53.1c.1 1.3.3 1.5 1.6 1.5h27.7c3.5 0 6.7-1.1 9.5-3.2 4.2-3.2 5.9-7.6 5.7-12.7zM44.3 95c0-1.2.1-1.4 1.3-1.4 4.9-.1 9.7-.1 14.5 0 3.4.1 6.4 2.7 6.8 6.1.3 2.5.2 4.8-1.3 6.9-.9 1.2-1.9 1.8-3.4 1.7-2.7-.1-5.3 0-8 0H46c-1.5 0-1.7-.2-1.7-1.7V95zm24 34.6c-1.3 2.8-3.7 4.1-6.7 4.1H45.4c-.9-.1-1.1-.3-1.2-1.1v-13.3c0-1 .2-1.2 1.4-1.2h16.9c2.6.1 4.9 1.7 5.9 4.1 1 2.5 1 5-.1 7.4z"></path></svg>