<svg version="1.0" xmlns="http://www.w3.org/2000/svg" class="alohas-logo-svg" width="600.000000pt" height="300.000000pt" viewBox="0 0 600.000000 300.000000" preserveAspectRatio="xMidYMid meet">

<g transform="translate(0.000000,300.000000) scale(0.100000,-0.100000)" fill="#000000" stroke="none">
<path d="M2338 2006 c-117 -34 -182 -99 -220 -219 -22 -69 -23 -87 -23 -402 0
-352 4 -393 51 -486 29 -57 91 -112 153 -135 61 -22 245 -30 331 -15 124 23
205 90 244 204 28 84 39 237 33 497 -7 318 -25 398 -114 483 -61 60 -126 80
-278 83 -87 2 -145 -1 -177 -10z m222 -262 c21 -57 21 -671 0 -728 -28 -75
-106 -66 -127 14 -16 62 -16 638 0 700 21 80 99 89 127 14z"></path>
<path d="M5059 2007 c-99 -28 -174 -90 -210 -174 -24 -56 -42 -194 -34 -257
20 -159 63 -207 295 -330 69 -36 133 -76 143 -87 20 -25 24 -114 6 -153 -16
-34 -57 -47 -97 -31 -33 14 -52 59 -52 123 l0 32 -155 0 -155 0 0 -32 c0 -119
44 -235 107 -287 65 -54 119 -66 288 -66 183 1 241 18 316 95 69 70 84 123 84
290 0 127 -2 138 -27 185 -43 81 -95 122 -250 199 -85 43 -149 81 -161 97 -37
52 -38 139 -2 169 24 20 77 14 97 -10 9 -11 20 -45 23 -76 l7 -55 147 3 146 3
-3 60 c-7 143 -54 225 -158 276 -63 31 -74 33 -188 36 -77 2 -138 -2 -167 -10z"></path>
<path d="M526 1408 c-71 -332 -131 -609 -134 -615 -3 -10 32 -13 156 -13 144
0 161 2 166 18 2 9 10 52 17 95 l12 78 106 -3 106 -3 12 -70 c23 -129 0 -115
184 -115 148 0 160 1 155 18 -3 9 -62 286 -132 615 l-127 597 -196 0 -196 0
-129 -602z m358 95 c15 -120 30 -228 33 -240 5 -22 3 -23 -66 -23 -50 0 -71 4
-71 13 -1 28 65 467 70 467 3 0 18 -98 34 -217z"></path>
<path d="M1380 1395 l0 -615 330 0 330 0 0 140 0 140 -170 0 -170 0 0 475 0
475 -160 0 -160 0 0 -615z"></path>
<path d="M2990 1380 l0 -620 160 0 160 0 0 250 0 250 80 0 80 0 0 -250 0 -251
158 3 157 3 0 615 0 615 -157 3 -158 3 0 -226 0 -225 -80 0 -80 0 0 225 0 225
-160 0 -160 0 0 -620z"></path>
<path d="M4105 1988 c-8 -25 -265 -1203 -265 -1216 0 -10 36 -12 163 -10 l162
3 15 90 16 90 111 3 111 3 7 -48 c3 -26 11 -69 17 -95 l10 -48 165 0 165 0 -6
24 c-3 12 -62 281 -131 597 -69 316 -129 584 -132 597 -5 22 -6 22 -204 22
-151 0 -201 -3 -204 -12z m236 -490 c16 -117 31 -228 34 -245 l6 -33 -76 0
c-68 0 -76 2 -71 18 2 9 19 122 37 250 18 127 34 230 37 228 2 -3 17 -101 33
-218z"></path>
</g>
</svg>