<svg class="c-header__logo-image" width="244" height="32" viewBox="0 0 244 32" fill="none" xmlns="http://www.w3.org/2000/svg">
  <path d="M240.262 31.9564C238.194 31.9564 236.523 30.2974 236.523 28.2456C236.523 26.1937 238.194 24.5348 240.262 24.5348C242.329 24.5348 244 26.1937 244 28.2456C244 30.2974 242.329 31.9564 240.262 31.9564Z" fill="#1F1D24"></path>
  <path d="M223.077 32C216.611 32 211.465 26.9795 211.465 20.4747C211.465 13.9699 216.611 8.94948 223.077 8.94948C229.542 8.94948 234.733 13.9699 234.733 20.4747C234.733 26.9795 229.542 32 223.077 32ZM223.077 26.4993C226.464 26.4993 229.059 24.0109 229.059 20.4747C229.059 16.9386 226.464 14.4502 223.077 14.4502C219.734 14.4502 217.139 16.9386 217.139 20.4747C217.139 24.0109 219.734 26.4993 223.077 26.4993Z" fill="#1F1D24"></path>
  <path d="M195.776 32C186.452 32 179.766 25.015 179.766 16.1091C179.766 7.15958 186.452 0.218231 195.776 0.218231C201.406 0.218231 206.376 3.05589 209.015 7.42152L203.781 10.4338C202.286 7.72711 199.295 6.06817 195.776 6.06817C189.75 6.06817 185.792 10.2155 185.792 16.1091C185.792 21.9591 189.75 26.1064 195.776 26.1064C199.295 26.1064 202.33 24.4475 203.781 21.7844L209.015 24.7967C206.42 29.1623 201.45 32 195.776 32Z" fill="#1F1D24"></path>
  <path d="M167.752 8.94948C172.415 8.94948 176.065 12.18 176.065 17.9863V31.3888H170.391V18.6848C170.391 15.7162 168.588 14.1882 166.037 14.1882C163.266 14.1882 161.199 15.8035 161.199 19.6016V31.3888H155.525V9.56067H161.199V12.0054C162.518 10.0409 164.805 8.94948 167.752 8.94948Z" fill="#1F1D24"></path>
  <path d="M147.473 6.94135C145.581 6.94135 143.998 5.36972 143.998 3.4925C143.998 1.61528 145.581 0 147.473 0C149.408 0 150.991 1.61528 150.991 3.4925C150.991 5.36972 149.408 6.94135 147.473 6.94135ZM144.658 31.3889V9.56073H150.332V31.3889H144.658Z" fill="#1F1D24"></path>
  <path d="M141.826 31.3889H135.228L127.223 21.4789V31.3889H121.549V0.829483H127.223V19.1651L134.788 9.56074H141.562L132.721 20.3438L141.826 31.3889Z" fill="#1F1D24"></path>
  <path d="M106.682 32C100.393 32 96.2583 28.9877 94.5869 24.4475L99.7769 21.4352C100.877 24.2728 103.032 26.1064 106.858 26.1064C110.509 26.1064 111.784 24.5784 111.784 22.8758C111.784 20.6057 109.717 19.7326 105.143 18.4229C100.437 17.0696 95.8624 15.105 95.8624 9.29874C95.8624 3.53611 100.701 0.218231 105.979 0.218231C111.037 0.218231 114.907 2.79395 116.974 7.07227L111.872 9.99724C110.773 7.68345 109.101 6.06817 105.979 6.06817C103.428 6.06817 101.932 7.37786 101.932 9.12411C101.932 11.0013 103.12 12.0054 107.782 13.4024C112.664 14.9304 117.854 16.5457 117.854 22.7885C117.854 28.5075 113.236 32 106.682 32Z" fill="#1F1D24"></path>
  <path d="M76.0032 22.7885C76.7949 25.6698 79.214 26.8922 82.2048 26.8922C84.404 26.8922 86.1633 25.9754 87.131 24.7094L91.7052 27.3288C89.638 30.2974 86.3393 32 82.1169 32C74.7277 32 70.0654 26.9795 70.0654 20.4747C70.0654 13.9699 74.7716 8.94948 81.677 8.94948C88.1866 8.94948 92.8048 14.0573 92.8048 20.4747C92.8048 21.3042 92.7169 22.0464 92.5849 22.7885H76.0032ZM75.9152 18.4229H87.131C86.4272 15.2796 84.0521 14.0136 81.677 14.0136C78.6422 14.0136 76.575 15.6289 75.9152 18.4229Z" fill="#1F1D24"></path>
  <path d="M56.5131 15.7599C56.5131 18.9904 67.8608 16.9822 67.8608 25.015C67.8608 29.7299 63.7264 32 59.0202 32C54.6219 32 51.3671 30.1664 49.7837 26.8049L54.7098 24.0545C55.3256 25.8445 56.821 26.8922 59.0202 26.8922C60.8235 26.8922 62.055 26.281 62.055 25.015C62.055 21.8281 50.7073 23.5743 50.7073 15.8908C50.7073 11.4379 54.5339 8.94948 59.0642 8.94948C62.6268 8.94948 65.7057 10.5648 67.421 13.577L62.5828 16.1964C61.9231 14.7994 60.6916 13.9699 59.0642 13.9699C57.6567 13.9699 56.5131 14.5811 56.5131 15.7599Z" fill="#1F1D24"></path>
  <path d="M36.1048 32C29.6392 32 24.4932 26.9795 24.4932 20.4747C24.4932 13.9699 29.6392 8.94948 36.1048 8.94948C42.5703 8.94948 47.7604 13.9699 47.7604 20.4747C47.7604 26.9795 42.5703 32 36.1048 32ZM36.1048 26.4993C39.4915 26.4993 42.0865 24.0109 42.0865 20.4747C42.0865 16.9386 39.4915 14.4502 36.1048 14.4502C32.762 14.4502 30.167 16.9386 30.167 20.4747C30.167 24.0109 32.762 26.4993 36.1048 26.4993Z" fill="#1F1D24"></path>
  <path d="M16.8896 31.3889L10.688 20.7804H6.0697V31.3889H0V0.829483H12.3153C17.9892 0.829483 22.5635 5.36974 22.5635 10.9577C22.5635 14.7995 20.1444 18.2483 16.6257 19.8636L23.4431 31.3889H16.8896ZM6.0697 6.46114V15.498H12.3153C14.6025 15.498 16.4938 13.4898 16.4938 10.9577C16.4938 8.42568 14.6025 6.46114 12.3153 6.46114H6.0697Z" fill="#1F1D24"></path>
</svg>