<svg class="icon icon--full-color icon--logo" xmlns="http://www.w3.org/2000/svg" viewBox="0 0 300.1 36.9">
  <defs>
    <style>
    .text-gray-dark {
      fill: #414141;
    }

    .text-blue {
      fill: #3399ff;
    }
    </style>
  </defs>
  <path class="text-blue" d="M123.3,6.5V0H100.6V36.7h22.7V30.2H107.1V21.6h10.8V15.1H107.1V6.5ZM86,16.1,98.4,0H91.5L78,16V0H71.5V36.7H78V25.9L82.1,21l9.5,15.8h6.9ZM66.7.1C58.8.1,33.1,2.7,33.1,36.2v.6h6.4v-.6c0-4,.3-9.8,2.5-13.5H60.8V16.2h-16c2.6-4.9,9.1-10,18.3-10.2V36.8h6.5V.2h-.8c-.1,0-.8-.1-2.1-.1"></path>
  <path class="text-blue" d="M36.8,0,26,23.4,22.6,0H20.2L8.9,23.4,6.1,0H0L5.4,36.7H7.7L19,13.6l4.2,23.2h2.3L42.9,0Z"></path>
  <path class="text-gray-dark" d="M298.5,20.8a12,12,0,0,0-5.2-4.2l-2.8-1.3a20.72,20.72,0,0,1-3.5-2,4.81,4.81,0,0,1-1.2-1.6,5.38,5.38,0,0,1-.4-2.2,4.14,4.14,0,0,1,1.2-3.1A4.55,4.55,0,0,1,290,5.2a11.09,11.09,0,0,1,3.4.6A11.76,11.76,0,0,1,296.1,7l.6.4,1.7-5.1-.3-.2c-1.6-1.3-4.3-2-8.3-2a10.54,10.54,0,0,0-7.4,2.7,9.06,9.06,0,0,0-2.9,6.8,10.53,10.53,0,0,0,1.5,5.7,11.42,11.42,0,0,0,5.1,4.1l2.8,1.3c2.4,1.1,3.9,2.2,4.4,3.1a5.29,5.29,0,0,1,.9,3,4.33,4.33,0,0,1-1.5,3.4,6,6,0,0,1-4.1,1.4,10.51,10.51,0,0,1-3.3-.6,11.19,11.19,0,0,1-3.1-1.5l-.5-.4-2.1,5.3.4.2a14.24,14.24,0,0,0,8.1,2.2,13.35,13.35,0,0,0,8.7-2.8,8.85,8.85,0,0,0,3.3-7,12.91,12.91,0,0,0-1.6-6.2M277.8,36.9l-9.7-15.2c3.8-1.9,5.4-5.5,5.4-10.9,0-7.2-5.2-10.8-15.7-10.8-.8,0-2.9.1-6.6.3h-.6V36.9h6.5V23.1c2.2.1,2.8.2,3.3.2a13.55,13.55,0,0,0,2-.2l8.4,13.8ZM260,17.8c-.1,0,.3,0-2.9-.2V5.7c2.2-.1,1.8-.2,2.3-.2,6,0,8.1,1.9,8.1,5.8-.1,4.4-1.9,6.5-7.5,6.5M248.4,6.6V.1H225.7V36.8h22.7V30.3H232.2V21.7H243V15.2H232.2V6.6ZM211,16.1,223.5.1h-6.9L203,16.1V.1h-6.5V36.8H203V25.9l4.1-4.9,9.5,15.8h6.9ZM180.3.1h-2L163.9,36.8h6.6l2.6-7.6h12.5l2.5,7.6h6.6ZM183,22.8h-7.5l3.6-10.1ZM154.3.1h-3l-7.4,24.7L135.8.1h-3.1l-6.9,36.7h5.7l3.8-21,7.4,21h2l7.2-21,3.9,21h5.7Z"></path>
</svg>