<svg class="site-footer__logo-svg" viewBox="0 0 357 137" fill="none" xmlns="http://www.w3.org/2000/svg">
  <g clip-path="url(#footer-logo)" fill="currentColor">
    <path d="M191.663 67.987c0 19.373-16.741 35.471-37.006 38.84-.143 3.584-1.882 22.564-22.861 22.195-31.529-.548-35.959 7.06-35.959 7.06s-4.44-7.608-35.958-7.06c-20.98.369-22.718-18.611-22.86-22.195C16.74 103.458 0 87.347 0 67.987c0-19.372 16.74-35.482 37.018-38.84.167-3.81 2.084-22.455 22.85-22.086C91.395 7.608 95.825 0 95.825 0s4.441 7.608 35.958 7.06c20.777-.368 22.682 18.278 22.849 22.088 20.277 3.357 37.018 19.467 37.018 38.84h.012ZM153.502 29.91c-.167-3.739-2.036-20.67-22.409-20.313-30.91.536-35.256-8.275-35.256-8.275s-4.346 8.81-35.256 8.275C40.21 9.24 38.34 26.17 38.173 29.91 18.289 33.196 3.215 48.996 3.215 67.987c0 18.992 15.062 34.78 34.946 38.078.131 3.513 1.846 20.778 22.409 20.42 30.91-.535 35.256 8.276 35.256 8.276s4.345-8.811 35.255-8.276c20.563.358 22.278-16.907 22.409-20.42 19.872-3.298 34.946-19.086 34.946-38.078 0-18.99-15.074-34.791-34.946-38.077h.012Z"></path>
    <path d="M87.884 23.433c.571-.072 1.071-.239 1.488-.512.417-.274.727-.632.917-1.06.19-.429.262-.905.202-1.429a2.696 2.696 0 0 0-.523-1.334 2.463 2.463 0 0 0-1.12-.833c-.464-.179-.964-.226-1.524-.167l-2.238.262.63 5.334 2.168-.25v-.011Zm-.607-4.513c.583-.072 1.071.047 1.464.333.381.298.62.727.679 1.298.071.56-.06 1.024-.357 1.405-.31.381-.739.607-1.31.679l-1.096.13-.44-3.726 1.06-.12Zm-3.68 5.155-.178-.785-2.548.571-1-4.453-1.012.226 1.178 5.24 3.56-.799Zm-8.81 2.37-.703-2.155.357-.12a.882.882 0 0 1 .464-.023c.143.036.322.13.512.274.19.143.524.44.977.893.214.202.369.345.488.44l1.095-.357c-.226-.178-.595-.536-1.119-1.048-.31-.297-.548-.5-.726-.607a1.64 1.64 0 0 0-.548-.214c.25-.226.417-.465.5-.727.084-.261.072-.535-.024-.833-.142-.429-.404-.726-.797-.893-.393-.167-.822-.167-1.298-.012l-1.834.607 1.679 5.096.988-.321h-.012Zm-.81-4.549c.274-.083.5-.095.678-.035.179.071.31.214.393.452.072.227.06.429-.047.608-.108.178-.286.31-.548.392l-.631.203-.464-1.417.619-.203Zm58.998 12.895.452-.678-2.072-1.381.846-1.274 1.941 1.297.452-.678-1.941-1.298.786-1.179 2.024 1.346.453-.68-2.882-1.928-2.976 4.465 2.929 1.953-.012.035Zm-17.872-8.918c.214.143.476.274.809.381.5.167.953.167 1.358 0 .404-.166.678-.464.821-.905.107-.333.119-.654 0-.964-.107-.298-.333-.62-.69-.953-.417-.38-.655-.619-.703-.69-.202-.25-.274-.465-.214-.667.047-.167.167-.262.333-.321.167-.048.381-.036.631.047.405.131.822.453 1.25.94l.286-.88a3.105 3.105 0 0 0-1.31-.846c-.523-.178-.988-.19-1.393-.035-.404.154-.678.44-.821.869-.107.321-.095.63.012.94.119.31.345.62.69.941.286.274.512.5.691.69.214.239.274.465.19.703a.518.518 0 0 1-.357.345c-.178.06-.393.048-.631-.035-.476-.155-.917-.56-1.321-1.19l-.322.976c.238.273.452.476.667.63l.024.024Zm7.775-2.798-.953-.393-2.06 4.966.965.392 2.06-4.965h-.012Zm3.06 3.108 1.071 4.858.786.417 2.489-4.751-.905-.476-1.739 3.321-1.083-4.798-.81-.417-2.488 4.751.893.476 1.762-3.37.024-.011Zm-21.301-2.81c.333.226.75.393 1.238.464.786.12 1.417.024 1.905-.285.488-.31.786-.834.905-1.548l.5-3.156-1.024-.166-.476 3.012c-.06.357-.155.62-.286.798-.131.178-.322.31-.56.393-.238.083-.512.095-.821.047a1.597 1.597 0 0 1-.727-.297 1.205 1.205 0 0 1-.392-.536c-.06-.203-.072-.464-.024-.774l.488-3.084-1.024-.167-.512 3.191c-.072.441-.036.846.095 1.215.143.357.369.655.703.893h.012Zm-7.002-.643c.441.25.941.381 1.5.405.394.012.727 0 1.025-.072.297-.06.619-.178.976-.345l.048-.976a7.197 7.197 0 0 1-1.036.416c-.274.084-.56.108-.846.084a2.22 2.22 0 0 1-1.024-.274 1.83 1.83 0 0 1-.69-.69 1.902 1.902 0 0 1-.214-.977 1.83 1.83 0 0 1 .297-.94c.179-.274.429-.489.75-.632.31-.143.667-.202 1.048-.19.31.012.595.071.869.166.274.096.572.25.893.453l.048-.976a4.905 4.905 0 0 0-.929-.393 3.68 3.68 0 0 0-.893-.143 3.588 3.588 0 0 0-1.572.274 2.724 2.724 0 0 0-1.13.94c-.286.417-.43.893-.465 1.441-.024.5.083.976.321 1.405.239.44.572.774 1 1.024h.024Zm15.563-2.917-1.013-.25-1.297 5.203 1.012.25 1.298-5.203Zm-53.51 14.252-.714-4.274 3.572 2.44.298-.19-1.072-5.775-.893.572.667 3.524-2.989-2.036-.738.476.596 3.549-2.918-2.072-.904.583 4.798 3.382.286-.179h.012Zm6.275-5.31c.405.274.87.428 1.382.464a3.16 3.16 0 0 0 1.524-.31c.512-.238.916-.559 1.226-.952.31-.405.488-.857.548-1.345.06-.5-.024-.977-.238-1.43a2.646 2.646 0 0 0-.953-1.118 2.614 2.614 0 0 0-1.381-.453c-.5-.024-1 .083-1.512.31-.524.238-.94.56-1.25.964-.31.405-.477.857-.536 1.357-.048.5.024.977.238 1.417.214.465.524.834.929 1.108l.023-.012Zm.191-3.405c.202-.263.464-.477.798-.632.333-.154.655-.214.988-.202.333.012.631.131.893.322.262.19.476.452.62.773.225.5.25.977.07 1.441-.178.465-.511.81-1.011 1.036a1.957 1.957 0 0 1-.989.19 1.768 1.768 0 0 1-.893-.321 1.905 1.905 0 0 1-.619-.774 1.914 1.914 0 0 1-.19-.976c.023-.322.13-.62.333-.881v.023ZM17.61 71.143c2.691 1.905 5.763 2.798 9.657 2.798 6.191 0 9.894-2.93 9.894-7.823 0-5.536-4.965-6.798-9.347-7.906-2.87-.714-5.918-1.679-5.918-4.06 0-2.155 2.06-3.489 5.382-3.489 2.703 0 5.001.56 6.811 1.655l1.786-3.381c-3.072-1.727-6.358-2.096-8.597-2.096-5.917 0-9.454 2.739-9.454 7.323 0 5.036 4.12 6.548 9.097 7.87 2.608.69 6.168 1.643 6.168 4.096 0 2.5-2.18 4-5.81 4-2.144 0-5.24-.25-7.823-2.31l-1.834 3.335-.012-.012ZM40.59 61.105c0-6.774 3.703-10.882 10.038-10.882 6.298 0 10.001 4.108 10.001 10.882V73.81h-3.953v-6.335H44.543v6.335H40.59V61.105Zm16.086 2.513v-2.513c0-4.417-2.226-7.06-6.048-7.06-3.858 0-6.085 2.631-6.085 7.06v2.513h12.133ZM65.106 50.604h16.181v3.822H69.06v5.608h11.169v3.822H69.059v9.942h-3.953V50.592v.012ZM85.086 50.604h16.181v3.822H89.039v5.608h11.168v3.822H89.039v9.942h-3.953V50.592v.012ZM119.448 67.416c1.036 1.822 2.227 2.822 4.323 3.203v3.417c-3.703-.155-5.454-1.286-7.49-4.548l-1.631-2.632h-5.644v6.966h-3.953V50.616h10.133c4.608 0 8.43 2.786 8.43 8.12 0 3.667-2.477 6.144-5.049 7.156l.881 1.536v-.012Zm-10.442-13.05v8.847h6.085c2.702 0 4.393-1.572 4.393-4.489s-1.941-4.358-4.298-4.358h-6.18ZM126.224 62.2c0-7.06 4.453-11.977 11.787-11.977 7.37 0 11.824 4.93 11.824 11.978 0 7.025-4.454 11.978-11.824 11.978-7.334 0-11.787-4.953-11.787-11.978Zm19.479 0c0-4.893-2.691-8.155-7.68-8.155s-7.656 3.262-7.656 8.156c0 4.893 2.667 8.156 7.656 8.156s7.68-3.263 7.68-8.156ZM153.145 50.604h2.786l13.109 9.001v-9.001h3.953V73.81h-3.953v-9.561l-11.954-8.18v17.753h-3.953V50.615l.012-.011ZM53.557 99.124h6.989l1.976 3.191c2.286 3.655 8.311 13.288 22.218 13.431v-3.358c-8.191-.095-14.562-4.096-18.92-11.895l-1.333-2.346.321-.13c2.727-1.06 5.644-3.727 5.644-7.99 0-5.525-3.715-9.097-9.454-9.097H49.58v26.243h3.965v-8.05h.012Zm7.334-3.608h-7.334V84.693h7.441c3.156 0 5.263 2.143 5.263 5.346 0 3.429-2.012 5.489-5.382 5.489l.012-.012Z"></path>
    <path d="M73.274 92.825c0-7.049 4.453-11.978 11.788-11.978 7.37 0 11.823 4.917 11.823 11.978 0 7.025-4.453 11.978-11.823 11.978S73.274 99.85 73.274 92.825Zm19.468 0c0-4.894-2.691-8.156-7.68-8.156-4.99 0-7.644 3.262-7.644 8.156s2.667 8.156 7.644 8.156 7.68-3.262 7.68-8.156ZM100.398 91.73c0-6.775 3.703-10.883 10.037-10.883 4.37 0 7.489 1.976 8.99 5.441.666 1.536 1.012 3.358 1.012 5.442v12.692h-3.953v-6.334h-12.133v6.334h-3.953V91.73Zm16.086 2.512V91.73c0-4.418-2.227-7.05-6.049-7.05-3.822 0-6.084 2.632-6.084 7.05v2.512h12.133ZM124.521 81.228h8.334c7.371 0 11.848 4.739 11.848 11.597s-4.489 11.597-11.848 11.597h-8.334V81.216v.012Zm8.334 19.444c4.954 0 7.716-3.132 7.716-7.835 0-4.703-2.762-7.835-7.716-7.835h-4.393v15.681h4.393v-.011ZM95.825 29.72c.763 0 1.453.69 1.453 1.452 0 1.905-1.453 6.656-1.453 6.656s-1.452-4.751-1.452-6.656c0-.762.69-1.453 1.452-1.453ZM94.67 37.387c-1.416-2.512-3.62-1.714-3.62-3.62 0-.523.442-.964 1.144-.964 1.631 0 2.465 2.822 2.465 4.584M97.147 37.387c0-1.762.834-4.584 2.465-4.584.702 0 1.143.44 1.143.965 0 1.893-2.203 1.107-3.62 3.62M145.417 83.871c0-.357.072-.69.202-1.012.143-.31.322-.583.56-.822.238-.238.512-.416.822-.56a2.402 2.402 0 0 1 1.012-.202c.357 0 .69.072 1.012.203.309.143.583.321.821.56.238.238.417.511.56.821.143.31.202.655.202 1.012s-.071.69-.202 1.012c-.143.31-.322.584-.56.822a2.792 2.792 0 0 1-.821.56c-.31.142-.655.202-1.012.202s-.691-.072-1.012-.203a2.783 2.783 0 0 1-.822-.56 2.798 2.798 0 0 1-.56-.82 2.417 2.417 0 0 1-.202-1.013Zm.464 0c0 .298.06.572.167.834.107.262.262.488.453.678.19.19.416.346.678.453a2.17 2.17 0 0 0 1.667 0 2.062 2.062 0 0 0 1.131-1.131 2.154 2.154 0 0 0 0-1.667 2.06 2.06 0 0 0-1.131-1.131 2.169 2.169 0 0 0-1.667 0 2.046 2.046 0 0 0-.678.452c-.191.19-.346.417-.453.679a2.173 2.173 0 0 0-.167.833Zm1.143-1.5h1.144c.357 0 .619.083.797.226.167.155.25.381.25.667 0 .262-.071.452-.202.583a.815.815 0 0 1-.5.227l.774 1.262h-.572l-.738-1.215h-.393v1.215h-.548V82.37h-.012Zm.548 1.286h.643a.695.695 0 0 0 .226-.048.358.358 0 0 0 .167-.13c.048-.06.06-.132.06-.227a.392.392 0 0 0-.06-.226.374.374 0 0 0-.167-.131.695.695 0 0 0-.226-.048h-.643v.834-.024ZM207.759 64.904h1.405c.654 0 1.166-.108 1.547-.322.381-.214.643-.547.798-.976.155-.44.226-1 .226-1.69V39.541h4.632v22.433c0 1.678-.226 3.012-.69 4.024-.465 1.012-1.132 1.739-2.036 2.203-.905.464-2.072.69-3.501.69h-2.381v-3.988ZM223.642 61.558c-1.309-.727-2.31-1.739-2.988-3.036-.679-1.298-1.012-2.786-1.012-4.49 0-1.702.333-3.119 1.012-4.417.678-1.297 1.667-2.298 2.988-3.012 1.322-.714 2.917-1.072 4.811-1.072 1.893 0 3.465.358 4.798 1.072 1.334.714 2.334 1.727 3.012 3.012.691 1.298 1.024 2.763 1.024 4.418 0 1.655-.345 3.19-1.024 4.489-.678 1.297-1.69 2.31-3.012 3.036s-2.929 1.095-4.798 1.095c-1.87 0-3.501-.357-4.811-1.095Zm7.978-3.93c.738-.845 1.107-2.047 1.107-3.583 0-1-.167-1.858-.5-2.56a3.678 3.678 0 0 0-1.464-1.632c-.643-.38-1.417-.571-2.334-.571-1.346 0-2.382.417-3.12 1.25-.738.834-1.095 2-1.095 3.5 0 1.049.167 1.93.488 2.644.322.715.81 1.262 1.441 1.643s1.393.572 2.286.572c1.393 0 2.453-.429 3.191-1.274v.012ZM243.312 61.796c-1.131-.572-1.976-1.44-2.548-2.596-.571-1.155-.845-2.595-.845-4.334V45.83h4.465v9.037c0 1 .131 1.786.393 2.346s.619.964 1.071 1.202c.453.239 1.012.358 1.667.358 1 0 1.774-.286 2.31-.87.548-.571.81-1.595.81-3.048v-9.037h4.501v9.037c0 2.608-.643 4.56-1.929 5.858s-3.179 1.941-5.704 1.941c-1.679 0-3.072-.285-4.203-.869l.012.012ZM258.589 58.617v-8.55l-.06-1.237-.429-3h4.239l.619 2.869c.417-1 .989-1.75 1.739-2.263.75-.512 1.738-.762 2.953-.762h.881v4.692h-1.179c-1.238 0-2.155.13-2.739.392-.583.262-.988.739-1.202 1.417-.215.68-.322 1.739-.322 3.144v7.049h-4.5v-3.751ZM271.055 49.353l-.488-3.524h4.239l.809 3.75-.786-.523c.477-1.179 1.191-2.06 2.156-2.643.952-.584 2.107-.882 3.452-.882 2.108 0 3.644.631 4.62 1.894.965 1.262 1.453 3.12 1.453 5.572v9.359h-4.501V53.52c0-1.44-.262-2.5-.786-3.191-.524-.69-1.321-1.048-2.381-1.048-1.131 0-1.965.357-2.489 1.06-.535.702-.797 1.798-.797 3.274v8.74h-4.501V49.342v.011ZM293.178 61.582c-1.322-.715-2.322-1.715-3.001-2.989-.678-1.274-1.012-2.739-1.012-4.417 0-1.68.334-3.263 1.012-4.56.679-1.31 1.679-2.31 3.001-3.013 1.321-.703 2.917-1.06 4.762-1.06 1.846 0 3.441.334 4.727 1.012 1.286.679 2.251 1.632 2.918 2.87.666 1.238 1 2.703 1.024 4.405v.393c0 .131 0 .262-.012.393 0 .131-.024.262-.048.393h-15.264l.095-2.643h11.871l-1.536 1.631c.083-1.19 0-2.179-.25-2.965s-.679-1.37-1.274-1.762c-.596-.393-1.381-.583-2.334-.583-1.024 0-1.845.25-2.465.738a3.876 3.876 0 0 0-1.309 1.893c-.25.774-.369 1.667-.369 2.69 0 1.132.178 2.096.523 2.882.346.798.858 1.393 1.513 1.798.666.405 1.452.607 2.369.607 1.048 0 1.881-.19 2.524-.571.643-.381 1.06-.87 1.25-1.453h4.501c-.393 1.763-1.31 3.108-2.774 4.025-1.453.929-3.334 1.381-5.644 1.381-1.893 0-3.5-.357-4.822-1.072l.024-.023ZM312.026 65.332h3.429c1.453 0 2.572-.357 3.346-1.06.774-.702 1.155-1.893 1.155-3.571v-2.31l.524.654c-.524.977-1.227 1.715-2.108 2.215-.881.5-1.917.75-3.119.75-2.108 0-3.644-.63-4.596-1.88-.953-1.251-1.429-3.109-1.429-5.561v-8.74h4.501v8.311c0 1.44.25 2.477.738 3.131.488.655 1.25.977 2.298.977 1.107 0 1.917-.345 2.429-1.024.512-.679.762-1.727.762-3.12v-8.287h4.501v13.598c0 2.393-.393 4.286-1.179 5.691-.786 1.405-1.834 2.381-3.167 2.93-1.322.559-2.894.833-4.691.833h-3.394v-3.56.023ZM209.259 77.132h13.24v3.715h-13.24v-3.715Zm6.656 15.86c-.953-.44-1.679-1.191-2.167-2.215-.488-1.036-.738-2.405-.738-4.12v-8.703l1.369-5.906h3.131v14.705c0 .714.072 1.285.227 1.714.154.429.428.75.809.965.393.214.929.321 1.596.321h2.869v3.917h-3.453c-1.476 0-2.691-.226-3.655-.666l.012-.012ZM228.024 92.873c-1.31-.727-2.31-1.739-2.989-3.037-.678-1.297-1.012-2.786-1.012-4.489 0-1.702.334-3.12 1.012-4.417.679-1.298 1.667-2.298 2.989-3.012 1.322-.715 2.917-1.072 4.81-1.072 1.893 0 3.465.357 4.799 1.072 1.333.714 2.333 1.726 3.012 3.012.691 1.298 1.024 2.762 1.024 4.417 0 1.656-.345 3.192-1.024 4.49-.679 1.297-1.691 2.31-3.012 3.036-1.322.726-2.929 1.095-4.799 1.095-1.869 0-3.5-.357-4.81-1.095Zm7.977-3.93c.739-.845 1.108-2.048 1.108-3.584 0-1-.167-1.857-.5-2.56a3.686 3.686 0 0 0-1.465-1.63c-.643-.382-1.417-.572-2.334-.572-1.345 0-2.381.416-3.119 1.25-.738.833-1.096 2-1.096 3.5 0 1.048.167 1.93.489 2.644a3.597 3.597 0 0 0 1.44 1.643c.631.38 1.393.571 2.286.571 1.393 0 2.453-.428 3.191-1.274v.012ZM253.54 70.845h10.466c2.608 0 4.549.512 5.835 1.536 1.285 1.024 1.928 2.382 1.928 4.072 0 1.346-.393 2.441-1.178 3.263-.786.821-2.06 1.345-3.811 1.56l-.321-.655c2.179.261 3.786.928 4.822 1.988 1.048 1.06 1.56 2.524 1.56 4.37 0 1.322-.286 2.488-.845 3.489-.572 1-1.417 1.785-2.548 2.345-1.132.56-2.501.846-4.108.846h-11.812V70.833l.012.012Zm12.705 8.394c.559-.464.833-1.119.833-1.976 0-.762-.274-1.381-.833-1.858-.56-.476-1.465-.714-2.727-.714h-5.346v5.25h5.251c1.321 0 2.262-.237 2.822-.702Zm.869 9.68c.679-.547 1.012-1.333 1.012-2.333 0-1-.345-1.834-1.024-2.382-.691-.547-1.75-.81-3.215-.81h-5.703v6.36h5.81c1.417 0 2.453-.275 3.132-.834h-.012ZM279.151 92.885c-1.321-.715-2.321-1.715-3-2.99-.679-1.273-1.012-2.738-1.012-4.416 0-1.68.333-3.263 1.012-4.56.679-1.31 1.679-2.31 3-3.013 1.322-.703 2.918-1.06 4.763-1.06 1.846 0 3.441.334 4.727 1.012 1.286.679 2.25 1.631 2.917 2.87.667 1.238 1 2.703 1.024 4.405v.393c0 .131 0 .262-.012.393 0 .131-.023.262-.047.393h-15.265l.096-2.643h11.871l-1.536 1.63c.083-1.19 0-2.178-.25-2.964-.251-.786-.679-1.37-1.275-1.762-.595-.393-1.381-.584-2.333-.584-1.024 0-1.846.25-2.465.739a3.878 3.878 0 0 0-1.31 1.893c-.25.774-.369 1.667-.369 2.69 0 1.132.179 2.096.524 2.882.345.798.857 1.393 1.512 1.798.667.405 1.453.607 2.37.607 1.048 0 1.881-.19 2.524-.571.643-.381 1.06-.87 1.25-1.453h4.501c-.393 1.762-1.31 3.108-2.774 4.025-1.453.928-3.334 1.38-5.644 1.38-1.893 0-3.501-.356-4.822-1.07l.023-.025ZM293.499 77.132h13.24v3.715h-13.24v-3.715Zm6.656 15.86c-.953-.44-1.679-1.191-2.167-2.215-.488-1.036-.738-2.405-.738-4.12v-8.703l1.369-5.906h3.132v14.705c0 .714.071 1.285.226 1.714.155.429.428.75.809.965.393.214.929.321 1.596.321h2.869v3.917h-3.453c-1.476 0-2.69-.226-3.655-.666l.012-.012ZM308.609 77.132h13.24v3.715h-13.24v-3.715Zm6.656 15.86c-.953-.44-1.679-1.191-2.167-2.215-.489-1.036-.739-2.405-.739-4.12v-8.703l1.37-5.906h3.131v14.705c0 .714.072 1.285.226 1.714.155.429.429.75.81.965.393.214.929.321 1.596.321h2.869v3.917h-3.453c-1.476 0-2.691-.226-3.655-.666l.012-.012ZM327.41 92.885c-1.322-.715-2.322-1.715-3.001-2.99-.679-1.273-1.012-2.738-1.012-4.416 0-1.68.333-3.263 1.012-4.56.679-1.31 1.679-2.31 3.001-3.013 1.321-.703 2.917-1.06 4.762-1.06 1.846 0 3.441.334 4.727 1.012 1.286.679 2.251 1.631 2.917 2.87.667 1.238 1.001 2.703 1.024 4.405v.393c0 .131 0 .262-.012.393 0 .131-.023.262-.047.393h-15.265l.096-2.643h11.871l-1.536 1.63c.083-1.19 0-2.178-.25-2.964s-.679-1.37-1.274-1.762c-.596-.393-1.382-.584-2.334-.584-1.024 0-1.846.25-2.465.739a3.884 3.884 0 0 0-1.31 1.893c-.25.774-.369 1.667-.369 2.69 0 1.132.179 2.096.524 2.882.346.798.858 1.393 1.512 1.798.667.405 1.453.607 2.37.607 1.048 0 1.881-.19 2.524-.571.643-.381 1.06-.87 1.25-1.453h4.501c-.393 1.762-1.31 3.108-2.774 4.025-1.453.928-3.334 1.38-5.644 1.38-1.893 0-3.501-.356-4.822-1.07l.024-.025ZM343.662 89.92v-8.55l-.059-1.238-.429-3h4.239l.619 2.87c.417-1 .988-1.75 1.738-2.263.751-.512 1.739-.762 2.953-.762h.881v4.691h-1.178c-1.239 0-2.156.131-2.739.393-.583.262-.988.739-1.202 1.417-.215.679-.322 1.739-.322 3.144v7.048h-4.501v-3.75ZM352.021 91.408c0-.333.059-.643.19-.94a2.476 2.476 0 0 1 1.298-1.298c.298-.131.607-.19.941-.19.333 0 .643.059.94.19.298.13.548.297.774.523.215.227.393.477.524.775.131.297.191.607.191.94 0 .334-.06.655-.191.94a2.459 2.459 0 0 1-.524.775 2.683 2.683 0 0 1-.774.524 2.29 2.29 0 0 1-.94.19c-.334 0-.655-.06-.941-.19a2.465 2.465 0 0 1-1.298-1.298 2.29 2.29 0 0 1-.19-.94Zm.428 0c0 .274.048.536.155.774s.25.453.429.631c.178.179.393.322.631.429.238.107.5.154.774.154s.536-.047.774-.154.452-.25.631-.429c.178-.178.321-.393.428-.631.108-.238.155-.5.155-.774a1.86 1.86 0 0 0-.155-.774 2.119 2.119 0 0 0-.428-.63 2.119 2.119 0 0 0-.631-.43 1.872 1.872 0 0 0-.774-.154c-.274 0-.536.047-.774.154-.238.108-.453.25-.631.43a2.103 2.103 0 0 0-.429.63c-.107.238-.155.5-.155.774Zm1.06-1.405h1.072c.333 0 .583.072.738.214.155.143.238.346.238.62 0 .238-.059.428-.19.547a.838.838 0 0 1-.477.215l.715 1.178h-.536l-.691-1.13h-.369v1.13h-.512v-2.774h.012Zm.512 1.203h.607a.572.572 0 0 0 .215-.048.303.303 0 0 0 .154-.119.352.352 0 0 0 .06-.214.352.352 0 0 0-.06-.215.383.383 0 0 0-.154-.119.96.96 0 0 0-.215-.047h-.607v.774-.012Z"></path>
  </g>
  <defs>
    <clipPath id="footer-logo">
      <path fill="#fff" d="M0 0h357v136.082H0z"></path>
    </clipPath>
  </defs>
</svg>