<svg xmlns="http://www.w3.org/2000/svg" class="icon-logo" viewBox="0 0 207 117" role="img" aria-label="Outstanding Foods">
      <path fill="currentColor" d="M57.5047 85.0243C57.4288 84.4257 57.4902 83.8176 57.6843 83.2463C57.8783 82.6749 58.2 82.1553 58.6248 81.7267C59.0496 81.2982 59.5664 80.9721 60.1361 80.7731C60.7057 80.5741 61.3132 80.5074 61.9125 80.5782H68.0577C68.9048 80.5782 69.7172 80.9147 70.3162 81.5137C70.9152 82.1127 71.2517 82.9251 71.2517 83.7722C71.2517 84.6193 70.9152 85.4317 70.3162 86.0307C69.7172 86.6297 68.9048 86.9662 68.0577 86.9662H64.4677V95.5517H67.815C68.635 95.5517 69.4214 95.8774 70.0012 96.4572C70.5811 97.0371 70.9068 97.8235 70.9068 98.6435C70.9068 99.4635 70.5811 100.25 70.0012 100.83C69.4214 101.41 68.635 101.735 67.815 101.735H64.4677V112.965C64.4677 113.423 64.3775 113.877 64.2022 114.3C64.0269 114.723 63.77 115.108 63.4461 115.432C63.1222 115.756 62.7377 116.012 62.3146 116.188C61.8914 116.363 61.4379 116.453 60.9798 116.453C60.5218 116.453 60.0683 116.363 59.6451 116.188C59.2219 116.012 58.8374 115.756 58.5136 115.432C58.1897 115.108 57.9328 114.723 57.7575 114.3C57.5822 113.877 57.492 113.423 57.492 112.965L57.5047 85.0243Z"></path>
      <path fill="currentColor" d="M72.1335 98.2987C72.1335 86.072 75.3786 80.0801 81.971 80.0801C88.5634 80.0801 91.7958 86.072 91.7958 98.2987C91.7958 110.525 88.5507 116.517 81.971 116.517C75.3914 116.517 72.1335 110.525 72.1335 98.2987ZM84.8073 98.2987C84.8073 90.5053 83.8619 86.6725 81.971 86.6725C80.0802 86.6725 79.0708 90.5053 79.0708 98.2987C79.0708 106.092 80.0163 109.925 81.971 109.925C83.9258 109.925 84.8073 106.092 84.8073 98.2987Z"></path>
      <path fill="currentColor" d="M92.9837 98.2987C92.9837 86.072 96.2288 80.0801 102.821 80.0801C109.414 80.0801 112.646 86.072 112.646 98.2987C112.646 110.525 109.401 116.517 102.821 116.517C96.2416 116.517 92.9837 110.525 92.9837 98.2987ZM105.657 98.2987C105.657 90.5053 104.712 86.6725 102.821 86.6725C100.93 86.6725 99.9211 90.5053 99.9211 98.2987C99.9211 106.092 100.866 109.925 102.821 109.925C104.776 109.925 105.657 106.092 105.657 98.2987Z"></path>
      <path fill="currentColor" d="M118.842 116.019C118.3 116.033 117.76 115.936 117.256 115.735C116.752 115.534 116.295 115.232 115.911 114.849C115.527 114.465 115.226 114.007 115.025 113.503C114.824 113 114.727 112.46 114.741 111.918V84.6663C114.729 84.125 114.827 83.5868 115.029 83.0844C115.231 82.582 115.532 82.1258 115.916 81.7435C116.299 81.3612 116.756 81.0608 117.259 80.8605C117.763 80.6601 118.301 80.564 118.842 80.578H120.184C128.667 80.578 132.858 87.2215 132.858 98.2983C132.858 109.375 128.667 116.019 120.184 116.019H118.842ZM121.679 109.631C124.323 109.631 125.869 105.389 125.869 98.26C125.869 91.131 124.323 86.8766 121.679 86.8766V109.631Z"></path>
      <path fill="currentColor" d="M133.803 108.622C133.786 108.392 133.786 108.161 133.803 107.932C133.787 107.424 133.876 106.918 134.062 106.446C134.249 105.974 134.531 105.545 134.89 105.186C135.249 104.827 135.678 104.545 136.151 104.358C136.623 104.171 137.128 104.083 137.636 104.099C138.08 104.085 138.522 104.16 138.937 104.319C139.351 104.478 139.73 104.718 140.051 105.025C140.372 105.331 140.629 105.699 140.807 106.106C140.984 106.513 141.079 106.951 141.086 107.395C141.29 109.95 141.788 110.589 142.683 110.589C143.832 110.589 144.177 109.388 144.177 108.494C144.177 101.85 134.353 96.906 134.353 88.4227C134.279 87.3162 134.441 86.2067 134.826 85.167C135.212 84.1272 135.813 83.1807 136.589 82.3894C137.366 81.5981 138.302 80.9799 139.334 80.5753C140.366 80.1707 141.473 79.9888 142.58 80.0417C147.423 80.0417 150.514 82.2902 151.268 87.4262C151.293 87.6768 151.293 87.9293 151.268 88.18C151.284 88.6647 151.201 89.1476 151.024 89.5993C150.847 90.051 150.58 90.462 150.24 90.8074C149.899 91.1527 149.492 91.4252 149.043 91.6083C148.594 91.7913 148.112 91.8812 147.627 91.8722C146.767 91.8964 145.933 91.5794 145.305 90.9907C144.678 90.4019 144.31 89.589 144.28 88.7293C144.126 86.5318 143.679 85.9314 142.836 85.9314C141.993 85.9314 141.431 86.8768 141.431 88.1288C141.431 94.3635 151.511 99.0524 151.511 107.842C151.511 113.132 148.215 116.479 142.568 116.479C137.777 116.479 134.583 114.128 133.778 108.583"></path>
      <path fill="currentColor" d="M154.168 86.6728V82.1117H153.9C153.818 82.124 153.734 82.1185 153.655 82.0956C153.575 82.0727 153.502 82.0329 153.439 81.9789C153.376 81.9249 153.326 81.858 153.292 81.7829C153.257 81.7077 153.239 81.6259 153.239 81.5432C153.239 81.4605 153.257 81.3787 153.292 81.3035C153.326 81.2283 153.376 81.1615 153.439 81.1075C153.502 81.0535 153.575 81.0137 153.655 80.9908C153.734 80.9679 153.818 80.9623 153.9 80.9746H155.676C155.812 80.9951 155.936 81.0638 156.026 81.1681C156.116 81.2724 156.165 81.4055 156.165 81.5432C156.165 81.6809 156.116 81.814 156.026 81.9183C155.936 82.0226 155.812 82.0913 155.676 82.1117H155.407V86.7366C155.407 86.9061 155.34 87.0685 155.22 87.1883C155.1 87.3081 154.938 87.3754 154.768 87.3754C154.599 87.3754 154.437 87.3081 154.317 87.1883C154.197 87.0685 154.13 86.9061 154.13 86.7366"></path>
      <path fill="currentColor" d="M160.773 81.5106V86.7232C160.773 86.7987 160.758 86.8735 160.73 86.9432C160.701 87.013 160.658 87.0764 160.605 87.1298C160.552 87.1831 160.488 87.2255 160.418 87.2544C160.349 87.2833 160.274 87.2981 160.198 87.2981C160.123 87.2981 160.048 87.2833 159.978 87.2544C159.909 87.2255 159.845 87.1831 159.792 87.1298C159.739 87.0764 159.696 87.013 159.667 86.9432C159.638 86.8735 159.624 86.7987 159.624 86.7232C159.552 85.4726 159.612 84.2179 159.802 82.9799L159.24 84.3724C159.21 84.4521 159.158 84.5218 159.09 84.5737C159.023 84.6256 158.942 84.6577 158.857 84.6663C158.772 84.6617 158.691 84.631 158.625 84.5784C158.559 84.5257 158.51 84.4538 158.486 84.3724L157.924 82.9543C158.103 84.2022 158.163 85.4641 158.103 86.7232C158.1 86.8769 158.036 87.0231 157.927 87.1306C157.817 87.238 157.669 87.2982 157.515 87.2981C157.366 87.2981 157.223 87.2389 157.118 87.1335C157.013 87.0281 156.953 86.8851 156.953 86.736V81.5106C156.957 81.3388 157.026 81.175 157.148 81.0535C157.269 80.932 157.433 80.8623 157.605 80.859C157.739 80.8592 157.871 80.8995 157.982 80.9746C158.094 81.0496 158.18 81.1562 158.231 81.2807L158.857 82.9032L159.509 81.2807C159.551 81.1235 159.652 80.988 159.789 80.901C159.927 80.814 160.092 80.7817 160.253 80.8106C160.413 80.8395 160.557 80.9273 160.655 81.0569C160.754 81.1865 160.801 81.3484 160.786 81.5106"></path>
      <path fill="currentColor" d="M87.3625 1.94208L79.2369 2.92584C78.2562 3.04777 77.3605 3.54378 76.7368 4.31032C76.1131 5.07687 75.8096 6.05472 75.8896 7.03971V8.98165C75.8896 11.5368 77.295 12.444 78.7003 12.444H80.3229V72.0951C80.3229 74.4715 81.511 75.7746 83.7852 75.7746C86.0593 75.7746 87.3625 74.497 87.3625 72.0951V11.8435C87.9961 11.6659 88.6473 11.5588 89.3044 11.5241C90.582 11.3069 91.2591 10.2465 91.2591 7.69128V5.63434C91.2591 3.14302 89.9816 1.62268 87.3625 1.94208Z"></path>
      <path fill="currentColor" d="M33.8819 16.4552C32.9799 16.7656 32.2103 17.3735 31.6995 18.1792C31.1887 18.9848 30.9671 19.9402 31.0712 20.8885V63.0493C31.0712 66.2944 30.854 68.032 29.2315 68.032C27.8261 68.032 27.2767 66.8438 27.2767 63.1643V24.683C27.2767 21.6423 25.437 20.4541 23.0607 21.6423C22.1823 22.1516 21.4723 22.9069 21.0183 23.8151C20.5642 24.7232 20.3859 25.7444 20.5055 26.7527V63.8797C20.5055 72.1075 23.2012 76.2214 29.2698 76.4385C35.0062 76.4385 37.7147 71.7753 37.7147 62.5766V19.5853C37.7147 16.7746 36.1944 15.4842 33.8819 16.4552Z"></path>
      <path fill="currentColor" d="M8.12554 28.3626C2.70851 31.8249 0 37.5614 0 44.6009V65.7069C0 72.7465 2.92571 76.2088 8.76434 76.426C14.6158 76.426 17.1071 72.1971 17.1071 64.0843V35.2872C17.1071 27.2767 13.5298 24.6831 8.16387 28.3626H8.12554ZM10.323 65.413C10.323 67.9682 9.88863 68.8881 8.48327 68.9903C7.07791 69.0926 6.86073 68.2365 6.64354 65.8474V42.8506C6.64354 40.0399 6.86072 38.2002 8.16387 37.4336C9.67144 36.5776 10.323 38.0852 10.323 40.7937V65.413Z"></path>
      <path fill="currentColor" d="M50.2351 10.0674L42.3267 12.5587C41.4634 13.0676 40.7491 13.7948 40.2557 14.6672C39.7623 15.5395 39.5072 16.5264 39.516 17.5286C39.516 20.0838 41.3558 21.8596 43.8471 20.8887H43.9493V72.0949C43.8855 72.5745 43.9292 73.0622 44.0774 73.5228C44.2256 73.9833 44.4745 74.4051 44.8061 74.7574C45.1376 75.1098 45.5434 75.3838 45.9941 75.5597C46.4448 75.7357 46.929 75.809 47.4116 75.7744C49.6857 75.7744 50.8739 74.4968 50.8739 72.0949V18.8317C51.3775 18.5555 51.9274 18.3736 52.4965 18.2951C54.0168 17.7458 54.4512 15.7399 54.4512 14.1812C54.4512 11.3705 52.9308 9.1986 50.2351 10.0674Z"></path>
      <path fill="currentColor" d="M63.3306 20.2373C63.3306 16.5578 63.65 14.5009 65.0554 14.1815C66.4608 13.8621 67.2273 15.9062 67.2273 19.2919V27.6218C67.2273 30.4453 68.1983 32.3873 70.9068 32.3873C73.2832 32.3873 74.3691 30.1132 74.4713 27.6218V17.8865C74.4713 6.38811 71.2262 3.27076 64.9532 4.57392C58.8846 6.19647 56.1888 12.0351 56.1888 21.4638V26.1143C56.1888 42.5698 68.1983 46.3515 68.1983 54.362V62.9475C68.1983 66.7803 67.7639 68.1473 66.3586 68.1473C64.736 68.2495 64.3016 66.8697 64.3016 63.0369V52.1007C64.3016 49.6093 62.7813 48.2679 60.7243 48.5234C60.2248 48.5338 59.733 48.649 59.2808 48.8618C58.8287 49.0745 58.4263 49.3799 58.0998 49.7582C57.7733 50.1365 57.53 50.5792 57.3857 51.0576C57.2414 51.5359 57.1992 52.0393 57.262 52.5351V63.5735C57.262 72.1207 59.9706 76.1323 66.3586 76.3495C72.4144 76.3495 75.1229 72.1207 75.1229 62.9219V52.1007C75.1229 41.1644 63.3306 38.1365 63.3306 25.4755V20.2373Z"></path>
      <path fill="currentColor" d="M184.026 20.2374C181.969 19.1642 180.665 20.5696 180.665 23.5975L180.78 44.1668C178.225 36.5907 176.769 22.2943 176.769 19.1642C176.769 16.9923 175.798 16.0213 172.936 15.1525C170.381 14.501 168.822 15.4847 168.822 18.5126V72.0952C168.758 72.5748 168.802 73.0625 168.95 73.5231C169.098 73.9836 169.347 74.4054 169.679 74.7577C170.01 75.1101 170.416 75.3842 170.867 75.5601C171.318 75.736 171.802 75.8093 172.284 75.7747C174.456 75.7747 175.644 74.4971 175.644 72.0952V43.4131C177.05 49.6861 179.477 53.3656 179.477 60.0219V72.0441C179.448 72.5241 179.518 73.0051 179.682 73.4573C179.846 73.9094 180.1 74.3233 180.43 74.6734C180.759 75.0236 181.157 75.3026 181.599 75.4934C182.04 75.6841 182.516 75.7824 182.997 75.7824C183.478 75.7824 183.954 75.6841 184.395 75.4934C184.837 75.3026 185.235 75.0236 185.564 74.6734C185.894 74.3233 186.149 73.9094 186.312 73.4573C186.476 73.0051 186.546 72.5241 186.517 72.0441V24.6834C186.606 23.7766 186.414 22.8643 185.969 22.0694C185.524 21.2745 184.845 20.6351 184.026 20.2374Z"></path>
      <path fill="currentColor" d="M203.726 50.657C205.565 51.2064 206.971 50.1204 206.971 47.1947V42.0843C207.004 39.5271 206.433 36.9982 205.305 34.7029C204.178 32.4076 202.525 30.4105 200.48 28.8739L194.195 25.5138C191.639 24.1084 189.646 25.4116 189.646 28.3373V65.5666C189.646 72.9383 192.789 76.6178 198.526 76.5028C203.943 76.5028 206.971 73.2577 206.971 66.8697V58.642V58.3226C207.084 57.3857 206.865 56.4386 206.351 55.6469C205.838 54.8552 205.062 54.2693 204.16 53.9915L201.605 53.0205C198.794 51.9346 197.606 53.8765 197.606 55.7163C197.598 56.5586 197.855 57.3821 198.341 58.0701C198.827 58.758 199.518 59.2755 200.314 59.5491V66.2693C200.314 68.2112 199.561 68.9778 198.577 68.9778C197.299 68.8628 196.635 68.109 196.635 65.8349V35.1852C198.794 35.5046 200.634 38.4303 200.634 40.8067V45.9171C200.551 46.9481 200.816 47.9772 201.385 48.8407C201.955 49.7041 202.796 50.3524 203.777 50.6825"></path>
      <path fill="currentColor" d="M102.949 0C96.9954 0.102208 94.0058 4.33107 94.0058 12.5588V72.095C94.0058 74.4713 95.194 75.7745 97.1359 75.7745C97.6419 75.8419 98.1565 75.7944 98.6416 75.6357C99.1267 75.4769 99.5698 75.2109 99.9381 74.8574C100.306 74.5039 100.59 74.072 100.769 73.5938C100.947 73.1156 101.015 72.6033 100.969 72.095C100.803 63.3307 100.803 54.2853 100.841 44.4861H104.674C104.584 54.1319 104.584 62.9218 104.917 72.095C105.019 74.4713 106.002 75.7745 108.059 75.7745C108.542 75.8091 109.026 75.7358 109.477 75.5599C109.928 75.384 110.333 75.1099 110.665 74.7575C110.996 74.4052 111.245 73.9834 111.394 73.5229C111.542 73.0623 111.586 72.5746 111.522 72.095V13.8492C111.522 4.54827 108.596 0 103.077 0H102.949ZM100.815 36.1178C100.815 28.9504 100.892 21.3615 100.892 13.121C100.892 9.54368 101.544 8.13831 102.949 8.24052C104.137 8.24052 104.789 9.64589 104.789 13.2232C104.789 21.6426 104.712 29.1293 104.635 36.0667L100.815 36.1178Z"></path>
      <path fill="currentColor" d="M161.834 11.6897C159.662 11.0381 158.257 12.4434 158.257 15.152V72.0946C158.228 72.5747 158.297 73.0556 158.461 73.5078C158.625 73.9599 158.879 74.3738 159.209 74.724C159.539 75.0741 159.937 75.3531 160.378 75.5439C160.82 75.7346 161.295 75.833 161.776 75.833C162.257 75.833 162.733 75.7346 163.175 75.5439C163.616 75.3531 164.014 75.0741 164.344 74.724C164.673 74.3738 164.928 73.9599 165.092 73.5078C165.256 73.0556 165.325 72.5747 165.296 72.0946V16.0207C165.305 15.0109 164.965 14.0291 164.334 13.2403C163.704 12.4515 162.821 11.9039 161.834 11.6897Z"></path>
      <path fill="currentColor" d="M130.226 3.6795C128.169 3.3601 126.866 4.65047 126.866 7.5123V30.7774C124.634 22.9382 123.293 14.8725 122.867 6.73296C122.867 4.45883 121.896 2.61908 119.187 2.51688C116.696 2.40189 115.355 3.59007 115.355 6.19637V72.1205C115.355 74.4969 116.441 75.8 118.715 75.8C121.206 75.8 122.279 74.5224 122.279 72.1205C122.062 66.2691 122.496 56.636 122.279 31.5184C123.8 36.8332 126.291 42.1353 126.291 49.7114C126.291 67.3551 126.074 56.5338 126.291 72.1205C126.239 72.6077 126.294 73.1004 126.454 73.5635C126.614 74.0267 126.874 74.449 127.216 74.8002C127.557 75.1515 127.972 75.4232 128.43 75.5961C128.889 75.7689 129.38 75.8385 129.868 75.8C130.375 75.8699 130.89 75.8242 131.376 75.6664C131.863 75.5085 132.307 75.2426 132.676 74.8885C133.044 74.5345 133.328 74.1016 133.506 73.6222C133.683 73.1428 133.75 72.6294 133.701 72.1205V7.79337C133.724 6.80354 133.385 5.83926 132.748 5.08173C132.11 4.3242 131.218 3.82556 130.239 3.6795"></path>
      <path fill="currentColor" d="M146.567 6.73319L141.162 5.76222C138.671 5.32784 137.151 6.41378 137.151 9.1223C137.266 40.0786 136.831 61.0823 137.151 72.1208C137.104 72.6291 137.172 73.1413 137.351 73.6196C137.529 74.0978 137.813 74.5297 138.181 74.8832C138.55 75.2366 138.993 75.5027 139.478 75.6614C139.963 75.8202 140.478 75.8677 140.984 75.8003H146.937C151.153 75.8003 155.165 70.281 155.165 64.4296V23.9169C155.165 14.2838 152.891 8.33019 146.605 6.70763L146.567 6.73319ZM148.01 63.1137C148.01 66.6782 146.605 66.7932 144.331 66.6782V15.9064C146.886 16.4557 148.01 17.3245 148.01 20.3524V63.1137Z"></path>
    </svg>