<svg width="90" height="26" viewBox="0 0 90 26" fill="none" xmlns="http://www.w3.org/2000/svg" class="icon icon-logo" role="img" aria-label="Peter Thomas Roth, clinical skin care">
      <g clip-path="url(#clip0_16358_27282)">
        <path d="M10.81 25.6113H0V0.388733H14.2073C17.6093 0.388733 21.4148 0.461869 24.4086 1.71226C27.6573 3.11129 29.5871 5.60972 29.5871 8.32991C29.5871 10.7198 28.3179 12.9988 25.7321 14.5064C23.0426 16.0894 19.5911 16.4575 16.241 16.4575H10.81V25.6113ZM13.601 11.0525C16.0381 11.0525 18.9824 10.9416 18.9824 8.58943C18.9824 6.23727 16.3424 6.16178 13.9053 6.16178H10.81V11.0525H13.601Z" fill="black"></path>
        <path d="M29.6216 0.497131H56.4366V3.68917H45.2468V25.6088H40.6274V3.68917H29.6216V0.497131Z" fill="black"></path>
        <path d="M69.6961 25.6113H58.8838V0.388733H76.5969C79.6427 0.388733 82.9928 0.683637 85.5809 1.93403C88.4756 3.25756 89.844 5.49883 89.844 7.96423C89.844 11.2719 87.8151 13.256 83.7053 14.6196L89.9973 25.6113H78.121L73.0463 15.9785H69.6985V25.6113H69.6961ZM69.6961 10.5735H73.603C75.9387 10.5735 78.7297 10.314 78.7297 8.14589C78.7297 7.30129 78.1186 6.49207 77.0546 6.08628C76.1392 5.75599 75.0257 5.75599 74.0088 5.75599H69.6961V10.5712V10.5735Z" fill="black"></path>
      </g>
      <defs>
        <clipPath id="clip0_16358_27282">
          <rect width="800" height="25.2226" fill="white" transform="translate(-260 0.388733)"></rect>
        </clipPath>
      </defs>
      <title id="svg-icon-logo">Peter Thomas Roth</title>
    </svg>