<svg class="icon icon-logo" width="228" height="26" viewBox="0 0 1925 160" fill="none" xmlns="http://www.w3.org/2000/svg">
    <g clip-path="url(#clip0_2157_2065)">
        <path d="M50.6 159.7C49.3 159.5 47.3 158.2 46 157.3L5.69995 130.6C4.39995 129.8 2.59995 128.3 1.69995 127.4C0.199951 125.9 0 122.2 0 120.7V60.3C0 58.8 0.3 56.8 0.5 55.8C0.7 54.9 3.09995 52 4.19995 50.9L51.7 3.40002C52.8 2.30002 55.2 0.900024 56.6 0.400024C57.4 0.200024 59.6 0 60.4 0C61.9 0.1 63.7 1.30001 65 2.20001L84.9 15.4C87.5 17 86.8 18.1 86 18.8L80 24.7C78.1 26.7 77 26 75.8 25.1L62 15.9C60.7 15.1 58.8 15.2 57.8 16.3L15.2 58.3C14.1 59.4 13 61.5 13 63V117C13 118.5 14.2 120.4 15.5 121.3L42.7 139.6C44 140.4 45.1 139.9 45.1 138.4V91.9C45.1 90.4 45.2 88.4 45.4 87.4C45.5 86.4 47.8 83.5 48.9 82.5L98.1 33.6C99.2 32.5 101.1 31 102.6 30.5C103.3 30.3 104.9 30.1 105.7 30.2C107.2 30.3 109.4 31.5 110.7 32.3L150.9 58.9C152.2 59.7 154 61.3 154.7 62.3C155.9 63.9 155.2 67.2 155.2 68.7C155.2 68.7 155.2 115.1 155.2 130.5C155.2 133.6 155.3 134.4 154.9 135.9C154.9 135.9 154.6 137.8 152.5 139C150.4 140.2 148.6 139.6 148.6 139.6C147.1 139.2 145 138.2 143.7 137.3L103.5 110.6C102.2 109.8 100.5 108.3 99.7 107.4C98.9 106.5 98.2 102.2 98.2 100.7V76.1C98.2 74.6 99.5 73.3 101 73.3H108.6C110.1 73.3 111.2 74.6 111.2 76.1V97C111.2 98.5 112.3 100.5 113.5 101.3L140.3 119.8C141.5 120.7 142.2 120.1 142.2 118.6V72.1C142.2 70.6 141.6 68.7 140.3 67.8L107.7 46.1C106.4 45.3 104.6 45.5 103.5 46.5L60.1 89.3C59 90.4 58.1 92.5 58.1 94C58.1 94 58.1 136.1 58.1 150.1C58.1 151.6 58.1 154 57.8 155.5C57.6 156.5 57.2 157.5 55.1 158.7C53.8 159.8 51.3 159.8 50.6 159.7Z" fill="#5B9F8E"></path>
        <path d="M316.3 78.6C316.3 106.9 295.6 128.7 267.8 128.7H228V28.2H267.9C295.7 28.4 316.3 50.3 316.3 78.6ZM297.3 78.6C297.3 60.1 285.2 47.2 267.8 47.2H247.6V109.7H267.8C285.2 109.9 297.3 97.1 297.3 78.6Z" fill="#ffffff"></path>
        <path d="M365.5 113.9C372.6 113.9 378.3 110.8 381.7 106.8L396.7 115.4C390 125.1 379.1 130.8 365.3 130.8C341.3 130.8 325.9 114.4 325.9 93C325.9 71.6 341.3 55.2 363.7 55.2C384.8 55.2 400 72.1 400 93C400 95.6 399.8 98.2 399.3 100.6H345.1C347.9 109.9 355.8 113.9 365.5 113.9ZM381.7 86.2C379.3 76 371.7 71.7 363.9 71.7C353.9 71.7 347.3 76.9 345.1 86.2H381.7Z" fill="#ffffff"></path>
        <path d="M408.7 92.8C408.7 71.4 424.9 55 446.5 55C460.5 55 472.9 62.4 478.6 73.5L462.7 82.8C459.8 76.9 453.7 73.3 446.3 73.3C435.1 73.3 427.1 81.4 427.1 93C427.1 104.4 435.2 112.5 446.3 112.5C453.7 112.5 459.8 108.9 462.7 103L478.9 112.3C472.7 123.5 460.6 131.1 446.4 131.1C424.9 130.8 408.7 114.2 408.7 92.8Z" fill="#ffffff"></path>
        <path d="M484.3 92.8C484.3 71.4 501.2 55 522.1 55C543 55 560.1 71.4 560.1 92.8C560.1 114.2 543.2 130.6 522.1 130.6C500.9 130.6 484.3 114.2 484.3 92.8ZM541.5 92.8C541.5 81.2 532.9 73.1 522 73.1C511.1 73.1 502.5 81.2 502.5 92.8C502.5 104.4 511.1 112.5 522 112.5C533.2 112.8 541.5 104.4 541.5 92.8Z" fill="#ffffff"></path>
        <path d="M613.5 55.5V76.2C604 75 591.6 79.3 591.6 94.5V128.7H573.1V57H591.6V69.4C595.4 59.5 604.5 55.5 613.5 55.5Z" fill="#ffffff"></path>
        <path d="M694.7 56.9V128.6H676.2V120C671 126.4 663.4 130.5 652.9 130.5C633.9 130.5 618 114.1 618 92.7C618 71.3 633.7 54.9 652.9 54.9C663.4 54.9 671.2 58.9 676.2 65.4V56.8H694.7V56.9ZM676.2 92.8C676.2 80.7 667.6 72.6 656.2 72.6C644.8 72.6 636.5 80.7 636.5 92.8C636.5 104.9 645.1 113 656.2 113C667.9 113.2 676.2 104.9 676.2 92.8Z" fill="#ffffff"></path>
        <path d="M736.6 74.8V104.7C736.6 112.5 742.3 112.5 752.8 112.1V129C726.9 131.9 718.1 124.2 718.1 105V74.8H705.5V57H718.1V42.5L736.6 36.8V57H752.8V74.8H736.6Z" fill="#ffffff"></path>
        <path d="M763.9 37C763.9 30.8 769.1 25.6 775.3 25.6C781.7 25.6 786.7 30.8 786.7 37C786.7 43.2 781.5 48.4 775.3 48.4C769.1 48.4 763.9 43.2 763.9 37ZM766 56.9H784.5V128.6H766V56.9Z" fill="#ffffff"></path>
        <path d="M868.6 84.7V128.6H850.1V86.8C850.1 77.1 844.2 72.1 835.8 72.1C826.8 72.1 820.1 77.3 820.1 89.9V128.6H801.6V56.9H820.1V65C824.4 58.6 832 55 841.5 55C856.7 55 868.6 65.7 868.6 84.7Z" fill="#ffffff"></path>
        <path d="M957.5 56.9V125.3C957.5 148.8 939 159.5 920 159.5C904.6 159.5 892.2 153.6 886 141.9L901.7 132.9C904.8 138.6 909.5 142.9 920.5 142.9C932.1 142.9 939.3 136.5 939.3 125.3V117.5C934.3 124.2 926.5 128.4 916.3 128.4C895.9 128.4 880.7 112 880.7 91.6C880.7 71.4 896.1 54.8 916.3 54.8C926.5 54.8 934.4 59.1 939.3 65.7V56.9H957.5ZM939.4 91.9C939.4 80.5 930.8 72.4 919.2 72.4C907.6 72.4 899 80.5 899 91.9C899 103.3 907.6 111.6 919.2 111.6C931.1 111.3 939.4 103.3 939.4 91.9Z" fill="#ffffff"></path>
        <path d="M1006.6 78.6C1006.6 49.1 1028.5 26.3 1058.9 26.3C1077.2 26.3 1093.6 35.6 1102.1 50.1L1085 60.1C1080 51.3 1070.3 45.8 1058.9 45.8C1039.2 45.8 1026.4 59.3 1026.4 78.8C1026.4 98 1039.2 111.6 1058.9 111.6C1070.3 111.6 1080.3 106.1 1085 97.3L1102.1 107.3C1093.5 121.6 1077.4 131.1 1058.9 131.1C1028.5 130.8 1006.6 107.8 1006.6 78.6Z" fill="#ffffff"></path>
        <path d="M1149.9 113.9C1157 113.9 1162.7 110.8 1166.1 106.8L1181.1 115.4C1174.4 125.1 1163.5 130.8 1149.7 130.8C1125.7 130.8 1110.3 114.4 1110.3 93C1110.3 71.6 1125.7 55.2 1148.1 55.2C1169.2 55.2 1184.4 72.1 1184.4 93C1184.4 95.6 1184.2 98.2 1183.7 100.6H1129.5C1132.3 109.9 1140.1 113.9 1149.9 113.9ZM1166 86.2C1163.6 76 1156 71.7 1148.2 71.7C1138.2 71.7 1131.6 76.9 1129.4 86.2H1166Z" fill="#ffffff"></path>
        <path d="M1264.8 84.7V128.6H1246.3V86.8C1246.3 77.1 1240.4 72.1 1232 72.1C1223 72.1 1216.3 77.3 1216.3 89.9V128.6H1197.8V56.9H1216.3V65C1220.6 58.6 1228.2 55 1237.7 55C1253 55 1264.8 65.7 1264.8 84.7Z" fill="#ffffff"></path>
        <path d="M1305.7 74.8V104.7C1305.7 112.5 1311.4 112.5 1321.9 112.1V129C1296 131.9 1287.2 124.2 1287.2 105V74.8H1274.6V57H1287.2V42.5L1305.7 36.8V57H1321.9V74.8H1305.7Z" fill="#ffffff"></path>
        <path d="M1376.7 55.5V76.2C1367.2 75 1354.8 79.3 1354.8 94.5V128.7H1336.3V57H1354.8V69.4C1358.7 59.5 1367.7 55.5 1376.7 55.5Z" fill="#ffffff"></path>
        <path d="M1420.9 113.9C1428 113.9 1433.7 110.8 1437.1 106.8L1452.1 115.4C1445.4 125.1 1434.5 130.8 1420.7 130.8C1396.7 130.8 1381.3 114.4 1381.3 93C1381.3 71.6 1396.7 55.2 1419.1 55.2C1440.2 55.2 1455.4 72.1 1455.4 93C1455.4 95.6 1455.2 98.2 1454.7 100.6H1400.5C1403.3 109.9 1411.2 113.9 1420.9 113.9ZM1437.1 86.2C1434.7 76 1427.1 71.7 1419.3 71.7C1409.3 71.7 1402.7 76.9 1400.5 86.2H1437.1Z" fill="#ffffff"></path>
        <path d="M1500.7 78.6C1500.7 49.1 1523.7 26.3 1552.7 26.3C1581.7 26.3 1605 49.1 1605 78.6C1605 107.8 1581.7 130.9 1552.7 130.9C1524 130.8 1500.7 107.8 1500.7 78.6ZM1585.3 78.6C1585.3 59.1 1571 45.6 1552.8 45.6C1534.6 45.6 1520.3 59.1 1520.3 78.6C1520.3 97.8 1534.6 111.4 1552.8 111.4C1571 111.4 1585.3 97.8 1585.3 78.6Z" fill="#ffffff"></path>
        <path d="M1685.3 84.7V128.6H1666.8V86.8C1666.8 77.1 1660.9 72.1 1652.5 72.1C1643.5 72.1 1636.8 77.3 1636.8 89.9V128.6H1618.3V56.9H1636.8V65C1641.1 58.6 1648.7 55 1658.2 55C1673.2 55 1685.3 65.7 1685.3 84.7Z" fill="#ffffff"></path>
        <path d="M1701 23.9H1719.5V128.7H1701V23.9Z" fill="#ffffff"></path>
        <path d="M1734.2 37C1734.2 30.8 1739.4 25.6 1745.6 25.6C1752 25.6 1757 30.8 1757 37C1757 43.2 1751.8 48.4 1745.6 48.4C1739.5 48.4 1734.2 43.2 1734.2 37ZM1736.4 56.9H1754.9V128.6H1736.4V56.9Z" fill="#ffffff"></path>
        <path d="M1839 84.7V128.6H1820.5V86.8C1820.5 77.1 1814.6 72.1 1806.2 72.1C1797.2 72.1 1790.5 77.3 1790.5 89.9V128.6H1772V56.9H1790.5V65C1794.8 58.6 1802.4 55 1811.9 55C1826.9 55 1839 65.7 1839 84.7Z" fill="#ffffff"></path>
        <path d="M1890.5 113.9C1897.6 113.9 1903.3 110.8 1906.7 106.8L1921.7 115.4C1915 125.1 1904.1 130.8 1890.3 130.8C1866.3 130.8 1850.9 114.4 1850.9 93C1850.9 71.6 1866.3 55.2 1888.7 55.2C1909.8 55.2 1925 72.1 1925 93C1925 95.6 1924.8 98.2 1924.3 100.6H1870.1C1873 109.9 1880.8 113.9 1890.5 113.9ZM1906.7 86.2C1904.3 76 1896.7 71.7 1888.9 71.7C1878.9 71.7 1872.3 76.9 1870.1 86.2H1906.7Z" fill="#ffffff"></path>
    </g>
    <defs>
        <clipPath id="clip0_2157_2065">
            <rect width="1925" height="160" fill="white"></rect>
        </clipPath>
    </defs>
</svg>