<svg version="1.1" class="logo logo--symbol" xmlns="http://www.w3.org/2000/svg" xmlns:xlink="http://www.w3.org/1999/xlink" x="0px" y="0px" viewBox="0 0 153.4 157.5" style="enable-background:new 0 0 153.4 157.5;" xml:space="preserve">
	<path class="st0" d="M118.5,131.3c2.5-2.3,4.9-4.8,7-7.4c1.4-1.8,2.8-3.6,4.1-5.5c1.3-1.9,2.5-3.8,3.6-5.9c2.7-5,4.9-10.4,6.3-16.1
		c0.6-2.3,1.1-4.6,1.4-6.9c0.5-3.5,0.8-7.1,0.8-10.8c0-3.7-0.3-7.3-0.8-10.8c-0.7-4.7-1.9-9.2-3.5-13.6c-0.4-1.1-0.8-2.2-1.3-3.2
		c-1.3-3.2-2.9-6.2-4.7-9.2c-12.4-20.5-35-34.2-60.7-34.2v141.9c17.1,0,32.9-6.1,45.1-16.2C116.8,132.8,117.7,132,118.5,131.3z
		 M75.7,144.6V12.9c7.2,0.5,14.2,2.2,20.8,5c7.9,3.3,14.9,8.1,21,14.2c6.1,6.1,10.8,13.1,14.2,21c3.4,8.1,5.2,16.8,5.2,25.7
		c0,8.9-1.7,17.6-5.2,25.7c-3.3,7.9-8.1,14.9-14.2,21c-6.1,6.1-13.1,10.8-21,14.2C89.9,142.4,82.9,144.1,75.7,144.6z"></path>
	<path class="st0" d="M151.4,82.1c-0.7-1.2-1.4-2.5-1.4-3.3c0-0.9,0.7-2.1,1.4-3.3c1-1.8,2.2-3.8,2-6c-0.3-2.3-1.9-4-3.3-5.5
		c-0.9-1-1.9-2-2.1-2.8c-0.2-0.8,0.2-2.2,0.7-3.5c0.6-2,1.3-4.2,0.6-6.3c-0.7-2.1-2.7-3.4-4.4-4.6c-1.1-0.8-2.3-1.6-2.7-2.3
		c-0.4-0.8-0.3-2.2-0.1-3.6c0.2-2.1,0.3-4.4-0.8-6.3c-1.2-1.9-3.4-2.7-5.3-3.5c-1.3-0.5-2.6-1-3.1-1.7c-0.5-0.7-0.7-2.1-0.9-3.5
		c-0.3-2-0.6-4.3-2.2-5.9c-1.6-1.6-3.9-1.9-5.9-2.2c-1.4-0.2-2.8-0.4-3.5-0.9c-0.7-0.5-1.2-1.9-1.7-3.1c-0.7-1.9-1.6-4.1-3.5-5.3
		c-1.9-1.2-4.2-1-6.3-0.8c-1.4,0.1-2.8,0.2-3.6-0.1c-0.7-0.4-1.5-1.5-2.3-2.7c-1.2-1.7-2.5-3.7-4.6-4.4c-2.1-0.7-4.3,0-6.3,0.6
		c-1.3,0.4-2.7,0.9-3.5,0.7c0,0,0,0,0,0c-0.3-0.1-0.6,0.1-0.6,0.5v3.3c0,0.2,0.2,0.4,0.4,0.5c1.7,0.2,3.4-0.4,5-0.9
		c1.3-0.4,2.8-0.9,3.6-0.6c0.8,0.3,1.7,1.6,2.5,2.8c1,1.5,2.2,3.3,4,4.1c1.8,0.9,3.9,0.7,5.8,0.6c1.4-0.1,3-0.2,3.7,0.2
		c0.7,0.4,1.3,1.9,1.8,3.2c0.7,1.7,1.4,3.7,3,4.9c1.6,1.2,3.6,1.5,5.5,1.8c1.4,0.2,3,0.4,3.5,1c0.6,0.6,0.8,2.2,1,3.5
		c0.3,1.8,0.6,3.9,1.8,5.5c1.2,1.6,3.2,2.3,4.9,3c1.3,0.5,2.8,1.1,3.2,1.8c0.4,0.7,0.3,2.3,0.2,3.7c-0.1,1.9-0.3,4,0.6,5.8
		c0.9,1.8,2.6,3,4.1,4c1.2,0.8,2.5,1.7,2.8,2.5c0.3,0.8-0.2,2.3-0.6,3.6c-0.6,1.8-1.2,3.8-0.7,5.7c0.4,1.9,1.9,3.4,3.1,4.8
		c1,1.1,2.1,2.2,2.2,3.1c0.1,0.8-0.7,2.2-1.4,3.4c-0.9,1.6-2,3.5-2,5.5c0,2,1.1,3.8,2,5.5c0.7,1.2,1.5,2.6,1.4,3.4
		c-0.1,0.9-1.1,2-2.2,3.1c-1.3,1.3-2.7,2.9-3.1,4.8c-0.4,2,0.2,4,0.7,5.8c0.4,1.3,0.9,2.8,0.6,3.6c-0.3,0.8-1.6,1.7-2.8,2.5
		c-1.5,1-3.3,2.2-4.1,4c-0.9,1.8-0.7,3.9-0.6,5.8c0.1,1.4,0.2,3-0.2,3.7c-0.4,0.7-1.9,1.3-3.2,1.8c-1.7,0.7-3.7,1.4-4.9,3
		c-1.2,1.6-1.5,3.6-1.8,5.5c-0.2,1.4-0.4,3-1,3.5c-0.6,0.6-2.2,0.8-3.5,1c-1.8,0.3-3.9,0.6-5.5,1.8c-1.6,1.2-2.3,3.2-3,4.9
		c-0.5,1.3-1.1,2.8-1.8,3.2c-0.7,0.4-2.3,0.3-3.7,0.2c-1.9-0.1-4-0.3-5.8,0.6c-1.8,0.9-3,2.6-4,4.1c-0.8,1.2-1.7,2.5-2.5,2.8
		c-0.8,0.3-2.3-0.2-3.6-0.6c-1.5-0.5-3.3-1-5-0.9c-0.2,0-0.4,0.2-0.4,0.5v3.3c0,0.3,0.3,0.5,0.6,0.5c0,0,0,0,0,0
		c0.8-0.2,2.2,0.2,3.5,0.7c2,0.6,4.2,1.3,6.3,0.6c2.1-0.7,3.4-2.7,4.6-4.4c0.8-1.1,1.6-2.3,2.3-2.7c0.8-0.4,2.2-0.3,3.6-0.1
		c2.1,0.2,4.4,0.3,6.3-0.8c1.9-1.2,2.7-3.4,3.5-5.3c0.5-1.3,1-2.6,1.7-3.1c0.7-0.5,2.1-0.7,3.5-0.9c2-0.3,4.3-0.6,5.9-2.2
		c1.6-1.6,1.9-3.9,2.2-5.9c0.2-1.4,0.4-2.8,0.9-3.5c0.5-0.7,1.9-1.2,3.1-1.7c1.9-0.7,4.1-1.6,5.3-3.5c1.2-1.9,1-4.2,0.8-6.3
		c-0.1-1.4-0.2-2.8,0.1-3.6c0.4-0.7,1.5-1.5,2.7-2.3c1.7-1.2,3.7-2.5,4.4-4.6c0.7-2.1,0-4.3-0.6-6.3c-0.4-1.3-0.9-2.7-0.7-3.5
		c0.2-0.8,1.2-1.8,2.1-2.8c1.4-1.5,3-3.2,3.3-5.5C153.6,85.8,152.5,83.8,151.4,82.1z"></path>
	<path class="st0" d="M112.2,51.9l-4.2-3.2c-1.1-0.8-2.6-0.6-3.4,0.5c-0.8,1.1-0.6,2.6,0.5,3.4l4.2,3.2c0.4,0.3,1,0.5,1.5,0.5
		c0.7,0,1.5-0.3,2-1C113.5,54.3,113.3,52.8,112.2,51.9z"></path>
	<path class="st0" d="M94,124.4l-4.2-3.2c-1.1-0.8-2.6-0.6-3.4,0.5c-0.8,1.1-0.6,2.6,0.5,3.4l4.2,3.2c0.4,0.3,1,0.5,1.5,0.5
		c0.7,0,1.5-0.3,2-1C95.3,126.7,95.1,125.2,94,124.4z"></path>
	<path class="st0" d="M91.5,73.6l-4.2,3.2c-1.1,0.8-1.3,2.4-0.5,3.4c0.5,0.6,1.2,1,2,1c0.5,0,1-0.2,1.5-0.5l4.2-3.2
		c1.1-0.8,1.3-2.4,0.5-3.4C94.1,73,92.6,72.8,91.5,73.6z"></path>
	<path class="st0" d="M110.1,104.8l-4.2-3.2c-1.1-0.8-2.6-0.6-3.4,0.5c-0.8,1.1-0.6,2.6,0.5,3.4l4.2,3.2c0.4,0.3,1,0.5,1.5,0.5
		c0.7,0,1.5-0.3,2-1C111.4,107.2,111.2,105.6,110.1,104.8z"></path>
	<path class="st0" d="M88.3,34.5c0.5,0,1-0.2,1.5-0.5l4.2-3.2c1.1-0.8,1.3-2.4,0.5-3.4c-0.8-1.1-2.4-1.3-3.4-0.5l-4.2,3.2
		c-1.1,0.8-1.3,2.4-0.5,3.4C86.9,34.2,87.6,34.5,88.3,34.5z"></path>
	<path class="st0" d="M119.4,82.8c0.5,0,1-0.2,1.5-0.5l4.2-3.2c1.1-0.8,1.3-2.4,0.5-3.4c-0.8-1.1-2.4-1.3-3.4-0.5l-4.2,3.2
		c-1.1,0.8-1.3,2.4-0.5,3.4C117.9,82.5,118.7,82.8,119.4,82.8z"></path>
	<path class="cd" d="M15.2,34.8C9.5,42,5.1,50.5,2.5,59.9C0.6,67-0.2,74.2,0,81.1c0.3,9.3,2.5,18.3,6.2,26.6
		c8.4,18.7,24.7,33.6,46,39.4c4.3,1.2,8.6,1.9,12.8,2.3V95.8c-9-3.1-14.1-12.7-11.6-21.9c1.6-6,6.1-10.5,11.6-12.4V7.9
		C45.5,9.6,27.4,19.4,15.2,34.8z M44.6,71.5c-1.1,4.2-1.2,8.4-0.5,12.3L8.6,85.9c-0.2-1.6-0.4-3.3-0.4-4.9C8,74.6,8.7,68,10.5,61.5
		c0-0.1,0.1-0.2,0.1-0.3c0.4-1.5,0.9-3,1.5-4.5c0.2-0.5,0.4-1,0.6-1.4c0.2-0.5,0.4-1,0.7-1.5l32.4,14.5
		C45.2,69.3,44.8,70.4,44.6,71.5z M38.1,25.1l16.7,25.8l2.6,4c-2.6,1.5-4.9,3.4-6.9,5.7l-3.4-3.1l-23-20.7
		C28.2,32.2,32.9,28.3,38.1,25.1z"></path>
</svg>