<svg class="icon icon--logo-full " width="214" height="56" viewBox="0 0 214 56" fill="none" xmlns="http://www.w3.org/2000/svg">
      <path d="M103.857 2.60671H72.2974V11.0374H83.3435V52.5178H92.8104V11.0374H103.857V2.60671ZM159.151 2.60671H149.684V52.5178H174.384V44.0871H159.151V2.60671ZM191.324 44.0871V11.0374H194.618C200.52 11.0374 202.848 13.9386 202.848 20.996V34.1285C202.848 41.5952 199.825 44.0871 194.618 44.0871H191.324ZM195.024 2.60671H181.848V52.5178H195.024C205.862 52.5178 211.9 47.8159 212.315 35.2381V19.8864C211.9 7.30861 205.862 2.60671 195.024 2.60671ZM124.64 44.7783C120.868 44.7783 118.467 43.2595 118.467 37.73V17.4036C118.467 11.8741 120.868 10.3553 124.64 10.3553C128.413 10.3553 130.813 11.8741 130.813 17.4036V37.73C130.813 43.2595 128.413 44.7783 124.64 44.7783ZM124.64 1.91553C115.444 1.91553 109.001 6.33549 109.001 18.6496V36.484C109.001 48.789 115.453 53.2181 124.64 53.2181C133.827 53.2181 140.28 48.789 140.28 36.484V18.6496C140.28 6.34458 133.836 1.91553 124.64 1.91553Z" fill="#00904C"></path>
      <path d="M9.46686 24.2838V10.46H14.3402C18.5276 10.46 21.0635 12.5336 21.0635 17.3719C21.0635 22.2102 18.5276 24.2838 14.3402 24.2838H9.46686ZM13.7175 2.57501H0V52.4861H9.46686V32.1597H13.9972L22.2277 52.4861H32.3805L23.049 30.2226C28.3284 28.2217 30.5214 23.7199 30.5214 17.4992C30.5214 8.09542 25.0976 2.56592 13.7175 2.56592M65.7897 2.57501H39.8619V52.4861H66.4846V44.0554H49.3378V30.9228H61.8911V22.4922H49.3378V11.0148H65.7987V2.58411L65.7897 2.57501Z" fill="#00904C"></path>
    </svg>