<svg class="site-footer__logo" width="89" height="11" viewBox="0 0 89 11" fill="none" xmlns="http://www.w3.org/2000/svg">
              <path fill-rule="evenodd" clip-rule="evenodd" d="M7.05083 2.89329C7.07451 3.84803 6.60674 4.73786 5.83713 5.20209H5.84459C6.80152 5.61981 7.31507 6.53459 7.31507 7.86547C7.31507 9.79379 5.97148 11 3.80384 11H0V10.0901H0.700157V0.901825H0.0298574V0H3.32761C4.72046 0 7.05083 0 7.05083 2.89329ZM6.1357 2.86414C6.1357 4.63056 4.61446 4.85561 3.29029 4.85561H1.62275V0.901825H3.63663C5.41166 0.901825 6.1357 1.47012 6.1357 2.86414ZM1.62275 5.75905H4.04419C5.11607 5.75905 6.39247 6.11525 6.39247 7.8088C6.39247 9.32264 5.48481 10.0901 3.70531 10.0901H1.62275V5.75905ZM12.1918 5.5C12.1918 2.10729 14.296 0 17.6862 0C21.0651 0 23.1644 2.10729 23.1644 5.5C23.1644 8.89271 21.0471 11 17.6683 11C14.2895 11 12.1918 8.89271 12.1918 5.5ZM17.6683 10.0697C20.4978 10.0697 22.1196 8.404 22.1196 5.5C22.1196 2.64 20.4571 0.931857 17.6862 0.931857C14.8616 0.931857 13.2317 2.59757 13.2317 5.5C13.2317 8.36157 14.8974 10.0697 17.6683 10.0697ZM34.9091 0.902489H33.9547V0H36.5753V0.902489H35.9063V11H34.787L28.6388 1.58786V10.0975H29.6075V11H26.8219V10.0975H27.64V0.902489H26.8219V0H28.7957L34.9091 9.35219V0.902489ZM49.0253 10.0975H44.4227V0.902489H45.6685V0H42.6712V0.902489H43.4617V10.0975H42.6712V11H49.9863V8.6976H49.0253V10.0975ZM58.5289 0C55.5151 0 53.6438 2.10729 53.6438 5.5C53.6438 8.89271 55.5091 11 58.5122 11C61.5154 11 63.3973 8.89271 63.3973 5.5C63.3973 2.10729 61.532 0 58.5289 0ZM58.5122 10.0697C56.0606 10.0697 54.5969 8.36157 54.5969 5.5C54.5969 2.59757 56.0303 0.931857 58.5289 0.931857C60.979 0.931857 62.4427 2.64 62.4427 5.5C62.4427 8.404 61.0108 10.0697 58.5122 10.0697ZM68.274 5.5C68.274 2.10729 70.1456 0 73.1583 0C76.1619 0 78.0274 2.10729 78.0274 5.5C78.0274 8.89271 76.1482 11 73.1431 11C70.138 11 68.274 8.89271 68.274 5.5ZM69.2287 5.5C69.2287 8.36157 70.6911 10.0697 73.1431 10.0697H73.1446C75.6436 10.0697 77.0757 8.404 77.0757 5.5C77.0757 2.64 75.6118 0.931857 73.1598 0.931857C70.6608 0.931857 69.2287 2.59757 69.2287 5.5ZM83.7706 5.19134L88.2849 10.0975H89V11H86.6513V10.0975H86.9943L83.2663 6.0193V10.0975H83.9043V11H81.6849V10.0975H82.3782V0.902489H81.6849V0H83.9043V0.902489H83.2663V4.43629L86.8155 0.902489H86.7457V0H88.9375V0.902489H88.0916L83.7706 5.19134Z" fill="white"></path>
            </svg>