<svg xmlns="http://www.w3.org/2000/svg" aria-hidden="true" focusable="false" role="presentation" class="icon icon--wide icon--full-color icon-logo-white-full-color" viewBox="0 0 134 36"><path d="M28.3 1.01C27.111.713 23.093 0 17.982 0 12.869 0 8.85.712 7.663 1.01 6.475 1.31 1.55 2.18.526 9.266.525 9.265 0 12.308 0 18c0 5.692.525 8.735.525 8.735 1.024 7.085 5.95 7.957 7.137 8.254C8.852 35.29 12.867 36 17.98 36c5.113 0 9.129-.712 10.318-1.01 1.19-.298 6.116-1.17 7.137-8.255 0 0 .525-3.043.525-8.735 0-5.691-.525-8.735-.525-8.735-1.021-7.085-5.947-7.955-7.137-8.254zm.542 21.151v3.525h-1.514v3.971h-4.059v-3.971h-9.63c-3.31 0-6-2.691-6-6.002V6.614H11.884v12.75c0 1.363.852 2.214 2.22 2.218h9.162V10.618h4.059V21.582h1.514v.58h.002zM59.038 10.468a7.38 7.38 0 0 0-6.109 3.281 7.367 7.367 0 0 0-6.106-3.28c-4.048 0-7.342 3.295-7.344 7.345v7.878h2.484v-7.878c0-2.68 2.181-4.86 4.86-4.864 2.67.004 4.85 2.186 4.863 4.864v7.878H54.18v-7.878a4.88 4.88 0 0 1 4.861-4.864c2.673.004 4.853 2.186 4.864 4.864v7.878H66.38v-7.878c-.004-4.05-3.297-7.346-7.34-7.346zM109.71 10.468a7.376 7.376 0 0 0-6.109 3.281 7.373 7.373 0 0 0-6.109-3.28c-4.047 0-7.339 3.295-7.343 7.345v7.878H92.635v-7.878c0-2.68 2.179-4.86 4.857-4.862 2.67.002 4.853 2.184 4.866 4.862v7.878h2.49v-7.878a4.876 4.876 0 0 1 4.862-4.862c2.672.002 4.853 2.184 4.863 4.862v7.878H117.051v-7.878c-.002-4.05-3.293-7.346-7.341-7.346zM78.493 10.468c-4.046 0-7.341 3.296-7.344 7.346v.534c0 4.05 3.294 7.344 7.34 7.344 4.045 0 7.339-3.294 7.343-7.344v-.534c0-4.05-3.291-7.346-7.34-7.346zm4.853 7.878a4.874 4.874 0 0 1-4.857 4.865c-2.67-.007-4.847-2.185-4.858-4.865v-.534c.007-2.676 2.186-4.86 4.862-4.865 2.672.005 4.846 2.187 4.855 4.865v.534h-.002zM128.006 16.39l-.512-.01h-2.141c-1.243 0-2.253-.509-2.253-1.753 0-1.235 1.01-1.748 2.253-1.752h5.178V10.468h-5.178c-2.571 0-4.662 1.588-4.662 4.162 0 2.57 2.091 4.16 4.662 4.163l1.716.01h.937a2.26 2.26 0 0 1 2.252 2.255c0 1.24-1.011 2.25-2.252 2.253h-6.044V25.724h6.044a4.67 4.67 0 0 0 4.663-4.663 4.672 4.672 0 0 0-4.663-4.67zM132.78 10.47c-.694 0-1.241.526-1.241 1.2 0 .673.547 1.205 1.235 1.205.686 0 1.226-.534 1.226-1.206 0-.673-.54-1.199-1.22-1.199zm0 2.155c-.534 0-.935-.423-.935-.958 0-.525.401-.957.92-.957.534 0 .927.432.927.964.002.528-.393.96-.912.95z" fill="#fff"></path><path d="M133.052 11.706v-.015c.138-.043.247-.139.247-.284a.302.302 0 0 0-.124-.257c-.081-.058-.183-.094-.41-.094-.196 0-.35.022-.459.037v1.198h.278v-.474h.13c.154 0 .227.058.248.184.036.145.058.248.096.293h.293a1.046 1.046 0 0 1-.088-.293c-.036-.165-.096-.259-.211-.295zm-.329-.088h-.131v-.344a.73.73 0 0 1 .154-.015c.175 0 .256.073.256.184-.002.124-.126.175-.279.175z" fill="#fff"></path></svg>