<svg xmlns="http://www.w3.org/2000/svg" class="c-header__logo-icon" fill="none" viewBox="0 0 624 86">
  <path fill="currentcolor" d="M237.662 65.216c-2.39 1.911-5.141 3.464-8.247 4.66-3.11 1.194-6.576 1.79-10.402 1.79-4.065 0-7.833-.734-11.299-2.208-3.466-1.474-6.476-3.485-9.027-6.032-2.551-2.548-4.564-5.573-6.038-9.079-1.474-3.504-2.209-7.286-2.209-11.346 0-3.982.694-7.705 2.089-11.17 1.394-3.463 3.35-6.488 5.858-9.075 2.511-2.589 5.461-4.638 8.849-6.154 3.387-1.51 7.072-2.267 11.058-2.267 4.143 0 7.93.795 11.359 2.388 3.425 1.593 6.414 3.663 8.965 6.21l10.402-10.99c-3.826-3.66-8.329-6.567-13.509-8.717C230.33 1.074 224.63 0 218.414 0c-6.536 0-12.514 1.117-17.934 3.345-5.421 2.23-10.063 5.277-13.928 9.138-3.868 3.862-6.872 8.422-9.026 13.675-2.153 5.256-3.228 10.87-3.228 16.843 0 5.97 1.095 11.585 3.289 16.841 2.19 5.256 5.238 9.815 9.147 13.675 3.901 3.863 8.565 6.91 13.988 9.14C206.139 84.882 212.116 86 218.653 86c7.729 0 14.586-1.472 20.564-4.42 5.977-2.944 10.839-6.809 14.587-11.586V41.502h-16.142v23.714ZM128.659 41.026l-23.425-39.86H87.611l32.759 55.596-14.773 28.044h17.505l44.176-83.64h-17.622l-20.997 39.86ZM58.82 68.263c-3.904 2.268-8.606 3.403-14.107 3.403-4.064 0-7.829-.736-11.297-2.21-3.466-1.472-6.475-3.481-9.026-6.032-2.553-2.547-4.564-5.571-6.038-9.077C16.875 50.845 16.14 47.061 16.14 43c0-3.98.697-7.702 2.093-11.167 1.393-3.462 3.346-6.488 5.859-9.078 2.51-2.588 5.456-4.637 8.847-6.151 3.386-1.51 7.07-2.27 11.057-2.27 4.143 0 7.93.798 11.36 2.39 3.425 1.595 6.414 3.662 8.966 6.211l10.402-10.99c-3.828-3.66-8.33-6.57-13.512-8.718C56.03 1.076 50.333.001 44.116.001c-6.535 0-12.515 1.114-17.933 3.345-5.422 2.23-10.064 5.275-13.928 9.136-3.867 3.862-6.874 8.421-9.026 13.677S0 37.03 0 43c0 5.972 1.095 11.587 3.288 16.842 2.191 5.257 5.24 9.816 9.145 13.678 3.905 3.861 8.568 6.908 13.989 9.135C31.842 84.885 37.819 86 44.356 86c7.729 0 14.585-1.472 20.562-4.42 5.978-2.945 10.839-6.807 14.587-11.586L68.386 60.08c-2.472 3.187-5.659 5.912-9.565 8.183ZM336.499 55.661 289.874 1.194h-11.357v83.61h16.14V30.34l46.625 54.465h11.359V1.194h-16.142v54.467ZM616.946 14.066a5.82 5.82 0 0 1-5.832-5.827 5.82 5.82 0 0 1 5.832-5.828 5.82 5.82 0 0 1 5.832 5.828 5.819 5.819 0 0 1-5.832 5.827Zm0-12.872c-3.889 0-7.052 3.16-7.052 7.045 0 3.886 3.163 7.046 7.052 7.046S624 12.125 624 8.239c0-3.885-3.165-7.045-7.054-7.045ZM394.638 50.191h34.95V35.857h-34.95V15.529h40.068V1.194h-56.208v83.61h57.404V70.472h-41.264v-20.28ZM534.149 15.528h24.117v69.278h16.14V15.528h24.117V1.194h-64.374v14.334ZM454.191 15.528h24.12v69.278h16.137V15.528h24.12V1.194h-64.377v14.334Z"></path>
  <path fill="currentcolor" d="M617.861 6.96a.727.727 0 0 1-.141.237.615.615 0 0 1-.241.155 1.338 1.338 0 0 1-.436.052h-1.111V5.92h1.111c.192 0 .337.018.436.058.1.04.179.093.241.16a.731.731 0 0 1 .141.237c.037.091.055.192.055.296a.77.77 0 0 1-.055.29Zm.778 1.12a1.906 1.906 0 0 0 .615-1.417 1.9 1.9 0 0 0-1.234-1.795c-.242-.092-.541-.138-.899-.138h-2.527v6.938h1.338V8.594h.656l1.758 3.074h1.484l-1.884-3.181c.262-.086.495-.223.693-.407Z"></path>
</svg>