<svg class="navbar-logo" width="140" height="140" viewBox="0 0 140 140" fill="none" xmlns="http://www.w3.org/2000/svg">
      <path fill-rule="evenodd" clip-rule="evenodd" d="M70 140C108.66 140 140 108.66 140 70C140 31.3402 108.66 0 70 0C31.3402 0 0 31.3402 0 70C0 108.66 31.3402 140 70 140Z" fill="#005120"></path>
      <path fill-rule="evenodd" clip-rule="evenodd" d="M80.0237 81.8994V60.4794C83.2157 60.4794 86.8557 59.8074 89.9917 58.6874V66.4177C91.2552 62.5829 94.0178 58.6827 99.8477 58.6827C106.4 58.6827 110.931 63.6667 110.931 71.6747C110.931 82.3707 102.587 88.9227 93.963 88.9227C92.4043 88.9227 91.1047 88.7116 89.987 88.3114V99.4507C86.795 99.4507 83.155 100.123 80.019 101.243V83.0287C78.2585 86.8612 75.035 88.9274 70.779 88.9274C64.059 88.9274 63.8957 83.2107 63.8957 79.4634V60.4794C67.0877 60.4794 70.7277 59.8074 73.8637 58.6874V81.5914C73.8637 84.3914 74.9837 85.1194 76.4397 85.1194C78.031 85.1194 79.0857 84.2584 80.0237 81.9017V81.8994ZM45.0237 88.9251C38.8637 88.9251 33.2637 87.4084 33.2637 83.1011C33.2637 80.4177 35.3917 78.7331 37.5197 78.7331C39.5917 78.7331 41.3837 80.3571 41.3837 82.8164C41.3837 84.4404 40.5997 86.2884 38.5277 87.6324C39.5138 87.8967 40.5307 88.0285 41.5517 88.0244C45.3597 88.0244 48.435 86.1764 48.435 82.5924C48.435 75.9284 33.651 76.6004 33.651 67.4164C33.651 61.5364 39.3677 58.6804 46.587 58.6804C52.747 58.6804 58.347 60.1971 58.347 64.5044C58.347 67.1877 56.219 68.8724 54.091 68.8724C52.019 68.8724 50.227 67.2484 50.227 64.7891C50.227 63.1651 51.011 61.3171 53.083 59.9731C52.076 59.7184 51.0417 59.5867 50.003 59.5811C46.8203 59.5834 43.787 61.0394 43.787 63.9514C43.787 70.2794 59.3037 70.2794 59.3037 79.7434C59.3037 85.8474 52.2477 88.9274 45.0237 88.9274V88.9251ZM68.8797 57.6794C65.4637 57.6234 62.9997 55.1034 62.9997 52.2474C62.9997 49.4474 65.4637 46.9834 68.8797 46.9274C72.2957 46.8714 74.7597 49.4474 74.7597 52.2474C74.7597 55.1034 72.2957 57.7307 68.8797 57.6794ZM93.0157 88.3627C97.0477 88.3627 99.8477 82.0907 99.8477 72.9067C99.8477 66.6907 98.2797 62.8267 94.8077 62.8267C92.0077 62.8267 90.5517 65.5707 89.9917 68.1467V84.3867C89.9917 86.4027 90.4957 88.3627 93.0157 88.3627ZM36.437 56.6994C34.5552 56.6994 34.5015 55.3916 34.5015 54.0289V47.3451H33.8202V47.1654C35.1642 47.1654 36.9562 45.7654 37.6188 44.2989H37.6912V47.1654H39.2078V47.3451H37.6912V54.1724C37.6912 55.3916 38.0493 55.6237 38.5685 55.7136C38.0435 56.4661 37.1837 56.6994 36.437 56.6994ZM49.0522 54.1724C49.0522 55.3916 49.1782 55.7859 49.7685 55.9819C49.3508 56.4661 48.5447 56.6994 47.7922 56.6994C45.9103 56.6994 45.8567 55.6237 45.8567 54.0289V49.8534C45.8567 49.0297 45.3725 48.5817 44.7273 48.5817C44.1008 48.5817 43.2818 49.1744 42.8455 50.1626V56.5559C41.8247 56.5559 40.6953 56.5921 39.6558 56.6994V44.0154C40.7434 44.001 41.8212 43.8071 42.8455 43.4414V49.8406C43.8278 47.8094 45.2243 47.0254 46.538 47.0254C48.2763 47.0254 49.0463 48.2982 49.0463 49.7682V54.1759L49.0522 54.1724ZM59.9115 53.8679L60.0375 53.9216C59.2605 55.6634 57.9037 56.6994 55.5867 56.6994C52.2535 56.6994 50.4802 54.7639 50.4802 51.8612C50.4802 48.9586 52.6303 47.0219 55.9273 47.0219C57.5408 47.0219 59.6187 47.4886 59.6187 49.3704C59.6187 50.3737 59.0283 52.0759 55.8562 52.0759C55.2444 52.0682 54.6341 52.0147 54.0303 51.9161C54.1342 54.5352 55.4303 55.8267 57.003 55.8267C58.4368 55.8267 59.3363 55.0206 59.9057 53.8737L59.9115 53.8679ZM56.2202 47.1841C54.8983 47.1841 53.993 49.6959 54.0315 51.7562C54.1156 51.7658 54.2001 51.7709 54.2847 51.7714C55.9693 51.7714 57.0847 50.1579 57.0847 48.4382C57.0847 47.6134 56.7802 47.1841 56.2248 47.1841H56.2202Z" fill="#FFE3CE"></path>
    </svg>