<svg xmlns="http://www.w3.org/2000/svg" class="icon icon-logo" id="icon-logo" viewBox="0 0 1520 152" fill="none">
    <path fill="#000" fill-rule="evenodd" d="M262.421 76.357v-1.638C262.421 28.455 298.298 0 342.58 0c45.512 0 80.77 25.59 80.77 73.284v1.638c0 46.882-32.185 76.561-81.999 76.561-49.404 0-78.93-29.679-78.93-75.126Zm103.937-1.845v1.638c0 21.292-9.225 32.756-23.575 32.756-14.964 0-23.366-10.646-23.366-32.756v-1.638c0-22.313 9.428-32.138 23.163-32.138 13.938 0 23.778 9.622 23.778 32.138Z" clip-rule="evenodd"></path>
    <path fill="#000" d="M105.984 2.253H0V148.62h54.733v-44.629h41.62V64.484h-41.62V44.012h51.251V2.252Z"></path>
    <path fill="#000" fill-rule="evenodd" d="M186.566 2.253h-64.372V148.62h54.325V102.15h3.074l22.756 46.471h56.784L229 90.276c13.121-7.162 21.523-18.626 21.523-37.87v-.82c0-31.728-20.293-49.333-63.957-49.333Zm-3.899 65.71c10.661 0 15.375-4.3 15.375-12.894v-.821c0-7.984-4.714-11.463-14.964-11.463h-6.559v25.178h6.148Z" clip-rule="evenodd"></path>
    <path fill="#000" d="M509.262 2.253H439.15V148.62h48.378V70.829l27.881 77.792h18.449l29.114-77.792v77.792h54.322V2.253h-68.875L528.529 60.8 509.262 2.253ZM674.506 2.253h105.988v41.76h-51.251v20.47h41.619v39.509h-41.619v44.629h-54.737V2.253ZM795.88 2.253v83.93c0 43.601 25.837 65.3 71.141 65.3 42.024 0 70.52-18.833 70.52-65.097V2.253H882.6V84.95c0 14.537-1.229 23.955-15.579 23.955-14.561 0-16.605-8.805-16.605-24.361V2.253H795.88ZM987.576 44.012h-35.469V2.252h125.873v41.76h-35.46v104.609h-54.944V44.012ZM1092.54 2.253v83.93c0 43.601 25.83 65.3 71.14 65.3 42.03 0 70.52-18.833 70.52-65.097V2.253h-54.94V84.95c0 14.537-1.23 23.955-15.58 23.955-14.55 0-16.61-8.805-16.61-24.361V2.253h-54.53Z"></path>
    <path fill="#000" fill-rule="evenodd" d="M1257.18 2.253h64.37c43.66 0 63.95 17.605 63.95 49.333v.82c0 19.244-8.4 30.708-21.52 37.87l30.13 58.345h-56.78l-22.76-46.471h-3.07v46.471h-54.32V2.253Zm75.84 52.816c0 8.594-4.71 12.894-15.37 12.894h-6.15V42.785h6.56c10.25 0 14.96 3.48 14.96 11.463v.82Z" clip-rule="evenodd"></path>
    <path fill="#000" d="M1516.92 2.253h-109.47V148.62H1520v-41.556h-58.22V93.963h43.46V56.297h-43.46V43.809h55.14V2.253Z"></path>
  </svg>