<svg xmlns="http://www.w3.org/2000/svg" aria-hidden="true" focusable="false" role="presentation" class="icon icon--wide icon-logo" viewBox="0 0 455.998 73.289"><path d="M0 71.326v-2.648L45.658 3.91H1.272V1.955h46.246v2.839L2.15 69.371h46.745v1.955H0zM139.724 54.668c0 2.941-.579 5.564-1.714 7.887-1.149 2.32-2.664 4.281-4.558 5.877-1.898 1.607-4.14 2.816-6.722 3.633-2.573.814-5.271 1.223-8.081 1.223-4.301 0-8.237-.771-11.798-2.297-3.566-1.537-6.523-3.61-8.868-6.227l1.661-1.467c2.479 2.678 5.374 4.68 8.673 6.023a26.872 26.872 0 0 0 10.236 2.01c2.548 0 4.96-.375 7.246-1.127 2.287-.75 4.32-1.828 6.086-3.236 1.762-1.396 3.149-3.131 4.159-5.193 1.016-2.053 1.529-4.422 1.529-7.102s-.56-4.928-1.671-6.766a16.412 16.412 0 0 0-4.31-4.695c-1.767-1.311-3.775-2.402-6.024-3.285a108.85 108.85 0 0 0-6.814-2.398 90.339 90.339 0 0 1-7.886-2.887c-2.383-1.02-4.445-2.256-6.173-3.727a15.335 15.335 0 0 1-4.025-5.295c-.945-2.062-1.418-4.547-1.418-7.498 0-2.872.574-5.436 1.714-7.687a16.666 16.666 0 0 1 4.668-5.688c1.951-1.533 4.217-2.711 6.804-3.522C115.02.402 117.747 0 120.617 0c3.533 0 6.874.67 10.042 2.004 3.17 1.339 5.765 3.256 7.791 5.736l-1.661 1.465c-1.833-2.286-4.164-4.067-7.013-5.34-2.844-1.263-5.93-1.907-9.252-1.907-2.359 0-4.658.329-6.912.981a19.262 19.262 0 0 0-6.12 2.985 15.302 15.302 0 0 0-4.411 5.047c-1.116 2.022-1.675 4.406-1.675 7.149 0 2.683.494 4.945 1.476 6.812a15.101 15.101 0 0 0 3.917 4.752 22.515 22.515 0 0 0 5.537 3.233 95.232 95.232 0 0 0 6.319 2.345c2.942.991 5.688 1.986 8.227 2.996 2.554 1.01 4.791 2.236 6.723 3.67 1.922 1.438 3.427 3.184 4.5 5.242 1.071 2.062 1.619 4.559 1.619 7.498zM214.483 56.092c-.921 3.432-2.436 6.412-4.515 8.965-2.088 2.549-4.814 4.553-8.179 6.023-3.362 1.467-7.493 2.207-12.391 2.207s-9.034-.74-12.401-2.207c-3.362-1.471-6.086-3.476-8.174-6.023-2.088-2.549-3.593-5.533-4.505-8.965-.917-3.432-1.373-7.107-1.373-11.027V1.955h2.15v42.721c0 2.742.281 5.668.831 8.773a22.996 22.996 0 0 0 3.437 8.614c1.723 2.65 4.179 4.859 7.339 6.615 3.175 1.767 7.401 2.649 12.696 2.649 5.16 0 9.319-.85 12.492-2.549 3.175-1.695 5.63-3.869 7.401-6.514 1.752-2.645 2.936-5.523 3.519-8.621.598-3.105.888-6.096.888-8.969V1.955h2.155v43.108c-.001 3.921-.462 7.597-1.37 11.029zM282.675 19.199c0 2.946-.533 5.541-1.611 7.795-1.082 2.25-2.528 4.131-4.361 5.631-1.829 1.5-3.971 2.64-6.418 3.427-2.46.788-5.047 1.179-7.79 1.179h-17.938v34.096h-2.146V1.955h18.815c2.476 0 4.99.281 7.543.834 2.545.553 4.85 1.477 6.908 2.787 2.051 1.311 3.736 3.076 5.047 5.293 1.3 2.225 1.951 4.996 1.951 8.33zm-2.151 0c0-2.938-.561-5.389-1.666-7.35-1.111-1.956-2.545-3.527-4.312-4.699-1.766-1.184-3.741-2.027-5.93-2.549a28.004 28.004 0 0 0-6.519-.783h-17.543v31.549h18.036c2.16 0 4.312-.291 6.462-.879 2.159-.588 4.086-1.543 5.781-2.849 1.693-1.301 3.071-2.979 4.115-5.038 1.048-2.062 1.576-4.525 1.576-7.402zM345.476 19.199c0 2.946-.537 5.541-1.615 7.795-1.082 2.25-2.528 4.131-4.357 5.631s-3.97 2.64-6.415 3.427c-2.455.788-5.048 1.179-7.786 1.179h-17.938v34.096h-2.155V1.955h18.813c2.483 0 4.99.281 7.539.834 2.554.553 4.848 1.477 6.906 2.787s3.736 3.076 5.042 5.293c1.315 2.225 1.966 4.996 1.966 8.33zm-2.161 0c0-2.938-.545-5.389-1.656-7.35-1.116-1.956-2.549-3.527-4.311-4.699-1.771-1.184-3.742-2.027-5.926-2.549a27.911 27.911 0 0 0-6.514-.783h-17.542v31.549h18.03c2.15 0 4.312-.291 6.457-.879a16.506 16.506 0 0 0 5.785-2.849c1.689-1.301 3.062-2.979 4.106-5.038 1.048-2.062 1.571-4.525 1.571-7.402zM368.013 71.326V1.953h2.149v67.418h34.484v1.955h-36.633zM432.189 40.953v30.373h-2.159V40.953l-23.807-39h2.55l22.428 36.839 22.351-36.839h2.446l-23.809 39z"></path></svg>