<svg class="header_logo_main" xmlns="http://www.w3.org/2000/svg" version="1.1" viewBox="0 0 60 40.3" fill="#161616">
  <path d="M8.7,40c-1.9-.5-3.5-1.4-4.8-2.8-1.3-1.4-2.3-3.1-3-5.1C.3,30,0,27.7,0,25.1c0-2.6.4-5.4,1.2-8.3.8-2.9,1.8-5.5,3.1-7.8,1.3-2.3,2.7-4.1,4.3-5.6,1.6-1.4,3.3-2.4,5.1-3,1.8-.5,3.7-.6,5.6,0,1.9.5,3.5,1.4,4.8,2.8,1.3,1.4,2.3,3.1,3,5.1.7,2,1,4.4,1,7,0,2.6-.4,5.4-1.2,8.3-.8,2.9-1.8,5.5-3.1,7.8-1.3,2.3-2.7,4.1-4.3,5.6s-3.3,2.4-5.1,3-3.7.6-5.6,0ZM10.3,34.4c1.2.3,2.4.3,3.5-.2s2.2-1.2,3.3-2.2c1-1.1,2-2.4,2.8-4,.8-1.6,1.5-3.5,2.1-5.6.6-2.1.9-4,1-5.9,0-1.8,0-3.5-.4-4.9-.4-1.4-.9-2.6-1.7-3.6-.8-1-1.8-1.6-3-1.9-1.2-.3-2.4-.3-3.5.2-1.2.4-2.3,1.2-3.3,2.2-1,1.1-2,2.4-2.8,4-.8,1.6-1.5,3.5-2.1,5.6-.6,2.1-.9,4-1,5.9,0,1.8,0,3.5.4,4.9.4,1.4.9,2.6,1.7,3.6.8,1,1.8,1.6,3,1.9h0Z"></path>
  <path d="M40.7,39.9c-1.9-.5-3.5-1.4-4.8-2.8-1.3-1.4-2.3-3.1-3-5.1-.7-2-1-4.4-1-7,0-2.6.4-5.4,1.2-8.3.8-2.9,1.8-5.5,3.1-7.8,1.3-2.3,2.7-4.1,4.3-5.6,1.6-1.4,3.3-2.4,5.1-3,1.8-.5,3.7-.6,5.6,0,1.9.5,3.5,1.5,4.8,2.8,1.3,1.4,2.3,3.1,3,5.1.7,2,1,4.4,1,7,0,2.6-.4,5.4-1.2,8.3-.8,2.9-1.8,5.5-3.1,7.8-1.3,2.3-2.7,4.1-4.3,5.6-1.6,1.4-3.3,2.4-5.1,3s-3.7.6-5.6,0ZM42.2,34.3c1.2.3,2.4.3,3.5-.2,1.2-.4,2.2-1.2,3.3-2.2,1-1.1,2-2.4,2.8-4s1.5-3.5,2.1-5.6c.6-2.1.9-4,1-5.9,0-1.8,0-3.5-.4-4.9-.4-1.4-.9-2.6-1.7-3.6-.8-1-1.8-1.6-3-1.9-1.2-.3-2.4-.3-3.5.2-1.2.4-2.3,1.2-3.3,2.2-1,1.1-2,2.4-2.8,4s-1.5,3.5-2.1,5.6c-.6,2.1-.9,4-1,5.9,0,1.8,0,3.5.4,4.9.4,1.4.9,2.6,1.7,3.6.8,1,1.8,1.6,3,1.9h0Z"></path>
</svg>