<svg xmlns="http://www.w3.org/2000/svg" class="denman-logo" width="260" height="35" viewBox="0 0 267.3 28.9" aria-label="Denman Logo">
              <path d="M265.2,7.8c0-0.8-0.6-1.3-1.5-1.3h-1.8v3.8h0.9V9.1h0.6l0.8,1.2h1.1l-1-1.3C264.9,8.8,265.2,8.3,265.2,7.8z M263.6,8.4h-0.8
                v-1h0.8c0.4,0,0.6,0.2,0.6,0.5S264,8.4,263.6,8.4L263.6,8.4z M263.4,4.6c-2.1,0-3.8,1.7-3.8,3.9v0c0,2.1,1.7,3.8,3.8,3.8
                c2.1,0,3.8-1.7,3.8-3.8v0C267.3,6.3,265.6,4.6,263.4,4.6L263.4,4.6z M266.5,8.5c0,1.7-1.3,3.2-3.1,3.2h0c-1.7,0-3.1-1.4-3.1-3.1
                c0,0,0,0,0,0c0,0,0,0,0-0.1v0c-0.1-1.7,1.2-3.2,2.8-3.3c1.7-0.1,3.2,1.2,3.3,2.8c0,0,0,0.1,0,0.1C266.5,8.3,266.5,8.4,266.5,8.5
                L266.5,8.5z M91.2,5h-9.3v23.9h9.3c7.5,0,12.7-5.2,12.7-12v-0.1C103.9,10.2,98.7,5,91.2,5z M98.4,17c0.2,3.8-2.7,7-6.5,7.1
                c-0.2,0-0.5,0-0.7,0h-4V9.8h4c3.8-0.2,7,2.7,7.2,6.5C98.4,16.5,98.4,16.7,98.4,17L98.4,17z M117.9,19.2h11.3v-4.7h-11.3V9.7h12.8V5
                h-18v23.9h18.2v-4.7h-13V19.2z M157.1,19.7L145.9,5H141v23.9h5.2V13.7l11.6,15.2h4.5V5h-5.2V19.7z M184,15.1L177.8,5h-5.6v23.9h5.1
                V13.4l6.7,10.1h0.1l6.7-10.2v15.6h5.2V5h-5.6L184,15.1z M212.7,4.9l-10.2,24.1h5.4l2.2-5.4h10.1l2.2,5.4h5.5L217.5,4.9H212.7z
                M211.8,18.9l3.2-7.8l3.2,7.8L211.8,18.9z M250,19.7L238.8,5H234v23.9h5.2V13.7l11.6,15.2h4.5V5H250V19.7z"></path>
              <path fill="#8D7B2D" d="M47.2,28.9H29.4l-0.5-0.5v-1.8l0.5-0.5h18.4L47.2,28.9z M29.4,0l-0.5,0.8v23.1l0.5,0.7h18.8
                c0,0,3.5-13,10.7-17.9c-3.8,0-5.8,0.9-8.1,3.4c-3.2-1.5-6.3-0.8-7.1,0.1c2.6,0.8,4.2,3.3,4,6c-0.7,3.3-4,5.4-7.4,4.7
                c-2.9-0.6-5-3.3-4.9-6.3c0.4-2.7,2.8-4.8,5.6-4.8c-2.5-3.8-6.3-3.4-7.9-2.5C33,4.6,31.5,1.2,29.4,0L29.4,0z"></path>
              <path fill="#B8A352" d="M11,26.1h18.4v2.8H11.6L11,26.1z M29.4,0c-2,1.2-3.6,4.6-3.7,7.3c-1.5-0.9-5.3-1.3-7.9,2.5
                c2.8,0.1,5.1,2.1,5.6,4.8c0.1,3.4-2.6,6.3-6,6.4c-3,0.1-5.6-1.9-6.3-4.9c-0.3-2.7,1.4-5.2,4-6c-0.8-0.8-3.9-1.6-7.1-0.1
                C5.8,7.6,3.8,6.7,0,6.7c7.1,4.9,10.7,17.9,10.7,17.9h18.8L29.4,0L29.4,0z"></path>
            </svg>