<svg xmlns="http://www.w3.org/2000/svg" class="uci-logo" viewBox="0 0 325.89 53.01"><defs></defs><g id="Layer_2" data-name="Layer 2"><g id="Layer_1-2" data-name="Layer 1"><path fill="#010101" d="M138.68,36.1a23.62,23.62,0,0,1-14.47,5.16C113.7,41.26,107,35.48,107,26.71c0-10.26,8.15-14.84,16.47-14.84A25.27,25.27,0,0,1,137.9,16.6l6.56-10.52c-4.6-3.62-12.74-6.08-22-6.08C104.8,0,91.81,10.46,91.81,26.71c0,15.42,12.63,26.3,30.64,26.3,10.17,0,16.93-2.47,22.62-6.25Z"></path><rect fill="#1187c9" y="0.77" width="23.59" height="10.29"></rect><rect fill="#ca2546" y="11.07" width="23.59" height="10.29"></rect><path fill="#010101" d="M23.59,28.5V21.36H0V31.65H23.69c-.07-1-.1-2.07-.1-3.15"></path><path fill="#fedc00" d="M23.69,31.65H0V42H25.67a38,38,0,0,1-2-10.3"></path><path fill="#45b649" d="M31.35,51.58A27.4,27.4,0,0,1,25.67,42H0V52.24H32l-.63-.66"></path><path fill="#010101" d="M32,.77H47.67V31.26c0,6,4.07,10.33,10.86,10.33s10.84-4.35,10.84-10.33V.77H85.05V28.5C85.05,42.2,79.11,53,58.53,53S32,42.2,32,28.5Z"></path><rect fill="#010101" x="151.16" y="0.77" width="15.59" height="51.47"></rect><path fill="#010101" d="M192.12,7.09c0,3.85-1.52,5.85-4.92,5.85q-4.84,0-4.85-5.85V.77h2.77V7.38c0,2.1.8,3.16,2.12,3.16s2.11-1.06,2.11-3.16V.77h2.77Z"></path><polygon fill="#010101" points="205.22 12.73 202.73 12.73 197.67 5.8 197.67 12.73 194.91 12.73 194.91 0.77 197.35 0.77 202.46 7.74 202.46 0.77 205.22 0.77 205.22 12.73"></polygon><rect fill="#010101" x="208.05" y="0.77" width="2.77" height="11.96"></rect><path fill="#010101" d="M225.65,6.75a6,6,0,0,1-1.83,4.39,6.51,6.51,0,0,1-9,0A6,6,0,0,1,213,6.75a5.91,5.91,0,0,1,1.81-4.37,6.46,6.46,0,0,1,9,0,5.93,5.93,0,0,1,1.83,4.37m-2.94,0a4,4,0,0,0-1-2.7,3.21,3.21,0,0,0-4.82,0,4,4,0,0,0-1,2.7,4,4,0,0,0,1,2.7,3.21,3.21,0,0,0,4.82,0,4,4,0,0,0,1-2.7"></path><polygon fill="#010101" points="238.19 12.73 235.69 12.73 230.64 5.8 230.64 12.73 227.87 12.73 227.87 0.77 230.31 0.77 235.42 7.74 235.42 0.77 238.19 0.77 238.19 12.73"></polygon><path fill="#010101" d="M190.77,23.72a3.88,3.88,0,0,0-2.51-1,3.15,3.15,0,0,0-2.44,1.11,3.93,3.93,0,0,0-1,2.69c0,2.25,1.27,3.79,3.4,3.79a3.52,3.52,0,0,0,2.51-1l1.58,2a6.68,6.68,0,0,1-4.21,1.45A6.11,6.11,0,0,1,183.66,31a6,6,0,0,1-1.76-4.44,5.88,5.88,0,0,1,1.85-4.39,6.23,6.23,0,0,1,4.49-1.8,7.24,7.24,0,0,1,3.86,1.27Z"></path><polygon fill="#010101" points="199.66 32.48 196.89 32.48 196.89 27.52 193.11 20.53 196.51 20.53 198.38 24.56 198.41 24.56 200.49 20.53 203.71 20.53 199.66 27.62 199.66 32.48"></polygon><path fill="#010101" d="M212.65,23.72a3.88,3.88,0,0,0-2.51-1,3.16,3.16,0,0,0-2.45,1.11,3.92,3.92,0,0,0-1,2.69c0,2.25,1.26,3.79,3.4,3.79a3.52,3.52,0,0,0,2.51-1l1.57,2a6.65,6.65,0,0,1-4.2,1.45A6.11,6.11,0,0,1,205.54,31a6,6,0,0,1-1.76-4.44,5.88,5.88,0,0,1,1.85-4.39,6.21,6.21,0,0,1,4.49-1.8A7.24,7.24,0,0,1,214,21.59Z"></path><polygon fill="#010101" points="223.46 32.48 215.9 32.48 215.9 20.53 218.67 20.53 218.67 30.2 223.46 30.2 223.46 32.48"></polygon><rect fill="#010101" x="224.97" y="20.53" width="2.77" height="11.96"></rect><path fill="#010101" d="M237,23.76a4,4,0,0,0-2.48-1.11c-.68,0-1.3.39-1.3,1a.83.83,0,0,0,.45.79l.39.22.55.19.46.15a8.07,8.07,0,0,1,2,.89,3.34,3.34,0,0,1,.91.73,3.7,3.7,0,0,1,.82,2.36c0,2.54-2.44,3.69-4.65,3.69a6.39,6.39,0,0,1-4.66-2.08l1.79-1.76c.39.37.7.64.91.8a3.5,3.5,0,0,0,2,.72c.95,0,1.68-.45,1.68-1.32a1.38,1.38,0,0,0-.44-.89,2.27,2.27,0,0,0-.53-.32l-.57-.26-.65-.24a8.2,8.2,0,0,1-1.81-.87,3.1,3.1,0,0,1-1.43-2.78,2.86,2.86,0,0,1,1.19-2.48,4.72,4.72,0,0,1,2.84-.87,6.67,6.67,0,0,1,4.06,1.47Z"></path><polygon fill="#010101" points="248.28 22.82 245.51 22.82 245.51 32.49 242.74 32.49 242.74 22.82 239.97 22.82 239.97 20.53 248.28 20.53 248.28 22.82"></polygon><polygon fill="#010101" points="257.65 32.48 249.79 32.48 249.79 20.53 257.65 20.53 257.65 22.82 252.56 22.82 252.56 25.19 257.04 25.19 257.04 27.48 252.56 27.48 252.56 30.2 257.65 30.2 257.65 32.48"></polygon><polygon fill="#010101" points="325.89 52.24 318.04 52.24 318.04 40.28 325.89 40.28 325.89 42.57 320.8 42.57 320.8 44.94 325.28 44.94 325.28 47.23 320.8 47.23 320.8 49.95 325.89 49.95 325.89 52.24"></polygon><polygon fill="#010101" points="217.44 52.24 209.58 52.24 209.58 40.28 217.44 40.28 217.44 42.57 212.34 42.57 212.34 44.94 216.82 44.94 216.82 47.23 212.34 47.23 212.34 49.95 217.44 49.95 217.44 52.24"></polygon><rect fill="#010101" x="182.35" y="40.28" width="2.77" height="11.96"></rect><polygon fill="#010101" points="198.23 52.24 195.74 52.24 190.68 45.3 190.68 52.24 187.92 52.24 187.92 40.28 190.36 40.28 195.47 47.25 195.47 40.28 198.23 40.28 198.23 52.24"></polygon><polygon fill="#010101" points="208.06 42.57 205.29 42.57 205.29 52.24 202.53 52.24 202.53 42.57 199.76 42.57 199.76 40.28 208.06 40.28 208.06 42.57"></polygon><path fill="#010101" d="M220,52.24v-12h3.9c2,0,4.47,1,4.47,3.64a3.49,3.49,0,0,1-2.47,3.33l3.6,5h-3.45l-3.16-4.66h-.12v4.66Zm2.77-9.67v2.72h.74c1.16,0,1.92-.43,1.92-1.32a1.43,1.43,0,0,0-1.6-1.4Z"></path><polygon fill="#010101" points="241.47 52.24 238.98 52.24 233.92 45.3 233.92 52.24 231.15 52.24 231.15 40.28 233.59 40.28 238.7 47.25 238.7 40.28 241.47 40.28 241.47 52.24"></polygon><path fill="#010101" d="M254.68,52.24h-3.17l-.7-2.1h-3.95l-.75,2.1h-3.06l5-12h2.2Zm-5.79-7.76-1.23,3.45h2.4l-1.15-3.45Z"></path><polygon fill="#010101" points="262.52 42.57 259.75 42.57 259.75 52.24 256.99 52.24 256.99 42.57 254.22 42.57 254.22 40.28 262.52 40.28 262.52 42.57"></polygon><rect fill="#010101" x="264.04" y="40.28" width="2.77" height="11.96"></rect><path fill="#010101" d="M281.63,46.26a6,6,0,0,1-1.83,4.39,6.09,6.09,0,0,1-4.47,1.79,6.16,6.16,0,0,1-4.5-1.79A6,6,0,0,1,269,46.26a5.89,5.89,0,0,1,1.81-4.37,6.1,6.1,0,0,1,4.5-1.81,6,6,0,0,1,4.47,1.81,5.91,5.91,0,0,1,1.83,4.37m-2.94,0a4,4,0,0,0-1-2.7,3.2,3.2,0,0,0-4.81,0,4.28,4.28,0,0,0,0,5.4,3.2,3.2,0,0,0,4.81,0,3.93,3.93,0,0,0,1-2.7"></path><polygon fill="#010101" points="294.17 52.24 291.68 52.24 286.62 45.3 286.62 52.24 283.86 52.24 283.86 40.28 286.3 40.28 291.41 47.25 291.41 40.28 294.17 40.28 294.17 52.24"></polygon><path fill="#010101" d="M307.39,52.24h-3.18l-.7-2.1h-3.95l-.75,2.1h-3.06l5-12h2.2Zm-5.79-7.76-1.23,3.45h2.39l-1.15-3.45Z"></path><polygon fill="#010101" points="316.52 52.24 308.97 52.24 308.97 40.28 311.73 40.28 311.73 49.95 316.52 49.95 316.52 52.24"></polygon></g></g></svg>