<svg width="42" height="42" viewBox="0 0 42 42" fill="none" xmlns="http://www.w3.org/2000/svg" alt="260 Sample Sale" aria-hidden="true" focusable="false" role="presentation" class="logo logo-black">
  <path d="M21 42C9.42228 42 0 32.5819 0 21C0 9.42228 9.41808 0 21 0C32.5777 0 42 9.41808 42 21C41.9958 32.5819 32.5777 42 21 42ZM21 1.96224C10.4983 1.96224 1.95804 10.5025 1.95804 21.0042C1.95804 31.5059 10.4983 40.0462 21 40.0462C31.5017 40.0462 40.042 31.5059 40.042 21.0042C40.0462 10.5017 31.5017 1.96224 21 1.96224Z" fill="currentColor"></path>
  <path d="M12.8285 22.5935C14.3783 20.6732 14.8033 19.7912 14.8033 18.4884C14.8033 16.2674 13.1225 14.7748 10.6201 14.7748C8.11776 14.7748 6.67296 16.4472 6.67296 19.0168H8.8326C8.85528 18.4741 8.91408 18.0667 9.03504 17.7542C9.30888 17.0696 9.91284 16.6774 10.6924 16.6774C11.755 16.6774 12.5572 17.4712 12.5572 18.5237C12.5572 19.7156 11.907 20.7211 8.89644 24.1878C7.66836 25.6124 7.28448 26.0761 6.80652 26.696H15.1108V24.806H10.9402C11.5097 24.2012 12.0439 23.5612 12.8293 22.5926L12.8285 22.5935Z" fill="currentColor"></path>
  <path d="M31.6621 14.7748C28.7927 14.7748 27.0094 17.1251 27.0094 20.9076C27.0094 24.6901 28.7994 26.8422 31.6798 26.8422C34.5601 26.8422 36.2603 24.6305 36.2603 20.9261C36.2603 17.0167 34.5845 14.7748 31.6621 14.7748ZM31.6436 24.9379C30.1484 24.9379 29.2555 23.4444 29.2555 20.9429C29.2555 19.5871 29.5386 18.3582 30.0334 17.5703C30.3794 16.994 30.9574 16.6774 31.6621 16.6774C33.1128 16.6774 34.0141 18.27 34.0141 20.8345C34.0141 23.399 33.1279 24.9379 31.6445 24.9379H31.6436Z" fill="currentColor"></path>
  <path d="M16.7059 22.7304C16.7059 25.074 18.6598 26.8414 21.2503 26.8414C23.8409 26.8414 25.7225 25.0589 25.7225 22.6943C25.7225 20.5632 24.0694 19.0168 21.7921 19.0168C21.4922 19.0168 21.2688 19.0302 20.8782 19.105L20.564 19.1646L22.2978 16.6446L22.6346 16.175C22.9866 15.6836 23.2646 15.2956 23.473 15.0175L23.5418 14.9192H21.0638L18.4313 18.5296C17.2217 20.202 16.7051 21.4586 16.7051 22.7304H16.7059ZM21.2503 20.6136C22.5187 20.6136 23.4755 21.5468 23.4755 22.785C23.4755 24.0232 22.4692 24.9388 21.2318 24.9388C19.9945 24.9388 18.9521 23.9812 18.9521 22.8035C18.9521 21.6258 19.9828 20.6144 21.2495 20.6144L21.2503 20.6136Z" fill="currentColor"></path>
</svg>