<svg class="header__heading-logo" width="400" height="77" viewBox="0 0 400 77" fill="none" xmlns="http://www.w3.org/2000/svg">
  <g clip-path="url(#clip0_2_2)">
    <path fill-rule="evenodd" clip-rule="evenodd" d="M170.4 15.42C170.4 12.4389 171.285 9.52482 172.942 7.04693C174.6 4.56904 176.955 2.6388 179.711 1.50073C182.466 0.362657 185.497 0.0679534 188.42 0.653926C191.343 1.2399 194.026 2.6802 196.13 4.79238C198.234 6.90457 199.664 9.59359 200.238 12.5189C200.812 15.4442 200.505 18.4741 199.356 21.2249C198.207 23.9757 196.268 26.3236 193.783 27.9712C191.299 29.6187 188.381 30.4919 185.4 30.48C181.415 30.4668 177.599 28.8739 174.787 26.0508C171.975 23.2276 170.397 19.4046 170.4 15.42V15.42ZM174.3 15.42C174.3 13.2147 174.954 11.059 176.179 9.2254C177.404 7.39179 179.146 5.96266 181.183 5.11874C183.22 4.27482 185.462 4.05402 187.625 4.48425C189.788 4.91447 191.775 5.97641 193.334 7.53576C194.894 9.09512 195.956 11.0819 196.386 13.2447C196.816 15.4076 196.595 17.6495 195.751 19.6869C194.907 21.7243 193.478 23.4657 191.645 24.6909C189.811 25.9161 187.655 26.57 185.45 26.57C182.493 26.57 179.657 25.3953 177.566 23.3043C175.475 21.2132 174.3 18.3772 174.3 15.42ZM211.76 30.02H215.62V17.6H223.11L231 30.02H235.69L227.63 17.35C232.73 16.53 234.41 12.91 234.41 9.17001C234.41 2.51001 229.6 0.740017 225 0.740017H211.76V30.02ZM215.62 4.11001H224.38C228 4.11001 230.55 5.31001 230.55 9.17001C230.55 13.03 228 14.23 224.38 14.23H215.62V4.11001ZM165.79 37.99H167.31V43.99H170.57V45.27H165.79V37.99ZM183.92 41.65C183.922 42.4139 183.697 43.1611 183.274 43.7972C182.851 44.4333 182.249 44.9296 181.544 45.2233C180.839 45.517 180.063 45.5949 179.313 45.447C178.564 45.2992 177.875 44.9324 177.334 44.393C176.793 43.8535 176.425 43.1658 176.275 42.4167C176.125 41.6677 176.201 40.8911 176.493 40.1852C176.785 39.4793 177.279 38.8758 177.914 38.4512C178.549 38.0266 179.296 37.8 180.06 37.8C180.571 37.7804 181.081 37.8665 181.558 38.0529C182.034 38.2394 182.467 38.5221 182.829 38.8834C183.192 39.2448 183.476 39.677 183.663 40.153C183.851 40.629 183.938 41.1387 183.92 41.65ZM177.79 41.65C177.844 42.0878 178.023 42.5007 178.306 42.839C178.589 43.1774 178.964 43.4269 179.385 43.5574C179.806 43.688 180.256 43.6941 180.681 43.5749C181.106 43.4558 181.487 43.2166 181.779 42.886C182.071 42.5554 182.261 42.1475 182.327 41.7114C182.393 41.2752 182.331 40.8293 182.15 40.4273C181.968 40.0253 181.674 39.6843 181.304 39.4453C180.933 39.2063 180.501 39.0795 180.06 39.08C179.732 39.0749 179.407 39.1399 179.106 39.2707C178.806 39.4016 178.536 39.5951 178.317 39.8385C178.097 40.0819 177.932 40.3695 177.832 40.6819C177.733 40.9943 177.701 41.3244 177.74 41.65H177.79ZM189.65 37.99H191.04L194.42 43.2V37.99H195.8V45.31H194.41L191.03 40.09V45.31H189.65V37.99ZM202.6 37.99H205.43C208.21 37.99 209.43 39.55 209.43 41.65C209.43 44.03 208.15 45.31 205.75 45.31H202.64L202.6 37.99ZM204.12 43.99H205.5C206.99 43.99 207.8 43.5 207.8 41.61C207.845 41.29 207.816 40.9638 207.715 40.6568C207.615 40.3497 207.445 40.0699 207.218 39.8389C206.992 39.608 206.716 39.432 206.411 39.3247C206.106 39.2174 205.781 39.1816 205.46 39.22H204.12V43.99ZM222.48 41.61C222.482 42.3739 222.257 43.1211 221.834 43.7572C221.411 44.3933 220.809 44.8896 220.104 45.1833C219.399 45.477 218.623 45.5549 217.873 45.4071C217.124 45.2593 216.435 44.8924 215.894 44.353C215.353 43.8136 214.985 43.1258 214.835 42.3767C214.685 41.6277 214.761 40.8511 215.053 40.1452C215.345 39.4393 215.839 38.8358 216.474 38.4113C217.109 37.9867 217.856 37.76 218.62 37.76C219.131 37.7471 219.639 37.8395 220.112 38.0315C220.585 38.2235 221.014 38.5109 221.372 38.8759C221.729 39.2408 222.007 39.6755 222.19 40.1528C222.372 40.63 222.454 41.1397 222.43 41.65L222.48 41.61ZM216.35 41.61C216.404 42.0478 216.583 42.4607 216.866 42.7991C217.149 43.1374 217.524 43.3869 217.945 43.5174C218.366 43.648 218.816 43.654 219.241 43.5349C219.666 43.4158 220.047 43.1766 220.339 42.846C220.631 42.5154 220.821 42.1075 220.887 41.6714C220.953 41.2352 220.891 40.7893 220.71 40.3873C220.528 39.9853 220.234 39.6443 219.864 39.4053C219.493 39.1663 219.061 39.0395 218.62 39.04C218.288 39.0341 217.959 39.1 217.656 39.2332C217.352 39.3664 217.08 39.5637 216.86 39.8116C216.64 40.0595 216.475 40.3522 216.379 40.6695C216.282 40.9868 216.255 41.3213 216.3 41.65L216.35 41.61ZM227.53 37.95H228.92L232.3 43.16V37.95H233.68V45.27H232.28L228.92 40.09V45.31H227.54L227.53 37.95Z" fill="currentColor"></path>
    <path fill-rule="evenodd" clip-rule="evenodd" d="M111.97 30.02H115.83V16.2H130.2V12.83H115.83V4.11H130.72V0.740002H111.97V30.02V30.02Z" fill="currentColor"></path>
    <path fill-rule="evenodd" clip-rule="evenodd" d="M287.22 9.12999C286.4 2.75999 281.46 -1.52588e-05 275.42 -1.52588e-05C270.36 -1.52588e-05 264.93 2.66999 264.93 8.34999C264.93 19.2 283.52 13.73 283.52 21.79C283.52 25.95 279.98 27.63 276.28 27.63C271.23 27.63 267.89 25.45 267.69 20.15L263.5 20.52C263.99 28 269.5 30.76 276.45 30.76C282 30.76 287.71 27.88 287.71 21.67C287.71 9.46 269.13 15.26 269.13 7.52998C269.13 4.06998 272.91 3.12999 275.67 3.12999C279.74 3.12999 283.03 5.02 283.23 9.33L287.22 9.12999Z" fill="currentColor"></path>
    <path d="M247.81 0.740002H251.68V30.02H247.81V0.740002Z" fill="currentColor"></path>
    <path fill-rule="evenodd" clip-rule="evenodd" d="M143.13 30.02H162.85V26.64H147V0.740002H143.13V30.02Z" fill="currentColor"></path>
    <path d="M0 65.02C0 64.94 -9.15676e-06 64.9 0.0999908 64.9H3C3.67891 64.8526 4.36022 64.9479 5 65.18C5.26521 65.3038 5.4871 65.5043 5.63689 65.7558C5.78667 66.0072 5.85743 66.2979 5.84 66.59C5.84 67.59 5.36 67.88 4.33 68.25C5.58 68.63 6.33 69.25 6.33 70.33C6.33735 70.6417 6.2627 70.9498 6.11353 71.2236C5.96435 71.4974 5.74589 71.7272 5.48 71.89C4.75266 72.1922 3.96628 72.3255 3.17999 72.28C2.61999 72.28 2.08999 72.23 1.53999 72.23C0.989993 72.23 0.540006 72.28 0.240005 72.28C0.120005 72.28 0.110001 72.23 0.110001 72.12V71.78C0.110001 71.71 0.110001 71.7 0.220001 71.7H0.660004C0.769081 71.692 0.872148 71.647 0.952164 71.5725C1.03218 71.4979 1.08433 71.3982 1.09999 71.29V67.75V66.03C1.09999 65.48 0.759997 65.46 0.449997 65.46H0.139999C0.0599994 65.46 0.0599976 65.46 0.0599976 65.35L0 65.02ZM2.28999 68.09C2.85394 68.1726 3.42975 68.0928 3.95 67.86C4.1274 67.7417 4.27427 67.5831 4.37856 67.3971C4.48285 67.2111 4.5416 67.003 4.55 66.79C4.56166 66.5866 4.52305 66.3836 4.43759 66.1987C4.35213 66.0138 4.22244 65.8528 4.06 65.73C3.68086 65.5066 3.25001 65.386 2.81 65.38H2.45C2.35 65.38 2.32 65.48 2.3 65.59C2.28 65.7 2.3 66.7 2.3 67.38L2.28999 68.09ZM2.28999 70.59C2.28999 71.37 2.51999 71.83 3.28999 71.83C3.49512 71.8443 3.70096 71.8151 3.89401 71.7443C4.08707 71.6735 4.26299 71.5627 4.41026 71.4192C4.55754 71.2757 4.67283 71.1027 4.74861 70.9116C4.82439 70.7204 4.85894 70.5154 4.84999 70.31C4.87014 69.9719 4.7768 69.6368 4.58476 69.3578C4.39273 69.0788 4.113 68.8719 3.78999 68.77C3.29154 68.6185 2.76996 68.5575 2.25 68.59L2.28999 70.59ZM13.17 65.99C13.17 65.67 13.01 65.49 12.55 65.49H12.39C12.34 65.49 12.33 65.44 12.33 65.38V64.99C12.3284 64.9778 12.3295 64.9654 12.3335 64.9537C12.3374 64.942 12.344 64.9314 12.3527 64.9227C12.3614 64.914 12.372 64.9074 12.3837 64.9035C12.3954 64.8995 12.4078 64.8983 12.42 64.9H15.62C16.3799 64.8577 17.1304 65.0843 17.74 65.54C18.0695 65.8481 18.2696 66.2699 18.3 66.72C18.3 67.84 17.67 68.5 16.39 68.95C16.76 69.03 17.09 69.54 17.75 70.48C18.0098 70.8505 18.3156 71.1865 18.66 71.48C18.876 71.6208 19.1333 71.6843 19.39 71.66C19.46 71.66 19.47 71.71 19.47 71.8V72.13C19.47 72.19 19.47 72.24 19.38 72.24H17.55C17.0991 71.6854 16.707 71.0855 16.38 70.45C15.79 69.45 15.55 69.08 14.87 69.08C14.7309 69.0577 14.5891 69.0577 14.45 69.08V71.22C14.4497 71.2774 14.4615 71.3342 14.4846 71.3867C14.5076 71.4393 14.5414 71.4864 14.5839 71.525C14.6263 71.5637 14.6763 71.593 14.7308 71.6111C14.7852 71.6291 14.8429 71.6356 14.9 71.63H15.32C15.39 71.63 15.42 71.63 15.42 71.71V72.1C15.42 72.18 15.42 72.21 15.29 72.21C15.16 72.21 14.29 72.16 13.76 72.16C13.23 72.16 12.53 72.21 12.41 72.21C12.29 72.21 12.32 72.16 12.32 72.08V71.71C12.32 71.66 12.32 71.63 12.41 71.63H12.61C13 71.63 13.19 71.56 13.19 71.21V68.46L13.17 65.99ZM14.41 68.62C14.5697 68.6344 14.7303 68.6344 14.89 68.62C16.7 68.62 16.97 67.35 16.97 66.93C16.9759 66.7148 16.9309 66.5012 16.8389 66.3066C16.7468 66.1121 16.6101 65.9419 16.44 65.81C15.9831 65.5324 15.4541 65.3966 14.92 65.42C14.68 65.42 14.44 65.49 14.44 65.78L14.41 68.62ZM27.12 68.92V71.13C27.12 71.34 27.35 71.73 27.82 71.73H28.06C28.14 71.73 28.16 71.73 28.16 71.81V72.2C28.16 72.26 28.16 72.31 28.06 72.31C27.96 72.31 27.06 72.26 26.36 72.26C25.8 72.26 24.86 72.31 24.76 72.31C24.66 72.31 24.67 72.26 24.67 72.18V71.83C24.6686 71.8174 24.6699 71.8046 24.6738 71.7925C24.6776 71.7804 24.684 71.7692 24.6926 71.7598C24.7011 71.7503 24.7115 71.7428 24.7231 71.7376C24.7347 71.7325 24.7473 71.7299 24.76 71.73H25.12C25.53 71.73 25.79 71.73 25.82 71.42C25.85 71.11 25.82 69.21 25.82 68.66V67.94V65.83C25.82 65.6 25.67 65.49 24.99 65.49H24.7C24.62 65.49 24.6 65.44 24.6 65.38V65C24.5984 64.9865 24.5999 64.9728 24.6043 64.9599C24.6088 64.947 24.6161 64.9354 24.6257 64.9257C24.6354 64.9161 24.647 64.9088 24.6599 64.9043C24.6728 64.8998 24.6865 64.8984 24.7 64.9C24.8 64.9 25.8 64.97 26.57 64.9H28C28.0122 64.8983 28.0246 64.8995 28.0363 64.9035C28.048 64.9074 28.0586 64.914 28.0673 64.9227C28.076 64.9314 28.0826 64.942 28.0865 64.9537C28.0905 64.9654 28.0916 64.9778 28.09 64.99V65.42C28.09 65.48 28.09 65.53 28 65.53H27.72C27.28 65.53 27.13 65.59 27.12 65.94V68.15V68.92ZM36.92 65.52C36.2499 65.4996 35.5795 65.5499 34.92 65.67C34.4997 66.0089 34.1584 66.4355 33.92 66.92C33.92 66.98 33.84 67.03 33.77 67L33.48 66.89C33.4 66.89 33.4 66.79 33.41 66.72C33.53 66.37 33.92 65.05 33.98 64.72C33.98 64.61 34.06 64.56 34.13 64.56C34.1539 64.5593 34.1777 64.5633 34.2 64.5719C34.2223 64.5805 34.2427 64.5934 34.26 64.61L34.39 64.7C34.5738 64.829 34.7957 64.8924 35.02 64.88C35.59 64.88 36.21 64.95 37.15 64.95H37.8C38.45 64.95 39.42 64.95 40.09 64.88C40.297 64.8876 40.5018 64.8355 40.68 64.73L40.87 64.61C40.9064 64.579 40.9522 64.5614 41 64.56C41.06 64.56 41.1 64.61 41.15 64.91C41.2 65.21 41.45 66.31 41.54 66.75C41.54 66.81 41.54 66.85 41.45 66.88L41.18 66.96C41.08 66.96 41.03 66.96 41 66.9C40.8044 66.4366 40.5303 66.0104 40.19 65.64C39.5066 65.5215 38.8135 65.4679 38.12 65.48V71.27C38.12 71.41 38.23 71.69 38.49 71.69H39.11C39.19 71.69 39.23 71.74 39.23 71.83V72.17C39.2287 72.1845 39.2246 72.1985 39.2179 72.2114C39.2112 72.2243 39.202 72.2357 39.1908 72.245C39.1797 72.2543 39.1668 72.2613 39.1529 72.2656C39.139 72.2699 39.1245 72.2714 39.11 72.27C39 72.27 37.99 72.22 37.45 72.22C36.91 72.22 35.94 72.27 35.81 72.27C35.68 72.27 35.68 72.22 35.68 72.13V71.8C35.68 71.72 35.68 71.69 35.78 71.69H36.43C36.5144 71.7022 36.6003 71.6823 36.6707 71.6341C36.7411 71.5859 36.7908 71.5131 36.81 71.43V68.97L36.92 65.52ZM49.36 68.92V71.13C49.3605 71.2174 49.3797 71.3037 49.4165 71.3831C49.4532 71.4624 49.5066 71.5329 49.573 71.5898C49.6394 71.6467 49.7172 71.6887 49.8013 71.7129C49.8853 71.7371 49.9735 71.7429 50.06 71.73H50.31C50.39 71.73 50.4 71.73 50.4 71.81V72.2C50.4 72.26 50.4 72.31 50.31 72.31C50.22 72.31 49.31 72.26 48.6 72.26C48.05 72.26 47.11 72.31 47.01 72.31C46.91 72.31 46.91 72.26 46.91 72.18V71.83C46.9084 71.8165 46.9099 71.8028 46.9143 71.7899C46.9188 71.777 46.9261 71.7653 46.9357 71.7557C46.9454 71.7461 46.957 71.7388 46.9699 71.7343C46.9828 71.7299 46.9965 71.7284 47.01 71.73H47.37C47.77 71.73 48.03 71.73 48.06 71.42C48.09 71.11 48.06 69.21 48.06 68.66V67.94V65.83C48.06 65.6 47.92 65.49 47.24 65.49H46.92C46.84 65.49 46.83 65.44 46.83 65.38V65C46.83 64.94 46.83 64.9 46.92 64.9C47.01 64.9 48.03 64.97 48.79 64.9H50.22C50.2326 64.8986 50.2454 64.8999 50.2575 64.9038C50.2696 64.9076 50.2808 64.914 50.2902 64.9225C50.2997 64.931 50.3072 64.9414 50.3123 64.9531C50.3175 64.9647 50.3201 64.9773 50.32 64.99V65.42C50.32 65.48 50.32 65.53 50.22 65.53H49.94C49.51 65.53 49.36 65.59 49.34 65.94V68.15L49.36 68.92ZM57.09 71.89C56.97 71.81 56.88 71.79 56.84 71.89V72.02C56.84 72.1 56.72 72.14 56.59 72.1C56.46 72.06 56.45 72.01 56.46 71.93C56.51 71.47 56.62 70.17 56.64 69.93C56.64 69.87 56.64 69.82 56.75 69.82H57.05C57.11 69.82 57.18 69.87 57.18 69.93C57.1707 70.3199 57.2712 70.7045 57.47 71.04C57.602 71.29 57.801 71.4982 58.0448 71.6413C58.2886 71.7844 58.5674 71.8566 58.85 71.85C59.37 71.85 60.15 71.44 60.15 70.75C60.15 69.82 59.52 69.41 58.66 69.09C58.0814 68.9017 57.5399 68.6141 57.06 68.24C56.8528 68.0174 56.6949 67.7536 56.5967 67.4659C56.4985 67.1781 56.4621 66.8728 56.49 66.57C56.5067 66.3073 56.5775 66.0509 56.6979 65.8169C56.8184 65.5828 56.9859 65.3762 57.19 65.21C57.6262 64.8712 58.1682 64.6976 58.72 64.72C59.1146 64.6966 59.5091 64.7686 59.87 64.93C60.04 65.03 60.12 65.04 60.15 64.93L60.21 64.82C60.21 64.77 60.3 64.77 60.43 64.77C60.56 64.77 60.57 64.83 60.57 64.92C60.57 65.45 60.72 66.51 60.73 66.74C60.73 66.74 60.73 66.82 60.67 66.83L60.38 66.9C60.38 66.9 60.3 66.9 60.28 66.83C60.1493 66.42 59.9571 66.0323 59.71 65.68C59.5754 65.5319 59.4096 65.4156 59.2245 65.3395C59.0395 65.2634 58.8398 65.2295 58.64 65.24C58.4986 65.2291 58.3565 65.2465 58.2219 65.291C58.0872 65.3355 57.9628 65.4063 57.8558 65.4994C57.7488 65.5924 57.6614 65.7058 57.5986 65.833C57.5358 65.9601 57.4989 66.0985 57.49 66.24C57.4871 66.5279 57.5784 66.8088 57.75 67.04C58.0688 67.3468 58.4562 67.573 58.88 67.7C59.5225 67.865 60.1225 68.165 60.64 68.58C60.8323 68.7883 60.9781 69.0351 61.0677 69.3041C61.1574 69.573 61.1888 69.858 61.16 70.14C61.1774 70.4413 61.1309 70.743 61.0235 71.0251C60.9161 71.3072 60.7502 71.5633 60.5368 71.7768C60.3233 71.9902 60.0672 72.1561 59.7851 72.2635C59.503 72.3709 59.2013 72.4174 58.9 72.4C58.2558 72.4446 57.6161 72.2643 57.09 71.89V71.89ZM74.58 68.5V70.93C74.58 71.57 74.69 71.73 75.03 71.73H75.5C75.57 71.73 75.59 71.78 75.59 71.84V72.2C75.59 72.28 75.59 72.31 75.46 72.31C75.33 72.31 74.46 72.26 73.96 72.26C73.62 72.26 72.64 72.31 72.39 72.31C72.14 72.31 72.24 72.26 72.24 72.2V71.83C72.24 71.76 72.24 71.73 72.35 71.73H72.99C73.23 71.73 73.28 71.53 73.28 71.16V68.84C73.28 68.72 73.22 68.71 73.04 68.71H69.42C69.28 68.71 69.25 68.71 69.25 68.8V71.13C69.25 71.63 69.38 71.73 69.61 71.73H70.09C70.16 71.73 70.19 71.73 70.19 71.84V72.2C70.1914 72.2139 70.1898 72.228 70.1855 72.2413C70.1811 72.2546 70.1739 72.2669 70.1645 72.2773C70.1551 72.2876 70.1436 72.2959 70.1307 72.3015C70.1179 72.3072 70.104 72.3101 70.09 72.31C69.9 72.31 68.99 72.26 68.63 72.26L67.04 72.31C66.96 72.31 66.93 72.31 66.93 72.2V71.83C66.93 71.74 66.93 71.73 67.04 71.73H67.54C67.92 71.73 67.93 71.47 67.95 71.13C67.97 70.79 67.95 68.9 67.95 68.64V68.19V66.11C67.95 65.64 67.77 65.49 67.48 65.49H67.04C66.94 65.49 66.91 65.49 66.91 65.38V65.04C66.91 64.94 66.91 64.9 67.04 64.9H70.14C70.32 64.9 70.27 64.9 70.27 65.04V65.42C70.27 65.5 70.27 65.53 70.14 65.53H69.69C69.6325 65.5241 69.5744 65.5308 69.5197 65.5495C69.465 65.5683 69.415 65.5987 69.3732 65.6386C69.3314 65.6785 69.2987 65.727 69.2774 65.7808C69.2562 65.8345 69.2468 65.8923 69.25 65.95V68.08C69.25 68.17 69.25 68.21 69.38 68.21H73.05C73.22 68.21 73.28 68.21 73.28 68.05V67.9V66.07C73.28 65.73 73.12 65.55 72.91 65.55H72.43C72.35 65.55 72.32 65.55 72.32 65.45V65.08C72.32 65 72.32 64.96 72.43 64.96H75.36C75.49 64.96 75.5 64.96 75.5 65.13V65.42C75.5 65.48 75.5 65.53 75.36 65.53H74.92C74.8692 65.5264 74.8182 65.5343 74.7708 65.5531C74.7234 65.5719 74.6809 65.6011 74.6463 65.6385C74.6118 65.676 74.5861 65.7207 74.5711 65.7694C74.5562 65.8182 74.5524 65.8696 74.56 65.92V68.18L74.58 68.5ZM92.03 71.42C92.03 71.7 92.2 71.75 92.46 71.75H92.85C92.85 71.75 92.93 71.75 92.93 71.85V72.2C92.93 72.27 92.93 72.33 92.85 72.33C92.77 72.33 91.91 72.28 91.26 72.28C90.76 72.28 89.95 72.33 89.88 72.33C89.81 72.33 89.78 72.28 89.78 72.2V71.85C89.78 71.8235 89.7905 71.798 89.8093 71.7793C89.828 71.7605 89.8535 71.75 89.88 71.75H90.34C90.61 71.75 90.71 71.62 90.73 71.49C90.75 71.36 90.73 70.17 90.73 68.4V67.67V65.96C90.73 65.83 90.6 65.51 90.29 65.51H89.66C89.6 65.51 89.58 65.46 89.58 65.4V65.04C89.58 64.97 89.58 64.92 89.68 64.92H95.39C95.44 65.27 95.75 66.66 95.8 66.92V67.05L95.54 67.16C95.54 67.16 95.46 67.16 95.41 67.07C95.2043 66.6811 94.9668 66.3098 94.7 65.96C94.6256 65.862 94.5325 65.7796 94.4261 65.7178C94.3197 65.656 94.202 65.616 94.08 65.6C93.81 65.54 92.25 65.52 92.08 65.52V68.59C92.22 68.59 93.16 68.59 93.29 68.53C93.4502 68.4631 93.5885 68.3528 93.6892 68.2114C93.79 68.07 93.8491 67.9032 93.86 67.73C93.86 67.62 93.86 67.59 93.96 67.59H94.28C94.33 67.59 94.35 67.59 94.35 67.67V69.86C94.35 70 94.35 69.95 94.27 69.95H93.96C93.9335 69.95 93.908 69.9394 93.8893 69.9207C93.8705 69.9019 93.86 69.8765 93.86 69.85C93.8646 69.6825 93.8114 69.5186 93.7095 69.3857C93.6075 69.2527 93.4629 69.159 93.3 69.12C92.8888 69.0353 92.4698 68.995 92.05 69L92.03 71.42ZM102.35 69.42L101.71 71.16C101.61 71.49 101.71 71.7 102 71.7H102.4C102.5 71.7 102.52 71.75 102.52 71.81V72.17C102.52 72.23 102.52 72.28 102.42 72.28C102.32 72.28 101.42 72.23 101.17 72.23C100.92 72.23 100.05 72.28 99.9 72.28C99.75 72.28 99.84 72.2 99.84 72.14V71.8C99.84 71.73 99.84 71.7 99.9 71.7H100.13C100.26 71.6977 100.388 71.6659 100.504 71.607C100.62 71.5481 100.721 71.4637 100.8 71.36C100.91 71.23 101.74 69.28 102.13 68.47C102.24 68.24 103.2 66.03 103.3 65.75C103.3 65.65 103.43 65.48 103.3 65.43C103.17 65.38 103.22 65.31 103.24 65.26C103.26 65.21 103.24 65.18 103.4 65.15C103.733 65.0598 104.044 64.8995 104.31 64.68C104.33 64.6451 104.359 64.6164 104.395 64.597C104.43 64.5776 104.47 64.5683 104.51 64.57C104.6 64.57 104.64 64.63 104.67 64.74C104.9 65.39 105.72 67.74 105.94 68.37C106.18 69.18 106.88 71.1 106.99 71.26C107.076 71.3876 107.19 71.4937 107.324 71.57C107.457 71.6463 107.606 71.6908 107.76 71.7H108.06C108.13 71.7 108.14 71.75 108.14 71.8V72.14C108.14 72.14 108.14 72.28 108.03 72.28C107.92 72.28 106.97 72.23 106.6 72.23C106.23 72.23 105.33 72.28 105.12 72.28C105.102 72.2818 105.083 72.2794 105.066 72.2728C105.048 72.2663 105.033 72.2558 105.02 72.2422C105.008 72.2287 104.998 72.2124 104.993 72.1946C104.988 72.1769 104.987 72.1582 104.99 72.14V71.8C104.99 71.75 104.99 71.7 105.07 71.7H105.33C105.366 71.7017 105.403 71.6955 105.436 71.6817C105.47 71.668 105.5 71.647 105.525 71.6204C105.55 71.5937 105.568 71.562 105.58 71.5273C105.591 71.4927 105.594 71.4561 105.59 71.42C105.53 71.1 105.09 69.8 104.96 69.42H102.35ZM104.81 68.9L103.95 66.11C103.95 66.01 103.9 65.95 103.85 65.95C103.8 65.95 103.77 66 103.72 66.13C103.67 66.26 102.72 68.74 102.6 68.9H104.81ZM113.37 64.99C113.369 64.9787 113.37 64.9672 113.373 64.9563C113.376 64.9454 113.382 64.9353 113.39 64.9268C113.397 64.9183 113.406 64.9115 113.417 64.9069C113.427 64.9022 113.439 64.8999 113.45 64.9H115.91C115.97 64.8961 116.029 64.9115 116.08 64.9439C116.13 64.9763 116.169 65.024 116.19 65.08L118.53 70.4C118.66 70.09 119.46 68.46 119.75 67.84C120.04 67.22 121.01 65.29 121.05 65.12C121.09 64.95 121.14 64.95 121.31 64.95H123.47C123.63 64.95 123.55 64.95 123.55 65.09V65.42C123.552 65.4348 123.55 65.4498 123.545 65.4639C123.54 65.4779 123.532 65.4907 123.521 65.5013C123.511 65.5118 123.498 65.5198 123.484 65.5248C123.47 65.5298 123.455 65.5315 123.44 65.53H123.05C122.82 65.53 122.75 65.71 122.74 65.87C122.73 66.03 122.74 68.47 122.74 68.7V71.2C122.74 71.51 122.83 71.77 123.09 71.77H123.63C123.641 71.7683 123.652 71.7692 123.663 71.7726C123.673 71.776 123.683 71.7818 123.69 71.7896C123.698 71.7974 123.704 71.807 123.707 71.8174C123.711 71.8279 123.712 71.8391 123.71 71.85V72.24C123.712 72.2548 123.71 72.2698 123.705 72.2839C123.7 72.2979 123.692 72.3107 123.681 72.3213C123.671 72.3318 123.658 72.3399 123.644 72.3448C123.63 72.3498 123.615 72.3516 123.6 72.35C123.47 72.35 122.6 72.3 121.99 72.3C121.58 72.3 120.58 72.35 120.46 72.35C120.34 72.35 120.37 72.3 120.37 72.19V71.87C120.37 71.8 120.37 71.77 120.46 71.77H120.92C121.25 71.77 121.36 71.59 121.36 71.44V65.62C121.28 65.79 119.98 68.55 119.7 69.08C119.42 69.61 118.37 71.83 118.32 71.93C118.27 72.03 118.19 72.17 118.06 72.17C117.93 72.17 117.92 72.09 117.87 71.99C117.82 71.89 116.41 68.64 116.29 68.4C116.07 67.91 115.29 66.03 115.06 65.64C115.06 65.8 115.01 68.37 115.01 68.48V71C115.08 71.59 115.31 71.75 115.79 71.75H116.04C116.1 71.75 116.12 71.8 116.12 71.88V72.23C116.122 72.2435 116.12 72.2572 116.116 72.2701C116.111 72.283 116.104 72.2946 116.094 72.3043C116.085 72.3139 116.073 72.3212 116.06 72.3257C116.047 72.3301 116.034 72.3316 116.02 72.33C115.92 72.33 115.16 72.28 114.66 72.28C114.16 72.28 113.37 72.33 113.27 72.33C113.17 72.33 113.18 72.33 113.18 72.17V71.85C113.18 71.78 113.18 71.75 113.26 71.75H113.47C113.94 71.75 114.2 71.54 114.25 71.29C114.372 70.1039 114.432 68.9123 114.43 67.72V65.88C114.43 65.73 114.43 65.51 113.75 65.51H113.46C113.449 65.5117 113.438 65.5108 113.427 65.5074C113.417 65.504 113.407 65.4981 113.4 65.4903C113.392 65.4825 113.386 65.473 113.383 65.4625C113.379 65.452 113.378 65.4409 113.38 65.43L113.37 64.99ZM131.8 68.92V71.13C131.8 71.34 132.03 71.73 132.5 71.73H132.74C132.82 71.73 132.84 71.73 132.84 71.81V72.2C132.84 72.26 132.84 72.31 132.74 72.31C132.64 72.31 131.74 72.26 131.03 72.26C130.48 72.26 129.54 72.31 129.44 72.31C129.34 72.31 129.35 72.26 129.35 72.18V71.83C129.349 71.8174 129.35 71.8046 129.354 71.7925C129.358 71.7804 129.364 71.7692 129.373 71.7598C129.381 71.7503 129.391 71.7428 129.403 71.7376C129.415 71.7325 129.427 71.7299 129.44 71.73H129.8C130.21 71.73 130.47 71.73 130.5 71.42C130.53 71.11 130.5 69.21 130.5 68.66V67.94V65.83C130.5 65.6 130.35 65.49 129.67 65.49H129.38C129.3 65.49 129.28 65.44 129.28 65.38V65C129.278 64.9865 129.28 64.9728 129.284 64.9599C129.289 64.947 129.296 64.9354 129.306 64.9257C129.315 64.9161 129.327 64.9088 129.34 64.9043C129.353 64.8998 129.366 64.8984 129.38 64.9C129.48 64.9 130.48 64.97 131.25 64.9H132.68C132.692 64.8983 132.705 64.8995 132.716 64.9035C132.728 64.9074 132.739 64.914 132.747 64.9227C132.756 64.9314 132.763 64.942 132.767 64.9537C132.77 64.9654 132.772 64.9778 132.77 64.99V65.42C132.77 65.48 132.77 65.53 132.68 65.53H132.4C131.96 65.53 131.81 65.59 131.8 65.94V68.15V68.92ZM139.79 67.63V65.86C139.79 65.74 139.71 65.49 139.13 65.49H138.88C138.82 65.49 138.8 65.44 138.8 65.38V64.99C138.799 64.9787 138.8 64.9672 138.803 64.9563C138.806 64.9454 138.812 64.9353 138.82 64.9268C138.827 64.9183 138.836 64.9115 138.847 64.9069C138.857 64.9022 138.869 64.8999 138.88 64.9H142.02C142.14 64.9 142.1 64.9 142.1 65V65.42C142.102 65.4335 142.1 65.4472 142.096 65.4601C142.091 65.473 142.084 65.4846 142.074 65.4943C142.065 65.5039 142.053 65.5112 142.04 65.5157C142.027 65.5201 142.014 65.5216 142 65.52H141.76C141.16 65.52 141.11 65.62 141.11 65.88V71.72H143.53C144.043 71.2679 144.482 70.7382 144.83 70.15C144.88 70.08 144.91 70.05 144.97 70.07L145.23 70.18V70.34L144.73 72.34H138.8C138.73 72.34 138.7 72.34 138.7 72.2V71.86C138.7 71.77 138.75 71.76 138.81 71.76H139.32C139.61 71.76 139.75 71.61 139.77 71.47C139.79 71.33 139.77 68.87 139.77 68.25L139.79 67.63ZM153.49 70.33V71.33C153.49 71.49 153.78 71.69 154.07 71.69H154.28C154.37 71.69 154.4 71.69 154.4 71.77V72.16C154.4 72.22 154.4 72.27 154.27 72.27C154.14 72.27 153.27 72.22 152.72 72.22C152.37 72.22 151.43 72.27 151.33 72.27C151.23 72.27 151.21 72.27 151.21 72.14V71.79C151.21 71.7635 151.221 71.738 151.239 71.7193C151.258 71.7005 151.283 71.69 151.31 71.69H151.56C152.07 71.69 152.17 71.59 152.19 71.36C152.21 71.13 152.19 70.63 152.19 69.67V69.09C152.05 68.8 150.07 65.89 149.81 65.64C149.642 65.5096 149.433 65.4423 149.22 65.45H148.99C148.91 65.45 148.88 65.45 148.88 65.32V64.96C148.88 64.91 148.88 64.86 149.01 64.86H151.92C151.935 64.8599 151.95 64.8631 151.965 64.8692C151.979 64.8753 151.991 64.8844 152.002 64.8957C152.012 64.907 152.02 64.9203 152.025 64.9348C152.03 64.9493 152.031 64.9647 152.03 64.98V65.42C152.03 65.48 152.03 65.53 151.92 65.53H151.68C151.38 65.53 151.37 65.71 151.43 65.81C151.49 65.91 152.88 68.11 153.14 68.5C153.38 68.1 154.73 66.13 154.79 66C154.85 65.87 154.94 65.53 154.58 65.53H154.32C154.305 65.5315 154.29 65.5298 154.276 65.5248C154.262 65.5198 154.249 65.5118 154.239 65.5013C154.228 65.4907 154.22 65.4779 154.215 65.4639C154.21 65.4498 154.208 65.4348 154.21 65.42V65.06C154.21 64.99 154.21 64.94 154.32 64.94H156.72C156.86 64.94 156.83 64.94 156.83 65.08V65.42C156.83 65.5 156.83 65.53 156.73 65.53H156.57C156.369 65.5208 156.168 65.5657 155.99 65.66C155.09 66.7254 154.255 67.8441 153.49 69.01V70.33ZM170.92 67.42V65.66C170.92 65.5 170.79 65.45 170.21 65.45H169.98C169.966 65.4516 169.953 65.4501 169.94 65.4457C169.927 65.4412 169.915 65.4339 169.906 65.4243C169.896 65.4146 169.889 65.4029 169.884 65.3901C169.88 65.3772 169.878 65.3635 169.88 65.35V64.95C169.88 64.9373 169.883 64.9247 169.888 64.9131C169.893 64.9014 169.9 64.891 169.91 64.8825C169.919 64.874 169.93 64.8676 169.942 64.8637C169.955 64.8599 169.967 64.8586 169.98 64.86H172.73C173.617 64.7589 174.513 64.9409 175.29 65.38C175.541 65.547 175.748 65.7727 175.893 66.0375C176.037 66.3023 176.115 66.5983 176.12 66.9C176.12 68.28 175.12 69.12 173.28 69.12C172.916 69.1276 172.551 69.1076 172.19 69.06V71.36C172.19 71.5 172.35 71.69 172.67 71.69H173.14C173.154 71.6884 173.167 71.6899 173.18 71.6943C173.193 71.6988 173.205 71.7061 173.214 71.7157C173.224 71.7253 173.231 71.737 173.236 71.7499C173.24 71.7627 173.242 71.7765 173.24 71.79V72.17C173.24 72.184 173.237 72.1979 173.232 72.2107C173.226 72.2236 173.218 72.2351 173.207 72.2445C173.197 72.2539 173.185 72.2611 173.171 72.2654C173.158 72.2698 173.144 72.2714 173.13 72.27C173 72.27 172.06 72.22 171.52 72.22C170.98 72.22 170.16 72.27 170.04 72.27C169.92 72.27 169.94 72.22 169.94 72.13V71.79C169.938 71.7765 169.94 71.7627 169.944 71.7499C169.949 71.737 169.956 71.7253 169.966 71.7157C169.975 71.7061 169.987 71.6988 170 71.6943C170.013 71.6899 170.026 71.6884 170.04 71.69H170.46C170.77 71.69 170.87 71.64 170.89 71.36C170.91 71.08 170.89 69.82 170.89 68.6L170.92 67.42ZM172.15 68.54C172.423 68.6163 172.707 68.6467 172.99 68.63C173.296 68.6313 173.598 68.5527 173.864 68.4018C174.131 68.251 174.353 68.0332 174.51 67.77C174.644 67.5041 174.702 67.2068 174.68 66.91C174.68 65.76 173.37 65.35 172.85 65.35C172.614 65.337 172.378 65.3606 172.15 65.42V68.54ZM183.92 68.22C184.02 68.22 184.98 68.17 185.11 68.14C185.53 68.02 185.69 67.8 185.69 67.29C185.69 67.23 185.69 67.21 185.77 67.21H186.13C186.2 67.21 186.24 67.21 186.23 67.31C186.22 67.41 186.23 68.31 186.23 68.46C186.23 68.82 186.23 69.32 186.29 69.53C186.35 69.74 186.29 69.61 186.21 69.61H185.87C185.82 69.61 185.79 69.61 185.77 69.55C185.69 69.14 185.59 68.88 185.17 68.79C184.769 68.7048 184.36 68.6646 183.95 68.67V70.95C183.95 71.71 184.42 71.76 185.12 71.76C185.732 71.8393 186.35 71.674 186.84 71.3C187.162 70.9692 187.45 70.6074 187.7 70.22C187.79 70.1 187.87 70.09 187.92 70.12L188.18 70.26C188.191 70.2782 188.196 70.2989 188.196 70.32C188.196 70.341 188.191 70.3617 188.18 70.38L187.59 72.1C187.59 72.18 187.48 72.26 187.41 72.26H181.6C181.52 72.26 181.51 72.21 181.51 72.15V71.78C181.51 71.71 181.51 71.68 181.62 71.68H181.77C182.53 71.68 182.58 71.61 182.58 71.39V67.93V65.85C182.53 65.5 182.43 65.44 181.78 65.44H181.62C181.57 65.44 181.55 65.44 181.55 65.33V64.94C181.549 64.9287 181.55 64.9172 181.553 64.9063C181.556 64.8954 181.562 64.8854 181.57 64.8768C181.577 64.8683 181.586 64.8615 181.597 64.8569C181.607 64.8522 181.619 64.8499 181.63 64.85H187.09C187.15 64.85 187.16 64.85 187.19 65.08C187.22 65.31 187.68 66.63 187.71 66.74C187.74 66.85 187.71 66.84 187.71 66.85L187.45 66.97C187.45 66.97 187.36 66.97 187.31 66.9C187.26 66.83 186.5 65.9 186.22 65.68C186.047 65.5316 185.828 65.4469 185.6 65.44L183.92 65.42V68.22ZM194.64 65.99C194.64 65.67 194.48 65.49 194.03 65.49H193.86C193.81 65.49 193.8 65.44 193.8 65.38V64.99C193.8 64.9773 193.803 64.9647 193.808 64.9531C193.813 64.9414 193.82 64.931 193.83 64.9225C193.839 64.914 193.85 64.9076 193.862 64.9038C193.875 64.8999 193.887 64.8986 193.9 64.9H197.1C197.857 64.8592 198.604 65.0858 199.21 65.54C199.546 65.8446 199.75 66.2677 199.78 66.72C199.78 67.84 199.14 68.5 197.86 68.95C198.23 69.03 198.56 69.54 199.22 70.48C199.48 70.8505 199.786 71.1865 200.13 71.48C200.346 71.6208 200.603 71.6843 200.86 71.66C200.93 71.66 200.95 71.71 200.95 71.8V72.13C200.951 72.1439 200.95 72.158 200.945 72.1713C200.941 72.1846 200.934 72.1969 200.924 72.2073C200.915 72.2176 200.904 72.2259 200.891 72.2315C200.878 72.2372 200.864 72.2401 200.85 72.24H199.02C198.573 71.6827 198.181 71.0832 197.85 70.45C197.26 69.45 197.02 69.08 196.34 69.08C196.201 69.0577 196.059 69.0577 195.92 69.08V71.22C195.92 71.2774 195.931 71.3342 195.955 71.3867C195.978 71.4393 196.011 71.4864 196.054 71.525C196.096 71.5637 196.146 71.593 196.201 71.6111C196.255 71.6291 196.313 71.6356 196.37 71.63H196.79C196.86 71.63 196.89 71.63 196.89 71.71V72.1C196.89 72.18 196.89 72.21 196.76 72.21C196.63 72.21 195.76 72.16 195.23 72.16C194.7 72.16 194 72.21 193.89 72.21C193.78 72.21 193.79 72.16 193.79 72.08V71.71C193.79 71.66 193.79 71.63 193.89 71.63H194.08C194.47 71.63 194.67 71.56 194.67 71.21V68.46L194.64 65.99ZM195.92 68.62C196.08 68.6344 196.24 68.6344 196.4 68.62C198.21 68.62 198.48 67.35 198.48 66.93C198.486 66.7148 198.441 66.5012 198.349 66.3066C198.257 66.1121 198.12 65.9419 197.95 65.81C197.489 65.5125 196.948 65.3625 196.4 65.38C196.16 65.38 195.92 65.45 195.92 65.74V68.62ZM208.61 71.42C208.61 71.7 208.79 71.75 209.05 71.75H209.44C209.49 71.75 209.52 71.75 209.52 71.85V72.2C209.52 72.27 209.52 72.33 209.44 72.33C209.36 72.33 208.5 72.28 207.85 72.28C207.2 72.28 206.53 72.33 206.47 72.33C206.41 72.33 206.37 72.28 206.37 72.2V71.85C206.368 71.8365 206.37 71.8228 206.374 71.8099C206.379 71.797 206.386 71.7854 206.396 71.7757C206.405 71.7661 206.417 71.7588 206.43 71.7543C206.443 71.7499 206.456 71.7484 206.47 71.75H206.92C207.2 71.75 207.29 71.62 207.31 71.49C207.33 71.36 207.31 70.17 207.31 68.4V67.67V65.96C207.31 65.83 207.18 65.51 206.87 65.51H206.23C206.17 65.51 206.15 65.46 206.15 65.4V65.04C206.15 64.97 206.15 64.92 206.25 64.92H211.97C212.02 65.27 212.33 66.66 212.38 66.92V67.05L212.12 67.16C212.12 67.16 212.04 67.16 211.99 67.07C211.78 66.6815 211.539 66.3103 211.27 65.96C211.122 65.7642 210.903 65.6348 210.66 65.6C210.38 65.54 208.82 65.52 208.61 65.52V68.59C208.76 68.59 209.7 68.59 209.83 68.53C210.14 68.46 210.33 68.09 210.4 67.73C210.4 67.62 210.4 67.59 210.5 67.59H210.82C210.87 67.59 210.88 67.59 210.88 67.67V68.86C210.88 69.21 210.88 69.72 210.93 69.86C210.931 69.8713 210.93 69.8828 210.927 69.8937C210.924 69.9046 210.918 69.9146 210.91 69.9231C210.903 69.9317 210.894 69.9385 210.883 69.9431C210.873 69.9477 210.861 69.9501 210.85 69.95H210.54C210.527 69.95 210.514 69.9474 210.502 69.9424C210.49 69.9374 210.479 69.93 210.469 69.9207C210.46 69.9114 210.453 69.9004 210.448 69.8882C210.443 69.8761 210.44 69.8631 210.44 69.85C210.444 69.6811 210.39 69.5161 210.286 69.383C210.182 69.2499 210.035 69.157 209.87 69.12C209.459 69.0349 209.04 68.9946 208.62 69L208.61 71.42ZM218.4 66.01C218.4 65.72 218.34 65.49 217.85 65.49H217.56C217.49 65.49 217.46 65.49 217.46 65.39V64.99C217.46 64.9773 217.463 64.9647 217.468 64.9531C217.473 64.9414 217.48 64.931 217.49 64.9225C217.499 64.914 217.51 64.9076 217.522 64.9038C217.535 64.8999 217.547 64.8986 217.56 64.9H220.65C220.75 64.9 220.76 64.9 220.76 65V65.42C220.762 65.4335 220.76 65.4472 220.756 65.4601C220.751 65.473 220.744 65.4846 220.734 65.4943C220.725 65.5039 220.713 65.5112 220.7 65.5157C220.687 65.5201 220.674 65.5216 220.66 65.52H220.43C219.91 65.52 219.74 65.68 219.72 65.81C219.7 65.94 219.72 66.58 219.72 67.18V69.91C219.71 70.3674 219.839 70.8171 220.09 71.2C220.277 71.4182 220.508 71.5937 220.769 71.7145C221.029 71.8353 221.313 71.8986 221.6 71.9C222.14 71.9026 222.664 71.715 223.08 71.37C223.281 71.1407 223.432 70.872 223.523 70.581C223.615 70.2899 223.644 69.9831 223.61 69.68V67.42C223.62 66.9259 223.6 66.4317 223.55 65.94C223.55 65.66 223.35 65.5 222.85 65.5H222.67C222.61 65.5 222.57 65.45 222.57 65.37V65.01C222.57 64.9969 222.573 64.9838 222.578 64.9717C222.583 64.9596 222.59 64.9486 222.599 64.9393C222.609 64.93 222.62 64.9226 222.632 64.9176C222.644 64.9126 222.657 64.91 222.67 64.91H225.27C225.286 64.9084 225.302 64.9105 225.318 64.916C225.333 64.9214 225.347 64.9302 225.358 64.9417C225.37 64.9532 225.379 64.967 225.384 64.9823C225.39 64.9976 225.392 65.0138 225.39 65.03V65.42C225.391 65.4339 225.39 65.448 225.385 65.4613C225.381 65.4747 225.374 65.4869 225.364 65.4973C225.355 65.5076 225.344 65.5159 225.331 65.5216C225.318 65.5272 225.304 65.53 225.29 65.53H225.14C224.57 65.53 224.52 65.79 224.48 65.97C224.44 66.15 224.48 67.33 224.48 67.53C224.48 67.73 224.48 69.48 224.43 69.88C224.435 70.2579 224.358 70.6325 224.205 70.9778C224.051 71.3231 223.824 71.6309 223.54 71.88C222.922 72.3486 222.152 72.5698 221.38 72.5C220.868 72.5174 220.358 72.4463 219.87 72.29C219.556 72.1892 219.273 72.0093 219.049 71.7676C218.825 71.5259 218.667 71.2305 218.59 70.91C218.436 70.0625 218.379 69.2003 218.42 68.34L218.4 66.01ZM230.92 64.99C230.919 64.9787 230.92 64.9672 230.923 64.9563C230.926 64.9454 230.932 64.9353 230.94 64.9268C230.947 64.9183 230.956 64.9115 230.967 64.9069C230.977 64.9022 230.989 64.8999 231 64.9H233.46C233.52 64.8976 233.578 64.9136 233.628 64.9458C233.678 64.978 233.717 65.0249 233.74 65.08L236.08 70.4C236.21 70.09 237.01 68.46 237.3 67.84C237.59 67.22 238.56 65.29 238.6 65.12C238.64 64.95 238.69 64.95 238.86 64.95H241.02C241.18 64.95 241.1 64.95 241.1 65.09V65.42C241.102 65.4348 241.1 65.4498 241.095 65.4639C241.09 65.4779 241.082 65.4907 241.071 65.5013C241.061 65.5118 241.048 65.5198 241.034 65.5248C241.02 65.5298 241.005 65.5315 240.99 65.53H240.59C240.37 65.53 240.3 65.71 240.29 65.87C240.28 66.03 240.29 68.47 240.29 68.7V71.2C240.29 71.51 240.38 71.77 240.64 71.77H241.18C241.191 71.7683 241.202 71.7692 241.213 71.7726C241.223 71.776 241.233 71.7818 241.24 71.7896C241.248 71.7974 241.254 71.807 241.257 71.8174C241.261 71.8279 241.262 71.8391 241.26 71.85V72.24C241.262 72.2548 241.26 72.2698 241.255 72.2839C241.25 72.2979 241.242 72.3107 241.231 72.3213C241.221 72.3318 241.208 72.3399 241.194 72.3448C241.18 72.3498 241.165 72.3516 241.15 72.35C241.02 72.35 240.15 72.3 239.54 72.3C239.13 72.3 238.13 72.35 238.01 72.35C237.89 72.35 237.92 72.3 237.92 72.19V71.87C237.92 71.8 237.92 71.77 238.01 71.77H238.53C238.86 71.77 238.97 71.59 238.97 71.44V65.62C238.89 65.79 237.59 68.55 237.31 69.08C237.03 69.61 235.98 71.83 235.93 71.93C235.88 72.03 235.8 72.17 235.67 72.17C235.54 72.17 235.53 72.09 235.48 71.99C235.43 71.89 234 68.62 233.92 68.42C233.69 67.93 232.92 66.05 232.69 65.66V71.02C232.76 71.61 232.98 71.77 233.47 71.77H233.72C233.78 71.77 233.8 71.82 233.8 71.9V72.25C233.802 72.2635 233.8 72.2772 233.796 72.2901C233.791 72.3029 233.784 72.3146 233.774 72.3243C233.765 72.3339 233.753 72.3412 233.74 72.3456C233.727 72.3501 233.714 72.3516 233.7 72.35C233.6 72.35 232.84 72.3 232.34 72.3C231.84 72.3 231.05 72.35 230.95 72.35C230.85 72.35 230.86 72.35 230.86 72.19V71.87C230.86 71.8 230.86 71.77 230.94 71.77H231.15C231.62 71.77 231.88 71.56 231.93 71.31C232.052 70.1239 232.112 68.9323 232.11 67.74V65.9C232.11 65.75 232.11 65.53 231.43 65.53H231.14C231.133 65.5444 231.123 65.5573 231.111 65.5679C231.098 65.5785 231.084 65.5865 231.069 65.5916C231.054 65.5968 231.037 65.5988 231.021 65.5977C231.005 65.5965 230.989 65.5922 230.975 65.585C230.961 65.5778 230.948 65.5678 230.937 65.5556C230.927 65.5434 230.918 65.5292 230.913 65.5139C230.908 65.4986 230.906 65.4824 230.907 65.4663C230.908 65.4502 230.913 65.4344 230.92 65.42V64.99ZM249.36 68.22C249.46 68.22 250.42 68.17 250.55 68.14C250.97 68.02 251.13 67.8 251.13 67.29C251.13 67.23 251.13 67.21 251.21 67.21H251.57C251.64 67.21 251.68 67.21 251.67 67.31C251.66 67.41 251.67 68.31 251.67 68.46C251.67 68.82 251.67 69.32 251.73 69.53C251.79 69.74 251.73 69.61 251.65 69.61H251.31C251.26 69.61 251.23 69.61 251.21 69.55C251.13 69.14 251.03 68.88 250.61 68.79C250.209 68.7048 249.8 68.6646 249.39 68.67V70.95C249.39 71.71 249.87 71.76 250.56 71.76C251.172 71.8393 251.79 71.674 252.28 71.3C252.602 70.967 252.893 70.6055 253.15 70.22C253.23 70.1 253.31 70.09 253.36 70.12L253.62 70.26C253.639 70.2731 253.654 70.2913 253.663 70.3126C253.672 70.3339 253.674 70.3573 253.67 70.38L253.08 72.1C253.08 72.18 252.97 72.26 252.9 72.26H247.1C247.01 72.26 247 72.21 247 72.15V71.78C247 71.71 247 71.68 247.11 71.68H247.26C248.02 71.68 248.07 71.61 248.07 71.39V67.93V65.85C248.02 65.5 247.92 65.44 247.27 65.44H247.11C247.06 65.44 247.04 65.44 247.04 65.33V64.94C247.038 64.9278 247.04 64.9154 247.043 64.9037C247.047 64.892 247.054 64.8814 247.063 64.8727C247.071 64.864 247.082 64.8574 247.094 64.8535C247.105 64.8495 247.118 64.8483 247.13 64.85H252.58C252.64 64.85 252.65 64.85 252.68 65.08C252.71 65.31 253.17 66.63 253.2 66.74C253.23 66.85 253.2 66.84 253.2 66.85L252.95 66.97C252.921 66.9776 252.89 66.9747 252.862 66.962C252.835 66.9492 252.813 66.9273 252.8 66.9C252.8 66.9 251.99 65.9 251.71 65.68C251.539 65.5271 251.319 65.4418 251.09 65.44H249.37L249.36 68.22ZM260.11 65.99C260.11 65.67 259.95 65.49 259.5 65.49H259.33C259.33 65.49 259.27 65.44 259.27 65.38V64.99C259.27 64.9773 259.273 64.9647 259.278 64.9531C259.283 64.9414 259.29 64.931 259.3 64.9225C259.309 64.914 259.32 64.9076 259.332 64.9038C259.345 64.8999 259.357 64.8986 259.37 64.9H262.57C263.327 64.8592 264.074 65.0858 264.68 65.54C265.016 65.8446 265.22 66.2677 265.25 66.72C265.25 67.84 264.61 68.5 263.33 68.95C263.7 69.03 264.03 69.54 264.69 70.48C264.953 70.8482 265.258 71.1839 265.6 71.48C265.819 71.6216 266.08 71.685 266.34 71.66C266.4 71.66 266.42 71.71 266.42 71.8V72.13C266.421 72.1439 266.42 72.158 266.415 72.1713C266.411 72.1846 266.404 72.1969 266.395 72.2073C266.385 72.2176 266.374 72.2259 266.361 72.2315C266.348 72.2372 266.334 72.2401 266.32 72.24H264.49C264.043 71.6827 263.651 71.0832 263.32 70.45C262.74 69.45 262.49 69.08 261.81 69.08C261.671 69.0577 261.529 69.0577 261.39 69.08V71.22C261.39 71.2774 261.402 71.3342 261.425 71.3867C261.448 71.4393 261.481 71.4864 261.524 71.525C261.566 71.5637 261.616 71.593 261.671 71.6111C261.725 71.6291 261.783 71.6356 261.84 71.63H262.27C262.33 71.63 262.36 71.63 262.36 71.71V72.1C262.36 72.18 262.36 72.21 262.23 72.21C262.1 72.21 261.23 72.16 260.71 72.16C260.19 72.16 259.47 72.21 259.36 72.21C259.25 72.21 259.26 72.16 259.26 72.08V71.71C259.26 71.66 259.26 71.63 259.36 71.63H259.55C259.94 71.63 260.14 71.56 260.14 71.21V68.46L260.11 65.99ZM261.35 68.62C261.51 68.6344 261.67 68.6344 261.83 68.62C263.64 68.62 263.91 67.35 263.91 66.93C263.916 66.7148 263.871 66.5012 263.779 66.3066C263.687 66.1121 263.55 65.9419 263.38 65.81C262.92 65.5113 262.379 65.3612 261.83 65.38C261.59 65.38 261.35 65.45 261.35 65.74V68.62ZM272.39 71.89C272.28 71.81 272.18 71.79 272.15 71.89L272.1 72.02C272.1 72.1 271.99 72.14 271.86 72.1C271.73 72.06 271.71 72.01 271.73 71.93C271.78 71.47 271.89 70.17 271.91 69.93C271.91 69.87 271.91 69.82 272.02 69.82H272.31C272.38 69.82 272.44 69.87 272.44 69.93C272.431 70.3199 272.531 70.7045 272.73 71.04C272.863 71.2892 273.062 71.4968 273.306 71.6398C273.549 71.7827 273.828 71.8555 274.11 71.85C274.64 71.85 275.41 71.44 275.41 70.75C275.41 69.82 274.78 69.41 273.92 69.09C273.346 68.8992 272.808 68.6117 272.33 68.24C272.121 68.0189 271.961 67.7553 271.863 67.4671C271.765 67.1789 271.73 66.8729 271.76 66.57C271.775 66.3069 271.845 66.0499 271.965 65.8156C272.086 65.5813 272.255 65.375 272.46 65.21C272.892 64.8704 273.431 64.6965 273.98 64.72C274.378 64.698 274.775 64.77 275.14 64.93C275.3 65.03 275.38 65.04 275.41 64.93L275.48 64.82C275.48 64.77 275.56 64.77 275.69 64.77C275.82 64.77 275.84 64.83 275.84 64.92C275.84 65.45 275.98 66.51 276 66.74C276.001 66.7608 275.994 66.7811 275.981 66.7975C275.968 66.8139 275.95 66.8254 275.93 66.83L275.64 66.9C275.59 66.9 275.56 66.9 275.54 66.83C275.418 66.4184 275.229 66.0298 274.98 65.68C274.843 65.5323 274.675 65.4163 274.489 65.3403C274.302 65.2643 274.101 65.2301 273.9 65.24C273.759 65.2291 273.616 65.2465 273.482 65.291C273.347 65.3355 273.223 65.4063 273.116 65.4994C273.009 65.5924 272.921 65.7058 272.859 65.833C272.796 65.9601 272.759 66.0985 272.75 66.24C272.747 66.5279 272.838 66.8088 273.01 67.04C273.333 67.3469 273.723 67.5731 274.15 67.7C274.79 67.8649 275.386 68.1649 275.9 68.58C276.092 68.7883 276.238 69.0351 276.328 69.3041C276.417 69.573 276.449 69.858 276.42 70.14C276.437 70.4413 276.391 70.743 276.284 71.0251C276.176 71.3072 276.01 71.5633 275.797 71.7768C275.583 71.9902 275.327 72.1561 275.045 72.2635C274.763 72.3709 274.461 72.4174 274.16 72.4C273.529 72.4337 272.906 72.254 272.39 71.89V71.89ZM291.28 71.89C291.17 71.81 291.07 71.79 291.04 71.89L290.99 72.02C290.99 72.1 290.88 72.14 290.75 72.1C290.62 72.06 290.6 72.01 290.62 71.93C290.67 71.47 290.78 70.17 290.8 69.93C290.8 69.87 290.8 69.82 290.91 69.82H291.2C291.27 69.82 291.33 69.87 291.33 69.93C291.321 70.3199 291.421 70.7045 291.62 71.04C291.753 71.2892 291.952 71.4968 292.196 71.6398C292.439 71.7827 292.718 71.8555 293 71.85C293.52 71.85 294.3 71.44 294.3 70.75C294.3 69.82 293.67 69.41 292.81 69.09C292.235 68.9014 291.696 68.6137 291.22 68.24C291.011 68.0189 290.851 67.7553 290.753 67.4671C290.655 67.1789 290.62 66.8729 290.65 66.57C290.665 66.3069 290.735 66.0499 290.855 65.8156C290.976 65.5813 291.145 65.375 291.35 65.21C291.782 64.8704 292.321 64.6965 292.87 64.72C293.268 64.698 293.665 64.77 294.03 64.93C294.19 65.03 294.27 65.04 294.3 64.93L294.37 64.82C294.37 64.77 294.45 64.77 294.58 64.77C294.71 64.77 294.73 64.83 294.73 64.92C294.73 65.45 294.87 66.51 294.89 66.74C294.891 66.7608 294.884 66.7811 294.871 66.7975C294.858 66.8139 294.84 66.8254 294.82 66.83L294.53 66.9C294.48 66.9 294.45 66.9 294.43 66.83C294.308 66.4184 294.119 66.0298 293.87 65.68C293.733 65.5323 293.565 65.4163 293.379 65.3403C293.192 65.2643 292.991 65.2301 292.79 65.24C292.649 65.2291 292.506 65.2465 292.372 65.291C292.237 65.3355 292.113 65.4063 292.006 65.4994C291.899 65.5924 291.811 65.7058 291.749 65.833C291.686 65.9601 291.649 66.0985 291.64 66.24C291.637 66.5279 291.728 66.8088 291.9 67.04C292.223 67.3469 292.613 67.5731 293.04 67.7C293.68 67.8649 294.276 68.1649 294.79 68.58C294.982 68.7883 295.128 69.0351 295.218 69.3041C295.307 69.573 295.339 69.858 295.31 70.14C295.327 70.4413 295.281 70.743 295.174 71.0251C295.066 71.3072 294.9 71.5633 294.687 71.7768C294.473 71.9902 294.217 72.1561 293.935 72.2635C293.653 72.3709 293.351 72.4174 293.05 72.4C292.419 72.4337 291.796 72.254 291.28 71.89V71.89ZM303.5 68.92V71.13C303.5 71.34 303.73 71.73 304.2 71.73H304.44C304.53 71.73 304.54 71.73 304.54 71.81V72.2C304.54 72.26 304.54 72.31 304.44 72.31C304.34 72.31 303.44 72.26 302.74 72.26C302.19 72.26 301.25 72.31 301.15 72.31C301.05 72.31 301.05 72.26 301.05 72.18V71.83C301.048 71.8165 301.05 71.8028 301.054 71.7899C301.059 71.777 301.066 71.7653 301.076 71.7557C301.085 71.7461 301.097 71.7388 301.11 71.7343C301.123 71.7299 301.137 71.7284 301.15 71.73H301.5C301.91 71.73 302.17 71.73 302.2 71.42C302.23 71.11 302.2 69.21 302.2 68.66V67.94V65.83C302.2 65.6 302.06 65.49 301.37 65.49H301.08C301 65.49 300.99 65.44 300.99 65.38V65C300.99 64.94 300.99 64.9 301.08 64.9C301.17 64.9 302.19 64.97 302.95 64.9H304.38C304.393 64.8986 304.405 64.8999 304.418 64.9038C304.43 64.9076 304.441 64.914 304.45 64.9225C304.46 64.931 304.467 64.9414 304.472 64.9531C304.477 64.9647 304.48 64.9773 304.48 64.99V65.42C304.48 65.48 304.48 65.53 304.38 65.53H304.1C303.67 65.53 303.52 65.59 303.5 65.94V68.15V68.92ZM317.55 72.07C317.55 72.21 317.5 72.38 317.3 72.38C317.163 72.3607 317.034 72.3016 316.93 72.21C316.82 72.1 316.26 71.44 315.6 70.64L313.97 68.71C313.58 68.25 312.27 66.5 311.97 66.2V68.42C311.97 69.42 312.04 71.02 312.07 71.16C312.12 71.54 312.3 71.72 312.46 71.72H312.8C312.88 71.72 312.88 71.72 312.88 71.82V72.2C312.88 72.27 312.88 72.3 312.8 72.3C312.72 72.3 312.04 72.25 311.57 72.25C311.34 72.25 310.57 72.3 310.48 72.3C310.39 72.3 310.43 72.3 310.43 72.19V71.77C310.43 71.77 310.43 71.72 310.5 71.72H310.92C311.045 71.7102 311.162 71.6549 311.248 71.5646C311.335 71.4742 311.385 71.3551 311.39 71.23C311.39 71.04 311.44 69.88 311.44 68.05V66.34C311.447 66.2252 311.43 66.1101 311.389 66.0024C311.349 65.8947 311.286 65.797 311.204 65.7156C311.123 65.6342 311.025 65.5711 310.918 65.5305C310.81 65.4899 310.695 65.4726 310.58 65.48H310.43C310.417 65.4816 310.403 65.4801 310.39 65.4757C310.377 65.4712 310.365 65.4639 310.356 65.4543C310.346 65.4446 310.339 65.4329 310.334 65.4201C310.33 65.4072 310.328 65.3935 310.33 65.38V64.99C310.33 64.9635 310.341 64.938 310.359 64.9193C310.378 64.9005 310.404 64.89 310.43 64.89H312.3C312.53 64.89 312.63 64.89 312.69 65.02C312.75 65.15 314.61 67.44 314.95 67.85C315.29 68.26 316.75 70.09 316.95 70.3H316.92V69.23C316.92 68.3 316.92 67.8 316.87 67.28C316.875 66.767 316.831 66.2548 316.74 65.75C316.678 65.6495 316.589 65.5689 316.482 65.5175C316.376 65.4662 316.257 65.4462 316.14 65.46H315.92C315.83 65.46 315.8 65.46 315.8 65.35V64.96C315.8 64.91 315.8 64.87 315.92 64.87H318.25C318.34 64.87 318.37 64.87 318.37 65.01V65.42C318.371 65.4339 318.37 65.448 318.365 65.4613C318.361 65.4747 318.354 65.4869 318.345 65.4973C318.335 65.5076 318.324 65.5159 318.311 65.5216C318.298 65.5272 318.284 65.53 318.27 65.53H318.11C317.7 65.53 317.62 65.64 317.59 65.87C317.529 66.6818 317.512 67.4964 317.54 68.31L317.55 72.07ZM324.92 71.53C324.194 70.7584 323.784 69.7428 323.772 68.6836C323.759 67.6245 324.143 66.5991 324.85 65.81C325.19 65.469 325.596 65.2003 326.043 65.0198C326.49 64.8394 326.968 64.751 327.45 64.76C328.146 64.7461 328.833 64.9078 329.45 65.23C329.6 65.31 329.71 65.31 329.73 65.23L329.78 65.05C329.78 65 329.84 64.97 329.99 64.97C330.14 64.97 330.23 64.97 330.23 65.15C330.23 65.33 330.39 66.85 330.41 67.24V67.41L330.02 67.47C329.96 67.47 329.94 67.47 329.91 67.34C329.778 66.8638 329.531 66.4276 329.19 66.07C328.74 65.6106 328.132 65.339 327.49 65.31C325.91 65.31 325.13 66.9 325.15 68.2C325.149 69.1908 325.504 70.1491 326.15 70.9C326.359 71.1467 326.622 71.3424 326.918 71.4724C327.215 71.6023 327.537 71.6631 327.86 71.65C328.339 71.6772 328.817 71.579 329.247 71.3651C329.677 71.1511 330.043 70.8288 330.31 70.43C330.37 70.31 330.42 70.3 330.47 70.33L330.75 70.51C330.81 70.51 330.75 70.62 330.75 70.72C330.445 71.1795 330.046 71.5691 329.579 71.863C329.112 72.1569 328.588 72.3485 328.042 72.425C327.496 72.5016 326.94 72.4614 326.41 72.3071C325.881 72.1528 325.39 71.8879 324.97 71.53H324.92ZM338.52 68.22C338.61 68.22 339.52 68.17 339.7 68.14C340.12 68.02 340.29 67.8 340.29 67.29C340.29 67.23 340.29 67.21 340.37 67.21H340.72C340.79 67.21 340.84 67.21 340.82 67.31C340.8 67.41 340.82 68.31 340.82 68.46C340.82 68.82 340.87 69.32 340.88 69.53C340.89 69.74 340.88 69.61 340.8 69.61H340.46C340.41 69.61 340.38 69.61 340.36 69.55C340.28 69.14 340.18 68.88 339.76 68.79C339.362 68.7046 338.957 68.6643 338.55 68.67V70.95C338.55 71.71 339.02 71.76 339.72 71.76C340.331 71.8382 340.949 71.673 341.44 71.3C341.759 70.9666 342.046 70.6051 342.3 70.22C342.38 70.1 342.46 70.09 342.51 70.12L342.77 70.26C342.782 70.2778 342.788 70.2987 342.788 70.32C342.788 70.3413 342.782 70.3621 342.77 70.38L342.18 72.1C342.18 72.18 342.07 72.26 342.01 72.26H336.2C336.12 72.26 336.1 72.21 336.1 72.15V71.78C336.1 71.71 336.1 71.68 336.21 71.68H336.36C337.12 71.68 337.17 71.61 337.17 71.39V67.93V65.85C337.12 65.5 337.02 65.44 336.38 65.44H336.21C336.16 65.44 336.15 65.44 336.15 65.33V64.94C336.15 64.94 336.15 64.85 336.23 64.85H341.69C341.76 64.85 341.75 64.85 341.78 65.08C341.81 65.31 342.27 66.63 342.31 66.74C342.35 66.85 342.31 66.84 342.31 66.85L342.05 66.97C342.021 66.9776 341.99 66.9747 341.962 66.962C341.935 66.9492 341.913 66.9273 341.9 66.9C341.9 66.9 341.09 65.9 340.81 65.68C340.643 65.5286 340.426 65.4433 340.2 65.44H338.48L338.52 68.22ZM358.92 67.99V66.66C358.92 66.22 358.73 66.03 358.16 66.03H357.52C357.51 66.0314 357.5 66.0307 357.49 66.0278C357.48 66.025 357.472 66.02 357.464 66.0134C357.456 66.0067 357.45 65.9985 357.446 65.9893C357.442 65.9801 357.44 65.9701 357.44 65.96V65.55C357.44 65.49 357.44 65.44 357.57 65.44L359.57 65.49L361.47 65.44C361.58 65.44 361.61 65.44 361.61 65.52V65.91C361.61 65.99 361.61 66.03 361.48 66.03H360.77C360.35 66.03 360.13 66.16 360.1 66.69C360.1 66.9 360.04 67.57 360.04 68.35V71.06C360.04 71.56 360.37 71.76 360.9 71.76H361.51C361.523 71.7599 361.535 71.7625 361.547 71.7676C361.559 71.7728 361.569 71.7803 361.577 71.7898C361.586 71.7992 361.592 71.8104 361.596 71.8225C361.6 71.8346 361.601 71.8474 361.6 71.86V72.21C361.6 72.31 361.6 72.34 361.49 72.34L359.56 72.29L357.56 72.34C357.48 72.34 357.44 72.34 357.44 72.24V71.86C357.44 71.77 357.44 71.76 357.57 71.76H358.01C358.208 71.786 358.409 71.7337 358.57 71.6142C358.73 71.4948 358.838 71.3175 358.87 71.12C358.937 70.3219 358.96 69.5207 358.94 68.72L358.92 67.99ZM369.23 76.15C369.29 75.7165 369.426 75.2969 369.63 74.91C370.04 73.97 373.14 67.99 373.87 66.61H370.77C370.453 66.5962 370.138 66.6678 369.859 66.8174C369.579 66.9669 369.345 67.1889 369.18 67.46C369.07 67.63 369.02 67.65 368.85 67.65C368.68 67.65 368.61 67.49 368.71 67.34C368.95 66.9 369.89 65.12 369.93 64.99C369.97 64.86 370.04 64.79 370.09 64.79C370.14 64.79 370.38 64.79 370.38 64.9C370.36 65.0017 370.334 65.1019 370.3 65.2C370.24 65.46 370.46 65.49 370.84 65.49H374.92C375.14 65.49 375.15 65.6 375.07 65.77C374.45 66.87 372.98 69.71 372.7 70.33C372.57 70.61 370.8 74.44 370.47 75.43C370.14 76.42 370.02 76.62 369.69 76.62C369.627 76.6286 369.562 76.6222 369.502 76.6014C369.441 76.5807 369.387 76.5461 369.342 76.5005C369.297 76.4548 369.264 76.3994 369.244 76.3385C369.225 76.2777 369.22 76.2131 369.23 76.15V76.15ZM380.63 75.06C380.634 75 380.65 74.9412 380.676 74.8874C380.703 74.8335 380.741 74.7856 380.786 74.7465C380.832 74.7073 380.885 74.6777 380.942 74.6594C381 74.6411 381.06 74.6345 381.12 74.64C381.386 74.6693 381.633 74.7894 381.82 74.98C381.937 75.087 382.074 75.1696 382.224 75.2228C382.373 75.2761 382.532 75.2989 382.69 75.29C383.007 75.2767 383.317 75.1987 383.602 75.0608C383.888 74.9228 384.142 74.7279 384.349 74.4881C384.556 74.2482 384.712 73.9685 384.806 73.6661C384.901 73.3637 384.933 73.0451 384.9 72.73C384.901 72.16 384.686 71.6106 384.299 71.193C383.911 70.7754 383.379 70.5205 382.81 70.48C382.785 70.4787 382.761 70.4725 382.738 70.4618C382.715 70.451 382.695 70.4359 382.678 70.4173C382.662 70.3988 382.649 70.3771 382.641 70.3535C382.632 70.3299 382.629 70.3049 382.63 70.28C382.63 70.18 382.69 70.1 382.84 70.07C383.37 69.9011 383.841 69.5832 384.196 69.154C384.55 68.7249 384.774 68.2028 384.84 67.65C384.823 67.2948 384.674 66.9586 384.423 66.7072C384.171 66.4557 383.835 66.307 383.48 66.29C383.152 66.3121 382.834 66.415 382.555 66.5895C382.276 66.7639 382.044 67.0045 381.88 67.29C381.853 67.3371 381.813 67.376 381.766 67.4024C381.718 67.4288 381.664 67.4418 381.61 67.44C381.46 67.44 381.4 67.37 381.4 67.27C381.41 67.1758 381.437 67.0843 381.48 67C381.698 66.5041 382.051 66.0792 382.498 65.7734C382.945 65.4677 383.469 65.2933 384.01 65.27C384.482 65.2482 384.943 65.4135 385.293 65.73C385.643 66.0466 385.854 66.4886 385.88 66.96C385.84 67.5143 385.682 68.0537 385.417 68.5419C385.151 69.0301 384.784 69.4557 384.34 69.79C384.84 69.9778 385.277 70.3008 385.604 70.7228C385.93 71.1448 386.133 71.6493 386.19 72.18C386.182 72.6707 386.078 73.155 385.882 73.6053C385.687 74.0555 385.405 74.4627 385.052 74.8037C384.699 75.1446 384.282 75.4125 383.825 75.592C383.368 75.7716 382.881 75.8593 382.39 75.85C381.65 75.87 380.63 75.71 380.63 75.06V75.06ZM392.5 68.92C392.489 68.4377 392.576 67.9582 392.757 67.5108C392.937 67.0634 393.207 66.6574 393.549 66.3177C393.892 65.978 394.3 65.7117 394.749 65.535C395.198 65.3583 395.678 65.2749 396.16 65.29C396.633 65.2799 397.102 65.367 397.54 65.5461C397.978 65.7251 398.374 65.9921 398.704 66.3307C399.034 66.6692 399.291 67.0719 399.459 67.5139C399.627 67.9559 399.702 68.4277 399.68 68.9C399.68 69.3709 399.587 69.8371 399.405 70.2716C399.224 70.7062 398.958 71.1004 398.623 71.4315C398.288 71.7626 397.891 72.024 397.455 72.2006C397.018 72.3771 396.551 72.4653 396.08 72.46C395.611 72.4694 395.144 72.3845 394.708 72.2104C394.272 72.0363 393.876 71.7766 393.542 71.4465C393.208 71.1165 392.944 70.7228 392.765 70.2888C392.586 69.8548 392.496 69.3894 392.5 68.92V68.92ZM398.59 68.8C398.599 68.1156 398.342 67.4544 397.874 66.9548C397.407 66.4552 396.763 66.1561 396.08 66.12C395.742 66.1277 395.408 66.2027 395.099 66.3406C394.79 66.4785 394.511 66.6765 394.28 66.9232C394.048 67.1699 393.868 67.4602 393.749 67.7773C393.631 68.0943 393.577 68.4318 393.59 68.77C393.57 69.1243 393.621 69.479 393.74 69.8133C393.859 70.1476 394.043 70.4547 394.283 70.7166C394.522 70.9784 394.812 71.1897 395.134 71.338C395.457 71.4863 395.805 71.5686 396.16 71.58C396.507 71.5725 396.849 71.4926 397.164 71.3456C397.479 71.1985 397.759 70.9874 397.988 70.7259C398.217 70.4643 398.388 70.158 398.492 69.8264C398.596 69.4948 398.629 69.1452 398.59 68.8Z" fill="currentColor"></path>
  </g>
  <defs>
    <clipPath id="clip0_2_2">
      <rect width="399.69" height="76.62" fill="currentColor"></rect>
    </clipPath>
  </defs>
</svg>