<svg class="primary-logo" width="217px" height="50px" id="Layer_2" xmlns="http://www.w3.org/2000/svg" version="1.1" viewBox="0 0 661.4 153.8">
 <!-- Generator: Adobe Illustrator 29.1.0, SVG Export Plug-In . SVG Version: 2.1.0 Build 142)  -->
 <title>LINKSOUL</title>
 <g>
 <path fill="#333132" d="M1.1,0C.5,0,0,.5,0,1.1v93.5c0,30,18.5,58,42,58.9.6,0,1.2-.5,1.2-1.1V58.8C43.2,28.9,24.7.9,1.1,0Z"></path>
 <path fill="#333132" d="M59.4,123.1c0,.6.6,1,1.2.7,8.1-4.4,13.5-12.9,13.5-36.4v-23.7c0-33,11-41,23.5-47,.9-.4,1.8-.8,2.7-1.1l1.7-.6c.5-.2.9-.6.9-1.2V1.1c0-.6-.5-1.1-1.2-1.1-23.6.9-42.2,29-42.2,59.1v64h0ZM102.8,31.6c0-.9-.9-1.4-1.7-1-7.9,4.5-13,13.1-13,36.2v23.7c0,34.2-11.6,42.9-25.5,47.6l-2.5.7c-.4.1-.7.5-.7.9v12.7c0,.6.5,1.1,1.1,1.1,23.6-.3,42.2-28.4,42.2-58.5V31.6h0Z"></path>
</g>
 <path fill="#333132" d="M181.6,142.6c0,5.3-.1,8.5-.4,9.6-.3,1.1-1.1,1.6-2.4,1.6h-42.2c-1.6,0-3.1,0-4.4-.1-1.3,0-2.3-.5-2.9-1.2-.7-.7-1.1-1.8-1.1-3.3V3.5c0-1.6.6-2.6,1.8-3,1.2-.3,4.3-.5,9.2-.5s9,.2,10.4.6c1.4.4,2.1,1.4,2.1,3.2v119.9c0,1.5,0,3,.1,4.5,0,1.5.5,2.6,1.2,3.2.6.3,1.4.5,2.5.7,1.1.1,2.2.2,3.4.2h19.6c1.5,0,2.3.6,2.6,1.6.3,1.1.4,4,.4,8.7h0Z"></path>
 <path fill="#333132" d="M214.7,152c-.1.4-.6.8-1.4,1-.8.2-2,.4-3.6.4-1.6,0-3.9.1-7,.1h-6.3c-1.5,0-2.7-.1-3.4-.3-.7-.2-1.2-.6-1.3-1-.1-.4-.2-1-.2-1.8V3.7c0-1.6.6-2.6,1.8-3,1.2-.4,4.3-.6,9.4-.6s5.2,0,6.8.1c1.6,0,2.8.2,3.6.4.8.2,1.3.6,1.5,1.1.2.5.3,1.2.3,2.1v146.1c0,.9,0,1.5-.2,2h0Z"></path>
 <path fill="#333132" d="M295.1,150.8c0,.8-.4,1.4-1.1,1.9s-1.8.7-3.3.9c-1.5.1-3.7.2-6.5.2s-5.1-.3-6.5-.9c-1.4-.6-2.5-2.3-3.2-5.1-1.8-6.3-3.3-11.9-4.7-16.9-1.4-5-2.7-9.8-4-14.6-1.2-4.8-2.6-9.8-4-15.1-1.4-5.3-3-11.3-4.9-18.2-.3-1.2-.6-2.5-1-4.1-.4-1.5-.8-3-1.2-4.3-.4-1.3-.8-2.4-1.2-3.3-.4-.9-.8-1.3-1.2-1.3-.7,0-1.2.9-1.3,2.6-.1,1.8-.2,3.4-.2,4.8v72.3c0,.9-.1,1.6-.3,2.1-.2.5-.7.9-1.4,1.2-.7.3-1.9.5-3.6.6-1.7,0-3.9.1-6.7.1s-4.9,0-6.4-.1c-1.5,0-2.5-.3-3.2-.6-.7-.3-1.1-.7-1.2-1.1-.1-.4-.2-1.1-.2-2V3.1c0-1.5.5-2.3,1.4-2.6,1-.3,3.8-.4,8.7-.4s7.7.4,9.1,1.2c1.4.8,2.4,2.8,3.2,5.8,2.5,9.1,5.2,19.2,8.2,30.4,3,11.2,6.2,22.7,9.6,34.4.3,1.2.6,2.4,1,3.7.4,1.3.9,2,1.6,2s1.2-.8,1.3-2.4c.1-1.6.2-3,.2-4.2V4c0-.9,0-1.6.2-2.1.1-.5.6-.9,1.4-1.2.8-.3,2-.5,3.5-.6,1.5,0,3.7-.1,6.5-.1s4.9,0,6.5.1c1.5,0,2.7.2,3.4.4.7.2,1.2.6,1.3,1.1.1.5.2,1.2.2,2.1v143.7c0,1.5,0,2.6-.1,3.4h0Z"></path>
 <path fill="#333132" d="M377.6,151.1c0,.3,0,.6-.1,1,0,.4-.5.7-1.2.9-.7.2-1.9.4-3.5.6-1.6.1-3.9.2-6.8.2-5,0-8.2,0-9.8-.2-1.5-.1-2.5-1.1-3-2.9-1.5-5.9-2.8-11.3-4.1-16.3-1.2-5-2.5-9.9-3.7-14.7-1.2-4.8-2.5-9.7-3.6-14.6-1.2-4.9-2.5-10.4-4-16.4-.3-1-.8-1.4-1.5-1.2-.7.2-1.8,1.8-3.1,4.7-1.2,2.8-1.8,5.9-1.8,9.2v48.3c0,1.8-1.2,2.9-3.5,3.3-2.3.4-5.1.7-8.4.7s-5.6-.2-8-.6c-2.4-.4-3.6-1.4-3.6-3V3.3c0-.7.4-1.3,1.1-1.6.7-.4,1.6-.7,2.8-.9,1.1-.2,2.3-.4,3.7-.4s2.7-.1,3.8-.1h4.1c1.4,0,2.7.1,3.9.3,1.2.2,2.2.6,3,1,.8.4,1.2,1.1,1.2,2v56.1c0,1.2.4,1.7,1.1,1.4.3-.1.5-.7.8-1.7.2-1,.5-1.8.8-2.5,1.5-5.3,2.8-10,4.1-14.3s2.4-8.4,3.5-12.5c1.1-4.1,2.2-8.3,3.4-12.6,1.2-4.3,2.6-9.1,4.2-14.4.3-1.2,1.1-1.8,2.5-2,1.4-.1,4.6-.2,9.8-.2s8.9.2,10.4.5c1.5.4,2.2.9,1.9,1.7-1.9,5.9-3.5,11-4.9,15.4-1.4,4.4-2.7,8.6-4.1,12.6-1.3,4-2.7,8.2-4.1,12.4-1.4,4.2-3,9.2-5,14.7-1,2.8-1.5,5.2-1.5,7.2s.1,2.1.3,3.2c.2,1.1.6,2.7,1.2,4.7,2.2,7.5,4.1,14.2,5.8,20.2,1.7,6,3.3,11.9,4.9,17.7,1.6,5.8,3.3,11.9,5,18.2,1.8,6.4,3.7,13.6,5.9,21.6h0Z"></path>
 <path fill="#333132" d="M447,115.8c0,3.4-.3,6.9-.8,10.6-.5,3.7-1.4,6.7-2.7,9.2-1.9,3.4-3.7,6.2-5.4,8.6-1.7,2.3-3.6,4.2-5.7,5.6-2.1,1.4-4.5,2.4-7.2,3.1-2.7.7-6,1-10,1s-8.8-.7-12.6-2c-3.9-1.3-7.2-3.3-10.1-5.9-2.9-2.6-5.1-5.9-6.7-9.7-1.6-3.8-2.4-8.2-2.4-13.2v-12.3c0-1,.7-1.7,2.1-1.9s4.2-.3,8.6-.3,7.6,0,9.7.2,3.2.7,3.2,1.5v9.2c0,4.1.5,7.3,1.6,9.6s3.3,3.4,6.7,3.4,5-.9,6-2.6c1-1.8,1.7-3.6,2-5.5.1-1.9.3-3.7.3-5.3,0-1.6.1-3.2.1-4.8,0-3.2-1-6.6-3.1-10.2-2-3.6-4.6-7.4-7.7-11.3-3.1-3.9-6.4-8.1-10-12.5-3.6-4.4-6.9-9-10-13.7-3.1-4.8-5.6-9.7-7.7-14.8-2-5.1-3.1-10.5-3.1-16s.1-3.2.4-5.2c.3-2,.7-4,1.2-5.9.5-2,1.1-3.8,1.7-5.6s1.3-3.3,2.1-4.6c.7-1.3,1.8-2.8,3.1-4.4,1.4-1.6,3.1-3.2,5.1-4.6s4.5-2.7,7.3-3.7c2.8-1,6.1-1.5,10-1.5s8.9.8,12.7,2.4c3.8,1.6,7.1,3.8,9.9,6.5,2.8,2.7,4.9,5.9,6.4,9.6,1.5,3.7,2.2,7.5,2.2,11.4v10.8c0,.7-.8,1.1-2.4,1.2-1.6,0-4.3.1-8.1.1s-7.4,0-9.6-.2c-2.1-.1-3.2-.6-3.2-1.3v-10.1c0-3.1-.8-5.5-2.5-7.2-1.7-1.8-3.5-2.6-5.4-2.6s-3.7.7-5,2.2c-1.3,1.5-2.1,3.1-2.4,4.8-.4,3.4-.7,6.3-.7,8.8,0,4.4,1,8.5,3.1,12.4s4.7,7.8,7.8,11.8,6.5,8,10.2,12c3.6,4,7,8.2,10.2,12.6s5.8,9.1,7.8,14.2c2.1,5.1,3.1,10.6,3.1,16.6h0Z"></path>
 <path fill="#333132" d="M513,144.9c-5.4,5.9-13.4,8.9-24.1,8.9s-9.6-.8-13.5-2.4c-3.9-1.6-7.2-3.8-10-6.7-2.8-2.9-4.9-6.2-6.3-10s-2.1-8-2.1-12.5V31.4c0-4.8.8-9.1,2.4-13,1.6-3.8,3.8-7.1,6.7-9.9,2.9-2.8,6.2-4.9,10.1-6.4,3.9-1.5,8.1-2.2,12.6-2.2,9.5,0,17.2,2.8,23.2,8.5,5.9,5.6,8.9,13.3,8.9,23v90.7c0,9.2-2.7,16.8-8,22.7h0ZM497.5,35.8c0-3.1-.6-6-1.8-8.9s-3.4-4.3-6.7-4.3-5.7,1.4-6.8,4.3c-1.1,2.9-1.7,5.8-1.7,8.9v81.7c0,1.6,0,3.2.1,4.7s.4,2.9,1,4.2,1.5,2.3,2.6,3.1c1.1.8,2.7,1.2,4.8,1.2s3.5-.4,4.6-1.2c1.1-.8,2-1.8,2.6-3.1s1-2.6,1.1-4.2c.1-1.5.2-3.1.2-4.7V35.8h0Z"></path>
 <path fill="#333132" d="M587.6,145.3c-5.6,5.6-13.5,8.5-23.7,8.5s-9.5-.8-13.4-2.5c-4-1.7-7.3-3.9-10-6.7-2.7-2.8-4.8-6-6.3-9.8-1.5-3.7-2.2-7.6-2.2-11.5V3.7c0-1.8.7-2.8,2.1-3.2,1.4-.3,4.8-.5,10.2-.5s7.4.2,8.9.7c1.5.4,2.3,1.5,2.3,3.1v114.6c0,2.9.5,5.7,1.4,8.4s3.3,4,7,4,5.9-1.3,6.9-3.8c1-2.6,1.6-5.4,1.6-8.5V3.5c0-1.6.6-2.6,1.7-3,1.2-.4,4.2-.5,9.1-.5s9.2.2,10.6.7c1.4.4,2.1,1.3,2.1,2.6v119.7c0,9.2-2.8,16.7-8.3,22.3h0Z"></path>
 <path fill="#333132" d="M661.4,142.6c0,5.3-.2,8.5-.4,9.6-.3,1.1-1.1,1.6-2.4,1.6h-42.2c-1.6,0-3.1,0-4.4-.1-1.3,0-2.3-.5-2.9-1.2-.7-.7-1.1-1.8-1.1-3.3V3.5c0-1.6.6-2.6,1.8-3,1.2-.3,4.2-.5,9.2-.5s9,.2,10.4.6c1.4.4,2.1,1.4,2.1,3.2v119.9c0,1.5,0,3,.1,4.5,0,1.5.5,2.6,1.2,3.2.6.3,1.4.5,2.5.7,1.1.1,2.2.2,3.4.2h19.5c1.5,0,2.3.6,2.6,1.6.3,1.1.4,4,.4,8.7h0Z"></path>
</svg>