<svg class="icon-logo" width="102" height="40" viewBox="0 0 102 40" fill="none" xmlns="http://www.w3.org/2000/svg">
      <path d="M56.9861 13.0555H41.9561V0.425297H56.7756V3.07764H45.2821V5.26688H56.2283V8.00343H45.2821V10.4032H56.9861V13.0555ZM77.6155 10.3611H65.9114V7.96133H76.8576V5.26688H65.9114V3.07764H77.3629V0.425297H62.5855V13.0555H77.6155V10.3611ZM101.023 4.13016C100.67 3.36729 100.152 2.69171 99.5079 2.15143C98.7997 1.56547 97.9848 1.12226 97.1081 0.846304C96.0863 0.527711 95.0208 0.371441 93.9506 0.383196H83.4254V13.0555H86.4987V3.28815H94.2453C94.7755 3.27731 95.3033 3.3629 95.803 3.54075C96.271 3.70523 96.7007 3.96304 97.066 4.29857C97.3956 4.6363 97.6534 5.03731 97.8238 5.47739C97.9964 5.87751 98.0962 6.30522 98.1185 6.74041V6.82461C98.1324 7.03489 98.1324 7.24585 98.1185 7.45612C97.7396 10.1085 95.6767 11.9188 90.793 13.4344C90.0071 13.7151 89.123 13.9677 88.1406 14.1922L51.2604 23.1597L14.2959 14.1922L11.6015 13.4765C8.35972 12.4661 4.44435 10.6137 4.44435 6.90881C4.44667 6.36703 4.57647 5.8334 4.82325 5.35108C5.05582 4.88006 5.38589 4.46389 5.79157 4.13016C6.23319 3.79103 6.73236 3.53432 7.2651 3.37235C7.96311 3.17232 8.68614 3.07308 9.41224 3.07764C10.423 3.08615 11.423 3.28615 12.3593 3.66705C13.7597 4.28204 15.042 5.1369 16.1484 6.1931V2.19353C15.4959 1.68366 14.7901 1.24606 14.0433 0.888405C12.5967 0.261616 11.0302 -0.040183 9.45434 0.00428941C8.25391 -0.00256587 7.06007 0.182194 5.91787 0.551599C4.87764 0.874376 3.90675 1.38838 3.05502 2.06723C2.35392 2.63409 1.7922 3.35424 1.41309 4.17226C1.04601 4.96341 0.859081 5.82617 0.865783 6.69831C0.791822 8.46598 1.36009 10.2007 2.46561 11.582C4.10754 13.5186 7.2651 15.4974 14.0433 17.1393L45.0716 24.6332L8.52812 33.4744H20.8215L51.1762 26.1068L81.6992 33.4744H93.9084L57.365 24.6332L88.4353 17.1393C95.1715 15.4553 98.3711 13.5186 100.013 11.582C101.104 10.1948 101.657 8.46068 101.571 6.69831C101.577 5.82617 101.391 4.96341 101.023 4.17226V4.13016ZM24.6527 13.0555H21.2846V0.425297H31.5993C32.2683 0.401196 32.9366 0.486521 33.5781 0.677901C34.1353 0.852604 34.651 1.13911 35.0937 1.51992C35.4899 1.88573 35.8054 2.33026 36.0199 2.82504C36.2503 3.35616 36.3651 3.9302 36.3567 4.50907C36.3567 6.4457 35.5147 7.79293 33.8307 8.38234L37.7881 13.0555H33.7044L29.9574 8.71914H24.6948L24.6527 13.0555ZM24.6527 6.0247H31.2625C31.7476 6.05085 32.2259 5.90139 32.6098 5.60369C32.7708 5.4709 32.8998 5.30354 32.9873 5.11403C33.0747 4.92453 33.1184 4.71775 33.115 4.50907C33.1217 4.30593 33.0792 4.10417 32.9913 3.92093C32.9033 3.7377 32.7724 3.57839 32.6098 3.45655C32.2225 3.16535 31.7467 3.01665 31.2625 3.03554H24.6527V6.0247ZM24.6527 13.0555H21.2846V0.425297H31.5993C32.2683 0.401196 32.9366 0.486521 33.5781 0.677901C34.1353 0.852604 34.651 1.13911 35.0937 1.51992C35.4899 1.88573 35.8054 2.33026 36.0199 2.82504C36.2503 3.35616 36.3651 3.9302 36.3567 4.50907C36.3567 6.4457 35.5147 7.79293 33.8307 8.38234L37.7881 13.0555H33.7044L29.9574 8.71914H24.6948L24.6527 13.0555ZM24.6527 6.0247H31.2625C31.7476 6.05085 32.2259 5.90139 32.6098 5.60369C32.7708 5.4709 32.8998 5.30354 32.9873 5.11403C33.0747 4.92453 33.1184 4.71775 33.115 4.50907C33.1217 4.30593 33.0792 4.10417 32.9913 3.92093C32.9033 3.7377 32.7724 3.57839 32.6098 3.45655C32.2225 3.16535 31.7467 3.01665 31.2625 3.03554H24.6527V6.0247ZM38.6302 39.4948C38.6302 39.7053 38.5881 39.7895 38.3776 39.7895V39.9158H40.1458V39.7895C39.9353 39.7895 39.8511 39.7053 39.8511 39.4948V34.1059C39.8511 33.8954 39.9353 33.8112 40.1458 33.8112V33.6849H38.4618V33.8112C38.5176 33.8112 38.5711 33.8334 38.6106 33.8728C38.6501 33.9123 38.6723 33.9659 38.6723 34.0217C38.6723 34.2322 38.2513 34.4427 38.0828 34.4427C37.9144 34.4427 37.8723 34.4006 37.8723 34.2743H37.746V35.6215H37.8723C37.8723 35.411 37.9986 35.2847 38.6302 35.2847V39.4948ZM43.9349 39.4948C43.9047 39.5738 43.8534 39.6431 43.7866 39.6951C43.7198 39.747 43.64 39.7797 43.5559 39.7895V39.9158H45.4926V39.7895C45.4084 39.7895 45.3242 39.7895 45.3242 39.7053C45.3352 39.6163 45.3638 39.5304 45.4084 39.4527L48.3554 34.6111V33.4744H48.2291C48.2291 33.6007 48.1028 33.6849 47.8923 33.6849H42.8823C42.7139 33.6849 42.5876 33.6007 42.5876 33.4744H42.4613V34.9058H42.5876C42.5876 34.7795 42.7139 34.7374 42.8823 34.7374H46.8819L43.9349 39.4948ZM56.0178 34.1059L55.8915 34.0638C55.8824 34.0896 55.8652 34.1118 55.8424 34.127C55.8196 34.1422 55.7925 34.1495 55.7652 34.148C55.5488 34.0628 55.3379 33.9644 55.1337 33.8533C54.6773 33.6775 54.1912 33.5917 53.7022 33.6007C51.7235 33.6007 50.4184 34.9058 50.4184 36.8845C50.4184 38.8633 51.513 40 53.4917 40C54.881 40 56.3546 39.4106 56.3546 37.8108C56.3546 36.4214 55.0915 35.7057 53.7443 35.7057C52.973 35.689 52.2229 35.959 51.6393 36.4635C51.7235 35.2005 52.5234 34.569 53.7443 34.569C54.7547 34.569 55.26 35.0742 55.26 35.2847C55.2729 35.3258 55.2729 35.3699 55.26 35.411H55.3863L56.0178 34.1059ZM55.1337 37.895C55.1337 38.6528 54.5021 38.9896 53.4917 38.9896C52.4813 38.9896 51.8498 38.6528 51.8498 37.895C51.8498 37.3477 52.4392 36.7582 53.4917 36.7582C54.5442 36.7582 55.1337 37.095 55.1337 37.895ZM61.6172 33.6007C59.7226 33.6007 58.4596 34.9479 58.4596 36.8003C58.4596 38.6528 59.7226 40 61.6172 40C63.5117 40 64.7747 38.6107 64.7747 36.8003C64.7747 34.99 63.5117 33.5586 61.6172 33.5586V33.6007ZM61.6172 34.6111C62.796 34.6111 63.5538 35.4952 63.5538 36.8003C63.5538 38.1055 62.796 38.9896 61.6172 38.9896C60.4384 38.9896 59.6805 38.1476 59.6805 36.8003C59.6805 35.4531 60.4384 34.6111 61.6172 34.6111Z" fill="currentColor"></path>
    </svg>