<svg class="icon icon--logo " id="Layer_2" xmlns="http://www.w3.org/2000/svg" viewBox="0 0 860.41 114.12">
    <defs>
      <style>
        .cls-1 {
          fill: #121212;
          stroke-width: 0px;
        }
      </style>
    </defs>
    <g id="Layer_1-2">
      <path class="cls-1" d="m292.13,111.56h12.18V1.29h-12.18v51.47h-37.17V1.29h-12.19v110.27h12.19v-46.61h37.17v46.61Z"></path>
      <path class="cls-1" d="m327.19,111.56h12.18V1.29h-12.18v110.27Z"></path>
      <path class="cls-1" d="m423.49,111.56h10.86V1.29h-12.25v83.67L373.74,1.29h-11.42v110.27h12.18V26.91l48.99,84.65Z"></path>
      <path class="cls-1" d="m589.18,111.59h10.92c17.89-.09,32.01-5.21,41.97-15.21,10.94-10.98,16.48-24.42,16.48-39.93s-5.54-28.9-16.48-39.93c-9.96-10-24.08-15.12-41.97-15.21h-10.92v110.27Zm14.79-12.4h-2.61V13.78h2.61c11.87,0,21.75,3.86,29.36,11.47,8.55,8.6,12.89,19.09,12.89,31.19s-4.34,22.64-12.89,31.2c-7.61,7.66-17.49,11.54-29.36,11.54Z"></path>
      <path class="cls-1" d="m676.59,111.59h12.19V1.32h-12.19v110.27Z"></path>
      <path class="cls-1" d="m739.84,111.59h6.1L786.73,1.32h-13.01l-30.88,83.58L712.08,1.32h-13.01l40.78,110.27Z"></path>
      <path class="cls-1" d="m509.8.19c-15.51,0-28.92,5.57-39.85,16.54-10.94,10.98-16.48,24.39-16.48,39.86s5.54,28.92,16.48,39.86c10.94,10.93,24.35,16.48,39.86,16.48,11.78,0,22.65-3.59,32.31-10.68v-46.72h-12.22v40.68l-.67.33c-5.57,2.74-12.11,4.14-19.43,4.14-12.06,0-22.52-4.33-31.09-12.88-8.57-8.55-12.92-19.05-12.92-31.2s4.35-22.57,12.92-31.12c8.57-8.55,19.03-12.88,31.09-12.88,8.26,0,16.39,2.54,24.16,7.54l5.25-11.42c-9.19-5.65-19.08-8.52-29.42-8.52Z"></path>
      <path class="cls-1" d="m0,111.54h10.92c17.89-.09,32.01-5.21,41.96-15.21,10.94-10.98,16.48-24.42,16.48-39.93s-5.54-28.9-16.48-39.93C42.93,6.48,28.81,1.36,10.92,1.27H0v110.27Zm14.8-12.39h-2.61V13.74h2.61c11.87,0,21.75,3.86,29.36,11.47,8.55,8.6,12.89,19.09,12.89,31.19s-4.34,22.64-12.88,31.2c-7.61,7.66-17.49,11.54-29.36,11.54Z"></path>
      <path class="cls-1" d="m70.96,112.12l2.4,1.98,64.79-23.33,7.87,20.76h12.95L118.27,1.26h-6.13l-41.17,110.86Zm18.92-16.16l25.26-68,19,51.91-.37.14-43.89,15.95Z"></path>
      <path class="cls-1" d="m772.4,112.14l2.4,1.98,64.79-23.33,7.87,20.76h12.95L819.7,1.28h-6.13l-41.17,110.86Zm18.92-16.16l25.26-68,19,51.91-.37.14-43.89,15.95Z"></path>
      <path class="cls-1" d="m216.76,57.78c-4-4-9.05-6.78-14.68-9.38,0,0-3.66-1.55-9.59-4.3,0,0-5.06-2.21-8.12-5.34-1.87-1.85-5.02-5.84-5.02-11.64,0-4.13,1.49-7.75,4.43-10.78,2.71-2.79,6.65-4.39,10.81-4.39s7.51,1.41,10.66,4.31c2.61,2.41,4.05,5.37,4.82,7.65l10.8-3.83c-.88-2.8-3.02-8.33-7.04-12.11-5.7-5.36-11.99-7.97-19.24-7.97s-14.02,2.69-19.31,8c-5.28,5.31-7.96,11.74-7.96,19.12,0,13.64,8.75,20.98,12.34,23.42,3,2.17,6.68,3.86,6.68,3.86,2.15,1.06,4.63,2.14,7.61,3.38,5.28,2.17,10.55,4.96,14.19,8.6,3.88,3.89,5.85,8.63,5.85,14.09s-1.97,10.27-5.85,14.16c-3.89,3.88-8.63,5.85-14.09,5.85s-9.97-1.87-14.08-5.85c0,0-5.38-4.87-6.63-14.56l-11.58,4.11c1.94,11.93,9.51,19.05,9.51,19.05,5.9,6.19,13.92,9.49,22.78,9.49s16.46-3.18,22.73-9.45c6.27-6.27,9.45-13.94,9.45-22.8s-3.19-16.49-9.48-22.7Z"></path>
    </g>
  </svg>