<svg class="svg svg--logo" width="200" height="32" viewBox="0 0 412 66" fill="none" xmlns="http://www.w3.org/2000/svg">
  <g fill="#d21008">
    <path d="M14.9199 47.6897C12.6598 47.292 11.7427 47.0269 9.41707 47.0269C8.156 47.0269 4.30729 47.1594 4.30729 48.5016C4.30729 49.0319 5.17529 49.5124 6.82942 49.5124C9.08952 49.5124 12.0047 48.833 14.9199 47.6897ZM71.8645 2.353C64.2981 2.353 59.5978 6.84359 53.8984 12.5438C50.0497 16.4379 45.5459 24.6899 42.3686 29.2468C36.9968 36.9686 31.1664 41.5255 22.4863 46.0161C21.7493 46.4138 21.0287 46.7452 20.2917 47.0931L22.6173 47.5571C27.3832 48.5016 33.1645 49.2307 37.8648 49.2307C44.9563 49.2307 51.1306 46.0161 54.8974 41.9895C55.6344 41.1775 56.6826 40.8461 57.7471 40.8461C59.3357 40.8461 60.8588 41.7243 60.8588 43.1991C60.8588 44.2099 60.2037 45.4195 58.3367 46.8943C52.7683 51.3186 45.4804 51.3849 37.9795 51.3849C32.8697 51.3849 26.9738 49.9764 22.0605 49.0319L17.7532 48.2199C13.839 49.761 8.53268 51.4346 4.29091 51.4346C1.71964 51.4512 0 50.3078 0 49.0319C0 45.6847 5.63386 45.2704 7.28799 45.2704C10.3997 45.2704 14.3139 46.0823 17.4257 46.6126L20.3409 45.1378C28.4969 40.9787 34.1307 31.1193 39.8956 22.8672C43.0073 18.4429 46.3975 14.0849 50.5738 10.3897C56.5515 5.10369 65.9031 0 75.4512 0C78.9724 0 83.0831 0.265127 85.9328 2.00502C87.5214 2.94954 88.1929 3.87748 88.1929 4.62315C88.1929 5.63394 86.9973 6.29676 85.3432 6.29676C84.4097 6.29676 83.3615 6.03163 82.297 5.56766C78.7595 3.96033 75.3202 2.353 71.8645 2.353Z"></path>
    <path d="M89.8474 15.3608C90.9775 15.3608 91.6981 16.1728 91.6981 17.2333C91.6981 19.1058 89.7164 21.1273 87.7839 21.1273C86.6538 21.1273 86.0642 20.448 86.0642 19.3875C86.0642 17.515 87.7839 15.3608 89.8474 15.3608ZM71.9304 43.3317C70.8004 44.8065 70.1453 46.0161 70.1453 46.8281C70.1453 47.4246 70.4728 47.7726 71.1443 47.7726C72.2088 47.7726 72.995 47.5075 75.3206 45.9001L76.1231 46.9772C73.4699 48.916 69.4247 50.6724 66.575 51.2027C66.2474 51.2689 65.9199 51.269 65.6415 51.269C64.2494 51.269 63.6598 50.6724 63.6598 49.5953C63.6598 48.2531 64.6588 46.2481 66.313 44.094L80.6924 25.3859H85.7367L71.9304 43.3317Z"></path>
    <path d="M106.945 26.6288C107.6 27.2253 107.944 27.9047 107.944 28.5675C107.944 29.8435 106.814 30.9868 105.487 30.9868C104.75 30.9868 104.03 30.6554 103.293 29.7109C102.032 28.1036 100.771 26.5625 98.92 26.5625C96.0049 26.5625 95.8083 28.435 95.8083 29.8435C95.8083 33.7375 99.8536 36.8859 99.8536 40.9788C99.8536 46.5465 94.0887 51.4513 86.7352 51.4513C84.3441 51.4513 81.4289 50.5731 79.3817 48.9657C78.7921 48.3692 78.5137 47.6898 78.5137 47.027C78.5137 45.6185 79.7092 44.3426 81.0358 44.3426C81.7728 44.3426 82.5589 44.674 83.2959 45.6848C84.7535 47.6235 86.9481 49.1812 89.0608 49.1812C91.4519 49.1812 95.6282 48.3692 95.6282 43.6135C95.6282 39.7194 91.6484 36.9687 91.6484 32.8759C91.6484 29.1806 94.8912 24.6901 100.934 24.6238C103.44 24.6238 105.422 25.3529 106.945 26.6288Z"></path>
    <path d="M117.869 44.2098C119.998 42.8013 121.652 40.9951 123.241 38.9073L132.789 26.6286C123.045 27.7057 115.478 32.5277 110.041 40.5809C109.32 41.658 108.845 43.3979 108.845 44.9389C108.845 46.6788 109.648 47.2919 110.827 47.2919C113.153 47.2919 116.805 44.9389 117.869 44.2098ZM138.145 25.6178C138.145 25.9492 137.948 26.3635 137.555 26.96L125.026 43.1327C123.896 44.6075 123.241 45.8171 123.241 46.6291C123.241 47.2256 123.569 47.5736 124.24 47.5736C125.305 47.5736 126.091 47.3085 128.416 45.7011L129.219 46.7782C126.828 48.5844 120.997 51.07 118.737 51.07C117.345 51.07 116.756 50.4734 116.756 49.3963C116.756 48.4518 117.214 47.1096 118.148 45.6349C114.97 47.789 110.647 51.07 106.814 51.07C104.489 51.07 103.162 49.0649 103.162 47.0433C103.162 45.1709 104.227 42.4865 105.078 41.2768C111.449 32.2957 122.848 25.0378 136.572 25.0378C137.752 25.0213 138.145 25.2201 138.145 25.6178Z"></path>
    <path d="M208.829 2.00504C210.287 2.75071 210.876 3.81122 210.876 4.75573C210.876 5.96538 209.877 7.04245 208.485 7.04245C207.765 7.04245 206.962 6.77733 206.094 6.09794C202.72 3.41353 199.003 1.73992 194.499 1.73992C187.8 1.73992 181.446 5.56769 181.446 11.2679C181.446 14.8306 184.296 16.9019 187.604 19.3211C192.239 22.7346 195.301 26.2973 195.301 30.9867C195.301 43.2654 179.186 51.3849 165.937 51.3849C158.517 51.3849 152.409 51.1198 147.446 47.292C146.316 46.4138 145.858 45.4195 145.858 44.4088C145.858 42.934 146.922 41.6581 148.511 41.6581C149.248 41.6581 149.968 41.9232 150.836 42.5363C156.077 46.3641 161.711 49.3136 168.541 49.3136C177.417 49.3136 190.552 44.4253 190.617 34.7648C190.617 30.8044 187.506 27.1921 184.116 24.9054C179.612 21.8896 176.959 18.1943 176.959 13.77C176.959 5.91567 187.833 0.016594 195.596 0.016594C200.215 2.36081e-05 204.981 0.0663054 208.829 2.00504Z"></path>
    <path d="M210.058 44.2098C212.187 42.8013 213.841 40.9951 215.43 38.9073L224.978 26.6286C215.233 27.7057 207.667 32.5277 202.23 40.5809C201.509 41.658 201.034 43.3979 201.034 44.9389C201.034 46.6788 201.837 47.2919 203.016 47.2919C205.358 47.2919 208.994 44.9389 210.058 44.2098ZM230.35 25.6178C230.35 25.9492 230.153 26.3635 229.76 26.96L217.232 43.1327C216.101 44.6075 215.446 45.8171 215.446 46.6291C215.446 47.2256 215.774 47.5736 216.445 47.5736C217.51 47.5736 218.296 47.3085 220.622 45.7011L221.424 46.7782C219.033 48.5844 213.203 51.07 210.943 51.07C209.55 51.07 208.961 50.4734 208.961 49.3963C208.961 48.4518 209.419 47.1096 210.353 45.6349C207.176 47.789 202.852 51.07 199.02 51.07C196.694 51.07 195.368 49.0649 195.368 47.0433C195.368 45.1709 196.432 42.4865 197.284 41.2768C203.655 32.2957 215.053 25.0378 228.778 25.0378C229.957 25.0213 230.35 25.2201 230.35 25.6178Z"></path>
    <path d="M255.342 25.3527H260.386C255.817 31.3181 251.297 37.3 246.727 43.1991C241.421 50.0427 234.461 66 218.018 66C215.971 66 213.907 65.7348 211.925 64.9892C210.468 64.4589 209.944 63.5807 209.944 62.7687C209.944 61.6254 210.943 60.6146 212.335 60.6146C212.859 60.6146 213.399 60.8134 213.989 61.1448C216.314 62.6196 219.361 63.6304 222.407 63.6304C230.497 63.6304 236.721 51.0866 240.504 45.3201C235.263 49.4793 230.366 50.2912 227.648 50.2912C226.256 50.2912 225.388 49.0816 225.388 48.0045C225.388 46.6623 225.519 44.9224 227.173 42.7682L240.701 25.3196H245.745L232.152 43.0996C231.431 44.0442 231.087 44.8395 231.087 45.5189C231.087 46.4634 231.742 46.9937 232.938 46.9937C235.984 46.9937 241.749 43.0996 243.878 40.2827L255.342 25.3527Z"></path>
    <path d="M279.039 26.6288C279.694 27.2253 280.038 27.9047 280.038 28.5675C280.038 29.8435 278.908 30.9868 277.582 30.9868C276.845 30.9868 276.124 30.6554 275.387 29.7109C274.126 28.1036 272.865 26.5625 271.014 26.5625C268.099 26.5625 267.903 28.435 267.903 29.8435C267.903 33.7375 271.948 36.8859 271.948 40.9788C271.948 46.5465 266.183 51.4513 258.829 51.4513C256.438 51.4513 253.523 50.5731 251.476 48.9657C250.886 48.3692 250.608 47.6898 250.608 47.027C250.608 45.6185 251.803 44.3426 253.13 44.3426C253.867 44.3426 254.653 44.674 255.39 45.6848C256.848 47.6235 259.042 49.1812 261.155 49.1812C263.546 49.1812 267.722 48.3692 267.722 43.6135C267.722 39.7194 263.743 36.9687 263.743 32.8759C263.743 29.1806 266.985 24.6901 273.029 24.6238C275.534 24.6238 277.516 25.3529 279.039 26.6288Z"></path>
    <path d="M348.513 21.3261C346.465 24.5408 344.205 28.236 341.749 31.4506C333.593 41.9894 325.699 51.5837 305.489 51.5837C301.182 51.5837 294.745 50.5066 291.306 48.8993C289.586 48.0873 288.784 46.6788 288.784 45.3366C288.784 43.7293 289.914 42.586 291.83 42.586C292.698 42.586 293.746 42.8511 295.548 43.9944C299.397 46.48 303.769 49.297 309.796 49.297C322.784 49.297 330.153 40.1667 337.245 29.5119L339.03 26.8275C333.986 30.8541 328.548 34.3339 321.195 34.3339C318.018 34.3339 313.023 32.0472 313.023 27.3577C313.023 11.1187 336.115 0.115967 350.232 0.115967C354.409 0.115967 358.847 0.381093 362.368 1.92214C363.957 2.66781 364.628 3.66204 364.628 4.67283C364.628 6.08132 363.236 7.42352 361.32 7.42352C360.452 7.42352 359.535 7.1584 358.601 6.54529C354.621 4.73911 349.987 3.7946 346.072 3.7946C334.068 3.7946 319.688 10.953 319.688 24.5076C319.688 27.4572 321.785 29.9593 324.864 29.9593C332.692 29.9593 337.998 26.1315 342.83 21.3095H348.513V21.3261Z"></path>
    <path d="M354.835 44.2098C356.964 42.8013 358.618 40.9951 360.207 38.9073L369.755 26.6286C360.011 27.7057 352.444 32.5277 347.007 40.5809C346.286 41.658 345.811 43.3979 345.811 44.9389C345.811 46.6788 346.614 47.2919 347.793 47.2919C350.135 47.2919 353.787 44.9389 354.835 44.2098ZM375.127 25.6178C375.127 25.9492 374.93 26.3635 374.537 26.96L362.009 43.1327C360.879 44.6075 360.223 45.8171 360.223 46.6291C360.223 47.2256 360.551 47.5736 361.222 47.5736C362.287 47.5736 363.073 47.3085 365.399 45.7011L366.201 46.7782C363.81 48.5844 357.98 51.07 355.72 51.07C354.328 51.07 353.738 50.4734 353.738 49.3963C353.738 48.4518 354.197 47.1096 355.13 45.6349C351.953 47.789 347.629 51.07 343.797 51.07C341.471 51.07 340.145 49.0649 340.145 47.0433C340.145 45.1709 341.209 42.4865 342.061 41.2768C348.432 32.2957 359.83 25.0378 373.555 25.0378C374.734 25.0213 375.127 25.2201 375.127 25.6178Z"></path>
    <path d="M366.529 50.8546C383.627 28.849 393.519 15.9075 394.911 14.0185C396.958 10.8701 403.46 7.10864 407.833 7.10864C409.553 7.10864 411.813 7.6389 411.813 9.92561C411.813 11.2015 410.945 12.2786 409.422 12.2786C408.357 12.2786 407.162 11.7484 406.441 10.4724C406.113 9.94219 405.507 9.80962 404.852 9.80962C403.067 9.80962 401.806 11.2181 400.021 13.5711L386.493 31.2849C391.799 27.5897 397.564 24.9053 400.218 24.9053C402.134 24.9053 402.871 25.9161 402.871 27.2583C402.871 29.0645 401.61 31.4175 400.48 32.6934C396.631 37.1177 393.388 40.4815 390.063 45.0383C389.539 45.7012 388.999 46.248 388.999 46.712C388.999 47.3085 389.326 47.6565 389.998 47.6565C391.063 47.6565 392.193 46.9936 394.174 45.784L394.977 46.8611C392.848 48.9324 387.148 51.1528 384.905 51.1528C383.447 51.1528 382.923 50.5563 382.923 49.4129C382.923 48.137 384.38 45.7177 385.511 44.3755C388.819 40.4152 392.209 36.5874 395.714 32.4282C396.32 31.7654 396.844 30.8872 396.844 30.2741C396.844 29.661 396.385 29.2633 395.19 29.2633C391.668 29.2633 384.249 34.2344 381.4 37.9793L371.59 50.8546H366.529Z"></path>
  </g>
</svg>