<svg class="home_logo" width="857" height="195" viewBox="0 0 857 195" fill="none" xmlns="http://www.w3.org/2000/svg">
<path d="M424.765 78.8949C426.613 76.4294 428 74.4262 429.541 72.5772C439.401 60.5581 451.418 53.3158 467.441 54.3945C478.996 55.319 487.008 61.1745 489.935 71.9608C492.241 80.2972 493.483 88.8917 493.633 97.5398C494.249 115.26 493.787 133.135 493.787 151.009C493.787 163.953 495.174 176.742 501.798 189.07H453.113C453.012 188.399 453.064 187.714 453.267 187.066C458.505 176.896 460.2 165.956 460.2 154.707C460.354 130.823 460.354 106.785 460.354 82.7471V81.6685C460.046 73.1935 457.427 67.6463 452.343 66.4135C449.207 65.5847 445.881 65.8688 442.931 67.2174C439.981 68.5661 437.591 70.8959 436.166 73.8099C432.16 81.0521 427.538 89.0648 427.23 97.0776C426.151 120.807 426.613 144.537 427.384 168.267C427.692 175.201 430.927 181.827 432.93 189.07H385.785C397.957 153.629 390.562 116.955 392.41 80.898C392.392 78.9729 392.133 77.0576 391.64 75.1967C389.483 66.5676 382.242 63.1776 374.847 67.9544C370.841 70.574 366.681 74.5803 365.14 78.7408C361.905 87.0617 358.978 95.9989 358.515 104.782C357.591 122.593 357.591 140.44 358.515 158.251C359.132 168.576 362.213 178.746 364.216 189.07H316.763C327.394 168.884 324.621 147.311 324.621 126.201C324.621 105.09 327.394 83.5176 316.763 63.794L357.899 55.319C356.821 63.4858 355.896 71.6526 354.818 79.8194L355.896 80.2817L360.672 73.5017C368.992 62.7154 379.469 55.4731 393.489 54.3945C407.509 53.3158 418.448 59.7876 423.07 73.8099C423.532 75.1967 423.994 76.7376 424.765 78.8949Z" fill="black"></path>
<path d="M0 63.794L40.982 55.319L38.0547 79.8194L39.1332 80.2817C40.3657 78.5867 41.5983 76.7376 42.9849 75.0426C51.4586 63.1776 62.3974 55.319 77.342 54.3945C92.2865 53.4699 101.377 59.7876 106.153 73.1935L108.001 78.5867C110.621 75.5049 112.623 72.5771 115.089 69.8035C124.949 59.0172 136.966 53.0077 151.911 54.5486C162.079 55.6272 169.629 60.8663 172.71 70.574C175.102 78.4326 176.499 86.56 176.87 94.7662C177.486 112.795 177.024 130.823 177.024 148.852C177.024 162.566 178.102 176.126 185.189 189.07H135.734C136.811 187.29 137.641 185.372 138.199 183.368C140.202 173.506 142.975 163.491 143.283 153.475C144.053 130.207 143.591 106.785 143.591 83.3635C143.621 80.4517 143.259 77.5491 142.513 74.7344C140.356 66.4135 133.423 63.1776 126.181 67.9544C122.022 70.574 117.708 74.7344 116.013 79.203C112.778 87.0617 110.004 95.6907 109.542 104.012C108.669 122.237 108.72 140.494 109.696 158.714C110.158 168.884 113.394 178.746 115.243 189.07H67.9438C78.4205 169.038 75.3391 147.773 75.6472 126.817C75.9554 112.024 75.9554 97.2316 75.6472 82.4389C75.6472 76.1212 75.185 69.3413 67.9438 66.5676C60.7027 63.794 55.0022 68.1085 50.072 75.3508C44.7559 83.2337 41.8637 92.5007 41.7523 102.008C41.4442 121.886 41.2901 141.918 42.0605 161.796C42.5227 170.887 45.7581 179.67 47.761 188.916H0.154068C10.4766 169.038 7.85745 147.619 7.85745 126.509C7.85745 105.398 10.4766 83.6717 0 63.794Z" fill="black"></path>
<path d="M739.371 189.224L735.673 189.532H691.456C693.613 179.362 696.848 169.346 697.31 159.33C698.081 132.981 697.772 106.785 697.618 80.4358C697.618 74.8885 696.54 68.879 690.069 66.7217C683.598 64.5644 677.744 67.4922 673.122 72.423C666.839 79.3718 663.235 88.3299 662.953 97.6939C662.337 120.807 662.491 144.075 663.261 167.189C663.569 174.431 666.805 181.519 668.808 189.07H620.585C631.215 168.884 628.442 147.311 628.442 126.201C628.442 105.09 631.215 83.5176 620.585 63.6399L661.721 55.4731C660.642 63.4858 659.564 71.6526 658.639 79.8194L659.718 80.4358C660.933 79.0128 662.065 77.5208 663.107 75.9671C671.273 64.5644 681.441 56.3976 695.924 54.5486C713.796 52.5454 725.813 60.8663 729.356 78.5867C730.513 85.4102 731.132 92.3142 731.205 99.2348C731.359 115.414 731.359 131.748 731.205 148.082C731.205 161.95 732.13 175.664 739.371 189.224Z" fill="black"></path>
<path d="M308.289 119.575C307.827 134.367 305.362 148.698 298.737 162.104C287.644 184.601 267.153 196.466 243.735 194C220.317 191.535 201.212 176.28 195.358 150.701C190.274 128.666 192.122 106.785 202.137 86.2912C214.154 62.099 235.107 51.1586 261.299 55.0108C284.717 58.5549 301.819 75.9671 306.287 101.392C307.365 107.402 307.673 113.565 308.289 119.575ZM273.008 126.047C271.775 111.87 271.005 99.543 269.31 87.5239C268.287 81.2906 266.422 75.2255 263.764 69.4953C261.299 63.9481 256.985 60.0958 250.36 60.0958C243.735 60.0958 239.729 63.9481 237.11 69.3412C235.051 73.2909 233.498 77.4844 232.488 81.8226C227.095 109.711 227.095 138.375 232.488 166.264C233.49 170.966 235.204 175.487 237.572 179.67C244.043 191.535 256.677 191.689 263.302 179.824C265.674 175.894 267.293 171.557 268.078 167.035C270.235 152.858 271.621 138.528 273.008 126.047Z" fill="black"></path>
<path d="M791.6 23.8845V59.0172H812.707C817.329 59.0172 821.951 59.1713 826.573 59.0172C831.195 58.8631 831.195 60.5581 829.809 64.7185H792.37C792.077 65.674 791.871 66.6538 791.754 67.6462C791.754 96.153 791.754 124.814 791.908 153.321C791.887 154.299 791.938 155.278 792.062 156.248C793.911 171.811 802.693 177.051 817.483 171.349C821.59 169.669 825.601 167.765 829.5 165.648C827.343 180.132 811.783 193.076 795.451 194.155C772.341 195.696 758.475 182.906 758.321 159.022C758.013 130.053 758.167 101.084 758.167 72.269V64.5644H736.906L736.135 62.5613C758.321 55.0108 775.423 40.6804 790.059 22.96L791.6 23.8845Z" fill="black"></path>
<path d="M832.428 47.4604C829.295 47.5437 826.178 46.9932 823.263 45.8418C820.348 44.6904 817.696 42.962 815.466 40.7602C813.236 38.5583 811.473 35.9286 810.284 33.0287C809.095 30.1288 808.505 27.0185 808.547 23.8845C808.506 17.591 810.967 11.5389 815.388 7.0598C819.808 2.58067 825.827 0.0413683 832.119 0.00050098C838.412 -0.0403664 844.463 2.42055 848.942 6.84188C853.42 11.2632 855.959 17.2828 856 23.5764C856.083 26.7095 855.533 29.8272 854.382 32.7423C853.23 35.6574 851.502 38.3098 849.301 40.5404C847.099 42.771 844.47 44.5338 841.57 45.7229C838.671 46.912 835.561 47.503 832.428 47.4604ZM832.274 43.6081C837.424 43.5685 842.355 41.515 846.011 37.8868C849.668 34.2586 851.76 29.3436 851.84 24.1927C851.871 21.6228 851.394 19.0721 850.439 16.6862C849.484 14.3003 848.068 12.1259 846.273 10.2873C844.477 8.44863 842.337 6.98167 839.975 5.97017C837.613 4.95867 835.074 4.42243 832.505 4.39208C829.935 4.36173 827.385 4.83785 824.999 5.79327C822.614 6.74868 820.44 8.16468 818.601 9.96041C816.763 11.7561 815.296 13.8964 814.285 16.2591C813.273 18.6218 812.737 21.1605 812.707 23.7304C812.666 26.3262 813.142 28.9041 814.107 31.314C815.072 33.724 816.507 35.9179 818.328 37.7678C820.149 39.6178 822.32 41.0869 824.714 42.0896C827.108 43.0922 829.678 43.6084 832.274 43.6081Z" fill="black"></path>
<path fill-rule="evenodd" clip-rule="evenodd" d="M611.803 126.817H545.4C546.786 143.151 548.481 159.022 562.963 168.576C577.446 178.129 592.39 172.428 606.873 165.802C600.556 179.978 590.541 189.686 575.135 193.076C546.324 199.24 520.132 183.676 512.737 154.862C506.112 129.745 508.732 105.244 521.981 82.593C531.071 66.7217 544.475 55.9354 563.58 54.3945C582.684 52.8536 599.015 62.2531 606.719 80.5899C611.957 92.9171 614.114 111.87 611.803 126.817ZM576.059 67.8003C577.567 70.9492 578.506 74.3401 578.832 77.8162C579.036 86.9851 578.97 96.1539 578.902 105.634V105.644C578.868 110.5 578.832 115.438 578.832 120.499H542.5C542.5 118.269 542.7 112.174 543.5 105.634C544.3 99.095 546 88.3567 548 81.8087C549 77.8012 552.148 70.0551 553 68.3087C557.943 59.8171 572.053 58.5549 576.059 67.8003Z" fill="black"></path>
<path fill-rule="evenodd" clip-rule="evenodd" d="M838 11.3087H824V35.3087H830.5V26.8087H833.75C837.15 26.8087 837 29.8087 837 31.0587V35.3087H843.5C844.3 27.3087 840.167 24.642 838 24.3087C839.833 23.642 843.5 21.4087 843.5 17.8087C843.5 14.3087 840 11.3087 838 11.3087ZM830.5 14.8088V23.3088C833 23.3088 838 22.8088 838 18.8088C838 14.8088 833.5 14.8087 830.5 14.8088Z" fill="black"></path>
</svg>