<svg version="1.1" xmlns="http://www.w3.org/2000/svg" x="0" y="0" viewBox="0 0 326 74" xml:space="preserve" class="eg-logo-full"><style>.st0{fill:#403E3E}</style><path class="st0" d="M22.6 17.8c-3.9-2.4-4.9-5.9-3.9-9.4C20.1 3.3 25 .5 31.3.5S43.4 4.1 41.4 12h-4.8c2.2-6.5-.9-9.7-4.8-9.7s-7.2 2.4-8.2 6.4c-.9 4 1.3 9.6 9.8 10.4l-1.1 1.6c-.7-.1-1.3-.2-2-.3-9.2-.9-13.6 2.1-15.3 8-1.9 6.4.4 13.4 7.8 13.4 7.4 0 12.7-4.7 15.7-9.9l.4-1c2.5-6.4 7-9.8 12.4-9.8 2.9 0 4.6 1.1 5.2 3.2l7.9-20.5h5.3l-10.8 28C56.2 38.9 57.3 42 60.2 42c2.7 0 5.3-2.1 6.8-3.7-1.1-2.5-1.2-5.6-.1-8.4 2.4-6.4 6.4-8.9 11.6-8.9 5.1 0 8.8 3.6 6.9 8.4-1.8 4.5-8.4 7-14.3 7.1.3 3.3 2.4 5.5 5.9 5.5 4.3 0 10.4-3.4 13.8-10l3.9-10.2h5.3l-.8 2.2c1.8-2 3.7-2.9 6-2.9 5.3 0 7.3 3.7 5.1 9.6-1.2 3.2-5.1 11.5-1.2 11.5 3.4 0 5.7-4.6 8.8-11.2 2.6-5.6 4.2-9 5.2-11.2l1.3.3 3.7.8c-1.3 2.7.7 6.3 1.8 8.7 1.2 2.6 2.2 6.1.9 9.7-1.2 3.4-3.6 4.9-7.9 4.9-4 0-6.6-2.1-8-3.9-1.9 2.4-3.9 3.6-6.7 3.6-5.2 0-7.3-2.6-5.3-7.7 1.2-3.4 1.9-5.1 2-5.5 2.3-5.9 1.6-7.9-.5-7.9-2.5 0-5.7 2.8-10.2 14.6L91.9 43h-5.3l1.9-5c-3.7 3.8-7.9 5.5-12 5.5s-7-1.6-8.6-3.9c-1.4 1.4-4.2 3.9-8.2 3.9-3.3 0-6.9-1.6-6.9-6.1-2 3.6-4.8 6.2-9.2 6.2-4.6 0-6.2-3.6-5.8-7.8C34.7 39.9 29.7 44 22 44 11.8 44 7.2 35.7 9.4 27.5c1.7-6 6.7-9.3 13.2-9.7zm22.5 24c2.8 0 6.2-3.6 8.5-9.6 2.7-6.9 1.2-9.4-1.2-9.4-2.3 0-5.9 2.8-8.2 8.7-2.3 5.8-1.7 10.3.9 10.3zm26.1-6.7c4.1 0 7.8-2.6 9.2-6.2 1.4-3.6.9-6.6-1.4-6.6s-4.7 2.5-7 8.4c-.6 1.6-.9 3-1 4.3h.2zm50.1 7.2c2.1-.1 3.8-1.4 4.7-3.7.8-2.2.5-5.2-.5-7.9-.8-2.1-2-4.4-1.9-7.2l-3.9 8.1c-1.4 2.9-2.6 5.3-3.8 7.2 1.1 1.7 3.2 3.5 5.4 3.5zm23.3-21.7C148.9 7.6 158.2.5 166.9.5s12.7 5.6 11.2 11.5H173c1.3-4.4.5-9.7-5.6-9.7-6.6 0-12.8 7.1-16.7 18.8-3.7 11.2-2.2 20.4 5.4 20.4 6.7 0 11.7-10.8 14.4-18.3h-8.9l.6-1.6h14.3l-.1.3-4.2 11.5c-1.9 5.1-.7 8.3 1.9 8.3 2.1 0 4.2-1.8 5.9-4.3-.2-2.1.3-4.5 1.2-6.8 2.5-6.4 7.1-9.8 12.4-9.8 3.1 0 4.8 1.2 5.2 3.5l1.1-2.7h5.3l-3.9 10c-2.8 7.6-1.7 10.1.8 10.1s5.2-3.5 7.5-9.4c2.2-5.7 2.5-8.4 2.6-10.5-.6-.3-3-1.4-3-3 0-1.2.8-2 2.2-2 1.2 0 2.2.9 2.6 2.7.1.3.1.7.1 1.2 2.7.6 6.4.5 9.1-.4l4.8 1.5c-1.4 3.6-2.5 6.2-4.2 11-1.8 5.1-1.3 8.8 1 8.8 2 0 4.3-1.5 6-3.8-.3-2.2.2-4.9 1.2-7.4 2.5-6.4 7-9.8 12.4-9.8 2.9 0 4.6 1.1 5.2 3.2l7.9-20.5h5.3l-10.9 28.2c-2.6 7-1.5 10.1 1.3 10.1 2.7 0 5.3-2.2 6.9-3.8-1.1-2.4-1.1-5.4-.1-8.2 2.4-6.4 6.4-8.9 11.6-8.9 5.1 0 8.8 3.6 6.9 8.4-1.8 4.5-8.4 7-14.3 7.1.3 3.3 2.4 5.5 5.9 5.5 4.4 0 10.7-3.6 14-10.4l3.8-9.8h5.3l-.9 2.3c1.8-2.1 3.7-3 6.1-3 5.3 0 7.3 3.7 5.1 9.6-1.2 3.2-5.1 11.5-1.2 11.5 1.9 0 4-2 5.6-3.7l1 1.3c-1.1 1.1-3.5 4-8 4-4.7 0-6.8-2.6-4.8-7.7 1.2-3.4 1.9-5.1 2-5.5 2.3-5.9 1.6-7.9-.5-7.9-2.5 0-5.7 2.8-10.3 14.6l-2.2 5.7h-5.3l2-5.1c-3.7 3.9-8 5.6-12.1 5.6-4.2 0-7.1-1.7-8.7-4-1.4 1.4-4.2 4-8.2 4-3.3 0-6.8-1.6-6.9-6.1-2 3.6-4.8 6.2-9.2 6.2-2.9 0-4.6-1.4-5.4-3.5-1.9 2.2-4.1 3.5-7.4 3.5-4.3 0-7.2-4.4-5.1-10.6 1.2-3.6 2.2-6.2 3.4-9.2-3.3.1-6.2-.6-7.9-1.1-.2 2.5-.8 5.9-2.1 9.2-3.2 8.5-6.5 11.8-11.1 11.8-3.3 0-6.1-1.7-6.2-5.7-2 3.4-4.7 5.7-9 5.7-3.1 0-4.8-1.6-5.5-3.9-1.6 1.9-4 3.9-7.3 3.8-4.2-.1-7.2-3.1-6.5-7.9-3.1 5.1-6.7 8.3-12.3 8.3-9.8.3-13.9-10.5-9.7-23.1zm42.7 21.2c2.8 0 6.2-3.6 8.5-9.6l.2-.6c2.4-6.5 1-8.8-1.4-8.8-2.3 0-5.9 2.8-8.2 8.7-2.3 5.8-1.7 10.3.9 10.3zm50.9-.1c2.8 0 6.2-3.6 8.5-9.6 2.7-6.9 1.2-9.4-1.2-9.4-2.3 0-5.9 2.8-8.2 8.7-2.3 5.9-1.7 10.3.9 10.3zm26.3-6.6c4.1 0 7.8-2.6 9.2-6.2 1.4-3.6.9-6.6-1.4-6.6s-4.7 2.5-7 8.4c-.6 1.6-.9 3-1 4.3h.2zM313.4 10.6c.9 0 1.7.2 2.6.7.8.4 1.5 1.1 1.9 1.9.5.8.7 1.7.7 2.6 0 .9-.2 1.8-.7 2.6-.5.8-1.1 1.5-1.9 1.9-.8.5-1.7.7-2.6.7-.9 0-1.8-.2-2.6-.7-.8-.5-1.5-1.1-1.9-1.9-.5-.8-.7-1.7-.7-2.6 0-.9.2-1.8.7-2.6.5-.8 1.1-1.5 1.9-1.9.8-.4 1.7-.7 2.6-.7zm0 .9c-.7 0-1.4.2-2.1.6-.7.4-1.2.9-1.6 1.6-.4.7-.6 1.4-.6 2.2 0 .7.2 1.5.6 2.2.4.7.9 1.2 1.6 1.6.7.4 1.4.6 2.2.6.7 0 1.5-.2 2.2-.6.7-.4 1.2-.9 1.6-1.6.4-.7.6-1.4.6-2.2 0-.8-.2-1.5-.6-2.2s-.9-1.2-1.6-1.6c-.9-.4-1.6-.6-2.3-.6zm-2.3 7.2v-5.6h1.9c.7 0 1.1.1 1.4.2.3.1.5.3.7.5.2.3.3.5.3.8 0 .4-.1.8-.4 1.1s-.7.5-1.2.5c.2.1.4.2.5.3.2.2.5.6.8 1.1l.7 1.1h-1.1l-.5-.9c-.4-.7-.7-1.1-.9-1.3-.2-.1-.4-.2-.7-.2h-.6v2.4h-.9zm.9-3.1h1.1c.5 0 .9-.1 1.1-.2.2-.2.3-.4.3-.6 0-.2 0-.3-.1-.4-.1-.1-.2-.2-.4-.3-.2-.1-.5-.1-.9-.1h-1v1.6z"></path><g><path class="st0" d="M9.8 71.9H13V61.5v-.9l-2.7 2.3c-.1.1-.1.1-.2.1h-.2c-.1 0-.2 0-.3-.1-.1 0-.1-.1-.2-.2l-.5-.7 4.5-3.9h1.5v13.8h3v1.4H9.8v-1.4zM31.9 65.7c0 1.3-.1 2.5-.4 3.4-.3 1-.7 1.8-1.2 2.4-.5.6-1.1 1.1-1.8 1.4-.7.3-1.4.5-2.2.5-.8 0-1.5-.2-2.2-.5-.7-.3-1.2-.8-1.7-1.4-.5-.6-.9-1.4-1.2-2.4-.3-1-.4-2.1-.4-3.4 0-1.3.1-2.5.4-3.5.3-1 .7-1.8 1.2-2.4.5-.6 1.1-1.1 1.7-1.4.7-.3 1.4-.5 2.2-.5.8 0 1.5.2 2.2.5.7.3 1.3.8 1.8 1.4.5.6.9 1.4 1.2 2.4.3 1 .4 2.2.4 3.5zm-1.9 0c0-1.2-.1-2.1-.3-2.9-.2-.8-.5-1.4-.8-1.9-.3-.5-.7-.8-1.1-1-.4-.2-.9-.3-1.3-.3-.5 0-.9.1-1.3.3-.4.2-.8.6-1.1 1-.3.5-.6 1.1-.8 1.9-.2.8-.3 1.8-.3 2.9 0 1.2.1 2.1.3 2.9s.5 1.4.8 1.9c.3.5.7.8 1.1 1 .4.2.9.3 1.3.3.5 0 .9-.1 1.3-.3.4-.2.8-.6 1.1-1 .3-.5.6-1.1.8-1.9.2-.8.3-1.7.3-2.9zM45.5 65.7c0 1.3-.1 2.5-.4 3.4-.3 1-.7 1.8-1.2 2.4s-1.1 1.1-1.8 1.4c-.7.3-1.4.5-2.2.5-.8 0-1.5-.2-2.2-.5-.7-.3-1.2-.8-1.7-1.4s-.9-1.4-1.2-2.4c-.3-1-.4-2.1-.4-3.4 0-1.3.1-2.5.4-3.5.3-1 .7-1.8 1.2-2.4.5-.6 1.1-1.1 1.7-1.4.7-.3 1.4-.5 2.2-.5.8 0 1.5.2 2.2.5.7.3 1.3.8 1.8 1.4.5.6.9 1.4 1.2 2.4.2 1 .4 2.2.4 3.5zm-2 0c0-1.2-.1-2.1-.3-2.9-.2-.8-.5-1.4-.8-1.9-.3-.5-.7-.8-1.1-1-.4-.2-.9-.3-1.3-.3s-.9.1-1.3.3c-.4.2-.8.6-1.1 1-.3.5-.6 1.1-.8 1.9-.2.8-.3 1.8-.3 2.9 0 1.2.1 2.1.3 2.9.2.8.5 1.4.8 1.9.3.5.7.8 1.1 1 .4.2.9.3 1.3.3s.9-.1 1.3-.3c.4-.2.8-.6 1.1-1 .3-.5.6-1.1.8-1.9.2-.8.3-1.7.3-2.9zM54.9 61.8c0 .6-.1 1.1-.3 1.6-.2.5-.4.9-.7 1.2-.3.3-.7.6-1.1.7-.4.2-.8.3-1.3.3s-.9-.1-1.3-.3c-.4-.2-.8-.4-1.1-.7-.3-.3-.5-.7-.7-1.2-.2-.5-.3-1-.3-1.6 0-.6.1-1.1.3-1.6.2-.5.4-.9.7-1.2.3-.3.7-.6 1.1-.7.4-.2.8-.3 1.3-.3s.9.1 1.3.3c.4.2.8.4 1.1.7.3.3.5.7.7 1.2.2.4.3 1 .3 1.6zm5.3-3.3l.3-.3c.1-.1.2-.1.4-.1h1.4L51.1 73c-.1.1-.2.2-.3.2-.1.1-.2.1-.3.1h-1.4l11.1-14.8zm-6.8 3.3c0-.5 0-.9-.1-1.2-.1-.3-.2-.6-.4-.8-.2-.2-.4-.4-.6-.5-.2-.1-.5-.1-.7-.1-.3 0-.5 0-.7.1-.2.1-.4.2-.6.5-.2.2-.3.5-.4.8-.1.3-.1.7-.1 1.2s0 .8.1 1.2c.1.3.2.6.4.8.2.2.4.3.6.4.2.1.5.1.7.1.3 0 .5 0 .7-.1.2-.1.4-.2.6-.4.2-.2.3-.5.4-.8.1-.4.1-.7.1-1.2zm9.9 7.9c0 .6-.1 1.1-.3 1.6-.2.5-.4.9-.7 1.2-.3.3-.7.6-1.1.7-.4.2-.8.3-1.3.3s-.9-.1-1.3-.3c-.4-.2-.8-.4-1.1-.7-.3-.3-.5-.7-.7-1.2s-.3-1-.3-1.6c0-.6.1-1.1.3-1.6s.4-.9.7-1.2c.3-.3.7-.6 1.1-.7.4-.2.8-.3 1.3-.3s.9.1 1.3.3c.4.2.8.4 1.1.7.3.3.5.7.7 1.2.2.5.3 1 .3 1.6zm-1.5 0c0-.5 0-.9-.1-1.2-.1-.3-.2-.6-.4-.8-.2-.2-.4-.4-.6-.4-.2-.1-.5-.1-.7-.1s-.5 0-.7.1c-.2.1-.4.2-.6.4-.2.2-.3.5-.4.8-.1.3-.1.7-.1 1.2s0 .8.1 1.2c.1.3.2.6.4.8.2.2.4.3.6.4.2.1.5.1.7.1s.5 0 .7-.1c.2-.1.4-.2.6-.4.2-.2.3-.5.4-.8.1-.3.1-.7.1-1.2zM74.8 67.6v5.7h-2V58.1h4.5c1 0 1.8.1 2.5.3.7.2 1.3.5 1.8.9s.8.9 1 1.5c.2.6.3 1.2.3 1.9s-.1 1.4-.4 1.9c-.2.6-.6 1.1-1.1 1.5-.5.4-1.1.8-1.8 1-.7.2-1.5.4-2.4.4h-2.4zm0-1.6h2.4c.6 0 1.1-.1 1.6-.2.4-.2.8-.4 1.1-.7.3-.3.5-.6.7-1 .2-.4.2-.8.2-1.3 0-1-.3-1.7-.9-2.3-.6-.5-1.5-.8-2.7-.8h-2.4V66zM92.6 71.7c.6 0 1.2-.1 1.7-.3.5-.2.9-.5 1.3-.9.3-.4.6-.8.8-1.4.2-.5.3-1.1.3-1.7v-9.2h2v9.2c0 .9-.1 1.7-.4 2.4-.3.7-.7 1.4-1.2 1.9s-1.2 1-1.9 1.3c-.7.3-1.6.5-2.5.5s-1.8-.2-2.5-.5-1.4-.7-1.9-1.3c-.5-.5-.9-1.2-1.2-1.9-.3-.7-.4-1.6-.4-2.4v-9.2h2v9.2c0 .6.1 1.2.3 1.7.2.5.4 1 .8 1.4.3.4.8.7 1.3.9.3.2.9.3 1.5.3zM105.7 67v6.3h-2V58.1h4.3c1 0 1.8.1 2.5.3.7.2 1.3.5 1.7.8.5.4.8.8 1 1.3.2.5.3 1.1.3 1.7 0 .5-.1 1-.3 1.5-.2.5-.4.9-.7 1.3-.3.4-.7.7-1.2.9-.5.3-1 .5-1.6.6.3.1.5.4.7.6l4.4 6H113c-.4 0-.6-.1-.8-.4l-3.9-5.4c-.1-.2-.3-.3-.4-.4-.1-.1-.4-.1-.6-.1h-1.6zm0-1.5h2.1c.6 0 1.1-.1 1.6-.2s.8-.3 1.1-.6c.3-.3.5-.6.7-.9.2-.4.2-.8.2-1.2 0-.9-.3-1.6-.9-2-.6-.5-1.5-.7-2.7-.7h-2.2v5.6zM127.7 58.1v1.7h-7.3v5h5.9v1.6h-5.9v5.2h7.3v1.7h-9.4V58.1h9.4zM146.6 58.1v1.7h-7.3v5h5.9v1.6h-5.9v5.2h7.3v1.7h-9.4V58.1h9.4zM158.6 60.5c-.1.1-.1.2-.2.2-.1.1-.2.1-.3.1-.1 0-.3-.1-.4-.2-.2-.1-.4-.3-.6-.4-.2-.1-.5-.3-.9-.4-.3-.1-.8-.2-1.2-.2-.5 0-.9.1-1.2.2-.4.1-.6.3-.9.5s-.4.5-.5.7c-.1.3-.2.6-.2.9 0 .4.1.8.3 1.1.2.3.5.5.8.7.3.2.7.4 1.2.5.4.1.9.3 1.3.5.5.2.9.3 1.3.5s.8.4 1.2.7c.3.3.6.7.8 1.1.2.4.3 1 .3 1.6 0 .7-.1 1.3-.3 1.9-.2.6-.6 1.1-1 1.5-.4.4-1 .8-1.6 1-.6.2-1.4.4-2.2.4-1 0-1.9-.2-2.7-.5-.8-.4-1.5-.8-2.1-1.4l.6-1 .2-.2c.1-.1.2-.1.3-.1.1 0 .3.1.5.2.2.2.4.3.7.5.3.2.6.4 1 .5.4.2.9.2 1.5.2.5 0 .9-.1 1.3-.2s.7-.3 1-.6c.3-.2.5-.5.6-.9s.2-.7.2-1.1c0-.5-.1-.8-.3-1.1-.2-.3-.5-.5-.8-.7-.3-.2-.7-.4-1.2-.5-.4-.1-.9-.3-1.3-.4-.5-.1-.9-.3-1.3-.5s-.8-.4-1.2-.7c-.3-.3-.6-.7-.8-1.1-.2-.5-.3-1-.3-1.7 0-.5.1-1.1.3-1.6.2-.5.5-.9.9-1.3s.9-.7 1.5-.9c.6-.2 1.3-.3 2-.3.8 0 1.6.1 2.3.4.7.3 1.3.7 1.8 1.2l-.4.9zM171.1 60.5c-.1.1-.1.2-.2.2-.1.1-.2.1-.3.1-.1 0-.3-.1-.4-.2-.2-.1-.4-.3-.6-.4s-.5-.3-.9-.4c-.3-.1-.8-.2-1.2-.2-.5 0-.9.1-1.2.2-.4.1-.6.3-.9.5s-.4.5-.5.7c-.1.3-.2.6-.2.9 0 .4.1.8.3 1.1.2.3.5.5.8.7.3.2.7.4 1.2.5.4.1.9.3 1.3.5.5.2.9.3 1.3.5s.8.4 1.2.7c.3.3.6.7.8 1.1.2.4.3 1 .3 1.6 0 .7-.1 1.3-.3 1.9-.2.6-.6 1.1-1 1.5-.4.4-1 .8-1.6 1-.6.2-1.4.4-2.2.4-1 0-1.9-.2-2.7-.5-.8-.4-1.5-.8-2.1-1.4l.6-1 .2-.2c.1-.1.2-.1.3-.1.1 0 .3.1.5.2.2.2.4.3.7.5s.6.4 1 .5c.4.2.9.2 1.5.2.5 0 .9-.1 1.3-.2s.7-.3 1-.6c.3-.2.5-.5.6-.9s.2-.7.2-1.1c0-.5-.1-.8-.3-1.1-.2-.3-.5-.5-.8-.7-.3-.2-.7-.4-1.2-.5-.4-.1-.9-.3-1.3-.4-.5-.1-.9-.3-1.3-.5s-.8-.4-1.2-.7c-.3-.3-.6-.7-.8-1.1-.2-.5-.3-1-.3-1.7 0-.5.1-1.1.3-1.6.2-.5.5-.9.9-1.3s.9-.7 1.5-.9c.6-.2 1.3-.3 2-.3.8 0 1.6.1 2.3.4.7.3 1.3.7 1.8 1.2l-.4.9zM185.2 58.1v1.7h-7.3v5h5.9v1.6h-5.9v5.2h7.3v1.7h-9.4V58.1h9.4zM190.9 58.2c.1 0 .2.1.3.3l8.8 11.4v-.5-11.3h1.8v15.2h-1c-.2 0-.3 0-.4-.1l-.3-.3-8.8-11.4v11.8h-1.8V58.1h1.1c.1 0 .2.1.3.1zM217.1 58.1v1.7h-4.9v13.4h-2.1V59.9h-4.9v-1.7h11.9zM222.9 73.3h-2.1V58.1h2.1v15.2zM240.7 73.3h-1.6c-.2 0-.3 0-.4-.1l-.3-.3-1.4-3.7h-6.8l-1.4 3.7c0 .1-.1.2-.3.3-.1.1-.3.1-.4.1h-1.6l6.1-15.2h2.1l6 15.2zm-9.9-5.6h5.7l-2.4-6.2c-.2-.4-.3-.9-.5-1.4-.1.3-.2.6-.2.8-.1.2-.1.5-.2.6l-2.4 6.2zM246 71.6h6.6v1.7H244V58.1h2.1v13.5zM275.5 65.7c0 1.1-.2 2.2-.5 3.1-.4.9-.9 1.8-1.5 2.5-.7.7-1.4 1.2-2.4 1.6-.9.4-1.9.6-3.1.6s-2.1-.2-3-.6c-.9-.4-1.7-.9-2.4-1.6-.7-.7-1.2-1.5-1.5-2.5-.4-.9-.5-2-.5-3.1s.2-2.2.5-3.1c.4-.9.9-1.8 1.5-2.5.7-.7 1.4-1.2 2.4-1.6.9-.4 1.9-.6 3-.6s2.1.2 3.1.6c.9.4 1.7.9 2.4 1.6.7.7 1.2 1.5 1.5 2.5s.5 2 .5 3.1zm-2.1 0c0-.9-.1-1.8-.4-2.5-.3-.7-.6-1.4-1.1-1.9-.5-.5-1-.9-1.7-1.2-.7-.3-1.4-.4-2.2-.4-.8 0-1.5.1-2.2.4-.7.3-1.2.7-1.7 1.2s-.8 1.1-1.1 1.9c-.3.7-.4 1.6-.4 2.5 0 .9.1 1.8.4 2.5.3.7.6 1.4 1.1 1.9.5.5 1 .9 1.7 1.2.7.3 1.4.4 2.2.4.8 0 1.6-.1 2.2-.4.7-.3 1.2-.7 1.7-1.2s.8-1.1 1.1-1.9c.3-.7.4-1.5.4-2.5zM282 73.3h-2V58.1h2.1v15.2zM289.4 71.6h6.6v1.7h-8.6V58.1h2.1v13.5zM307.3 60.5c-.1.1-.1.2-.2.2-.1.1-.2.1-.3.1-.1 0-.3-.1-.4-.2-.2-.1-.4-.3-.6-.4-.2-.1-.5-.3-.9-.4-.3-.1-.8-.2-1.2-.2-.5 0-.9.1-1.2.2-.4.1-.6.3-.9.5s-.4.5-.5.7c-.1.3-.2.6-.2.9 0 .4.1.8.3 1.1.2.3.5.5.8.7.3.2.7.4 1.2.5.4.1.9.3 1.3.5.5.2.9.3 1.3.5s.8.4 1.2.7.6.7.8 1.1c.2.4.3 1 .3 1.6 0 .7-.1 1.3-.3 1.9-.2.6-.6 1.1-1 1.5-.4.4-1 .8-1.6 1-.6.2-1.4.4-2.2.4-1 0-1.9-.2-2.7-.5-.8-.4-1.5-.8-2.1-1.4l.6-1 .2-.2c.1-.1.2-.1.3-.1.1 0 .3.1.5.2.2.2.4.3.7.5.3.2.6.4 1 .5.4.2.9.2 1.5.2.5 0 .9-.1 1.3-.2s.7-.3 1-.6c.3-.2.5-.5.6-.9s.2-.7.2-1.1c0-.5-.1-.8-.3-1.1-.2-.3-.5-.5-.8-.7-.3-.2-.7-.4-1.2-.5-.4-.1-.9-.3-1.3-.4-.5-.1-.9-.3-1.3-.5s-.8-.4-1.2-.7c-.3-.3-.6-.7-.8-1.1-.2-.5-.3-1-.3-1.7 0-.5.1-1.1.3-1.6.2-.5.5-.9.9-1.3s.9-.7 1.5-.9c.6-.2 1.3-.3 2-.3.8 0 1.6.1 2.3.4.7.3 1.3.7 1.8 1.2l-.4.9z"></path></g></svg>