<svg class="logo logo__default" xmlns="http://www.w3.org/2000/svg" viewBox="0 0 642.7 59" xml:space="preserve">
      <path d="M33.6 27.8c4.5-1.9 9-5.8 9-13.2C42.6 5.9 35.3.4 24.1.4H0v56.7h25.2c12.4 0 20.6-5.8 20.6-15.6 0-7.8-5.5-11.7-12.2-13.7zM6.3 6.2h17.3c8.1 0 12.6 3.6 12.6 9.3 0 6.7-5.3 10.2-13 10.2H6.3V6.2zm19.1 45.1h-19v-20h17.9c9.9 0 15.1 3.6 15.1 9.8-.1 6.4-5.5 10.2-14 10.2zM79.8.4h-6.4v56.7h38.3v-5.9H79.8V.4zm95.4 33c0 12.4-6.6 18.7-17.1 18.7-10.9 0-17.3-6.9-17.3-19.1V.4h-6.4v33c0 16 9.6 24.6 23.6 24.6 14.2 0 23.6-8.6 23.6-25.1V.4h-6.4v33zm142.6-5.6c4.5-1.9 9-5.8 9-13.2 0-8.7-7.3-14.2-18.5-14.2h-24.1v56.7h25.2c12.4 0 20.6-5.8 20.6-15.6-.1-7.8-5.5-11.7-12.2-13.7zM290.5 6.2h17.3c8.1 0 12.6 3.6 12.6 9.3 0 6.7-5.3 10.2-13 10.2h-16.8l-.1-19.5zm19 45.1h-19v-20h17.9c9.9 0 15.1 3.6 15.1 9.8-.1 6.4-5.4 10.2-14 10.2zM586.4 0h-6l-25.8 57.1h6.6l6.7-15h30.9l6.6 15h6.9L586.4 0zm-16 36.4 13-28.9 12.9 28.9h-25.9zm-351.6-5h30.9v-5.8h-30.9V6.2h34.6V.4h-41v56.7h41.4v-5.8h-35V31.4zM501.7.4h-6.4v56.7h38.3v-5.9h-31.9V.4zM364 31.4h30.9v-5.8H364V6.2h34.6V.4h-41v56.7H399v-5.8h-35V31.4zm71.7-31h-6.4v56.7h38.3v-5.9h-31.9V.4zM631.3 23.1c-6.4 0-11.3-5.1-11.3-11.3 0-6.2 5-11.4 11.4-11.4s11.3 5.1 11.3 11.3c-.1 6.2-5.1 11.4-11.4 11.4zm0-21.7c-5.9 0-10.3 4.7-10.3 10.4s4.4 10.3 10.3 10.3 10.3-4.7 10.3-10.4-4.4-10.3-10.3-10.3zm2.1 11.2 3.6 4.7h-2.1l-3.3-4.4h-3v4.4h-1.7V5.6h5.2c2.6 0 4.4 1.3 4.4 3.5-.1 1.9-1.3 3.1-3.1 3.5zM632 7.2h-3.4v4.1h3.3c1.6 0 2.8-.8 2.8-2.1-.1-1.3-1.1-2-2.7-2z"></path>
    </svg>