<svg class="nav-logo" width="86" height="25" viewBox="0 0 86 25" fill="none" xmlns="http://www.w3.org/2000/svg">
    <g clip-path="url(#clip0_25_20)">
    <path d="M34.736 0.0149771H37.849V0.295977C37.849 4.50398 37.863 8.71098 37.838 12.919C37.832 13.856 37.705 14.795 37.596 15.729C37.425 17.175 36.992 18.543 36.292 19.822C35.952 20.444 35.539 21.012 35.065 21.544C34.404 22.287 33.619 22.86 32.74 23.304C31.821 23.769 30.84 24.041 29.822 24.203C28.814 24.364 27.8 24.383 26.789 24.336C25.864 24.294 24.95 24.136 24.057 23.858C23.212 23.595 22.417 23.243 21.69 22.741C20.578 21.973 19.712 20.988 19.053 19.806C18.444 18.713 18.07 17.541 17.83 16.328C17.701 15.677 17.625 15.004 17.621 14.339C17.587 9.66598 17.579 4.99398 17.562 0.320977V0.0139771H21.68V0.301977C21.68 4.58498 21.662 8.86798 21.69 13.151C21.699 14.582 21.865 16.003 22.375 17.365C22.742 18.345 23.241 19.233 24.025 19.931C24.819 20.637 25.751 21.086 26.811 21.231C27.358 21.306 27.913 21.386 28.461 21.375C29.652 21.351 30.795 21.084 31.799 20.413C32.544 19.916 33.129 19.252 33.56 18.464C34.116 17.446 34.451 16.353 34.58 15.203C34.662 14.481 34.727 13.752 34.729 13.026C34.743 8.79298 34.735 4.56098 34.735 0.328977L34.736 0.0149771Z" fill="black"></path>
    <path d="M62.724 24.047H62.466C60.985 24.047 59.503 24.046 58.023 24.049C57.892 24.049 57.801 24.028 57.717 23.906C56.839 22.621 55.955 21.34 55.069 20.061C54.08 18.633 53.09 17.206 52.096 15.78C51.712 15.229 51.318 14.683 50.898 14.092C50.395 14.843 49.866 15.569 49.406 16.336C48.904 17.172 48.428 18.029 48.01 18.909C47.255 20.499 46.627 22.139 46.279 23.875C46.265 23.942 46.156 24.04 46.091 24.04C44.468 24.048 42.844 24.045 41.22 24.043C41.207 24.043 41.194 24.029 41.161 24.01C41.285 23.858 41.403 23.705 41.529 23.559C42.206 22.779 42.888 22.002 43.564 21.22C44.186 20.502 44.805 19.781 45.424 19.061C46.129 18.24 46.832 17.418 47.537 16.598C48.156 15.878 48.778 15.159 49.395 14.438C49.712 14.068 50.024 13.693 50.356 13.298C47.307 8.908 44.247 4.503 41.157 0.0539961H41.452C42.908 0.0539961 44.365 0.0609961 45.82 0.0459961C46.043 0.0439961 46.17 0.123996 46.282 0.286996C47.224 1.657 48.163 3.029 49.109 4.397C49.942 5.604 50.782 6.806 51.619 8.011C52.04 8.617 52.46 9.223 52.881 9.828C52.91 9.869 52.943 9.906 52.989 9.963C55.224 6.964 56.838 3.706 57.666 0.0669961H62.731C62.587 0.242996 62.469 0.395996 62.343 0.541996C61.628 1.375 60.913 2.21 60.194 3.04C59.637 3.684 59.073 4.322 58.519 4.968C57.858 5.738 57.207 6.517 56.546 7.287C56.077 7.833 55.596 8.368 55.126 8.912C54.624 9.493 54.123 10.076 53.632 10.666C53.596 10.709 53.608 10.836 53.645 10.89C54.279 11.817 54.92 12.738 55.559 13.661C56.491 15.008 57.421 16.358 58.355 17.704C59.186 18.903 60.019 20.1 60.854 21.296C61.46 22.163 62.07 23.027 62.676 23.893C62.697 23.924 62.7 23.967 62.725 24.046L62.724 24.047Z" fill="black"></path>
    <path d="M77.272 24.034H72.953V23.745C72.953 20.533 72.949 17.321 72.959 14.109C72.96 13.783 72.86 13.528 72.691 13.261C71.999 12.167 71.326 11.063 70.646 9.962C70.031 8.966 69.416 7.97 68.801 6.974C68.143 5.908 67.485 4.842 66.826 3.777C66.292 2.913 65.757 2.051 65.223 1.188C64.987 0.807 64.752 0.426 64.5 0.017C64.596 0.011 64.667 0.004 64.737 0.004C66.193 0.004 67.65 0.006 69.106 0C69.265 0 69.36 0.042 69.444 0.181C70.009 1.121 70.581 2.057 71.154 2.993C71.77 3.998 72.39 5.001 73.006 6.007C73.725 7.18 74.441 8.355 75.159 9.527C75.385 9.895 75.614 10.262 75.855 10.65C76.236 10.026 76.61 9.412 76.987 8.799C77.579 7.837 78.173 6.875 78.766 5.914C79.384 4.91 80.002 3.905 80.62 2.902C81.188 1.983 81.755 1.063 82.328 0.146C82.365 0.086 82.443 0.01 82.501 0.01C83.647 0.002 84.793 0.004 86 0.004C85.893 0.2 85.812 0.364 85.718 0.519C85.013 1.671 84.308 2.823 83.597 3.972C82.874 5.142 82.142 6.307 81.421 7.479C80.619 8.783 79.826 10.093 79.027 11.399C78.48 12.293 77.925 13.182 77.383 14.079C77.316 14.191 77.275 14.338 77.275 14.47C77.269 17.557 77.271 20.643 77.271 23.73V24.036L77.272 24.034Z" fill="black"></path>
    <path d="M4.295 20.89H16.193V24.028H0V0.0150146H4.295V20.89Z" fill="black"></path>
    </g>
    <defs>
    <clipPath id="clip0_25_20">
    <rect width="86" height="24.359" fill="white"></rect>
    </clipPath>
    </defs>
    </svg>