<svg class="company-logo" viewBox="0 0 783 99" width="150" height="26" xmlns="http://www.w3.org/2000/svg" role="presentation">
  <path d="M81.776 28.421V96.16h17.601V2.82H79.242L50.04 42.956 20.837 2.82H.57v93.34h17.6V28.288l29.736 40.67h3.467L81.776 28.42zM255.65 2.686h-17.601v93.34h65.604V79.758H255.65V2.686zm137.204 93.34V78.691H340.45V57.623h38.995V41.222H340.45V19.754h52.403V2.686h-69.872v93.34h69.872zM607.757 2.82H590.29v53.47c0 16-8.268 25.735-22.802 25.735-14.535 0-24.135-8.933-24.135-25.735V2.82h-17.467v53.47c0 28.135 19.067 41.736 41.468 41.736 23.47 0 40.404-14.134 40.404-41.736V2.82zm39.69-.134h-17.602v93.34h65.604V79.758h-48.003V2.686zm134.895 93.34V78.691h-52.404V57.623h38.995V41.222h-38.995V19.754h52.404V2.686H712.47v93.34h69.872zM167.604 16.673c10.05-.378 20.243 3.852 27.144 12.7 9.359 11.998 9.257 28.392-.215 40.298-12.392 15.575-35.164 16.53-48.844 2.85-6.722-6.722-9.913-15.626-9.57-24.422.149-3.81-2.536-7.154-6.25-8.03-4.93-1.164-9.798 2.417-9.988 7.48-.521 14.05 4.975 28.285 16.476 38.504 19.003 16.884 48.423 16.162 66.632-1.575 19.604-19.099 19.746-50.444.467-69.721C193.403 4.702 180.057-.073 166.883.446c-5.07.199-8.614 5.13-7.403 10.056.915 3.717 4.299 6.315 8.124 6.17zM132.359 28.14c4.204 4.204 11.021 4.204 15.225 0 4.206-4.204 4.206-11.021 0-15.225-4.204-4.205-11.02-4.205-15.225 0-4.204 4.204-4.204 11.021 0 15.225zm326.12 53.887c-18.063 0-32.702-14.639-32.702-32.681 0-18.063 14.64-32.702 32.702-32.702 13.368 0 24.87 8.022 29.93 19.526h17.235C499.894 15.512 480.964.372 458.48.372c-27.046 0-48.974 21.93-48.974 48.975s21.928 48.956 48.974 48.956c22.448 0 41.374-15.102 47.145-35.722h-17.233c-5.099 11.464-16.563 19.447-29.912 19.447z" fill="currentColor"></path>
</svg>