<svg class="icon icon__logo" viewBox="0 0 143 29" xmlns="http://www.w3.org/2000/svg"><path d="M0 12V0h5.657c2.215 0 3.655.625 4.726 1.709a6.049 6.049 0 0 1 1.615 4.282 6.106 6.106 0 0 1-1.735 4.429C9.229 11.394 7.918 12 5.648 12H0Zm5.57-2.26c1.384 0 1.956-.313 2.584-.864A3.903 3.903 0 0 0 9.26 6.009a3.858 3.858 0 0 0-1.015-2.756c-.609-.607-1.255-.956-2.676-.956H2.635V9.74H5.57ZM25.765 6.873h-4.257V9.74H29V12H19V0h9.586v2.297h-7.078v2.334h4.244l.013 2.242ZM36 12V0h6.29c1.617 0 2.677.496 3.407 1.305.603.668.94 1.557.938 2.48 0 1.544-.904 2.757-2.294 3.382L47 12h-2.85l-2.294-4.41h-3.371V12H36Zm2.485-9.776v3.142h4.066c.203.01.405-.025.596-.1.19-.075.364-.19.511-.337.148-.147.265-.324.347-.52a1.68 1.68 0 0 0 .128-.623 1.531 1.531 0 0 0-.1-.567 1.466 1.466 0 0 0-.3-.48 1.69 1.69 0 0 0-.624-.418 1.613 1.613 0 0 0-.731-.097h-3.893ZM60.76 6.873h-4.242V9.74H64V12H54V0h9.578v2.297h-7.043v2.334h4.243l-.017 2.242ZM74.574 5.211 79.937 0h3.218l-4.862 4.679L84 11.982h-3.236l-4.313-5.578-1.877 1.835V12H72V0h2.574v5.211ZM98.73 0v9.74H106V12H96V0h2.73ZM116.395 0h2.192L124 12h-2.782l-1.072-2.536h-5.413L113.679 12H111l5.395-12Zm-.786 7.387h3.639l-1.764-4.245h-.107l-1.768 4.245ZM140.322 12V5.035h-.093l-3.404 5.605h-.743l-3.404-5.605h-.093V12H130V0h2.548l3.98 6.597h.037l3.961-6.579H143V12h-2.678ZM0 28V16h3v12H0ZM15.463 16C19.09 16 22 18.687 22 21.98c0 3.294-2.887 6.02-6.537 6.02S9 25.33 9 21.972C9 18.613 11.84 16 15.463 16Zm0 9.877a3.947 3.947 0 0 0 2.848-1.085c.376-.36.676-.792.88-1.27a3.83 3.83 0 0 0-.88-4.288 3.947 3.947 0 0 0-5.526.091 3.844 3.844 0 0 0-1.1 2.688c0 1.003.394 1.966 1.1 2.687a3.928 3.928 0 0 0 2.678 1.177ZM52 25.678A8.48 8.48 0 0 1 46.252 28C42.485 28 40 25.314 40 21.986a5.935 5.935 0 0 1 1.797-4.293 5.966 5.966 0 0 1 4.346-1.69 8.703 8.703 0 0 1 5.492 1.975l-1.564 1.63a6.053 6.053 0 0 0-3.719-1.456c-2.294 0-3.767 1.733-3.767 3.864a3.716 3.716 0 0 0 1.086 2.766 3.737 3.737 0 0 0 2.768 1.095 5.841 5.841 0 0 0 3.98-1.802L52 25.678ZM59 28V16h6.29c1.617 0 2.677.496 3.407 1.305.603.669.94 1.558.938 2.482 0 1.544-.904 2.735-2.294 3.383L70 28h-2.85l-2.294-4.407h-3.371V28H59Zm2.485-9.776v3.144h4.066c.204.01.408-.024.599-.099.191-.075.366-.19.514-.34.148-.148.266-.326.347-.524.082-.198.124-.411.126-.627a1.53 1.53 0 0 0-.1-.567 1.466 1.466 0 0 0-.3-.481 1.69 1.69 0 0 0-.623-.417 1.614 1.614 0 0 0-.732-.098l-3.897.01ZM82.463 16C86.09 16 89 18.909 89 22.474 89 26.04 86.09 29 82.463 29 78.835 29 76 26.11 76 22.474 76 18.838 78.835 16 82.463 16Zm0 10.692a3.678 3.678 0 0 0 1.535-.277c.49-.202.936-.507 1.313-.897.376-.39.676-.858.88-1.375a4.443 4.443 0 0 0 0-3.267 4.207 4.207 0 0 0-.88-1.375 3.885 3.885 0 0 0-1.313-.897 3.676 3.676 0 0 0-1.535-.277 3.795 3.795 0 0 0-2.679 1.273 4.345 4.345 0 0 0-1.099 2.91c0 1.085.394 2.128 1.1 2.909a3.795 3.795 0 0 0 2.678 1.273ZM105.721 18.526a7.174 7.174 0 0 0-4.208-1.311c-1.194 0-2.26.468-2.26 1.498s1.58 1.162 3.142 1.293c2.187.145 5.605.412 5.605 3.779 0 3.016-2.462 4.214-5.403 4.214A9.959 9.959 0 0 1 96 25.583l1.489-1.835a8.027 8.027 0 0 0 5.163 2.037c1.526 0 2.757-.6 2.757-1.742 0-1.143-1.231-1.443-3.032-1.593-2.628-.164-5.715-.468-5.715-3.573 0-2.96 2.7-3.877 4.961-3.877 1.99.003 3.938.576 5.624 1.653l-1.526 1.873ZM114 28V16h7.3c1.516 0 2.602.46 3.276 1.158.485.48.759 1.126.763 1.802a2.72 2.72 0 0 1-.426 1.412 2.783 2.783 0 0 1-1.105.996 3.05 3.05 0 0 1 1.613 1.12c.396.537.6 1.19.577 1.854 0 .483-.101.96-.298 1.403a3.51 3.51 0 0 1-.843 1.17c-.749.699-1.666 1.085-3.332 1.085H114Zm2.695-9.812v2.629h4.306a1.604 1.604 0 0 0 1.179-.387 1.37 1.37 0 0 0 .412-.974 1.203 1.203 0 0 0-.375-.864 1.518 1.518 0 0 0-1.216-.404h-4.306Zm0 4.596v3.033h4.755c.492.022.975-.143 1.348-.46.27-.284.424-.658.43-1.047a1.474 1.474 0 0 0-.43-1.012 1.812 1.812 0 0 0-1.348-.514h-4.755ZM143 16l-4.69 6.535V28h-2.607v-5.465L131 16h3.218l2.879 4.173L139.958 16H143Z" fill="#231F20"></path></svg>