<svg class="header__logo" viewBox="0 0 120 88" version="1.1" xmlns="http://www.w3.org/2000/svg" xmlns:xlink="http://www.w3.org/1999/xlink">
    <title>Act + Acre Logo</title>
    <defs>
        <polygon id="path-1" points="9.75609756e-05 0.764524444 119.647805 0.764524444 119.647805 42.0443467 9.75609756e-05 42.0443467"></polygon>
        <polygon id="path-3" points="9.75609756e-05 0.2552 119.589366 0.2552 119.589366 41.5349244 9.75609756e-05 41.5349244"></polygon>
    </defs>
    <g id="logo" stroke="none" stroke-width="1" fill="none" fill-rule="evenodd">
        <g id="01_1280_HP" transform="translate(-60.000000, -60.000000)">
            <g id="Logo" transform="translate(60.000000, 60.000000)">
                <g id="Acre" transform="translate(0.000000, 45.700160)">
                    <mask id="mask-2" fill="">
                        <use xlink:href="#path-1"></use>
                    </mask>
                    <g id="Clip-2"></g>
                    <path d="M33.2449756,41.3618578 L38.3513171,41.3618578 L21.8986341,0.764524444 L16.3952195,0.764524444 L9.75609756e-05,41.3618578 L4.87814634,41.3618578 L9.36009756,30.0470133 L28.7630244,30.0470133 L33.2449756,41.3618578 Z M19.0049756,5.65439111 L19.1757073,5.65439111 L27.1747317,26.0097689 L10.9493659,26.0097689 L19.0049756,5.65439111 Z M42.0957073,27.0902133 C42.0957073,36.2441689 47.5981463,42.0443467 55.5405854,42.0443467 C61.8947317,42.0443467 66.0918049,38.4617689 67.0010732,32.3213244 L62.519122,32.3213244 C61.7249756,36.1307467 59.399122,38.2349244 55.5405854,38.2349244 C49.924,38.2349244 46.7474146,33.7997244 46.7474146,27.0902133 C46.7474146,20.3807022 49.924,15.8887911 55.5405854,15.8887911 C59.399122,15.8887911 61.7249756,17.9929689 62.519122,21.8023911 L67.0010732,21.8023911 C66.0918049,15.7186578 61.8947317,12.0793689 55.5405854,12.0793689 C47.5981463,12.0793689 42.0957073,17.9362578 42.0957073,27.0902133 Z M90.6010732,12.3639022 C89.9200976,12.1937689 89.1259512,12.13608 88.3883902,12.13608 C84.1903415,12.13608 80.559122,14.8083467 79.3113171,19.52808 L79.3113171,12.7618578 L74.7727805,12.7618578 L74.7727805,41.3618578 L79.4810732,41.3618578 L79.4810732,27.2613244 C79.4810732,20.0394578 83.6225366,16.4578578 88.1610732,16.4578578 C88.8976585,16.4578578 89.9200976,16.5145689 90.6010732,16.6847022 L90.6010732,12.3639022 Z M119.478146,32.9471022 L115.05278,32.9471022 C113.861561,36.41528 111.535707,38.2916356 107.676195,38.2916356 C102.230341,38.2916356 98.7708293,34.6523467 98.5435122,28.0572356 L119.647902,28.0572356 L119.647902,26.18088 C119.647902,18.8455911 115.846927,12.0793689 107.394244,12.0793689 C99.7903415,12.0793689 93.9483902,17.8795467 93.9483902,27.2036356 C93.9483902,36.41528 99.621561,42.0443467 107.676195,42.0443467 C113.237171,42.0443467 118.17278,39.0308356 119.478146,32.9471022 Z M107.394244,15.8887911 C112.49961,15.8887911 114.93961,19.6982133 115.05278,24.6457689 L98.7142439,24.6457689 C99.5074146,18.78888 102.912293,15.8887911 107.394244,15.8887911 Z" id="Fill-1" fill="#F6F6F6" mask="url(#mask-2)"></path>
                </g>
                <g id="Act" transform="translate(0.000000, 0.722382)">
                    <mask id="mask-4" fill="">
                        <use xlink:href="#path-3"></use>
                    </mask>
                    <g id="Clip-5"></g>
                    <path d="M33.2449756,40.8524356 L38.3513171,40.8524356 L21.8986341,0.255102222 L16.3952195,0.255102222 L9.75609756e-05,40.8524356 L4.87814634,40.8524356 L9.36009756,29.5375911 L28.7630244,29.5375911 L33.2449756,40.8524356 Z M19.0049756,5.14496889 L19.1757073,5.14496889 L27.1747317,25.5003467 L10.9493659,25.5003467 L19.0049756,5.14496889 Z M41.5279024,26.5807911 C41.5279024,35.7347467 47.0313171,41.5349244 54.9737561,41.5349244 C61.3279024,41.5349244 65.5249756,37.9523467 66.4332683,31.8119022 L61.9513171,31.8119022 C61.1571707,35.6213244 58.8313171,37.7255022 54.9737561,37.7255022 C49.3571707,37.7255022 46.1796098,33.2903022 46.1796098,26.5807911 C46.1796098,19.87128 49.3571707,15.3793689 54.9737561,15.3793689 C58.8313171,15.3793689 61.1571707,17.4835467 61.9513171,21.2929689 L66.4332683,21.2929689 C65.5249756,15.2092356 61.3279024,11.5699467 54.9737561,11.5699467 C47.0313171,11.5699467 41.5279024,17.4268356 41.5279024,26.5807911 Z M86.9132683,36.6450578 C85.0976585,37.2131467 83.8498537,37.3285244 82.7718049,37.3285244 C80.1620488,37.3285244 78.6303415,36.3038133 78.6303415,33.2903022 L78.6303415,15.8350133 L86.1747317,15.8350133 L86.1747317,12.2524356 L78.6869268,12.2524356 L78.6869268,4.97483556 L74.0352195,4.97483556 L74.0352195,12.2524356 L69.8371707,12.2524356 L69.8371707,15.8350133 L74.0352195,15.8350133 L74.0352195,33.5171467 C74.0352195,38.8059467 76.7005854,41.3071022 81.9210732,41.3071022 C83.168878,41.3071022 84.8147317,41.1369689 86.9132683,40.5111911 L86.9132683,36.6450578 Z M119.589366,23.8518133 L119.589366,19.98568 L106.768878,19.98568 L106.768878,7.07803556 L102.911317,7.07803556 L102.911317,19.98568 L90.0332683,19.98568 L90.0332683,23.8518133 L102.911317,23.8518133 L102.911317,36.75848 L106.768878,36.75848 L106.768878,23.8518133 L119.589366,23.8518133 Z" id="Fill-4" fill="#F6F6F6" mask="url(#mask-4)"></path>
                </g>
            </g>
        </g>
    </g>
</svg>