<svg class="icon icon-logo" version="1.1" id="Layer_1" xmlns="http://www.w3.org/2000/svg" xmlns:xlink="http://www.w3.org/1999/xlink" x="0px" y="0px" width="100%" viewBox="0 0 976 1024" enable-background="new 0 0 976 1024" xml:space="preserve">
<path fill="currentColor" opacity="1.000000" stroke="none" d="
M164.004425,870.049438 
   C160.249939,866.976685 156.586044,864.323669 153.353439,861.221313 
   C150.855469,858.823975 148.128113,855.834900 150.693054,852.070007 
   C153.428589,848.054626 157.473389,849.004883 161.036713,850.731689 
   C168.826324,854.506714 176.372345,858.788879 184.192383,862.495789 
   C218.278030,878.653076 254.139526,889.188171 291.225098,895.644287 
   C316.349457,900.018250 341.673431,902.385376 367.193970,902.960999 
   C395.544373,903.600403 423.767944,902.448608 451.880524,898.663269 
   C461.990784,897.301880 465.601105,891.956177 464.097565,881.754211 
   C461.782562,866.046265 451.926819,857.399902 438.027618,851.846008 
   C423.971344,846.229309 412.965179,836.745789 407.723511,822.449829 
   C404.386841,813.349487 398.437317,809.340576 389.783295,807.300415 
   C375.762390,803.995056 361.436035,803.587280 347.195831,802.261597 
   C293.574432,797.269531 240.351334,790.171021 189.497391,771.171082 
   C184.209198,769.195374 179.096558,766.686584 174.065384,764.107361 
   C170.409454,762.233215 167.595322,759.309265 166.786438,755.068481 
   C165.910156,750.474243 167.887314,748.269470 172.505966,748.841675 
   C175.126053,749.166260 177.731049,749.923279 180.240463,750.783997 
   C220.350616,764.541809 261.422180,774.344604 303.371704,780.380737 
   C322.645935,783.154114 342.034058,784.935669 361.509155,785.865112 
   C380.160889,786.755188 398.784149,787.219421 417.429443,785.879883 
   C420.061371,785.690796 422.171234,785.057800 424.068329,783.096985 
   C428.811127,778.194824 434.310486,774.004578 438.245209,768.344971 
   C445.521423,757.878967 443.322510,749.507874 431.862732,744.071655 
   C426.397675,741.479187 420.724060,740.042603 414.515472,740.148376 
   C391.526733,740.539917 368.512360,741.176453 345.566925,739.199951 
   C309.306305,736.076599 273.707275,729.463989 239.062973,718.114014 
   C236.846832,717.388062 234.652145,716.524170 232.890396,714.917908 
   C231.632156,713.770630 230.025818,711.908630 231.294373,710.675537 
   C234.451340,707.606873 232.191376,705.243408 230.829239,702.844299 
   C221.367462,686.179443 219.140564,667.612976 216.774033,649.130920 
   C213.985840,627.355835 211.562637,605.534119 208.978333,583.732910 
   C208.560837,580.210876 208.748581,576.730164 209.894867,573.363586 
   C210.795639,570.718079 212.244354,568.346436 215.387634,568.317871 
   C218.411896,568.290283 220.248230,570.299866 221.247391,572.981812 
   C224.103745,580.648926 227.807022,587.901672 231.509964,595.185791 
   C234.389664,600.850647 238.718109,605.133423 243.059586,609.478943 
   C245.933594,612.355530 248.639236,615.400574 249.666779,619.333313 
   C251.779388,627.419067 256.577820,633.998230 260.955078,640.854187 
   C270.111694,655.195679 275.691101,671.039734 279.962402,687.365723 
   C281.254547,692.304688 283.209564,696.795044 286.151764,700.880249 
   C290.727966,707.234375 295.558044,713.424072 298.405792,720.833923 
   C299.249725,723.029785 300.977417,723.461609 303.133514,723.759155 
   C322.985168,726.499084 342.954498,726.934021 362.944916,726.981079 
   C390.273102,727.045471 417.562286,726.152588 444.684540,722.586426 
   C451.588196,721.678711 458.364563,719.793396 465.192932,718.327087 
   C467.430756,717.846497 468.991913,716.477661 470.243835,714.559753 
   C476.458221,705.039551 484.812469,698.890137 496.360352,697.087952 
   C503.023682,696.048035 508.864105,692.650024 514.197205,688.482788 
   C515.634460,687.359680 517.231445,686.426147 518.815430,685.509888 
   C520.417297,684.583130 522.172668,683.653381 523.960205,684.858948 
   C525.860596,686.140564 526.027588,688.123169 525.542114,690.217896 
   C525.325500,691.152344 525.163818,692.099548 524.846191,693.701904 
   C534.424255,688.958313 542.549622,683.224976 550.627563,677.446533 
   C564.483215,667.534973 576.889832,655.945312 589.438232,644.457214 
   C597.593811,636.990723 598.739685,628.492126 597.205444,618.659363 
   C595.968689,610.732727 592.952698,603.579041 587.531250,597.621704 
   C584.232544,593.996887 583.924866,590.483582 586.508911,586.328125 
   C589.598206,581.360413 589.771606,575.494934 590.475952,569.949768 
   C592.872620,551.082153 593.366211,532.071716 592.457886,513.112488 
   C592.039795,504.385956 590.007385,495.653198 587.934509,487.110687 
   C585.352356,476.469513 577.469849,470.002533 568.332642,464.918335 
   C560.426636,460.519196 551.888367,457.724304 543.281006,455.050995 
   C528.432373,450.439240 524.469177,445.125610 523.856506,429.443115 
   C523.654846,424.282166 523.795349,419.107574 523.581421,413.947449 
   C523.119202,402.797699 516.533936,395.023529 509.307495,387.343628 
   C493.188171,370.212677 472.331879,363.228271 450.235748,358.275726 
   C412.826385,349.890991 374.996948,348.084686 336.998657,351.533844 
   C296.258850,355.231842 257.085602,365.679016 219.515625,381.960571 
   C218.326004,382.476105 217.233414,383.215546 216.091293,383.852966 
   C216.201294,384.559937 216.146317,385.113007 216.369797,385.508850 
   C220.659042,393.106842 222.086868,400.697937 218.713867,409.329010 
   C215.783981,416.826233 217.578888,424.058136 223.310196,430.100128 
   C231.003067,438.210083 229.388321,445.423035 224.520981,452.784637 
   C220.140823,459.409393 217.614746,466.032928 217.799301,474.188812 
   C217.911514,479.148010 215.742340,484.249115 214.129257,489.131561 
   C212.531616,493.967377 213.702438,497.587219 217.659348,500.524414 
   C217.792877,500.623566 217.909775,500.744995 218.042236,500.845764 
   C229.271332,509.390839 232.118149,520.951721 229.894638,534.234314 
   C229.097961,538.993469 229.238571,544.170227 225.553528,547.807068 
   C223.426498,547.546875 223.029037,546.108459 222.232407,545.103210 
   C217.562363,539.210327 212.779434,533.256287 206.593048,529.028748 
   C192.029327,519.076538 185.232056,504.983917 182.700912,488.068268 
   C178.530243,460.195557 179.534958,432.278656 181.387619,404.330811 
   C181.572113,401.547577 181.985092,398.908295 180.484680,396.106079 
   C178.261139,391.953339 182.055023,390.022827 184.646347,388.269745 
   C192.246475,383.127930 200.385010,378.867340 208.641617,374.891144 
   C246.846176,356.492554 286.755249,343.382355 328.787201,337.320404 
   C350.224762,334.228577 371.774048,332.846313 393.520569,334.227203 
   C401.910645,334.759979 410.421173,333.995819 418.917755,334.567352 
   C457.127411,337.137451 492.747742,348.155334 526.148621,366.682373 
   C528.462280,367.965759 530.781311,369.239532 533.515381,370.748138 
   C534.045593,368.152466 532.689880,366.661346 531.660217,365.145813 
   C526.144653,357.027344 518.195129,351.862152 509.706665,347.456421 
   C505.128723,345.080322 500.323120,343.146545 495.667480,340.914581 
   C493.874847,340.055176 492.114349,339.055847 490.520782,337.875183 
   C489.004028,336.751434 487.812317,335.179688 488.766541,333.141815 
   C489.640137,331.276123 491.467712,331.398041 493.140991,331.650848 
   C501.740509,332.950073 510.023804,335.509155 518.190918,338.371887 
   C563.459106,354.239380 596.166992,384.658356 619.238220,426.090912 
   C633.631836,451.939606 642.937988,479.587006 648.078125,508.693726 
   C649.164856,514.847778 646.767517,519.972534 644.229004,526.224670 
   C640.876770,522.087219 640.904236,517.934143 640.744385,513.995911 
   C640.386169,505.167786 637.533020,497.036957 634.255249,489.002319 
   C633.635803,487.484009 632.856812,485.948547 631.042419,485.327240 
   C629.325317,486.134460 629.900940,487.723694 630.259033,488.776672 
   C634.231262,500.457306 631.090454,511.778748 628.957947,523.242981 
   C626.320251,537.423584 626.023987,551.673035 629.317810,565.860840 
   C629.957214,568.614990 631.176392,570.781128 633.658264,572.239868 
   C638.294189,574.964661 641.907898,573.433044 643.551270,568.080139 
   C645.434998,561.944153 644.381104,555.866089 643.345093,549.780701 
   C642.697388,545.976257 642.804810,542.351013 645.014099,539.177673 
   C646.731750,539.459595 647.161621,540.384521 647.445435,541.350708 
   C652.250977,557.705688 653.984985,574.011047 646.218445,590.025818 
   C642.757935,597.161438 636.153259,601.976685 632.094482,608.696716 
   C631.408997,609.831543 630.326782,610.775085 629.839233,611.974243 
   C612.884277,653.676758 582.674988,683.962585 546.410706,709.076477 
   C537.103333,715.521973 527.909851,722.133118 518.725464,728.753357 
   C516.849304,730.105652 515.118408,731.720581 513.552063,733.427002 
   C511.334076,735.843384 511.286469,738.572571 513.332764,741.133362 
   C514.888977,743.080933 516.701721,744.821228 518.339478,746.706543 
   C524.120178,753.361023 524.076965,753.312927 531.911926,748.710022 
   C565.645691,728.891968 596.229919,705.259216 621.213562,674.877991 
   C637.114197,655.542053 649.707214,634.280396 658.086121,610.611816 
   C662.339355,598.597412 662.939087,585.844116 665.645691,573.518250 
   C667.373169,565.651245 667.880066,557.756714 666.830994,549.735962 
   C666.444763,546.782959 666.594727,543.749817 666.634399,540.755005 
   C666.657532,539.004822 667.240967,537.406006 669.209045,536.946167 
   C671.146301,536.493530 672.195740,537.698975 673.281494,539.121582 
   C682.699341,551.462219 686.331055,565.880066 688.187683,580.879578 
   C689.147095,588.630127 689.610535,596.441467 690.333862,604.222046 
   C691.953186,621.640564 682.941406,633.235535 669.447449,642.362000 
   C667.794495,643.479919 666.131531,644.856689 664.271301,645.346802 
   C656.705994,647.339783 653.515869,653.199768 650.053772,659.495667 
   C627.830872,699.907349 595.959839,731.131531 556.661377,754.694336 
   C545.629578,761.308777 539.752380,770.238098 538.840332,782.274658 
   C538.334412,788.950256 539.810181,795.765808 538.113708,802.521362 
   C535.499268,812.932434 531.915527,822.902405 525.957581,831.918274 
   C525.251038,832.987488 524.205017,833.956482 524.388733,835.727112 
   C528.248962,837.097900 531.845398,835.440063 535.318665,834.240234 
   C551.410400,828.681702 566.764404,821.382629 582.033081,813.918945 
   C593.405212,808.359924 604.651123,802.541809 616.046265,797.031372 
   C619.022583,795.592041 623.181152,792.507019 625.461731,796.047607 
   C627.880798,799.803162 624.531250,803.546143 621.338501,806.177734 
   C611.521545,814.269287 600.692566,820.797241 589.423157,826.641846 
   C565.996155,838.791504 541.507629,848.330444 516.487427,856.614380 
   C506.835449,859.810059 497.971405,864.270630 493.044495,873.988098 
   C491.897644,876.250122 491.079010,878.597290 490.657684,881.058472 
   C489.416809,888.306519 493.487701,893.019836 500.804291,893.101868 
   C507.965851,893.182129 514.426147,890.115967 521.240723,888.653870 
   C535.389099,885.618286 549.714050,883.306946 563.519043,878.775452 
   C572.303101,875.892151 580.569824,872.104675 587.616272,865.949402 
   C590.024475,863.845825 592.900879,862.526978 595.979980,861.600159 
   C602.818481,859.541321 608.028564,860.973755 612.060608,866.140686 
   C616.790466,872.201660 617.516724,878.906006 613.973755,884.732544 
   C611.077454,889.495667 606.747437,892.998169 602.908020,896.913635 
   C600.021362,899.857361 598.140747,903.219360 596.936096,907.137390 
   C595.784241,910.883972 597.358826,913.484741 600.277710,915.128052 
   C603.358093,916.862427 605.663635,914.834229 607.459534,912.420227 
   C610.998962,907.662476 612.559509,901.978943 614.766113,896.594604 
   C616.343262,892.745972 617.990723,888.921875 619.747070,885.152161 
   C621.918945,880.490540 625.268188,877.143738 629.949463,874.643372 
   C646.209900,865.958313 658.829346,852.784241 671.580688,839.842651 
   C674.195007,837.189331 676.991638,835.108826 680.414429,833.537964 
   C711.951111,819.063660 741.645264,801.709839 766.288147,776.833496 
   C790.668274,752.222351 806.564087,723.116028 811.385315,688.532593 
   C813.808533,671.150818 813.273376,653.656677 812.119446,636.173035 
   C811.416626,625.524902 810.465210,614.945740 807.678833,604.599854 
   C806.591553,600.562683 805.307678,596.615967 803.253174,592.957703 
   C800.153259,587.437927 796.573730,585.394531 792.630554,586.862061 
   C786.404175,589.179443 783.288818,594.023132 784.553711,600.050659 
   C785.474915,604.440369 786.847534,608.736450 788.050232,613.065613 
   C791.750854,626.385925 794.998901,639.752808 795.392029,653.706604 
   C796.015564,675.840088 786.102661,692.636414 769.755310,706.510010 
   C759.074280,715.574829 746.160156,720.821350 734.342224,727.937744 
   C722.571655,735.025574 712.181702,743.721313 703.044006,754.103760 
   C693.506226,764.940796 681.583130,773.014343 669.320007,780.510437 
   C663.351929,784.158508 657.320984,787.703918 651.311829,791.284607 
   C648.293640,793.083069 645.187134,794.715271 641.657776,795.225281 
   C633.702332,796.375061 630.144287,791.962585 633.253662,784.540833 
   C636.203003,777.500732 640.852234,771.638306 646.931274,767.009033 
   C659.066162,757.768372 670.419861,747.740601 678.418457,734.551697 
   C684.494934,724.532166 688.623779,713.981384 685.735657,701.827454 
   C684.790710,697.850952 683.336182,694.125427 681.035767,690.885986 
   C672.731750,679.191956 673.197021,666.996887 678.252991,654.314148 
   C680.978455,647.477417 684.208740,640.866577 688.034607,634.642822 
   C694.703003,623.794739 696.324097,612.067322 695.994446,599.653870 
   C695.447815,579.067688 691.175659,559.052917 687.283203,538.973145 
   C682.505432,514.326294 676.962402,489.811890 673.981262,464.851959 
   C671.940613,447.766144 670.677917,430.693237 677.858215,414.246033 
   C687.304382,392.608643 712.002869,377.805328 735.568909,379.746857 
   C740.586121,380.160217 744.268738,382.917664 747.611694,386.238495 
   C757.578308,396.139069 763.385803,408.401062 767.309631,421.665070 
   C769.481567,429.006775 771.339844,436.446075 774.691833,443.383545 
   C774.981567,443.983215 775.164307,444.646210 775.520264,445.200409 
   C777.915405,448.929077 779.805664,453.987671 785.441162,452.635162 
   C790.704407,451.372101 791.628479,446.362122 791.684509,441.817413 
   C792.010620,415.351837 792.160156,388.961212 788.103943,362.601318 
   C780.895752,315.758118 767.131897,271.151642 745.277527,229.111038 
   C728.491455,196.820129 707.431213,167.532410 681.863953,141.600189 
   C674.474854,134.105621 666.053345,127.796646 656.289368,123.504501 
   C651.757935,121.512550 647.072754,120.589470 642.161621,121.277817 
   C634.437073,122.360481 630.217407,129.877563 633.546753,136.911880 
   C637.536255,145.340973 644.230530,151.779099 650.441101,158.469345 
   C676.262878,186.285553 697.261719,217.402756 714.100769,251.322617 
   C720.877014,264.972290 725.898926,279.335724 725.246277,294.911743 
   C724.730835,307.214722 719.935608,317.403137 709.249390,324.418335 
   C702.284363,328.990570 695.294617,329.163269 687.931763,325.733582 
   C679.510803,321.811066 673.281433,315.369598 667.854065,308.102142 
   C652.489563,287.528442 643.075562,264.216370 635.623840,239.804947 
   C621.825989,194.604034 601.427917,153.013428 566.256104,120.160652 
   C541.468079,97.007057 512.299622,82.660088 478.671173,77.537270 
   C453.719116,73.736176 429.568665,78.255104 405.635956,84.604950 
   C347.813599,99.946449 298.171265,129.143524 257.704315,173.321213 
   C232.948135,200.347427 213.248825,230.690399 200.614136,265.319916 
   C198.226791,271.863251 196.851898,278.622223 196.442520,286.207855 
   C204.149506,282.443207 211.188538,278.757843 218.425323,275.513550 
   C246.715942,262.830719 276.481476,255.211945 306.886169,249.639069 
   C346.901886,242.304581 387.292053,240.134857 427.782623,241.948624 
   C493.249603,244.881180 555.848877,259.999969 614.715454,289.343781 
   C627.700806,295.816711 640.137451,303.270203 652.061584,311.542847 
   C657.322327,315.192596 661.905212,319.549347 664.416443,325.636902 
   C666.221252,330.012054 666.776245,334.640686 663.745300,338.492279 
   C660.776001,342.265472 656.305969,342.314911 651.814819,341.432465 
   C643.784790,339.854675 636.672546,336.197662 630.257507,331.370941 
   C613.886536,319.053223 595.644897,310.131348 577.147766,301.691589 
   C543.177124,286.191681 507.615631,275.673370 470.843445,269.594910 
   C438.877502,264.310883 406.638519,262.750183 374.258820,265.337311 
   C324.012695,269.351929 275.532135,279.972412 230.444305,303.427277 
   C211.898422,313.074890 193.609695,323.532715 179.049393,338.529297 
   C168.483887,349.411407 159.592865,362.283752 159.150101,378.830505 
   C158.855423,389.842560 162.710846,399.111572 170.330307,406.735718 
   C173.326172,409.733459 174.391205,412.750885 174.311356,416.880463 
   C173.866730,439.874847 173.816696,462.890259 175.489624,485.830505 
   C177.787796,517.344482 181.435486,548.711121 186.738144,579.892212 
   C191.534027,608.093079 197.697571,636.047729 201.767746,664.374512 
   C202.695831,670.833679 202.758087,677.326660 202.260864,683.816223 
   C202.065750,686.362671 201.342834,688.918213 198.650192,689.917847 
   C196.128082,690.854187 194.118683,689.264343 192.367172,687.733337 
   C188.829391,684.641174 185.896576,681.089478 183.973068,676.695557 
   C171.286179,647.714294 162.962845,617.414734 156.765457,586.490234 
   C149.334610,549.410950 144.928696,511.954865 142.524979,474.213562 
   C140.744461,446.257568 139.294083,418.247437 141.008682,390.334229 
   C143.263199,353.631256 151.133636,317.903168 164.296524,283.435516 
   C193.600403,206.701889 245.397247,149.287292 315.459534,107.680756 
   C355.144226,84.113968 397.486786,66.923325 442.732452,57.560215 
   C472.259155,51.449978 502.214783,50.903603 532.236023,53.448479 
   C557.685425,55.605808 582.681885,60.026012 607.134583,67.542763 
   C666.685486,85.848640 715.018494,119.756439 750.787109,170.965240 
   C779.603088,212.220184 796.695435,258.357300 805.630615,307.570129 
   C808.237122,321.926178 808.801819,336.657349 810.209595,351.225525 
   C812.000977,369.763824 813.632751,388.317688 815.454224,406.852966 
   C817.292480,425.560028 819.300476,444.250397 821.171082,462.954376 
   C821.394714,465.190460 821.726746,466.945679 823.960693,468.328735 
   C844.633606,481.127686 850.611633,494.689941 846.655334,518.806030 
   C845.215759,527.581665 842.836121,536.032898 838.809082,543.960205 
   C837.694275,546.154785 837.728088,547.809143 839.094543,549.913025 
   C848.747864,564.776489 859.185974,578.893616 872.926025,590.409973 
   C881.624634,597.700745 884.559448,608.004700 885.302307,618.953064 
   C886.458374,635.989380 882.083496,651.748352 875.205933,667.275024 
   C865.111938,690.063477 858.139709,713.757568 857.129211,738.997375 
   C856.760742,748.199341 851.553528,755.997070 846.497986,763.481995 
   C832.580566,784.087341 814.826843,801.193848 796.564819,817.818970 
   C773.216919,839.074097 747.249695,856.885681 721.745422,875.363953 
   C691.354431,897.382629 664.062866,923.204468 635.848633,947.876953 
   C623.950256,958.281738 612.520569,969.349426 597.972656,976.222656 
   C588.531860,980.682983 578.839355,981.568237 568.851074,978.204102 
   C562.765564,976.154419 560.789001,972.684692 563.254944,966.686584 
   C565.463867,961.313721 568.416565,956.242737 571.104187,951.071411 
   C575.646362,942.331909 573.856873,938.222168 564.250549,935.902161 
   C559.446777,934.741943 555.065674,934.843445 550.691833,938.301392 
   C537.193298,948.973083 521.280579,953.340637 504.429718,955.298218 
   C482.944000,957.794312 461.457977,960.215027 439.879578,961.766174 
   C436.708527,961.994141 433.585876,961.983765 430.413574,961.651123 
   C425.586853,961.144897 422.521881,958.569824 420.465698,954.354797 
   C418.548279,950.424316 417.514465,946.220032 416.410461,942.040405 
   C414.622345,935.270813 410.662018,931.054993 403.501007,929.874573 
   C393.652496,928.251160 383.883606,926.013672 373.822418,928.280029 
   C370.354828,929.061035 367.181610,930.539490 364.153412,932.237793 
   C360.170410,934.471558 360.368805,937.402588 364.398346,939.549500 
   C370.065216,942.568848 371.315613,947.805237 366.791748,951.909607 
   C359.700348,958.343262 351.048981,957.163940 342.627350,955.592834 
   C335.359772,954.237000 330.847931,949.642090 329.276001,942.405273 
   C328.823090,940.320251 328.784363,938.104309 328.843719,935.956299 
   C329.073700,927.635010 327.455353,925.429626 319.280853,923.556335 
   C307.116760,920.768860 294.874634,918.294250 282.781860,915.228455 
   C247.725220,906.340881 212.945145,896.581055 180.426422,880.248962 
   C174.756760,877.401489 169.318771,874.156616 164.004425,870.049438 
M808.867615,554.371094 
   C814.793518,548.732666 820.731445,543.038086 824.656494,535.774719 
   C831.243042,523.586365 835.065979,510.915344 830.034180,497.036285 
   C828.915161,493.949921 827.563843,491.213409 824.262451,489.967346 
   C821.228210,488.822144 819.487244,489.453522 819.303589,493.069824 
   C818.871460,501.580078 815.867371,509.291595 811.599548,516.557617 
   C802.825684,531.495483 790.368164,542.914429 776.717468,553.242310 
   C765.965149,561.377380 754.024353,567.873779 744.067932,577.104736 
   C738.769165,582.017395 733.946289,587.274719 731.213013,594.076782 
   C729.948608,597.223450 729.144653,600.730652 731.596680,603.552002 
   C734.248230,606.603088 737.892822,606.050049 741.356995,604.920288 
   C747.158569,603.028198 752.196960,599.753174 756.685425,595.736694 
   C763.894226,589.286011 771.479248,583.364075 779.453003,577.884827 
   C789.621948,570.897217 799.174255,563.101624 808.867615,554.371094 
M728.340332,478.234375 
   C729.250183,487.505585 731.074158,496.611481 733.557251,505.573700 
   C734.581909,509.271942 736.317871,512.715759 738.898499,515.639038 
   C742.195618,519.373962 746.170044,522.726318 751.267151,521.830017 
   C756.702271,520.874390 758.630737,515.784241 759.545654,510.985291 
   C761.777344,499.279114 761.755127,487.444672 759.160095,475.827484 
   C757.312439,467.556396 753.192993,460.328491 746.100525,455.171906 
   C739.541504,450.403168 734.445251,451.762268 731.027771,459.236755 
   C728.394409,464.996277 728.077332,471.109985 728.340332,478.234375 
z"></path>
<path fill="currentColor" opacity="1.000000" stroke="none" d="
M424.800171,141.747681 
   C421.036621,142.932404 420.088409,144.518494 421.986603,148.107422 
   C425.048187,153.896133 423.338165,159.822311 419.823914,164.613480 
   C405.941833,183.539536 392.631561,202.892929 377.853394,221.158646 
   C370.530151,230.210144 361.644318,235.683594 349.752808,237.345078 
   C331.651794,239.874130 313.743439,243.757675 295.716064,246.849075 
   C287.347290,248.284195 280.314972,245.860291 275.193390,238.633972 
   C268.837677,229.666367 262.226440,220.879990 255.858994,211.920517 
   C252.389221,207.038269 252.591080,206.438644 257.617798,203.546356 
   C263.678864,200.058899 269.795258,196.667603 275.862671,193.190979 
   C278.146088,191.882553 279.912354,190.822342 282.149292,193.841476 
   C284.782776,197.395782 286.740570,195.030075 288.451111,192.251877 
   C304.213013,166.651825 322.135834,142.656876 342.571777,120.603210 
   C365.663025,95.684052 361.390778,99.584000 389.822479,95.485504 
   C405.633270,93.206337 421.601044,92.223412 437.590393,92.077057 
   C442.752289,92.029793 447.925598,92.394630 452.853149,94.170631 
   C461.232697,97.190804 463.580048,104.141678 458.783691,111.587898 
   C457.430939,113.687988 455.819580,115.656654 454.723450,117.881035 
   C448.543762,130.421661 437.768585,137.150284 424.800171,141.747681 
M345.395935,200.925156 
   C349.851532,195.114075 354.296326,189.294693 358.765930,183.494415 
   C362.759949,178.311234 365.054382,172.556488 364.644226,165.921066 
   C364.417694,162.255615 362.463654,159.787506 359.158783,158.222916 
   C356.134064,156.790985 353.930847,158.615219 351.935974,160.190765 
   C349.610962,162.027039 347.483368,164.226898 345.673431,166.579315 
   C341.107574,172.513550 336.307770,178.344162 332.454285,184.730743 
   C327.621826,192.739914 320.718231,197.050323 311.927277,199.247894 
   C307.263031,200.413879 302.653900,201.977905 298.218048,203.835449 
   C292.593231,206.190903 291.921143,209.709518 295.791534,214.266205 
   C298.592957,217.564377 301.246002,221.005997 304.238739,224.120819 
   C311.454926,231.631302 321.861908,234.041077 329.043854,223.250320 
   C334.017853,215.776917 339.624268,208.724396 345.395935,200.925156 
M388.893555,138.562378 
   C401.261627,134.106369 406.423615,122.357414 414.180725,113.288795 
   C415.849884,111.337418 414.443054,108.781723 411.860260,107.697357 
   C408.203827,106.162209 393.486664,109.257057 390.816650,112.214584 
   C384.143158,119.606758 377.524506,127.049408 370.967346,134.544861 
   C369.735321,135.953186 367.637115,137.337799 368.832703,139.650742 
   C370.139221,142.178238 372.754059,142.054855 375.012451,141.649200 
   C379.413879,140.858643 383.752106,139.716232 388.893555,138.562378 
z"></path>
<path fill="currentColor" opacity="1.000000" stroke="none" d="
M210.137665,841.154663 
   C190.110519,837.121887 170.836456,832.119263 152.818558,823.139099 
   C151.627838,822.545593 150.393280,821.999329 149.306656,821.246887 
   C147.468582,819.974243 144.500031,818.917786 145.534470,816.170471 
   C146.437347,813.772705 149.409058,813.916260 151.696213,814.043701 
   C157.951569,814.392334 157.947388,814.467468 157.869553,808.312439 
   C157.707657,795.513000 167.738617,787.610779 179.942719,791.044006 
   C186.982620,793.024536 193.920517,795.371033 200.972366,797.304626 
   C208.164444,799.276611 212.635483,803.943665 215.422409,810.636353 
   C218.070084,816.994507 219.442032,823.677307 220.130463,830.442932 
   C220.445770,833.541687 221.714706,834.779114 224.411041,835.555481 
   C226.469208,836.148132 228.468552,837.066162 230.356186,838.092896 
   C231.962769,838.966797 233.706192,840.210815 232.981049,842.377197 
   C232.214813,844.666077 230.106705,844.187683 228.294907,843.917114 
   C222.382462,843.034180 216.474640,842.120239 210.137665,841.154663 
z"></path>
<path fill="currentColor" opacity="1.000000" stroke="none" d="
M331.296448,554.676331 
   C331.289062,560.340027 333.095734,564.996277 336.100372,569.081055 
   C341.722107,576.723694 347.466217,584.283875 353.386963,591.696594 
   C357.609406,596.983093 358.098694,599.726135 353.912842,604.943787 
   C349.324219,610.663635 344.344757,615.882324 336.645416,617.727051 
   C328.637939,619.645630 322.859039,616.251404 318.390564,610.448364 
   C315.452148,606.632324 312.721649,602.641846 309.488861,599.054871 
   C306.656586,595.912231 305.871460,592.612427 307.404358,588.498169 
   C309.998413,581.535950 310.689240,574.432861 309.119263,566.973450 
   C307.769409,560.559998 309.200348,554.524414 313.499298,549.153748 
   C318.592682,542.790649 323.748077,536.432739 327.637726,529.194641 
   C328.332550,527.901611 329.057068,526.461487 331.974426,526.991699 
   C333.074921,535.939270 330.065857,545.100464 331.296448,554.676331 
z"></path>
<path fill="currentColor" opacity="1.000000" stroke="none" d="
M380.517822,645.132446 
   C388.435303,647.736816 396.470581,649.147888 400.940460,657.063538 
   C403.888672,662.284424 403.530792,665.075623 400.643372,670.395508 
   C394.471161,681.767334 384.115112,682.496460 373.264465,681.937378 
   C368.571167,681.695557 363.540100,681.379761 360.914246,676.029602 
   C360.089233,674.348633 357.809631,674.308777 355.937805,674.315308 
   C353.108765,674.325195 350.276703,674.270020 347.451477,674.382324 
   C341.986908,674.599609 338.370514,671.716736 335.587830,667.438293 
   C333.685822,664.513855 334.023804,662.104187 336.733978,659.546082 
   C344.450409,652.262634 353.401672,647.960876 364.043457,647.876465 
   C369.627472,647.832153 374.540894,644.660095 380.517822,645.132446 
z"></path>
<path fill="currentColor" opacity="1.000000" stroke="none" d="
M485.519104,429.294250 
   C484.298737,436.353180 479.447418,438.938232 473.594360,440.173279 
   C463.359650,442.332886 453.011078,443.915863 443.002258,447.147278 
   C438.555450,448.582886 434.269623,450.306610 429.975372,452.105225 
   C424.809479,454.268951 421.179443,453.181671 418.645966,449.169373 
   C415.628418,444.390472 415.966675,438.851166 420.235901,435.648407 
   C434.132233,425.223480 449.403900,418.567627 467.275452,419.616516 
   C471.093231,419.840576 474.928986,419.822083 478.756134,419.810516 
   C487.619232,419.783691 488.045837,420.322723 485.519104,429.294250 
z"></path>
<path fill="currentColor" opacity="1.000000" stroke="none" d="
M442.252472,162.267273 
   C450.380646,155.737610 458.238373,149.443039 466.240417,143.032883 
   C468.883240,146.365570 469.304962,149.738922 470.097412,152.868317 
   C472.132446,160.904633 473.841766,169.023087 475.724396,177.098648 
   C476.107605,178.742401 476.775116,180.528900 475.265198,181.763382 
   C465.937256,189.389542 456.532715,196.922043 447.155884,204.483856 
   C444.432343,201.700424 445.009308,198.897888 444.561707,196.364548 
   C443.062164,187.877579 441.510895,179.399780 440.006958,170.913574 
   C439.462769,167.843033 438.415802,164.621964 442.252472,162.267273 
z"></path>
<path fill="currentColor" opacity="1.000000" stroke="none" d="
M275.471497,478.071106 
   C264.472076,479.158691 253.962860,480.359100 243.356598,477.585388 
   C239.666138,476.620331 237.323685,474.971100 235.942978,471.806763 
   C234.537140,468.584869 235.403915,465.622314 237.869385,463.124146 
   C247.398376,453.469147 259.205627,452.381256 271.652954,454.514862 
   C275.357941,455.149933 278.877380,456.967163 282.427612,458.379089 
   C286.329437,459.930847 290.163544,461.410767 294.502808,460.101562 
   C296.093353,459.621735 298.053711,459.544098 298.988281,461.266357 
   C299.981628,463.096985 298.430420,464.364563 297.264130,465.520599 
   C291.218170,471.513489 283.854065,475.264343 275.471497,478.071106 
z"></path>
<path fill="currentColor" opacity="1.000000" stroke="none" d="
M414.415283,497.869812 
   C413.165314,497.267456 412.260498,496.846069 411.367004,496.401886 
   C402.223083,491.856659 401.389557,484.032379 409.333069,477.332336 
   C416.491119,471.294769 428.307800,469.962799 436.687866,474.249359 
   C436.835907,474.325104 436.981781,474.405243 437.127594,474.485260 
   C441.061676,476.643951 446.888702,477.454590 446.206757,483.565979 
   C445.475403,490.120331 441.419067,495.157471 435.244476,497.291504 
   C428.669159,499.564026 421.697296,500.858582 414.415283,497.869812 
z"></path>
<path fill="currentColor" opacity="1.000000" stroke="none" d="
M252.394989,516.794312 
   C257.691223,512.593506 261.420105,507.315826 267.420166,504.206238 
   C272.388428,501.631409 276.518829,501.789154 281.066406,503.858002 
   C285.746979,505.987305 290.225708,508.446747 295.436554,509.353241 
   C299.151459,509.999542 300.268005,512.889465 297.443634,515.502136 
   C290.461243,521.960876 282.869293,527.627441 273.108551,529.256531 
   C269.603943,529.841492 266.589172,528.284119 263.697845,526.595520 
   C260.692627,524.840393 257.918915,522.714722 254.470306,521.739563 
   C252.226257,521.105103 251.234131,519.497437 252.394989,516.794312 
z"></path>
<path fill="currentColor" opacity="1.000000" stroke="none" d="
M291.280518,169.610840 
   C291.214325,171.215500 291.296906,172.543900 290.330811,173.309357 
   C284.945618,177.576126 279.494049,181.759048 273.240936,186.610046 
   C272.060242,177.923584 271.655945,169.899628 274.753540,163.581802 
   C277.799744,157.368866 285.088196,153.841812 291.785217,149.674301 
   C292.821411,156.755600 290.821716,162.946304 291.280518,169.610840 
z"></path>
</svg>