<svg class="lazyload logo__img logo__img--color" version="1.1" id="Layer_1" xmlns="http://www.w3.org/2000/svg" xmlns:xlink="http://www.w3.org/1999/xlink" x="0px" y="0px" viewBox="0 0 595.28 230.74" xml:space="preserve">
<g>
	<defs>
		<rect id="SVGID_1_" width="595.28" height="230.74"></rect>
	</defs>
	<clipPath id="SVGID_2_">
		<use xlink:href="#SVGID_1_" style="overflow:visible;"></use>
	</clipPath>
	<path class="st0" d="M102.35,90.58c-1.46-1.91-3.32-3.43-5.68-4.6c-2.32-1.17-5.31-1.76-8.89-1.76c-4.98,0-9.35,1.13-12.99,3.38
		c-3.73,2.31-6.86,5.34-9.27,9.03c-2.5,3.8-4.38,8.1-5.6,12.8c-1.28,4.76-1.9,9.49-1.9,14.06c0,3.16,0.41,6.18,1.21,8.99
		c0.77,2.68,1.95,5.08,3.52,7.12c1.51,1.98,3.41,3.51,5.83,4.69c2.36,1.17,5.34,1.77,8.84,1.77c4.79,0,8.97-1.12,12.42-3.34
		c3.66-2.35,6.77-5.42,9.23-9.1c2.54-3.82,4.46-8.11,5.73-12.75c1.29-4.74,1.95-9.41,1.95-13.93c0-3.28-0.37-6.41-1.1-9.33
		C104.96,94.94,103.85,92.58,102.35,90.58"></path>
	<path class="st0" d="M511.41,129.34l-8.38,41.09h-30.74l8.95-43.44l-14.82-37.9l-17.21,81.34h-28.45l-24.53-62.71l-12.76,62.71
		h-29.05l23.23-110.61h29.19l24.25,63.46l12.75-63.46h11.15h17.63h14.04l13.85,39.36l28.74-39.36h36.68L511.41,129.34z
		 M306.17,187.3c-2.15,2.44-4.57,4.37-7.21,5.71c-2.58,1.35-5.53,2.28-8.75,2.77c-3.01,0.47-6.47,0.7-10.61,0.7
		c-1.96,0-3.89-0.11-5.74-0.31c-1.74-0.19-3.48-0.33-5.22-0.41l-4.57-0.21l4.99-24.61h3.2c1.61,0,3.27,0.17,4.91,0.52
		c1.11,0.22,2.24,0.33,3.29,0.33c2.2,0,3.4-0.36,4.03-0.67c0.99-0.51,1.76-1.06,2.31-1.68c0.73-0.79,1.31-1.6,1.82-2.53
		c0.39-0.72,0.8-1.41,1.24-2.07l-13.8-76.67h29.17l5.35,43.95l21.24-43.95h30.73l-50.59,90.61C310.16,182.13,308.2,185,306.17,187.3
		 M223.25,170.43l23.4-110.61h28.46l-23.56,110.61H223.25z M222.63,123.45l-9.91,46.98h-28.43l10.8-52.8
		c0.37-2.12,0.45-3.23,0.45-3.79c0-0.66-0.17-1.4-1.41-2.25c-1.4-0.98-2.85-1.46-4.46-1.46c-2.47,0-4.55,0.45-6.35,1.36
		c-1.93,1-3.53,2.25-4.89,3.77c-1.41,1.63-2.56,3.47-3.53,5.65c-1.02,2.3-1.76,4.55-2.27,6.87l-9,42.65h-28.29l17.02-82.25h27.65
		l-0.77,3.48c5.75-3.66,12.41-5.5,19.93-5.5c16.54,0,25.64,8.49,25.64,23.93c0,1.06-0.12,2.27-0.36,3.62
		c-0.18,1.18-0.4,2.45-0.65,3.74c-0.24,1.27-0.49,2.49-0.73,3.62C222.86,122.07,222.72,122.85,222.63,123.45 M121.68,152.28
		c-5.12,6.3-11.48,11.33-18.88,14.94c-7.44,3.66-16.09,5.51-25.68,5.51c-15.58,0-27.85-4.3-36.5-12.77
		c-8.66-8.5-13.05-20.77-13.05-36.48c0-8.74,1.39-17.16,4.11-25.03c2.75-7.93,6.74-15,11.87-21.05
		c5.19-6.11,11.58-11.02,18.97-14.58c7.48-3.61,15.92-5.43,25.11-5.43c7.27,0,14.02,1.01,20.07,2.99
		c6.23,2.07,11.57,5.21,15.89,9.32c4.3,4.09,7.71,9.22,10.07,15.2c2.33,5.92,3.52,12.8,3.52,20.44c0,8.82-1.33,17.36-3.94,25.39
		C130.6,138.84,126.72,146.09,121.68,152.28 M0,230.74h595.28V0H0V230.74z"></path>
</g>
</svg>