<svg viewBox="0 0 153 35" xmlns="http://www.w3.org/2000/svg" class="Icon Icon--flite-logo Header__Logo" alt="fliteboard efoil usa logo">
      <g fill="#fff" fill-rule="evenodd">
        <path d="M1.512 34.741c-.67 0-1.22-.553-1.22-1.229v-2.769c0-.676.55-1.229 1.22-1.229h2.737c.67 0 1.219.553 1.219 1.23v2.768c0 .676-.548 1.229-1.219 1.229zM1.512 25.496c-.67.002-1.22-.55-1.22-1.226V12.307c0-.676.55-1.23 1.22-1.23h33.057c.67 0 1.218.554 1.218 1.23v2.759c0 .676-.548 1.229-1.218 1.229H6.687c-.67 0-1.22.553-1.22 1.229v1.445c0 .677.55 1.23 1.22 1.23H34.57c.67 0 1.218.553 1.218 1.229v2.759c0 .676-.548 1.23-1.218 1.232zM42.288 34.741c-.67 0-1.219-.553-1.219-1.229V12.307c0-.676.549-1.23 1.22-1.23h2.736c.67 0 1.22.554 1.22 1.23v16.03c0 .675.548 1.228 1.219 1.228h23.053c.671 0 1.22.553 1.22 1.229v2.718c0 .676-.549 1.229-1.22 1.229zM76.689 34.741c-.67 0-1.22-.553-1.22-1.229V12.307c0-.676.55-1.23 1.22-1.23h2.737c.67 0 1.219.554 1.219 1.23v21.205c0 .676-.549 1.229-1.22 1.229zM76.689 5.456c-.67 0-1.22-.553-1.22-1.23V1.459c0-.676.55-1.229 1.22-1.229h2.737c.67 0 1.219.553 1.219 1.23v2.768c0 .676-.549 1.23-1.22 1.23zM151.413 25.496c.67.002 1.219-.55 1.219-1.226V12.307c0-.676-.549-1.23-1.219-1.23H123.69c-.67 0-1.22.554-1.22 1.23v21.206c0 .675.55 1.228 1.22 1.228h26.925c.67 0 1.219-.553 1.219-1.229v-2.769c0-.676-.549-1.229-1.22-1.229h-21.749c-.67 0-1.22-.553-1.22-1.229v-1.628c0-.676.55-1.227 1.22-1.226zm-23.767-7.972c0-.676.549-1.23 1.22-1.23h17.372c.67 0 1.219.554 1.219 1.23v1.445c0 .677-.549 1.23-1.22 1.23h-17.372c-.67 0-1.22-.553-1.22-1.23z"></path>
        <path d="M89.655 33.512c0 .676.549 1.229 1.22 1.229h2.737c.67 0 1.219-.553 1.219-1.229V17.525c0-.676.549-1.229 1.219-1.229h21.359c.67 0 1.22-.553 1.22-1.228v-2.77c0-.675-.55-1.228-1.22-1.228h-21.36c-.67 0-1.218-.553-1.218-1.23V1.459c0-.676-.549-1.229-1.22-1.229h-2.736c-.671 0-1.22.553-1.22 1.23v32.053l119.912-16.027"></path>
      </g>
    </svg>