<svg class="ABbaby-logo" xmlns:dc="http://purl.org/dc/elements/1.1/" xmlns:cc="http://creativecommons.org/ns#" xmlns:rdf="http://www.w3.org/1999/02/22-rdf-syntax-ns#" xmlns:svg="http://www.w3.org/2000/svg" xmlns="http://www.w3.org/2000/svg" xmlns:sodipodi="http://sodipodi.sourceforge.net/DTD/sodipodi-0.dtd" xmlns:inkscape="http://www.inkscape.org/namespaces/inkscape" version="1.1" id="svg2" xml:space="preserve" width="4000" height="2666.6667" viewBox="0 0 4000 2666.6667" sodipodi:docname="BabyBird_Logo.ai"><metadata id="metadata8"><rdf:rdf><cc:work rdf:about=""><dc:format>image/svg+xml</dc:format><dc:type rdf:resource="http://purl.org/dc/dcmitype/StillImage"></dc:type></cc:work></rdf:rdf></metadata><defs id="defs6"><clipPath clipPathUnits="userSpaceOnUse" id="clipPath18"><path d="M 0,2000 H 3000 V 0 H 0 Z" id="path16"></path></clipPath></defs><sodipodi:namedview pagecolor="#ffffff" bordercolor="#666666" borderopacity="1" objecttolerance="10" gridtolerance="10" guidetolerance="10" inkscape:pageopacity="0" inkscape:pageshadow="2" inkscape:window-width="640" inkscape:window-height="480" id="namedview4"></sodipodi:namedview><g id="g10" inkscape:groupmode="layer" inkscape:label="BabyBird_Logo" transform="matrix(2.3333333,0,0,-2.3333333,-1333.333,3555.5557)"><g id="g12"><g id="g14" clip-path="url(#clipPath18)"><g fill="none" id="g20" transform="translate(2442.6455,1088.6406)"><path d="m 0,0 c 7.413,12.244 14.828,24.487 22.242,36.731 0.999,1.65 2.009,3.282 4.952,3.262 0.668,-0.353 1.932,-0.883 3.046,-1.636 8.453,-5.714 17.288,-10.742 26.637,-14.844 2.762,-1.212 5.586,-2.285 8.375,-3.439 0.794,-0.328 1.623,-0.628 2.33,-1.099 1.711,-1.139 2.223,-2.821 1.46,-4.733 -0.35,-0.874 -0.835,-1.701 -1.323,-2.511 -8.801,-14.629 -17.611,-29.252 -26.422,-43.876 -1.075,-1.786 -0.697,-1.859 -1.5,-2.132 1.997,-1.997 4.601,-5.343 7.46,-7.552 2.523,-2.431 -3.466,3.559 4.52,-4.428 3.993,-3.993 4.608,-4.746 5.265,-3.639 2.024,3.412 4.088,6.801 6.132,10.202 9.113,15.155 18.224,30.311 27.336,45.466 0.311,0.517 0.632,1.029 0.939,1.548 1.833,3.102 4.488,4.34 8.078,3.746 17.943,-2.971 36.035,-3.949 54.187,-3.56 9.053,0.194 18.113,0.801 27.133,1.617 11.858,1.073 23.681,2.52 35.516,3.838 5.231,0.583 10.454,1.235 15.679,1.873 2.493,0.304 4.657,-1.504 4.811,-4.011 0.767,-12.499 1.589,-24.994 2.385,-37.491 0.575,-9.036 1.13,-18.074 1.718,-27.11 0.795,-12.22 1.618,-24.437 2.421,-36.656 0.571,-8.692 1.118,-17.385 1.694,-26.076 0.644,-9.723 1.283,-19.447 1.977,-29.167 0.296,-4.152 2.323,-6.124 6.553,-5.964 6.639,0.253 13.268,0.772 19.899,1.203 2.928,0.191 5.858,0.391 8.778,0.683 4.246,0.425 6.14,2.547 6.041,6.836 -0.073,3.189 -0.268,6.377 -0.482,9.561 -1.111,16.519 -2.263,33.036 -3.365,49.556 -0.626,9.38 -1.167,18.764 -1.777,28.145 -0.773,11.875 -1.584,23.748 -2.365,35.623 -0.595,9.035 -1.167,18.072 -1.754,27.108 -0.352,5.421 -0.618,10.851 -1.102,16.261 -0.304,3.397 0.747,5.741 3.855,7.431 2.558,1.392 4.941,3.184 7.188,5.055 5.609,4.668 7.847,10.94 8.216,18.045 0.07,1.333 0.407,2.653 0.621,3.979 v 30.541 c -0.145,1.174 -0.385,2.344 -0.421,3.521 -0.223,7.411 -0.223,14.832 -0.623,22.232 -1.82,33.63 -7.671,66.522 -17.613,98.744 -13.931,45.15 -33.779,87.4 -60.587,126.362 -13.796,20.052 -29.257,38.641 -47.592,54.748 -18.415,16.177 -38.904,28.84 -62.224,36.711 -13.792,4.656 -27.905,7.75 -42.466,8.673 -4.047,0.256 -8.087,0.621 -12.126,0.983 -0.834,0.075 -1.65,0.359 -2.473,0.546 h -3.628 c -1.098,-0.179 -2.19,-0.462 -3.295,-0.52 -7.584,-0.397 -15.193,-0.502 -22.754,-1.156 -25.306,-2.188 -48.09,-10.58 -66.991,-28.05 -13.422,-12.405 -22.95,-27.459 -29.724,-44.337 -3.541,-8.822 -6.097,-17.941 -8.247,-27.183 -0.156,-0.672 -0.354,-1.333 -0.501,-2.007 -0.443,-2.023 -1.733,-3.07 -3.745,-3.389 -7.666,-1.219 -15.328,-2.463 -22.991,-3.7 -7.579,-1.223 -15.157,-2.444 -22.733,-3.684 -0.796,-0.13 -1.631,-0.362 -2.235,-0.86 -0.903,-0.746 -0.835,-2.157 -0.054,-3.029 0.585,-0.652 1.341,-1.172 2.059,-1.694 14.169,-10.302 28.32,-20.629 42.553,-30.841 1.838,-1.319 2.473,-2.697 2.462,-4.913 -0.114,-21.707 2.236,-43.188 6.055,-64.534 3.683,-20.582 8.374,-40.915 15.202,-60.73 C -57.177,130.796 -40.23,104.088 -18.357,81.86 -10.836,74.217 -3.113,66.773 4.515,59.236 5.006,58.751 5.509,58.276 5.972,57.765 7.4,56.188 7.706,54.441 6.693,52.527 6.371,51.918 6.024,51.321 5.667,50.731 -2.321,37.52 -10.309,24.31 -18.302,11.104 c -0.717,-1.184 -17.302,-28.987 -17.77,-29.409 2.669,-1.121 1.424,-4.72 3.993,-6.21 3.647,-2.818 10.329,-1.176 13.976,-3.993" style="fill:currentColor;fill-opacity:1;fill-rule:nonzero;stroke:none" id="path22"></path></g><g fill="none" id="g24" transform="translate(780.4568,830.4316)"><path d="m 0,0 c 0,45.492 -12.354,82.538 -37.046,111.137 -25.027,29.247 -56.383,43.87 -94.076,43.87 -40.298,0 -73.117,-14.136 -98.464,-42.408 -25.027,-27.952 -37.533,-64.342 -37.533,-109.187 0,-46.147 12.346,-83.033 37.046,-110.649 24.692,-28.272 57.191,-42.408 97.488,-42.408 38.021,0 69.537,14.136 94.564,42.408 C -12.674,-78.646 0,-42.895 0,0 M -260.782,547.376 V 195.361 c 0,-3.534 4.242,-5.304 6.778,-2.842 42.194,40.957 89.654,61.439 142.379,61.439 64.015,0 117.307,-23.885 159.882,-71.654 42.567,-47.45 63.855,-106.59 63.855,-177.43 0,-73.116 -21.448,-133.559 -64.343,-181.328 -42.575,-47.45 -96.353,-71.167 -161.343,-71.167 -52.106,0 -98.946,19.01 -140.515,57.036 -2.566,2.348 -6.693,0.554 -6.693,-2.924 v -30.481 c 0,-5.513 -4.47,-9.983 -9.983,-9.983 h -89.709 c -5.513,0 -9.983,4.47 -9.983,9.983 v 771.366 c 0,5.513 4.47,9.983 9.983,9.983 h 89.709 c 5.513,0 9.983,-4.47 9.983,-9.983" style="fill:currentColor;fill-opacity:1;fill-rule:nonzero;stroke:none" id="path26"></path></g><g fill="none" id="g28" transform="translate(1064.9033,836.9619)"><path d="m 0,0 c 0,-45.681 12.235,-82.875 36.704,-111.582 25.119,-29.041 56.77,-43.556 94.943,-43.556 40.779,0 73.73,14.023 98.857,42.088 25.119,29.036 37.683,65.899 37.683,110.603 0,44.697 -12.564,81.559 -37.683,110.603 -25.127,28.385 -57.748,42.577 -97.879,42.577 -37.85,0 -69.493,-14.36 -94.942,-43.067 C 12.557,78.625 0,42.737 0,0 m 267.196,236.866 h 98.883 c 3.236,0 5.86,-2.623 5.86,-5.859 v -464.95 c 0,-3.236 -2.624,-5.86 -5.86,-5.86 h -98.883 c -3.237,0 -5.86,2.624 -5.86,5.86 v 30.942 c 0,4.999 -5.869,7.708 -9.659,4.448 -42.599,-36.638 -88.158,-54.953 -136.67,-54.953 -65.908,0 -120.39,23.813 -163.457,71.452 -42.745,48.61 -64.11,109.294 -64.11,182.054 0,71.451 21.365,130.988 64.11,178.628 42.737,47.633 96.243,71.452 160.521,71.452 51.361,0 97.831,-19.588 139.403,-58.759 3.732,-3.518 9.862,-0.869 9.862,4.26 v 35.426 c 0,3.236 2.623,5.859 5.86,5.859" style="fill:currentColor;fill-opacity:1;fill-rule:nonzero;stroke:none" id="path30"></path></g><g fill="none" id="g32" transform="translate(2199.2515,687.887)"><path d="m 0,0 -208.04,376.657 c -2.148,3.889 0.665,8.656 5.108,8.656 h 114.338 c 2.157,0 4.138,-1.19 5.151,-3.094 L 55.418,121.272 c 2.231,-4.192 8.267,-4.106 10.378,0.146 l 129.396,260.655 c 0.985,1.985 3.01,3.24 5.227,3.24 H 311.53 c 4.37,0 7.189,-4.627 5.186,-8.51 L -57.032,-347.574 c -1.001,-1.941 -3.002,-3.16 -5.186,-3.16 h -112.484 c -4.407,0 -7.223,4.699 -5.146,8.586 L 0.039,-5.572 C 0.97,-3.828 0.956,-1.731 0,0" style="fill:currentColor;fill-opacity:1;fill-rule:nonzero;stroke:none" id="path34"></path></g><g fill="none" id="g36" transform="translate(1888.1969,831.4234)"><path d="m 0,0 c 0,45.492 -12.354,82.538 -37.046,111.137 -25.027,29.247 -56.383,43.87 -94.076,43.87 -40.298,0 -73.117,-14.136 -98.464,-42.408 -25.027,-27.952 -37.533,-64.342 -37.533,-109.187 0,-46.147 12.346,-83.033 37.046,-110.649 24.692,-28.272 57.191,-42.408 97.488,-42.408 38.021,0 69.537,14.136 94.564,42.408 C -12.673,-78.646 0,-42.895 0,0 M -260.782,547.376 V 195.361 c 0,-3.534 4.242,-5.304 6.778,-2.842 42.194,40.957 89.654,61.439 142.379,61.439 64.016,0 117.307,-23.885 159.882,-71.654 42.567,-47.45 63.855,-106.59 63.855,-177.43 0,-73.116 -21.448,-133.559 -64.343,-181.328 -42.575,-47.45 -96.353,-71.167 -161.343,-71.167 -52.106,0 -98.946,19.01 -140.515,57.036 -2.566,2.348 -6.693,0.554 -6.693,-2.924 v -30.481 c 0,-5.513 -4.47,-9.983 -9.983,-9.983 h -89.709 c -5.513,0 -9.983,4.47 -9.983,9.983 v 771.366 c 0,5.513 4.47,9.983 9.983,9.983 h 89.709 c 5.513,0 9.983,-4.47 9.983,-9.983" style="fill:currentColor;fill-opacity:1;fill-rule:nonzero;stroke:none" id="path38"></path></g></g></g></g></svg>