<svg class="logo" width="288" height="22" viewBox="0 0 288 22" fill="currentColor" xmlns="http://www.w3.org/2000/svg">
  <path d="M284.71,3.03h-1.35v3.05h.37v-1.15h.66l1,1.15h.41v-.06l-.96-1.08c1.21-.15,1.16-1.9-.14-1.9Zm-.98,1.57v-1.2h.98c.86,0,.84,1.2-.02,1.2h-.96Z"></path>
  <polygon points="209.87 11.89 220.93 11.89 220.93 10.17 209.87 10.17 209.87 3.24 221.46 3.24 221.46 1.47 208.05 1.47 208.05 20.73 221.79 20.73 221.79 18.93 209.87 18.93 209.87 11.89"></polygon>
  <path d="M235.9,1.47h-6.59V20.73h6.59c2.91,0,5.37-.95,7.12-2.73,1.75-1.79,2.71-4.38,2.65-7.12-.11-4.69-3.17-9.41-9.77-9.41Zm7.91,9.42c.04,2.25-.75,4.38-2.19,5.84-1.41,1.44-3.39,2.2-5.73,2.2h-4.73V3.24h4.73c5.36,0,7.83,3.84,7.91,7.65Z"></path>
  <polygon points="263.57 3.19 270.39 3.19 270.39 20.73 272.24 20.73 272.24 3.19 279.06 3.19 279.06 1.49 263.57 1.49 263.57 3.19"></polygon>
  <polygon points=".71 3.17 7.53 3.17 7.53 20.72 9.38 20.72 9.38 3.17 16.2 3.17 16.2 1.48 .71 1.48 .71 3.17"></polygon>
  <g>
    <polygon points="36.91 10.43 25.28 10.43 25.28 1.45 23.43 1.45 23.43 20.72 25.28 20.72 25.28 12.15 36.91 12.15 36.91 20.72 38.76 20.72 38.76 1.45 36.91 1.45 36.91 10.43"></polygon>
    <polygon points="49.19 11.88 60.24 11.88 60.24 10.16 49.19 10.16 49.19 3.23 60.78 3.23 60.78 1.45 47.36 1.45 47.36 20.72 61.11 20.72 61.11 18.92 49.19 18.92 49.19 11.88"></polygon>
    <path d="M75.87,8.78c-2.42-.29-4.03-.77-4.03-2.17s1.42-2.31,3.71-2.31c2.01,0,3.72,1.03,4.3,2l.1,.16,3.17-1.63-.09-.18c-1.24-2.52-3.86-3.86-7.59-3.86-3.73,.03-7.5,1.8-7.5,5.7,0,4.4,3.65,5.44,7.59,5.91,2.82,.3,4.19,1.15,4.19,2.58,0,2.44-3.17,2.63-4.14,2.63-2.49,0-4.4-1.07-5.12-2.87l-.08-.21-3.32,1.72,.07,.17c1.3,3.2,4.05,4.76,8.41,4.76,3.93,0,8.12-1.63,8.12-6.21s-3.74-5.71-7.78-6.21Z"></path>
    <path d="M99.95,1.42c-1.48,0-2.97,0-4.45,.01-1.48,0-2.96,.01-4.45,.01h-.2V20.71h3.96v-5.55h5.14c2.2,0,4.04-.74,5.34-2.15,1.15-1.25,1.78-2.92,1.78-4.72,0-3.31-2.23-6.88-7.12-6.88Zm2.41,9.1c-.58,.64-1.41,.98-2.41,.98h-5.14V5.22h5.14c2.2,0,3.21,1.63,3.21,3.15,0,.82-.28,1.59-.8,2.16Z"></path>
    <path d="M122.99,1.07c-6.8,0-9.9,5.26-9.9,10.15s3.06,9.93,9.9,9.93,9.82-5,9.88-9.96c.03-2.84-1-5.53-2.84-7.38-1.77-1.79-4.21-2.74-7.04-2.74Zm0,16.42c-4.3,0-5.92-3.21-6-6.22-.05-1.92,.59-3.71,1.76-4.91,1.07-1.09,2.49-1.65,4.23-1.65s3.14,.54,4.19,1.61c1.16,1.18,1.81,2.98,1.78,4.92-.05,3.02-1.65,6.25-5.97,6.25Z"></path>
    <path d="M151.53,13.95c2.93-.72,4.6-2.91,4.6-6.05s-2.19-6.42-6.99-6.45c-1.5,0-2.99,0-4.49-.01s-2.99-.01-4.49-.01h-.2V20.71h3.96v-6.31h3.13l5.5,6.31h4.52v-.52l-5.54-6.25Zm-2.4-3.15h-5.22V5.16h5.22c2.24,0,3.03,1.52,3.03,2.82s-.79,2.82-3.03,2.82Z"></path>
  </g>
  <polygon points="162.71 5.08 168.69 5.08 168.69 20.71 172.65 20.71 172.65 5.08 178.63 5.08 178.63 1.45 162.71 1.45 162.71 5.08"></polygon>
  <path d="M192.93,8.78c-2.42-.29-4.03-.77-4.03-2.17s1.42-2.31,3.71-2.31c2.01,0,3.72,1.03,4.3,2l.1,.16,3.17-1.63-.09-.18c-1.24-2.52-3.86-3.86-7.59-3.86-3.73,.03-7.5,1.8-7.5,5.7,0,4.4,3.65,5.44,7.59,5.91,2.82,.3,4.19,1.15,4.19,2.58,0,2.44-3.17,2.63-4.14,2.63-2.49,0-4.4-1.07-5.12-2.87l-.08-.21-3.32,1.72,.07,.17c1.3,3.2,4.05,4.76,8.41,4.76,3.93,0,8.12-1.63,8.12-6.21s-3.74-5.71-7.78-6.21Z"></path>
  <rect x="253.73" y="1.47" width="1.83" height="19.27"></rect>
  <path d="M284.42,1.69c-1.84,0-2.87,1.32-2.87,2.91s1.04,2.91,2.87,2.91,2.87-1.33,2.87-2.91-1.03-2.91-2.87-2.91Zm0,5.45c-1.58,0-2.47-1.13-2.47-2.55s.89-2.56,2.47-2.56,2.48,1.13,2.48,2.56-.9,2.55-2.48,2.55Z"></path>
</svg>