<svg xmlns="http://www.w3.org/2000/svg" class="rds_icon rds_icon--logo block text-white w-48 max-sm:w-40" viewBox="0 0 494.5 74.5">
      <g fill="currentColor">
          <path d="M468.9,12.8c0-7.1,5.7-12.8,12.8-12.8s12.8,5.7,12.8,12.8-5.7,12.8-12.8,12.8c0,0,0,0,0,0-7,0-12.8-5.7-12.8-12.7,0,0,0,0,0,0ZM470.9,12.8c-.2,5.9,4.5,10.9,10.4,11.1,5.9.2,10.9-4.5,11.1-10.4,0-.2,0-.4,0-.7-.2-5.9-5.1-10.6-11.1-10.4-5.7.2-10.3,4.7-10.4,10.4ZM481.4,14.3h-2.4v5.8h-2.2V5.5h6c2.7,0,4.9,1.8,4.9,4.5,0,2.2-1.6,4.1-3.7,4.3l3.9,5.8h-2.6l-3.8-5.8ZM479,7.3v5.2h3.8c1.4,0,2.6-1,2.6-2.3,0,0,0-.1,0-.2,0-1.4-1-2.6-2.4-2.7,0,0-.2,0-.2,0h-3.8Z"></path>
          <path d="M59.9,26.2h11.6l-14.6,47.5h-12.9l-8.2-31.9-8.2,31.9h-12.9L.2,26.2h12.2l8.8,36.1,8.8-36.1h12.7l8.6,36,8.7-36Z"></path>
          <path d="M95.9,74.4c-6.9,0-12.6-2.2-16.9-6.7-4.3-4.5-6.5-10.4-6.5-17.8s2.2-13.3,6.6-17.7c4.4-4.4,10-6.6,17-6.6,7,0,12.7,2.2,17.1,6.5,4.5,4.3,6.7,10.1,6.7,17.3,0,1.5-.1,3.1-.3,4.6h-34.7c.2,2.8,1.4,5.5,3.4,7.5,2.1,1.9,4.8,2.9,7.6,2.8,3.8.2,7.4-1.8,9.3-5.1h13c-1.3,4.5-4.2,8.4-8,11.1-4.2,2.9-9.2,4.4-14.3,4.3ZM103.8,38.6c-2.1-1.9-4.9-2.9-7.8-2.8-2.8,0-5.5.9-7.6,2.8-2.1,2-3.4,4.7-3.7,7.5h22.5c0-2.9-1.3-5.6-3.5-7.5Z"></path>
          <path d="M126.8,73.8V10.3h12.1v63.5h-12.1Z"></path>
          <path d="M149.2,73.8V10.3h12.1v63.5h-12.1Z"></path>
          <path d="M247.5,25.9c6.1-.2,11.9,2.2,16.1,6.7,4.3,4.4,6.4,10.3,6.4,17.5s-2.1,13.1-6.4,17.7c-4.1,4.5-9.9,7-16,6.9-3.7,0-7.4-.9-10.6-2.9-2.9-1.8-5.3-4.4-6.9-7.5v9.6h-7.8V10.3h7.8v25.8c3.4-6.4,10.1-10.4,17.4-10.2h0ZM246,67.9c4.3,0,8.4-1.8,11.2-4.9,3.1-3.3,4.7-7.6,4.7-13s-1.6-9.6-4.7-12.7c-2.9-3-7-4.7-11.2-4.6-4.3,0-8.3,1.7-11.2,4.8-3.1,3.2-4.7,7.4-4.7,12.7s1.6,9.6,4.7,12.8c2.9,3.1,7,4.9,11.2,4.8h0Z"></path>
          <path d="M296.9,74.5c-6.7,0-12.2-2.2-16.5-6.7-4.2-4.5-6.4-10.4-6.4-17.7s2.1-13.2,6.4-17.6c4.3-4.4,9.9-6.6,16.7-6.6,6.8,0,12.3,2.1,16.5,6.3,4.2,4.2,6.2,9.6,6.2,16.1,0,1.5-.1,3.1-.3,4.6h-37.5c.2,4.7,1.7,8.4,4.4,11.1,2.8,2.7,6.5,4.2,10.4,4.1,2.8.1,5.7-.6,8.1-2.1,2.1-1.4,3.8-3.3,4.8-5.7h8.4c-1.5,4.1-4.2,7.7-7.7,10.2-3.6,2.7-8.2,4-13.7,4ZM307.5,36.4c-5.9-5.4-14.9-5.4-20.8,0-2.7,2.7-4.3,6.3-4.5,10.9h29.6c0-4.5-1.5-8.1-4.3-10.8Z"></path>
          <path d="M346.4,26.7v6.3h-9.9v40.8h-7.9v-40.8h-6.1v-6.3h6.1v-4c0-5.1,1.4-8.9,4.1-11.2,2.7-2.3,7.1-3.5,13-3.5v6.4c-3.4,0-5.8.6-7.2,1.9-1.3,1.3-2,3.4-2,6.5v4h9.9Z"></path>
          <path d="M356.1,67.8c-4.3-4.5-6.5-10.3-6.5-17.6,0-7.3,2.3-13.1,6.8-17.6,9.6-9,24.4-9,34,0,4.5,4.5,6.8,10.4,6.8,17.6,0,7.2-2.4,13.1-7.1,17.6-4.6,4.5-10.9,6.9-17.3,6.7-6.8,0-12.4-2.2-16.7-6.7ZM372.8,68.1c4.3,0,8.4-1.7,11.5-4.8,3.2-3.2,4.9-7.6,4.9-13.2s-1.5-10-4.6-13.2c-2.9-3.1-7-4.8-11.3-4.7-4.2,0-8.3,1.6-11.1,4.7-3,3.2-4.5,7.5-4.5,13.2s1.4,10,4.3,13.2c2.8,3.1,6.7,4.9,10.9,4.8Z"></path>
          <path d="M412.2,26.7v8c2.8-5.8,7.6-8.8,14.3-8.8v8.1h-2.1c-4,0-7,1-9.1,3.1-2.1,2.1-3.1,5.7-3.1,10.9v25.8h-7.8V26.7h7.8Z"></path>
          <path d="M453.1,74.5c-6.7,0-12.2-2.2-16.5-6.7-4.2-4.5-6.4-10.4-6.3-17.7,0-7.3,2.1-13.2,6.4-17.6s9.9-6.6,16.7-6.6c6.8,0,12.3,2.1,16.5,6.3,4.2,4.2,6.2,9.6,6.2,16.1,0,1.6-.1,3.1-.4,4.6h-37.5c.2,4.7,1.7,8.4,4.4,11.1,2.8,2.7,6.5,4.2,10.4,4.1,2.9,0,5.7-.7,8.1-2.2,2.1-1.4,3.8-3.3,4.9-5.7h8.4c-1.5,4.1-4.2,7.7-7.7,10.2-3.6,2.7-8.2,4-13.7,4ZM463.7,36.4c-2.8-2.7-6.5-4.2-10.4-4.1-3.8-.1-7.6,1.3-10.3,4-2.7,2.7-4.3,6.3-4.5,10.9h29.6c0-4.5-1.5-8.1-4.3-10.9Z"></path>
      </g>
      <path fill="#ee2426" d="M202.2,53.6h-6.8v6.9h-7.3v-6.9h-6.8v-7.2h6.8v-6.9h7.3v6.9h6.8v7.2Z"></path>
      <path fill="#ee2426" d="M191.7,70c-12.8-10.2-24-20.7-21.6-31,.9-5,5.2-8.8,10.4-9h1c4.4-.1,8.4,2.4,10.2,6.4,1.9-3.7,5.2-6.4,9.8-6.4s.9,0,1.3,0c5.3.6,9.2,3.6,10.4,8.5,2.5,9.9-8.1,21.4-21.6,31.5Z"></path>
      <polygon fill="#fff" points="202.2 53.6 195.4 53.6 195.4 60.5 188.1 60.5 188.1 53.6 181.3 53.6 181.3 46.4 188.1 46.4 188.1 39.5 195.4 39.5 195.4 46.4 202.2 46.4 202.2 53.6"></polygon>
    </svg>