<svg class="header__logo" width="99" height="48" viewBox="0 0 99 48" fill="none" xmlns="http://www.w3.org/2000/svg">
        <path d="M14.4407 10.6503C15.9291 11.1253 18.3992 12.7404 18.3992 16.1289C18.3992 19.7391 15.5491 22.4942 11.3372 22.4942H2.62846V0.326488H10.9889C14.8841 0.326488 17.5125 2.89161 17.5125 6.12177C17.5125 8.7819 15.8024 10.1436 14.4407 10.6503ZM10.8305 2.92328H5.54194V9.5736H10.8305C13.1423 9.5736 14.599 8.1802 14.599 6.21678C14.599 4.31668 13.1423 2.92328 10.8305 2.92328ZM5.54194 19.8974H11.1789C13.7123 19.8974 15.4858 18.219 15.4858 15.9706C15.4858 13.7538 13.7123 12.0754 11.1789 12.0754H5.54194V19.8974ZM34.2989 14.1338C34.2989 14.7989 34.2672 15.3372 34.1722 15.7172H22.075C22.4867 18.599 24.3867 20.3408 27.0152 20.3408C28.9153 20.3408 30.1504 19.4858 30.9421 18.219H33.7605C32.8105 20.6258 30.277 22.8426 26.9835 22.8426C22.6767 22.8426 19.2882 19.3591 19.2882 14.5138C19.2882 9.79528 22.7717 6.21678 26.9519 6.21678C31.1321 6.21678 34.2989 9.66861 34.2989 14.1338ZM26.9519 8.71856C24.5451 8.71856 22.455 10.587 22.0433 13.4688H31.6388C31.3221 10.682 29.4537 8.71856 26.9519 8.71856ZM41.4586 22.8426C38.7985 22.8426 36.7717 20.9108 36.7717 17.5223V9.06691H34.0483V6.66013H35.2517C36.4867 6.66013 37.1834 5.9951 37.1834 4.76004V2.38492H39.4952V6.56513H43.1054V9.06691H39.4952V17.4273C39.4952 19.3907 40.5086 20.2775 41.997 20.2775C42.4087 20.2775 42.757 20.2141 43.1054 20.0558V22.5576C42.7253 22.6842 42.2187 22.8426 41.4586 22.8426ZM50.4828 22.8426C47.8227 22.8426 45.7959 20.9108 45.7959 17.5223V9.06691H43.0725V6.66013H44.2758C45.5109 6.66013 46.2076 5.9951 46.2076 4.76004V2.38492H48.5194V6.56513H52.1296V9.06691H48.5194V17.4273C48.5194 19.3907 49.5328 20.2775 51.0212 20.2775C51.4329 20.2775 51.7812 20.2141 52.1296 20.0558V22.5576C51.7495 22.6842 51.2429 22.8426 50.4828 22.8426ZM67.4948 14.1338C67.4948 14.7989 67.4632 15.3372 67.3682 15.7172H55.2709C55.6826 18.599 57.5827 20.3408 60.2112 20.3408C62.1112 20.3408 63.3463 19.4858 64.138 18.219H66.9565C66.0064 20.6258 63.473 22.8426 60.1795 22.8426C55.8726 22.8426 52.4841 19.3591 52.4841 14.5138C52.4841 9.79528 55.9676 6.21678 60.1478 6.21678C64.328 6.21678 67.4948 9.66861 67.4948 14.1338ZM60.1478 8.71856C57.741 8.71856 55.6509 10.587 55.2392 13.4688H64.8347C64.518 10.682 62.6496 8.71856 60.1478 8.71856ZM71.9553 22.4942H69.2319V6.56513H71.2586L71.8603 8.56022H72.0187C72.5887 7.70518 74.1405 6.21678 76.1356 6.21678C76.6106 6.21678 77.0223 6.24844 77.3706 6.34345V9.09858C76.9589 8.97191 76.5789 8.94024 76.1356 8.94024C73.6971 8.94024 71.9553 10.6503 71.9553 13.5321V22.4942ZM16.2775 34.7953V25.3265H19.1909V47.4942H16.2775V37.5504H5.54194V47.4942H2.62846V25.3265H5.54194V34.7953H16.2775ZM36.4637 39.1338C36.4637 39.7989 36.432 40.3372 36.337 40.7172H24.2398C24.6515 43.599 26.5516 45.3408 29.18 45.3408C31.0801 45.3408 32.3152 44.4858 33.1069 43.219H35.9253C34.9753 45.6258 32.4418 47.8426 29.1484 47.8426C24.8415 47.8426 21.453 44.3591 21.453 39.5138C21.453 34.7953 24.9365 31.2168 29.1167 31.2168C33.2969 31.2168 36.4637 34.6686 36.4637 39.1338ZM29.1167 33.7186C26.7099 33.7186 24.6198 35.587 24.2081 38.4688H33.8036C33.4869 35.682 31.6185 33.7186 29.1167 33.7186ZM43.6234 31.2168C47.2653 31.2168 49.7671 33.7502 49.7671 37.3921V47.4942H47.7086L47.1386 45.4991H46.9803C46.3469 46.4175 44.7952 47.8426 42.1984 47.8426C38.9682 47.8426 36.8781 45.6891 36.8781 43.0607C36.8781 40.0205 39.7916 37.9938 44.0351 37.9938H47.0119V37.2654C47.0119 35.0803 45.6502 33.7186 43.6234 33.7186C41.5967 33.7186 40.5833 34.922 40.3299 36.3154H37.5748C37.8598 33.6552 40.1083 31.2168 43.6234 31.2168ZM42.6417 45.4358C45.3335 45.4358 47.0119 43.6307 47.0119 41.3823V40.1789H44.2251C41.2167 40.1789 39.6016 41.2239 39.6016 42.934C39.6016 44.3907 40.6466 45.4358 42.6417 45.4358ZM55.2096 47.4942H52.4861V25.3265H55.2096V47.4942ZM63.8676 47.8426C61.2075 47.8426 59.1807 45.9108 59.1807 42.5223V34.0669H56.4572V31.6601H57.6606C58.8957 31.6601 59.5924 30.9951 59.5924 29.76V27.3849H61.9042V31.5651H65.5143V34.0669H61.9042V42.4273C61.9042 44.3907 62.9175 45.2775 64.4059 45.2775C64.8176 45.2775 65.166 45.2141 65.5143 45.0558V47.5576C65.1343 47.6842 64.6276 47.8426 63.8676 47.8426ZM70.0417 47.4942H67.3182V25.3265H70.0417V33.5602H70.2C70.8017 32.6418 72.4484 31.2168 74.7919 31.2168C78.3387 31.2168 81.0622 33.9719 81.0622 38.2154V47.4942H78.3071V38.3105C78.3071 35.5237 76.597 33.7819 74.2535 33.7819C71.7834 33.7819 70.0417 35.5237 70.0417 38.3105V47.4942Z" fill="#1C4499"></path>
        <path d="M86.6328 14.9593C86.9349 21.0936 92.0037 25.9746 98.2129 25.9749L98.2139 25.974V25.9749H98.2129C91.8093 25.9753 86.6182 31.167 86.6182 37.5706C86.6182 37.7648 86.6234 37.9579 86.6328 38.1497H86.6045C86.6139 37.9579 86.6182 37.7648 86.6182 37.5706C86.6182 31.2671 81.5885 26.138 75.3232 25.9789L75.0234 25.9749C81.2327 25.9747 86.3024 21.0937 86.6045 14.9593H86.6328Z" fill="#1C4499"></path>
      </svg>