<svg class="logo logo--mookie" xmlns="http://www.w3.org/2000/svg" fill="none" viewBox="0 0 74 27"><path fill="currentColor" d="M23.2175 13.8261C23.3045 12.1739 24.8697 10.8695 26.6958 10.9565 28.5219 11.0435 30.0001 12.4348 29.9132 14.0869 29.8262 15.7391 28.261 17.0435 26.4349 16.9565 24.6088 16.8695 23.1306 15.4782 23.2175 13.8261zM38.4345 12.9564C38.4345 11.3043 39.9997 9.99989 41.7389 10.0869 43.478 10.1738 44.8693 11.5651 44.8693 13.2173 44.8693 14.8695 43.3041 16.1738 41.565 16.0869 39.7389 15.9999 38.3476 14.6086 38.4345 12.9564zM64.9565 10.6086C64.9565 10.6086 64.4348 11.826 64.9565 12.5217L67.3913 9.913C67.3913 9.913 66 8.86952 64.9565 10.6086z"></path><path fill="currentColor" fill-rule="evenodd" d="M73.2174 11.2174L71.4783 12.7826 74 16.1739 73.9984 16.1761C73.7381 16.5231 73.4775 16.8704 73.1304 17.2174 70.6957 19.7391 68.087 20.9565 65.3044 20.087 57.3913 22.087 48 22.2609 48 22.2609L47.7391 20.6957C45.913 22.087 43.4783 22.9565 40.7826 22.9565H40C37.913 22.7826 36 22.1739 34.4348 21.1304 32.5217 22.9565 29.7391 24.1739 26.7826 24.1739H26.087C25.6522 24.1739 25.1304 24.087 24.6087 24 24.6087 24 15.5652 27.4783 0 25.3043L3.65217 4 7.91304 3.21739 10.3478 7.56522 12.6957 2.34783 17.3913 1.3913 19.1304 6.78261C21.1304 4.95652 23.8261 3.73913 26.7826 3.73913H27.4783C29.6522 3.82609 31.6522 4.52174 33.3043 5.73913 35.2174 4.08696 37.7391 3.04348 40.6087 3.04348H41.3043C41.4347 3.04348 41.5434 3.06522 41.6521 3.08696 41.7608 3.10869 41.8696 3.13043 42 3.13043 42.9565 3.30435 43.8261 3.47826 44.6957 3.82609L44.087.347826 52.7826 0 53.3043 3.13043V3.21739L54.8696 3.73913C55.0435 2.17391 55.8261.869565 57.1304.347826 57.4783.173913 57.7391.0869565 58.087.0869565 59.913-.0869565 61.913 1.30435 62.8696 3.56522 63.0435 3.91304 63.1304 4.17391 63.2174 4.52174 63.4783 4.43478 63.8261 4.34783 64.1739 4.34783 69.7391 3.56522 73.2174 11.2174 73.2174 11.2174zM14.3478 14.1739L16.4348 21.2174 19.8261 20.3478 14.4348 5.91304 10.8696 15.2174 5.73913 6.86957 3.47826 21.6522 6.95652 21.913 7.47826 14.7826 11.3913 21.6522 14.3478 14.1739zM26.3478 20.4348C30.4348 20.6957 33.913 18 34.1739 14.3478 34.4348 10.6957 31.2174 7.56522 27.1304 7.30435 23.0435 7.04348 19.5652 9.73913 19.3043 13.3913 19.1304 17.0435 22.2609 20.1739 26.3478 20.4348zM60.8696 4.69565C60.6087 3.73913 59.8261 3.13043 59.1304 3.30435 58.4348 3.47826 58 4.43478 58.2609 5.3913 58.5217 6.34783 59.3044 6.95652 60 6.78261 60.6957 6.52174 61.1304 5.65217 60.8696 4.69565zM41.4783 19.4783C45.4783 19.7391 48.8696 17.0435 49.0435 13.3913 49.2174 9.82609 46.1739 6.69565 42.2609 6.43478 38.2609 6.17391 34.8696 8.86957 34.6957 12.5217 34.5217 16.087 37.5652 19.2174 41.4783 19.4783zM52.6087 13.1304L56.8696 17.913 59.8261 16.8696 55.5652 12 58.1739 7.56522 55.1304 6.78261 52.3478 11.6522 51.0435 3.21739 48.087 3.47826 50.3478 18.2609 53.3043 17.7391 52.6087 13.1304zM58.9565 7.65217L60.6957 17.2174 62.7826 16.7826 61.1304 7.30435 58.9565 7.65217zM62.6957 11.2174C62.4348 15.3913 65.7391 16.7826 65.7391 16.7826 68.087 18.3478 70.8696 15.3043 70.8696 15.3043L69.3043 13.3043C67.1304 15.8261 65.913 14.1739 65.913 14.1739L70.1739 9.82609C67.4783 6 64.5217 7.73913 64.5217 7.73913 62.8696 8.6087 62.6957 11.2174 62.6957 11.2174zM72.0867 5.739C72.1737 5.739 72.2607 5.739 72.2607 5.82596 72.2607 5.91292 72.3476 5.99987 72.4346 6.08683L72.6085 6.3477H72.2607L72.0867 5.99987 71.9128 5.82596C71.9128 5.739 71.8259 5.739 71.8259 5.739H71.565V6.3477H71.3041V4.86944H72.1737C72.2069 4.90264 72.2401 4.92317 72.2684 4.94069 72.3144 4.96907 72.3476 4.9896 72.3476 5.04335 72.4346 5.13031 72.4346 5.21726 72.4346 5.30422 72.4346 5.39118 72.4346 5.47813 72.3476 5.56509 72.3476 5.65205 72.1737 5.739 72.0867 5.739zM71.478 5.56509H71.7389C71.9128 5.56509 71.9998 5.56509 71.9128 5.47813L71.9998 5.39118V5.21726C71.9998 5.1738 71.9998 5.15206 71.9889 5.14119 71.978 5.13031 71.9563 5.13031 71.9128 5.13031H71.478V5.56509z" clip-rule="evenodd"></path><path fill="currentColor" fill-rule="evenodd" d="M70.4346 5.65205C70.4346 4.86944 71.0433 4.26074 71.8259 4.26074C72.6085 4.26074 73.2172 4.86944 73.2172 5.65205C73.2172 6.43466 72.6085 7.04335 71.8259 7.04335C71.0433 7.04335 70.4346 6.43466 70.4346 5.65205ZM70.6954 5.739C70.6954 6.3477 71.2172 6.86944 71.8259 6.86944C72.5215 6.86944 73.0433 6.3477 72.9563 5.739C72.9563 5.13031 72.4346 4.60857 71.8259 4.60857C71.2172 4.60857 70.6954 5.13031 70.6954 5.739Z" clip-rule="evenodd"></path></svg>