<svg xmlns="http://www.w3.org/2000/svg" class="Header-logo" width="114" height="48" viewBox="0 0 114 48">
  <defs>
    <path id="prefix__a" d="M0.102 0.135L11.01 0.135 11.01 14.573 0.102 14.573z"></path>
    <path id="prefix__c" d="M0.141 0.138L9.376 0.138 9.376 14.553 0.141 14.553z"></path>
    <path id="prefix__e" d="M0 47.143L113.165 47.143 113.165 0 0 0z"></path>
  </defs>
  <g fill="none" fill-rule="evenodd">
    <g transform="translate(14.557 32.571)">
      <mask id="prefix__b" fill="#fff">
        <use xlink:href="#prefix__a"></use>
      </mask>
      <path fill="#504840" d="M6.258 3.834c0 .79-.228 1.397-.675 1.805-.45.41-1.057.616-1.803.616H1.459V1.511h2.108c.375 0 .737.052 1.076.154.328.099.614.246.854.435.232.183.42.423.554.708.139.29.207.637.207 1.026zm3.378 8.99c-.103.188-.295.31-.524.337-.3.03-.604-.101-.807-.338-.242-.279-.258-.816-.282-1.498-.026-.82-.058-1.753-.502-2.735-.275-.606-.8-1.112-1.56-1.507.184-.103.355-.22.513-.35.375-.313.668-.715.873-1.196.201-.473.304-1.038.304-1.681 0-.598-.11-1.134-.33-1.597-.217-.466-.512-.86-.872-1.17C6.086.771 5.645.53 5.146.37 4.654.215 4.129.135 3.586.135H.102V14.55h1.357V7.633h.986l.165.012c.781.045 3.128.424 3.628 1.528.33.73.354 1.482.378 2.211.03.876.055 1.706.624 2.363.458.525 1.106.826 1.78.826.076 0 .157-.003.239-.011.695-.075 1.282-.458 1.61-1.055l.14-.256c-.31-.357-.737-.6-1.204-.683l-.17.256z" mask="url(#prefix__b)"></path>
    </g>
    <path fill="#504840" d="M28.158 47.124L35.378 47.124 35.378 45.745 29.533 45.745 29.533 39.975 35.378 39.975 35.378 38.54 29.533 38.54 29.533 34.086 35.378 34.086 35.378 32.709 28.158 32.709zM39.74 47.124L46.959 47.124 46.959 45.745 41.115 45.745 41.115 39.975 46.959 39.975 46.959 38.54 41.115 38.54 41.115 34.086 46.959 34.086 46.959 32.709 39.74 32.709z"></path>
    <g transform="translate(103.79 32.571)">
      <mask id="prefix__d" fill="#fff">
        <use xlink:href="#prefix__c"></use>
      </mask>
      <path fill="#504840" d="M1.499 5.968V1.515h2.36c.683 0 1.27.21 1.744.628.449.38.675.917.675 1.6 0 .661-.22 1.202-.645 1.608-.433.41-.991.617-1.658.617H1.5zm6.519 4.283c0 .862-.316 1.57-.942 2.105-.627.543-1.402.818-2.307.818h-3.27V7.346h3.27c.915 0 1.685.265 2.288.784.639.534.961 1.247.961 2.12zm.415-2.707V7.54c-.5-.576-1.131-.992-1.881-1.246.731-.618 1.1-1.475 1.1-2.552 0-1.14-.37-2.05-1.105-2.7C5.864.443 4.939.138 3.8.138H.141v14.415h4.61c1.28 0 2.38-.404 3.267-1.197.902-.792 1.358-1.835 1.358-3.105 0-1.063-.318-1.973-.943-2.707z" mask="url(#prefix__d)"></path>
    </g>
    <path fill="#504840" d="M0 34.086L5.172 34.086 5.172 47.141 6.545 47.141 6.545 34.086 11.717 34.086 11.717 32.709 0 32.709zM77.234 34.076L82.404 34.076 82.404 47.133 83.779 47.133 83.779 34.076 88.951 34.076 88.951 32.701 77.234 32.701zM98.927 43.263c0 .769-.295 1.389-.873 1.845-.554.433-1.25.655-2.07.655-.831 0-1.524-.216-2.06-.635-.57-.444-.857-1.07-.857-1.865v-10.66h-1.35v10.66c0 1.206.433 2.18 1.285 2.897.798.647 1.802.973 2.983.973 1.224 0 2.228-.322 2.99-.954.877-.727 1.322-1.707 1.322-2.916v-10.66h-1.37v10.66zM53.504 33.95L56.848 33.95 56.848 42.392 58.222 42.392 58.222 33.95 61.568 33.95 61.568 32.575 53.504 32.575zM70.238 37.493c0 .956-.343 1.78-1.019 2.457-.662.662-1.48 1-2.433 1-.94 0-1.758-.345-2.434-1.02-.675-.677-1.017-1.498-1.017-2.437 0-.928.35-1.748 1.04-2.437.675-.69 1.486-1.039 2.41-1.039.967 0 1.793.344 2.457 1.019.66.664.996 1.489.996 2.457m-3.452-4.767c-1.33 0-2.463.47-3.361 1.402-.919.917-1.381 2.05-1.381 3.365 0 1.328.462 2.469 1.38 3.386.902.904 2.033 1.36 3.362 1.36 1.328 0 2.466-.464 3.383-1.38.902-.904 1.361-2.038 1.361-3.366 0-1.33-.467-2.47-1.382-3.386-.919-.917-2.05-1.38-3.362-1.38"></path>
    <mask id="prefix__f" fill="#fff">
        <use xlink:href="#prefix__e"></use>
    </mask>
    <path fill="#C3CE79" d="M55.183 47.094L71.827 47.094 71.827 45.74 55.183 45.74zM58.902 15.388c.161-.05.323-.11.483-.17.556-.197 2.148-.588 5.105.003.385.078.744.139 1.086.188 1.131-1.52 1.798-3.4 1.798-5.44 0-5.04-4.079-9.124-9.114-9.124-3.209 0-5.955 1.554-7.58 4.063 2.63 2.292 3.411 4.161 3.663 4.856.08.219.158.437.247.653.905 2.205.64 5.39-.461 7.684.33.169.67.317 1.022.446.873-1.431 2.311-2.709 3.751-3.16" mask="url(#prefix__f)"></path>
    <path fill="#504840" d="M53.744 10.417c-.089-.216-.166-.434-.248-.653-.252-.695-1.105-2.456-3.734-4.747-.217-.19-.444-.382-.686-.579C46.173 2.087 44.937.228 44.78 0l-.04.097c-.289.631-.582 2.743-.626 3.435-.178 2.677-.551 5.943 1.192 9.426 1.418 2.826 4.833 4.664 5.465 7.482-.028-.546-.08-1.558-.18-3.452-.02-.384-.073-.768-.149-1.148-.347-1.704-1.213-3.352-2.089-4.907-1.006-1.78-2.028-3.436-2.304-4.91.208.532 1.248 1.98 2.269 3.411.771 1.084 1.536 2.155 1.924 2.815 1.182 1.908 1.585 3.584 1.617 4.95.039 1.624-.443 2.808-.77 3.418.907-.475 1.652-1.39 2.195-2.516 1.103-2.294 1.365-5.479.46-7.684M65.756 16.257c-.339-.05-.698-.111-1.085-.189-2.956-.59-4.55-.2-5.104-.002-.162.058-.322.117-.486.168-1.438.452-2.875 1.728-3.75 3.16-.647 1.058-.988 2.2-.781 3.158.25-.62.94-1.861 2.61-2.703.677-.34 1.503-.617 2.53-.761.683-.111 1.975-.194 3.15-.281 1.06-.08 2.024-.162 2.359-.272-1.123.626-2.864.794-4.601 1.145-.154.038-.307.07-.463.1-1.192.266-2.355.644-3.292 1.343l-2.044 1.526c1.897-.97 4.548.104 6.82-.423 2.795-.652 4.47-2.403 5.905-3.766.371-.351 1.43-1.514 1.65-1.973l.038-.07c-.175.015-1.405.142-3.456-.16" mask="url(#prefix__f)"></path>
  </g>
</svg>