<svg xmlns="http://www.w3.org/2000/svg" class="icon icon-logo" id="icon-logo" viewBox="0 0 262 24">
  <path fill-rule="evenodd" clip-rule="evenodd" d="M46.78 22.878h-3.888V12.626H31.946v10.252h-3.888V.515h3.888v10.323h10.946V.515h3.888v22.363zM87.525 4.232l-8.763 18.646H76L67.203 4.232h-.068l-.102 18.646h-2.116L65.156.515h4.638l8.66 18.302h.07L87.046.515h4.23l.238 22.363h-3.75l-.24-18.646zM99.93.515l6.821 10.872L113.537.515h2.455l-8.149 12.973v9.39h-3.922v-8.98L95.6.516h4.33zm87.115 22.363h-15.378V.515h14.594v1.754h-10.707v8.498h9.684v1.654h-9.684v8.703h11.491v1.754zm52.828-18.646l-8.762 18.646h-2.762l-8.797-18.646h-.069l-.101 18.646h-2.116l.238-22.363h4.639l8.661 18.302h.068L239.397.515h4.23l.239 22.363h-3.751l-.241-18.646zM11.389 0C4.126 0 0 4.68 0 11.73c0 7.087 4.126 11.7 11.389 11.7 7.296 0 11.49-4.613 11.49-11.7C22.88 4.68 18.685 0 11.39 0zm0 21.848c-4.774 0-7.06-3.303-7.06-10.118 0-6.777 2.353-10.147 7.06-10.147 4.74 0 7.126 3.37 7.126 10.147 0 6.815-2.318 10.118-7.126 10.118zm134.11-2.616l-.886-1.34s-2.626 3.852-7.775 3.852c-4.672 0-7.603-2.889-7.603-10.014 0-7.087 2.864-10.043 7.468-10.043 3.58 0 6.989 2.545 6.989 2.545l.545-1.548S140.862 0 136.429 0c-7.024 0-11.526 4.781-11.526 11.902 0 6.987 4.263 11.529 11.526 11.529 6.717 0 9.07-4.2 9.07-4.2zm14.816-5.367c2.558-.996 4.672-3.098 4.672-6.501 0-4.404-3.41-6.849-8.866-6.849h-6.547v22.363h3.649v-8.326h3.342l5.626 8.326h4.501l-6.377-9.013zm-4.331-.996h-2.761V2.202h2.454c3.411 0 5.081 1.41 5.081 5.334 0 4.194-1.67 5.333-4.774 5.333zM203.836.515h-4.126l-8.935 22.363h2.149l2.626-6.744h10.059l2.556 6.744h4.126L203.836.515zm-7.639 14.037l4.535-11.663 4.296 11.663h-8.831zM258.22.189l.686 18.647h2.407L262 .189h-3.78zm1.89 23.048a1.364 1.364 0 100-2.727 1.364 1.364 0 000 2.727z" fill="#343434"></path>
</svg>