<svg class="location-logo-style" style="width: 1em;" version="1.1" xmlns="http://www.w3.org/2000/svg" x="0px" y="0px" viewBox="0 0 587.3 594.9" xmlns:xlink="http://www.w3.org/1999/xlink" xml:space="preserve">             <path style="fill: #000;" class="st0" d="M297,19.7c-87.4,0-158.9,63.9-165,144.8c-0.2,8.8-0.1,17.5,0.3,26.2c9,200.8,164.7,384.4,164.7,384.4v0.2               c0,0,155.8-183.8,164.7-384.7c0.5-4.9,0.7-9.8,0.7-14.8C462.5,89.5,388.4,19.7,297,19.7z M297.2,280.9               c-60,0-108.6-46.7-108.6-104.3S237.2,72.3,297.2,72.3c60,0,108.6,46.7,108.6,104.3S357.2,280.9,297.2,280.9z"></path>         </svg>