<svg class="g2-header-logo" width="150px" height="37px" data-name="Layer 1" xmlns="http://www.w3.org/2000/svg" viewBox="0 0 667.19 163.22" role="presentation"><title>Geologie</title><path d="M679,364.33a43.76,43.76,0,1,0,44.06,43.82A43.84,43.84,0,0,0,679,364.33m0,84.4c-10.61,0-19.31-18.36-19.31-40.59,0-22.46,8.7-40.57,19.31-40.57s19.37,18.11,19.37,40.57c0,22.23-8.64,40.59-19.37,40.59" transform="translate(-287.6 -320.37)"></path><path d="M543.59,364.33a43.76,43.76,0,1,0,44.07,43.82,43.83,43.83,0,0,0-44.07-43.82m0,84.4c-10.61,0-19.31-18.36-19.31-40.59,0-22.46,8.7-40.57,19.31-40.57S563,385.68,563,408.14c0,22.23-8.64,40.59-19.37,40.59" transform="translate(-287.6 -320.37)"></path><path d="M462.25,431.88c-16.9,0-28.64-12.8-29.08-29.86-.47-18.37,7-34.21,17.58-34.21,6.52,0,11.55,9.25,12.87,16.63,1,5.43,0,6.67-4.8,7.74s-29.91,5.71-29.91,5.71l3.21,2.08s52.37-8.62,56.29-9.57c-4.08-15.38-18.92-26.07-36.53-26.07A43.82,43.82,0,0,0,408,411.1c1.49,23.07,21.14,40.95,44.26,40.74,21.6-.19,37.52-15.76,39.73-36.18l-1.74-.77c-2,6.87-11.7,17-28,17" transform="translate(-287.6 -320.37)"></path><path d="M925,431.88c-16.9,0-28.64-12.8-29.08-29.86-.47-18.37,7-34.21,17.58-34.21,6.52,0,11.55,9.25,12.87,16.63,1,5.43,0,6.67-4.8,7.74s-29.91,5.71-29.91,5.71l3.21,2.08s52.36-8.62,56.29-9.57c-4.08-15.38-18.92-26.07-36.54-26.07A43.82,43.82,0,0,0,870.8,411.1c1.49,23.07,21.14,40.95,44.26,40.74,21.6-.19,37.52-15.76,39.73-36.18l-1.74-.77c-2,6.87-11.7,17-28,17" transform="translate(-287.6 -320.37)"></path><path d="M761.79,427.75c-10.24,0-17.07.12-17.07-2.39,0-3.19,5.9-3.55,23.73-3.55,21.7,0,37.82-12.3,37.82-29.62,0-10.26-9.08-19.58-17.12-24.18a5.36,5.36,0,0,1,1.32-.26,44,44,0,0,1,14.64,8.92c6.7,6.51,9,13.47,10.77,18.11a10.5,10.5,0,0,0,1.78,0s-1.24-18.94-1.48-24a165.46,165.46,0,0,0-44-6.37c-25.81,0-41.44,13.15-41.44,27.82s10.45,24.86,26.33,27.45c-11.33.32-25.88,3.75-23.74,17.64,1.26,8.16,11.07,13.35,24.9,13.35H775c12.5,0,19.22,6.15,19.22,14.19,0,10.39-9.09,15.4-19.45,15.4-24.25,0-41.83-29.68-43.08-33.76,0,0-1.49.24-1.49.24l-2.72,27.56s16.33,9.33,41.72,9.33c23.64,0,43.85-10.48,43.85-29.32,0-18.21-17.33-26.52-33.88-26.52ZM754,393.11c0-18.54,7.3-25.54,14.49-25.54s14.53,7,14.53,25.54c0,18.35-7.26,24.95-14.53,24.95S754,411.46,754,393.11" transform="translate(-287.6 -320.37)"></path><path d="M350.41,336.08c26.15,0,45.69,39.32,48.47,45.43h1.85l-3.1-41.26s-25.9-7.78-46.95-7.78c-35.74,0-63.08,23.51-63.08,59.7,0,31.69,20.14,59.67,56.89,59.67,37.14,0,51.25-7.7,51.25-7.7V382.08L353.33,392v2.61l4.81-.62c8.55-1,11.61,4.3,12,13,.1,2.5.17,4.77.17,6.34V443.7a2.71,2.71,0,0,1-2.73,2.72c-9.15-.07-47.28-11.08-53.14-49.58-4.13-27.15,7.75-60.76,36-60.76" transform="translate(-287.6 -320.37)"></path><path d="M831.54,334.3a13.52,13.52,0,1,1,13.52,13.51,13.51,13.51,0,0,1-13.52-13.51" transform="translate(-287.6 -320.37)"></path><path d="M824.46,450.53h43v-2.11a19.37,19.37,0,0,1-2-.36c-4.85-1.13-6.77-5.29-6.77-11.24V360.54l-34,7.89v2.5a5.74,5.74,0,0,1,1.64-.29c7.89,0,6.88,15,6.88,27.22v39c0,5.95-1.92,10.11-6.77,11.24a19.37,19.37,0,0,1-2,.36v2.11" transform="translate(-287.6 -320.37)"></path><path d="M631.06,448.06c-4.85-1.13-6.73-5.29-6.73-11.24V320.37L588,328.8V331a28,28,0,0,1,2.87-.37c8.84-.17,8,9.63,8,22v84.16c0,5.95-2,10.11-6.8,11.24a19.37,19.37,0,0,1-2,.36v2.11h43.06v-2.11a19.37,19.37,0,0,1-2-.36" transform="translate(-287.6 -320.37)"></path></svg>