<svg class="header-logo" width="141" height="80" viewBox="0 0 141 80" fill="none" xmlns="http://www.w3.org/2000/svg">
        <path d="M58.3949 41.1147C57.0724 43.3426 52.4944 49.216 49.4426 49.7226C47.4079 50.0262 46.0853 49.0137 46.1871 46.887C46.4923 41.1147 54.1221 35.3427 58.6999 37.368L60.9382 33.3173C53.1047 29.7731 41.4057 37.6718 40.897 46.6845C40.5919 52.0514 45.2715 55.3933 50.1547 54.1782C53.3143 53.3735 56.2085 50.6669 58.3389 48.1572L61.2433 56.3047L66.0247 54.3805L61.2433 41.1147H58.3949Z" fill="currentColor"></path>
        <path d="M18.102 10.906C22.9056 9.51426 28.0918 8.50629 33.0628 8.50629C41.0995 8.50629 44.355 11.1391 44.355 15.6961C44.355 25.3422 29.3689 32.0893 15.7756 38.0647C15.9168 28.5976 16.7122 19.2653 18.102 10.906ZM49.7467 15.6961C49.7467 8.20242 43.7446 4.05064 33.0628 4.05064C28.3765 4.05064 23.5467 4.85284 19.0067 6.01399C19.3594 4.29216 19.736 2.61756 20.1429 1.01257L15.0562 2.30719e-06C14.4301 2.41523 13.8668 4.98231 13.3677 7.66947C7.6828 9.5462 2.86723 11.7375 0 13.1644L2.03463 17.2153C4.57347 15.9723 8.25417 14.2889 12.5244 12.7332C11.2492 21.3064 10.5763 30.8119 10.5509 40.3743C9.6962 40.7578 8.85601 41.1393 8.03686 41.5188L2.13631 44.253L4.37446 48.3039L10.0714 45.6708C10.2466 45.5901 10.4225 45.5094 10.5984 45.4291C10.8615 57.743 12.2128 69.8929 14.7511 80L19.8376 78.9875C17.2261 68.5434 15.9186 56.0862 15.7675 43.5681L47.2036 71.8986L50.6623 68.4558L20.2975 41.0903C35.3645 34.3604 49.7467 27.2462 49.7467 15.6961Z" fill="currentColor"></path>
        <path d="M85.1487 39.9998C83.6228 42.1264 79.757 47.3923 77.2136 47.7974C75.4841 48.101 73.8565 47.3923 73.8565 44.9618C73.8565 39.7973 80.3673 34.5316 84.7418 36.3542L86.9797 32.3037C79.3499 28.962 68.5664 36.4555 68.5664 44.9618C68.5664 50.329 73.1444 53.3669 77.9256 52.1518C80.6328 51.478 83.0616 49.1442 85.0895 46.6639L87.6919 54.2783L92.3716 52.4557L87.8955 39.9998H85.1487Z" fill="currentColor"></path>
        <path d="M140.998 48.2024L136.522 36.7594H133.775C132.656 38.7847 129.502 43.4429 126.756 44.0504C125.026 44.4556 123.907 42.9365 123.907 41.215C123.907 36.3542 129.706 31.6962 134.487 33.1138L135.911 28.8606C128.078 26.4303 118.617 33.7213 118.617 41.215C118.617 45.8734 122.178 48.5061 126.044 48.5061C129.055 48.5061 132.122 46.3421 134.131 43.6574L136.522 49.9238L140.998 48.2024Z" fill="currentColor"></path>
        <path d="M117.091 28.9617L113.123 25.8223L100.678 40.6697C100.095 30.8652 102.026 20.3395 105.9 9.51862L101.017 7.49312C93.6926 27.6451 92.8788 47.6957 101.831 63.4932L106.613 61.5692C103.32 55.6933 101.459 49.3108 100.825 42.5685L114.548 53.873L118.007 50.3288L106.662 41.0587L117.091 28.9617Z" fill="currentColor"></path>
      </svg>