<svg class="header-logo-image" xmlns="http://www.w3.org/2000/svg" xmlns:xlink="http://www.w3.org/1999/xlink" x="0px" y="0px" viewBox="0 0 183.9 16" style="enable-background:new 0 0 1305.9 98.9;" xml:space="preserve">
    <style type="text/css">
    .st0 {
        fill: #FFFFFF;
    }
    </style>
    <g>
        <g>
            <path class="cls-1" d="M0,1H8.1v1.8H2.1v5.2H7.6v1.8H2.1v4.2H.1L0,1H0Z"></path>
            <path class="cls-1" d="M14.8,9.4V1h2V9.3c0,2.1,1,3,2.9,3s2.9-.9,2.9-3V1h2V9.4c0,3.1-2.1,4.7-4.9,4.7-2.8,.1-4.9-1.5-4.9-4.7Z"></path>
            <path class="cls-1" d="M40.9,14h-2.3l-2.3-3.4c-.4,0-.7,.1-1.1,.1h-1.2v3.3h-2V1h3.3c3.6,0,5.6,1.9,5.6,4.9,0,2-.9,3.4-2.6,4.1l2.6,4Zm-5.8-5.1c2.6,0,3.6-1.1,3.6-3.1s-1.1-3.1-3.6-3.1h-1.2v6.1l1.2,.1h0Z"></path>
            <path class="cls-1" d="M50.4,2.8h-3.9V1h9.7v1.8h-3.8V14h-2V2.8h0Z"></path>
            <path class="cls-1" d="M62.5,9.4V1h2V9.3c0,2.1,1,3,2.9,3s2.9-.9,2.9-3V1h2V9.4c0,3.1-2.1,4.7-4.9,4.7-2.7,.1-4.9-1.5-4.9-4.7Z"></path>
            <path class="cls-1" d="M82.6,6.4c-.5-.5-1.2-1.4-1.2-1.4,0,0,.1,1.1,.1,1.9v7.2h-1.9V.9h.3l7.2,7.7c.5,.5,1.2,1.4,1.2,1.4,0,0-.1-1.2-.1-1.9V1h1.9V14.1h-.2l-7.3-7.7Z"></path>
            <path class="cls-1" d="M101.8,.9h.2l5.7,13.1h-2.1l-.7-1.8h-6l-.7,1.8h-2L101.8,.9Zm2.5,9.6l-1.6-4.1c-.3-.8-.7-1.9-.7-1.9,0,0-.3,1.2-.6,1.9l-1.6,4.1h4.5Z"></path>
            <path class="cls-1" d="M121.6,11.5l1.7-.9c.6,1,1.4,1.8,3,1.8,1.3,0,2.2-.7,2.2-1.8s-.8-1.6-2.2-2.2l-.8-.4c-1.9-.8-3-1.8-3-3.8s1.5-3.3,3.7-3.3c1.7,0,2.9,.7,3.7,2l-1.6,1c-.5-.9-1.1-1.3-2.1-1.3s-1.7,.6-1.7,1.5c0,1,.5,1.4,1.9,2l.8,.4c2.2,1,3.4,2,3.4,4.1,0,2.3-1.8,3.6-4.2,3.6-2.6,0-4.1-1.3-4.8-2.7Z"></path>
            <path class="cls-1" d="M140,6.5l4.2-5.5h2.3l-4.6,6.1,5.1,6.9h-2.4l-4-5.4-1.4,1.7v3.7h-2V1h2V6.3c0,.6-.1,1.4-.1,1.9,.2-.5,.6-1.3,.9-1.7Z"></path>
            <path class="cls-1" d="M153.3,1h2V14h-2V1Z"></path>
        </g>
        <path class="cls-1" d="M165.7,6.4c-.5-.5-1.2-1.4-1.2-1.4,0,0,.1,1.1,.1,1.9v7.2h-1.9V.9h.3l7.2,7.7c.5,.5,1.2,1.4,1.2,1.4,0,0-.1-1.2-.1-1.9V1h1.9V14.1h-.3l-7.2-7.7Z"></path>
    </g>
    <path class="cls-1" d="M177.9,2.9c0-1.7,1.4-2.9,3-2.9s3,1.2,3,2.9-1.4,2.9-3,2.9c-1.7,0-3-1.2-3-2.9Zm5.3,0c0-1.5-1-2.3-2.3-2.3s-2.3,.9-2.3,2.3,1,2.3,2.3,2.3,2.3-.9,2.3-2.3Zm-1,1.4h-.8l-.5-.7h-.5v.7h-.7V1.2h1.1c.9,0,1.3,.6,1.3,1.1,0,.4-.2,.8-.6,1l.7,1Zm-1.3-1.3c.3,0,.6-.2,.6-.6,0-.3-.2-.6-.6-.6h-.4v1.1h.4v.1Z"></path>
</svg>