<svg xmlns="http://www.w3.org/2000/svg" class="logo" viewBox="0 0 1775.56 780.77" width="140" height="61.999999999973426">
    <style type="text/css">
      .st0{ fill: rgb(var(--color-heading)) !important; }
    </style>
    <g>
      <circle class="st0" cx="945.04" cy="168.45" r="13.78"></circle>
      <path class="st0" d="M1002.43,182.23c7.6,0,13.78-6.18,13.78-13.78s-6.18-13.78-13.78-13.78s-13.78,6.18-13.78,13.78   S994.83,182.23,1002.43,182.23z"></path>
      <path class="st0" d="M948.59,208.89l-0.59,0.72c-4.76,5.88-2.69,14.14,4.44,17.66l15.62,7.02c4.26,1.46,9.25,1.48,13.22,0   l15.62-7.02c7.12-3.52,9.2-11.78,4.44-17.66l-0.59-0.72c-0.25-0.3-0.55-0.59-0.87-0.87c-2.3-3.15-12.63-5.52-25.05-5.52   c-11.28,0-20.85,1.96-24.22,4.68C949.79,207.7,949.09,208.27,948.59,208.89z"></path>
      <path class="st0" d="M1263.12,320.22c-2.07-6.25-6.46-11.29-12.37-14.19c-5.91-2.91-12.59-3.31-18.8-1.12   c-10.64,3.73-17.28,14.21-16.15,25.48c0.24,2.37,0.36,4.79,0.36,7.2c0,23.78-11.81,45.89-31.6,59.14   c-2.48,1.66-5.85,1.12-7.68-1.22l-127.1-162.48c0,0,0,0,0.01-0.01c8,7.79,18.92,12.22,30.48,12.22c2.84,0,5.73-0.27,8.61-0.82   c19.85-3.79,33.48-19.57,36.47-42.21c8.23-62.39-93.7-103.35-98.04-105.07c-1.98-0.78-4.09-0.56-5.81,0.4   c-12.46-8.97-27.47-13.82-43.52-13.82c-16.5,0-32.14,4.9-45.58,14.03c-1.78-1.14-4.06-1.45-6.17-0.61   c-4.31,1.71-105.54,42.69-97.31,105.06c2.99,22.69,16.52,38.47,36.2,42.23c2.82,0.54,5.64,0.8,8.42,0.8   c12.56,0,24.41-5.33,32.5-14.58c1.67,2.99,3.49,5.85,5.45,8.58v213.33c0,12.62,10.27,22.89,22.89,22.89h80.12   c2.29,0.24,4.61,0.37,6.95,0.37h20.54c0.79,0,1.55-0.13,2.25-0.37h105.72c31.24,0,60.91-12.21,83.54-34.39   c22.72-22.26,35.35-51.68,35.58-82.82C1269.17,345.23,1267.17,332.45,1263.12,320.22z M1111.92,200.43   c-2.22,16.82-11.54,28-25.59,30.68c-12.84,2.45-26.03-3.41-32.07-14.25c-0.31-0.56-0.69-1.05-1.12-1.48l0.1-0.04   c-4.12-10.57-4.97-29.53-5.78-47.88c-0.87-19.51-1.67-37.32-6.14-48.9c8.58,4.42,19.08,10.38,29.36,17.64   C1091.42,150.86,1115.41,173.89,1111.92,200.43z M1029.25,124.93c0.61,1.89,1.23,4.33,1.79,7.5c1.73,9.75,2.32,22.91,2.88,35.64   c0.61,13.68,1.24,27.68,3.28,39.19c-10.79,32.63-37.23,51.31-63.01,51.31c-23.28,0-47.81-13.34-60.09-41.87   c3.87-12.67,4.69-30.92,5.48-48.63c0.57-12.73,1.16-25.9,2.88-35.64c0.89-5.01,1.91-8.2,2.84-10.24c0.32-0.38,0.63-0.78,0.96-1.15   c13.55-15.33,31.91-23.78,51.68-23.78C997.39,97.26,1016.91,106.08,1029.25,124.93z M867.65,231.13   c-13.86-2.65-23.09-13.84-25.32-30.7c-4.91-37.2,42.29-67.43,69.84-81.75c-4.43,11.59-5.23,29.34-6.1,48.79   c-0.82,18.34-1.67,37.31-5.79,47.88l0.1,0.04c-0.43,0.43-0.81,0.92-1.12,1.48C893.25,227.67,880.25,233.54,867.65,231.13z    M1224.02,431.38c-20.08,19.68-46.38,30.52-74.06,30.52h-105.72c-0.71-0.24-1.47-0.37-2.25-0.37h-20.54   c-28.5,0-51.69-23.19-51.69-51.69c0-28.5,23.19-51.7,51.69-51.7h6.18c9.4,0,18.62,2.58,26.67,7.47c3.37,2.05,7.76,0.97,9.81-2.4   c2.05-3.37,0.97-7.76-2.4-9.81c-10.28-6.24-22.06-9.54-34.08-9.54h-6.18c-36.38,0-65.97,29.59-65.97,65.97   c0,21.14,10.01,39.98,25.53,52.06h-46.63c-5.15,0-9.35-4.19-9.35-9.35V253.92c13.85,11.78,30.97,18.19,49.18,18.19   c20.94,0,41.64-9.86,56.79-27.06c1.96-2.22,3.8-4.56,5.53-6.98l129.68,165.77c6.17,7.89,17.54,9.7,25.87,4.12   c23.55-15.77,37.61-42.08,37.61-70.39c0-2.85-0.14-5.73-0.43-8.55c-0.5-5.03,2.44-9.69,7.16-11.35c2.76-0.97,5.73-0.79,8.35,0.5   c2.62,1.29,4.57,3.53,5.49,6.3c3.58,10.82,5.35,22.14,5.27,33.65C1255.34,385.65,1244.15,411.66,1224.02,431.38z"></path>
    </g>
    <g>
      <path class="st0" d="M171.07,557.1v94.39c0,1.94-1.58,3.52-3.52,3.52h-43.68c-1.94,0-3.52-1.58-3.52-3.52V557.1   c0-1.94-1.58-3.52-3.52-3.52h-11.17c-1.94,0-3.52-1.58-3.52-3.52v-35.27c0-1.94,1.58-3.52,3.52-3.52h11.17   c1.94,0,3.52-1.58,3.52-3.52v-18.06c0-11.95,1.12-21.48,3.36-28.58c1.87-5.98,4.86-11.53,8.97-16.67   c4.11-5.13,8.92-9.57,14.43-13.31c5.51-3.73,11.44-6.63,17.79-8.69c6.35-2.05,12.61-3.08,18.77-3.08c4.29,0,8.27,0.47,11.91,1.4   c2.92,0.75,5.88,1.74,8.86,2.97c1.33,0.55,2.21,1.83,2.21,3.27v36.5c0,2.49-2.53,4.19-4.84,3.26c-1.58-0.64-3.09-1.17-4.55-1.59   c-2.9-0.84-5.93-1.26-9.11-1.26c-2.06,0-4.16,0.33-6.3,0.98c-2.15,0.66-4.16,2.01-6.02,4.06c-1.87,2.06-3.13,5-3.78,8.83   c-0.66,3.83-0.98,9.01-0.98,15.55v14.41c0,1.94,1.58,3.52,3.52,3.52h28.55c1.94,0,3.52,1.58,3.52,3.52v35.27   c0,1.94-1.58,3.52-3.52,3.52h-28.55C172.65,553.58,171.07,555.15,171.07,557.1z"></path>
      <path class="st0" d="M227.97,511.27h42.75c2.2,0,3.98,1.78,3.98,3.98v7.71c0,3.64,4.48,5.37,6.93,2.67   c3.87-4.27,8.2-7.8,12.97-10.58c7.85-4.58,17-6.87,27.46-6.87c1.3,0,2.75,0,4.34,0c0.13,0,0.27,0,0.41,0   c2.61,0.05,4.47,2.59,3.74,5.1l-10.59,36.44c-0.54,1.85-2.33,3.05-4.25,2.85c-1.87-0.2-4.14-0.4-5.7-0.4   c-11.77,0-20.6,3.5-26.48,10.51c-5.88,7.01-8.83,17.23-8.83,30.68v57.66c0,2.2-1.78,3.98-3.98,3.98h-42.75   c-2.2,0-3.98-1.78-3.98-3.98V515.25C223.99,513.05,225.77,511.27,227.97,511.27z"></path>
      <path class="st0" d="M384,591.68c-2.04,0-3.64,1.73-3.51,3.77c1.15,19.34,13.02,29.01,32.35,29.01c10.41,0,20.2-4,25.78-11.99   c0.65-0.93,1.72-1.46,2.85-1.46h38.83c2.45,0,4.15,2.44,3.31,4.74c-10.81,29.72-35.03,44.58-72.68,44.58   c-12.15,0-23.26-1.82-33.35-5.46c-10.09-3.64-18.73-8.83-25.92-15.55c-7.19-6.73-12.75-14.75-16.67-24.1   c-3.92-9.34-5.88-19.8-5.88-31.38c0-11.95,1.87-22.74,5.6-32.36c3.73-9.62,9.06-17.79,15.97-24.52   c6.91-6.72,15.27-11.91,25.08-15.55c9.81-3.64,20.88-5.46,33.21-5.46c12.14,0,23.07,1.82,32.78,5.46   c9.71,3.64,17.93,8.92,24.66,15.83c6.73,6.91,11.86,15.37,15.41,25.36c3.55,10,5.32,21.25,5.32,33.76v1.8   c0,1.94-1.58,3.52-3.52,3.52H384z M435.01,562.26c2.49,0,4.19-2.52,3.27-4.84c-1.93-4.9-4.88-8.98-8.86-12.26   c-5.23-4.29-11.58-6.44-19.05-6.44c-7.85,0-14.25,2.06-19.19,6.16c-3.91,3.25-6.69,7.54-8.32,12.89c-0.68,2.24,1.05,4.49,3.39,4.49   H435.01z"></path>
      <path class="st0" d="M605.85,545.19c-0.87,1.68-2.9,2.36-4.62,1.57c-8.29-3.86-16.43-5.79-24.43-5.79c-4.67,0-8.45,0.94-11.35,2.8   c-2.9,1.87-4.34,4.39-4.34,7.57c0,1.68,0.23,3.04,0.7,4.06c0.46,1.03,1.49,2.01,3.08,2.94c1.58,0.94,3.92,1.78,7.01,2.52   c3.08,0.75,7.15,1.68,12.19,2.8c14.01,2.8,24.47,7.8,31.38,14.99c6.91,7.19,10.37,16.39,10.37,27.6c0,8.41-1.68,15.97-5.04,22.7   c-3.36,6.73-8.03,12.38-14.01,16.95c-5.98,4.58-13.17,8.13-21.58,10.65c-8.41,2.52-17.65,3.78-27.74,3.78   c-18.4,0-36.55-4.94-54.45-14.83c-1.67-0.92-2.32-3.01-1.44-4.71l15.15-29.38c0.95-1.84,3.28-2.46,5.02-1.35   c13.01,8.29,25.38,12.44,37.12,12.44c4.67,0,8.5-1.02,11.49-3.08c2.99-2.05,4.48-4.67,4.48-7.85c0-1.87-0.24-3.41-0.7-4.62   c-0.47-1.21-1.45-2.33-2.94-3.36c-1.5-1.02-3.69-1.96-6.58-2.8c-2.9-0.84-6.68-1.72-11.35-2.66c-15.69-3.17-26.67-7.89-32.92-14.15   c-6.26-6.26-9.39-14.89-9.39-25.92c0-8.03,1.49-15.27,4.48-21.72c2.99-6.45,7.29-11.91,12.89-16.39   c5.6-4.48,12.37-7.94,20.31-10.37c7.94-2.43,16.76-3.64,26.48-3.64c14.57,0,28.75,2.6,42.54,7.79c1.98,0.74,2.87,3.05,1.9,4.92   L605.85,545.19z"></path>
      <path class="st0" d="M648.13,422.44h43.68c1.94,0,3.52,1.58,3.52,3.52v94.44c0,3.12,3.76,4.69,5.99,2.5   c4.96-4.86,9.97-8.31,15.03-10.38c7.1-2.89,15.41-4.34,24.94-4.34c18.12,0,31.8,5,41.05,14.99c9.25,10,13.87,23.49,13.87,40.49   v87.83c0,1.94-1.58,3.52-3.52,3.52h-43.68c-1.94,0-3.52-1.58-3.52-3.52v-69.05c0-7.29-0.56-13.17-1.68-17.65   c-1.12-4.48-2.99-7.94-5.6-10.37c-4.48-3.92-9.9-5.88-16.25-5.88c-8.59,0-15.18,2.57-19.75,7.71c-4.58,5.14-6.86,12.47-6.86,22   v73.26c0,1.94-1.58,3.52-3.52,3.52h-43.68c-1.94,0-3.52-1.58-3.52-3.52V425.96C644.61,424.02,646.19,422.44,648.13,422.44z"></path>
      <path class="st0" d="M959.12,726.75h-43.68c-1.94,0-3.52-1.58-3.52-3.52V514.79c0-1.94,1.58-3.52,3.52-3.52h43.68   c1.94,0,3.52,1.58,3.52,3.52v3.47c0,3.09,3.67,4.65,5.94,2.55c10.09-9.35,22.87-14.02,38.33-14.02c10.27,0,18.94,2.01,27.44,6.02   c8.5,4.02,15.89,9.48,22.15,16.39c6.26,6.91,11.14,15.04,14.64,24.38c3.49,9.34,5.24,19.33,5.24,29.98   c0,10.65-1.75,20.55-5.24,29.7c-3.49,9.16-8.32,17.19-14.5,24.1c-6.18,6.91-13.47,12.33-21.89,16.25   c-8.42,3.92-17.55,5.88-27.39,5.88c-14.53,0-28.09-4.41-38.97-13.22c-2.31-1.87-5.75-0.26-5.75,2.71v74.24   C962.64,725.17,961.07,726.75,959.12,726.75z M1031.01,583.56c0-4.48-0.8-8.73-2.38-12.75c-1.59-4.01-3.88-7.52-6.87-10.51   c-2.99-2.99-6.49-5.37-10.51-7.14c-4.02-1.77-8.36-2.66-13.03-2.66c-4.48,0-8.69,0.84-12.61,2.52c-3.92,1.68-7.33,4.02-10.23,7.01   c-2.9,2.99-5.23,6.49-7.01,10.51c-1.78,4.02-2.66,8.27-2.66,12.75s0.84,8.69,2.52,12.61s4.02,7.33,7.01,10.23   c2.99,2.9,6.49,5.23,10.51,7c4.01,1.78,8.27,2.66,12.75,2.66s8.69-0.84,12.61-2.52s7.33-4.01,10.23-7   c2.89-2.99,5.23-6.45,7.01-10.37C1030.12,591.97,1031.01,587.86,1031.01,583.56z"></path>
      <path class="st0" d="M1210.87,511.27h43.96c1.94,0,3.52,1.58,3.52,3.52v136.71c0,1.94-1.58,3.52-3.52,3.52h-43.96   c-1.94,0-3.52-1.58-3.52-3.52v-8.7c0-1.25-1.55-1.86-2.38-0.93c-10.57,11.76-24.44,17.64-41.53,17.64   c-10.41,0-19.98-1.92-28.72-5.74c-8.74-3.83-16.36-9.2-22.86-16.11c-6.51-6.91-11.57-15.04-15.2-24.38   c-3.62-9.34-5.44-19.52-5.44-30.54c0-10.27,1.76-20.04,5.3-29.28c3.53-9.25,8.46-17.33,14.78-24.24   c6.32-6.91,13.85-12.37,22.59-16.39c8.74-4.01,18.4-6.02,29-6.02c16.69,0,30.76,5.48,42.14,16.42c0.87,0.84,2.32,0.23,2.32-0.98   v-7.44C1207.35,512.84,1208.93,511.27,1210.87,511.27z M1137.3,582.72c0,4.67,0.84,9.01,2.52,13.03c1.68,4.02,3.97,7.52,6.87,10.51   c2.89,2.99,6.35,5.32,10.37,7c4.01,1.68,8.36,2.52,13.03,2.52c4.48,0,8.73-0.84,12.75-2.52c4.01-1.68,7.47-4.01,10.37-7   c2.89-2.99,5.23-6.45,7.01-10.37c1.77-3.92,2.66-8.13,2.66-12.61s-0.89-8.73-2.66-12.75c-1.78-4.02-4.11-7.52-7.01-10.51   c-2.9-2.99-6.35-5.32-10.37-7.01c-4.02-1.68-8.27-2.52-12.75-2.52c-4.67,0-9.02,0.84-13.03,2.52c-4.02,1.68-7.47,4.02-10.37,7.01   c-2.9,2.99-5.18,6.4-6.87,10.23C1138.14,574.08,1137.3,578.23,1137.3,582.72z"></path>
      <path class="st0" d="M1352.32,557.1v94.39c0,1.94-1.58,3.52-3.52,3.52h-43.68c-1.94,0-3.52-1.58-3.52-3.52V557.1   c0-1.94-1.58-3.52-3.52-3.52h-16.78c-1.94,0-3.52-1.58-3.52-3.52v-35.27c0-1.94,1.58-3.52,3.52-3.52h16.78   c1.94,0,3.52-1.58,3.52-3.52v-27.47c0-1.94,1.58-3.52,3.52-3.52l43.68-18.65c1.94,0,3.52,1.58,3.52,3.52v46.12   c0,1.94,1.58,3.52,3.52,3.52h21.82c1.94,0,3.52,1.58,3.52,3.52l-11.09,35.27c0,1.94-1.58,3.52-3.52,3.52h-10.73   C1353.89,553.58,1352.32,555.15,1352.32,557.1z"></path>
      <path class="st0" d="M1496.82,551.51c0,2.65-2.84,4.38-5.17,3.11c-7.09-3.87-14.24-5.8-21.45-5.8c-4.86,0-9.39,0.84-13.59,2.52   c-4.2,1.68-7.89,4.06-11.07,7.14c-3.18,3.08-5.65,6.73-7.43,10.93c-1.78,4.2-2.66,8.92-2.66,14.15c0,5.04,0.88,9.67,2.66,13.87   c1.77,4.2,4.2,7.85,7.29,10.93c3.08,3.08,6.77,5.46,11.07,7.14c4.3,1.68,8.87,2.52,13.73,2.52c7.5,0,14.6-2.03,21.29-6.08   c2.34-1.42,5.33,0.27,5.33,3.01v34.08c0,1.42-0.85,2.71-2.16,3.25c-11.72,4.81-22.87,7.22-33.43,7.22   c-10.46,0-20.41-1.78-29.84-5.32c-9.44-3.55-17.75-8.64-24.94-15.27c-7.19-6.63-12.94-14.57-17.23-23.82   c-4.3-9.25-6.44-19.57-6.44-30.96c0-11.39,2.05-21.81,6.16-31.24c4.11-9.43,9.71-17.56,16.81-24.38   c7.1-6.82,15.55-12.14,25.36-15.97c9.81-3.83,20.32-5.74,31.52-5.74c11.51,0,22.21,2.28,32.1,6.84c1.26,0.58,2.09,1.83,2.09,3.22   V551.51z"></path>
      <path class="st0" d="M1529.2,422.44h43.68c1.94,0,3.52,1.58,3.52,3.52v94.44c0,3.12,3.76,4.69,5.99,2.5   c4.96-4.86,9.97-8.31,15.03-10.38c7.1-2.89,15.41-4.34,24.94-4.34c18.12,0,31.8,5,41.05,14.99c9.25,10,13.87,23.49,13.87,40.49   v87.83c0,1.94-1.58,3.52-3.52,3.52h-43.68c-1.94,0-3.52-1.58-3.52-3.52v-69.05c0-7.29-0.56-13.17-1.68-17.65   c-1.12-4.48-2.99-7.94-5.6-10.37c-4.48-3.92-9.9-5.88-16.25-5.88c-8.59,0-15.18,2.57-19.75,7.71c-4.58,5.14-6.86,12.47-6.86,22   v73.26c0,1.94-1.58,3.52-3.52,3.52h-43.68c-1.94,0-3.52-1.58-3.52-3.52V425.96C1525.68,424.02,1527.25,422.44,1529.2,422.44z"></path>
    </g>
    <g>
      <path class="st0" d="M1736.29,604.8c4.34,2.48,7.76,5.9,10.24,10.24c2.48,4.34,3.72,9.16,3.72,14.45c0,5.29-1.27,10.13-3.8,14.53   c-2.54,4.4-5.99,7.87-10.36,10.4c-4.37,2.54-9.2,3.81-14.49,3.81c-5.29,0-10.11-1.27-14.45-3.81c-4.34-2.54-7.77-5.99-10.28-10.36   c-2.51-4.37-3.76-9.17-3.76-14.41c0-5.23,1.25-10.04,3.76-14.41s5.95-7.83,10.32-10.36c4.37-2.54,9.23-3.8,14.57-3.8   S1731.95,602.32,1736.29,604.8z M1733.38,649.86c3.53-2.08,6.31-4.91,8.34-8.5c2.02-3.59,3.04-7.54,3.04-11.86   c0-4.37-0.99-8.31-2.96-11.82c-1.97-3.51-4.71-6.27-8.22-8.3c-3.51-2.02-7.45-3.04-11.82-3.04s-8.31,1.03-11.82,3.08   c-3.51,2.05-6.26,4.86-8.26,8.42c-2,3.56-3,7.5-3,11.82c0,4.32,1,8.26,3,11.82c2,3.56,4.74,6.37,8.22,8.42   c3.48,2.05,7.38,3.08,11.7,3.08C1725.92,652.97,1729.84,651.93,1733.38,649.86z M1735.16,630.99c-1,1.65-2.47,2.93-4.41,3.85   l6.88,10.52h-8.42l-5.91-9.07h-0.32h-5.26v9.07h-8.42v-31.41h13.68c4.26,0,7.61,1.01,10.04,3.04c2.43,2.02,3.64,4.74,3.64,8.14   C1736.66,627.39,1736.16,629.35,1735.16,630.99z M1722.41,629.98c1.89,0,3.36-0.42,4.41-1.25c1.05-0.84,1.58-2.04,1.58-3.6   s-0.53-2.78-1.58-3.64c-1.05-0.86-2.52-1.29-4.41-1.29h-4.78v9.8H1722.41z"></path>
    </g>
  </svg>