<svg class="logo" width="82" height="60" viewBox="0 0 82 60" fill="none" xmlns="http://www.w3.org/2000/svg">
          <path d="M30.2682 12.1083C29.909 14.2981 31.7758 16.1652 33.9652 15.806C35.2922 15.5887 36.3611 14.5196 36.5783 13.1924C36.9374 11.0026 35.0706 9.13549 32.8812 9.49472C31.5564 9.71198 30.4854 10.7832 30.2682 12.1083Z" fill="#1F1F1F"></path>
          <path d="M38.4154 16.8776C38.3552 16.7679 38.2498 16.6862 38.1294 16.6539C38.0089 16.6217 37.8777 16.641 37.7831 16.6969L34.028 18.7491C33.8237 18.8652 33.7484 19.1169 33.8581 19.3256L34.471 20.4914C34.471 20.4914 35.2195 21.752 35.2195 23.0878V33.0795V41.7527C35.2195 43.7833 35.2044 45.2181 35.0861 46.2269C35.0367 46.6507 34.6797 46.9734 34.2517 46.9734H34.2431C34.1979 46.9734 34.1377 46.9691 34.0667 46.9626C33.6065 46.9174 33.1871 46.7905 32.8215 46.5862C32.6408 46.4872 32.4601 46.3689 32.2795 46.2355C31.6579 45.7752 31.1289 45.1664 30.7095 44.4308L28.0641 39.7995L24.7177 33.7421L23.3799 31.3264L22.6766 30.0186C22.468 29.6744 22.268 29.3431 22.0852 29.042C20.0442 25.6583 19.8141 25.3636 18.3086 26.0412C18.2892 26.0541 17.8677 26.2778 17.4526 26.1445C17.2246 26.0713 17.0461 25.9079 16.9321 25.6712C16.6224 25.0195 17.0934 24.4989 17.487 24.3075L20.4313 22.6554C21.0916 22.2639 21.4508 20.8356 21.4508 18.1919C21.4701 17.039 21.4551 14.8513 21.4486 14.0683L21.4895 10.6868C21.4916 10.5212 21.4895 10.3341 21.4895 10.1383C21.483 9.34886 21.4744 8.37012 21.7325 7.80869C21.9239 7.39353 22.154 7.03215 22.4186 6.731L22.4487 6.69873C22.7605 6.32014 22.8552 6.20398 23.5283 5.8469L24.3757 5.39733C24.3778 5.39518 24.3821 5.39303 24.3907 5.38872L24.7757 5.18437C25.9005 4.72619 26.4791 5.46616 28.2448 8.5379L28.3244 8.67342C28.3846 8.78312 28.49 8.86487 28.6104 8.89713C28.7308 8.9294 28.862 8.91004 28.9567 8.85411L32.7118 6.80198C32.9161 6.68582 32.9914 6.43415 32.8817 6.22549L32.0386 4.62079C31.5655 3.76251 30.7869 3.14085 29.8449 2.86981C28.905 2.59878 27.9157 2.71063 27.0598 3.18172L24.0509 4.77782H24.0488L16.9988 8.51854C15.5342 9.37467 15.5363 12.3152 15.5428 12.6293C15.4976 13.9565 15.4654 15.5289 15.4503 17.3035C15.446 21.3884 15.4009 23.3782 14.4158 23.9654L11.4715 25.6175C11.078 25.8089 10.607 26.3295 10.9167 26.9812C11.0285 27.2179 11.2092 27.3813 11.4371 27.4545C11.8522 27.5878 12.2737 27.3641 12.2931 27.3512C13.7986 26.6736 14.0287 26.9683 16.0697 30.352C16.3601 30.8317 16.6827 31.3694 17.0397 31.9481L20.6808 38.6745L22.0164 41.1224L22.182 41.3763C23.0552 42.9272 23.8423 44.2888 24.5047 45.3923C24.8123 46.0161 26.4188 49.1309 27.7888 49.1309L28.034 49.133C28.2297 49.133 28.4534 49.1352 28.6728 49.1309C28.7115 49.133 28.7523 49.133 28.7932 49.133C28.8298 49.133 28.8663 49.133 28.9029 49.133H30.3976C30.4084 49.133 30.417 49.1352 30.4277 49.1352C30.4794 49.1352 30.5869 49.1352 30.6385 49.1352H30.6407H36.1378C36.155 49.1352 36.1722 49.1309 36.1894 49.1309H36.4432C38.3358 49.1309 40.1317 47.5972 40.1317 45.7064V28.2547V25.0367V21.7477C40.1317 19.061 39.3983 18.6544 38.4993 17.0153L38.4154 16.8776Z" fill="#1F1F1F"></path>
          <path d="M11.461 46.9329H6.94028C6.11872 46.9329 5.69073 46.6769 5.69073 45.9175C5.69073 45.369 6.12087 44.9517 6.94028 44.9517C8.77913 44.9517 9.18776 44.8162 9.26733 40.9679C9.26948 40.5786 9.27378 40.172 9.27594 39.7483L9.28024 7.0992L9.27594 6.24522C9.25443 3.94572 8.37264 1.91295 6.66069 0.198545L6.60693 0.155523C6.23486 -0.094002 5.98323 0.00279646 5.86494 0.0888396C5.45416 0.295343 1.81733 2.09795 1.49043 2.26573C1.47968 2.27003 1.47107 2.27649 1.46247 2.28294C1.36139 2.34532 1.29687 2.45287 1.28611 2.57118V2.57333C1.27106 2.74757 1.35279 2.92181 1.50333 3.04012C3.68629 4.73517 3.68199 6.36138 3.67338 9.92357L3.67123 29.3521L3.59596 40.6904C3.59596 46.7608 3.39809 46.9329 1.24955 46.9329C0.430138 46.9329 0 47.4878 0 48.0364C0 48.5784 0.430138 49.1291 1.24955 49.1291H11.489C11.7944 49.1291 12.0589 49.0043 12.2374 48.7785C12.3837 48.5935 12.4633 48.3504 12.4633 48.0901C12.4633 48.0665 12.4633 48.0428 12.4654 48.0192C12.5364 47.4362 12.0482 46.9329 11.461 46.9329Z" fill="#1F1F1F"></path>
          <path d="M69.2444 43.491L67.8572 41.0732L67.6378 40.6774C67.6399 40.6774 67.6442 40.6774 67.6464 40.6774L64.0633 34.1725L63.3751 32.8948C63.3708 32.8991 63.3687 32.9034 63.3644 32.9077L61.8309 30.1242L60.4932 27.7085L59.7899 26.4007C59.5813 26.0565 59.3813 25.7252 59.1985 25.4241L57.093 21.6532C56.2176 20.0851 54.2476 19.5022 52.6604 20.3454L49.8666 21.9092C49.63 22.0404 49.3397 21.8705 49.3397 21.5995V21.2381C49.3397 19.5775 48.6063 18.6568 47.7073 17.0177L47.6278 16.8822C47.5675 16.7724 47.4622 16.6907 47.3417 16.6584C47.2213 16.6262 47.0901 16.6455 46.9955 16.7015L43.2403 18.7536C43.036 18.8697 42.9608 19.1214 43.0704 19.3301L43.6834 20.496C43.6834 20.496 44.4318 21.7565 44.4318 23.0923V41.7572C44.4318 42.9403 44.4275 43.919 44.3996 44.73C44.3974 44.73 44.3974 44.7278 44.3953 44.7278C44.2017 46.851 43.6511 46.937 42.1499 46.937C41.3284 46.937 40.9004 47.492 40.9004 48.0405C40.9004 48.5826 41.3305 49.1333 42.1499 49.1333H45.0405H45.3437C45.3609 49.1333 45.3781 49.129 45.3953 49.129H45.6491C47.6772 49.129 49.3376 47.4705 49.3376 45.442V25.6844C49.3376 24.8906 49.7677 24.1592 50.4602 23.7742L50.5355 23.7312C52.041 23.0536 52.2711 23.3483 54.3121 26.7319C54.6024 27.2116 54.9251 27.7494 55.2821 28.328L58.9232 35.0545L63.031 42.5359C63.0375 42.5294 63.0439 42.523 63.0525 42.5144C63.7278 43.7104 64.5193 45.0871 65.272 46.3476C65.272 46.3476 65.7839 47.1328 66.4528 47.8706C67.0377 48.5224 67.741 49.129 68.3282 49.129C68.4142 49.129 68.511 49.129 68.6099 49.129C68.8078 49.129 69.0293 49.1311 69.268 49.129C69.3433 49.1311 69.4207 49.129 69.5003 49.129C69.5304 49.129 69.5584 49.129 69.5906 49.129H71.7134C71.7628 49.129 71.8058 49.129 71.8553 49.129C71.9069 49.129 72.0145 49.129 72.0661 49.129H76.2427C76.2621 49.129 76.2771 49.129 76.2943 49.129H77.174C78.1869 49.129 79.9677 48.3158 80.5118 47.1435C80.8409 46.4788 80.9742 46.0099 80.9742 45.0699C80.9742 43.1382 80.2731 41.4324 78.7956 39.9546L78.7418 39.9116C78.3697 39.6621 77.9719 39.8428 77.7159 39.9826C77.2965 40.1912 74.2039 41.6669 74.0081 41.7701L74.0038 41.7744C73.9028 41.8368 73.8318 41.9422 73.821 42.0605C73.8017 42.2391 73.8834 42.4176 74.0361 42.5359C74.3092 42.7489 74.5372 42.9597 74.748 43.1748C76.1975 44.7967 76.0793 46.9693 73.8447 46.9693C71.0316 46.9693 70.2165 45.1323 69.4143 43.7792L69.2444 43.491Z" fill="#1F1F1F"></path>
          <path d="M7.02372 59.1375H3.44282C3.24925 59.1375 3.0944 58.9804 3.0944 58.7868V57.3714C3.0944 57.1778 3.2514 57.0208 3.44282 57.0208H6.6409C6.83446 57.0208 6.98931 56.8638 6.98931 56.6702C6.98931 56.4766 6.83231 56.3195 6.6409 56.3195H3.44282C3.24925 56.3195 3.0944 56.1625 3.0944 55.9689V54.7234C3.0944 54.5298 3.2514 54.375 3.44282 54.375H6.90758C7.10114 54.375 7.25814 54.2179 7.25814 54.0243C7.25814 53.8307 7.10114 53.6737 6.90758 53.6737H2.4492C2.25563 53.6737 2.09863 53.8307 2.09863 54.0243V59.4838C2.09863 59.6774 2.25563 59.8344 2.4492 59.8344H7.02157C7.21513 59.8344 7.37213 59.6774 7.37213 59.4838C7.37213 59.2945 7.21728 59.1375 7.02372 59.1375Z" fill="#1F1F1F"></path>
          <path d="M16.2071 53.6777H15.9125C15.7189 53.6777 15.5619 53.8348 15.5619 54.0284V57.3969C15.5619 58.5736 14.7683 59.2985 13.3467 59.2985C11.923 59.2985 11.1294 58.5736 11.1294 57.3969V54.0284C11.1294 53.8348 10.9724 53.6777 10.7809 53.6777H10.4863C10.2927 53.6777 10.1357 53.8348 10.1357 54.0284V57.3539C10.1357 59.1113 11.4735 59.9976 13.3446 59.9976C15.2157 59.9976 16.5534 59.1113 16.5534 57.3539V54.0284C16.5556 53.8348 16.3986 53.6777 16.2071 53.6777Z" fill="#1F1F1F"></path>
          <path d="M23.0993 56.4333H21.2131C21.0196 56.4333 20.8626 56.2762 20.8626 56.0827V54.7275C20.8626 54.5339 21.0196 54.3768 21.2131 54.3768H23.0219C24.3295 54.3768 24.7596 54.6758 24.7596 55.3405C24.7618 56.0762 24.2456 56.4333 23.0993 56.4333ZM23.0434 53.6777H20.2217C20.0281 53.6777 19.8711 53.8348 19.8711 54.0284V59.4878C19.8711 59.6814 20.0281 59.8384 20.2217 59.8384H20.5163C20.7099 59.8384 20.8669 59.6814 20.8669 59.4878V57.483C20.8669 57.2894 21.0239 57.1324 21.2174 57.1324H23.3509C25.022 57.1324 25.8156 56.4161 25.8156 55.3405C25.8135 54.2327 25.1145 53.6777 23.0434 53.6777Z" fill="#1F1F1F"></path>
          <path d="M34.3926 53.6777H34.0979C33.9043 53.6777 33.7473 53.8348 33.7473 54.0262V55.9213C33.7473 56.1149 33.5903 56.2698 33.3968 56.2698H29.6653C29.4718 56.2698 29.3148 56.1128 29.3148 55.9213V54.0262C29.3148 53.8326 29.1578 53.6777 28.9664 53.6777H28.6717C28.4782 53.6777 28.3233 53.8348 28.3233 54.0262V59.4857C28.3233 59.6793 28.4803 59.8363 28.6717 59.8363H28.9664C29.1599 59.8363 29.3148 59.6793 29.3148 59.4857V57.3195C29.3148 57.1259 29.4718 56.9689 29.6653 56.9689H33.3968C33.5903 56.9689 33.7473 57.1259 33.7473 57.3195V59.4857C33.7473 59.6793 33.9043 59.8363 34.0979 59.8363H34.3926C34.5861 59.8363 34.7431 59.6793 34.7431 59.4857V54.0262C34.741 53.8348 34.5861 53.6777 34.3926 53.6777Z" fill="#1F1F1F"></path>
          <path d="M41.3622 59.3006C39.6911 59.3006 38.5362 58.2767 38.5362 56.758C38.5362 55.2394 39.6911 54.2155 41.3622 54.2155C43.0333 54.2155 44.1904 55.2394 44.1904 56.758C44.1904 58.2767 43.0354 59.3006 41.3622 59.3006ZM41.3622 53.5164C38.4674 53.5164 37.4845 55.291 37.4845 56.758C37.4845 58.2251 38.4674 59.9997 41.3622 59.9997C44.257 59.9997 45.2399 58.2251 45.2399 56.758C45.2399 55.291 44.257 53.5164 41.3622 53.5164Z" fill="#1F1F1F"></path>
          <path d="M57.8454 53.6777H57.5508C57.3572 53.6777 57.2002 53.8348 57.2002 54.0284V59.4878C57.2002 59.6814 57.3572 59.8384 57.5508 59.8384H57.8454C58.039 59.8384 58.196 59.6814 58.196 59.4878V54.0284C58.196 53.8348 58.039 53.6777 57.8454 53.6777Z" fill="#1F1F1F"></path>
          <path d="M67.6713 58.1222H67.282C67.1487 58.1222 67.0196 58.1932 66.9702 58.3158C66.7013 58.9848 65.8604 59.2988 64.9937 59.2988C63.4172 59.2988 62.2429 58.4879 62.2429 56.7563C62.2429 55.0247 63.4172 54.2137 64.9937 54.2137C65.8647 54.2137 66.6174 54.4482 66.8734 55.0978C66.9228 55.2226 67.054 55.2957 67.1874 55.2957H67.5831C67.8369 55.2957 68.0154 55.029 67.9036 54.7988C67.5272 54.0223 66.4303 53.5125 65.0689 53.5125C62.1741 53.5125 61.1912 55.2871 61.1912 56.7541C61.1912 58.4513 62.3289 59.9958 64.7915 59.9958C66.2712 59.9958 67.553 59.5978 67.9982 58.589C68.0971 58.3696 67.9122 58.1222 67.6713 58.1222Z" fill="#1F1F1F"></path>
          <path d="M75.2739 56.5286L72.7039 56.1371C71.8543 56.0081 71.6242 55.6682 71.6242 55.3348C71.6242 54.6529 72.4544 54.2184 73.4394 54.2184C74.4524 54.2184 75.3535 54.4141 75.5858 55.0896C75.6331 55.2272 75.7643 55.3176 75.9105 55.3176H76.2611C76.5084 55.3176 76.6719 55.0681 76.588 54.8357C76.2138 53.8118 74.8954 53.5193 73.6394 53.5193C71.7576 53.5193 70.6306 54.2012 70.6306 55.3864C70.6306 57.9634 75.9127 56.4189 75.9127 58.1247C75.9127 58.798 75.1191 59.3014 73.6867 59.3014C72.521 59.3014 71.6887 58.9228 71.4995 58.2538C71.4565 58.1032 71.3231 57.9957 71.1661 57.9957H70.8328C70.6048 57.9957 70.4284 58.2151 70.4929 58.4323C70.8069 59.4907 71.8952 59.9983 73.6308 59.9983C75.6761 59.9983 76.9063 59.2562 76.9063 58.0279C76.9063 57.2708 76.3901 56.6986 75.2739 56.5286Z" fill="#1F1F1F"></path>
          <path d="M78.4803 53.8117H78.8782V54.8851H79.0976V53.8117H79.4934V53.6332H78.4803V53.8117Z" fill="#1F1F1F"></path>
          <path d="M80.3952 54.5173L80.036 53.6332H79.7156V54.8851H79.9134V53.8117L80.335 54.8851H80.4511L80.8856 53.8117V54.8851H81.0813V53.6332H80.7673L80.3952 54.5173Z" fill="#1F1F1F"></path>
          <path d="M51.279 56.4333H49.3928C49.1993 56.4333 49.0423 56.2762 49.0423 56.0827V54.7275C49.0423 54.5339 49.1993 54.3768 49.3928 54.3768H51.2015C52.5092 54.3768 52.9393 54.6758 52.9393 55.3405C52.9415 56.0762 52.4253 56.4333 51.279 56.4333ZM52.6898 57.1582C52.6447 57.0808 52.6855 56.984 52.7716 56.956C53.5953 56.6807 53.9931 56.0999 53.9931 55.3405C53.9931 54.2327 53.2963 53.6777 51.2231 53.6777H48.4013C48.2078 53.6777 48.0508 53.8348 48.0508 54.0284V59.4878C48.0508 59.6814 48.2078 59.8384 48.4013 59.8384H48.696C48.8896 59.8384 49.0466 59.6814 49.0466 59.4878V57.483C49.0466 57.2894 49.2036 57.1324 49.3971 57.1324H51.3801C51.4725 57.1324 51.5564 57.1819 51.6037 57.2614L52.9436 59.5846C53.0339 59.7416 53.1995 59.8363 53.3802 59.8363H53.7437C53.963 59.8363 54.0985 59.5997 53.9888 59.4104L52.6898 57.1582Z" fill="#1F1F1F"></path>
        </svg>