<svg class="site-header__logo-image" xmlns="http://www.w3.org/2000/svg" viewBox="0 0 200.999 41.153">
                  <defs></defs><g data-name="Group 244"><g data-name="Group 234"><path fill="#231f20" d="M194.966 38.151a3.017 3.017 0 113.016 3 2.989 2.989 0 01-3.016-3zm5.572 0a2.555 2.555 0 10-2.556 2.54 2.561 2.561 0 002.556-2.54zm-1.124 1.624h-.554l-.985-1.516h-.554v1.516h-.461v-3.289h1.43c.593 0 1.17.161 1.17.869 0 .647-.454.886-1.038.9zm-1.539-1.978c.408 0 1.124.077 1.124-.446 0-.339-.447-.4-.8-.4h-.877v.847z" data-name="Path 48"></path></g><g fill="#231f20" data-name="Group 243"><g data-name="Group 235"><path d="M94.956 15.03h-10.2v14.939c0 2.668 1.245 3.557 3.912 3.557h6.284v4.98h-7c-5.335 0-8.418-3.557-8.418-9.189V2.936h5.217v7.114h10.2z" data-name="Path 49"></path><path d="M95.286 38.833h-7.325c-5.395 0-8.745-3.646-8.745-9.516V2.609h5.87v7.114h10.2v5.634h-10.2v14.612c0 2.354.972 3.23 3.587 3.23h6.61zM79.87 3.263v26.054c0 5.549 3.024 8.862 8.091 8.862h6.668v-4.326h-5.956c-2.973 0-4.241-1.162-4.241-3.884V14.703h10.2v-4.326h-10.2V3.263z" data-name="Path 50"></path></g><g data-name="Group 236"><path d="M122.76 10.05v16.6c0 7.47-5.217 12.45-12.154 12.45s-12.152-4.98-12.152-12.45v-16.6h5.216v16.6c0 4.387 3.2 7.47 6.936 7.47s6.937-3.083 6.937-7.47v-16.6z" data-name="Path 51"></path><path d="M110.606 39.426c-7.347 0-12.479-5.254-12.479-12.777V9.723h5.871v16.926c0 4.005 2.9 7.143 6.608 7.143s6.61-3.138 6.61-7.143V9.723h5.87v16.926c0 7.523-5.132 12.777-12.48 12.777zM98.781 10.377v16.272c0 7.137 4.863 12.123 11.825 12.123s11.826-4.986 11.826-12.123V10.377h-4.562v16.272c0 4.372-3.19 7.8-7.264 7.8s-7.262-3.425-7.262-7.8V10.377z" data-name="Path 52"></path></g><g data-name="Group 237"><path d="M126.257 10.05h4.98v3.261h.118c1.779-2.787 4.209-3.854 7.707-3.854h1.186v4.98h-.771c-5.039 0-8 3.083-8 10.789v13.28h-5.217z" data-name="Path 53"></path><path d="M131.8 38.833h-5.87V9.723h5.634v2.715c1.727-2.281 4.076-3.308 7.5-3.308h1.513v5.634h-1.1c-5.166 0-7.678 3.422-7.678 10.463zm-5.216-.654h4.562V25.227c0-7.481 2.725-11.118 8.332-11.118h.443V9.786h-.859c-3.552 0-5.775 1.107-7.431 3.7l-.1.151h-.625v-3.26h-4.32z" data-name="Path 54"></path></g><g data-name="Group 238"><path d="M169.257 33.526h14.583c2.431 0 3.38-.948 3.38-2.727 0-5.217-17.963-3.2-17.963-13.042 0-5.039 3.5-7.707 9.722-7.707h12.272v4.98h-13.165c-2.549 0-3.32.711-3.38 2.49-.059 4.92 17.963 2.845 17.963 13.042 0 5.4-3.794 7.944-8.833 7.944h-14.579z" data-name="Path 55"></path><path d="M183.84 38.833h-14.91v-5.634h14.91c2.14 0 3.053-.718 3.053-2.4 0-1.951-3.078-2.833-6.642-3.855-5.044-1.446-11.321-3.246-11.321-9.187 0-5.181 3.569-8.034 10.049-8.034h12.6v5.634h-13.493c-2.534 0-3 .7-3.052 2.173-.022 1.761 2.92 2.58 6.326 3.529 5.184 1.444 11.636 3.241 11.636 9.5.004 5.182-3.42 8.274-9.156 8.274zm-14.254-.654h14.256c5.326 0 8.506-2.848 8.506-7.618 0-5.764-6.187-7.487-11.158-8.872-3.665-1.021-6.832-1.9-6.8-4.174.068-2.051 1.072-2.812 3.706-2.812h12.833v-4.326h-11.95c-4.286 0-9.395 1.28-9.395 7.38 0 5.448 5.763 7.1 10.847 8.558 3.818 1.094 7.116 2.04 7.116 4.484 0 2.055-1.213 3.054-3.707 3.054h-14.254z" data-name="Path 56"></path></g><g data-name="Group 239"><path d="M46.701 25.701a16.2 16.2 0 00.07-1.423 14.762 14.762 0 10-29.524 0 14.779 14.779 0 0028.739 4.893h-5.762a8.9 8.9 0 01-8.215 4.948 9.054 9.054 0 01-9.216-8.418zM32.009 14.437a8.912 8.912 0 018.751 6.284h-17.5a8.914 8.914 0 018.749-6.284z" data-name="Path 57"></path><path d="M32.009 39.426a15.148 15.148 0 1115.089-15.148c0 .437-.023.9-.071 1.452l-.027.3H23.167a8.715 8.715 0 008.842 7.764 8.52 8.52 0 007.922-4.767l.09-.181h6.418l-.143.43a14.959 14.959 0 01-14.287 10.15zm0-29.642a14.494 14.494 0 1013.516 19.714h-5.1a9.273 9.273 0 01-8.415 4.948 9.378 9.378 0 01-9.541-8.707l-.042-.365h23.972c.03-.4.044-.759.044-1.1A14.31 14.31 0 0032.009 9.786zm9.2 11.264H22.806l.141-.429a9.255 9.255 0 019.062-6.51 9.255 9.255 0 019.062 6.51zm-17.492-.654h16.581a8.606 8.606 0 00-8.289-5.63 8.606 8.606 0 00-8.289 5.63z" data-name="Path 58"></path></g><g data-name="Group 240"><path d="M77.743 25.701a16.2 16.2 0 00.07-1.423 14.762 14.762 0 10-29.523 0 14.778 14.778 0 0028.738 4.893h-5.761a8.9 8.9 0 01-8.216 4.948 9.055 9.055 0 01-9.216-8.418zM63.051 14.437a8.914 8.914 0 018.752 6.284h-17.5a8.913 8.913 0 018.748-6.284z" data-name="Path 59"></path><path d="M63.051 39.426A15.148 15.148 0 1178.14 24.278c0 .444-.023.9-.07 1.452l-.027.3H54.21a8.713 8.713 0 008.841 7.764 8.522 8.522 0 007.923-4.767l.09-.181h6.422l-.143.43a14.957 14.957 0 01-14.292 10.15zm0-29.642a14.494 14.494 0 1013.516 19.714h-5.1a9.276 9.276 0 01-8.416 4.948 9.378 9.378 0 01-9.54-8.707l-.042-.365h23.973c.03-.4.044-.755.044-1.1A14.311 14.311 0 0063.051 9.786zm9.2 11.264H53.848l.141-.429a9.562 9.562 0 0118.124 0zm-17.492-.654H71.34a8.917 8.917 0 00-16.578 0z" data-name="Path 60"></path></g><g data-name="Group 241"><path d="M168.219 25.701c.041-.467.069-.939.069-1.423a14.762 14.762 0 10-29.523 0 14.779 14.779 0 0028.739 4.893h-5.762a8.9 8.9 0 01-8.215 4.948 9.054 9.054 0 01-9.216-8.418zm-14.692-11.264a8.913 8.913 0 018.751 6.284h-17.5a8.914 8.914 0 018.749-6.284z" data-name="Path 61"></path><path d="M153.527 39.426a15.148 15.148 0 1115.089-15.148c0 .437-.023.9-.071 1.452l-.027.3h-23.832a8.715 8.715 0 008.842 7.764 8.52 8.52 0 007.922-4.767l.09-.181h6.417l-.143.43a14.956 14.956 0 01-14.287 10.15zm0-29.642a14.494 14.494 0 1013.516 19.714h-5.1a9.273 9.273 0 01-8.415 4.948 9.378 9.378 0 01-9.541-8.707l-.042-.365h23.973c.03-.4.045-.759.045-1.1a14.311 14.311 0 00-14.436-14.488zm9.2 11.264h-18.403l.14-.429a9.563 9.563 0 0118.125 0zm-17.493-.654h16.582a8.918 8.918 0 00-16.579 0z" data-name="Path 62"></path></g><g data-name="Group 242"><path d="M.327 38.506V14.259C.327 5.425 5.127.327 13.191.327h6.877v5.217h-6.047c-5.158 0-8.122 2.371-8.122 8.122v1.6h9.369v5.22H5.899v18.02z" data-name="Path 63"></path><path d="M6.226 38.833H0V14.259C0 5.331 4.931 0 13.191 0h7.2v5.872h-6.37c-5.245 0-7.8 2.549-7.8 7.794v1.274h9.369v5.871H6.226zm-5.572-.654h4.918V20.157h9.369v-4.563H5.572v-1.928c0-5.606 2.843-8.448 8.449-8.448h5.719V.654h-6.554C5.219.654.649 5.614.649 14.259z" data-name="Path 64"></path></g></g></g>
                </svg>