<svg xmlns="http://www.w3.org/2000/svg" class="product__flex-text-button-flex-logo" viewBox="0 0 96 45">
                    <path d="M31.86 33.41v.28c.04 2.02.67 9.26 7.02 10.63h-7.02a6.42 6.42 0 0 1-6.44-6.4V.35a6.42 6.42 0 0 1 6.44 6.4v26.7-.04Z"></path>
                    <path d="M62.05 16.2v.04h-.04c-13.18-11.01-28.9 3.94-22.9 18.72 3.37 10.81 19.1 12.36 26.19 4.46-.13-.15-.2-.28-.31-.42-1.94-2.72-2.41-3.41-5.81-1.17-6.79 3.96-15.27-.54-14.77-8.83h19.81c3.96-1.02.07-11.12-2.17-12.79Zm-2.13 8.79H44.61c.28-10 15.81-10.27 15.31 0Z"></path>
                    <path d="M17.49.35h-.31c-2.02.04-3.8.39-5.31.96-1.51.64-2.87 1.58-4 2.76A11.788 11.788 0 0 0 5.5 7.98c-.54 1.53-.81 3.15-.81 4.78v1.39H0c.7 1.59 2.48 4.15 6.63 4.33 0 0-.81.85-1.98 1.7v24.1c2.13 0 4.03-1.06 5.24-2.67.78-1.09 1.28-2.41 1.28-3.83V18.75h7.44V14.1h-7.63v-1.39c0-2.52.67-4.42 1.91-5.78 1.13-1.17 2.63-1.81 4.53-1.98h.57c2.11 0 3.83-1.72 3.83-3.83V.28h-4.33v.07ZM96 44.37h-.81c-4.07 0-7.83-2.13-9.96-5.63L84.14 37c-1.7-2.83-3.29-5.39-3.37-5.53-.18.7-.43 1.31-.74 1.81l-6.44 9.81c-.24.31-.46.61-.74.89-.28.28-.61.39-1.06.39h-5.78l10.66-16.2-5.24-7.76c-1.13-1.24-2.13-2.56-3.09-3.91l-2.44-3.48h.57v-.07h.67c4.22 0 8.15 2.2 10.39 5.78 1.12 1.84 2.26 3.67 3.41 5.5.19-.57.45-1.12.78-1.63l5.89-8.61c.39-.7.89-1.06 1.56-1.06h.07s.28-.04.39-.04h5.92L85.31 27.81l3.02 4.68.07.11 7.51 11.66v.07h.04l.06.02Z"></path>
                  </svg>