<svg class="icon icon-logo" viewBox="0 0 89 71" fill="none" xmlns="http://www.w3.org/2000/svg">
<path d="M9.72138 71C2.57617 71 0 66.9515 0 62.1491V0.472318H9.43522V61.1131C9.43522 62.0544 9.72138 62.5253 10.3875 62.5253C11.0536 62.5253 11.4356 62.0517 11.4356 61.1131V0.472318H20.8674V62.1491C20.8674 66.9535 17.914 71 11.1495 71H9.72138ZM33.5682 9.70012C33.5682 8.66413 33.1876 8.09911 32.5208 8.09911C31.854 8.09911 31.4726 8.66413 31.4726 9.70012V61.3012C31.4726 62.3372 31.8533 62.8082 32.5208 62.8082C33.1883 62.8082 33.5682 62.3345 33.5682 61.3012V9.70012ZM43 60.5481C43 67.3277 39.3805 71 33.1876 71H31.8533C25.3755 71 21.9457 67.2336 21.9457 60.5481V10.6407C21.9457 3.95516 24.9942 0 31.8533 0H33.1876C40.0466 0.000676674 43 4.14463 43 10.6407V60.5481Z" fill="currentColor"></path>
<path d="M44 0H54.3942L56.0944 35.6585L57.7953 0H68V70H60.2519V29.1664L57.5121 70H54.2998L51.4649 29.1664V70H44V0Z" fill="currentColor"></path>
<path d="M78.0695 18.2545L79.2098 47.7998H76.9291L78.0695 18.2545ZM72.4632 0L68 70H75.982L76.5521 55.7932H79.498L80.0675 70H89L84.2466 0.00270431L72.4632 0Z" fill="currentColor"></path>
</svg>