<svg class="navbar__logo" width="220" height="42" viewBox="0 0 220 42" fill="none" xmlns="http://www.w3.org/2000/svg">
  <path d="M123.567 30.91V22.2566C123.512 20.8816 123.2 19.58 122.687 18.3883C122.173 17.215 121.458 16.1516 120.597 15.2716C119.735 14.3733 118.708 13.6766 117.535 13.1633C116.362 12.65 115.078 12.3933 113.722 12.3933C112.328 12.3933 111.008 12.6683 109.78 13.2366C108.625 13.75 107.543 14.5016 106.517 15.4916C105.508 14.52 104.427 13.7683 103.327 13.255C102.135 12.705 100.778 12.4116 99.3116 12.4116C98.4866 12.4116 97.6433 12.5216 96.8366 12.705C96.1216 12.8883 95.425 13.145 94.7833 13.5116L94.8383 12.4116H94.0316L93.94 12.5216C93.1883 13.53 92.2166 14.3916 91.08 15.0516C89.9433 15.7116 88.66 16.115 87.3033 16.225L87.0466 16.2433V17.105H87.5966C87.7983 17.105 87.89 17.16 87.89 17.4533V30.91C87.89 31.1483 87.8166 31.2033 87.5966 31.2033H87.0466V32.0833H95.7V31.2033H95.15C94.8566 31.2033 94.8016 31.1116 94.8016 30.91V14.9233C94.8016 14.63 94.93 14.4283 95.1866 14.2816C95.8466 13.9333 96.525 13.6766 97.185 13.4933C97.8266 13.3283 98.56 13.2366 99.3483 13.2366C99.9716 13.2366 100.503 13.4383 100.943 13.8233C101.493 14.41 101.878 15.345 102.062 16.61C102.245 17.93 102.355 19.4333 102.355 21.1016V30.91C102.355 31.1116 102.3 31.2033 102.007 31.2033H101.457V32.0833H110.092V31.2033H109.542C109.303 31.2033 109.248 31.13 109.248 30.91V22.2566C109.248 20.0016 108.552 17.9483 107.177 16.1883C107.488 15.8216 107.873 15.4733 108.295 15.1433C108.79 14.7583 109.322 14.4283 109.908 14.1533C110.495 13.8783 111.118 13.64 111.797 13.475C112.457 13.31 113.135 13.2183 113.795 13.2183C114.143 13.2183 114.437 13.2733 114.675 13.365C114.913 13.475 115.152 13.6216 115.353 13.805C115.903 14.3916 116.288 15.3266 116.472 16.5916C116.655 17.9116 116.765 19.415 116.765 21.0833V30.8916C116.765 31.13 116.692 31.185 116.472 31.185H115.867V32.065H124.502V31.185H123.952C123.64 31.2033 123.567 31.13 123.567 30.91Z" fill="#F26134"></path>
  <path d="M130.588 25.905C131.468 26.29 132.403 26.4917 133.393 26.4917C134.09 26.4917 134.768 26.4 135.428 26.2167C136.088 26.0333 136.675 25.795 137.188 25.4833C137.702 25.1717 138.123 24.7867 138.435 24.3467C138.765 23.8883 138.93 23.3933 138.93 22.8433C138.93 22.1467 138.673 21.5417 138.178 21.0283C137.683 20.5333 137.078 20.2767 136.363 20.2767C135.667 20.2767 135.062 20.5333 134.548 21.0283C134.053 21.5233 133.797 22.1283 133.797 22.8433C133.797 23.21 133.87 23.5583 134.035 23.8883C134.182 24.2183 134.402 24.4933 134.64 24.7317C134.897 24.97 135.19 25.1533 135.52 25.3C135.557 25.3183 135.593 25.3183 135.612 25.3367C135.355 25.4283 135.117 25.4833 134.878 25.5383C134.347 25.63 133.852 25.685 133.393 25.685H133.357C132.935 25.685 132.568 25.5567 132.293 25.3183C131.908 24.9333 131.688 24.2917 131.615 23.3933C131.542 22.44 131.505 21.34 131.542 20.1483V18.4983C131.523 17.3067 131.542 16.2067 131.615 15.2717C131.688 14.3917 131.908 13.7317 132.293 13.365C132.568 13.09 132.917 12.9617 133.357 12.9617C134.86 12.9617 136.235 13.4567 137.427 14.4283C137.647 14.5933 137.738 14.795 137.738 15.0517V16.445H138.527V12.9067H137.738V13.5483C137.738 13.585 137.738 13.585 137.72 13.6033C137.702 13.6033 137.683 13.6217 137.628 13.585C136.363 12.65 134.933 12.1733 133.338 12.1733C132.403 12.1733 131.487 12.3567 130.607 12.7233C129.745 13.09 128.975 13.6033 128.315 14.2633C127.655 14.905 127.123 15.675 126.738 16.5367C126.353 17.3983 126.17 18.3517 126.17 19.36C126.17 20.295 126.353 21.2117 126.72 22.0917C127.087 22.9533 127.6 23.7233 128.242 24.365C128.938 24.9883 129.708 25.52 130.588 25.905Z" fill="#F26134"></path>
  <path d="M146.117 2.65833C144.962 1.99833 144.008 1.13667 143.257 0.128333L143.165 0H142.377V30.91C142.377 31.1483 142.303 31.2033 142.083 31.2033H141.533V32.0833H150.15V31.2033H149.6C149.307 31.2033 149.252 31.1117 149.252 30.91V5.06C149.252 4.80333 149.325 4.71167 149.6 4.71167H150.15V3.85L149.893 3.83167C148.518 3.72167 147.253 3.31833 146.117 2.65833Z" fill="#F26134"></path>
  <path d="M190.465 15.2533C189.548 14.3366 188.467 13.6216 187.257 13.1266C186.065 12.6316 184.782 12.3933 183.462 12.3933C182.178 12.3933 180.913 12.65 179.703 13.1266C178.512 13.6216 177.43 14.3366 176.495 15.2533C175.578 16.17 174.845 17.2516 174.368 18.4616C173.873 19.6533 173.635 20.9366 173.635 22.2566C173.635 23.5583 173.892 24.805 174.368 26.015C174.863 27.2066 175.578 28.2883 176.495 29.2233C177.412 30.14 178.493 30.8733 179.703 31.35C180.895 31.845 182.16 32.0833 183.462 32.0833C184.782 32.0833 186.065 31.8266 187.257 31.35C188.448 30.855 189.53 30.14 190.465 29.2233C191.382 28.3066 192.097 27.225 192.592 26.015C193.087 24.8233 193.325 23.5583 193.325 22.2566C193.325 20.9366 193.068 19.6533 192.592 18.4616C192.115 17.2516 191.4 16.1883 190.465 15.2533ZM186.047 27.9033C185.955 29.1683 185.625 30.1033 185.075 30.635C184.653 31.0016 184.14 31.185 183.517 31.185H183.48C182.857 31.185 182.343 31.0016 181.922 30.635C181.372 30.085 181.042 29.1683 180.95 27.885C180.84 26.5466 180.803 25.0433 180.84 23.3566V21.0833C180.803 19.415 180.84 17.8933 180.95 16.5916C181.042 15.3266 181.372 14.3916 181.903 13.8416C182.325 13.4566 182.838 13.2733 183.48 13.2733H183.517C184.14 13.2733 184.653 13.4566 185.075 13.8233C185.625 14.41 185.955 15.3266 186.047 16.5916C186.157 17.9116 186.193 19.415 186.157 21.1016V23.4116C186.193 25.0616 186.138 26.5833 186.047 27.9033Z" fill="#F26134"></path>
  <path d="M219.45 4.71167H220V3.85L219.743 3.83167C218.35 3.72167 217.067 3.31833 215.948 2.65833C214.812 1.99833 213.84 1.13667 213.052 0.11L212.96 0H212.227V15.1617C211.365 14.3183 210.357 13.64 209.238 13.1633C208.01 12.6317 206.69 12.375 205.297 12.375C203.94 12.375 202.657 12.6317 201.447 13.1633C200.255 13.695 199.192 14.41 198.293 15.3267C197.395 16.225 196.68 17.2883 196.167 18.4433C195.635 19.6167 195.378 20.8633 195.378 22.165V22.1833C195.433 23.5583 195.727 24.8783 196.258 26.07C196.772 27.2617 197.505 28.325 198.385 29.2233C199.283 30.1217 200.328 30.8183 201.483 31.3317C202.657 31.845 203.94 32.1017 205.297 32.1017C206.708 32.1017 208.047 31.8267 209.257 31.2583C210.357 30.7633 211.347 30.1033 212.208 29.2967V30.91C212.208 31.1483 212.135 31.2033 211.915 31.2033H211.365V32.0833H220V31.2033H219.45C219.157 31.2033 219.102 31.1117 219.102 30.91V5.06C219.102 4.80333 219.175 4.71167 219.45 4.71167ZM212.227 27.39C212.227 27.8483 212.08 28.1783 211.787 28.435L211.768 28.4533C210.962 29.2967 209.99 29.975 208.89 30.47C207.79 30.965 206.598 31.2033 205.315 31.2033C204.93 31.2033 204.6 31.1483 204.362 31.0567C204.105 30.965 203.867 30.8183 203.683 30.6533C203.133 30.0667 202.803 29.1317 202.712 27.8483C202.602 26.51 202.565 24.9883 202.602 23.2833V21.1567C202.565 19.4883 202.602 17.9667 202.712 16.61C202.803 15.3267 203.133 14.3917 203.683 13.8417C204.087 13.4383 204.618 13.255 205.333 13.255C206.58 13.255 207.772 13.4933 208.89 13.97C210.008 14.4467 210.998 15.125 211.842 16.005C212.117 16.28 212.245 16.6283 212.245 17.0683V27.39H212.227Z" fill="#F26134"></path>
  <path d="M139.058 31.2034H126.922V32.0834H139.058V31.2034Z" fill="#F26134"></path>
  <path d="M168.703 15.2533C168.172 14.7216 167.585 14.245 166.943 13.86C166.485 13.585 166.008 13.3283 165.513 13.1266C164.322 12.6316 163.057 12.3933 161.737 12.3933H161.718H161.7C161.48 12.3933 161.26 12.4116 161.022 12.4116C159.445 12.5216 157.978 12.9616 156.677 13.75C155.962 14.1716 155.32 14.6666 154.733 15.2533C153.817 16.17 153.083 17.2516 152.607 18.4616C152.112 19.6533 151.873 20.9366 151.873 22.2566C151.873 23.5583 152.13 24.805 152.607 26.015C153.102 27.2066 153.817 28.2883 154.733 29.2233C155.65 30.14 156.732 30.8733 157.942 31.35C159.133 31.845 160.398 32.0833 161.7 32.0833H161.718H161.737C163.057 32.0833 164.322 31.8266 165.513 31.35C166.008 31.1483 166.485 30.8916 166.943 30.5983C167.567 30.2133 168.153 29.7366 168.685 29.205C168.722 29.1683 168.758 29.1316 168.795 29.0766L168.868 29.0033C169.4 28.4533 169.858 27.8483 170.225 27.1883L169.327 26.9133C168.96 27.5183 168.52 28.0683 168.025 28.5633C167.182 29.4066 166.21 30.0483 165.128 30.5066C164.908 30.5983 164.707 30.69 164.487 30.7633C163.588 31.0566 162.672 31.2033 161.755 31.2033H161.718C161.425 31.2033 161.132 31.1483 160.838 31.0566C160.563 30.965 160.343 30.8183 160.16 30.6166C159.702 30.1583 159.408 29.4433 159.28 28.49C159.152 27.4816 159.06 26.29 159.042 24.97V23.6133C159.042 23.595 159.06 23.5766 159.06 23.5583L159.097 22.7883L170.647 22.825H171.563V22.5316C171.563 22.44 171.563 22.3666 171.563 22.275C171.563 20.955 171.307 19.6716 170.83 18.48C170.335 17.2516 169.62 16.1883 168.703 15.2533ZM164.377 21.89H159.078C159.078 21.78 159.097 21.6516 159.097 21.5416V21.0833C159.06 19.415 159.097 17.8933 159.207 16.5916C159.298 15.3266 159.628 14.41 160.197 13.86C160.38 13.6583 160.582 13.5116 160.857 13.42C161.425 13.2366 162.048 13.2366 162.58 13.42C162.837 13.5116 163.075 13.6583 163.277 13.8783C163.735 14.3366 164.047 15.0333 164.157 15.95C164.285 16.9033 164.358 18.04 164.358 19.305V21.89H164.377Z" fill="#F26134"></path>
  <path d="M20.7167 30.8183L13.6033 16.9583C13.5117 16.7567 13.5117 16.61 13.6583 16.4633L16.3533 13.31L16.3717 13.2733C16.4083 13.2183 16.5 13.1267 16.72 13.1267H19.1583V12.2467H13.2V13.1267H15.3267L7.73667 22V0H6.985L6.89333 0.11C6.14167 1.13667 5.18833 1.98 4.03333 2.65833C2.89667 3.31833 1.61333 3.72167 0.256667 3.83167L0 3.85V4.71167H0.55C0.751667 4.71167 0.843333 4.76667 0.843333 5.06V30.91C0.843333 31.1483 0.77 31.2033 0.55 31.2033H0V32.0833H8.635V31.2033H8.085C7.79167 31.2033 7.73667 31.1117 7.73667 30.91V23.98C7.73667 23.595 7.88333 23.2467 8.15833 22.8983L9.35 21.4683C9.36833 21.45 9.36833 21.45 9.38667 21.4317L14.3 31.0567C14.3183 31.0933 14.3367 31.1667 14.3183 31.2033C14.3183 31.2033 14.3 31.2217 14.245 31.2217H13.3283V32.1017H21.9633V31.2217H21.3217C21.01 31.2033 20.8267 31.0933 20.7167 30.8183Z" fill="#F26134"></path>
  <path d="M41.03 15.0517C39.8933 14.3917 38.9216 13.53 38.1516 12.485L38.06 12.375H37.3083V15.1617C36.4466 14.3 35.4383 13.64 34.32 13.1633C33.0916 12.6317 31.7716 12.375 30.3783 12.375C29.0216 12.375 27.7383 12.6317 26.5283 13.1633C25.3366 13.695 24.2733 14.41 23.375 15.3267C22.4766 16.225 21.7616 17.2883 21.2483 18.4433C20.7166 19.6167 20.46 20.8633 20.46 22.165C20.46 23.5583 20.735 24.86 21.2666 26.07C21.7983 27.2617 22.5316 28.325 23.4483 29.2233C24.3466 30.1217 25.4283 30.8183 26.62 31.3317C27.8116 31.845 29.0766 32.1017 30.3783 32.1017C31.79 32.1017 33.1283 31.8267 34.3383 31.2583C35.4383 30.7633 36.4283 30.1033 37.29 29.2967V30.91C37.29 31.1483 37.2166 31.2033 36.9966 31.2033H36.4466V32.0833H45.0816V31.2033H44.5316C44.2383 31.2033 44.1833 31.1117 44.1833 30.91V17.435C44.1833 17.2333 44.2383 17.1417 44.5316 17.1417H45.0816V16.28L44.825 16.2617C43.4316 16.115 42.1666 15.7117 41.03 15.0517ZM37.3083 27.39C37.3083 27.8483 37.1616 28.1783 36.8683 28.435L36.85 28.4533C36.0433 29.2967 35.0716 29.975 33.9716 30.47C32.8716 30.965 31.68 31.2033 30.3966 31.2033H30.305C29.6816 31.2033 29.1683 31.02 28.7466 30.6533C28.1966 30.0667 27.8666 29.1317 27.775 27.8483C27.665 26.51 27.6283 24.9883 27.665 23.2833V21.1567C27.6283 19.4883 27.665 17.9667 27.775 16.61C27.8666 15.3267 28.1966 14.3917 28.7466 13.8417C29.15 13.4383 29.645 13.255 30.305 13.255H30.3966C31.6433 13.255 32.835 13.4933 33.9533 13.97C35.0716 14.4467 36.0616 15.125 36.905 16.005C37.18 16.28 37.3083 16.6283 37.3083 17.0683V27.39Z" fill="#F26134"></path>
  <path d="M74.7084 15.2534C74.1767 14.7217 73.59 14.2451 72.9484 13.8601C72.49 13.5851 72.0134 13.3284 71.5184 13.1267C70.3267 12.6317 69.0617 12.3934 67.7417 12.3934H67.7234H67.705C67.485 12.3934 67.265 12.4117 67.0267 12.4117C65.45 12.5217 63.9834 12.9617 62.6817 13.7501C62.4617 13.8784 62.2417 14.0251 62.0217 14.1901C61.5817 14.5017 61.16 14.8501 60.775 15.2351C60.7567 15.2534 60.7567 15.2534 60.7384 15.2717C60.115 15.8767 59.4 16.4084 58.63 16.8484C57.4934 17.5084 56.2284 17.9301 54.8534 18.1317C54.6517 18.1684 54.45 18.0034 54.45 17.7834V1.13672H53.6984L53.6067 1.24672C52.855 2.25505 51.8834 3.11672 50.7467 3.77672C49.61 4.43672 48.3267 4.84005 46.97 4.95005L46.7134 4.96839V5.83005H47.2634C47.465 5.83005 47.5567 5.88505 47.5567 6.17839V31.5517C47.5567 32.8534 47.8134 34.1001 48.3267 35.3101C48.84 36.5017 49.555 37.5834 50.49 38.5C52.3967 40.4067 54.7434 41.3784 57.4384 41.3784C58.6667 41.3784 59.8767 41.1584 61.0134 40.7367C61.655 40.48 62.205 40.0584 62.6084 39.49C63.0117 38.9217 63.2317 38.2617 63.2317 37.5467C63.2317 36.6117 62.9017 35.7867 62.2234 35.1084C61.5634 34.4484 60.7384 34.1001 59.785 34.1001C58.8867 34.1001 57.9884 34.4667 57.3467 35.1084C56.6867 35.7684 56.3384 36.5934 56.3384 37.5467C56.3384 38.3901 56.6134 39.1417 57.145 39.7467C57.42 40.0401 57.7134 40.2967 58.0434 40.48C57.8417 40.4984 57.6217 40.4984 57.42 40.4984C56.5767 40.4984 55.7884 40.3884 55.055 40.1867C54.615 40.0767 54.4134 39.8017 54.4134 39.3434V19.3601C54.4134 19.1767 54.5417 19.0301 54.725 19.0117C56.265 18.8101 57.695 18.3517 58.96 17.6184C58.8134 17.8934 58.685 18.1684 58.575 18.4617C58.08 19.6534 57.8417 20.9367 57.8417 22.2567C57.8417 23.5584 58.0984 24.805 58.575 26.0151C59.07 27.2067 59.785 28.2884 60.7017 29.2234C61.6184 30.14 62.7 30.8734 63.91 31.35C65.1017 31.8451 66.3667 32.0834 67.6684 32.0834H67.6867H67.705C69.025 32.0834 70.29 31.8267 71.4817 31.35C71.9767 31.1484 72.4534 30.8917 72.9117 30.5984C73.535 30.2134 74.1217 29.7367 74.6534 29.2051C74.69 29.1684 74.7267 29.1317 74.7634 29.0767L74.8367 29.0034C75.3684 28.4534 75.8267 27.8484 76.1934 27.1884L75.295 26.9134C74.9284 27.5184 74.4884 28.0684 73.9934 28.5634C73.15 29.4067 72.1784 30.0484 71.0967 30.5067C70.8767 30.5984 70.675 30.6901 70.455 30.7634C69.5567 31.0567 68.64 31.2034 67.7234 31.2034H67.6867C67.3934 31.2034 67.1 31.1484 66.8067 31.0567C66.5317 30.965 66.3117 30.8184 66.1284 30.6167C65.67 30.1584 65.3767 29.4434 65.2484 28.49C65.12 27.4817 65.0284 26.2901 65.01 24.9701V23.6134C65.01 23.5951 65.0284 23.5767 65.0284 23.5584L65.065 22.7884L76.615 22.8251H77.5317V22.5317C77.5317 22.4401 77.5317 22.3667 77.5317 22.2751C77.5317 20.9551 77.275 19.6717 76.7984 18.4801C76.3584 17.2517 75.6434 16.1884 74.7084 15.2534ZM70.4367 21.8901H65.1384C65.1384 21.7801 65.1567 21.6517 65.1567 21.5417V21.0834C65.12 19.4151 65.1567 17.8934 65.2667 16.5917C65.3584 15.3267 65.6884 14.4101 66.2567 13.8601C66.44 13.6584 66.6417 13.5117 66.9167 13.4201C67.485 13.2367 68.1084 13.2367 68.64 13.4201C68.8967 13.5117 69.135 13.6584 69.3367 13.8784C69.795 14.3367 70.1067 15.0334 70.2167 15.9501C70.345 16.9034 70.4184 18.0401 70.4184 19.3051V21.8901H70.4367Z" fill="#F26134"></path>
  </svg>