<svg class="header__heading-logo" viewBox="0 0 159 36" fill="currentColor" xmlns="http://www.w3.org/2000/svg">
  <path fill-rule="evenodd" clip-rule="evenodd" d="M3.17881 35.7794H0V0H23.2822V3.10559L3.14496 3.14025L3.17623 16.7033C3.77904 16.4613 4.58269 16.3446 5.68452 16.336C6.10198 16.3347 18.5384 16.3347 18.5384 16.3347V19.4702H5.34604C4.86863 19.4702 4.33222 19.4959 3.96827 19.6877C3.80225 19.7755 3.6588 19.9383 3.52986 20.186C3.31162 20.6061 3.17881 20.8837 3.17881 21.1941V35.7794ZM28.881 35.7794H52.0159V32.6379L32.0591 32.6726V21.2659C32.0591 21.1534 32.053 21.0312 32.044 20.8573L32.0438 20.854L32.0438 20.8538C32.038 20.7493 32.032 20.6402 32.032 20.5348C32.032 20.4464 32.0375 20.3895 32.0404 20.3592L32.0404 20.3591C32.0423 20.3389 32.0431 20.3306 32.0404 20.3326L32.1088 20.194C32.2383 19.9424 32.3821 19.7771 32.5478 19.6887C32.9121 19.4959 33.4498 19.4699 33.9285 19.4699H47.2778V16.3347C46.7736 16.3347 34.5535 16.3347 34.1751 16.3376C33.2889 16.3487 32.6013 16.4323 32.0565 16.598L32.0253 3.13993L52.0155 3.10495V0H28.881V35.7794ZM74.0209 19.4185L74.021 19.4185C74.9136 20.4584 75.8336 21.5301 76.7526 22.564L76.7523 22.5643C78.5526 24.5907 80.2504 26.727 81.8925 28.7931L81.8946 28.7959L87.387 35.7798H83.4639L78.6275 29.7193C76.0502 26.4805 73.3379 23.2143 70.5649 20.0111C70.1658 19.5745 69.5659 18.7569 69.0878 17.8846L68.0121 19.081L64.2237 23.3466C62.5046 25.2785 61.669 27.2135 61.669 29.2627V35.7794H58.4902V0H61.6329L61.6661 21.4653C61.7235 21.3973 61.7725 21.3419 61.8105 21.3006L81.1006 0H85.2826L71.2577 15.5028C71.7441 16.4689 72.3862 17.3914 73.0119 18.2478L73.9168 19.2972L74.0209 19.4185ZM113.343 28.7612L113.347 28.7672V28.7675L113.381 28.8095L118.862 35.7798H114.939L110.103 29.7193C107.532 26.4878 104.819 23.2213 102.04 20.0111C101.641 19.5745 101.041 18.7566 100.563 17.8846L99.4776 19.0921L95.6985 23.3466C93.9794 25.2791 93.1438 27.2141 93.1438 29.2627V35.7794H89.965V0H93.1074L93.1406 21.4653C93.198 21.3976 93.2466 21.3422 93.2847 21.3009L112.576 0H116.758L102.732 15.5028C103.216 16.4651 103.859 17.3889 104.486 18.2481L105.338 19.2361L105.34 19.2387C106.284 20.3372 107.259 21.4728 108.228 22.565C110.023 24.5861 111.71 26.7085 113.343 28.7612ZM137.389 0H135.012L119.99 35.346L119.806 35.7794H123.242L126.774 27.4822C127.091 26.7336 127.236 26.3924 128.761 26.3924H143.675C145.199 26.3924 145.345 26.7349 145.664 27.4863L149.231 35.7794H152.604L137.471 0.191754L137.389 0ZM143.876 23.2709C143.669 23.2617 143.449 23.2572 143.211 23.2572H129.225C128.987 23.2572 128.763 23.2646 128.554 23.2789L133.186 12.3114L136.199 5.23142L143.876 23.2709H143.876ZM155.821 0H158.964L159 35.7794H155.821L155.821 0Z" fill="currentColor"></path>
</svg>