<svg class="header__logo-icon" version="1.1" id="Layer_1" xmlns="http://www.w3.org/2000/svg" xmlns:xlink="http://www.w3.org/1999/xlink" x="0px" y="0px" viewBox="0 0 432 164.2" style="enable-background:new 0 0 432 164.2;" xml:space="preserve">
        <style type="text/css">
        .stlogo{fill:#35A849;}
        </style>
        <g>
        <path d="M148.9,160.6l-0.6-2.6c2.5-0.5,2.6-0.9,2.6-2.2c0-0.3,0-7.5,0-7.5h-1.7v-2.5h4.9c0,0,0,10.2,0,10.4
            C154.2,158.9,153.5,159.7,148.9,160.6z M150.5,144.1v-3.5h3.8v3.5H150.5z"></path>
        <path d="M164.3,156.2l-0.3-1.1c-0.8,0.4-2.6,1.2-4.6,1.2c-1.6,0-2.9-0.9-2.9-3.4c0-1,0.2-2.1,0.9-2.5c1.1-0.6,3.1-0.7,6.5-0.7
            c0-0.2,0-0.7,0-0.9c0-1-0.3-1.4-1.7-1.4c-0.6,0-1.4,0.1-1.9,0.2v1.2h-3.1v-3c0.9-0.2,3.1-0.5,5-0.5c3.7,0,4.9,1,4.9,3.4v4.8h1.3
            v2.5H164.3z M163.9,151.5c-1.9,0-3.1,0.1-3.7,0.3c-0.4,0.1-0.5,0.5-0.5,1.2c0,1,0.4,1.2,1.2,1.2c0.9,0,2.4-0.4,2.9-0.6V151.5z"></path>
        <path d="M175.8,156.4c-4.1,0-6-1.1-6-5.5c0-4.3,1.9-5.5,6-5.5c2.3,0,3.6,0.3,4.8,0.6v3.7h-3.1v-1.8c-0.5-0.1-1-0.2-1.7-0.2
            c-2,0-2.7,0.6-2.7,3.2s0.7,3.3,2.7,3.3c0.8,0,1.2,0,1.7-0.2v-1.9h3.1v3.7C179.6,156.1,178.1,156.4,175.8,156.4z"></path>
        <path d="M190.9,156.2v-1.9l-2-2.4l-1.6,1.2v0.7h1.4v2.3h-6v-2.5h1.4v-11.6h-1.4v-2.5h4.6v11.2c0.3-0.3,0.8-0.7,1.4-1.1l2.4-1.8
            h-1.2v-2.1h5.3v2.5h-1.4l-2.4,1.8c0,0,3,3.6,3,3.6h1.6v2.5H190.9z"></path>
        <path d="M202.5,156.4c-2.1,0-3.9-0.2-5-0.5v-3.1h3v1.5c0.7,0.1,1.4,0.2,2,0.2c2.1,0,2.3-0.2,2.3-1.2c0-0.9-0.3-0.9-2.7-1.2
            c-3.9-0.3-4.7-0.8-4.7-3.4c0-2.4,1.6-3.2,5-3.2c1.8,0,3.8,0.2,5,0.6v2.9h-3v-1.4c-0.6-0.1-1.5-0.2-2-0.2c-1.6,0-1.9,0.2-1.9,1
            c0,1,0.3,1,2.9,1.2c3.8,0.3,4.6,0.7,4.6,3.4C207.9,155.8,206.4,156.4,202.5,156.4z"></path>
        <path d="M215.3,156.4c-4.1,0-5.9-1.2-5.9-5.5c0-4.2,1.8-5.5,5.9-5.5c4.2,0,5.9,1.2,5.9,5.5C221.2,155.1,219.5,156.4,215.3,156.4z
                M215.3,147.7c-1.9,0-2.6,0.6-2.6,3.2c0,2.6,0.8,3.3,2.6,3.3c1.9,0,2.6-0.7,2.6-3.3C218,148.4,217.2,147.7,215.3,147.7z"></path>
        <path d="M230.6,156.2c0-0.2,0-2.5,0-2.5h1.2c0,0,0-4.2,0-4.5c0-0.9-0.3-1.2-1.4-1.2c-0.9,0-2.2,0.3-2.8,0.6v5h1.2v2.5H223v-2.5h1.4
            v-5.4H223v-2.5h4.2l0.3,1c0.9-0.5,3-1.3,4.6-1.3c2,0,3,0.8,3,2.7v5.5h1.4v2.5H230.6z"></path>
        <path d="M252.1,156.2c0-0.3,0-2.5,0-2.5h1.2c0,0,0-4.2,0-4.5c0-0.9-0.3-1.2-1.4-1.2c-0.9,0-2.2,0.3-2.8,0.6v5h1.2v2.5h-5.8v-2.5
            h1.4v-11.6h-1.4v-2.5h4.6v7.1c0.9-0.4,2.9-1.2,4.4-1.2c2,0,3,0.8,3,2.7v5.5h1.4v2.5H252.1z"></path>
        <path d="M265.2,156.4c-4.1,0-5.9-1.2-5.9-5.5c0-4.2,1.8-5.5,5.9-5.5c4.2,0,5.9,1.2,5.9,5.5C271.1,155.1,269.4,156.4,265.2,156.4z
                M265.2,147.7c-1.9,0-2.6,0.6-2.6,3.2c0,2.6,0.8,3.3,2.6,3.3c1.9,0,2.6-0.7,2.6-3.3C267.9,148.4,267.1,147.7,265.2,147.7z"></path>
        <path d="M272.7,156.2v-2.5h1.7v-11.6h-1.7v-2.5h4.9v14.1h1.8v2.5H272.7z"></path>
        <path d="M284.2,151.5c0,2.4,0.9,2.9,2.7,2.9c0.8,0,1.3-0.1,1.7-0.2v-1.3h3.1v3c-0.7,0.2-2.4,0.5-4.8,0.5c-4.1,0-5.9-1.2-5.9-5.5
            c0-4.4,2-5.5,5.6-5.5c4.1,0,5.3,1,5.3,4.8c0,0.2,0,1,0,1.2H284.2z M286.5,147.6c-1.4,0-2,0.3-2.3,2.2h4.6
            C288.7,147.9,288.3,147.6,286.5,147.6z"></path>
        <path d="M296.1,159.3l-1.7-0.9l1.2-6.6l3.6,2.1L296.1,159.3z"></path>
        <path d="M325.6,148.3l-2.6,8h-3.3l-2.3-5.5l-2.2,5.5h-3.3l-2.7-8H308v-2.5h6.1v2.4h-1.6l0.7,2.4c0.2,0.7,0.7,2.5,0.8,3
            c0.1-0.5,0.8-2.4,1-3l1.3-3.4h2.9l1.3,3.4c0.2,0.6,0.9,2.4,1,3c0.1-0.6,0.6-2.3,0.8-3l0.7-2.5h-1.6v-2.4h5.4v2.5H325.6z"></path>
        <path d="M340.6,148.3l-5.1,9.9h1.7v2.4h-6.8v-2.4h2.3l0.9-1.8l-4.4-8.1h-1.2v-2.5h6.4v2.4h-1.7l1.3,2.5c0.3,0.7,1.2,2.5,1.4,2.9
            c0.2-0.4,1-2.2,1.4-2.9l1.2-2.5h-1.7v-2.4h5.6v2.5H340.6z"></path>
        <path d="M348.7,156.4c-4.1,0-5.9-1.2-5.9-5.5c0-4.2,1.8-5.5,5.9-5.5c4.2,0,5.9,1.2,5.9,5.5C354.6,155.1,352.8,156.4,348.7,156.4z
                M348.7,147.7c-1.9,0-2.6,0.6-2.6,3.2c0,2.6,0.8,3.3,2.6,3.3c1.9,0,2.6-0.7,2.6-3.3C351.3,148.4,350.6,147.7,348.7,147.7z"></path>
        <path d="M371.1,156.2c0-0.2,0-2.5,0-2.5h1.1c0,0,0-4.2,0-4.5c0-0.9-0.2-1.2-1.3-1.2c-0.9,0-2.1,0.3-2.7,0.6c0,0,0,5,0,5h1.1v2.5
            h-5.4c0-0.2,0-2.5,0-2.5h1.1c0,0,0-4.2,0-4.5c0-0.9-0.2-1.2-1.3-1.2c-1,0-2.1,0.3-2.7,0.6v5h1.1v2.5h-5.7v-2.5h1.4v-5.4h-1.4v-2.5
            h4.2l0.3,1c1.1-0.5,2.7-1.3,4.5-1.3c1.4,0,2.2,0.5,2.6,1.3c1.4-0.7,3.1-1.3,4.7-1.3c2,0,2.9,0.8,2.9,2.8v5.3h1.4v2.5H371.1z"></path>
        <path d="M378.2,156.2v-2.5h1.7v-5.4h-1.7v-2.5h4.9v7.9h1.6v2.5H378.2z M379.5,144.1v-3.5h3.8v3.5H379.5z"></path>
        <path d="M393.8,156.2c0-0.2,0-2.5,0-2.5h1.2c0,0,0-4.2,0-4.5c0-0.9-0.3-1.2-1.4-1.2c-0.9,0-2.2,0.3-2.8,0.6v5h1.2v2.5h-5.8v-2.5
            h1.4v-5.4h-1.4v-2.5h4.2l0.3,1c0.9-0.5,3-1.3,4.6-1.3c2,0,3,0.8,3,2.7v5.5h1.4v2.5H393.8z"></path>
        <path d="M402.3,160.7c-0.3,0-0.7,0-1,0v-3.5h3.2v1.4c4.7,0,5-0.3,5-1.4c0-1-0.3-1.2-6.9-1.4l0.4-3.2c-1.8-0.5-2.3-1.2-2.3-3.3
            c0-2.9,0.9-3.8,5.5-3.8c1.2,0,2.2,0.1,2.8,0.2l0.7-1.5l2.7,1.1l-1,2.2c0.1,0.3,0.2,1.1,0.2,1.7c0,2.9-0.8,3.6-5.5,3.6
            c-0.2,0-0.3,0-0.4,0l-0.1,1.1c6,0.2,7,0.6,7,3.1C412.7,160,412,160.7,402.3,160.7z M408.4,147.8c-0.5-0.1-1.3-0.1-2.3-0.1
            c-1.8,0-2.3,0.2-2.3,1.7c0,1.5,0.4,1.7,2.4,1.7c2,0,2.4-0.1,2.4-1.7C408.6,148.7,408.5,148.2,408.4,147.8z"></path>
        </g>
        <g>
        <path class="stlogo" d="M32.4,44.9L30,43c0.2-1.5,0.6-2.6,0.6-2.6l3.1-5l5.5-7.5c0,0,2.8-3,3.1-3.1c0.3-0.2,0.8-0.2,1.7,0
            c0.9,0.2,2.4,1.6,2.4,1.6s9.3,7.3,9.7,7.7c0.4,0.4,1,0.9,1.5,1.6C52.8,40,46.2,46.3,45.5,47c-1,1.1-2.7,2.6-3,3.8
            c-0.2,0.6-0.5,2.3-0.8,3.8l-2.8-1.8c0-1.4-0.1-2.7-0.3-3.2C37.7,48.3,32.4,44.9,32.4,44.9z M10.4,96.8l2.7,7
            c0.3,0.2,0.6,0.3,0.9,0.5c2.3,1.2,5.2,1.7,6.9,2.7c2.1-1.6,4.7-3.5,5.7-4.4c1.8-1.6,3.3-3.1,5.1-3.7c1.6-0.5,2.5,0.3,5.4,0.9
            c-1.2-2.2-2.4-4.2-2.8-5c-1-1.8-2.2-3.8-3.8-4.1c-1.6-0.4-7.8-2-10.7-2.9c-2.9-1-5.4-2.4-7.3-3.2c-2-0.8-2.4-1.8-3.4-1.3
            c-1,0.5-1,2.9-0.8,4.8C8.4,90,10.4,96.8,10.4,96.8z M11.4,80.2c2.4,1,5.4,2.7,8.9,3.9c0.5,0.1,1,0.3,1.5,0.5
            c-0.1-1.1-0.2-2-0.3-2.4c-0.1-1.3,0-2.8-0.6-3.7c-0.6-0.9-4-3.5-5.6-4.6c-1.6-1.1-3.6-4.1-4.2-4c-0.6,0-0.6,1-0.9,2.9
            c-0.3,1.9-0.2,2.7,0.1,7C10.7,79.9,11,80,11.4,80.2z M26.1,132.7c-3.8-2.8-8.3-6.1-8.8-6.5c-1-0.7-2.2-0.8-4.7-0.9
            c-2.5-0.1-4.1-1.9-4.8-1.6C7,124,8,124.3,8,124.3l11.2,7c1.3,0.2,2.3,0.5,2.3,0.5S23.6,132.1,26.1,132.7z M37.5,138.9
            c0,0-1-0.6-2.9-1.3c-1.9-0.6-9.4-2.4-9.4-2.4s-4-1.4-4.5-1.3c-0.5,0.2-0.5,0.2-0.5,0.2l6.9,3.7l20.2,9.4l3.3,0.8l-4.8-4L37.5,138.9
            z M21.5,75c0-1.2,0-2,0-2.4c0-1.3,1.3-3.7,1.3-3.7s9.1-13.9,9.7-14.8c0.5-0.8,1.4-2.1,2.4-2.7c-1.3-0.9-2.5-1.7-2.5-1.7L25.2,44
            c0,0-0.8-1.1-1.7,0.2c-0.8,1.3-4.7,14.4-4.7,14.4l-1.1,9.5l0.1,4C19.4,73.3,20.9,74.4,21.5,75z M17.3,120.6c2.2,0.3,5,0.6,6.1,0.7
            c0.7,0.1,2.9,0.3,5.4,0.5c-1.3-2.5-3.2-6-4.3-7.6c-1.8-2.6-2-3.2-2.8-3.9c-0.7-0.7-0.5-0.9-2.4-1.5c-1.9-0.5-4-0.7-7.2-2.2
            c-3.2-1.5-3.4-1.6-4.3-2.2c-0.5-0.3-1-0.9-1.6-1.2c-0.1-0.1-0.9-0.2-0.8,0.3c0,0.1,0.4,0.8,0.5,0.9l5.7,8L17.3,120.6z M39,125.6
            c-1.5,0-9.7-0.8-11-0.9c-1.4-0.2-6.1-0.8-6.1-0.8s-1.6-0.3-2.2,0.5c-0.6,0.8-0.5,1.1-0.2,1.6c0.2,0.3,5.3,4.1,10,7.6
            c1.5,0.4,3.9,1.3,3.9,1.3c1-0.4,4.9-3.1,6.1-3.6c1.2-0.5,2.9-0.4,4.5-0.2c0.2,0,0.6,0.1,1,0.1c-1.8-2-3.4-3.9-3.5-4
            C41.3,126.8,40.5,125.6,39,125.6z M62.5,116.3l-1.1-5.8c0,0-0.5-3-1.8-3.3c-1.3-0.3-1.7-0.5-4.3-0.7c-2.1-0.2-13.6-2.2-16.8-2.7
            c-3.2-0.5-4-1.4-5.5-1c-1.5,0.5-2.7,1.8-4.2,3c-0.9,0.8-3.3,2.5-5,3.8c0.4,0.5,0.6,0.8,0.6,0.8s4,6.5,7.2,11.6
            c3.4,0.3,6.8,0.5,7.8,0.5c2.2,0,3.3,1.7,3.7,2.2c0,0,0,0,0.1,0.1l0.3,0.1l0.1-0.1c0-0.2,0-0.3,0-0.4c0-1.3,0.7-1.8,0.9-1.9
            c0.9-0.4,7.7-2.4,9.3-2.9C55.3,119.2,59.9,117.4,62.5,116.3z M36.4,56.6c-1.1,0.3-1.8,1.5-2.3,2.2c-0.9,1.2-0.8,1-9.2,13.3
            c0,0-0.9,1.1-0.8,3.5c0.1,1.1,0.2,5.9,0.3,9.9c3.5,0.9,7.9,2,9.8,2.5c1.4,0.4,2.4,2.3,2.9,4l0.1,0.1l0.2-0.2c0-0.8,0.1-3.8,0.4-4.9
            c0.4-1.3,2.3-2.5,2.3-2.5l19.8-12.4c0-0.3,0-1.1-0.8-1.9c-1-1.1-10.6-6.8-10.6-6.8l-9.4-5.9C39.1,57.4,37.4,56.2,36.4,56.6z
                M64.4,36.6C64.3,36.6,64.3,36.6,64.4,36.6c-0.3,0-0.6,0.1-1,0.2c-1.2,0.4-13.9,12.4-14.8,13.3c-0.9,0.9-2.3,2.2-2.6,3.2
            c-0.2,0.6-0.5,2.2-0.8,3.5l3.9,2.5c0,0,11,6.7,12.1,7.9c0.8,0.8,1.4,2.4,1.8,3.2c0.4-0.2,0.8-0.3,1.1-0.3c0.1,0,0.2,0,0.3,0h0.1
            c0.1,0,0.2,0,0.3,0c0.3,0,0.7,0.2,1.1,0.3c0.3-0.9,1-2.4,1.7-3.2c1.1-1.2,12.1-7.9,12.1-7.9l3.9-2.5c-0.3-1.3-0.6-3-0.8-3.5
            c-0.3-1-1.7-2.3-2.6-3.2c-0.9-0.9-13.6-12.9-14.8-13.3C65,36.7,64.7,36.6,64.4,36.6C64.4,36.6,64.4,36.6,64.4,36.6z M60,33
            c0.1,0.1,0.1,0.3,0.2,0.4c1.4-1.2,2.5-2.1,2.8-2.2c0.6-0.2,1.4-0.3,1.4-0.3c0,0,0,0,0.1,0c0,0,0.1,0,0.1,0c0.4,0,0.8,0.1,1.4,0.3
            c0.3,0.1,1.4,1,2.8,2.2c0.1-0.1,0.1-0.2,0.2-0.4c0.6-1,1.4-1.5,1.9-2c0.5-0.5,8.5-6.9,10.7-8.7c0-0.1-0.1-0.2-0.1-0.3
            c-0.3-0.9-1.5-2.1-2.3-2.9c-0.8-0.8-12.3-11.6-13.3-12c-0.6-0.2-0.9-0.3-1.3-0.2c-0.4-0.1-0.7,0-1.3,0.2c-1,0.4-12.6,11.1-13.3,12
            c-0.8,0.8-2,2-2.3,2.9c0,0.1-0.1,0.2-0.1,0.3c2.3,1.8,10.2,8.2,10.7,8.7C58.6,31.5,59.4,32,60,33z M71.1,35.6
            C76,40,82.6,46.3,83.2,47c1,1.1,2.7,2.6,3,3.8c0.2,0.6,0.5,2.3,0.8,3.8l2.8-1.8c0-1.4,0.1-2.7,0.3-3.2c0.8-1.3,6-4.7,6-4.7l2.4-1.9
            c-0.2-1.5-0.6-2.6-0.6-2.6l-3.1-5l-5.5-7.5c0,0-2.8-3-3.1-3.1c-0.3-0.2-0.8-0.2-1.7,0c-0.9,0.2-2.4,1.6-2.4,1.6S73,33.5,72.6,34
            C72.2,34.4,71.5,34.9,71.1,35.6z M108.9,87.8c-2.9,1-9.1,2.5-10.7,2.9c-1.6,0.4-2.8,2.3-3.8,4.1c-0.4,0.8-1.6,2.8-2.8,5
            c2.9-0.6,3.8-1.5,5.4-0.9c1.8,0.6,3.3,2.2,5.1,3.7c1,0.9,3.7,2.8,5.7,4.4c1.7-1.1,4.6-1.5,7-2.7c0.3-0.2,0.6-0.3,0.9-0.5l2.7-7
            c0,0,2-6.8,2.1-8.7c0.2-1.9,0.2-4.3-0.8-4.8c-1-0.5-1.5,0.5-3.4,1.3C114.3,85.4,111.8,86.8,108.9,87.8z M107.8,78.5
            c-0.6,0.9-0.5,2.4-0.6,3.7c0,0.4-0.1,1.3-0.2,2.4c0.5-0.2,1.1-0.3,1.5-0.5c3.6-1.2,6.5-2.9,8.9-3.9c0.3-0.1,0.7-0.3,1-0.4
            c0.4-4.3,0.4-5.1,0.1-7c-0.3-1.9-0.3-2.9-0.8-2.9c-0.6-0.1-2.6,2.9-4.2,4C111.8,74.9,108.4,77.5,107.8,78.5z M121,123.7
            c-0.8-0.3-2.3,1.5-4.8,1.6c-2.6,0.1-3.7,0.2-4.7,0.9c-0.6,0.4-5,3.7-8.8,6.5c2.5-0.6,4.6-0.9,4.6-0.9s1.1-0.2,2.3-0.5l11.2-7
            C120.7,124.3,121.8,124,121,123.7z M103.6,135.2c0,0-7.5,1.8-9.5,2.4c-1.9,0.6-2.9,1.3-2.9,1.3l-8.3,5.1l-4.8,4l3.3-0.8l20.2-9.4
            l6.9-3.7c0,0,0,0-0.5-0.2C107.6,133.7,103.6,135.2,103.6,135.2z M93.9,51.4c1,0.6,1.8,1.9,2.4,2.7c0.6,0.9,9.7,14.8,9.7,14.8
            s1.4,2.5,1.3,3.7c0,0.4,0,1.3,0,2.4c0.5-0.6,2-1.8,3.6-2.9l0.1-4l-1.1-9.5c0,0-3.8-13-4.7-14.4c-0.8-1.3-1.7-0.2-1.7-0.2l-7.1,5.7
            C96.4,49.7,95.1,50.5,93.9,51.4z M122.5,103.5c-0.5,0.2-1.1,0.9-1.6,1.2c-0.9,0.6-1.1,0.7-4.3,2.2c-3.2,1.5-5.4,1.6-7.2,2.2
            c-1.9,0.5-1.6,0.7-2.4,1.5c-0.7,0.7-1,1.3-2.8,3.9c-1.1,1.6-3,5.1-4.3,7.6c2.5-0.2,4.7-0.4,5.4-0.5c1.1-0.1,4-0.5,6.1-0.7l5.6-7.9
            l5.7-8c0.1-0.1,0.5-0.8,0.5-0.9C123.4,103.3,122.6,103.4,122.5,103.5z M87.2,127.1c-0.1,0.1-1.7,2-3.5,4c0.4-0.1,0.7-0.1,1-0.1
            c1.6-0.2,3.3-0.4,4.5,0.2c1.2,0.5,5.1,3.3,6.1,3.6c0,0,2.4-0.9,3.9-1.3c4.7-3.5,9.9-7.4,10-7.6c0.3-0.5,0.4-0.8-0.2-1.6
            c-0.6-0.8-2.2-0.5-2.2-0.5s-4.8,0.6-6.1,0.8c-1.3,0.2-9.5,0.9-11,0.9C88.2,125.6,87.5,126.8,87.2,127.1z M105,109.7
            c-1.7-1.3-4.1-3-5-3.8c-1.5-1.3-2.8-2.6-4.2-3c-1.5-0.5-2.3,0.5-5.5,1c-3.2,0.5-14.7,2.5-16.8,2.7c-2.6,0.2-3,0.4-4.3,0.7
            c-1.3,0.3-1.8,3.3-1.8,3.3l-1.1,5.8c2.6,1.1,7.2,2.9,8.7,3.3c1.7,0.5,8.4,2.6,9.3,2.9c0.2,0.1,0.9,0.6,0.9,1.9c0,0.1,0,0.3,0,0.4
            l0.1,0.1l0.2-0.1c0,0,0,0,0-0.1c0.4-0.4,1.5-2.2,3.7-2.2c1.1,0,4.4-0.3,7.9-0.5c3.2-5.2,7.2-11.6,7.2-11.6S104.6,110.2,105,109.7z
                M90.9,87c0.3,1.1,0.4,4.1,0.4,4.9l0.2,0.2l0.1-0.1c0.6-1.7,1.5-3.6,2.9-4c1.9-0.5,6.3-1.6,9.8-2.5c0.1-4.1,0.3-8.8,0.3-9.9
            c0.2-2.3-0.7-3.5-0.7-3.5c-8.3-12.2-8.3-12.1-9.2-13.3c-0.5-0.7-1.3-1.9-2.3-2.2c-1.1-0.3-2.8,0.8-2.8,0.8l-9.4,5.9
            c0,0-9.6,5.8-10.6,6.8c-0.8,0.9-0.8,1.7-0.8,1.9l19.8,12.4C88.6,84.5,90.5,85.7,90.9,87z M79.6,144.6l11.3-7c0,0,0.4-0.2,1.1-0.7
            c-0.1,0-0.1-0.1-0.2-0.1c-0.8-0.3-3.8-2.7-4.8-3.2c-1-0.5-2.2-0.3-3.5-0.2c-1.3,0.2-5.9,1.1-8.3,1.6c-2.4,0.5-7.4,1-8.7,1.4
            c-1.3,0.5-1.3,1.8-1.3,1.8l-0.8,4.4l-0.8-4.4c0,0,0-1.3-1.3-1.8c-1.3-0.5-6.2-1-8.7-1.4c-2.4-0.5-7-1.4-8.3-1.6
            c-1.3-0.2-2.6-0.3-3.5,0.2c-1,0.5-4,2.9-4.8,3.2c-0.1,0-0.1,0.1-0.2,0.1c0.7,0.5,1.1,0.7,1.1,0.7l11.2,7l2.3,1.8
            c0.9,1.2,0.7,2.1,0.7,2.1s2.5,0.5,5.3,3c2.8,2.5,4.7,4.4,5.3,4.5c0.3,0.1,0.9,0.1,1.4,0.2v0c0,0,0,0,0.1,0c0,0,0,0,0.1,0v0
            c0.6,0,1.1-0.1,1.4-0.2c0.6-0.2,2.5-2.1,5.3-4.5c2.8-2.5,5.3-3,5.3-3s-0.1-0.9,0.7-2.1L79.6,144.6z M64.4,134.1
            C64.4,134.1,64.4,134.1,64.4,134.1c2.6-0.5,7.2-0.9,9.7-1.3c1.9-0.3,4.8-0.9,7.2-1.3c0.4-1.4,0.8-3.2,1-4.1
            c0.4-2.1-0.4-2.3-1.2-2.6c-0.8-0.3-6-2.1-7.5-2.4c-2.4-0.6-7.6-2.4-8.7-2.9c-0.1-0.1-0.3-0.1-0.5-0.1c0,0,0,0-0.1,0
            c0,0-0.1,0-0.1,0c-0.2,0-0.3,0.1-0.5,0.1c-1.1,0.5-6.4,2.2-8.7,2.9c-1.4,0.4-6.6,2.2-7.5,2.4c-0.8,0.3-1.7,0.5-1.2,2.6
            c0.2,0.9,0.6,2.7,1,4.1c2.4,0.4,5.3,0.9,7.2,1.3C57.1,133.2,61.8,133.7,64.4,134.1C64.3,134.1,64.3,134.1,64.4,134.1z M64.6,108.7
            c0,0,0.3-4.4,1.8-4.8c1.6-0.4,0.4-0.1,3.5-0.5c2.5-0.3,11.4-1.9,16.9-2.8l0.5-6.5c0,0,0.2-3.2-0.1-4.3C87,88.6,85,87.5,85,87.5
            L68.2,76.6c0,0-2.1-1.4-3.4-1.6c-0.1,0-0.3,0-0.4,0c-0.2,0-0.3,0-0.5,0c-1.3,0.2-3.4,1.6-3.4,1.6L43.7,87.5c0,0-2,1.2-2.3,2.3
            c-0.3,1.1-0.1,4.3-0.1,4.3l0.5,6.5c5.5,0.9,14.4,2.4,16.9,2.8c3.1,0.4,2,0.1,3.6,0.5c1.6,0.4,1.8,4.8,1.8,4.8l0.2,0.5L64.6,108.7z"></path>
        </g>
        <g>
        <g>
            <path d="M341.5,111.3V61.4c0-10.7,6.5-17.4,17.2-17.4h36.6c10.8,0,17.3,6.8,17.3,17.4v50.2c0,10.7-7.4,17.6-18.2,17.6h-34.9
                C348.9,129.3,341.5,122,341.5,111.3z M391.5,66.8c0-2.8-2.2-4.8-5-4.8h-18.9c-2.7,0-5,2-5,4.8v39.3c0,2.8,2.2,4.8,5,4.8h18.9
                c2.7,0,5-2,5-4.8V66.8z"></path>
        </g>
        <path d="M320.5,33.6c0,1.5-1.2,2.8-2.8,2.8h-15.4c-1.5,0-2.8-1.2-2.8-2.8V20.1c0-1.5,1.2-2.7,2.8-2.7h15.4c1.5,0,2.8,1.2,2.8,2.7
            V33.6z"></path>
        <path d="M329.4,110.8h-5.2c-2,0-3.6-1.6-3.6-3.6V47.6c0-2-1.6-3.6-3.6-3.6h-26.5c-2,0-3.6,1.6-3.6,3.6V58c0,2,1.6,3.6,3.6,3.6h5.6
            c2,0,3.6,1.6,3.6,3.6v41.9c0,2-1.8,3.7-3.8,3.7l-32.9,0c-4.2,0-7.3-1.3-8.8-4c-1-1.7-1-2.5-1-2.5c-0.2-2-0.3-5.2-0.3-7.2V65.3
            c0-2,1.6-3.6,3.6-3.6h18.2c2,0,3.6-1.6,3.6-3.6V47.6c0-2-1.6-3.6-3.6-3.6h-18.2c-2,0-3.6-1.6-3.6-3.6V18.8c0-2-1.5-3-3.3-2.2
            l-14.1,6.1c-1.8,0.8-3.3,2-3.3,4.2v13.5c0,2-1.6,3.6-3.6,3.6c-50.6,0-59.7,0-65.6,0c-8.2,0-15,5.3-15,14.3l-0.1,16.6
            c0,15.7,8.5,16.5,18.7,18.2c6.1,1,15,2.3,22.4,3.4c6.6,1,6.2,5.6,6.3,6.8c0.1,1,0,3.2,0,4c0,2.4-1.7,3.6-3.8,3.6
            c-5.5,0-13.5,0-19.8,0c-2.6,0-3.9-1.6-3.9-3.9c0-0.1,0-0.6,0-0.8c0-3-1.1-4.5-4.9-4.5c-3.9,0-6.2,0-9.4,0c-3.6,0-5.2,2.2-5.2,4.9
            c0,2.9,0,7.6,0,10.2c0,12.5,10.8,12.4,16.9,12.4l31.3,0c18.2,0,19.4-6.1,19.4-18c0-0.3,0-12.8,0-15.2c-0.1-9.5-4.4-14.2-13.5-15.7
            c0,0-26.5-4.1-27.1-4.2c-3.9-0.6-6.3-1.3-6.6-6c0-0.7,0-3.7,0-4.8c0-2.5,2-3.7,4.4-3.7l55.8,0c1.9,0.1,3.4,1.7,3.4,3.6v39.5
            c0,5.4,1,9.8,2.9,13.2c4.2,8,12.4,11.3,22.6,11.3c4.2,0,48.4,0.1,52.5,0c0.1,0,0.1,0,0.2,0h19.2c2,0,3.6-1.6,3.6-3.6v-11.2
            C333,112.4,331.4,110.8,329.4,110.8z"></path>
        <g>
            <path d="M422.1,51l-1.1-1.7c0.2-0.1,0.4-0.2,0.6-0.4c0.2-0.2,0.4-0.6,0.4-1.2c0-0.6-0.2-1-0.4-1.2c-0.5-0.5-1.1-0.5-1.1-0.5h-1.8
                c-0.3,0-0.5,0.2-0.5,0.5v4.6c0,0.3,0.2,0.5,0.5,0.5c0.3,0,0.5-0.2,0.5-0.5v-1.9h0.4l1.5,2.2c0.1,0.2,0.3,0.2,0.4,0.2
                c0.1,0,0.2,0,0.3-0.1C422.2,51.6,422.3,51.3,422.1,51z M419.2,47.3h1.2c0.3,0,0.5,0.2,0.5,0.5c0,0.3-0.1,0.4-0.2,0.4
                c-0.1,0.1-0.2,0.1-0.3,0.1l0,0h-1.2V47.3z"></path>
            <path d="M420.2,54.1c-2.8,0-5-2.3-5-5.1c0-2.8,2.3-5,5-5c2.8,0,5.1,2.3,5.1,5C425.2,51.8,423,54.1,420.2,54.1z M420.2,45.1
                c-2.2,0-4,1.8-4,4c0,2.2,1.8,4,4,4c2.2,0,4-1.8,4-4C424.1,46.9,422.3,45.1,420.2,45.1z"></path>
        </g>
        </g>
    </svg>