<svg class="logo-image" viewBox="0 0 100 25" xmlns="http://www.w3.org/2000/svg"><title>Breakaway Matcha Logo</title><path d="M8.308 8.736c0 1.744-1.616 3.376-4.768 3.376-.992 0-2.16-.096-3.168-.224V.4A22.517 22.517 0 0 1 3.38.176c3.088 0 4.608 1.504 4.608 3.072 0 1.232-.576 2.128-2.048 2.672 1.712.48 2.368 1.52 2.368 2.816zM5.924 3.584c0-.976-.72-1.68-2.192-1.68-.496 0-.992.048-1.392.112v3.248c.288.032.688.048 1.184.048 1.696 0 2.4-.752 2.4-1.728zm.24 4.944c0-1.008-.88-1.792-2.608-1.792-.416 0-.944.016-1.216.048v3.52c.4.048.88.08 1.424.08 1.6 0 2.4-.752 2.4-1.856zM19.316 12h-2.32l-2.56-4.224c-.208.016-.4.016-.624.016-.384 0-.784-.016-1.168-.032V12h-2V.384a24.926 24.926 0 0 1 3.088-.192c3.328 0 4.8 1.616 4.8 3.696 0 1.52-.832 2.752-2.288 3.392L19.316 12zM16.42 3.984c0-1.184-.896-2-2.432-2-.48 0-.944.016-1.344.096v4c.368.048.768.064 1.152.064 1.744 0 2.624-.816 2.624-2.16zM28.308 12h-7.152V.272h7.152v1.824h-5.152v3.072h4.656v1.76h-4.656v3.248h5.152V12zm12.512 0h-2.112l-1.136-2.688c-2.376-.334-3.923-.334-4.64 0-.717.334-1.096 1.23-1.136 2.688h-2.064L35.14.112h.288L40.82 12zm-3.904-4.272l-1.664-3.92-1.664 3.92h3.328zM51.732 12h-2.48l-4.8-5.632V12h-2V.272h2v5.28L49.06.272h2.416l-5.12 5.632L51.732 12zm11.632 0h-2.112l-1.136-2.688h-4.64L54.34 12h-2.064L57.684.112h.288L63.364 12zM59.46 7.728l-1.664-3.92-1.664 3.92h3.328zM78.66.272l-3.712 11.92-.32.032-3.648-8.16-3.6 8.16-.304-.032-3.76-11.92h2.208l2.112 7.392L70.9.176h.224l3.28 7.44 2.08-7.344h2.176zM89.54 12h-2.112l-1.136-2.688h-4.64L80.516 12h-2.064L83.86.112h.288L89.54 12zm-3.904-4.272l-1.664-3.92-1.664 3.92h3.328zM99.268.272l-4.128 6.8V12h-2V7.056L89.012.272H91.3l2.88 4.96 2.848-4.96h2.24zM32.696 24.1H31.22l-.12-5.268-2.772 4.2h-.18l-2.796-4.212-.096 5.28H23.78l.372-8.904.228-.024 3.9 5.832 3.804-5.832.24.024.372 8.904zm9.52 0h-1.584l-.852-2.016H36.3l-.852 2.016H33.9l4.056-8.916h.216l4.044 8.916zm-2.928-3.204l-1.248-2.94-1.248 2.94h2.496zm9.952-4.224h-2.784V24.1h-1.5v-7.428H42.16v-1.368h7.08v1.368zm8.452 6.744a5.493 5.493 0 0 1-2.868.828c-2.784 0-4.74-1.92-4.74-4.536 0-2.604 1.98-4.548 4.74-4.548 1.092 0 2.088.348 2.832.804l-.516 1.272c-.696-.396-1.56-.672-2.34-.672-1.932 0-3.108 1.284-3.108 3.144 0 1.848 1.212 3.132 3.144 3.132.78 0 1.692-.276 2.4-.696l.456 1.272zm8.764.684h-1.5v-3.78h-4.044v3.78h-1.5v-8.796h1.5v3.672h4.044v-3.672h1.5V24.1zm9.64 0h-1.584l-.852-2.016h-3.48l-.852 2.016H67.78l4.056-8.916h.216l4.044 8.916zm-2.928-3.204l-1.248-2.94-1.248 2.94h2.496z"></path></svg>