<svg width="120" height="34" class="main-logo" viewBox="0 0 120 34" fill="none" xmlns="http://www.w3.org/2000/svg">
<g clip-path="url(#clip0_131_142)">
<path d="M16.1578 28.9021C16.1578 33.2712 11.3039 33.9997 8.14646 33.9997C6.50549 34.0039 4.87187 33.794 3.29255 33.3758L0.918554 33.8197H0.272096V27.1623H0.951424L7.29912 33.1461C7.42078 33.2478 7.5781 33.304 7.74105 33.3038C9.64207 33.3038 10.0493 32.4176 10.0493 31.468C10.0493 30.0436 9.13623 29.1249 7.80862 28.681L5.29584 27.7622C2.13842 26.6224 0 25.102 0 22.2532C0 18.2321 4.27684 17.0288 7.73923 17.0288C9.33289 17.0417 10.9184 17.2439 12.458 17.6304L14.832 17.1865H15.4766V23.5816H14.7973L8.4149 17.7539C8.35961 17.7081 8.29504 17.6733 8.22507 17.6515C8.15509 17.6297 8.08115 17.6213 8.00767 17.627C6.37874 17.627 5.86925 18.6726 5.86925 19.8433C5.86925 21.2368 6.61614 21.8693 8.58473 22.5978L11.0975 23.4839C14.1198 24.5964 16.1578 26.0842 16.1578 28.9021Z" fill="#000"></path>
<path d="M31.501 28.1104C31.0262 31.3088 29.1581 33.9999 25.493 33.9999C22.3356 33.9999 19.6493 32.0681 19.6493 28.2064V18.1054H17.8232V17.4729H19.6493L25.7943 12.3428H26.5503V17.4729H31.2983V18.1054H26.5503V28.5217C26.5503 29.8519 27.2972 30.738 28.4513 30.738C29.673 30.738 30.4199 29.8519 30.8947 28.0144L31.501 28.1104Z" fill="#000"></path>
<path d="M49.9673 17.4356V24.4015H49.2204L44.0597 20.1952C43.0078 20.7334 42.124 22.9188 42.124 25.3253V30.8103L45.6539 32.8998V33.5322H32.9238V32.8998L35.2321 30.8052V20.1952L32.9238 18.1057V17.4733H42.124V21.6521H42.2555C42.9001 19.1822 44.4961 17.1956 47.7558 17.1956C48.5014 17.1766 49.246 17.2574 49.9673 17.4356Z" fill="#000"></path>
<path d="M71.9996 31.3088C71.0482 33.3983 69.2165 33.9999 67.2808 33.9999C65.8893 33.9999 63.5463 33.4857 62.867 30.7706H62.562C62.2571 32.2276 61.0682 33.9999 57.7757 33.9999C54.516 33.9999 52.3447 32.0373 52.3447 29.4097C52.3447 26.021 55.1278 24.5332 59.3042 24.5332H62.6643V19.4664C62.6643 18.8014 62.3593 18.1689 61.68 17.8518L54.2111 23.5202H53.4642V18.2649C56.7238 17.4079 59.065 17.0308 60.6957 17.0308C66.3988 17.0308 69.3517 18.582 69.3517 23.2682V29.8862C69.3517 30.8992 69.8612 31.6002 70.5734 31.6002C70.7989 31.598 71.0215 31.5511 71.2264 31.4625C71.4313 31.3739 71.6139 31.2456 71.7622 31.086L71.9996 31.3088ZM62.6643 28.712V25.1657L62.3246 25.1965C59.7863 25.6405 59.7863 27.3768 59.7863 28.5218C59.7863 30.1998 60.398 31.0226 61.2801 31.0226C61.848 31.0243 62.6643 30.6746 62.6643 28.712Z" fill="#000"></path>
<path d="M85.6789 28.1104C85.2041 31.3088 83.336 33.9999 79.6709 33.9999C76.5135 33.9999 73.8272 32.0681 73.8272 28.2064V18.1054H72.0011V17.4729H73.8272L79.9722 12.3428H80.7191V17.4729H85.4671V18.1054H80.7191V28.5217C80.7191 29.8519 81.466 30.738 82.6201 30.738C83.8418 30.738 84.5887 29.8519 85.0635 28.0144L85.6789 28.1104Z" fill="#000"></path>
<path d="M98.6119 32.8927V33.5252H87.1072V32.8927L89.4118 30.805V20.195L87.1035 18.1056V17.4731H96.3091V30.805L98.6119 32.8927ZM89.2766 12.8503C89.2766 11.1362 90.7376 9.65186 92.8413 9.65186C94.945 9.65186 96.4406 11.1397 96.4406 12.8503C96.4406 14.686 94.9468 16.0796 92.8413 16.0796C90.7357 16.0796 89.2766 14.6929 89.2766 12.8503Z" fill="#000"></path>
<path d="M120.001 31.3088C119.049 33.3983 117.218 33.9999 115.282 33.9999C113.89 33.9999 111.547 33.4857 110.868 30.7706H110.563C110.258 32.2276 109.069 33.9999 105.777 33.9999C102.517 33.9999 100.346 32.0373 100.346 29.4097C100.346 26.021 103.129 24.5332 107.305 24.5332H110.665V19.4664C110.665 18.8014 110.36 18.1689 109.681 17.8518L102.212 23.5202H101.465V18.2649C104.725 17.4079 107.066 17.0308 108.697 17.0308C114.4 17.0308 117.353 18.582 117.353 23.2682V29.8862C117.353 30.8992 117.862 31.6002 118.574 31.6002C118.8 31.598 119.022 31.5511 119.227 31.4625C119.432 31.3739 119.615 31.2456 119.763 31.086L120.001 31.3088ZM110.663 28.712V25.1657L110.324 25.1965C107.778 25.6405 107.778 27.3819 107.778 28.5218C107.778 30.1998 108.39 31.0226 109.272 31.0226C109.849 31.0243 110.663 30.6746 110.663 28.712Z" fill="#000"></path>
<path d="M67.2101 6.65402L66.6111 6.08838H53.0976L51.3864 7.7013L50.656 8.38692C50.5875 8.4514 50.5343 8.52867 50.4997 8.61371C50.4651 8.69875 50.4499 8.78967 50.4551 8.88057C50.4537 8.96803 50.472 9.05478 50.5088 9.13513C50.5457 9.21547 50.6002 9.28761 50.6688 9.3468H69.0326C69.0988 9.28663 69.1518 9.21478 69.1885 9.13537C69.2252 9.05596 69.2448 8.97054 69.2462 8.884C69.2504 8.78428 69.2313 8.68492 69.1903 8.59285C69.1493 8.50078 69.0873 8.41821 69.0088 8.35093L67.2101 6.65402Z" fill="#000"></path>
<path d="M57.2758 2.146L57.0694 2.3414L57.2758 2.146Z" fill="#000"></path>
<path d="M66.1216 5.62762L65.0515 4.61804L63.8864 3.51762L63.523 3.1748H56.1856L55.7473 3.58789L53.6618 5.55563L53.0957 6.0887H66.6111L66.1216 5.62762Z" fill="#000"></path>
<path d="M63.5232 3.17453L62.4276 2.13581L61.1821 0.961684L60.5101 0.327483L60.3841 0.209214C60.3173 0.141803 60.2361 0.0883478 60.1458 0.0523207C60.0555 0.0162936 59.9581 -0.00149927 59.86 9.88652e-05C59.7539 0.000489466 59.649 0.0222688 59.5526 0.063964C59.4562 0.105659 59.3705 0.166298 59.3012 0.241781L58.558 0.942829L57.2797 2.14267L57.0733 2.33807L56.1895 3.1711L63.5232 3.17453Z" fill="#000"></path>
</g>
<defs> 
<clipPath id="clip0_131_142">
<rect width="120" height="34" fill="#000"></rect>
</clipPath>
</defs>
</svg>