<svg aria-labelledby="seen-in-1" viewBox="0 0 889.61 136" xmlns="http://www.w3.org/2000/svg" class="si-logo-1">
        <title id="seen-in-1">New York Times logo</title>
        <path d="m72.98,24.83c0-9.47-9-11.84-16.1-11.84v1.42c4.26,0,7.58,1.42,7.58,4.74,0,1.89-1.42,4.74-5.68,4.74-3.32,0-10.42-1.89-15.63-3.79-6.16-2.37-11.84-4.26-16.58-4.26-9.47,0-16.1,7.1-16.1,15.16,0,7.1,5.21,9.47,7.1,10.42l.47-.95c-.95-.95-2.37-1.89-2.37-4.74,0-1.89,1.89-5.21,6.63-5.21,4.26,0,9.95,1.89,17.52,4.26,6.63,1.89,13.74,3.32,17.52,3.79v14.68l-7.1,6.16v.47l7.1,6.16v20.37c-3.79,2.37-8.05,2.84-11.84,2.84-7.1,0-13.26-1.89-18.47-7.58l19.42-9.47v-32.68l-23.68,10.42c1.89-6.16,7.1-10.42,12.31-13.26l-.47-1.42c-14.21,3.79-27,17.05-27,33.15,0,18.95,15.63,33.15,33.15,33.15,18.95,0,31.26-15.16,31.26-30.79h-.95c-2.84,6.16-7.1,11.84-12.31,14.68v-19.42l7.58-6.16v-.47l-7.58-6.16v-14.68c7.1,0,14.21-4.74,14.21-13.74Zm-41.21,52.1l-5.68,2.84c-3.32-4.26-5.21-9.95-5.21-18,0-3.32,0-7.1.95-9.95l9.95-4.26v29.37Zm50.21,10.89l-6.16,4.74.95.95,2.84-2.37,10.42,9.47,14.21-9.47-.47-.95-3.79,2.37-4.74-4.74v-32.21l3.79-2.84,8.05,6.63v28.89c0,18-3.79,20.84-11.84,23.68v1.42c13.26.47,25.58-3.79,25.58-27v-31.26l4.26-3.32-.95-.95-3.79,2.84-11.84-9.95-13.26,9.95V14.88h-.95l-16.58,11.37v.95c1.89.95,4.74,1.89,4.74,7.1,0,0-.47,53.52-.47,53.52Zm86.68-5.21l-11.84,9-11.84-9.47v-5.68l22.26-15.16v-.47l-11.37-17.05-24.63,13.26v31.26l-4.74,3.79.95.95,4.26-3.32,16.1,11.84,21.31-17.05s-.47-1.89-.47-1.89Zm-23.68-8.05v-23.21l.95-.47,10.42,16.58s-11.37,7.1-11.37,7.1Zm114.15-53.99c0-1.42-.47-2.84-.95-4.26h-.95c-1.42,3.79-3.32,5.68-8.05,5.68-4.26,0-7.1-2.37-9-4.26l-13.74,15.63.95.95,4.74-4.26c2.84,2.37,5.21,4.26,11.84,4.74v39.31l-27.94-47.84c-2.37-3.79-5.68-9-12.31-9-7.58,0-14.21,6.63-13.26,17.05h1.42c.47-2.84,1.89-6.16,5.21-6.16,2.37,0,4.74,2.37,6.16,4.74v15.63c-8.53,0-14.21,3.79-14.21,10.89,0,3.79,1.89,9.47,7.58,10.89v-.95c-.95-.95-1.42-1.89-1.42-3.32,0-2.37,1.89-4.26,5.21-4.26h2.37v19.89c-9.95,0-18,5.68-18,15.16s7.58,13.26,16.1,12.79v-.95c-5.21-.47-7.58-2.84-7.58-6.16,0-4.26,2.84-6.16,6.63-6.16s7.1,2.37,9.47,5.21l13.74-15.16-.95-.95-3.32,3.79c-5.21-4.74-8.05-6.16-14.21-7.1v-47.36l37.89,66.31h2.84V34.78c7.1-.47,13.74-6.16,13.74-14.21Zm34.58,62.05l-11.84,9-11.84-9.47v-5.68l22.26-15.16v-.47l-11.37-17.05-24.63,13.26v31.26l-4.74,3.79.95.95,4.26-3.32,16.1,11.84,21.31-17.05s-.47-1.89-.47-1.89Zm-23.68-8.05v-23.21l.95-.47,10.42,16.58s-11.37,7.1-11.37,7.1Zm100.88-25.58l-3.32,2.37-9-7.58-10.42,9.47,4.26,4.26v35.52l-11.37-7.1v-29.37l3.79-2.37-10.89-10.42-10.42,9.47,4.26,4.26v34.1l-1.42.95-9.95-7.1v-28.42c0-6.63-3.32-8.53-7.1-10.89-3.32-2.37-5.21-3.79-5.21-7.1,0-2.84,2.84-4.26,4.26-5.21v-.95c-3.79,0-13.74,3.79-13.74,12.79,0,4.74,2.37,6.63,4.74,9,2.37,2.37,4.74,4.26,4.74,8.53v27.47l-5.21,3.79.95.95,4.74-3.79,10.89,9.47,11.84-8.05,13.26,8.05,25.1-14.68v-31.73l6.16-4.74-.95-.95h0Zm88.1-26.05l-4.74,4.26-10.42-9.47-15.63,11.37v-10.42h-1.42l.47,76.73c-1.42,0-5.68-.95-9-1.89l-.95-63.94c0-4.74-3.32-11.37-11.84-11.37s-14.21,6.63-14.21,13.26h1.42c.47-2.84,1.89-5.21,4.74-5.21s5.21,1.89,5.21,8.05v18.47c-8.53.47-13.74,5.21-13.74,11.37,0,3.79,1.89,9.47,7.58,9.47v-.95c-1.89-.95-2.37-2.37-2.37-3.32,0-2.84,2.37-3.79,6.16-3.79h1.89v29.37c-7.1,2.37-9.95,7.58-9.95,13.26,0,8.05,6.16,13.74,15.63,13.74,6.63,0,12.31-.95,18-2.37,4.74-.95,10.89-2.37,13.74-2.37,3.79,0,5.21,1.89,5.21,4.26,0,3.32-1.42,4.74-3.32,5.21v.95c7.58-1.42,12.31-6.16,12.31-13.26s-7.1-11.37-14.68-11.37c-3.79,0-11.84,1.42-17.52,2.37-6.63,1.42-13.26,2.37-15.16,2.37-3.32,0-7.1-1.42-7.1-6.16,0-3.79,3.32-7.1,11.37-7.1,4.26,0,9.47.47,14.68,1.89,5.68,1.42,10.89,2.84,15.63,2.84,7.1,0,13.26-2.37,13.26-12.31V28.62l5.68-4.74-.95-.95h0Zm-19.42,28.89c-1.42,1.42-3.32,2.84-5.68,2.84s-4.74-1.42-5.68-2.84v-20.84l4.74-3.32,6.63,6.16s0,18,0,18Zm0,14.21c-.95-.95-3.32-2.37-5.68-2.37s-4.74,1.42-5.68,2.37v-12.31c.95.95,3.32,2.37,5.68,2.37s4.74-1.42,5.68-2.37v12.31Zm0,22.26c0,3.79-2.37,7.58-7.58,7.58h-3.79v-27.94c.95-.95,3.32-2.37,5.68-2.37s4.26,1.42,5.68,2.37c0,0,0,20.37,0,20.37Zm64.89-33.63l-15.16-10.89-23.21,13.26v30.79l-4.74,3.79.47.95,3.79-2.84,15.16,11.37,23.68-14.21v-32.21Zm-25.58,29.84v-34.1l11.84,8.53v33.63s-11.84-8.05-11.84-8.05Zm70.57-39.79h-.95c-1.42.95-2.84,1.89-4.26,1.89-1.89,0-4.26-.95-5.21-2.37h-.95l-8.05,9-8.05-9-14.21,9.47.47.95,3.79-2.37,4.74,5.21v29.84l-6.16,4.74.95.95,2.84-2.37,11.37,9.47,14.68-9.95-.47-.95-4.26,2.37-5.68-4.74v-33.15c2.37,2.37,5.21,4.74,8.53,4.74,6.63.47,10.42-6.16,10.89-13.74h0Zm56.84,45.47l-16.1,10.89-21.79-33.15,15.63-24.16h.95c1.89,1.89,4.74,3.79,8.05,3.79s5.68-1.89,7.1-3.79h.95c-.47,9.47-7.1,15.16-11.84,15.16s-7.1-2.37-9.95-3.79l-1.42,2.37,23.68,35.05,4.74-2.84v.47Zm-52.1-2.37l-6.16,4.74.95.95,2.84-2.37,10.42,9.47,14.21-9.47-.95-.95-3.79,2.37-4.74-4.74V14.88h-.47l-17.05,11.37v.95c1.89.95,4.74,1.42,4.74,7.1,0,0,0,53.52,0,53.52Zm130.72-62.99c0-9.47-9-11.84-16.1-11.84v1.42c4.26,0,7.58,1.42,7.58,4.74,0,1.89-1.42,4.74-5.68,4.74-3.32,0-10.42-1.89-15.63-3.79-6.16-1.89-11.84-3.79-16.58-3.79-9.47,0-16.1,7.1-16.1,15.16,0,7.1,5.21,9.47,7.1,10.42l.47-.95c-1.42-.95-2.84-1.89-2.84-4.74,0-1.89,1.89-5.21,6.63-5.21,4.26,0,9.95,1.89,17.52,4.26,6.63,1.89,13.74,3.32,17.52,3.79v14.68l-7.1,6.16v.47l7.1,6.16v20.37c-3.79,2.37-8.05,2.84-11.84,2.84-7.1,0-13.26-1.89-18.47-7.58l19.42-9.47v-33.15l-23.68,10.42c2.37-6.16,7.58-10.42,12.31-13.74l-.47-.95c-14.21,3.79-27,16.58-27,32.68,0,18.95,15.63,33.15,33.15,33.15,18.95,0,31.26-15.16,31.26-30.79h-.95c-2.84,6.16-7.1,11.84-12.31,14.68v-19.42l7.58-6.16v-.47l-7.1-6.16v-14.21c7.1,0,14.21-4.74,14.21-13.74Zm-41.21,52.1l-5.68,2.84c-3.32-4.26-5.21-9.95-5.21-18,0-3.32.47-7.1,1.42-9.95l9.95-4.26-.47,29.37Zm57.78-56.84h-.47l-9.47,8.05v.47l8.05,9h.95l9.47-8.05v-.47l-8.53-9h0Zm14.21,70.1l-3.79,2.37-4.74-4.74v-32.68l4.74-3.32-.95-.95-3.32,2.84-8.53-9.95-13.74,9.47.95,1.42,3.32-2.37,4.26,5.21v30.79l-6.16,4.74.47.95,3.32-2.37,10.42,9.47,14.21-9.47-.47-1.42h0Zm79.1-.47l-3.32,2.37-5.21-4.74v-32.21l4.74-3.79-.95-.95-3.79,3.32-10.89-9.95-14.21,9.95-10.89-9.95-13.26,9.95-8.53-9.95-13.74,9.47.47,1.42,3.32-2.37,4.74,5.21v30.79l-3.79,3.79,10.89,9,10.42-9.47-4.26-4.26v-32.21l4.26-2.84,7.1,6.63v28.42l-3.79,3.79,10.89,9,10.42-9.47-4.26-4.26v-31.26l3.79-2.37,7.58,6.63v28.42l-3.32,3.32,10.89,9.95,14.68-9.95v-1.42h0Zm41.21-7.1l-11.84,9-11.84-9.47v-5.68l22.26-15.16v-.47l-11.37-17.05-24.63,13.26v32.21l16.58,11.84,21.31-17.05s-.47-1.42-.47-1.42Zm-23.68-8.05v-23.21l.95-.47,10.42,16.58s-11.37,7.1-11.37,7.1Zm66.78-4.26l-9-7.1c6.16-5.21,8.53-12.31,8.53-17.05v-2.84h-.95c-.95,2.37-2.84,4.74-6.63,4.74s-6.16-1.89-8.53-4.74l-21.31,11.84v17.05l8.05,6.16c-8.05,7.1-9.47,11.84-9.47,15.63,0,4.74,2.37,8.05,6.16,9.47l.47-.95c-.95-.95-1.89-1.42-1.89-3.79,0-1.42,1.89-3.79,5.68-3.79,4.74,0,7.58,3.32,9,4.74l20.37-12.31v-17.05s-.47,0-.47,0Zm-5.21-14.21c-3.32,5.68-10.42,11.37-14.68,14.21l-5.21-4.26v-16.58c1.89,4.74,7.1,8.53,12.31,8.53,3.32,0,5.21-.47,7.58-1.89Zm-8.05,37.89c-2.37-5.21-8.05-9-13.74-9-1.42,0-5.21,0-9,2.37,2.37-3.79,8.53-10.42,16.58-15.16l5.68,4.74.47,17.05h0Z" fill="currentColor"></path>
      </svg>