<svg xmlns="http://www.w3.org/2000/svg" class="icon icon-logo" viewBox="0 0 147 32">
              <title>logo</title>
              <path fill="#555" style="" d="M43.402 22.496c0 5.453-3.265 7.985-8.434 7.985-5.325 0-7.929-2.804-7.929-7.79v-22.691h-1.953l-0.026 9.339-0.066 11.674c0 0.776-0.023 1.563 0.011 2.323 0.047 1.529 0.46 3.052 1.29 4.336 0.853 1.266 2.133 2.229 3.581 2.756 1.441 0.548 2.996 0.785 4.548 0.813-1.55 0.025-3.125-0.133-4.604-0.659-1.483-0.5-2.831-1.457-3.75-2.754-0.896-1.314-1.361-2.893-1.447-4.469-0.058-0.795-0.036-1.565-0.047-2.345l-0.013-2.335-0.053-9.339-0.026-9.339h-1.954v22.574c0 6.154 4.392 9.426 11.349 9.426 6.996 0 11.038-3.467 11.038-9.426v-22.574h-1.516v22.496zM4.586 0h-1.992v30.403h-0.603v-30.403h-1.992v31.611h19.083v-1.208h-14.497v-30.403zM144.77 0v22.496c0 5.453-3.265 7.985-8.434 7.985-5.324 0-7.929-2.804-7.929-7.79v-22.691h-1.953l-0.026 9.339-0.053 9.339-0.013 2.335c0.001 0.776-0.023 1.563 0.011 2.323 0.047 1.529 0.46 3.052 1.29 4.336 0.853 1.266 2.134 2.229 3.581 2.756 1.441 0.548 2.996 0.785 4.548 0.813-1.55 0.025-3.125-0.133-4.604-0.659-1.483-0.5-2.831-1.457-3.75-2.754-0.896-1.314-1.361-2.893-1.447-4.469-0.057-0.795-0.035-1.565-0.046-2.345l-0.013-2.335-0.053-9.339-0.026-9.339h-1.953v22.574c0 6.154 4.392 9.426 11.349 9.426 6.996 0 11.038-3.467 11.038-9.426v-22.574h-1.516zM105.955 0h-1.992v30.403h-0.602v-30.403h-1.992v31.611h19.084v-1.208h-14.497v-30.403zM54.934 0h-1.992v30.403h-0.603v-30.403h-1.992v31.611h19.083v-1.208h-14.497v-30.403zM84.149 0h-2.053l12.353 31.611h2.167l-11.116-28.123-1.35-3.488zM79.439 0l2.554 6.598-10.060 25.013h1.71l3.653-9.232h10.805l3.576 9.232h2.167l-12.353-31.611h-2.053zM82.856 8.824l4.781 12.348h-9.872l4.858-12.348h0.234z"></path>
            </svg>