<svg xmlns="http://www.w3.org/2000/svg" class="Icon Icon--logo Header__LogoLinkSvg" role="presentation" viewBox="0 0 414 187">
      <path d="M39.572-.329L.265 14.887 23.3 23.764l36.56 82.843h3.806L92.198 43.84l28.107 62.767h3.802l47.13-104.823h-47.34l31.913 17.753-24.094 56.85-26.837-62.556 4.857-12.047h-36.35l15.216 34.237-17.328 40.366z"></path>
      <defs>
          <path id="a" d="M.265-.329h413.47V187.33H.265z"></path>
      </defs>
      <clipPath id="b">
          <use overflow="visible" xlink:href="#a"></use>
      </clipPath>
      <path d="M245.41 47.644c-23.67 4.65-39.732 12.68-39.732 28.108 0 10.779 8.029 15.428 16.482 15.428 8.454 0 16.908-4.649 23.25-13.315V47.644zm1.056 62.345V85.262c-11.411 16.485-24.516 23.67-36.351 23.67-16.061 0-29.587-11.412-29.587-30.221 0-24.938 23.67-31.067 64.882-36.562V31.371c0-16.696-10.779-25.361-20.499-26.84l-25.15 31.912-19.443-20.5C194.054 6.433 210.326-.33 227.023-.33c21.133 0 41.212 10.567 41.212 36.139v48.82l19.863 11.834-41.632 13.526z" clip-path="url(#b)"></path>
      <path d="M364.915 1.784l19.653 14.16-25.571 27.474-24.516-28.531 17.543-13.103h-59.175l47.55 55.159-46.283 49.665h42.057l-19.654-14.16 28.318-30.432 27.261 31.489-17.537 13.103h59.174l-50.3-58.118 43.537-46.706zM144.943 153.503l4.727 2.437v27.539l-4.144 3.07h11.848l-4.145-3.07v-32.657z"></path>
      <defs>
          <path id="c" d="M.265-.329h413.47V187.33H.265z"></path>
      </defs>
      <path d="M180.21 175.583c0-6.239-2.778-11.795-8.236-11.795-4.925 0-7.115 4.435-7.115 10.089 0 6.239 2.778 11.796 8.234 11.796 4.926 0 7.117-4.435 7.117-10.09m4.195-.926c0 7.068-4.826 12.43-12.042 12.43-7.116 0-11.747-5.265-11.747-12.284 0-7.067 4.826-12.429 11.994-12.429 7.116 0 11.795 5.264 11.795 12.283m24.528 8.822v-10.772c0-4.777-2.147-7.263-5.949-7.263-2.096 0-5.021 1.219-7.017 3.607v14.428l4.143 3.07h-11.847l4.144-3.07v-16.085l-4.727-2.436 8.041-2.584v5.117c2.389-3.509 5.898-5.117 9.116-5.117 4.826 0 7.652 3.314 7.652 8.286v12.819l4.143 3.07h-11.894l4.195-3.07zm28.829-2.827v-6.58c0-6.24-2.488-10.236-6.874-10.236-4.826 0-7.362 4.923-7.362 9.993 0 5.166 2.584 9.942 7.798 9.942 2.148 0 4.878-.779 6.438-3.119m.29 6.677v-4.825c-2.778 3.363-5.167 4.582-8.287 4.582-6.775 0-10.235-5.8-10.235-11.942 0-6.336 3.607-12.771 11.017-12.771 2.731 0 5.262.877 7.215 3.413v-9.846l-4.731-2.437 8.288-2.681v31.487l4.778 2.437-8.045 2.583zm30.167-11.746c0-6.239-2.778-11.795-8.24-11.795-4.921 0-7.115 4.435-7.115 10.089 0 6.239 2.778 11.796 8.239 11.796 4.921 0 7.116-4.435 7.116-10.09m4.191-.926c0 7.068-4.826 12.43-12.038 12.43-7.116 0-11.747-5.265-11.747-12.284 0-7.067 4.826-12.429 11.99-12.429 7.116 0 11.795 5.264 11.795 12.283m24.531 8.822v-10.772c0-4.777-2.146-7.263-5.945-7.263-2.099 0-5.021 1.219-7.021 3.607v14.428l4.144 3.07h-11.847l4.144-3.07v-16.085l-4.727-2.436 8.041-2.584v5.117c2.388-3.509 5.901-5.117 9.115-5.117 4.827 0 7.652 3.314 7.652 8.286v12.819l4.144 3.07h-11.89l4.19-3.07z" class="st1"></path>
  </svg>