<svg class="icon-logo" width="140" height="12" viewBox="0 0 140 12" fill="none" xmlns="http://www.w3.org/2000/svg">
  <path d="M7.83995 10.4396C7.27312 11.2631 6.17586 11.7688 4.77802 11.7688C1.95167 11.7688 0 9.57516 0 6.02791C0 2.4599 2.01511 0.231445 5.09628 0.231445C7.46189 0.231445 9.06514 1.55128 9.54095 3.90953L7.08383 4.23404C6.79157 2.93601 6.03285 2.2221 5.01516 2.2221C3.531 2.2221 2.76291 3.52013 2.76291 6.04712C2.76291 8.51337 3.56375 9.75584 5.14464 9.75584C6.29287 9.75584 7.12647 8.94692 7.15923 7.90901L7.17639 7.54193H4.90751V5.66031H9.632V11.6723H8.28561L7.83995 10.4396Z" fill="rgba(28, 26, 27, 1)"></path>
  <path d="M16.7852 0.447754H21.636C24.4556 0.447754 25.8742 1.53083 25.8742 3.66945C25.8742 5.11858 25.194 6.13674 23.871 6.63466L25.9834 11.6295H23.2116L21.3583 7.11234H19.3769V11.6295H16.7852V0.447754ZM19.3769 2.35222V5.24785H21.2943C22.5392 5.24785 23.2003 4.70943 23.2003 3.77797C23.2003 2.84651 22.5491 2.35222 21.3156 2.35222H19.3769Z" fill="rgba(28, 26, 27, 1)"></path>
  <path d="M35.5202 0.447754H38.3575L41.9197 11.6295H39.241L38.4339 8.94619H34.9346L34.1452 11.629H31.9668L35.5202 0.447754ZM37.9346 7.0651L36.6793 2.93477L35.4551 7.0651H37.9346Z" fill="rgba(28, 26, 27, 1)"></path>
  <path d="M49.484 6.86312L45.7617 0.447754H48.6188L51.001 4.78888L53.3412 0.447754H55.6599L52.0847 6.80497V11.6295H49.4846L49.484 6.86312Z" fill="rgba(28, 26, 27, 1)"></path>
  <path d="M71.9688 0.447754H74.5991V9.56925H79.2569V11.6295H71.9688V0.447754Z" fill="rgba(28, 26, 27, 1)"></path>
  <path d="M89.0765 0.447754H91.9138L95.4794 11.6295H92.801L92.0012 8.94619H88.4915L87.7114 11.629H85.5273L89.0765 0.447754ZM91.503 7.0651L90.2461 2.93477L89.0104 7.0651H91.503Z" fill="rgba(28, 26, 27, 1)"></path>
  <path d="M101.844 0.447754H106.817C109.151 0.447754 110.37 1.5085 110.37 3.30341C110.37 4.5573 109.698 5.46645 108.456 5.79096C109.957 6.17413 110.672 7.11078 110.672 8.60092C110.672 10.5256 109.329 11.63 106.731 11.63H101.842L101.844 0.447754ZM106.253 4.94827C107.293 4.94827 107.855 4.47267 107.855 3.60715C107.855 2.80652 107.314 2.3543 106.312 2.3543H104.298V4.95035L106.253 4.94827ZM106.338 9.68451C107.487 9.68451 108.115 9.1653 108.115 8.27901C108.115 7.32781 107.465 6.80341 106.253 6.80341H104.298V9.68451H106.338Z" fill="rgba(28, 26, 27, 1)"></path>
  <path d="M117.711 0.447754H125.616V2.45969H120.223V4.89998H124.577V6.78368H120.223V9.57288H125.704V11.6274H117.711V0.447754Z" fill="rgba(28, 26, 27, 1)"></path>
  <path d="M132.711 0.447754H135.343V9.56924H140V11.6305H132.711V0.447754Z" fill="rgba(28, 26, 27, 1)"></path>
</svg>