<svg xmlns="http://www.w3.org/2000/svg" alt="whole30-logo" fill="#263524" xmlns:v="https://vecta.io/nano" viewBox="0 0 91.906 95.804" class="badge-whole30-logo">
  <path d="M46.264 9.227l-.057-.115c-.157-.3-.33-.363-.989-.387A3.124 3.124 0 0 0 44 8.832a.714.714 0 0 0-.289.313l-.065.115-.017 3.312-.016 3.311h-8.239v-3.27l-.05-3.377c-.14-.454-.469-.569-1.532-.519l-.725.008c-.099-.008-.5-.008-.873-.008a2.439 2.439 0 0 0-.84.082.746.746 0 0 0-.363.42l-1.886 4.811-2.809 7.159c-.016.033-.239-.552-2.8-7.5L21.732 8.98a.75.75 0 0 0-1-.338c-.272.132-.313.223-.816 1.5l-1.491 3.822-1.441 3.682-.981 2.5-.417 1.054a.434.434 0 0 1-.066-.14l-2.265-6.417-1.351-3.823-.6-1.664a.818.818 0 0 0-.4-.387 8.357 8.357 0 0 0-1.54-.033c-.5.058-.758.272-.783.651-.016.288-.165-.14 2.982 8.493l1.6 4.383 1.8 4.679a.751.751 0 0 0 .931.115c.214-.148.33-.354.676-1.236l.906-2.29 2.109-5.346.881-2.233.56-1.4c.008-.008.289.725.626 1.631l.964 2.62.569 1.557.6 1.647.791 2.159.947 2.537a.744.744 0 0 0 1.31.156 8.291 8.291 0 0 0 .445-1l1.3-3.263 1.187-2.974 1.178-2.973 1.351-3.386.387-.964.016 7.06.017 7.06.082.173c.173.346.412.42 1.384.4.585-.008.618-.016.783-.09a.688.688 0 0 0 .37-.4c.033-.091.042-.848.042-4.1v-3.99h8.262v3.946l.033 4.078a.7.7 0 0 0 .635.544 6.215 6.215 0 0 0 1.548-.041.676.676 0 0 0 .379-.338l.05-.1V9.227zm35.085 15.85a.777.777 0 0 0-.349-.494l-.132-.074h-3.3l-3.3-.017v-6.178h3.188l3.188-.017.165-.09a.708.708 0 0 0 .362-.569 6.6 6.6 0 0 0-.033-1.367.728.728 0 0 0-.354-.4l-.165-.082h-3.166l-3.172-.017V11.27h3.246l3.246-.016.156-.074a.775.775 0 0 0 .4-.412 3.336 3.336 0 0 0 .041-.8c0-.635 0-.692-.066-.816-.132-.28-.313-.387-.725-.42-.157-.016-2.109-.025-4.341-.016h-4.057l-.149.074a.7.7 0 0 0-.379.37l-.066.157-.016 7.583-.017 7.579h-3.715l-.016-7.563-.05-7.669a.734.734 0 0 0-.494-.478 5.041 5.041 0 0 0-.832-.033c-.684 0-.717 0-.873.066a.838.838 0 0 0-.4.4V26.51a.686.686 0 0 0 .61.486c.14.025 1.161.025 3.254.017l3.073-.008 4.217.008 4.391-.025a.663.663 0 0 0 .552-.379c.083-.173.083-.181.1-.774a5.318 5.318 0 0 0-.025-.766"></path><path d="M64.231 22.111a9.459 9.459 0 0 0 .511-7.15 8.949 8.949 0 0 0-.873-1.944 9.428 9.428 0 0 0-7.777-4.572 9.534 9.534 0 0 0-7.719 3.542h0a9.148 9.148 0 0 0-2.158 5.841 9.28 9.28 0 0 0 2.965 6.961 8.886 8.886 0 0 0 1.343 1.062 9.23 9.23 0 0 0 8.633.874 9.955 9.955 0 0 0 3.724-2.62c.033-.041.066-.058.074-.083a9.583 9.583 0 0 0 1.269-1.9m-9.185 2.586a6.67 6.67 0 0 1-3.872-1.754 7.168 7.168 0 0 1-2.052-3.246A6.816 6.816 0 0 1 49 16.814a6.994 6.994 0 0 1 2.447-4.275 6.808 6.808 0 0 1 7.925-.354 6.888 6.888 0 0 1 .222 11.384l-.264.165a6.624 6.624 0 0 1-2.24.865 6.541 6.541 0 0 1-2.068.115m-27.005 53.95a3.82 3.82 0 0 0-1.013-2 4.32 4.32 0 0 0-3.2-1.186 3.48 3.48 0 0 0-1.557.4 3.849 3.849 0 0 0-1.013.733l-.215.206v-1.17H15.5v1.194l-.289-.28a3.6 3.6 0 0 0-2.751-1.1 4.018 4.018 0 0 0-1.368.2 4.082 4.082 0 0 0-2.57 2.587 4.938 4.938 0 0 0 .223 3.518 4.343 4.343 0 0 0 1.779 1.8 4.175 4.175 0 0 0 1.137.37 6.369 6.369 0 0 0 1.425.017 3.656 3.656 0 0 0 2.29-1.269l.124-.148v1.236h2.825V82.6H17.6l-.725-.016V79.71l-.016-2.875H18.2l1.343.017v9.342h-.717l-.717.016v.577h0v.576h4.531V86.2h-.774l-.775-.017v-1.744-1.746a1.564 1.564 0 0 1 .181.181 3.857 3.857 0 0 0 1.541.964 4.277 4.277 0 0 0 2.364 0 4.568 4.568 0 0 0 1.228-.626 5.051 5.051 0 0 0 .914-.956 4.383 4.383 0 0 0 .676-1.681A7.519 7.519 0 0 0 28 78.656m-14.663 3.929a3.7 3.7 0 0 1-1.194.075 2.69 2.69 0 0 1-2.15-2.26 5.266 5.266 0 0 1 0-1.351 2.641 2.641 0 0 1 1.334-2 2.525 2.525 0 0 1 1.294-.313 3.234 3.234 0 0 1 .634.049 2.777 2.777 0 0 1 2.158 2.892 2.833 2.833 0 0 1-2.084 2.916m12.579-1.063a2.858 2.858 0 0 1-1.54 1.079 2.564 2.564 0 0 1-2.15-.428 2.935 2.935 0 0 1-1.228-2.331 3.039 3.039 0 0 1 1.121-2.587 3.419 3.419 0 0 1 1.038-.494 2.691 2.691 0 0 1 1.672.148 3.167 3.167 0 0 1 1.087.9 3.29 3.29 0 0 1 0 3.707m23.322-5.883a5.426 5.426 0 0 0-2.546-.041 4.185 4.185 0 0 0-2.018 1.087 4.012 4.012 0 0 0-1.227 2.224 5.808 5.808 0 0 0-.017 1.73 3.924 3.924 0 0 0 1.549 2.459 4.466 4.466 0 0 0 2.241.857 5.166 5.166 0 0 0 3.567-.84 3.9 3.9 0 0 0 1.491-2.5 7.77 7.77 0 0 0 0-1.738 4.044 4.044 0 0 0-3.032-3.246m1.549 4.44a2.877 2.877 0 0 1-.8 1.87 2.689 2.689 0 0 1-1.763.857h0a2.725 2.725 0 0 1-.733 0 2.779 2.779 0 0 1-2.035-1.219 3.176 3.176 0 0 1-.214-3.221 2.7 2.7 0 0 1 2.125-1.631 4.769 4.769 0 0 1 1.293.049 2.869 2.869 0 0 1 2.126 3.3m-12.999-1.422a4 4 0 0 0-.321-1.005 3.875 3.875 0 0 0-2.817-2.1 5.469 5.469 0 0 0-1.673-.016 3.946 3.946 0 0 0-1.96 1.071l-.214.206v-1.17h-2.941v1.186h1.474v4.679l-.016 4.679H28.6l-.717.017v.577h0v.576h4.556v-1.162h-1.555V82.7l.247.247a3.7 3.7 0 0 0 1.813.98 6.078 6.078 0 0 0 1.639 0 3.885 3.885 0 0 0 2.092-1.169 4.042 4.042 0 0 0 1.112-2.225 7.932 7.932 0 0 0 0-1.886m-2.166 2.974a2.767 2.767 0 0 1-1.458.972 2.926 2.926 0 0 1-1 .057 2.779 2.779 0 0 1-1.8-1.128 3.22 3.22 0 0 1 .189-3.946 2.856 2.856 0 0 1 2.167-.89 2.49 2.49 0 0 1 1.672.783 2.749 2.749 0 0 1 .865 2.043 3.007 3.007 0 0 1-.634 2.1m5.078.974v-1.9a8.75 8.75 0 0 1 .066-2.142 1.954 1.954 0 0 1 .495-.865 3.348 3.348 0 0 1 2.314-.841h.264v-1.411l-.445.016a3.451 3.451 0 0 0-1.54.355 3.073 3.073 0 0 0-1.137 1.037l-.19.281v-.734l-.016-.733h-1.422l-1.417.017v.585l-.016.584H39.1V82.6h-1.444v1.162h4.555V82.6h-.774l-.775-.016zm20.6-6.352v-.593h-1.954l-1.952.016v1.162l.667.016.667.017-1.038 2.307-1.063 2.339a8.3 8.3 0 0 1-.519-1.186l-.947-2.34-.453-1.12.618-.008h.618v-1.187h-4v.585l.017.585h.56l.56.017.28.675 2.068 5.042h0l.535 1.3h.536l.544-.016.346-.774 2.759-6.179c.016-.041.066-.049.585-.049h.569v-.593zM78.919 82.6h-.708V71.094h-3.057v1.178h1.516v2.24 2.241s-.132-.107-.272-.247a3.731 3.731 0 0 0-1.853-.989 5.889 5.889 0 0 0-1.656 0 3.882 3.882 0 0 0-2.4 1.557 4.792 4.792 0 0 0-.668 1.3l-.09.313c-.008.025-.058-.091-.115-.255a4.339 4.339 0 0 0-3.493-2.95 7.714 7.714 0 0 0-1.854.042 4.358 4.358 0 0 0-2.232 1.219 3.972 3.972 0 0 0-1.178 2.578 4.062 4.062 0 0 0 1.128 3.3 4.39 4.39 0 0 0 2.488 1.294 7.694 7.694 0 0 0 1.845 0 4.466 4.466 0 0 0 1.977-.873 5.817 5.817 0 0 0 .874-.865 5.5 5.5 0 0 0 .461-.725 5.386 5.386 0 0 0-.774-.025h-.775l-.107.148a3.42 3.42 0 0 1-.807.733 3.5 3.5 0 0 1-3.155.116 2.681 2.681 0 0 1-1.508-2.084l-.016-.157h3.575l3.575.025c0 .017.017.148.041.305a4.283 4.283 0 0 0 1.244 2.413 3.668 3.668 0 0 0 2.34 1.063h0a4.749 4.749 0 0 0 1.738-.181 3.537 3.537 0 0 0 1.442-.9l.3-.289a5.15 5.15 0 0 1 0 .577v.577h2.892V82.61h-.708zM65.327 79c-1.574 0-2.851-.008-2.851-.025s.017-.107.041-.214a2.753 2.753 0 0 1 2.035-2.026 2.531 2.531 0 0 1 .766-.066 2.31 2.31 0 0 1 .824.074 2.786 2.786 0 0 1 1.829 1.557 3.075 3.075 0 0 1 .2.651 14.228 14.228 0 0 1-2.853.049m11.344 1.409a2.955 2.955 0 0 1-.733 1.433 2.448 2.448 0 0 1-1.7.84A2.7 2.7 0 0 1 73.1 82.6a2.491 2.491 0 0 1-1.664-1.582 2.954 2.954 0 0 1-.189-1.293 2.5 2.5 0 0 1 .082-.881 2.814 2.814 0 0 1 .733-1.327 2.655 2.655 0 0 1 1.153-.667 2.063 2.063 0 0 1 .7-.066 1.873 1.873 0 0 1 .733.082 3.1 3.1 0 0 1 1.623 1.145 3.023 3.023 0 0 1 .37.923 4.647 4.647 0 0 1 .009 1.475m-56.187-6.926a14.287 14.287 0 0 1-7.363-2.538 13.284 13.284 0 0 1-2.455-2.3 13.955 13.955 0 0 1-1.1-1.623 13.666 13.666 0 0 1-1.351-3.9 5.414 5.414 0 0 1-.058-1.673 1.579 1.579 0 0 1 .808-1.038c.527-.263.98-.313 2.726-.3 1.376.016 1.434.025 1.854.23a1.483 1.483 0 0 1 .642.61 3.9 3.9 0 0 1 .363 1.162 5.482 5.482 0 0 0 .354 1.2 5.782 5.782 0 0 0 1.269 1.854A7.47 7.47 0 0 0 20 67.238a6.776 6.776 0 0 0 1.549.149 7.367 7.367 0 0 0 7.43-7.349 7.119 7.119 0 0 0-2.232-5.626 6.652 6.652 0 0 0-1.936-1.178 7.485 7.485 0 0 0-2.414-.486 3.049 3.049 0 0 1-1.549-.313 1.743 1.743 0 0 1-.774-1.071 13.6 13.6 0 0 1 .016-3.328 1.576 1.576 0 0 1 .849-1.005 2.9 2.9 0 0 1 1.186-.231 7.531 7.531 0 0 0 1.8-.272 5.946 5.946 0 0 0 2.224-1.169 6.206 6.206 0 0 0 2.159-4.095 9.459 9.459 0 0 0-.017-1.738 5.942 5.942 0 0 0-5.33-5.3 9.407 9.407 0 0 0-1.985 0 5.637 5.637 0 0 0-4.16 2.4 5.964 5.964 0 0 0-.849 2.076l-.164.742a1.868 1.868 0 0 1-.89 1.285c-.4.2-.412.2-1.92.206-1.828.016-2.092-.017-2.636-.3a1.548 1.548 0 0 1-.784-1.035 4.122 4.122 0 0 1 .074-1.483 17.312 17.312 0 0 1 1.581-4.267 10.657 10.657 0 0 1 3.419-3.707 13.4 13.4 0 0 1 8.493-1.96 13.394 13.394 0 0 1 5.083 1.408 11.517 11.517 0 0 1 5.207 5.231l.469 1.055a12.853 12.853 0 0 1-.033 9 11.051 11.051 0 0 1-3.493 4.605l-.23.181.288.206a11.12 11.12 0 0 1 2.85 2.908 12.325 12.325 0 0 1 1.961 5.511 21.055 21.055 0 0 1 .033 2.9 13.193 13.193 0 0 1-2.892 7.312 13.56 13.56 0 0 1-9.976 4.934 26.36 26.36 0 0 1-1.985.008"></path><path d="M61.76 70.22v-3.105l.173-.033a16.528 16.528 0 0 0 6.475-2.925 17.134 17.134 0 0 0 3.361-3.369 16.787 16.787 0 0 0-.536-20.636A23.745 23.745 0 0 0 69.2 38.1a16.538 16.538 0 0 0-8.237-3.682 14.754 14.754 0 0 0-2.422-.165 15.209 15.209 0 0 0-4.737.7 16.094 16.094 0 0 0-8.156 5.775 17.38 17.38 0 0 0-3.221 8.04 20.311 20.311 0 0 0-.123 3.353 16.2 16.2 0 0 0 3.888 9.424 17.637 17.637 0 0 0 2.776 2.6 16.884 16.884 0 0 0 5.676 2.751l.42.116V73.3L55 73.285l-.263-.049a24.4 24.4 0 0 1-3.493-.915 23.846 23.846 0 0 1-7.744-4.465c-.527-.445-1.82-1.73-2.224-2.191a22.136 22.136 0 0 1-4.621-8.576 23.879 23.879 0 0 1-.684-9.284 22.2 22.2 0 0 1 4.753-10.956 26.151 26.151 0 0 1 3.633-3.633 22.654 22.654 0 0 1 27.96-.577 23.147 23.147 0 0 1 5.6 6.022 22.6 22.6 0 0 1 2.933 6.8 21.336 21.336 0 0 1 .634 5.726A17.981 17.981 0 0 1 81.3 53.9a22.43 22.43 0 0 1-5.791 12.233A23.129 23.129 0 0 1 64.05 72.9a21.83 21.83 0 0 1-2.241.436h-.066v-3.107zm-4.976 3.58a.23.23 0 0 0-.091-.058c-.082-.033-.082-.041-.041-.832l.074-2.438.074-3.172.033-3.015a12.883 12.883 0 0 0-.041-1.936 5.67 5.67 0 0 0-1.862-2.689 3.7 3.7 0 0 1-.56-.594 5.5 5.5 0 0 1-.461-.9.209.209 0 0 0-.025-.074 5.569 5.569 0 0 1-.239-.683c-.041-.14-.173-.783-.206-1.038a33.894 33.894 0 0 1-.066-4.012l.33-4.465.189-1.7.075-.569.148-1.1.3-2.01.057-.354.074-.445.132-.791c.05-.379.1-.14.182.89l.09 1.03.107 1.161.074.8.116 1.4.057.642.066.7.066.716.074.758c.058.6.1.758.223.857s.329 0 .42-.165a1.8 1.8 0 0 0 .148-.733l.058-.676.057-.667.132-1.425.074-.791.116-1.31.057-.667.058-.667.115-1.351a3.577 3.577 0 0 1 .05-.428c.041-.066.074.074.1.428l.1 1.137c0 .049.057.494.107 1l.131 1.335.075.725.057.593.066.626.165 1.607.041.683c0 .577.321.981.61.75a1.1 1.1 0 0 0 .272-.857 14.92 14.92 0 0 1 .041-.791l.066-.832.057-.8.058-.815.115-1.491.066-.89.058-.964.058-.89c.033-.593.024-.519.057-.519.05 0 .066.1.091.421l.074.683.165 1.4a3.718 3.718 0 0 0 .057.42 1.214 1.214 0 0 1 .025.264 2.186 2.186 0 0 0 .041.37 2.107 2.107 0 0 1 .042.371c0 .091.016.239.024.329l.124.981.074.651.074.65.058.478.123.98c.058.561.206.832.445.832.19 0 .28-.131.321-.494a3.281 3.281 0 0 0 .025-.329c0-.05.017-.355.033-.668l.058-1 .115-1.8.124-1.9.189-2.916c.025-.066.066.024.066.14 0 .049.017.156.025.222l.181.939a1.036 1.036 0 0 0 .049.223.6.6 0 0 1 .042.2l.074.4c.033.128.057.321.074.42l.058.33.131.725a5.346 5.346 0 0 0 .11.644.632.632 0 0 1 .033.19c0 .057.017.173.025.247.033.14.082.436.124.749l.074.519.074.577a1.238 1.238 0 0 0 .049.288 1.63 1.63 0 0 1 .042.322l.074.65.164 1.5.058.486a2.225 2.225 0 0 1 .033.37 3.852 3.852 0 0 0 .033.437c.016.115.041.445.058.725l.066 1.054c.049.668.049 2.727 0 3.106a6.44 6.44 0 0 1-.19 1.055c-.033.148-.173.6-.206.683a3.311 3.311 0 0 1-.955 1.541 6.989 6.989 0 0 0-1.64 2.15.986.986 0 0 1-.074.165l-.066.189a2.464 2.464 0 0 0-.132 1 4.793 4.793 0 0 1 .033.651l.1 3.814.025 1.071.107 4.061.025.84c0 .256 0 .289-.05.289a.118.118 0 0 0-.082.025c-.041.041-3.452.074-3.476.032m24.705-3.1a2.421 2.421 0 0 1 1.165.306 2.163 2.163 0 0 1 .886.877 2.382 2.382 0 0 1 0 2.366 2.214 2.214 0 0 1-.877.879 2.386 2.386 0 0 1-2.359 0 2.216 2.216 0 0 1-.878-.879 2.363 2.363 0 0 1 .005-2.366 2.171 2.171 0 0 1 .887-.877 2.419 2.419 0 0 1 1.171-.306zm0 .393a2.026 2.026 0 0 0-.973.255 1.833 1.833 0 0 0-.739.732 1.972 1.972 0 0 0 0 1.973 1.869 1.869 0 0 0 .733.732 1.977 1.977 0 0 0 1.967 0 1.86 1.86 0 0 0 .732-.732 1.985 1.985 0 0 0-.005-1.973 1.823 1.823 0 0 0-.74-.732 2.027 2.027 0 0 0-.975-.255zM80.4 74.367v-2.552h.877a2.173 2.173 0 0 1 .65.071.638.638 0 0 1 .321.248.655.655 0 0 1 .119.373.682.682 0 0 1-.2.488.788.788 0 0 1-.529.231.735.735 0 0 1 .216.136 2.905 2.905 0 0 1 .377.505l.311.5h-.5l-.227-.4a2.038 2.038 0 0 0-.43-.594.532.532 0 0 0-.33-.088h-.242v1.084zm.412-1.435h.5a.805.805 0 0 0 .488-.108.347.347 0 0 0 .131-.281.342.342 0 0 0-.063-.2.369.369 0 0 0-.175-.134 1.257 1.257 0 0 0-.412-.045h-.469z"></path>
</svg>