<svg class="logo" xmlns="http://www.w3.org/2000/svg" x="0px" y="0px" width="142px" height="28px" viewBox="0 0 607.1 125.02"><defs><style>.cls-1{fill:#001630;}</style>
</defs>
<g id="Layer_2" data-name="Layer 2"><g id="Layer_1-2" data-name="Layer 1">
	<rect class="cls-1" x="253.15" y="2.25" width="29.3" height="120.19"></rect>
		<path class="cls-1" d="M183.3,0c-35.61,0-60.4,25.84-60.4,62.5S147.69,125,183.3,125c35.9,0,61-25.84,61-62.49S219.2,0,183.3,0Zm0,97.2c-18,0-30.8-14.27-30.8-34.55s12.77-34.86,30.8-34.86c18.47,0,31.39,14.43,31.39,34.86S201.77,97.2,183.3,97.2Z"></path><path class="cls-1" d="M323,87.89v-53H293.72V95.7c0,18.33,9.76,28.84,25.09,28.84,8.56,0,15.32-3.75,17.87-9.61L345,95.7c-4.06,2.85-8.27,4.35-11.87,4.35C328.27,100.05,323,98,323,87.89Z"></path><path class="cls-1" d="M536.94,44.5A33.53,33.53,0,0,0,512.61,34c-21.19,0-38.46,19.83-38.46,45.22s15.92,45.37,35.3,45.37c7.36,0,13.52-3.75,16.23-9.61l8.86-19.23a26.57,26.57,0,0,1-13.37,4.35c-9.77,0-17.43-9.61-17.43-21.93,0-10.67,7.21-18.93,16.38-18.93s16.82,8.41,16.82,18v45.22h29.3V34.85h-29.3Z"></path><rect class="cls-1" x="577.81" y="34.85" width="29.3" height="87.59"></rect><rect class="cls-1" x="577.81" y="2.25" width="29.3" height="24.49"></rect><polygon class="cls-1" points="486.31 2.25 452.21 2.25 417.51 59.64 417.51 2.25 388.21 2.25 388.21 122.44 417.51 122.44 417.51 65.5 446.65 122.44 480.15 122.44 446.95 61.59 486.31 2.25"></polygon><rect class="cls-1" x="347.35" y="34.85" width="29.3" height="87.59"></rect><path class="cls-1" d="M46,108.9c-18.42,0-32.24-21.43-24.44-45.17C26.66,49.38,35.87,35.39,39.59,29c2.83-4.78,1.24-7.09,1.24-10.47,0-2.83,1.77-4.07,4.6-4.07h8.15c3.9,0,4.43,3,3,5.13-2.31,3-6.56,3.73-9.57,8.69C43.13,34.84,37.82,48,35.69,60c-2.83,15,3.19,28.69,13.64,29.58,11.69.89,17.36-11.52,17.36-25,0-6.55-2.13-14.35-4.07-19.49-.18-.35,0-.52.17-.35a35.43,35.43,0,0,1,11,11,44.91,44.91,0,0,1,6.73,19.13c0,.17-.18.35-.36.17-1.77-2.3-8-9.56-7.79-5.31C73.42,88.35,64.74,108.9,46,108.9ZM46.85,125C78,125,98.93,100.58,92.39,67.1l-6.2-31.54C82.12,15,74,2.26,52.17,2.26H41.53C19.75,2.26,10.89,15,7,35.56L1.15,67.1C-5.23,101.47,15.67,125,46.85,125Z"></path>
	</g></g>

</svg>