<svg class="logo logo--plain" width="224" height="20" viewBox="0 0 224 20" fill="currentColor" xmlns="http://www.w3.org/2000/svg">
  <path d="M0 0.267775H11.0123V3.0049H2.90608V8.58428H11.0123V11.3327H2.90608V19.7318H0V0.267775ZM21.086 0.267775H24.0897L31.2235 19.7318H28.2198L26.6842 15.5716H18.4728L16.9709 19.7318H13.9409L21.086 0.267775ZM19.4865 12.797H25.6704L22.5766 4.26646L19.4865 12.797ZM36.082 0.267775H42.7202C46.9592 0.267775 49.7076 3.0049 49.7076 6.75953C49.7217 7.98283 49.3724 9.1828 48.704 10.2075C48.0357 11.2321 47.0782 12.0353 45.9529 12.5154L50.083 19.7168H46.7789L43.2308 13.2626H38.9881V19.7318H36.082V0.267775ZM38.9881 2.95985V10.6381H42.4799C45.4423 10.6381 46.8015 8.76075 46.8015 6.69195C46.8015 4.48047 45.3334 2.95985 42.4799 2.95985H38.9881ZM55.4747 0.267775H58.3545L64.9551 9.41405L71.7923 0.267775H74.5369V19.7318H71.6571V4.9085L64.8988 13.9985L58.3657 5.11876V19.7318H55.4597L55.4747 0.267775ZM80.6758 0.267775H92.3639V3.0049H83.5818V8.58428H92.3639V11.3327H83.5818V16.9646H92.3639V19.7393H80.687L80.6758 0.267775ZM98.1573 0.267775H104.796C109.034 0.267775 111.783 3.0049 111.783 6.75953C111.797 7.98283 111.448 9.1828 110.779 10.2075C110.111 11.2321 109.154 12.0353 108.028 12.5154L112.158 19.7168H108.854L105.306 13.2626H101.063V19.7318H98.1573V0.267775ZM101.063 2.95985V10.6381H104.555C107.518 10.6381 108.877 8.76075 108.877 6.69195C108.877 4.48047 107.409 2.95985 104.555 2.95985H101.063ZM123.741 9.99978C123.741 4.45419 127.98 0.00119592 133.823 0.00119592C135.596 -0.0264155 137.344 0.42455 138.883 1.30663C140.422 2.18872 141.695 3.46931 142.567 5.01363L140.033 6.51548C139.459 5.36619 138.571 4.4033 137.471 3.73867C136.372 3.07405 135.107 2.73498 133.823 2.76085C129.61 2.76085 126.647 6.0424 126.647 9.98851C126.629 10.9397 126.802 11.885 127.157 12.7676C127.512 13.6503 128.042 14.4522 128.714 15.1253C129.387 15.7984 130.188 16.3289 131.07 16.6849C131.953 17.041 132.898 17.2153 133.849 17.1974C137.528 17.1974 139.856 14.9446 140.461 11.8133H133.473V9.06487H143.498V10.1049C143.498 15.3839 139.901 19.9984 133.849 19.9984C132.524 20.0224 131.208 19.7811 129.978 19.2885C128.748 18.7959 127.629 18.0621 126.687 17.1303C125.745 16.1985 124.999 15.0875 124.493 13.8629C123.987 12.6382 123.732 11.3247 123.741 9.99978ZM148.8 0.267775H155.442C159.677 0.267775 162.422 3.0049 162.422 6.75953C162.436 7.98283 162.086 9.1828 161.418 10.2075C160.75 11.2321 159.792 12.0353 158.667 12.5154L162.797 19.7168H159.489L155.945 13.2626H151.706V19.7318H148.8V0.267775ZM151.706 2.95985V10.6381H155.198C158.156 10.6381 159.516 8.76075 159.516 6.69195C159.516 4.48047 158.051 2.95985 155.198 2.95985H151.706ZM173.783 0.267775H176.768L183.902 19.7318H180.898L179.378 15.5716H171.17L169.668 19.7318H166.631L173.783 0.267775ZM172.184 12.797H178.367L175.274 4.26646L172.184 12.797ZM186.879 9.99978C186.862 8.68185 187.108 7.37374 187.604 6.15268C188.101 4.93161 188.836 3.82233 189.768 2.89034C190.7 1.95834 191.81 1.22251 193.031 0.726292C194.252 0.230074 195.56 -0.0164764 196.878 0.00119592C198.617 -0.00203853 200.326 0.449064 201.837 1.30981C203.348 2.17056 204.607 3.41109 205.491 4.9085L202.957 6.48169C202.391 5.35968 201.521 4.41957 200.446 3.76886C199.371 3.11816 198.134 2.78315 196.878 2.80215C192.827 2.80215 189.785 6.0011 189.785 9.99978C189.771 10.9348 189.944 11.8632 190.293 12.7306C190.643 13.598 191.162 14.387 191.82 15.0513C192.478 15.7157 193.262 16.242 194.126 16.5996C194.99 16.9571 195.916 17.1387 196.852 17.1336C198.177 17.1613 199.481 16.7974 200.6 16.0874C201.719 15.3775 202.604 14.353 203.144 13.1424L205.773 14.5279C204.757 16.5288 203.096 18.1289 201.059 19.0698C199.021 20.0108 196.727 20.2377 194.545 19.7138C192.362 19.19 190.421 17.9461 189.033 16.1829C187.645 14.4196 186.891 12.2401 186.894 9.99602L186.879 9.99978ZM214.288 10.5067L207.962 0.267775H211.16L215.719 7.73198L220.303 0.267775H223.506L217.157 10.5329V19.7318H214.281L214.288 10.5067Z"></path>
</svg>