<svg class="gearaid_logo" xmlns="http://www.w3.org/2000/svg" viewBox="0 0 158.13 238.03">
  <defs>
    <style>.gearaid_logo_path{fill:#fff;}</style>
  </defs>
  <title>Gear Aid Logo</title>
  <g id="gearaid_logo_g" data-name="gearaid_logo_g">
    <path class="gearaid_logo_path" d="M157.17,117A231.58,231.58,0,0,0,97,104.31L79.75,74.45a.79.79,0,0,0-1.37,0L61.12,104.32a232.46,232.46,0,0,0-39.67,6.47.79.79,0,0,1-1-.76V62.61a.79.79,0,0,1,.79-.79l135.65.24a.79.79,0,0,0,.79-.79V42.57a.79.79,0,0,0-.79-.79H1.22a.79.79,0,0,0-.79.79V144.71C.43,175.93,13.74,202,38.93,220,56.18,232.31,76,237.35,78.87,238a1.52,1.52,0,0,0,.69,0c2.78-.67,22.38-5.68,39.63-18,25.19-18,38.5-44,38.5-75.26v-27a.8.8,0,0,0-.53-.75m-19.51,27.71c0,24.6-10,44.31-29.59,58.58l-.37.26a49.15,49.15,0,0,1-57.3,0l-.37-.26c-19.63-14.27-29.58-34-29.58-58.58V132.4a.8.8,0,0,1,.58-.77,211.4,211.4,0,0,1,27.65-5.82L32.54,153.76a.79.79,0,0,0,.85,1.17,223.63,223.63,0,0,1,23.3-3.56.79.79,0,0,0,.6-.39l21.09-36.48a.79.79,0,0,1,1.37,0L100.84,151a.79.79,0,0,0,.6.39,223.63,223.63,0,0,1,23.3,3.56.79.79,0,0,0,.84-1.17l-16.15-27.94a211.21,211.21,0,0,1,27.65,5.82.8.8,0,0,1,.58.77Zm-72,39.76,12.52-21.69a1,1,0,0,1,1.67,0l12.52,21.69a1,1,0,0,1-.83,1.44h-25a1,1,0,0,1-.83-1.44M19.11,28.18a10.61,10.61,0,0,1-8.29,3.21,10.61,10.61,0,0,1-7.93-3.21c-3-3-2.88-7-2.88-11.3V13.44C0,9.56.13,6,2.89,3.2A10.43,10.43,0,0,1,10.82,0C18.15,0,21.27,4.77,22,9.45H14.9c-.56-2.16-1.68-3.2-4.09-3.2A3.42,3.42,0,0,0,8.05,7.49c-.61.8-1,1.7-1,6.21,0,.25,0,2.9,0,3.17,0,5.21.4,6.21,1,7.05a3.4,3.4,0,0,0,2.76,1.2A4.09,4.09,0,0,0,13.94,24,4.26,4.26,0,0,0,15,21V19.77H10.82V13.92H22v4.76c0,4.61-.72,7.29-2.89,9.49m5.33,3V1H43.83V7.28H31.45v5.56H42v6.25H31.45v5.8H43.83v6.25Zm39.5,0L62.61,26.9H53.84l-1.4,4.25H45.11L55.48,1h5.41L71.27,31.14Zm-5.57-18.5L55.8,21h5Zm30.57,6.6a8.2,8.2,0,0,0,4.65-7.45V10.21C93.58,5.52,90.18,1,83.85,1H72.55V31.14h7V20.53h3.16l4.39,10.62h7.27Zm-2.36-7.45a2.89,2.89,0,0,1-3,2.88h-4V7.32h4a2.89,2.89,0,0,1,3,2.88ZM117.9,31.14l-1.32-4.25H107.8l-1.4,4.25H99.07L109.44,1h5.41l10.38,30.11Zm-5.57-18.5L109.76,21h5ZM126.51,1h7V31.14h-7Zm28.64,27.31a10.62,10.62,0,0,1-7.69,2.8H136.88V1h10.58a10.62,10.62,0,0,1,7.69,2.8c3.08,3.08,3,6.43,3,10.47,0,.33,0,2.24,0,2.58,0,4.49.36,8.13-3,11.46M150.34,8.88A3.64,3.64,0,0,0,147,7.28h-3.09V24.89H147a3.64,3.64,0,0,0,3.37-1.6c.56-.8.76-1.56.76-6.41,0-.35,0-2.27,0-2.58,0-3.93-.24-4.67-.76-5.42m-3.22,217.49a6,6,0,1,1,6-6,6,6,0,0,1-6,6m0-10.93a4.91,4.91,0,1,0,4.81,4.91,4.82,4.82,0,0,0-4.81-4.91m1.26,8.15L147.06,221h-.83v2.58H145v-6.5h2.44a2,2,0,0,1,2.1,2,1.81,1.81,0,0,1-1.28,1.76l1.45,2.75Zm-1.06-5.49h-1.1v2h1.1a1,1,0,1,0,0-2"></path>
  </g>
</svg>