<svg xmlns="http://www.w3.org/2000/svg" viewBox="0 0 596 468" width="122" height="96" fill="none" class="logo-slim">
  <path fill="#2C2A29" d="M566.687 97.173c-.154-2.285-2.064-4.095-4.359-4.106l-63.327-.375c-1.899 0-3.598 1.137-4.558 3.046l-9.834 19.733a9413.752 9413.752 0 0 0-3.642-18.883c-.397-2.064-2.218-3.554-4.337-3.554l-62.312 1.026c-1.413.022-3.289.685-4.194 3.73l-.088.266v.022l-1.976 6.71c0-3.057.022-5.794.045-8.123.011-1.214-.42-2.34-1.226-3.145-.805-.817-1.964-1.292-3.178-1.292l-102.904.707a4.389 4.389 0 0 0-4.359 4.105l-8.377 49.951c-1.059-.022-2.582-.022-4.801-.033h-16.3c-10.386 0-23.453-.011-37.116-.011h-83.171l-20.627-50.69c-.629-1.546-1.677-3.311-4.26-3.333l-102.87-.707a4.39 4.39 0 0 0-4.382 4.139c-.717 12.449-1.744 34.82-2.14 48.295-.034 1.038.33 2.031 1.114 3.035l26.796 34.721c-.176 27.679.133 48.02.96 62.19.078 1.258.663 2.461 1.744 3.587l36.62 38.175c.981 1.027 2.063 1.479 3.509 1.479l41.375-.221c1.082 0 2.086-.43 2.826-1.203.761-.794 1.181-1.898 1.136-2.957-.264-5.993-.75-17.526-1.192-31.046 5.177 6.324 16.665 12.372 30.417 10.352 13.332 17.979 34.599 28.662 57.169 28.662 35.217 0 65.413-25.958 70.235-60.369l4.238-27.989 19.855-.165c-.309 17.481-.883 56.705-.276 80.831a3.964 3.964 0 0 0 3.962 3.884l41.917.221c1.92 0 2.759-.949 3.079-1.512l22.58-38.959c.629-1.081.927-2.052.916-2.979-.099-8.73-.342-19.281-.607-30.439l-.044-2.053c-.088-3.487-.165-7.052-.243-10.65l11.346-22.536c-.475 23.563-1.634 48.483-2.748 72.653-.519 11.146-1.005 21.675-1.424 32.072-.044 1.092.331 2.119 1.071 2.88.761.784 1.843 1.258 2.913 1.258l37.811-.154c2.141 0 3.234-1.722 3.642-2.362l4.227-6.611a4.013 4.013 0 0 0 3.587 2.196l35.206-.64c1.832-.033 2.936-1.368 3.454-2.008l4.89-5.971c-.122 4.039-.243 8.09-.387 12.107-.033 1.092.342 2.108 1.082 2.869.761.784 1.843 1.247 2.902 1.247l37.8-.154c1.402 0 2.031-.53 3.024-1.457l40.912-38.164c.762-.706 1.788-1.666 1.788-3.465-.055-46.839-1.876-102.131-4.856-147.877l-.033.044Z"></path>
  <path fill="#fff" d="m45.668 244.752 49.267-.265c-1.17-26.233-2.726-69.596-2.44-99.692l28.254.232c.209-13.586.684-35.493 1.015-47.7l-102.837-.706c-.74 12.78-1.755 35.019-2.13 48.174l28.374.221c-.518 30.494-1.015 73.591.508 99.736h-.011ZM498.537 97.085c-2.34 18.276-8.222 52.776-8.796 58.989h-2.428c-.585-6.566-7.394-41.905-10.661-58.647l-62.268 1.026c-.099 46.298-3.311 99.924-5.187 146.012 14.844-.066 29.688-.121 44.532-.188.022-22.845-.165-45.701-.563-68.558l2.362-.165c.916 6.975 8.697 45.083 11.6 60.755 13.828-.254 27.668-.497 41.497-.75 3.917-16.147 12.471-53.395 13.177-60.281.784.055 1.578.099 2.362.154-.21 22.879-.773 47.28-1.534 69.828 14.844-.067 29.688-.122 44.532-.188-.055-46.232-1.821-101.094-4.856-147.601-21.256-.122-42.513-.243-63.769-.376v-.01ZM376.971 244.752l-49.278-.265c-.662-26.211-.154-69.596.419-99.703l-28.264.232c.033-13.586.508-35.493.982-47.689 34.291-.231 68.592-.474 102.882-.706-.121 12.769-.055 35.008.088 48.163-9.458.077-18.916.144-28.374.221-.343 30.505 1.247 73.613 1.534 99.747h.011Z"></path>
  <path fill="#2C2A29" d="M576.455 106.3v-7.748h-2.153V94.8h7.991v3.752h-2.152v7.748h-3.686ZM592.391 106.3l.077-5.463h-.187c0 .364-.033.64-.089.905l-.882 4.381h-3.389l-.883-4.381a4.122 4.122 0 0 1-.088-.905h-.187l.077 5.463h-3.587l.331-11.51h5.287l.606 3.917c.034.254.056.42.056.773h.187c0-.354.022-.52.055-.773l.607-3.918h5.287L596 106.3h-3.609ZM211.17 73.731a8.048 8.048 0 0 1-8.012-7.184l-5.607-51.386a13.434 13.434 0 0 1 3.333-10.385A13.418 13.418 0 0 1 210.85.328h.64c3.797 0 7.428 1.622 9.966 4.448a13.343 13.343 0 0 1 3.333 10.385l-5.606 51.375a8.05 8.05 0 0 1-8.013 7.184v.011Zm29.457 4.183a7.91 7.91 0 0 1-2.737-.485l-.243-.089c-3.775-1.38-5.971-5.374-5.121-9.292l8.189-37.535a13.348 13.348 0 0 1 6.622-8.863 13.344 13.344 0 0 1 11.025-.85 13.369 13.369 0 0 1 7.902 7.737 13.416 13.416 0 0 1-.629 11.048l-17.846 34.014c-1.424 2.715-4.238 4.315-7.162 4.315Zm26.31 11.964a8.05 8.05 0 0 1-5.176-1.888 8.052 8.052 0 0 1-1.523-10.65l28.728-42.965a13.362 13.362 0 0 1 9.227-5.805c3.752-.54 7.582.552 10.484 2.991l.497.42a13.397 13.397 0 0 1 4.768 9.8 13.416 13.416 0 0 1-4.117 10.098L272.5 87.637a8.043 8.043 0 0 1-5.574 2.24h.011Zm22.095 19.004c-2.814 0-5.529-1.467-6.997-4.028l-.132-.221c-2.009-3.476-1.126-7.957 2.053-10.407l30.394-23.485a13.36 13.36 0 0 1 10.771-2.539c3.786.75 7.064 3.09 8.995 6.434a13.38 13.38 0 0 1 1.071 11.015 13.377 13.377 0 0 1-7.582 8.056l-35.538 14.58a7.95 7.95 0 0 1-3.035.595ZM181.703 77.914c-2.925 0-5.739-1.6-7.163-4.315l-17.846-34.014a13.389 13.389 0 0 1 7.273-18.795 13.34 13.34 0 0 1 11.026.85 13.432 13.432 0 0 1 6.622 8.862l8.189 37.535c.861 3.918-1.347 7.913-5.121 9.292l-.243.089a7.87 7.87 0 0 1-2.737.485v.011Zm-26.311 11.964a8.042 8.042 0 0 1-5.573-2.24l-37.325-35.759a13.432 13.432 0 0 1-4.117-10.098 13.394 13.394 0 0 1 4.768-9.811l.496-.409a13.432 13.432 0 0 1 10.485-3.002 13.445 13.445 0 0 1 9.237 5.805l28.728 42.965a8.038 8.038 0 0 1-1.523 10.65 8.051 8.051 0 0 1-5.176 1.888v.01Zm-22.095 19.004a7.915 7.915 0 0 1-3.035-.595l-35.537-14.58a13.375 13.375 0 0 1-7.582-8.056 13.424 13.424 0 0 1 1.07-11.015 13.385 13.385 0 0 1 8.995-6.434c3.786-.75 7.715.177 10.772 2.539l30.394 23.485c3.178 2.45 4.061 6.931 2.053 10.407l-.133.221c-1.468 2.55-4.194 4.028-6.997 4.028ZM211.16 84.668c-45.493 0-82.608 36.443-83.756 81.659-7.924.673-14.822 4.127-19.59 9.911-5.33 6.478-7.394 15.053-5.783 24.136 3.245 18.42 20.892 33.407 39.334 33.407h10.363c4.26 0 8.366 1.281 11.887 3.709 14.016 9.679 30.46 14.789 47.556 14.789 46.209 0 83.81-37.602 83.81-83.811 0-46.21-37.601-83.81-83.81-83.81l-.011.01Zm-86.647 111.744c-.431-2.428-.089-4.448.949-5.684 1.103-1.313 2.946-1.666 4.414-1.721a83.04 83.04 0 0 0 8.84 21.653c-6.544-1.39-13.045-7.659-14.215-14.248h.012Z"></path>
  <path fill="#fff" d="M111.401 179.185c-4.458 5.419-6.169 12.658-4.801 20.384 2.881 16.312 18.476 29.578 34.765 29.578h10.363c5.199 0 10.22 1.567 14.513 4.524 13.244 9.139 28.772 13.973 44.93 13.973 42.876 0 77.906-34.269 79.142-76.858h-9.889c.111 4.414-.265 9.304-1.401 14.612-6.103 28.397-32.282 47.391-54.973 51.474-3.686.662-8.818 1.324-14.568 1.324-7.681 0-16.455-1.192-24.346-5.154-7.141-3.586-14.381-12.283-14.381-21.94 0-10.992 8.112-20.108 18.795-21.554.243-1.965.585-4.205 1.314-6.07 1.236-3.146 4.955-6.479 9.436-6.479 5.43 0 9.855 4.426 9.855 9.856 0 1.689-.651 4.646-1.203 6.831-.783 3.113 2.616 4.316 3.002 4.437 4.912 1.6 15.407-1.512 22.117-8.079 3.929-3.851 8.024-10.241 5.971-19.258H129.943c-.067 0-.144.011-.21.011-7.472.132-13.983 3.112-18.321 8.377l-.011.011Zm10.529 8.553c1.854-2.207 4.735-3.377 8.333-3.377h1.456c1.082 0 2.02.75 2.263 1.799a78.537 78.537 0 0 0 11.036 25.825c.475.706.508 1.622.111 2.373a2.325 2.325 0 0 1-2.042 1.214h-1.722c-9.679 0-19.678-8.587-21.399-18.365-.674-3.796.033-7.163 1.964-9.469Z"></path>
  <path fill="#D1C29C" d="M224.039 236.872c-3.686.662-8.818 1.324-14.568 1.324-7.681 0-16.455-1.192-24.346-5.154-6.07-3.057-12.196-9.8-13.906-17.68-13.012-11.445-22.36-26.962-26.013-44.576h-15.274c-.067 0-.144.011-.21.011-7.472.132-13.983 3.112-18.321 8.377-4.458 5.418-6.169 12.658-4.801 20.384 2.881 16.312 18.476 29.578 34.765 29.578h10.363c5.199 0 10.22 1.567 14.513 4.524 13.244 9.139 28.772 13.973 44.93 13.973 1.379 0 2.737-.034 4.094-.111.431-.022.85-.066 1.28-.099.928-.066 1.855-.122 2.771-.221.496-.055.982-.121 1.479-.187.838-.1 1.688-.199 2.516-.332.507-.077 1.004-.176 1.501-.264.816-.144 1.633-.287 2.439-.453.496-.099.971-.221 1.468-.331.805-.188 1.611-.364 2.417-.574.474-.121.938-.265 1.401-.397.806-.232 1.612-.453 2.406-.707.442-.143.883-.287 1.314-.441a91.655 91.655 0 0 0 2.428-.85 116.453 116.453 0 0 0 3.675-1.468c.375-.165.75-.331 1.114-.496.828-.376 1.656-.751 2.461-1.159.343-.166.674-.331 1.005-.508.839-.43 1.666-.872 2.494-1.324.298-.166.596-.331.883-.497.85-.485 1.689-.993 2.527-1.501.254-.154.508-.32.762-.474a93.76 93.76 0 0 0 2.56-1.7l.629-.43a86.845 86.845 0 0 0 2.583-1.91c.165-.121.331-.254.485-.375a71.334 71.334 0 0 0 2.616-2.141c.11-.099.232-.199.342-.298a92.008 92.008 0 0 0 2.66-2.406c.066-.055.121-.11.188-.176a90.606 90.606 0 0 0 2.726-2.715 81.102 81.102 0 0 1-38.418 12.382 60.032 60.032 0 0 1-5.949 1.402h.011Zm-78.921-22.514a2.325 2.325 0 0 1-2.042 1.214h-1.722c-9.679 0-19.678-8.587-21.399-18.365-.674-3.796.033-7.163 1.964-9.469 1.854-2.207 4.735-3.377 8.333-3.377h1.456c1.082 0 2.02.75 2.263 1.799a78.537 78.537 0 0 0 11.036 25.825c.475.706.508 1.622.111 2.373Z"></path>
  <path fill="#FFD200" d="M211.159 89.304c42.877 0 77.884 34.268 79.121 76.857h-10.187c-1.181-10.926-5.198-18.287-6.876-20.925a2.32 2.32 0 0 0-3.918 2.484c2.748 4.326 5.187 10.749 6.092 18.453.177 1.489.287 3.046.331 4.624a55.941 55.941 0 0 1-1.258 13.63c-5.672 26.399-30.085 44.068-51.264 47.887-6.467 1.17-22.934 3.167-36.012-3.41-5.739-2.881-11.831-10.099-11.831-17.802a17.088 17.088 0 0 1 16.334-17.107 2.324 2.324 0 0 0 2.196-2.019l.122-.96c.22-1.888.507-4.238 1.136-5.85.585-1.479 2.693-3.542 5.121-3.542a5.223 5.223 0 0 1 5.221 5.22c0 .894-.42 3.134-1.06 5.706-1.269 5.076 2.252 8.729 6.059 9.977 6.313 2.052 18.574-1.137 26.786-9.172 6.798-6.655 9.303-15.142 7.14-24.037a26.002 26.002 0 0 0-.408-1.523 2.295 2.295 0 0 0-1.479-1.523c-.066-.022-.133-.011-.199-.033-.176-.044-.353-.089-.541-.089H132.017c1.236-42.589 36.233-76.857 79.12-76.857l.022.01Z"></path>
  <path fill="#2C2A29" d="M216.633 113.043c-.143 0-.287-.011-.43-.044a2.31 2.31 0 0 1-1.843-2.704c1.048-5.518 4.613-11.091 10.231-11.091 6.147 0 9.359 5.992 10.242 11.124a2.308 2.308 0 0 1-1.888 2.671c-1.258.232-2.461-.629-2.671-1.887-.132-.74-1.368-7.273-5.672-7.273-3.4 0-5.198 4.779-5.673 7.317a2.313 2.313 0 0 1-2.273 1.887h-.023Z"></path>
  <path fill="#2C2A29" d="M211.159 151.925c31.134 0 47.424-19.093 47.424-37.965a2.318 2.318 0 1 0-4.636 0c0 16.565-14.7 33.33-42.788 33.33-28.088 0-42.788-16.765-42.788-33.33a2.318 2.318 0 1 0-4.635 0c0 18.861 16.289 37.965 47.423 37.965Z"></path>
  <path fill="#2C2A29" d="M189.407 113.01a2.3 2.3 0 0 0 2.67-1.887c.133-.739 1.369-7.273 5.673-7.273 3.399 0 5.198 4.779 5.673 7.317a2.314 2.314 0 0 0 2.273 1.888c.144 0 .287-.012.431-.045a2.309 2.309 0 0 0 1.843-2.704c-1.049-5.518-4.613-11.091-10.231-11.091-6.147 0-9.359 5.993-10.242 11.125a2.306 2.306 0 0 0 1.888 2.67h.022Z"></path>
  <path fill="#FFAC00" d="M132.05 166.162h12.328a81.238 81.238 0 0 1-.894-12.008c0-14.855 3.984-28.783 10.926-40.779-13.343 13.751-21.764 32.303-22.36 52.787Z"></path>
  <path fill="#FFD200" d="M292.829 36.936 264.102 79.9a3.423 3.423 0 0 0 .64 4.525 3.415 3.415 0 0 0 4.569-.155l37.325-35.758a8.785 8.785 0 0 0 2.693-6.6 8.72 8.72 0 0 0-3.123-6.412l-.497-.408a8.78 8.78 0 0 0-5.629-2.042 8.757 8.757 0 0 0-7.273 3.885h.022ZM261.949 30.204a8.763 8.763 0 0 0-8.156-5.596 8.749 8.749 0 0 0-4.216 1.082 8.762 8.762 0 0 0-4.326 5.794l-8.189 37.535a3.443 3.443 0 0 0 2.174 3.95l.243.09a3.435 3.435 0 0 0 4.204-1.634l17.846-34.015a8.73 8.73 0 0 0 .409-7.217l.011.01ZM324.217 72.738a8.73 8.73 0 0 0-7.03 1.656l-30.395 23.485a3.452 3.452 0 0 0-.872 4.426l.133.221a3.432 3.432 0 0 0 4.271 1.456l35.537-14.579a8.78 8.78 0 0 0 4.956-5.264 8.713 8.713 0 0 0-.707-7.196 8.71 8.71 0 0 0-5.882-4.205h-.011ZM218.002 7.877a8.766 8.766 0 0 0-6.512-2.903h-.64a8.763 8.763 0 0 0-6.511 2.903 8.764 8.764 0 0 0-2.186 6.787l5.607 51.386a3.421 3.421 0 0 0 3.41 3.057 3.429 3.429 0 0 0 3.41-3.057l5.607-51.375a8.78 8.78 0 0 0-2.185-6.787v-.011ZM115.705 48.524l37.325 35.758a3.415 3.415 0 0 0 4.569.155 3.4 3.4 0 0 0 .64-4.525l-28.727-42.965a8.751 8.751 0 0 0-12.891-1.843l-.497.408a8.778 8.778 0 0 0-3.123 6.412 8.728 8.728 0 0 0 2.693 6.6h.011ZM105.154 74.405a8.702 8.702 0 0 0-7.04-1.656 8.736 8.736 0 0 0-5.883 4.205 8.751 8.751 0 0 0-.706 7.196 8.748 8.748 0 0 0 4.955 5.264l35.537 14.58c1.578.64 3.41.022 4.271-1.457l.133-.221a3.45 3.45 0 0 0-.872-4.426l-30.395-23.485ZM178.646 71.436a3.453 3.453 0 0 0 4.205 1.633l.243-.088a3.444 3.444 0 0 0 2.174-3.951l-8.189-37.535a8.763 8.763 0 0 0-4.327-5.794 8.713 8.713 0 0 0-7.206-.552 8.745 8.745 0 0 0-5.165 5.054 8.73 8.73 0 0 0 .408 7.218l17.846 34.015h.011Z"></path>
</svg>