<svg class="logo__icon" width="140" height="32" viewBox="0 0 140 32" fill="none" xmlns="http://www.w3.org/2000/svg" aria-labelledby="logo-title"><title>Home</title><path d="M65.965 7.07613C65.965 6.68813 65.69 6.49413 65.093 6.49413H61.266C60.604 6.49413 60.329 6.67212 60.329 7.10812C60.329 7.44813 60.539 7.62513 60.991 7.65813C61.751 7.75412 62.171 8.02812 62.171 8.51312C62.171 8.75612 62.106 9.03012 61.961 9.41812L57.568 23.0361L53.047 9.27312C52.9608 9.03984 52.9116 8.79457 52.901 8.54612C52.901 8.12612 53.144 7.88312 53.596 7.78612L54.226 7.64112C54.613 7.57612 54.791 7.36612 54.791 7.05913C54.791 6.63913 54.548 6.47813 53.854 6.47813H48.848C48.089 6.47813 47.879 6.62312 47.879 7.09212C47.879 7.39912 48.025 7.54412 48.477 7.64112C49.527 7.88312 49.688 8.01312 50.107 9.27312L51.593 13.5211L48.363 22.9711L43.681 9.27312C43.6169 9.04654 43.579 8.81334 43.568 8.57812C43.568 8.02813 43.908 7.75412 44.682 7.67313C45.247 7.60913 45.473 7.46312 45.473 7.05913C45.473 6.63913 45.263 6.47813 44.537 6.47813H39.499C38.739 6.47813 38.498 6.62312 38.498 7.09212C38.498 7.30212 38.643 7.51213 38.853 7.54412L39.515 7.75412C40.096 7.93212 40.387 8.33612 40.726 9.27312L46.458 25.8141C46.798 26.7511 47.121 27.0901 47.75 27.0901C48.412 27.0901 48.687 26.8161 49.042 25.7501L52.272 16.1701L55.712 25.9921C55.986 26.7831 56.341 27.0901 56.954 27.0901C57.584 27.0901 57.859 26.8161 58.198 25.8141L63.753 9.27312C64.092 8.23912 64.383 7.85113 64.803 7.75412L65.383 7.64112C65.755 7.56112 65.965 7.35113 65.965 7.07613ZM68.161 10.8071C69.097 10.8071 69.856 10.0471 69.856 9.07912C69.856 8.17412 69.0661 7.38312 68.1291 7.38312C67.1921 7.38312 66.401 8.14212 66.401 9.04612C66.401 10.0481 67.16 10.8071 68.161 10.8071ZM70.6311 25.6851L70.179 25.6531C69.663 25.5881 69.549 25.3781 69.549 24.4091V15.1361C69.549 14.2641 69.453 14.0381 69.001 14.0381C68.855 14.0381 68.855 14.0701 68.451 14.2161L66.013 15.2491C65.464 15.4591 65.383 15.5561 65.383 15.8311C65.383 16.1711 65.561 16.3161 66.013 16.3481C66.74 16.3481 66.918 16.5581 66.918 17.2201V24.4091C66.918 25.3781 66.821 25.5881 66.32 25.6531L65.868 25.6851C65.528 25.7171 65.3511 25.9271 65.3511 26.2021C65.3511 26.5091 65.5611 26.7191 65.868 26.7191H70.6311C70.938 26.7191 71.181 26.5091 71.181 26.2021C71.181 25.9271 70.9711 25.7011 70.6311 25.6851ZM84.8091 25.6851L84.292 25.6531C83.872 25.5881 83.695 25.3781 83.695 24.8291V18.0111C83.695 16.4111 83.485 15.7011 82.904 15.0711C82.322 14.4081 81.3371 14.0691 80.159 14.0691C78.625 14.0691 77.7201 14.4411 76.299 15.6521V14.7321C76.299 14.2471 76.122 14.0051 75.734 14.0051C75.605 14.0051 75.492 14.0371 75.153 14.1821L72.7951 15.2161L72.456 15.3291C72.246 15.4261 72.1171 15.5721 72.1171 15.7821C72.1171 16.1211 72.327 16.2981 72.747 16.2981C73.473 16.2981 73.651 16.5081 73.651 17.4781V24.3921C73.651 25.3611 73.538 25.5711 73.021 25.6351L72.569 25.6681C72.23 25.7001 72.052 25.9101 72.052 26.1851C72.052 26.4921 72.262 26.7021 72.569 26.7021H77.3C77.607 26.7021 77.817 26.4921 77.817 26.1851C77.817 25.9101 77.64 25.7001 77.3 25.6681L76.913 25.6351C76.363 25.5711 76.2831 25.3611 76.2831 24.3921V19.7391C76.2831 17.3491 77.3971 15.7981 79.1571 15.7981C80.5471 15.7981 81.095 16.5251 81.095 18.5281V24.4081C81.095 25.3771 80.982 25.5871 80.433 25.6521L80.013 25.6841C79.706 25.7161 79.497 25.9261 79.497 26.2011C79.497 26.5081 79.7071 26.7181 80.0461 26.7181H84.776C85.116 26.7181 85.326 26.5081 85.326 26.2011C85.326 25.9261 85.1161 25.7011 84.8091 25.6851ZM93.4 7.38312C92.85 7.62512 92.7701 7.68912 92.7701 7.99612C92.7701 8.36812 92.948 8.44913 93.577 8.48113C94.142 8.48113 94.3371 8.69112 94.3371 9.45112V21.3231C94.3371 24.0861 93.4 25.5721 91.623 25.5721C89.815 25.5721 88.813 23.7791 88.813 20.5801C88.813 17.2531 89.7831 15.3461 91.494 15.3461C91.914 15.3461 92.076 15.4111 92.818 15.7341C92.9294 15.7887 93.0504 15.8216 93.174 15.8311C93.448 15.8311 93.723 15.5561 93.723 15.2811C93.723 14.5871 92.479 13.9411 91.155 13.9411C87.99 13.9411 85.875 16.5741 85.875 20.5161C85.875 24.4891 87.861 27.0261 91.01 27.0261C92.495 27.0261 93.5131 26.5091 94.3361 25.4261V26.1211C94.3361 26.5411 94.5461 26.7351 94.966 26.7351H97.986C98.325 26.7351 98.535 26.5251 98.535 26.2181C98.535 25.9431 98.3571 25.7331 98.0181 25.7011L97.566 25.6691C97.146 25.6041 96.968 25.3941 96.968 24.8451L96.9361 24.4251V7.07512C96.9361 6.41312 96.823 6.20312 96.371 6.20312C96.225 6.20312 96.064 6.26813 95.773 6.38113L93.4 7.38312ZM119.187 25.6851L118.767 25.6531C118.219 25.5881 118.137 25.3781 118.137 24.4091V17.7371C118.137 16.3471 117.896 15.5571 117.33 14.9431C116.75 14.3451 115.829 14.0061 114.65 14.0061C112.874 14.0061 111.566 14.6191 110.613 15.8791C110.048 14.6031 109.014 14.0061 107.351 14.0061C105.866 14.0061 104.541 14.5871 103.637 15.6371V14.8461C103.637 14.2641 103.492 14.0541 103.088 14.0541C102.911 14.0541 102.911 14.0541 102.426 14.2641L100.133 15.2011C99.6171 15.4431 99.471 15.5411 99.471 15.8151C99.471 16.0891 99.7131 16.2991 100.052 16.2991C100.989 16.3641 101.054 16.4451 101.054 17.6081V24.3931C101.054 25.3621 100.941 25.5721 100.424 25.6361L100.004 25.6691C99.664 25.7011 99.487 25.9111 99.487 26.1861C99.487 26.4931 99.697 26.7031 100.004 26.7031H104.719C105.026 26.7031 105.236 26.4931 105.236 26.1861C105.236 25.9111 105.058 25.7011 104.719 25.6691L104.299 25.6361C103.783 25.5721 103.669 25.3621 103.669 24.3931V19.5461C103.669 18.4801 103.847 17.6731 104.219 17.0261C104.671 16.2351 105.575 15.6861 106.512 15.6861C107.077 15.6861 107.626 15.9601 107.965 16.3801C108.239 16.7681 108.32 17.2531 108.32 18.2541V24.3761C108.32 25.3461 108.207 25.5561 107.69 25.6201L107.206 25.6531C106.899 25.6851 106.689 25.8951 106.689 26.1691C106.689 26.4761 106.899 26.6861 107.239 26.6861H112.002C112.341 26.6861 112.551 26.4761 112.551 26.1691C112.551 25.8951 112.373 25.6851 112.034 25.6531L111.582 25.6201C111.065 25.5561 110.952 25.3461 110.952 24.3761V19.4331C110.952 18.3191 111.13 17.5271 111.55 16.9131C112.034 16.1861 112.938 15.7021 113.778 15.7021C114.989 15.7021 115.554 16.4611 115.554 18.1251V24.3601C115.554 25.3301 115.441 25.5401 114.924 25.6041L114.504 25.6361C114.198 25.6691 113.988 25.8791 113.988 26.1531C113.988 26.4601 114.198 26.6701 114.537 26.6701H119.22C119.559 26.6701 119.769 26.4601 119.769 26.1531C119.733 26.0244 119.657 25.9103 119.553 25.8265C119.449 25.7426 119.321 25.6932 119.187 25.6851ZM125.791 25.6851L125.34 25.6531C124.823 25.5881 124.71 25.3781 124.71 24.4091V15.1361C124.71 14.2641 124.613 14.0381 124.16 14.0381C124.016 14.0381 124.016 14.0701 123.612 14.2161L121.174 15.2491C120.624 15.4591 120.544 15.5561 120.544 15.8311C120.544 16.1711 120.721 16.3161 121.174 16.3481C121.9 16.3481 122.078 16.5581 122.078 17.2201V24.4091C122.078 25.3781 121.981 25.5881 121.48 25.6531L121.028 25.6851C120.689 25.7171 120.512 25.9271 120.512 26.2021C120.512 26.5091 120.722 26.7191 121.028 26.7191H125.792C126.099 26.7191 126.341 26.5091 126.341 26.2021C126.341 25.9271 126.131 25.7011 125.791 25.6851ZM123.321 10.8071C124.258 10.8071 125.017 10.0471 125.017 9.07912C125.017 8.17412 124.225 7.38312 123.289 7.38312C122.352 7.38312 121.561 8.14212 121.561 9.04612C121.577 10.0481 122.321 10.8071 123.321 10.8071ZM130.265 6.38113L127.939 7.38312C127.374 7.62512 127.309 7.68912 127.309 7.99612C127.309 8.30312 127.487 8.48112 127.826 8.51312C128.666 8.54612 128.86 8.69113 128.828 9.38613V24.4251C128.828 25.3951 128.731 25.6051 128.23 25.6691L127.778 25.7011C127.438 25.7331 127.261 25.9431 127.261 26.2181C127.261 26.5251 127.471 26.7351 127.778 26.7351H132.542C132.848 26.7351 133.091 26.5251 133.091 26.2181C133.091 25.9431 132.881 25.7331 132.541 25.7011L132.089 25.6691C131.573 25.6041 131.459 25.3941 131.459 24.4251V7.10812C131.459 6.38112 131.347 6.20312 130.943 6.20312C130.83 6.20312 130.701 6.23612 130.603 6.26812L130.265 6.38113ZM139.259 25.6851L138.807 25.6531C138.29 25.5881 138.177 25.3781 138.177 24.4091V7.10812C138.177 6.38112 138.064 6.20312 137.66 6.20312C137.547 6.20312 137.418 6.23612 137.321 6.26812L136.982 6.39812L134.657 7.39813C134.092 7.64113 134.027 7.70612 134.027 8.01312C134.027 8.31912 134.205 8.49712 134.544 8.52912C135.384 8.56212 135.577 8.70712 135.545 9.40212V24.4411C135.545 25.4111 135.448 25.6211 134.948 25.6851L134.495 25.7171C134.156 25.7491 133.979 25.9591 133.979 26.2341C133.979 26.5411 134.189 26.7511 134.495 26.7511H139.259C139.566 26.7511 139.808 26.5411 139.808 26.2341C139.807 26.0886 139.749 25.9495 139.646 25.8466C139.543 25.7438 139.404 25.6854 139.258 25.6841L139.259 25.6851Z" fill="#122940"></path><path d="M34.9293 25.925L34.7683 25.812C34.6063 25.699 34.3643 25.586 34.1703 25.441C33.965 25.3102 33.7658 25.1701 33.5733 25.021C33.3793 24.859 33.1853 24.73 33.0233 24.552C32.8396 24.3979 32.6672 24.2308 32.5073 24.052C31.8603 23.3784 31.2963 22.6297 30.8273 21.822C29.9233 20.191 29.3263 18.382 28.9383 16.442C28.4863 14.1169 27.5333 11.7579 25.9183 9.81994C24.2883 7.92994 21.9953 6.49194 19.4283 6.50794C19.3158 6.50602 19.205 6.53515 19.1079 6.59213C19.0109 6.64911 18.9315 6.73175 18.8783 6.83094C18.7944 6.98143 18.7728 7.15886 18.8182 7.32509C18.8636 7.49133 18.9725 7.6331 19.1213 7.71994L19.2503 7.79994C19.6213 8.00994 20.0903 8.30094 20.4603 8.57594C20.6553 8.73694 20.8483 8.86594 21.0263 9.04394C21.2043 9.20594 21.3813 9.36694 21.5433 9.54494C22.1936 10.2211 22.7573 10.9756 23.2213 11.7909C24.1253 13.4219 24.7233 15.2469 25.0783 17.202C25.4983 19.544 26.4513 21.902 28.0653 23.842C29.6963 25.747 32.0053 27.169 34.5893 27.121C34.6933 27.1214 34.7957 27.0949 34.8863 27.0438C34.977 26.9928 35.0528 26.9191 35.1063 26.83C35.2 26.6855 35.2337 26.5103 35.2005 26.3414C35.1673 26.1726 35.0707 26.0232 34.9293 25.925Z" fill="#122940"></path><path d="M25.5319 25.925L25.3709 25.812C25.2089 25.699 24.9669 25.586 24.7729 25.441C24.5629 25.311 24.3699 25.166 24.1759 25.021C23.9819 24.859 23.7879 24.73 23.6259 24.552C23.4421 24.3979 23.2697 24.2308 23.1099 24.052C22.4628 23.3784 21.8988 22.6297 21.4299 21.822C20.5259 20.191 19.9289 18.382 19.5409 16.442C19.0889 14.1169 18.1369 11.7579 16.5209 9.81994C14.8919 7.92894 12.5989 6.49194 10.0319 6.50794C9.91935 6.50602 9.80848 6.53515 9.71145 6.59213C9.61442 6.64911 9.53498 6.73175 9.48186 6.83094C9.39788 6.98143 9.37629 7.15886 9.42172 7.32509C9.46716 7.49133 9.57601 7.6331 9.72486 7.71994L9.85386 7.79994C10.2249 8.00994 10.6939 8.30094 11.0639 8.57594C11.2589 8.73694 11.4519 8.86594 11.6299 9.04394C11.8079 9.20594 11.9849 9.36694 12.1469 9.54494C12.7979 10.221 13.3622 10.9755 13.8269 11.7909C14.7299 13.4219 15.3269 15.2469 15.6829 17.202C16.1029 19.544 17.0559 21.902 18.6699 23.842C20.3009 25.747 22.6099 27.169 25.1939 27.121C25.2979 27.1214 25.4002 27.0949 25.4909 27.0438C25.5815 26.9928 25.6573 26.9191 25.7109 26.83C25.8045 26.6855 25.8382 26.5103 25.805 26.3414C25.7718 26.1726 25.6732 26.0232 25.5319 25.925Z" fill="#122940"></path><path d="M16.1334 25.925L15.9724 25.812C15.8104 25.699 15.5684 25.586 15.3744 25.441C15.1644 25.311 14.9714 25.166 14.7774 25.021C14.5834 24.859 14.3894 24.73 14.2274 24.552C14.0437 24.3979 13.8712 24.2308 13.7114 24.052C13.0644 23.3784 12.5004 22.6297 12.0314 21.822C11.1274 20.191 10.5304 18.382 10.1424 16.442C9.69042 14.1169 8.73842 11.7579 7.12242 9.81994C5.49342 7.92894 3.20042 6.49194 0.633419 6.50794C0.520909 6.50602 0.410045 6.53515 0.313014 6.59213C0.215982 6.64911 0.13654 6.73175 0.083419 6.83094C-0.000561863 6.98143 -0.0221531 7.15886 0.0232858 7.32509C0.0687246 7.49133 0.177566 7.6331 0.326419 7.71994L0.455419 7.79994C0.826419 8.00994 1.29542 8.30094 1.66542 8.57594C1.86042 8.73694 2.05342 8.86594 2.23142 9.04394C2.40942 9.20594 2.58642 9.36694 2.74842 9.54494C3.39943 10.221 3.96376 10.9755 4.42842 11.7909C5.33142 13.4219 5.92842 15.2469 6.28442 17.202C6.70442 19.544 7.65742 21.902 9.27142 23.842C10.9024 25.747 13.2114 27.169 15.7954 27.121C15.8994 27.1214 16.0018 27.0949 16.0924 27.0438C16.183 26.9928 16.2589 26.9191 16.3124 26.83C16.406 26.6855 16.4398 26.5103 16.4066 26.3414C16.3734 26.1726 16.2748 26.0232 16.1334 25.925Z" fill="#122940"></path></svg>