<svg class="logo-galderma" xmlns="http://www.w3.org/2000/svg" xmlns:xlink="http://www.w3.org/1999/xlink" fill="#303030" version="1.1" x="0px" y="0px" viewBox="0 0 684.8 124.2" xml:space="preserve" width="200">
<g>
	<path d="M51.7,41.8v19.6c-4,1-8.1,1.5-11.9,1.5C23,62.8,9.7,53.7,9.7,34.2c0-17.6,10.8-28.3,27.3-28.3C50.1,5.9,57.3,13,61.2,18   l-3-15.3C50.9,0.7,43.4,0,38.4,0C12.3,0,0,17.7,0,35.9c0,20.1,14.2,33,35.4,33c6.2,0,12.6-1.1,18.3-3.9l7.1,4V41.8l3.7-7.1h-17   L51.7,41.8z"></path>
	<path d="M125.3,1.3h-10.8l3.8,6.9L93.4,61.2L87.3,68h17.2l-4.4-6.1l9-21h23.9l9,20.9l-4,6.2h19.5l-6-7L125.3,1.3z M111.3,35.7   l9.7-22.5l9.8,22.5H111.3z"></path>
	<path d="M196.7,52.4V8.3l4.4-7.1h-17.8l4.4,7.1v52.4l-4.4,7.3h43.6l3.8-10.3c-10.2,2.2-22.1,4.1-33.6,4.8   C196.8,59.6,196.7,56.3,196.7,52.4z"></path>
	<path d="M684.8,68l-6-7L652.6,1.3h-10.8l3.8,6.9l-24.8,53.1l-6.1,6.8h17.2l-4.4-6.1l9-21h23.9l9,20.9l-4,6.2H684.8z M638.6,35.7   l9.7-22.5l9.8,22.5H638.6z"></path>
	<path d="M475.5,20.3c0-12.3-10-19-30.5-19h-21l4.4,7.1v52.4l-4.4,7.3h17.7l-4.4-7.3V38.3L471.9,68h14.5l-37-28.7   C466.6,38.3,475.5,31,475.5,20.3z M437.5,35V16.8c0-3.3,0.1-7,0.4-10.3h7.4c14.3,0,20.7,4.3,20.7,14.2c0,14.4-14.9,14.3-24.8,14.3   H437.5z"></path>
	<polygon points="582.9,8.3 586.9,1.3 573.2,1.3 573.6,7.1 550.5,54.7 524.7,1.3 514,1.3 519.1,11.4 514.5,60.4 508.1,68 526,68    521.2,61.1 523.5,20.3 548.5,69.9 549.7,69.9 574.3,18 577.1,60.9 572.3,68 591.8,68 586.8,60.9  "></polygon>
	<path d="M255,68h22.6c26.3,0,39.5-14.5,39.5-34.1c0-20.1-13.9-32.6-39.5-32.6H255l4.4,7.1v52.4L255,68z M268.4,16.8   c0-3.1,0.1-6.6,0.3-9.8h7.9c20.8,0,30.7,10,30.7,27.5c0,16.7-9.5,27.5-30.7,27.7l-7.8,0.1c-0.3-2.9-0.4-6.1-0.4-9.9V16.8z"></path>
	<path d="M359.2,52.4V35c9.7,0.2,22.2,0.8,30.9,1.7l-1.5-6.9l-29.5,0.5V16.8c0-3.3,0.1-6.9,0.3-10.2c11.3,0.6,22.8,2.2,33,4.6   l-3.8-10h-42.9l4.4,7.1v52.4l-4.4,7.3h43.9l3.8-10.4c-10.3,2.4-22.3,4.4-33.8,4.9C359.3,59.6,359.2,56.3,359.2,52.4z"></path>
</g>
<g>
	<polygon points="281.5,115.6 291.2,115.6 291.2,113.5 281.5,113.5 281.5,107.6 291.8,107.6 291.8,105.5 279.2,105.5 279.2,123.8    292,123.8 292,121.7 281.5,121.7  "></polygon>
	<path d="M389.8,114.4c1.9-0.8,3-2.3,3-4.3c0-2.9-2.3-5.1-6.2-5.1c-3.9,0-6.2,2.2-6.2,5.1c0,2,1,3.5,3,4.3c-2.3,0.8-3.5,2.4-3.5,4.5   c0,2.9,2.4,5.3,6.7,5.3c4.4,0,6.7-2.3,6.7-5.3C393.3,116.8,392.1,115.2,389.8,114.4z M382.6,110.3c0-1.9,1.3-3.1,3.9-3.1   c2.6,0,3.9,1.3,3.9,3.1c0,1.9-1.3,3.1-3.9,3.1C384,113.5,382.6,112.2,382.6,110.3z M386.6,122.1c-2.9,0-4.4-1.4-4.4-3.3   c0-1.9,1.5-3.3,4.4-3.3c2.9,0,4.4,1.4,4.4,3.3C391,120.7,389.5,122.1,386.6,122.1z"></path>
	<polygon points="347.1,108.2 347.1,110.4 352,107.9 352,123.8 354.2,123.8 354.2,105.5 352.4,105.5  "></polygon>
	<path d="M367.9,105.1c-4,0-6.8,2.6-6.8,6.4c0,3.8,2.9,6.3,6.2,6.3c1.3,0,2.5-0.4,3.5-1.2l-5.7,7.2h2.8l3.9-5.2   c1.9-2.4,2.7-4.8,2.7-7C374.6,107.6,371.7,105.1,367.9,105.1z M367.8,115.8c-2.8,0-4.5-1.6-4.5-4.3c0-2.7,1.7-4.4,4.5-4.4   c2.8,0,4.5,1.7,4.5,4.4C372.3,114.2,370.6,115.8,367.8,115.8z"></path>
	<path d="M306.8,113.8l-3-0.7c-2.4-0.6-3.3-1.5-3.3-2.9c0-1.9,1.6-3,4.2-3c2.3,0,4,0.8,4.9,2.4l1.8-1.1c-0.9-1.9-3.3-3.4-6.7-3.4   c-4.1,0-6.6,2.2-6.6,5.2c0,2.5,1.7,4.1,5.1,4.9l3,0.7c2.3,0.6,3.3,1.5,3.3,3c0,1.9-1.7,3.2-4.4,3.2c-2.6,0-4.6-1.1-5.6-3.3   l-1.9,1.1c1,2.6,3.7,4.3,7.4,4.3c4.4,0,6.8-2.2,6.8-5.4C311.9,116.3,310.4,114.7,306.8,113.8z"></path>
	<polygon points="398.5,108.2 398.5,110.4 403.4,107.9 403.4,123.8 405.6,123.8 405.6,105.5 403.7,105.5  "></polygon>
	<path d="M333.9,120.9c-1,0-1.6,0.7-1.6,1.5c0,0.9,0.6,1.6,1.6,1.6c1,0,1.6-0.7,1.6-1.6C335.5,121.6,334.8,120.9,333.9,120.9z"></path>
	<polygon points="316.2,107.6 322.3,107.6 322.3,123.8 324.6,123.8 324.6,107.6 330.8,107.6 330.8,105.5 316.2,105.5  "></polygon>
</g>
</svg>