<svg class="Svg Svg--mendi_logo" width="32" height="34" viewBox="0 0 32 34" fill="none" xmlns="http://www.w3.org/2000/svg">
<path d="M26.8278 19.6932C26.7918 19.7114 26.7558 19.7114 26.7198 19.7295C24.8486 20.4004 22.8873 20.2735 21.2139 19.5119C19.7565 18.8591 18.497 17.7167 17.7053 16.2116C17.6513 16.1028 17.5973 15.994 17.5434 15.9034C17.5434 15.9034 17.5434 15.9034 17.5434 15.8852C17.1475 15.1236 16.6797 14.4346 16.1399 13.7999C15.3122 12.8026 14.3226 11.9866 13.243 11.3338C13.1171 11.2612 12.9911 11.1887 12.8652 11.1162C11.8575 10.554 10.76 10.1551 9.60841 9.93751C7.57519 9.52044 5.41602 9.66551 3.32882 10.4634C2.96896 10.6084 2.6091 10.7535 2.26723 10.9348C1.69145 9.01271 2.15927 6.98177 3.36481 5.51297C3.36481 5.51297 3.36481 5.49484 3.3828 5.49484C3.4008 5.47671 3.4008 5.45857 3.41879 5.45857C3.49076 5.38604 3.56273 5.31351 3.63471 5.24097C3.6527 5.22284 3.6527 5.22284 3.67069 5.20471C3.72467 5.15031 3.79664 5.07777 3.85062 5.02337C3.88661 4.98711 3.9226 4.95084 3.95858 4.91457C3.95858 4.91457 3.95858 4.91457 3.97657 4.89644C4.49837 4.42497 5.11014 4.04417 5.79388 3.79031C7.10737 3.30071 8.47485 3.30071 9.69838 3.73591C10.4541 2.28524 11.7136 1.08844 13.351 0.471907C15.87 -0.489159 18.587 0.145507 20.4402 1.88631C21.196 2.59351 21.8077 3.48204 22.1856 4.51564C22.3115 4.86017 22.4195 5.20471 22.4735 5.54924C26.0541 4.67884 29.7966 6.60097 31.1101 10.1551C32.5676 13.9631 30.6423 18.2607 26.8278 19.6932Z" fill="#2A3440"></path>
<path d="M28.2128 28.5247C28.2128 28.5247 28.2128 28.5428 28.2128 28.5247C28.1768 28.5609 28.1588 28.5791 28.1408 28.6153C28.0869 28.6697 28.0329 28.7423 27.9609 28.7967C27.9429 28.8148 27.9429 28.8148 27.9249 28.8329C27.8709 28.8873 27.799 28.9599 27.745 29.0143C27.709 29.0505 27.673 29.0868 27.637 29.1231C27.637 29.1231 27.637 29.1231 27.619 29.1412C27.0972 29.6127 26.4855 29.9935 25.8017 30.2473C24.4882 30.7551 23.1028 30.7369 21.8612 30.3017C21.1055 31.7524 19.846 32.9492 18.1907 33.5657C15.6896 34.5087 12.9907 33.8921 11.1374 32.1876C10.3637 31.4804 9.7519 30.5737 9.35605 29.522C9.2301 29.1775 9.14014 28.8511 9.06816 28.5065C5.52353 29.3769 1.79896 27.4367 0.467468 23.8825C-0.971979 20.0383 0.971274 15.7407 4.78581 14.3081C4.82179 14.29 4.85778 14.29 4.89377 14.2719C6.76505 13.6009 8.72629 13.7279 10.3997 14.4895C11.8031 15.1241 13.0266 16.194 13.8183 17.6084C13.9263 17.8441 14.0343 18.0617 14.1602 18.2793C14.5381 18.9684 14.9699 19.6031 15.4557 20.2015C16.2834 21.1988 17.273 22.0511 18.3706 22.7039C18.4965 22.7764 18.6225 22.8489 18.7664 22.9215C19.774 23.4836 20.8716 23.8825 22.0052 24.1001C24.0384 24.5172 26.1976 24.3721 28.2848 23.5743C28.6446 23.4292 29.0045 23.2841 29.3644 23.1028C29.9042 25.0431 29.4363 27.0559 28.2128 28.5247Z" fill="#2A3440"></path>
</svg>