<svg class="icon icon-logo" viewBox="0 0 178 20" fill="none" xmlns="http://www.w3.org/2000/svg">
<path d="M12.3866 0V7.11674H7.78093V0H0V19.7014H7.78093V12.7828H12.3866V19.7014H20.1704V0H12.3866ZM39.8223 5.17078V19.7014H33.0493L32.7026 17.9768C31.8287 18.9877 30.0197 19.9723 27.73 19.9723C24.1818 19.9723 21.9911 18.3468 21.8658 15.6638V5.17661H28.9593V13.7237C28.9593 14.5598 29.7983 15.2006 30.8557 15.2006C31.9132 15.2006 32.7522 14.5598 32.7522 13.7237V5.17078H39.8223ZM52.4536 19.7014V11.1572C52.4536 10.3183 51.6175 9.67737 50.5571 9.67737C49.4968 9.67737 48.6607 10.3183 48.6607 11.1572V19.7014H41.5935V5.17078H48.3665L48.7102 6.89534C49.5841 5.88449 51.3961 4.87656 53.6858 4.87656C56.3455 4.87656 58.2419 5.81167 59.0809 7.41388C60.2869 5.86119 62.2562 4.87656 64.5721 4.87656C68.1174 4.87656 70.311 6.52538 70.3984 9.21127V19.6985H63.3399V11.1572C63.3399 10.3183 62.5038 9.67737 61.4434 9.67737C60.3831 9.67737 59.547 10.3183 59.547 11.1572V19.7014H52.4536ZM89.2987 19.7014H82.0333L81.6139 18.4458C80.4374 19.4782 78.9168 20.0322 77.352 19.9985C73.9786 19.9985 71.4413 18.2973 71.4413 15.958C71.4413 12.5351 75.4817 11.8447 81.5381 10.9096V9.87546C81.5381 9.38315 81.2672 9.03648 80.4311 9.03648C79.6446 9.03648 79.397 9.38315 79.397 9.87546V10.3678H72.3035V9.75311C72.3035 7.21579 75.9245 4.87656 80.6787 4.87656C85.433 4.87656 88.6316 7.46049 88.6316 9.99781V16.3513C88.6316 17.8545 88.8792 19.0372 89.2987 19.7014ZM80.0379 16.1794C81.0487 16.1794 81.5381 15.6143 81.5381 15.0462V13.4207C79.5193 13.7907 78.5347 14.184 78.5347 15.0462C78.5347 15.6143 79.027 16.1794 80.0379 16.1794ZM90.3299 19.7014V5.17078H97.1291L97.4729 6.89534C98.3468 5.88449 100.159 4.87656 102.448 4.87656C105.994 4.87656 108.187 6.52538 108.275 9.21127V19.6985H101.216V11.1572C101.216 10.3183 100.38 9.67737 99.3198 9.67737C98.2594 9.67737 97.4233 10.3183 97.4233 11.1572V19.7014H90.3299ZM117.052 13.948V19.7014H109.985V5.17078H116.755L117.101 6.89534C118.136 5.68931 119.342 4.87656 122.665 4.87656V10.3678C118.468 10.2017 117.052 10.6212 117.052 13.948ZM140.497 19.7014H133.231L132.812 18.4458C131.637 19.4783 130.117 20.0323 128.553 19.9985C125.18 19.9985 122.642 18.2973 122.642 15.958C122.642 12.5351 126.68 11.8447 132.739 10.9096V9.87546C132.739 9.38315 132.468 9.03648 131.632 9.03648C130.843 9.03648 130.595 9.38315 130.595 9.87546V10.3678H123.504V9.75311C123.504 7.21579 127.125 4.87656 131.877 4.87656C136.628 4.87656 139.832 7.46049 139.832 9.99781V16.3513C139.832 17.8545 140.077 19.0372 140.497 19.7014ZM131.236 16.1794C132.247 16.1794 132.739 15.6143 132.739 15.0462V13.4207C130.72 13.7907 129.736 14.184 129.736 15.0462C129.736 15.6143 130.228 16.1794 131.236 16.1794ZM149.79 19.9723C144.738 19.9723 140.922 16.5989 140.922 12.4361C140.922 8.27325 144.738 4.87656 149.79 4.87656C154.451 4.87656 158.039 7.7081 158.605 11.4019H151.537C151.366 9.94538 150.748 9.43267 149.79 9.43267C148.656 9.43267 147.989 10.1697 147.989 12.4361C147.989 14.7025 148.656 15.4424 149.79 15.4424C150.748 15.4424 151.366 14.9239 151.537 13.4702H158.605C158.022 17.1408 154.442 19.9723 149.79 19.9723ZM168.361 19.9985C163.312 19.9985 159.496 16.5989 159.496 12.4244C159.496 8.24994 163.312 4.8649 168.361 4.8649C173.409 4.8649 177.251 8.2616 177.251 12.4244C177.251 12.7157 177.228 13.0071 177.202 13.3129H166.613C166.761 14.8889 167.376 15.4308 168.361 15.4308C168.711 15.4575 169.06 15.3614 169.348 15.1588C169.635 14.9563 169.844 14.6601 169.937 14.3209H176.981C175.996 17.5719 172.611 19.9869 168.361 19.9869M168.361 9.44432C167.487 9.44432 166.884 9.88711 166.662 11.1689H170.085C169.864 9.88711 169.272 9.44432 168.361 9.44432Z" fill="currentColor"></path>
</svg>