<svg class="logo--mobile" width="159" height="24" viewBox="0 0 159 24" fill="none" xmlns="http://www.w3.org/2000/svg">
<path d="M0.00496043 4.86305C0.00496043 4.48482 -0.0124843 4.11551 0.0180547 3.75508C0.0267801 3.67053 0.188196 3.5415 0.292901 3.53261C0.506675 3.51036 0.724809 3.53705 0.938582 3.57264C2.02053 3.73728 3.05013 3.51925 4.06229 3.16327C6.36581 2.36234 8.66932 1.56585 10.9728 0.764905C13.7781 -0.209574 16.6182 -0.245169 19.4409 0.613619C21.9581 1.37896 24.4449 2.23774 26.9361 3.08318C28.2318 3.5237 29.5319 3.83073 30.9061 3.64828C31.0108 3.63494 31.1199 3.64828 31.277 3.64828C31.338 3.98201 31.4078 4.3113 31.4515 4.64501C31.4602 4.70286 31.3904 4.81411 31.3337 4.83191C31.1766 4.88975 31.0108 4.93869 30.8494 4.94315C29.1174 5.00099 27.4116 4.86305 25.7319 4.36913C23.4851 3.70613 21.234 3.06093 18.9697 2.49138C15.9115 1.71712 12.8968 1.97522 9.93015 3.02534C7.87967 3.75063 5.81611 4.43143 3.66965 4.7963C2.46553 4.99654 1.25706 5.04548 0.00496043 4.86305Z" fill="url(#paint0_radial_908_59)"></path>
<path d="M27.0755 6.20325C24.6193 5.4023 22.1674 4.58356 19.6937 3.85381C16.6616 2.95942 13.6252 2.99502 10.615 4.01845C8.7957 4.63696 6.98953 5.28661 5.16592 5.88287C3.59534 6.39458 1.98985 6.66601 0.336384 6.35008C0.262218 6.33674 0.179325 6.35897 0.0615311 6.36788V8.08549C0.240403 8.08549 0.428001 8.0943 0.615599 8.08549C0.881724 8.07216 1.15221 7.99644 1.40525 8.03204C3.22015 8.30799 4.91724 8.89978 6.41365 10.0032C7.2862 10.6485 7.22949 12.7487 6.34385 13.385C6.29587 13.4206 6.23914 13.4473 6.18679 13.4785C5.48003 13.87 4.73837 13.9056 3.97489 13.7187C3.46446 13.5942 2.95402 13.4652 2.35632 13.3138C4.8867 16.3085 6.85865 19.5434 8.32889 23.1165C8.69973 19.174 8.47285 15.2316 8.54265 11.2937C8.5732 11.2759 8.6081 11.2536 8.63863 11.2359C9.17962 11.703 9.76858 12.1213 10.2485 12.6509C11.5311 14.0658 12.7789 15.5209 14.0179 16.9804C15.4663 18.6846 17.0108 20.2909 18.7863 21.6436C21.1422 23.4413 23.7598 24.3178 26.7221 23.8952C29.5448 23.4947 31.0281 21.2609 30.7969 18.8582C30.605 16.8202 29.3092 15.2449 27.1715 15.3117C25.0425 15.3785 23.4239 17.5054 24.0216 19.5923C24.3925 20.8783 25.1864 21.4166 26.6436 21.1096C27.3417 20.9628 27.7648 20.3977 27.8782 19.6679C28.0048 18.867 27.9437 18.1017 27.237 17.5722C27.0493 17.4298 26.8094 17.3674 26.5913 17.2696C27.407 16.8647 28.6025 17.1093 28.9864 18.2841C29.584 20.104 28.3494 22.0575 26.4298 22.3422C24.9029 22.5691 23.485 22.2132 22.102 21.6035C20.2086 20.767 18.638 19.4766 17.2332 17.9637C15.5012 16.0993 13.791 14.2083 12.0721 12.326C12.011 12.2592 11.9674 12.1747 11.8758 12.0368C12.1289 12.0724 12.3208 12.0902 12.504 12.1213C14.9253 12.5129 17.351 12.5707 19.781 12.2325C21.7966 11.9522 23.677 11.2313 25.5442 10.4526C26.6611 9.98991 27.7823 9.5405 28.9122 9.11776C29.6756 8.833 30.3301 9.08216 30.8929 9.64288C31.0325 9.78074 31.2026 9.89205 31.4077 10.0567V7.14656C29.9113 6.99083 28.4803 6.66156 27.0755 6.20325ZM26.1375 8.5393C23.6202 9.68288 20.9894 10.4304 18.2628 10.7998C15.2656 11.2091 12.3732 10.7553 9.59844 9.53609C8.17183 8.90859 6.76267 8.25014 5.34478 7.6049C5.35787 7.5649 5.37096 7.52037 5.37968 7.48025C7.09423 6.86624 8.80443 6.25219 10.5582 5.62034C10.5364 6.0564 10.4841 6.43018 10.5015 6.80394C10.5888 8.96645 11.854 10.1056 13.7518 10.5016C15.1042 10.7819 16.3257 10.4972 17.3641 9.49597C18.4067 8.48597 18.4896 7.25787 18.0447 5.89621C17.9574 5.63369 17.8178 5.38449 17.6869 5.08637C21.0375 5.51354 24.0696 6.84844 27.1715 8.06323C26.8268 8.22335 26.4821 8.38359 26.1375 8.5393Z" fill="url(#paint1_radial_908_59)"></path>
<path d="M53.412 21.7685V21.8174H50.3189L43.9144 13.6746H42.1605V17.9462C42.1605 19.8329 42.3307 20.8518 42.9415 21.7196V21.8174H39.0237V21.7196C39.6346 20.8518 39.8047 19.8329 39.8047 17.9462V8.36156C39.8047 6.59953 39.6607 5.50491 39.0237 4.66392V4.56602H44.9397C48.6654 4.56602 50.8555 6.37704 50.8555 9.06025C50.8555 11.245 49.2979 12.9359 46.6193 13.4298L53.412 21.7685ZM42.1605 11.9836H44.499C47.0293 11.9836 48.3207 10.8668 48.3207 9.07799C48.3207 7.19132 47.0075 6.2213 44.5252 6.2213H42.165V11.9836H42.1605Z" fill="url(#paint2_radial_908_59)"></path>
<path d="M68.0388 17.8707C68.7455 19.6327 69.16 20.8519 69.9366 21.7197V21.8175H65.8966V21.7197C66.3853 20.8742 66.1148 19.5349 65.5084 17.9686L64.998 16.6514H57.9391L57.4287 18.0175C56.8179 19.6327 56.5997 20.8742 57.1101 21.7151V21.8131H53.6287V21.7151C54.5056 20.8698 54.9201 19.6283 55.5265 17.9908L60.6876 4.55724H62.7817L68.0388 17.8707ZM58.5891 14.9383H64.3348L61.4641 7.58746H61.3682L58.5891 14.9383Z" fill="url(#paint3_radial_908_59)"></path>
<path d="M76.4842 13.198C76.4842 8.05869 79.9657 4.25862 84.9086 4.25862C89.8995 4.25862 93.333 8.05869 93.333 13.198C93.333 18.3374 89.8777 22.1106 84.9086 22.1106C79.9657 22.1152 76.4842 18.3374 76.4842 13.198ZM90.6805 13.198C90.6805 8.95298 88.3682 6.0207 84.9129 6.0207C81.4577 6.0207 79.1192 8.94858 79.1192 13.198C79.1192 17.443 81.4577 20.3264 84.9129 20.3264C88.3682 20.3264 90.6805 17.4474 90.6805 13.198Z" fill="url(#paint4_radial_908_59)"></path>
<path d="M99.2684 14.8128V17.99C99.2684 19.8009 99.4647 20.8467 100.167 21.7143V21.8123H96.101V21.7143C96.7337 20.8467 96.882 19.8009 96.882 17.99V8.38305C96.882 6.57209 96.738 5.50417 96.101 4.65873V4.56084H101.65C105.376 4.56084 107.885 6.44751 107.885 9.65127C107.885 12.806 105.376 14.8174 101.65 14.8174H99.2684V14.8128ZM99.2684 6.22057V13.122H101.166C103.797 13.122 105.354 12.0274 105.354 9.64687C105.354 7.2396 103.797 6.22057 101.166 6.22057H99.2684Z" fill="url(#paint5_radial_908_59)"></path>
<path d="M113.825 21.7151C114.532 20.8474 114.702 19.8018 114.702 17.9641V6.24359H112.826C110.684 6.24359 109.589 6.68856 109.026 7.53402H108.882V4.55272H122.903V7.53402H122.782C122.223 6.68856 121.15 6.24359 118.982 6.24359H117.084V17.9641C117.084 19.8018 117.281 20.843 117.961 21.7151V21.813H113.821V21.7151H113.825Z" fill="url(#paint6_radial_908_59)"></path>
<path d="M125.112 21.7143C125.722 20.8467 125.893 19.8009 125.893 17.99V8.38305C125.893 6.57209 125.722 5.50417 125.112 4.65873V4.56084H129.056V4.65873C128.446 5.50417 128.275 6.57209 128.275 8.38305V17.99C128.275 19.8009 128.446 20.8467 129.056 21.7143V21.8123H125.112V21.7143Z" fill="url(#paint7_radial_908_59)"></path>
<path d="M131.814 13.2252C131.814 7.51629 136.145 4.2636 140.7 4.2636C142.698 4.2636 144.256 4.73526 145.643 5.53176V8.45962H145.522C144.4 6.8711 142.698 6.00342 140.848 6.00342C137.293 6.00342 134.443 8.73558 134.443 13.0073C134.443 17.5993 137.388 20.0332 141.114 20.0332C142.943 20.0332 144.548 19.4103 146.153 18.2444L146.446 19.6105C144.862 21.2257 142.991 22.1201 140.578 22.1201C135.949 22.1157 131.814 18.9609 131.814 13.2252Z" fill="url(#paint8_radial_908_59)"></path>
<path d="M148.221 20.4516V17.4969H148.342C149.655 19.4325 151.362 20.3536 153.185 20.3536C155.008 20.3536 156.619 19.3613 156.619 17.5236C156.619 16.3088 155.912 15.588 154.354 14.8671L151.994 13.7993C149.682 12.7313 148.635 11.1428 148.635 9.22939C148.635 6.47509 150.995 4.2636 154.332 4.2636C156.039 4.2636 157.57 4.78422 158.542 5.42941V8.28605H158.42C157.448 6.71982 155.938 6.00342 154.354 6.00342C152.43 6.00342 150.968 6.9957 150.968 8.7845C150.968 9.87903 151.527 10.7468 153.111 11.4676L155.519 12.5845C157.757 13.6257 159 14.9429 159 17.0787C159 20.0599 156.444 22.1201 153.207 22.1201C151.41 22.1157 149.585 21.5194 148.221 20.4516Z" fill="url(#paint9_radial_908_59)"></path>
<defs>
<radialGradient id="paint0_radial_908_59" cx="0" cy="0" r="1" gradientUnits="userSpaceOnUse" gradientTransform="translate(15.7261 2.48821) scale(15.7261 2.48821)">
<stop offset="0.505" stop-color="#F1D477"></stop>
<stop offset="1" stop-color="#D9AF2F"></stop>
</radialGradient>
<radialGradient id="paint1_radial_908_59" cx="0" cy="0" r="1" gradientUnits="userSpaceOnUse" gradientTransform="translate(14 11) rotate(8.51897) scale(17.6019 11.6715)">
<stop offset="0.505" stop-color="#F1D477"></stop>
<stop offset="1" stop-color="#D9AF2F"></stop>
</radialGradient>
<radialGradient id="paint2_radial_908_59" cx="0" cy="0" r="1" gradientUnits="userSpaceOnUse" gradientTransform="translate(43.5 13) rotate(1.10816) scale(9.91388 11.8866)">
<stop offset="0.505" stop-color="#F1D477"></stop>
<stop offset="1" stop-color="#D9AF2F"></stop>
</radialGradient>
<radialGradient id="paint3_radial_908_59" cx="0" cy="0" r="1" gradientUnits="userSpaceOnUse" gradientTransform="translate(59 12) rotate(6.19628) scale(11.0008 11.6433)">
<stop offset="0.505" stop-color="#F1D477"></stop>
<stop offset="1" stop-color="#D9AF2F"></stop>
</radialGradient>
<radialGradient id="paint4_radial_908_59" cx="0" cy="0" r="1" gradientUnits="userSpaceOnUse" gradientTransform="translate(80.5 10.5) rotate(16.9275) scale(12.0208 12.7366)">
<stop offset="0.505" stop-color="#F1D477"></stop>
<stop offset="1" stop-color="#D9AF2F"></stop>
</radialGradient>
<radialGradient id="paint5_radial_908_59" cx="0" cy="0" r="1" gradientUnits="userSpaceOnUse" gradientTransform="translate(98.5 11) rotate(13.1153) scale(9.63614 14.1073)">
<stop offset="0.505" stop-color="#F1D477"></stop>
<stop offset="1" stop-color="#D9AF2F"></stop>
</radialGradient>
<radialGradient id="paint6_radial_908_59" cx="0" cy="0" r="1" gradientUnits="userSpaceOnUse" gradientTransform="translate(116 8.5) rotate(34.1507) scale(8.34182 10.2689)">
<stop offset="0.505" stop-color="#F1D477"></stop>
<stop offset="1" stop-color="#D9AF2F"></stop>
</radialGradient>
<radialGradient id="paint7_radial_908_59" cx="0" cy="0" r="1" gradientUnits="userSpaceOnUse" gradientTransform="translate(127.084 13.1866) scale(1.97201 8.62572)">
<stop offset="0.505" stop-color="#F1D477"></stop>
<stop offset="1" stop-color="#D9AF2F"></stop>
</radialGradient>
<radialGradient id="paint8_radial_908_59" cx="0" cy="0" r="1" gradientUnits="userSpaceOnUse" gradientTransform="translate(136.5 10.5) rotate(15.1443) scale(10.3038 12.5743)">
<stop offset="0.505" stop-color="#F1D477"></stop>
<stop offset="1" stop-color="#D9AF2F"></stop>
</radialGradient>
<radialGradient id="paint9_radial_908_59" cx="0" cy="0" r="1" gradientUnits="userSpaceOnUse" gradientTransform="translate(150.5 11) rotate(14.4597) scale(8.77804 14.5414)">
<stop offset="0.505" stop-color="#F1D477"></stop>
<stop offset="1" stop-color="#D9AF2F"></stop>
</radialGradient>
</defs>
</svg>