<svg class="loading-logo" viewBox="0 0 32 32" xmlns="http://www.w3.org/2000/svg">
    <g fill="#FFF" fill-rule="evenodd">
        <path d="M22 11c-1.655.002-2.997 1.31-3 2.924a1.046 1.046 0 0 0 1.018 1.075c.585.023 1.08-.42 1.103-.991a.696.696 0 0 0 0-.084.867.867 0 0 1 .875-.86c.486-.002.88.38.883.853v.007a1.046 1.046 0 0 0 1.017 1.075c.585.023 1.08-.42 1.103-.991a.696.696 0 0 0 0-.084c-.002-1.613-1.345-2.922-3-2.924M12.662 16.213l-.567-1.774a.611.611 0 0 1 .209-.67l1.459-1.09a.613.613 0 0 0 .13-.831.57.57 0 0 0-.47-.247l-1.793.014a.572.572 0 0 1-.547-.415l-.542-1.787a.565.565 0 0 0-.715-.385.583.583 0 0 0-.368.385L8.916 11.2a.572.572 0 0 1-.547.415l-1.793-.014A.581.581 0 0 0 6 12.19a.6.6 0 0 0 .236.49l1.459 1.09c.204.15.289.423.209.67l-.567 1.774a.602.602 0 0 0 .363.751c.175.06.365.028.513-.085l1.443-1.113a.551.551 0 0 1 .68 0l1.443 1.113c.25.199.608.147.798-.114a.619.619 0 0 0 .085-.552M16.433 19.58l-.433.433-.432-.433a2.113 2.113 0 0 0-2.989.082 2.119 2.119 0 0 0 0 2.911l.432.433L16.001 26l2.988-2.994.433-.433a2.12 2.12 0 0 0-.083-2.993 2.11 2.11 0 0 0-2.906 0"></path>
        <path d="M16 29.417C8.59 29.417 2.583 23.41 2.583 16S8.59 2.583 16 2.583 29.417 8.59 29.417 16C29.41 23.406 23.407 29.41 16 29.417zM16 0C7.163 0 0 7.163 0 16s7.163 16 16 16 16-7.163 16-16C31.991 7.168 24.832.01 16 0z"></path>
    </g>
</svg>