<svg class="w-full mauds-logo" viewBox="0 0 112.92 44.884" xmlns="http://www.w3.org/2000/svg" xmlns:xlink="http://www.w3.org/1999/xlink"><g transform="translate(-16)"><g class="mauds-logo-shadow" fill="#939597"><path d="M38.064.38h-7.307l-3.253 21.494.488 2.986 3.581-23.665h6.491zM16 .38v33.332h.817V1.195h6.623l-.133-.814z"></path><path d="M21.401 15.057l3.1 18.655h.681l-3.78-22.756zM33.097 16.001v17.711h.817V10.623zM45.847.38l-5.348 33.332h.947l5.218-32.517h7.003l-.131-.814z"></path><path d="M47.837 23.141l-.122.814h5.062L50.246 7.1l-.347 2.312L51.96 23.14zM52.799 28.479l.785 5.233h.695l-.785-5.233zM69.874 30.146c1.672 0 2.722-.857 2.722-3.238V1.195h4.15V.381H71.78v25.712c0 2.38-1.051 3.238-2.722 3.238-.567 0-1.06-.102-1.468-.325.458.811 1.252 1.14 2.284 1.14M61.899 1.195h4.437V.381h-5.253V25.76c0 3.05.875 5.35 2.588 6.762-1.174-1.42-1.772-3.428-1.772-5.948zM89.454 1.195c2.27 0 4.039.543 5.318 1.59C93.477 1.205 91.437.38 88.638.38h-8.31v33.33h.817V1.196z"></path><path d="M89.359 29.764c1.672 0 2.675-.857 2.675-3.238V9.194c0-1.593-.451-2.501-1.25-2.93.281.504.433 1.195.433 2.116v17.332c0 2.38-1.002 3.238-2.674 3.238h-2.144v.814zM99.335.38v5.048h.817V1.195h4.246V.381zM101.104 6.242l-1.148 3.948h1.054l1.148-3.947zM117.37 5.868c.29.516.444 1.228.444 2.18v1.38h.817V8.86c0-1.625-.446-2.562-1.261-2.993M107.984 24.479h4.15v-.814h-4.967v2.047c0 3.05.876 5.35 2.59 6.762-1.175-1.419-1.773-3.428-1.773-5.947z"></path><path d="M115.864.814c2.168 0 3.887.55 5.15 1.59C119.72.839 117.726 0 115.047 0c-5.11 0-7.736 3.048-7.736 8.38 0 4.335 2.127 6.963 4.446 9.186-1.978-2.06-3.63-4.553-3.63-8.372 0-5.333 2.627-8.38 7.737-8.38M115.673 30.098c1.672 0 2.722-.857 2.722-3.238 0-2.602-1.48-4.402-3.315-6.155 1.438 1.511 2.498 3.138 2.498 5.341 0 2.38-1.05 3.238-2.722 3.238-.567 0-1.06-.102-1.467-.325.457.81 1.252 1.139 2.284 1.139"></path></g><g class="mauds-logo-text" fill="currentColor"><path d="M22.054 11.608v23.569H17.47V1.847h7.307l3.868 23.665 3.582-23.665h7.307v33.33h-4.967V11.275l-3.63 23.902h-4.966zM48.368 24.607h5.062L50.9 7.751zm11.987 10.57h-5.3l-.908-6.047H47.7l-.908 6.047H41.97l5.349-33.331h7.689zM67.805 1.847V27.56c0 2.38 1.05 3.238 2.722 3.238 1.671 0 2.722-.858 2.722-3.238V1.846h4.967v25.378c0 5.333-2.675 8.38-7.832 8.38-5.158 0-7.832-3.046-7.832-8.38V1.848zM87.051 6.608v23.808h2.96c1.672 0 2.675-.856 2.675-3.238V9.846c0-2.38-1.003-3.237-2.675-3.237zm-5.253-4.761h8.31c5.252 0 7.831 2.904 7.831 8.237V26.94c0 5.333-2.578 8.237-7.832 8.237h-8.31zM100.805 1.847h5.063V6.37l-2.293 5.285h-2.149l1.385-4.761h-2.006zM116.52 1.466c5.11 0 7.737 3.047 7.737 8.38v1.048h-4.967V9.513c0-2.381-.955-3.286-2.627-3.286-1.67 0-2.627.905-2.627 3.286 0 6.856 10.268 8.142 10.268 17.666 0 5.333-2.674 8.38-7.833 8.38-5.157 0-7.831-3.047-7.831-8.38V25.13h4.966v2.38c0 2.381 1.051 3.239 2.723 3.239 1.671 0 2.722-.858 2.722-3.238 0-6.857-10.268-8.143-10.268-17.665 0-5.333 2.626-8.38 7.736-8.38M35.115 41.059v-.491a1.92 1.92 0 00-.831-.186c-.275 0-.533.053-.774.159-.24.106-.452.25-.632.435s-.323.4-.429.645c-.106.245-.159.504-.159.779 0 .279.052.54.156.783a2.03 2.03 0 001.063 1.07c.242.105.501.157.778.157a1.964 1.964 0 001.011-.277l.23.338c-.18.104-.374.186-.58.248-.206.06-.424.09-.655.09-.335 0-.65-.062-.944-.189a2.424 2.424 0 01-1.29-1.287 2.346 2.346 0 01-.19-.94 2.42 2.42 0 01.71-1.716c.22-.219.476-.393.77-.522a2.33 2.33 0 01.944-.193c.231 0 .45.03.655.089.206.058.402.141.588.25v.758zM39.148 42.4c0 .279.052.54.156.783a2.026 2.026 0 001.066 1.07c.245.105.505.157.781.157s.537-.052.78-.158a2.061 2.061 0 001.077-1.069c.107-.243.16-.504.16-.783 0-.275-.053-.534-.16-.78a2.045 2.045 0 00-1.073-1.08c-.242-.105-.5-.158-.777-.158s-.537.053-.78.159c-.245.106-.458.25-.639.435s-.325.4-.431.645c-.107.245-.16.504-.16.779m-.42-.007a2.417 2.417 0 01.71-1.716c.219-.219.475-.393.77-.521a2.33 2.33 0 01.943-.193c.335 0 .65.064.947.193.297.128.555.302.774.521.22.219.394.476.523.772.13.295.194.61.194.944s-.065.648-.194.941a2.43 2.43 0 01-2.244 1.476 2.36 2.36 0 01-.944-.19 2.442 2.442 0 01-1.29-1.286 2.347 2.347 0 01-.19-.941M49.665 40.436h-2.03v1.733h2.187v.4h-2.187v1.787h.652v.399H46.78v-.399h.434v-3.92h-.434v-.42h3.306v1.043h-.421zM56.163 40.436h-2.03v1.733h2.187v.4h-2.187v1.787h.652v.399h-1.507v-.399h.434v-3.92h-.434v-.42h3.306v1.043h-.421zM62.661 40.436h-2.03v1.733h2.187v.4h-2.187v1.787h2.126v-.643h.42v1.042h-3.401v-.399h.434v-3.92h-.434v-.42h3.306v1.043h-.421zM69.255 40.436h-2.031v1.733h2.186v.4h-2.186v1.787h2.126v-.643h.42v1.042h-3.401v-.399h.434v-3.92h-.434v-.42h3.307v1.043h-.421zM78.611 43.476a.897.897 0 00.26.648c.081.083.179.148.292.195.114.047.237.07.368.07.191 0 .357-.043.498-.13a.92.92 0 00.327-.343l-.825-1.34c-.272.008-.494.095-.664.258a.847.847 0 00-.256.642zm1.854-1.26h1.086v.42h-.665v.791c0 .169-.03.325-.088.469l.481.771-.332.217-.353-.575a1.318 1.318 0 01-.464.369 1.369 1.369 0 01-.6.131c-.185 0-.358-.034-.52-.104a1.387 1.387 0 01-.427-.285 1.319 1.319 0 01-.288-.42 1.28 1.28 0 01-.105-.517c0-.163.028-.316.085-.46a1.362 1.362 0 01.576-.681 1.27 1.27 0 01.436-.16l-.48-.784a1.477 1.477 0 01-.173-.42 1.05 1.05 0 01-.013-.424 1.07 1.07 0 01.16-.392 1.06 1.06 0 01.344-.321c.127-.077.256-.123.39-.14s.262-.01.388.014c.126.025.245.062.355.112.111.05.21.101.295.155l-.17.332a3.415 3.415 0 00-.219-.105 1.343 1.343 0 00-.252-.083.902.902 0 00-.263-.018.533.533 0 00-.249.084c-.218.135-.338.303-.361.506a.94.94 0 00.144.6l1.228 1.968a.39.39 0 00.054-.197zM93.691 41.059h-.42v-.623h-1.243v3.92h.517v.399h-1.508v-.399h.57v-3.92h-1.27v.623h-.4v-1.043h3.754zM99.769 40.436h-2.03v1.733h2.186v.4h-2.186v1.787h2.125v-.643h.421v1.042h-3.402v-.399h.435v-3.92h-.435v-.42h3.307v1.043h-.421zM106.019 40.944l-.068-.21a.177.177 0 00-.014.048.344.344 0 01-.02.067l-.027.095a7.58 7.58 0 01-.105.254 57.004 57.004 0 00-.333.792c-.06.147-.119.283-.173.41h1.358zm-2.536 3.412h.54c.321-.767.642-1.527.964-2.278.321-.751.645-1.511.97-2.278l.965 2.278.964 2.278h.547v.4h-1.405v-.4h.437a45.555 45.555 0 01-.329-.779 61.046 61.046 0 00-.33-.778h-1.697l-.333.778c-.108.258-.219.517-.332.779h.451v.4h-1.412zM126.63 3.082v.715h.185c.168 0 .275-.072.275-.304v-.107c0-.209-.072-.304-.245-.304zm.502 2.132c-.03-.077-.042-.12-.042-.357v-.274c0-.274-.095-.37-.304-.37h-.156v1h-.454V2.666h.693c.466 0 .675.22.675.667v.054c0 .303-.096.494-.31.59.232.095.31.309.31.613v.274c0 .137.006.244.054.35zm-.299.44c.944 0 1.649-.72 1.649-1.715 0-.994-.705-1.715-1.649-1.715-.944 0-1.648.72-1.648 1.715 0 .995.705 1.716 1.648 1.716zm0-3.847c1.183 0 2.079.894 2.079 2.132 0 1.24-.896 2.132-2.079 2.132-1.182 0-2.079-.893-2.079-2.132 0-1.238.897-2.132 2.08-2.132z"></path></g></g></svg>