<svg xmlns="http://www.w3.org/2000/svg" class="icon icon-logo-mark" aria-label="icon logo mark" width="24" height="24" viewBox="0 0 24 24" fill="none">
  <path d="M5.5798 13.1572C8.10785 13.1572 10.1596 11.1079 10.1596 8.5798C10.1596 6.05175 8.1103 4 5.5798 4C3.04931 4 1 6.04931 1 8.57736C1 11.1079 3.05175 13.1572 5.5798 13.1572Z" fill="currentColor"></path>
  <path d="M4.41206 19.3733C3.87714 19.3733 3.53518 19.3464 3.47656 19.3415L3.49366 18.3621C3.54984 18.3621 9.09934 19.366 12.304 16.4154C13.8184 15.0231 14.6488 12.495 14.6488 10.0403V9.5542H18.8623L18.8769 10.0281C18.938 10.9855 19.1432 11.9284 19.49 12.8223C20.1886 14.5517 21.3317 15.4286 22.8925 15.4286V16.4105C19.3728 16.4105 18.1441 12.8028 17.9316 10.5337H15.6185C15.5184 13.03 14.5829 15.6533 12.9635 17.1359C10.24 19.6469 6.23666 19.3733 4.41206 19.3733Z" fill="currentColor"></path>
</svg>