<svg xmlns="http://www.w3.org/2000/svg" class="inline-block large-down--hide align-middle mr-24 v-logo-svg" fill="#fff" width="48" height="48" aria-hidden="true" viewBox="0 0 173.85 173.85"><path d="M86.93 0a86.92 86.92 0 1 0 86.92 86.93A87 87 0 0 0 86.93 0zm0 169A82.06 82.06 0 1 1 169 86.93 82.16 82.16 0 0 1 86.93 169z"></path><path d="M101.17 49L86.94 74.48 72.71 49.14H49.19L36.9 68.2l39 69.08h23.14l38.26-68.34L124.73 49zm2.83 4.9h15.26l-42 76-33.37-59.19H59l17.79 31.9zM76.78 92.65L63.25 68.38l7.89-12.12 13 23.2zM51.84 54h15l-7.75 11.86h-14.9zm44.32 78.45H81.4l42.14-76.19 8.11 12.85z"></path></svg>