<svg aria-label="Savile Row Company store logo" class="site-logo test" xmlns="http://www.w3.org/2000/svg" xml:space="preserve" style="fill-rule:evenodd;clip-rule:evenodd;stroke-linejoin:round;stroke-miterlimit:2" viewBox="0 0 251 34"><path d="M0 0h250.698v33.108H0z" style="fill:none"></path><path style="fill: var(--color-primary);" d="m218.183 18.102-.187.001c-.711 0-2.158 0-3.834-.051-.356-.025-.585-.025-.585-.152s.051-.178.254-.203c.127-.025.28-.203.178-.432l-1.549-3.911c-.051-.127-.127-.127-.203-.127l-4.699.025c-.127 0-.127.026-.177.127l-1.067 2.616c-.203.483-.305.965-.305 1.169 0 .33.178.533.787.533h.305c.254 0 .305.102.305.203 0 .152-.127.203-.33.203-.66 0-1.6-.076-2.235-.076-.203 0-1.27.076-2.311.076-.254 0-.356-.051-.356-.203 0-.127.076-.203.229-.203.178 0 .406-.025.584-.025.914-.127 1.244-.737 1.651-1.702l5.232-12.064c.228-.533.38-.761.584-.761.304 0 .381.177.584.609.482 1.067 3.809 8.889 5.079 11.81.762 1.752 1.346 2.006 1.702 2.057.218.036.398.06.566.07.227-.011.473-.04.678-.096.533-.127.584-.66.61-2.336l.177-11.454c0-.381.127-.661.331-.661.254 0 .533.305.863.635.254.254 3.251 3.302 6.146 6.146 1.372 1.346 4.013 4.064 4.318 4.343h.101l-.203-8.584c-.025-1.168-.203-1.524-.686-1.701-.305-.127-.762-.127-1.041-.127-.254 0-.33-.102-.33-.204 0-.152.203-.177.508-.177 1.041 0 2.108.05 2.539.05.229 0 .966-.05 1.956-.05.132 0 .242.005.32.027.527.011 1.725.049 2.296.049.431 0 1.371-.051 2.26-.051.178 0 .305.051.305.178 0 .152-.127.152-.457.254-.153.05-.28.127-.28.304 0 .153.102.381.254.661.356.584 2.972 5.105 3.302 5.663.254-.457 2.666-4.597 2.971-5.181.203-.431.305-.762.305-1.016 0-.177-.102-.355-.432-.431-.178-.051-.355-.077-.355-.229 0-.127.127-.178.33-.178.66 0 1.371.051 1.955.051.432 0 1.753-.051 2.134-.051.228 0 .355.051.355.153 0 .127-.152.228-.381.228-.203 0-.558.102-.863.229-.432.203-.61.381-1.041.914-.661.762-3.531 5.359-3.886 6.172-.305.711-.254 1.295-.254 1.93V14.7c0 .33 0 1.117.051 1.93.05.559.228.94.812 1.016.305.051.737.076.991.076.228 0 .33.127.33.203 0 .127-.152.203-.432.203-1.244 0-2.59-.076-3.124-.076-.508 0-1.828.076-2.59.076-.279 0-.432-.05-.432-.203 0-.101.102-.203.33-.203.28 0 .534-.025.711-.076.407-.102.559-.457.61-1.016.076-.813.076-1.625.076-1.93l.026-1.6c0-1.041-.178-1.448-.458-2.032-.127-.305-2.869-4.546-3.555-5.562-.508-.711-.914-1.168-1.295-1.371-.254-.127-.585-.254-.838-.254a.453.453 0 0 1-.138-.022 1.645 1.645 0 0 0-.396.073c-.558.152-.711.508-.736 1.6l-.229 12.216c0 .431-.152.609-.33.609-.33 0-.609-.203-.812-.406a736.541 736.541 0 0 1-5.842-5.562c-2.184-2.083-4.292-4.419-4.673-4.775h-.051l.229 7.873c.051 1.499.305 1.956.686 2.083.33.127.736.127 1.041.127.229 0 .33.101.33.203 0 .152-.178.203-.457.203-1.295 0-2.235-.076-2.59-.076-.178 0-1.143.076-2.159.076l-.093-.001Zm-6.358-5.916c.102 0 .127-.051.102-.127l-1.88-4.826c-.025-.076-.051-.177-.101-.177-.076 0-.102.127-.127.177l-1.93 4.826c-.051.101 0 .127.076.127h3.86ZM1.514 17.849c-.355-.152-.431-.279-.431-.762 0-1.244.101-2.615.101-2.971.026-.33.102-.584.279-.584.204 0 .229.203.229.381 0 .305.102.762.203 1.168.508 1.676 1.829 2.286 3.251 2.286 2.057 0 3.048-1.397 3.048-2.591 0-1.117-.33-2.158-2.235-3.631l-1.042-.813C2.429 8.376 1.565 6.776 1.565 4.948c0-2.489 2.083-4.292 5.232-4.292 1.473 0 2.438.228 3.022.381.203.05.33.127.33.279 0 .305-.101.965-.101 2.717 0 .508-.077.686-.254.686-.153 0-.229-.127-.229-.406 0-.203-.127-.914-.584-1.499-.33-.431-.991-1.117-2.489-1.117-1.676 0-2.692.965-2.692 2.336 0 1.042.533 1.829 2.413 3.277l.635.482c2.768 2.057 3.733 3.606 3.733 5.765 0 1.321-.508 2.895-2.133 3.962-1.143.737-2.413.94-3.607.94-1.32 0-2.336-.178-3.327-.61Zm13.994-4.597c-.102 0-.127.026-.178.127l-1.066 2.616c-.204.483-.305.965-.305 1.169 0 .33.178.533.787.533h.305c.254 0 .305.101.305.203 0 .152-.102.203-.331.203-.66 0-1.6-.076-2.235-.076-.203 0-1.269.076-2.311.076-.254 0-.355-.051-.355-.203 0-.127.076-.203.228-.203.178 0 .407-.025.585-.025.914-.127 1.244-.737 1.65-1.702l5.232-12.064c.229-.533.381-.761.584-.761.305 0 .381.177.584.609.483 1.067 3.81 8.889 5.08 11.81.762 1.752 1.346 2.006 1.701 2.057.305.051.534.076.737.076.178 0 .279.076.279.203 0 .152-.101.203-.863.203-.711 0-2.159 0-3.835-.051-.356-.025-.584-.025-.584-.152s.05-.178.254-.203c.127-.025.279-.203.177-.432l-1.549-3.911c-.051-.127-.101-.127-.203-.127l-4.673.025Zm4.267-1.066c.101 0 .101-.051.101-.127l-1.879-4.826c-.026-.076-.051-.177-.102-.177-.076 0-.101.127-.101.177l-1.93 4.826c-.051.101 0 .127.076.127h3.835Zm5.079-6.781c-.457-1.067-.737-1.245-1.473-1.422-.305-.077-.61-.077-.762-.077-.178 0-.229-.101-.229-.203 0-.152.204-.177.508-.177 1.067 0 2.21.05 2.896.05.508 0 1.549-.05 2.539-.05.254 0 .483.05.483.177s-.127.203-.33.203c-.33 0-.61.026-.762.127-.127.102-.203.204-.203.381 0 .254.177.762.457 1.448l3.352 8.66h.076c.864-2.006 3.429-8.228 3.911-9.498.102-.254.178-.533.178-.711 0-.203-.101-.28-.279-.33-.229-.077-.533-.102-.787-.102-.178 0-.331-.076-.331-.203s.178-.178.559-.178c.991 0 1.88.051 2.133.051.331 0 1.27-.051 1.88-.051.254 0 .406.051.406.178s-.101.203-.33.203-.635-.025-.965.229c-.254.177-.533.482-1.041 1.701-.788 1.803-1.321 2.87-2.413 5.232-1.27 2.819-2.21 4.927-2.667 5.917-.508 1.118-.685 1.397-.965 1.397-.279 0-.432-.254-.812-1.168L24.854 5.405ZM41.21 9.113c0-2.921 0-3.48-.026-4.089-.051-.66-.254-.889-.686-1.016a2.348 2.348 0 0 0-.736-.102c-.203 0-.33-.05-.33-.228 0-.127.152-.152.482-.152.737 0 2.108.05 2.692.05.508 0 1.804-.05 2.565-.05.254 0 .407.05.407.152 0 .178-.102.228-.33.228-.229 0-.356.026-.585.077-.533.101-.711.355-.736 1.041-.051.609-.051 1.168-.051 4.089v3.403c0 1.854 0 3.403.102 4.216.076.533.203.813.787.914.279.051.737.076 1.016.076.229 0 .33.127.33.203 0 .127-.152.204-.381.204-1.32 0-2.692-.077-3.225-.077-.457 0-1.803.077-2.616.077-.254 0-.381-.077-.381-.204 0-.101.076-.203.33-.203.305 0 .533-.025.711-.076.407-.101.534-.355.584-.94.102-.787.102-2.336.102-4.19l-.025-3.403Zm11.022 3.403c0 2.489 0 3.708.431 4.063.331.305 1.118.407 2.667.407 1.067 0 1.829-.026 2.337-.534.254-.254.457-.787.508-1.168.025-.178.076-.305.228-.305.127 0 .178.204.178.432 0 .229-.127 1.651-.305 2.235-.127.432-.228.533-1.27.533-1.422 0-2.59-.025-3.581-.076-.99-.025-1.828-.051-2.666-.051-.229 0-.661.026-1.143.026-.483.025-.965.051-1.372.051-.254 0-.381-.077-.381-.204 0-.101.077-.203.331-.203.304 0 .533-.025.711-.076.406-.101.533-.457.584-1.016.101-.812.101-2.336.101-4.114V9.113c0-2.921 0-3.48-.025-4.089-.051-.66-.228-.864-.863-1.041-.153-.051-.407-.077-.661-.077-.228 0-.33-.076-.33-.203s.127-.177.432-.177c.94 0 2.209.05 2.743.05.482 0 2.108-.05 2.895-.05.305 0 .432.05.432.177s-.102.203-.356.203a3.87 3.87 0 0 0-.762.077c-.533.101-.711.355-.736 1.041-.051.609-.051 1.168-.051 4.089l-.076 3.403Zm8.965-3.403c0-2.921 0-3.48-.026-4.089-.05-.66-.228-.864-.863-1.041-.152-.051-.508-.077-.787-.077-.204 0-.331-.076-.331-.203s.153-.177.458-.177c1.041 0 2.311.05 2.895.05.635 0 5.054.026 5.46 0 .356-.025.686-.101.838-.127.127-.025.229-.101.33-.101.127 0 .127.101.127.178 0 .127-.127.355-.152 1.244-.025.203-.076 1.041-.127 1.27-.025.101-.076.33-.229.33-.127 0-.152-.102-.152-.254 0-.127-.025-.483-.127-.711-.152-.33-.33-.61-1.321-.711-.33-.051-2.717-.102-3.123-.102-.102 0-.127.076-.127.178v4.775c0 .127.025.203.127.203.457 0 3.047 0 3.504-.051.483-.051.762-.127.966-.305.152-.127.228-.254.33-.254.101 0 .152.102.152.203 0 .127-.051.432-.152 1.397a17.809 17.809 0 0 0-.102 1.295c0 .153-.025.432-.203.432-.127 0-.178-.076-.178-.152-.025-.203-.025-.457-.076-.711-.127-.381-.356-.686-1.118-.762-.355-.051-2.641-.102-3.123-.102-.102 0-.127.102-.127.203v1.55c0 .66-.026 2.285 0 2.869.05 1.321.66 1.626 2.692 1.626.533 0 1.371-.026 1.879-.254.508-.229.737-.635.864-1.422.05-.204.101-.305.228-.305.153 0 .178.254.178.457 0 .432-.152 1.752-.279 2.133-.127.508-.331.508-1.067.508-1.498 0-2.692-.025-3.683-.076-.965-.025-1.727-.051-2.311-.051-.228 0-.66.026-1.143.026-.482.025-.965.05-1.371.05-.254 0-.381-.076-.381-.203 0-.101.076-.203.33-.203.305 0 .534-.025.711-.076.407-.102.534-.457.584-1.016.102-.813.102-2.336.102-4.114l-.076-3.327Zm18.565-1.575c0-3.454 0-4.089-.051-4.825-.051-.762-.228-1.143-.965-1.295-.178-.051-.559-.077-.889-.077-.254 0-.381-.05-.381-.203 0-.152.153-.203.508-.203 1.194 0 2.641.076 3.124.076.762 0 2.489-.076 3.2-.076 1.422 0 2.946.127 4.19.965.635.432 1.55 1.6 1.55 3.124 0 1.676-.712 3.225-2.997 5.079 2.032 2.54 3.581 4.572 4.927 5.969 1.27 1.32 2.209 1.473 2.539 1.549.254.051.458.076.635.076.178 0 .28.076.28.178 0 .177-.153.228-.432.228h-2.159c-1.27 0-1.828-.127-2.438-.431-.965-.534-1.828-1.6-3.124-3.327-.914-1.245-1.955-2.794-2.26-3.124a.515.515 0 0 0-.406-.153l-1.981-.05c-.127 0-.178.05-.178.177v.33c0 2.108 0 3.912.127 4.851.076.661.203 1.169.889 1.245.33.051.838.101 1.117.101.178 0 .28.076.28.178 0 .152-.153.229-.457.229-1.321 0-2.997-.077-3.327-.077-.432 0-1.854.077-2.769.077-.304 0-.457-.077-.457-.229 0-.127.102-.178.356-.178.33 0 .609-.05.812-.101.458-.102.559-.584.661-1.245.127-.965.127-2.743.127-4.825l-.051-4.013Zm2.692 1.803c0 .254.051.331.203.407.483.152 1.168.228 1.727.228.914 0 1.194-.101 1.626-.381.685-.508 1.346-1.549 1.346-3.403 0-3.225-2.134-4.165-3.48-4.165-.559 0-.965.026-1.193.102-.153.05-.204.127-.204.33l-.025 6.882Zm10.819 1.473c0-3.301 2.311-7.568 8.381-7.568 5.054 0 8.177 2.794 8.177 7.213 0 4.419-3.225 7.898-8.38 7.898-5.816.026-8.178-4.114-8.178-7.543Zm13.587.356c0-4.267-2.565-6.908-5.79-6.908-2.235 0-4.826 1.168-4.826 5.943 0 3.962 2.261 7.111 6.045 7.111 1.396.025 4.571-.635 4.571-6.146Zm4.648-5.765c-.254-.711-.407-1.168-.711-1.346-.204-.127-.585-.153-.762-.153-.204 0-.331-.076-.331-.203s.153-.177.458-.177c1.015 0 2.133.05 2.311.05.178 0 1.168-.05 2.311-.05.305 0 .432.05.432.177s-.153.203-.356.203c-.152 0-.33.026-.508.102s-.203.178-.203.381c0 .254.178.889.432 1.778.33 1.27 2.158 7.111 2.463 8h.076l3.81-9.88c.203-.533.406-.711.584-.711.229 0 .406.305.66.915l3.988 9.523h.076c.381-1.117 1.905-6.196 2.616-8.457.127-.457.203-.838.203-1.117 0-.33-.178-.534-.965-.534-.178 0-.33-.101-.33-.203 0-.127.152-.177.482-.177 1.041 0 1.956.05 2.133.05.127 0 .991-.05 1.651-.05.229 0 .356.05.356.152 0 .127-.102.228-.28.228-.203 0-.482.026-.711.102-.482.178-.711.914-1.117 2.032-.94 2.438-2.972 8.559-3.962 11.454-.229.685-.33.914-.635.914-.279 0-.406-.229-.711-.94l-4.064-9.523h-.05c-.33.812-3.023 7.669-3.835 9.447-.356.787-.483 1.016-.762 1.016-.254 0-.356-.203-.533-.711l-4.216-12.292Zm29.358 10.565c-2.235-1.956-2.819-4.495-2.819-6.705 0-1.549.483-4.216 2.667-6.222 1.625-1.498 3.784-2.413 7.187-2.413 1.397 0 2.235.102 3.302.229.863.127 1.6.33 2.26.381.254.025.33.127.33.279 0 .178-.076.457-.127 1.245-.05.762-.025 2.006-.076 2.463-.025.33-.076.533-.279.533-.178 0-.229-.177-.229-.507a3.257 3.257 0 0 0-.889-2.083c-.762-.787-2.514-1.397-4.622-1.397-1.981 0-3.276.508-4.267 1.397-1.65 1.524-2.082 3.683-2.082 5.892 0 5.41 4.114 8.076 7.162 8.076 2.032 0 3.251-.228 4.165-1.27.381-.431.686-1.092.762-1.498.076-.356.127-.457.305-.457.152 0 .203.152.203.33 0 .279-.28 2.26-.508 3.022-.127.381-.203.508-.584.66-.915.356-2.642.534-4.089.534-3.073 0-5.689-.686-7.772-2.489Zm14.299-5.156c0-3.301 2.311-7.568 8.381-7.568 5.028 0 8.178 2.794 8.178 7.213 0 4.419-3.226 7.898-8.381 7.898-5.816.026-8.178-4.114-8.178-7.543Zm13.587.356c0-4.267-2.565-6.908-5.79-6.908-2.235 0-4.826 1.168-4.826 5.943 0 3.962 2.261 7.111 6.045 7.111 1.396.025 4.571-.635 4.571-6.146Zm7.137-7.492c.05-.33.228-.508.381-.508.203 0 .33.102.609.609l5.359 10.667 5.359-10.819c.152-.33.33-.482.533-.482.152 0 .381.203.457.609l1.829 11.886c.177 1.193.355 1.727.965 1.905.558.152.889.177 1.142.177.178 0 .331.077.331.178 0 .152-.229.229-.534.229-.508 0-3.327-.077-4.139-.127-.483-.026-.584-.127-.584-.229 0-.101.101-.152.228-.203.127-.051.152-.279.102-.813l-1.118-8.33h-.076l-4.292 8.533c-.457.915-.559 1.092-.787 1.092-.254 0-.483-.38-.788-.965-.482-.888-2.057-3.835-2.285-4.393-.153-.356-1.346-2.692-2.007-4.038h-.076l-.965 7.441c-.051.33-.076.584-.076.914 0 .356.279.508.609.559.331.076.534.102.711.102.178 0 .331.101.331.177 0 .178-.178.229-.483.229-.838 0-1.752-.076-2.108-.076-.381 0-1.346.076-1.981.076-.203 0-.355-.051-.355-.229 0-.101.127-.177.33-.177.152 0 .305 0 .609-.051.559-.076.737-.838.813-1.473l1.956-12.47Zm19.327 5.435c0-2.921 0-3.48-.026-4.089-.051-.66-.228-.864-.863-1.041-.153-.051-.508-.077-.788-.077-.203 0-.33-.076-.33-.203s.153-.177.457-.177c1.042 0 2.311.05 2.896.05.812 0 2.412-.05 3.301-.05 2.489 0 3.403.812 3.734 1.092.431.406.99 1.269.99 2.311 0 2.717-2.184 4.673-5.029 4.673-.101 0-.508 0-.584-.026-.127 0-.254-.076-.254-.203 0-.152.229-.254.661-.254 1.117 0 2.666-1.168 2.666-3.124 0-.635-.076-1.904-1.193-2.869a3.062 3.062 0 0 0-2.007-.737c-.304 0-.685.025-.863.102-.127.05-.153.152-.153.355v7.645c0 1.777 0 3.301.102 4.139.076.534.178.915.762.991.305.051.736.076 1.016.076.228 0 .33.127.33.203 0 .127-.152.203-.356.203-1.346 0-2.742-.076-3.276-.076-.457 0-1.727.076-2.514.076-.254 0-.381-.076-.381-.203 0-.101.076-.203.33-.203.305 0 .533-.025.711-.076.407-.102.534-.457.584-1.016.102-.813.102-2.337.102-4.114l-.025-3.378ZM94.542 29.811c0 1.143 0 1.702.204 1.854.152.127.507.178 1.219.178.482 0 .838 0 1.066-.254.127-.127.203-.356.229-.534 0-.076.025-.127.101-.127.077 0 .077.102.077.204 0 .101-.077.762-.127 1.015-.051.204-.102.229-.585.229-.66 0-1.193 0-1.65-.025-.457 0-.838-.026-1.219-.026h-.508c-.229 0-.457.026-.635.026-.127 0-.178-.026-.178-.102 0-.051.025-.102.152-.102s.229 0 .331-.025c.177-.051.228-.203.279-.457.051-.381.051-1.067.051-1.879v-3.429c-.026-.305-.102-.381-.381-.483-.076-.025-.178-.025-.305-.025-.102 0-.152-.025-.152-.102 0-.05.05-.076.203-.076.432 0 1.016.026 1.27.026.228 0 .965-.026 1.32-.026.127 0 .203.026.203.076 0 .051-.05.102-.152.102s-.254 0-.356.025c-.253.051-.33.178-.355.483-.025.279-.025.533-.025 1.879l-.077 1.575Zm6.68-.787c0-1.499 1.066-3.454 3.834-3.454 2.312 0 3.734 1.27 3.734 3.301 0 2.032-1.473 3.607-3.835 3.607-2.641 0-3.733-1.88-3.733-3.454Zm6.222.152c0-1.955-1.168-3.149-2.641-3.149-1.016 0-2.21.533-2.21 2.717 0 1.829 1.041 3.251 2.768 3.251.61 0 2.083-.305 2.083-2.819Zm6.984 1.981c.025.686.127.889.305.965.152.051.33.051.482.051.102 0 .153.051.153.101 0 .077-.077.102-.204.102-.584 0-1.015-.025-1.193-.025-.076 0-.508.025-.991.025-.127 0-.203 0-.203-.102 0-.05.076-.101.152-.101.127 0 .28 0 .407-.051.228-.076.279-.305.279-1.067l.076-5.231c0-.178.051-.305.153-.305.127 0 .228.127.381.279.127.127 1.498 1.524 2.819 2.819.635.61 1.828 1.854 1.981 1.981h.051l-.102-3.936c0-.534-.102-.686-.305-.788-.127-.05-.355-.05-.482-.05s-.153-.051-.153-.102c0-.076.102-.076.229-.076.482 0 .965.025 1.168.025.102 0 .457-.025.889-.025.127 0 .203 0 .203.076 0 .051-.051.102-.152.102-.102 0-.153 0-.28.025-.254.076-.33.229-.33.737l-.101 5.561c0 .204-.077.28-.153.28-.152 0-.279-.102-.381-.178a141 141 0 0 1-2.666-2.54c-.991-.965-1.956-2.031-2.134-2.184h-.025l.127 3.632Zm11.555-2.921v-1.879c-.025-.305-.101-.381-.38-.483-.077-.025-.229-.025-.356-.025-.102 0-.152-.025-.152-.102 0-.05.076-.076.203-.076.482 0 1.066.026 1.32.026.28 0 .94-.026 1.499-.026 1.143 0 2.666 0 3.682 1.016.457.457.864 1.194.864 2.235a3.46 3.46 0 0 1-.991 2.464c-.406.406-1.371 1.041-3.073 1.041-.33 0-.736-.026-1.092-.051-.355-.025-.685-.051-.914-.051h-.508c-.229 0-.457.026-.635.026-.127 0-.178-.026-.178-.102 0-.051.026-.102.153-.102s.228 0 .33-.025c.178-.051.228-.203.279-.457.051-.381.051-1.067.051-1.879l-.102-1.55Zm1.219.991c0 .94.001 1.6.026 1.778 0 .228.025.533.101.635.127.177.483.355 1.194.355.838 0 1.448-.152 1.981-.609.584-.483.787-1.27.787-2.185 0-1.117-.457-1.854-.838-2.209-.838-.737-1.828-.838-2.565-.838-.178 0-.482.025-.559.076-.076.025-.127.076-.127.178v2.819Zm9.778-.203c0-1.499 1.067-3.454 3.835-3.454 2.311 0 3.734 1.27 3.734 3.301 0 2.032-1.473 3.607-3.835 3.607-2.667 0-3.734-1.88-3.734-3.454Zm6.197.152c0-1.955-1.168-3.149-2.641-3.149-1.016 0-2.21.533-2.21 2.717 0 1.829 1.042 3.251 2.769 3.251.634 0 2.082-.305 2.082-2.819Zm7.01 1.981c.025.686.127.889.304.965.153.051.331.051.483.051.102 0 .152.051.152.101 0 .077-.076.102-.203.102-.584 0-1.016-.025-1.194-.025-.076 0-.507.025-.99.025-.127 0-.203 0-.203-.102 0-.05.051-.101.152-.101.127 0 .28 0 .407-.051.228-.076.279-.305.279-1.067l.076-5.231c0-.178.051-.305.153-.305.126 0 .228.127.38.279.127.127 1.473 1.524 2.82 2.819.634.61 1.828 1.854 1.98 1.981h.051l-.101-3.936c0-.534-.102-.686-.305-.788-.127-.05-.356-.05-.483-.05s-.152-.051-.152-.102c0-.076.102-.076.229-.076.482 0 .965.025 1.168.025.101 0 .457-.025.889-.025.127 0 .203 0 .203.076 0 .051-.051.102-.153.102-.101 0-.177 0-.279.025-.254.076-.33.229-.33.737l-.102 5.561c0 .204-.076.28-.152.28-.152 0-.279-.102-.381-.178a143.738 143.738 0 0 1-2.667-2.54c-.99-.965-1.955-2.031-2.133-2.184l.102 3.632Z"></path></svg>