<svg class="logo" version="1.1" id="Layer_1" xmlns="http://www.w3.org/2000/svg" xmlns:xlink="http://www.w3.org/1999/xlink" x="0px" y="0px" viewBox="0 0 662.74 189.47" style="enable-background:new 0 0 662.74 189.47;" xml:space="preserve">
<style type="text/css">
	.st0{fill:var(--brand-color);}
</style>
<path class="st0" d="M650.89,78.58V12.02L638.98,0.11H24.41l-12.09,11.9v66.27L-0.06,90.18v8.84l12.1,11.9l0.29,66.95l12.11,11.71
	h614.55l11.92-11.72v-67.24l11.79-11.6v-8.84L650.89,78.58z M73.19,150.96h-0.1H51.28V51.59l12.09-11.9h9.72h0.1V150.96z
	 M116.13,150.96H94.17V61.43H75.4V39.69h21.62l8.27,8.11l8.23-8.23h2.61V150.96z M159.33,150.96h-22.09V61.43h-18.79V39.69h28.98
	l11.9,11.91V150.96z M184.81,151.32h-0.05h-7.67l-9.53-8.3V80.7l9.53-8.3h7.67h0.05V151.32z M224.94,141.57l-9.91,9.75h-27h-0.03
	v-18.08h0.03h18.69v-15.01h8.33l9.89,10.05V141.57z M224.94,95.57l-9.9,9.9h-8.32V90.61h-18.69h-0.03V72.39h0.03h27l9.91,9.74V95.57
	z M275.77,151.77h-30.79l-12.09-11.9v-12.41l12.08-12.08h9.83v14.48h20.98V151.77z M301.44,139.86l-11.9,11.91h-11.26l-0.18-46.47
	h-33.12l-12.09-11.89V52.22l12.08-12.08h9.57v42.02h0.26v1.23h34.74l11.9,11.9V139.86z M301.44,64.62l-11.9,11.9h-11.44V62.23
	h-21.25V40.14h32.7l11.89,12.1V64.62z M331.66,151.77H309.9V52.39L322,40.5h9.66V151.77z M378.46,96.97l-11.91,11.9h-32.52V86.96
	h22.52V62.23h-22.52V40.5h32.52l11.91,11.91V96.97z M416.88,62.23h-10.01v67.61h10.01v21.92h-19.82l-12.1-11.71V52.39l12.09-11.89
	h19.83V62.23z M453.51,140.05l-11.92,11.72h-22.33v-21.92h10.9V62.23h-10.9V40.5h22.34l11.91,11.91V140.05z M483.75,151.77h-21.76
	V52.22l12.08-12.08h9.68V151.77z M509.39,151.77l-21.44-43.07l-1.85-3.42V86.78h22.52V62.23H486.1V40.14h32.53l11.9,11.91v44.74
	l-11.9,11.91h-4.71l21.62,43.07H509.39z M559,62.23h-22.68V52.22l12.08-12.08H559V62.23z M585.58,151.77h-24.23V40.15h24.23V151.77z
	 M611.29,62.23H588.3V40.14h10.91l12.08,12.08V62.23z"></path>
</svg>