<svg xmlns="http://www.w3.org/2000/svg" aria-hidden="true" focusable="false" role="presentation" class="icon icon--wide site-logo" viewBox="0 0 339.5 111.39"><path class="cls-1" d="M21.6 27a.52.52 0 0 0-1-.2C12.3 45.2 10.2 60.6 8.9 65.4c-.7 2.1-1.7 4.8-4.3 3.6-2-.9-4.2-3.4-4.4-5.4a35.9 35.9 0 0 1 .7-11.3c3-15.5 9.8-29.6 16.6-43.6C19.1 5.4 21 3.1 25 3.1A3.85 3.85 0 0 1 29 6a34.89 34.89 0 0 1 .9 8.6c.1 5.4-1.1 21.8-1.1 28.3a.56.56 0 0 0 1 .3c1.1-1.7 2-3 2.8-4.3 5.9-9.2 11.5-18.6 17.9-27.5 4.6-6.4 9-9.7 11-10.5a9.35 9.35 0 0 1 6.7-.5c2.3.8 2.1 3.7 1.9 5.5-.9 6.5-15.8 50.3-16.3 60a.51.51 0 0 0 .7.5l.5-.1a.51.51 0 0 1 .5.8 19.4 19.4 0 0 1-2.9 4.2c-2.8 2.6-5.8.4-5.8-3.4a63.75 63.75 0 0 1 2-15.7c3.4-15 11.9-47.6 11.5-47.8s-.6-.1-.8.3a245.48 245.48 0 0 0-21.1 36.2 55.83 55.83 0 0 1-3.2 5.2c-2 3-6.3 4.9-9.4 3.9-3.6-1.1-3.9-4.4-4-7.5-.3-5.17-.2-10.17-.2-15.5zM101.3 58c-1.8 1.1-3.2 1.9-3.8 2.2.5-2.7 1-5.9 1.4-7.9.6-3.8 1.3-7.6 1.8-11.4a2.47 2.47 0 0 0-.4-1.9 5 5 0 0 0-2.7-1.8 3.22 3.22 0 0 0-2.9 1.3 65.39 65.39 0 0 0-3.2 6.5 32.24 32.24 0 0 1-4.4 7.3c-3.5 4.2-8.1 8.3-12.3 8.6a2.09 2.09 0 0 1-2.4-2.1v-.3c1.1-4.9 4.1-10.3 5.9-14.8 1.4-3.8 2.5-6.1-2.1-9.4-2.9-2.1-4.8-.1-6.4 2.9-1 2.5-5.1 10.4-6.3 14.8-.5 3.5-1.2 7 .5 10.4 1.3 2.5 3.4 4.5 6.1 4.5a18.46 18.46 0 0 0 11.2-4.3c4.3-3 10.6-10.5 11.8-12 .3-.5.7-.9 1.2-1.6a84.78 84.78 0 0 1-1.4 11.9 6.68 6.68 0 0 1-2.6 3.4c-4 2.6-10.5 7.7-13.4 11-6.3 7.3-11.5 15.4-13.3 25.1-.5 2.7-.3 5.8 1.9 7.7 5.8 4.8 11.6 4.4 16.1-1.8 2.8-3.5 11.3-18.5 13-29 .5-2.4 1.1-5.8 1.4-8.2a3.54 3.54 0 0 1 2-3.1c.8-.5 2.8-1.9 5.4-3.5a4 4 0 0 0 1.4-5c-.4-1.5-2.3-.17-3.5.5zM89 79.53c-1.9 6.9-4.3 13.9-7.4 18.9-2 3.4-4.4 6.6-6.7 7.6-1.1 1-1-1.5-1-3a26.69 26.69 0 0 1 4.2-14c1.7-3.1 10.2-16.7 12.8-18.2a55.57 55.57 0 0 1-1.9 8.7zM337.7 39.63a5.73 5.73 0 0 1-4.3 1.7 5.66 5.66 0 0 1-4.3-1.8 6.16 6.16 0 0 1 .1-8.8 6.07 6.07 0 0 1 4.2-1.7 6.15 6.15 0 0 1 6.1 6.1 6.11 6.11 0 0 1-1.8 4.5zm-7.9-8a4.85 4.85 0 0 0-1.5 3.5 5.1 5.1 0 0 0 10.2 0 4.69 4.69 0 0 0-1.5-3.5 5.07 5.07 0 0 0-7.2 0zm.9 7v-6.8h3.3a4.15 4.15 0 0 1 1.3.3 1.7 1.7 0 0 1 .9 1.6 1.36 1.36 0 0 1-.5 1.2 2.2 2.2 0 0 1-1.2.5 3 3 0 0 1 1 .4 1.75 1.75 0 0 1 .6 1.5v1l.1.2h-1.7a2.22 2.22 0 0 1-.1-.9 5.38 5.38 0 0 0-.1-.8 1.21 1.21 0 0 0-.5-.5c-.1-.1-.3-.1-.6-.1h-.8v2.4zm3.2-5.5a2.79 2.79 0 0 0-1-.1h-.4v2h.7a3 3 0 0 0 1-.2 1 1 0 0 0 .3-.8.87.87 0 0 0-.6-.9zM127.1 28.63a18.45 18.45 0 0 1 13.1 5 1 1 0 0 1 .1 1.5l-4.2 4.4a.85.85 0 0 1-1.3 0 10.91 10.91 0 0 0-7.3-2.8c-6.1 0-10.6 5.1-10.6 11.1a10.7 10.7 0 0 0 10.6 11 11.17 11.17 0 0 0 7.2-2.6 1.06 1.06 0 0 1 1.4.1l4.2 4.5a1.09 1.09 0 0 1-.1 1.5 18.35 18.35 0 0 1-13.1 5.2 19.45 19.45 0 1 1 0-38.9zM151.5 30.13a1.08 1.08 0 0 1 1-1h6.4a1 1 0 0 1 1 1v13.6h15.4v-13.6a1 1 0 0 1 1-1h6.4a1.08 1.08 0 0 1 1 1v35.7a1.08 1.08 0 0 1-1 1h-6.4a1 1 0 0 1-1-1v-14.2h-15.4v14.2a1 1 0 0 1-1 1h-6.4a1.08 1.08 0 0 1-1-1zM194.9 30.13a1 1 0 0 1 1-1h22.3a1 1 0 0 1 1 1V36a1 1 0 0 1-1 1h-14.9v6.7h12.3a1.08 1.08 0 0 1 1 1v5.9a1 1 0 0 1-1 1h-12.3v7.3h14.9a1 1 0 0 1 1 1v5.9a1 1 0 0 1-1 1h-22.3a1 1 0 0 1-1-1zM230.6 30.13a1 1 0 0 1 1-1h6.4a1.08 1.08 0 0 1 1 1v28.8h12.8a1 1 0 0 1 1 1v5.9a1 1 0 0 1-1 1h-20.3a1 1 0 0 1-1-1zM264.2 30.13a1 1 0 0 1 1-1h6.4a1.08 1.08 0 0 1 1 1v28.8h12.8a1 1 0 0 1 1 1v5.9a1 1 0 0 1-1 1h-20.3a1 1 0 0 1-1-1zM296.8 30.13a1 1 0 0 1 1-1h22.3a1 1 0 0 1 1 1V36a1 1 0 0 1-1 1h-14.9v6.7h12.3a1.08 1.08 0 0 1 1 1v5.9a1 1 0 0 1-1 1h-12.3v7.3h14.9a1 1 0 0 1 1 1v5.9a1 1 0 0 1-1 1h-22.3a1 1 0 0 1-1-1zM110.5 77.83a.43.43 0 0 1 .4-.4h5.3a7.6 7.6 0 1 1 0 15.2h-5.3a.43.43 0 0 1-.4-.4zm5.5 11.6a4.15 4.15 0 0 0 4.2-4.4 4.21 4.21 0 0 0-4.2-4.4h-2.1v8.8zM128 77.83a.43.43 0 0 1 .4-.4h9a.43.43 0 0 1 .4.4v2.4a.43.43 0 0 1-.4.4h-6v2.7h5a.43.43 0 0 1 .4.4v2.4a.43.43 0 0 1-.4.4h-5v2.9h6a.43.43 0 0 1 .4.4v2.4a.43.43 0 0 1-.4.4h-9a.43.43 0 0 1-.4-.4zM142.2 77.83a.43.43 0 0 1 .4-.4h6.5a4.67 4.67 0 0 1 1.6 9.1l3 5.5c.2.3 0 .6-.4.6h-2.9c-.2 0-.3-.1-.3-.2l-2.9-5.8h-1.5v5.6a.43.43 0 0 1-.4.4h-2.6a.43.43 0 0 1-.4-.4v-14.4zm6.7 6.1a1.7 1.7 0 0 0 0-3.4h-3.2v3.4zM159.8 77.53c0-.2.2-.3.4-.3h.3a.76.76 0 0 1 .4.2l5.1 9.4 5.1-9.4a.76.76 0 0 1 .4-.2h.3a.45.45 0 0 1 .4.3l2.5 14.6a.46.46 0 0 1-.4.5h-2.6a.45.45 0 0 1-.4-.3l-1-6.7-3.7 7.1a.76.76 0 0 1-.4.2h-.4a.76.76 0 0 1-.4-.2l-3.7-7.1-1 6.7c0 .2-.2.3-.4.3h-2.6c-.3 0-.5-.2-.4-.5zM177.8 92l6.8-14.7a.52.52 0 0 1 .4-.2h.2a.52.52 0 0 1 .4.2l6.8 14.7c.1.3 0 .6-.4.6h-2.4a.75.75 0 0 1-.8-.5l-.8-1.7h-5.9l-.8 1.7c-.1.3-.3.5-.8.5h-2.4c-.3.03-.4-.27-.3-.6zm8.9-4.6l-1.7-3.6-1.6 3.6zM202.3 77.13a7.58 7.58 0 0 1 5.3 2 .38.38 0 0 1 0 .6l-1.7 1.8c-.2.2-.4.2-.5 0a4.56 4.56 0 0 0-2.9-1.1 4.45 4.45 0 0 0 0 8.9 5.08 5.08 0 0 0 2.9-1 .64.64 0 0 1 .6 0l1.7 1.8c.2.2.1.4 0 .6a7.75 7.75 0 0 1-5.3 2.1 7.83 7.83 0 0 1-7.9-7.8 7.71 7.71 0 0 1 7.8-7.9zM211.6 77.83a.43.43 0 0 1 .4-.4h9a.43.43 0 0 1 .4.4v2.4a.43.43 0 0 1-.4.4h-6v2.7h5a.43.43 0 0 1 .4.4v2.4a.43.43 0 0 1-.4.4h-5v2.9h6a.43.43 0 0 1 .4.4v2.4a.43.43 0 0 1-.4.4h-9a.43.43 0 0 1-.4-.4zM226.1 77.83a.43.43 0 0 1 .4-.4h2.7a.43.43 0 0 1 .4.4v8.8a2.7 2.7 0 1 0 5.4 0v-8.8a.43.43 0 0 1 .4-.4h2.7a.43.43 0 0 1 .4.4v9a6.21 6.21 0 0 1-6.2 6.1 6.15 6.15 0 0 1-6.2-6.1v-9zM245.8 80.53h-3.1a.43.43 0 0 1-.4-.4v-2.4a.43.43 0 0 1 .4-.4h9.7a.43.43 0 0 1 .4.4v2.4a.43.43 0 0 1-.4.4h-3.1v11.6a.43.43 0 0 1-.4.4h-2.6a.43.43 0 0 1-.4-.4v-11.6zM256.9 77.83a.43.43 0 0 1 .4-.4h2.6a.43.43 0 0 1 .4.4v14.4a.43.43 0 0 1-.4.4h-2.6a.43.43 0 0 1-.4-.4zM272.7 77.13a7.58 7.58 0 0 1 5.3 2 .38.38 0 0 1 0 .6l-1.7 1.8c-.2.2-.4.2-.5 0a4.56 4.56 0 0 0-2.9-1.1 4.45 4.45 0 0 0 0 8.9 5.08 5.08 0 0 0 2.9-1 .64.64 0 0 1 .6 0l1.7 1.8c.2.2.1.4 0 .6a7.75 7.75 0 0 1-5.3 2.1 7.85 7.85 0 0 1-.1-15.7zM280.6 92l6.8-14.7a.52.52 0 0 1 .4-.2h.2a.52.52 0 0 1 .4.2l6.8 14.7c.1.3 0 .6-.4.6h-2.4a.75.75 0 0 1-.8-.5l-.8-1.7h-5.9l-.8 1.7c-.1.3-.3.5-.8.5h-2.4a.37.37 0 0 1-.3-.6zm8.9-4.6l-1.7-3.6-1.6 3.6zM298.9 77.83a.43.43 0 0 1 .4-.4h2.6a.43.43 0 0 1 .4.4v11.6h5.2a.43.43 0 0 1 .4.4v2.4a.43.43 0 0 1-.4.4h-8.2a.43.43 0 0 1-.4-.4zM311 90.53l1-1.8a.5.5 0 0 1 .7-.1 7.36 7.36 0 0 0 3.1 1.2 1.32 1.32 0 0 0 1.5-1.3c0-.9-.8-1.6-2.2-2.2-1.9-.7-4.2-2.2-4.2-4.8 0-2.2 1.7-4.3 5-4.3a9 9 0 0 1 4.7 1.6c.3.2.2.5.1.7l-1.1 1.7c-.2.2-.5.4-.7.3a7 7 0 0 0-3.1-1.3 1.27 1.27 0 0 0-1.4 1.1c0 .8.7 1.4 2.4 2.1s4.4 2 4.4 5a4.77 4.77 0 0 1-5.1 4.5 7 7 0 0 1-4.9-1.7c-.3-.3-.4-.4-.2-.7z"></path></svg>