<svg class="site-logo icon" xmlns="http://www.w3.org/2000/svg" width="76.1" height="30.8" viewBox="0 0 76.1 30.8">
    <g fill="#1A1A1A">
        <path d="M49.1 1.1S47.5.5 45.7.5c-1.8 0-3.4.6-3.4.6-3.5 1.4-3.4 5-3.4 5v11.8s0 3.6 3.4 5c0 0 1.6.6 3.4.6.3 0 .6 0 .9-.1v.9c0 .5-.4.9-.9.9H39v5.3h6.8c1.8-.1 3.4-.6 3.4-.6 3.5-1.4 3.4-5 3.4-5V6.1s0-3.6-3.5-5m-2.5 16.2c0 .5-.4.9-.9.9s-.9-.4-.9-.9V6.7c0-.5.4-.9.9-.9s.9.4.9.9v10.6zM31.3 8.7h5.9v21.8h-5.9zM31.3.7h5.9v6.2h-5.9zM54.3 8.7h5.9v21.8h-5.9zM54.3.7h5.9v6.2h-5.9zM13.9 6.2c0-3.1-2.4-5.7-6.8-5.7S.4 3.1.4 6.2v18.9c0 3.1 2.4 5.7 6.8 5.7s6.8-2.5 6.8-5.7l-.1-18.9zM8 24.6c0 .5-.4.9-.9.9s-.9-.4-.9-.9V6.7c0-.5.4-.9.9-.9s.9.4.9.9v17.9zM67.9 6.7c0-.5.4-.9.9-.9s.9.4.9.9v23.8h5.9V6.2c0-3.1-2.4-5.7-6.8-5.7S62 3.1 62 6.2v24.3h5.9V6.7zM28.2 20.4s-.1-.7-.5-1.5c1.7-1.6 1.7-3.9 1.7-3.9V6.2C29.4 3 27 .5 22.6.5s-6.8 2.6-6.8 5.7v24.3h5.9v-9.1c.4 0 .7.3.8.7l1.7 8.4h6l-2-10.1zm-4.8-5.9c0 .5-.4.9-.9.9s-.9-.4-.9-.9V6.8c0-.5.4-.9.9-.9s.9.4.9.9v7.7z"></path>
    </g>
</svg>