<svg xmlns="http://www.w3.org/2000/svg" role="presentation" focusable="false" width="77" height="22" class="icon icon-shopify-logo" fill="none" viewBox="0 0 77 22">
      <path fill-rule="evenodd" clip-rule="evenodd" d="M10.268 1.384c.612.077 1.02.773 1.281 1.574l-1.034.32V3.207v-.152c0-.684-.095-1.234-.247-1.67zm2.139 20.028l6.45-1.401s-2.326-15.728-2.34-15.836a.207.207 0 00-.188-.174l-1.726-.128-1.27-1.262a.277.277 0 00-.11-.065l-.816 18.866zM7.57 9.712c.878 0 1.594.382 1.594.382l.817-2.43s-.552-.321-1.67-.321c-2.902 0-4.34 1.938-4.34 3.94 0 1.337.75 1.943 1.406 2.475.513.414.969.783.969 1.418 0 .35-.248.829-.856.829-.932 0-2.035-.948-2.035-.948l-.562 1.857s1.073 1.307 3.173 1.307c1.75 0 3.047-1.317 3.047-3.363 0-1.573-1.059-2.35-1.895-2.964-.547-.401-.999-.733-.999-1.172 0-.203.065-1.01 1.351-1.01zM9.042.861a.625.625 0 00-.355-.12C6.701.742 5.585 3.35 5.115 4.95l1.69-.523c.4-2.098 1.35-3.148 2.237-3.565zm.747 2.64v-.12c0-.824-.11-1.436-.28-1.862-.674.29-1.446 1.056-1.857 2.644l2.137-.661zm3.077-.951a.754.754 0 01.065-.015l-.818 18.887L0 19.153S1.57 7.015 1.63 6.587c.078-.565.097-.584.696-.772.098-.031.861-.268 1.936-.6C4.676 3.456 5.998 0 8.763 0c.362 0 .78.194 1.118.64a1.81 1.81 0 01.1-.003c1.187 0 1.862 1.012 2.244 2.112l.641-.198zm52.98 5.645h1.806l-.358 2.016h-1.787l-1.373 7.484h-2.597l1.374-7.484h-1.205l.377-2.016h1.204l.075-.446c.207-1.124.621-2.249 1.505-3.024.696-.62 1.618-.892 2.54-.892.64 0 1.11.097 1.411.233L68.31 6.16a2.47 2.47 0 00-.828-.135c-.865 0-1.392.814-1.542 1.725l-.094.446zM35.78 8.002c-1.148 0-2.05.562-2.747 1.416l-.038-.02.998-5.37h-2.597l-2.52 13.668h2.596l.865-4.672c.339-1.765 1.223-2.85 2.05-2.85.584 0 .81.407.81.989 0 .368-.038.813-.113 1.182l-.978 5.351h2.596l1.016-5.525c.113-.582.188-1.28.188-1.745 0-1.513-.771-2.424-2.126-2.424zm-9.294 3.994c-.659-.368-.997-.678-.997-1.105 0-.543.47-.892 1.204-.892.677 0 1.26.194 1.618.368l.602-1.9c-.414-.252-1.186-.445-2.183-.445-2.276 0-3.838 1.337-3.838 3.218 0 1.066.734 1.88 1.712 2.462.79.465 1.073.795 1.073 1.28 0 .504-.395.91-1.129.91-.81.02-1.656-.329-2.126-.58l-.64 1.9c.49.348 1.487.639 2.559.658 2.333.02 4.007-1.182 4.007-3.315 0-1.144-.846-1.958-1.862-2.559zm14.75 2.094c0 .97.377 1.745 1.26 1.745 1.374 0 2.146-2.52 2.146-4.169 0-.794-.301-1.609-1.223-1.609-1.411 0-2.183 2.501-2.183 4.033zm-2.652.058c0-3.238 2.07-6.146 5.192-6.146 2.427 0 3.518 1.823 3.518 3.742 0 3.315-2.07 6.146-5.136 6.146-2.333 0-3.575-1.668-3.575-3.742zm12.869 1.725c-.47 0-.79-.155-1.073-.387l.433-2.501c.301-1.667 1.148-2.773 2.05-2.773.791 0 1.035.757 1.035 1.474 0 1.725-.997 4.187-2.445 4.187zm2.483-7.87c-1.035 0-2.05.58-2.747 1.59h-.037l.15-1.436h-2.295c-.113.97-.32 2.443-.527 3.548l-1.806 9.791h2.596l.715-3.955h.056c.302.194.885.349 1.525.349 3.048 0 5.042-3.219 5.042-6.476 0-1.803-.772-3.412-2.672-3.412zm4.892-2.289c0-.872.659-1.55 1.486-1.55.79 0 1.299.562 1.299 1.337-.02.989-.715 1.551-1.524 1.551h-.038c-.734 0-1.223-.543-1.223-1.338zm-2.145 11.982h2.597l1.768-9.48h-2.615l-1.75 9.48zm17.215-9.48l-1.58 4.245c-.334.912-.52 1.488-.702 2.053l-.07.216h-.037a40.242 40.242 0 00-.226-2.25l-.414-4.265h-2.728l1.562 8.706c.037.193.018.31-.057.445-.3.601-.809 1.183-1.41 1.61-.49.368-1.036.6-1.468.756L67.483 22c.526-.116 1.618-.562 2.54-1.454 1.185-1.144 2.276-2.908 3.405-5.312l3.18-7.019h-2.71z" fill="currentColor"></path>
    </svg>