<svg class="roam-logo" xmlns="http://www.w3.org/2000/svg" viewBox="0 0 104 20">
  <g>
    <path class="r" d="M15.9,19.3L12,13.2H8.1v6.1H1.4V0.7h13c6.4,0,8.3,3.1,8.3,6.1c0,2.1-1,4.5-3.9,5.6l4.5,6.8H15.9z M8.1,5v4.2h4.7 c2.1,0,2.8-1,2.8-2.2c0-1.1-0.7-2.1-2.8-2.1H8.1L8.1,5z"></path>
    <path class="o" d="M23.9,10c0-6.1,4.9-9.9,12.6-9.9c7.7,0,12.6,3.8,12.6,9.9c0,6.1-4.9,9.9-12.6,9.9C28.8,19.9,23.9,16.1,23.9,10z M42,10c0-3.1-2.2-5.1-5.5-5.1c-3.3,0-5.5,2-5.5,5.1c0,3,2.2,5.1,5.5,5.1C39.8,15.1,42,13,42,10z"></path>
    
    <path class="a-light" d="M73.6,19.3L65,0.7h-8.6l-8.6,18.5h2.5l0,0h7l3.4-2.4l3.4,2.4h7l0,0H73.6z M65.6,15.4L60.7,12c0,0-0.1,0-0.1,0 l-4.9,3.4c-0.1,0.1-0.2,0-0.1-0.1l5-10.7c0-0.1,0.1-0.1,0.2,0l5,10.7C65.8,15.4,65.7,15.5,65.6,15.4z"></path>
    <path class="a-dark" d="M73.6,19.3L65,0.7h-8.6l-8.6,18.5h2.5l0,0h7l3.4-2.4l3.4,2.4h7l0,0H73.6z M65.6,15.4L60.7,12c0,0-0.1,0-0.1,0 l-4.9,3.4c-0.1,0.1-0.2,0-0.1-0.1l5-10.7c0-0.1,0.1-0.1,0.2,0l5,10.7C65.8,15.4,65.7,15.5,65.6,15.4z"></path>
    <path class="m" d="M74.6,19.3V0.7h9.9l3.3,9.4c0.3,0.9,0.6,1.6,0.7,2.3h0.1c0.1-0.7,0.4-1.5,0.7-2.4l3.2-9.4h10.2v18.5h-6.1V9.1 c0-1.2,0.1-2.6,0.4-3.9h-0.1c-0.2,0.7-0.8,2.4-1.3,3.7l-4,10.4h-6.2L81.4,8.9c-0.5-1.4-0.9-2.8-1.2-3.7h-0.1 c0.2,1.2,0.3,2.7,0.3,3.9v10.2L74.6,19.3L74.6,19.3z"></path>
  </g>
</svg>