<svg class="site-logo" width="187" height="19" viewBox="0 0 187 19" fill="none" xmlns="http://www.w3.org/2000/svg">
            <g>
                <path d="M2.7801 16.0928H5.58668C7.61659 16.0928 9.16109 15.4574 10.2202 14.1865C11.2793 12.9155 11.8088 11.2828 11.8088 9.28818C11.8088 7.45243 11.2351 5.92558 10.0878 4.70763C8.94045 3.48968 7.4136 2.88071 5.50725 2.88071H2.7801V16.0928ZM0 0.550721H5.5602C8.20791 0.550721 10.379 1.37151 12.0736 3.0131C13.7681 4.65468 14.6154 6.74637 14.6154 9.28818C14.6154 11.9359 13.8122 14.1158 12.206 15.828C10.6173 17.5402 8.41973 18.3963 5.61315 18.3963H0V0.550721Z" fill="black"></path>
                <path d="M23.0349 16.1193H30.6074V18.3963H20.3078V0.550721H30.475V2.82776H23.0349V8.335H29.6277V10.612H23.0349V16.1193Z" fill="black"></path>
                <path d="M46.1937 1.2656V3.96627C45.0111 3.22491 43.6696 2.85423 42.1692 2.85423C41.1984 2.85423 40.4305 3.07488 39.8657 3.51616C39.3185 3.9398 39.0449 4.50464 39.0449 5.2107C39.0449 5.91676 39.3185 6.4816 39.8657 6.90524C40.4129 7.32887 41.2513 7.78781 42.381 8.28205C43.1224 8.59977 43.696 8.87337 44.102 9.10284C44.5257 9.33231 45.0022 9.65886 45.5318 10.0825C46.079 10.4885 46.4761 10.9827 46.7233 11.5652C46.988 12.1301 47.1204 12.7832 47.1204 13.5245C47.1204 15.0955 46.5644 16.3311 45.4524 17.2313C44.3403 18.1315 42.9017 18.5817 41.1366 18.5817C39.1773 18.5817 37.5533 18.2022 36.2648 17.4431V14.6101C37.6593 15.6515 39.2744 16.1722 41.1101 16.1722C42.0809 16.1722 42.8488 15.9516 43.4136 15.5103C43.9785 15.0514 44.2609 14.4247 44.2609 13.6304C44.2609 13.1538 44.0932 12.7214 43.7578 12.333C43.4224 11.9271 43.0606 11.627 42.6723 11.4328C42.2839 11.221 41.7014 10.9386 40.9248 10.5856C40.4658 10.3737 40.1393 10.2237 39.9451 10.1354C39.7686 10.0472 39.4685 9.88833 39.0449 9.65886C38.6213 9.42939 38.3035 9.23522 38.0917 9.07636C37.8975 8.9175 37.6504 8.69686 37.3504 8.41443C37.0503 8.13201 36.8296 7.84959 36.6884 7.56716C36.5649 7.28474 36.4413 6.95819 36.3177 6.58751C36.2118 6.19918 36.1589 5.78437 36.1589 5.34308C36.1589 3.82506 36.7061 2.62476 37.8005 1.74219C38.9125 0.859621 40.3423 0.418335 42.0898 0.418335C43.696 0.418335 45.064 0.700758 46.1937 1.2656Z" fill="black"></path>
                <path d="M55.7383 16.1193H63.3108V18.3963H53.0112V0.550721H63.1784V2.82776H55.7383V8.335H62.3311V10.612H55.7383V16.1193Z" fill="black"></path>
                <path d="M71.9866 2.82776V9.34113H74.449C75.5787 9.34113 76.4348 9.04988 77.0173 8.46739C77.5997 7.86724 77.891 7.07292 77.891 6.08444C77.891 3.91332 76.6995 2.82776 74.3166 2.82776H71.9866ZM78.5264 18.3963L74.3431 11.6182H71.9866V18.3963H69.2594V0.550721H74.2371C76.2847 0.550721 77.8645 1.05379 78.9766 2.05992C80.0886 3.0484 80.6446 4.39873 80.6446 6.11092C80.627 7.36417 80.3092 8.43208 79.6914 9.31466C79.0736 10.1796 78.2175 10.8062 77.1232 11.1945L81.7831 18.3963H78.5264Z" fill="black"></path>
                <path d="M97.6789 0.550721V2.82776H92.9925V18.3963H90.2653V2.82776H85.6054V0.550721H97.6789Z" fill="black"></path>
                <path d="M121.643 1.2656V3.96627C120.461 3.22491 119.119 2.85423 117.619 2.85423C116.648 2.85423 115.88 3.07488 115.315 3.51616C114.768 3.9398 114.494 4.50464 114.494 5.2107C114.494 5.91676 114.768 6.4816 115.315 6.90524C115.862 7.32887 116.701 7.78781 117.831 8.28205C118.572 8.59977 119.146 8.87337 119.552 9.10284C119.975 9.33231 120.452 9.65886 120.981 10.0825C121.529 10.4885 121.926 10.9827 122.173 11.5652C122.438 12.1301 122.57 12.7832 122.57 13.5245C122.57 15.0955 122.014 16.3311 120.902 17.2313C119.79 18.1315 118.351 18.5817 116.586 18.5817C114.627 18.5817 113.003 18.2022 111.714 17.4431V14.6101C113.109 15.6515 114.724 16.1722 116.56 16.1722C117.53 16.1722 118.298 15.9516 118.863 15.5103C119.428 15.0514 119.71 14.4247 119.71 13.6304C119.71 13.1538 119.543 12.7214 119.207 12.333C118.872 11.9271 118.51 11.627 118.122 11.4328C117.733 11.221 117.151 10.9386 116.374 10.5856C115.915 10.3737 115.589 10.2237 115.395 10.1354C115.218 10.0472 114.918 9.88833 114.494 9.65886C114.071 9.42939 113.753 9.23522 113.541 9.07636C113.347 8.9175 113.1 8.69686 112.8 8.41443C112.5 8.13201 112.279 7.84959 112.138 7.56716C112.014 7.28474 111.891 6.95819 111.767 6.58751C111.661 6.19918 111.608 5.78437 111.608 5.34308C111.608 3.82506 112.156 2.62476 113.25 1.74219C114.362 0.859621 115.792 0.418335 117.539 0.418335C119.146 0.418335 120.514 0.700758 121.643 1.2656Z" fill="black"></path>
                <path d="M139.184 0.550721V2.82776H134.497V18.3963H131.77V2.82776H127.11V0.550721H139.184Z" fill="black"></path>
                <path d="M147.074 16.1193H154.647V18.3963H144.347V0.550721H154.514V2.82776H147.074V8.335H153.667V10.612H147.074V16.1193Z" fill="black"></path>
                <path d="M163.322 16.1193H170.895V18.3963H160.595V0.550721H170.762V2.82776H163.322V8.335H169.915V10.612H163.322V16.1193Z" fill="black"></path>
                <path d="M179.571 15.9869H186.878V18.3963H176.844V0.550721H179.571V15.9869Z" fill="black"></path>
            </g>
        </svg>