<svg class="logo-wordmark" width="257px" height="40px" viewBox="0 0 257 40" version="1.1" xmlns="http://www.w3.org/2000/svg" xmlns:xlink="http://www.w3.org/1999/xlink">
    <defs>
        <polygon id="path-1" points="0 0.402305172 27.8278667 0.402305172 27.8278667 38.6102017 0 38.6102017"></polygon>
        <polygon id="path-3" points="0.0150557377 0.332557627 40.9639738 0.332557627 40.9639738 39 0.0150557377 39"></polygon>
        <polygon id="path-5" points="0.509707317 0.4164 26.531122 0.4164 26.531122 37.8944 0.509707317 37.8944"></polygon>
    </defs>
    <g id="Page-1" stroke="none" stroke-width="1" fill="none" fill-rule="evenodd">
        <g id="Group-16">
            <g id="Group-3" transform="translate(0.000000, 1.000000)">
                <mask id="mask-2" fill="white">
                    <use xlink:href="#path-1"></use>
                </mask>
                <g id="Clip-2"></g>
                <path d="M26.9498667,0.402305172 L23.4878667,0.402305172 C23.0032,0.402305172 22.6092,0.798356897 22.6092,1.28787414 L22.6092,24.5063224 L22.5932,24.5762534 C22.5932,29.4028397 18.6998667,33.3304086 13.9138667,33.3304086 C9.12786667,33.3304086 5.23453333,29.4028397 5.23453333,24.5762534 L5.21853333,24.5063224 L5.21853333,1.28787414 C5.21853333,0.798356897 4.82453333,0.402305172 4.33986667,0.402305172 L0.877866667,0.402305172 C0.392533333,0.402305172 -0.000133333333,0.798356897 -0.000133333333,1.28787414 L-0.000133333333,24.5762534 C-0.000133333333,32.2135293 6.0812,38.4407534 13.6152,38.6021328 C13.7145333,38.6048224 13.8138667,38.6102017 13.9138667,38.6102017 C14.0138667,38.6102017 14.1132,38.6048224 14.2132,38.6021328 C21.7465333,38.4407534 27.8278667,32.2135293 27.8278667,24.5762534 L27.8278667,1.28787414 C27.8278667,0.798356897 27.4352,0.402305172 26.9498667,0.402305172" id="Fill-1" mask="url(#mask-2)"></path>
            </g>
            <g id="Group-6" transform="translate(39.000000, 0.000000)">
                <mask id="mask-4" fill="white">
                    <use xlink:href="#path-3"></use>
                </mask>
                <g id="Clip-5"></g>
                <path d="M40.078777,20.0923373 L22.4232361,20.0923373 C21.9339246,20.0923373 21.5380393,20.4823373 21.5380393,20.9628966 L21.5380393,24.099422 C21.5380393,24.5806424 21.9339246,24.9706424 22.4232361,24.9706424 L31.5783344,24.9706424 C31.3491377,26.124778 30.9962689,27.1982695 30.5264492,28.1712864 C29.9343016,29.3954898 29.1324492,30.4577441 28.1437443,31.3316085 C27.1550393,32.2054729 25.9418426,32.8949136 24.5337279,33.380761 C23.1108262,33.8725576 21.4674656,34.122422 19.6493508,34.122422 C17.2767279,34.122422 15.1722852,33.7125915 13.3965148,32.9054898 C11.614023,32.0957441 10.1111377,31.0163034 8.92482623,29.6982356 C7.73246557,28.3722356 6.81836721,26.8360322 6.20605574,25.1312695 C5.58903934,23.4139475 5.27649836,21.6047441 5.27649836,19.7525746 C5.27649836,17.8382695 5.60517049,15.9728797 6.25377705,14.2073034 C6.90036721,12.4496593 7.83328525,10.8863542 9.0256459,9.56035424 C10.2139738,8.23964237 11.6872852,7.16284576 13.4045803,6.36235424 C15.1117934,5.5651678 17.0690393,5.16128644 19.2205311,5.16128644 C20.5735311,5.16128644 21.8620066,5.32918475 23.0523508,5.65969322 C24.2406787,5.98954068 25.3019738,6.43837119 26.2059902,6.99296441 C27.0925311,7.53698136 27.8486787,8.19932034 28.4509082,8.96147288 C29.054482,9.72560847 29.4960721,10.5360153 29.7642525,11.3702186 C29.8805311,11.7324559 30.2219738,11.9790153 30.607777,11.9790153 L34.1310885,11.9790153 C34.3979246,11.9790153 34.6506459,11.8593712 34.8186787,11.6551169 C34.9880557,11.4508627 35.0519082,11.1824898 34.9961213,10.9253542 C34.671482,9.43608305 34.0470721,8.02348983 33.1417115,6.72393051 C32.2397115,5.43362542 31.0836459,4.29667627 29.7077934,3.34415085 C28.3400066,2.39691356 26.743023,1.64996441 24.9605311,1.12247288 C23.186777,0.598947458 21.238941,0.332557627 19.1721377,0.332557627 C16.2140885,0.332557627 13.5255639,0.879879661 11.1771377,1.95865932 C8.84148197,3.03215085 6.8116459,4.48837119 5.14610492,6.28501525 C3.47921967,8.08165932 2.19343279,10.1770831 1.32100656,12.5124559 C0.453957377,14.8379136 0.0150557377,17.2902864 0.0150557377,19.8021508 C0.0150557377,22.263778 0.437154098,24.6652525 1.27059672,26.9391508 C2.10807213,29.2269305 3.36899016,31.2899644 5.02041639,33.0720661 C6.67318689,34.8561508 8.73058033,36.3051 11.1368098,37.3785915 C13.5470721,38.4547271 16.3686787,39.0000661 19.5236623,39.0000661 C22.0192852,39.0000661 24.3065475,38.6417949 26.3222689,37.9378119 C28.3494164,37.2278797 30.1366131,36.2072695 31.6361377,34.9037441 C33.1349902,33.6002186 34.3623016,32.0197271 35.286482,30.2078797 C36.0964,28.6194559 36.6630066,26.8604898 36.9775639,24.9706424 L40.078777,24.9706424 C40.5680885,24.9706424 40.9639738,24.5806424 40.9639738,24.099422 L40.9639738,20.9628966 C40.9639738,20.4823373 40.5680885,20.0923373 40.078777,20.0923373" id="Fill-4" mask="url(#mask-4)"></path>
            </g>
            <path d="M126.110343,2 L122.700443,2 C122.343499,2 122.021708,2.20665979 121.881094,2.5258636 C121.881094,2.5258636 109.749042,28.8532676 109.498911,29.4811448 C109.392774,29.7463802 109.204837,29.9017041 109,29.8938063 C108.795839,29.9017041 108.607226,29.7463802 108.501765,29.4811448 C108.250958,28.8532676 96.1195824,2.5258636 96.1195824,2.5258636 C95.9782919,2.20665979 95.6571772,2 95.3002329,2 L91.8896567,2 C91.3988583,2 91,2.38830979 91,2.86678644 L91,38.1325554 C91,38.6116902 91.3988583,39 91.8896567,39 L95.4016375,39 C95.893112,39 96.2919703,38.6116902 96.2919703,38.1325554 L96.2919703,17.1315771 C96.2919703,16.6840336 96.8341471,16.6925896 96.9490723,16.9762532 C97.2431458,17.7041695 106.750845,38.4668967 106.750845,38.4668967 C106.888079,38.7893913 107.21325,39 107.572223,39 L110.428453,39 C110.787426,39 111.111921,38.7893913 111.249155,38.4668967 C111.249155,38.4668967 120.756854,17.7041695 121.051604,16.9762532 C121.166529,16.6925896 121.70803,16.6840336 121.70803,17.1315771 L121.70803,38.1325554 C121.70803,38.6116902 122.107564,39 122.599039,39 L126.110343,39 C126.601818,39 127,38.6116902 127,38.1325554 L127,2.86678644 C127,2.38830979 126.601818,2 126.110343,2" id="Fill-7"></path>
            <path d="M170.786251,25.9766142 C170.1544,27.71537 169.235284,29.2761167 168.055917,30.6161854 C166.885774,31.9489205 165.423754,33.0389764 163.715319,33.8563516 C162.016107,34.6683933 160.084976,35.0804144 157.975293,35.0804144 C155.833325,35.0804144 153.899558,34.66906 152.22736,33.8583517 C150.541326,33.0409765 149.096437,31.9509206 147.931565,30.6181855 C146.759445,29.2774501 145.8456,27.7160367 145.213749,25.9766142 C144.579263,24.2311913 144.25642,22.38443 144.25642,20.487666 C144.25642,18.5895687 144.579263,16.7334735 145.213749,14.9713831 C145.8456,13.2159598 146.759445,11.6472127 147.931565,10.3078107 C149.096437,8.97440894 150.540009,7.88901995 152.224066,7.08164521 C153.896922,6.27760398 155.833325,5.87024976 157.975293,5.87024976 C160.101448,5.87024976 162.03785,6.27827068 163.729155,7.08231191 C165.428366,7.89168675 166.885115,8.97707575 168.055917,10.3098108 C169.235284,11.6485461 170.153082,13.2166265 170.785592,14.9713831 C171.421396,16.7341402 171.74358,18.5902354 171.74358,20.487666 C171.74358,22.3837633 171.421396,24.2305246 170.786251,25.9766142 M171.897755,6.96297246 C170.267724,5.17421406 168.259506,3.71880609 165.926467,2.6367506 C163.582887,1.55069491 160.908557,1 157.975293,1 C155.045982,1 152.370334,1.55069491 150.022141,2.6367506 C147.683173,3.71880609 145.668366,5.17354736 144.033723,6.96163906 C142.398422,8.75039746 141.136038,10.8478384 140.281491,13.1959588 C139.431556,15.533412 139,17.9875378 139,20.487666 C139,23.0051285 139.431556,25.4625878 140.281491,27.7920406 C141.136697,30.1314939 142.398422,32.2282681 144.032406,34.0243602 C145.667048,35.8217857 147.682514,37.2818606 150.022141,38.3639161 C152.370334,39.4493051 155.045982,40 157.975293,40 C160.908557,40 163.582887,39.4493051 165.926467,38.3632494 C168.259506,37.2818606 170.269701,35.8217857 171.899072,34.0236935 C173.52515,32.2302682 174.794781,30.1314939 175.675683,27.7873737 C176.553949,25.4479204 177,22.9917945 177,20.487666 C177,17.9842043 176.553949,15.5287451 175.675683,13.1879584 C174.794781,10.8425047 173.523832,8.74906405 171.897755,6.96297246" id="Fill-9"></path>
            <path d="M215.124741,2 L211.669598,2 C211.186077,2 210.793674,2.38830979 210.793674,2.86678644 L210.793674,28.4748301 C210.793674,28.6814899 210.57486,28.8025899 210.403931,28.509054 C210.233003,28.2155182 194.452409,2.41792664 194.452409,2.41792664 C194.292787,2.15861468 194.009459,2 193.702852,2 L189.875924,2 C189.392403,2 189,2.38830979 189,2.86678644 L189,38.1325554 C189,38.6116902 189.392403,39 189.875924,39 L193.329072,39 C193.813257,39 194.204996,38.6116902 194.204996,38.1325554 L194.204996,12.6100715 C194.204996,12.2309758 194.465046,12.2579601 194.564144,12.4205237 C194.662578,12.5830873 210.546926,38.5814152 210.546926,38.5814152 C210.705882,38.8413853 210.989876,39 211.297148,39 L215.124741,39 C215.608262,39 216,38.6116902 216,38.1325554 L216,2.86678644 C216,2.38830979 215.608262,2 215.124741,2" id="Fill-11"></path>
            <g id="Group-15" transform="translate(230.000000, 1.000000)">
                <mask id="mask-6" fill="white">
                    <use xlink:href="#path-5"></use>
                </mask>
                <g id="Clip-14"></g>
                <path d="M9.50860976,19.1550667 L26.2821951,1.9104 C26.5271707,1.6584 26.5989512,1.28173333 26.4639512,0.955066667 C26.3289512,0.6284 26.0128537,0.4164 25.6638293,0.4164 L21.2839024,0.4164 C21.0527561,0.4164 20.8308293,0.509066667 20.6681707,0.675066667 L5.66407317,15.9557333 L5.66407317,1.2944 C5.66407317,0.809066667 5.27619512,0.4164 4.79743902,0.4164 L1.377,0.4164 C0.898902439,0.4164 0.509707317,0.809066667 0.509707317,1.2944 L0.509707317,37.0164 C0.509707317,37.5017333 0.898902439,37.8944 1.377,37.8944 L4.79743902,37.8944 C5.27619512,37.8944 5.66407317,37.5017333 5.66407317,37.0164 L5.66407317,22.3550667 L20.6681707,37.6357333 C20.8308293,37.8017333 21.0527561,37.8944 21.2839024,37.8944 L25.6638293,37.8944 C26.0128537,37.8944 26.3289512,37.6817333 26.4639512,37.3557333 C26.5989512,37.0297333 26.5271707,36.6524 26.2821951,36.3997333 L9.50860976,19.1550667 Z" id="Fill-13" mask="url(#mask-6)"></path>
            </g>
        </g>
    </g>
</svg>