<svg class="icon h-full w-full absolute-logo" xmlns="http://www.w3.org/2000/svg" width="20" height="20" viewBox="0 0 20 20" fill="none">
          <g clip-path="url(#clip0_163_1125)">
            <path d="M13.3804 7.18C13.3671 7.14 13.3404 7.08667 13.3004 7.02C13.2337 6.87333 13.1804 6.76667 13.1404 6.7C13.2737 6.88667 13.3537 7.04667 13.3804 7.18ZM12.0804 6.14C12.2671 6.19333 12.3937 6.22667 12.4604 6.24C12.3937 6.22667 12.3004 6.20667 12.1804 6.18L12.0804 6.14ZM19.7604 9.36C19.7604 9.37333 19.7604 9.38667 19.7604 9.4C19.6137 10.0133 19.5004 10.46 19.4204 10.74C19.3004 11.2067 19.1671 11.6 19.0204 11.92C18.7671 12.5733 18.4137 13.16 17.9604 13.68C17.6271 14.1067 17.2204 14.4533 16.7404 14.72C16.0871 15.08 15.3204 15.2733 14.4404 15.3L14.4204 15.34H14.1204C13.7871 15.34 13.5604 15.3267 13.4404 15.3L13.2404 15.28C13.2004 15.28 13.1537 15.2667 13.1004 15.24C13.0471 15.2133 13.0137 15.1867 13.0004 15.16C12.9471 15.08 12.9204 14.9267 12.9204 14.7C12.9204 14.5667 12.9471 14.3133 13.0004 13.94L13.0204 13.58L13.0404 13.42L13.0004 13.58C12.7204 13.86 12.4871 14.0733 12.3004 14.22C12.0071 14.4067 11.6804 14.5867 11.3204 14.76C10.8404 14.96 10.3771 15.1067 9.93039 15.2C9.48372 15.2933 8.98706 15.34 8.44039 15.34C7.78706 15.34 7.24039 15.2667 6.80039 15.12C6.30706 14.9867 5.89372 14.7867 5.56039 14.52C5.20039 14.2 4.95372 13.84 4.82039 13.44C4.67372 13 4.65372 12.5033 4.76039 11.95C4.86706 11.3967 5.04039 10.9067 5.28039 10.48C5.57372 9.97333 5.90039 9.58667 6.26039 9.32C6.71372 8.97333 7.24372 8.71 7.85039 8.53C8.45706 8.35 9.14706 8.26 9.92039 8.26H13.3004L13.3404 8.28V8.26H13.4204C13.4871 7.87333 13.4871 7.52667 13.4204 7.22C13.3404 6.95333 13.2004 6.72667 13.0004 6.54C12.8804 6.43333 12.7137 6.33333 12.5004 6.24C12.4337 6.22667 12.3404 6.20667 12.2204 6.18L12.1204 6.14C11.7871 6.04667 11.3404 6 10.7804 6H8.54039C8.20706 6 7.88039 5.97333 7.56039 5.92C7.32039 5.88 7.16706 5.82 7.10039 5.74C7.06039 5.7 7.04039 5.53333 7.04039 5.24V5.2C7.04039 5.01333 7.08706 4.64 7.18039 4.08H11.0404C12.0004 4.08 12.8404 4.18667 13.5604 4.4C14.2404 4.61333 14.7404 4.94 15.0604 5.38C15.3537 5.75333 15.5337 6.22333 15.6004 6.79C15.6671 7.35667 15.6271 8.05333 15.4804 8.88L15.0004 12.06L14.7604 13.36C14.9737 13.36 15.2404 13.3333 15.5604 13.28C15.9871 13.2133 16.2671 13.0967 16.4004 12.93C16.5337 12.7633 16.6937 12.38 16.8804 11.78C17.0271 11.2867 17.2137 10.4667 17.4404 9.32C17.6537 8.25333 17.7271 7.26667 17.6604 6.36C17.5271 5.45333 17.3004 4.74 16.9804 4.22C16.5271 3.52667 15.8404 3 14.9204 2.64C14.0671 2.30667 12.9537 2.1 11.5804 2.02C10.0204 2.02 8.96039 2.03333 8.40039 2.06C7.49372 2.1 6.86039 2.17333 6.50039 2.28C6.02039 2.4 5.55372 2.64 5.10039 3C4.71372 3.32 4.38706 3.76667 4.12039 4.34C3.90706 4.79333 3.70039 5.46667 3.50039 6.36C3.35372 6.98667 3.10706 8.12667 2.76039 9.78C2.49372 11.18 2.41372 12.3 2.52039 13.14C2.57372 14.06 2.82706 14.84 3.28039 15.48C3.78706 16.2133 4.56706 16.78 5.62039 17.18C6.67372 17.58 8.00706 17.8 9.62039 17.84L10.8204 17.88L12.0004 17.9C12.3871 17.9 12.7404 17.9267 13.0604 17.98C13.3004 18.06 13.4537 18.1333 13.5204 18.2C13.5471 18.2267 13.5671 18.2933 13.5804 18.4C13.5937 18.5067 13.5937 18.6333 13.5804 18.78C13.5804 19.06 13.5271 19.4667 13.4204 20L9.20039 19.92C7.18706 19.9067 5.46039 19.6333 4.02039 19.1C2.70039 18.6067 1.69372 17.8467 1.00039 16.82C0.467057 16.0067 0.153724 15.02 0.0603906 13.86C-0.0329427 12.7 0.0603906 11.32 0.340391 9.72C0.993724 6.38667 2.28039 3.93333 4.20039 2.36C6.10706 0.720001 8.66039 -0.0666656 11.8604 0C15.0871 0.0799999 17.3471 0.9 18.6404 2.46C19.9071 3.99333 20.2804 6.29333 19.7604 9.36ZM11.4804 10.04H9.94039C9.62039 10.04 9.20706 10.0533 8.70039 10.08L8.44039 10.1C8.08039 10.14 7.83372 10.2 7.70039 10.28C7.55372 10.4533 7.44706 10.64 7.38039 10.84C7.26039 11.16 7.16706 11.5267 7.10039 11.94C7.03372 12.5 7.17372 12.9133 7.52039 13.18C7.92039 13.4467 8.50706 13.58 9.28039 13.58C10.0937 13.58 10.7204 13.54 11.1604 13.46C11.6804 13.3933 12.0004 13.3 12.1204 13.18C12.2804 13.0733 12.4337 12.7867 12.5804 12.32C12.7004 11.9333 12.8404 11.3133 13.0004 10.46V10.22L13.0204 10.04H11.4804Z" fill="currentColor"></path>
          </g>
          <defs>
            <clipPath id="clip0_163_1125">
              <rect width="20" height="20" fill="white" transform="matrix(1 0 0 -1 0 20)"></rect>
            </clipPath>
          </defs>
        </svg>