<svg xmlns="http://www.w3.org/2000/svg" viewBox="0 0 210.001 67.003" class="icon icon-logo"><title>WatchGecko</title><path d="M59.183 66.312h-.024c-11.372-2.589-26.13-5.771-39.359-7.275-1.8-.2-3.757-1.331-3.757-3.378 0-1.776 1.681-3.206 3.337-3.576a.559.559 0 0 1 .2-.024l91.836-10.629c.024 0 1.187-.1 1.187-.1h.173a1.886 1.886 0 0 1 .88.216 11.914 11.914 0 0 1 2.012-1.82c-3.04-.764-4.943-3.822-4.943-8.236-4.2 8.483-7.836 9.815-10.184 10.037a5.747 5.747 0 0 1-.643.025 4.326 4.326 0 0 1-3.659-1.752c-1.039-1.43-1.286-3.526-.718-6.387l-2.422 7.3a1.84 1.84 0 0 1-1.582 1.257l-4.8.469h-.173a1.828 1.828 0 0 1-1.237-.469 12.386 12.386 0 0 1-4.969 1.6 9.339 9.339 0 0 1-1.161.074 6.564 6.564 0 0 1-5.636-2.638c-1.953 2.368-4.054 3.675-6.229 3.9a5.525 5.525 0 0 1-.643.025 4.7 4.7 0 0 1-3.782-1.751 8.3 8.3 0 0 1-5.043 2.712 5.107 5.107 0 0 1-.618.025 4.652 4.652 0 0 1-3.708-1.7 10.809 10.809 0 0 1-5.167 2.589 3.6 3.6 0 0 1-.519.025c-2.275 0-4.919-1.775-4.919-6.782 0-.462.028-.993.083-1.574a30.063 30.063 0 0 1-9.551 9.984 9.957 9.957 0 0 1-4.845 1.527 5.562 5.562 0 0 1-3.658-1.331 4.733 4.733 0 0 1-.914-1.06 12.023 12.023 0 0 1-6.7 3.4c-.3 0-.544.024-.816.024a5.419 5.419 0 0 1-4.569-2.219c-1.483-2.071-1.73-5.3-.717-9.618a14.449 14.449 0 0 1-3.288.395 17.34 17.34 0 0 1-6.823-1.5 1.852 1.852 0 0 1 .667-3.551 13.975 13.975 0 0 0 6.255-2.515c4.672-3.156 8.5-8.829 11.1-16.374a1.836 1.836 0 0 1 1.706-1.258l5.983-.2h.049a1.786 1.786 0 0 1 1.483.765 1.761 1.761 0 0 1 .247 1.7l-7.219 20.717c-.049.123-.024.1-.074.172a8.89 8.89 0 0 1-.2.641c-.1.32-.222.616-.3.912a28.768 28.768 0 0 0 2.868-5.7l6.4-18.1a1.841 1.841 0 0 1 1.681-1.233l5.983-.2h.056a1.864 1.864 0 0 1 1.508.765 1.827 1.827 0 0 1 .247 1.7l-7.218 20.229c0 .024-.321.887-.594 1.677-.024.123-.073.247-.1.345a2.761 2.761 0 0 0-.124.74c.049.025.1.025.149.049a.183.183 0 0 0 .1.025c.025 0 .025-.025.049-.025a8.363 8.363 0 0 0 2.1-2.194c.692-.937 1.384-2.023 2.225-3.428.52-.888.989-1.775 1.483-2.712a27.506 27.506 0 0 0 3.386-15.314 13.427 13.427 0 0 0-2-6.511c-.494-.69-.964-1.01-1.187-1.01a5.736 5.736 0 0 0-.841.247 1.566 1.566 0 0 1-.321.1 1.664 1.664 0 0 1-.594.1 1.852 1.852 0 0 1-1.78-2.368 8.509 8.509 0 0 1 2.694-4.735A7.083 7.083 0 0 1 41.41 0a7.261 7.261 0 0 1 3.362.814c3.313 1.7 5.339 5.5 5.81 11.023a36.316 36.316 0 0 1-1.169 12.149 7.4 7.4 0 0 1 3.418-1.545 8.872 8.872 0 0 1 1.136-.1 7.243 7.243 0 0 1 2.893.616l.1-.346a1.855 1.855 0 0 1 1.657-1.307l4.8-.271h.1a2.135 2.135 0 0 1 .4.049l.618-1.973a1.8 1.8 0 0 1 1.665-1.28l1.187-.049 1.063-3.329a1.858 1.858 0 0 1 1.705-1.283l4.8-.172h.074a1.863 1.863 0 0 1 1.483.74 1.788 1.788 0 0 1 .272 1.677l-.643 1.949a1.849 1.849 0 0 1 1.31.715 1.906 1.906 0 0 1 .3 1.7l-.964 3.009a9.388 9.388 0 0 1 6.5-3.3h.469A6.094 6.094 0 0 1 89 22.022a6.524 6.524 0 0 1 .965 2.392l3.609-10.851A1.829 1.829 0 0 1 95.25 12.3l4.795-.172h.074a1.848 1.848 0 0 1 1.756 2.442l-1.434 4.241a7.244 7.244 0 0 1 1.459-.247h.322a4.794 4.794 0 0 1 2.348.567 13.041 13.041 0 0 1-.049-.986 12.721 12.721 0 0 1 2.4-7.718l.025-.025c.024-.049.073-.1.1-.148a6.153 6.153 0 0 1 4.449-2.441 4.993 4.993 0 0 1 3.733 1.824l.05.05a5.971 5.971 0 0 1 1.31 3.674c3.139-4.833 7.391-8.532 12.582-8.631h.2c4.919 0 8.083 3.281 8.083 8.361a14.217 14.217 0 0 1-5.167 10.6 1.962 1.962 0 0 1 .371.3 1.845 1.845 0 0 1 .445 1.726c.049-.074.074-.172.124-.247 1.9-5.376 5.735-8.73 10.284-8.952h.42a6.518 6.518 0 0 1 5.612 2.639 5.381 5.381 0 0 1 .791 1.973 10.76 10.76 0 0 1 8.578-5.327h.494c2.473 0 4.425.912 5.464 2.614a5.394 5.394 0 0 1 .667 1.652l3.733-9.223a1.85 1.85 0 0 1 1.656-1.159l4.8-.148h.049a1.865 1.865 0 0 1 1.533.789 1.921 1.921 0 0 1 .2 1.751l-1.186 2.91a6.724 6.724 0 0 1 1.26-.172h.347c2.645 0 4.5 1.7 4.5 4.118a5.551 5.551 0 0 1-.05.617 13.631 13.631 0 0 1 1.73-2.17 10.793 10.793 0 0 1 7.194-3.181c.173 0 .371-.025.544-.025 4.375.025 7.094 2.589 7.094 6.733v.147c2.176-2.614 3.189-3.4 5.537-3.8a3.459 3.459 0 0 1 .716-.05 4.7 4.7 0 0 1 4.475 4.883v.172a4.887 4.887 0 0 1-.123 1.085v.074c0 .025-.025.074-.025.1a14.125 14.125 0 0 1-4.76 7.38 21.5 21.5 0 0 1-1.978 1.43c-.049.024-.074.049-.124.074-10.629 6.953-28.057 10.357-63.11 15.338-4.375.641-9.2 1.43-14.783 2.393a1.44 1.44 0 0 1-.321.024 1.826 1.826 0 0 1-.889-.222 8.252 8.252 0 0 1-5.241 2.861c-.371.024-.692.024-1.014.024a5.546 5.546 0 0 1-3.2-.959 1.874 1.874 0 0 1-.855.441c-19.974 4.069-36.19 8.73-45.633 13.095a12.625 12.625 0 0 1-3.712 1.134 13.245 13.245 0 0 1-1.73.123 13.931 13.931 0 0 1-2.987-.344Zm68.994-26.658 19.925-2.1c10.655-1.085 18.886-2.1 25.339-3.106a5.647 5.647 0 0 1-3.535-1.8 4.842 4.842 0 0 1-.47-.592l-.643 1.6a1.878 1.878 0 0 1-1.557 1.16l-4.795.443h-.174a1.835 1.835 0 0 1-1.211-.443 13.763 13.763 0 0 1-5.043 1.405 9.989 9.989 0 0 1-1.187.049 6.86 6.86 0 0 1-5.784-2.491 14.58 14.58 0 0 1-8.479 3.872 9.991 9.991 0 0 1-1.187.049 6.6 6.6 0 0 1-5.809-2.614 38.5 38.5 0 0 1-5.39 4.568ZM51.57 37.015a15.983 15.983 0 0 0 1.508-1.43l1.434-4.734a21.787 21.787 0 0 0-2.942 6.164Zm28.774-1.6c0 .222.025.493.124.542a1.292 1.292 0 0 0 .692.123h.247c1.657-.147 3.387-1.331 4.9-3.28l-3.832.3h-.148a1.75 1.75 0 0 1-1.434-.641 11.459 11.459 0 0 0-.55 2.953ZM75.1 24.069l-1.087.049-3.26 10.482a37.207 37.207 0 0 0 1.978-3.822 20.472 20.472 0 0 1 3.139-6.93 2.115 2.115 0 0 1-.77.221Zm102.3 9.74c2.324-.395 4.376-.789 6.18-1.184a6 6 0 0 1-2.028-1.652 14.554 14.554 0 0 1-4.152 2.836Zm-115.226-.246c.272-.542.569-1.159.865-1.825l2.2-7.078a1.435 1.435 0 0 1-.321-.049Zm57.4-4.389a11.331 11.331 0 0 0-.174 1.873 1.836 1.836 0 0 0 .025.395 10.431 10.431 0 0 0 3.239-2.812 28.04 28.04 0 0 1-3.089.544Zm-13.819-1.307-.717 2.071c.3-.542.618-1.159.939-1.849.3-.616.692-1.554 1.187-2.712l-.519-.666a20.661 20.661 0 0 1-.889 3.155Zm50.231 1.356c-.024.049 0 .1 0 .123a1.712 1.712 0 0 0 .742.123 1.392 1.392 0 0 0 .322-.025 7.553 7.553 0 0 0 4.252-2.022l-3.214.222h-.124a1.841 1.841 0 0 1-1.458-.691 8.637 8.637 0 0 0-.519 2.27Zm-33.075-9.3a11.607 11.607 0 0 0 2.67-1.48c1.359-.986 2.942-2.564 2.942-4.34-1.409.076-3.584 2.074-5.611 5.823Z" fill="#fff"></path><path d="M59.999 66.657c-12.236-2.761-26.475-5.795-39.4-7.25-2.225-.247-3.313-1.529-3.436-2.787a3.246 3.246 0 0 0 2.769 1.628c12.953 1.455 27.192 4.488 39.454 7.275a13.535 13.535 0 0 0 2.817.321 11.713 11.713 0 0 0 5.092-1.209c9.517-4.414 25.784-9.075 45.782-13.144a.952.952 0 0 0 .717-.542 6.385 6.385 0 0 1-.816-1.974 4.791 4.791 0 0 0 1.087 1.776l.445.37a.336.336 0 0 1 .1.074c.148.1.3.2.469.3a5.557 5.557 0 0 0 3.14.493 7.6 7.6 0 0 0 5.24-3.256.757.757 0 0 0 .1.2.983.983 0 0 0 1.013.444 642.274 642.274 0 0 1 14.783-2.392c34.954-4.982 52.308-8.36 62.765-15.215l.074-.049a22.951 22.951 0 0 0 1.947-1.386 13.25 13.25 0 0 0 4.474-6.954 7.863 7.863 0 0 0 .126-1.015v-.2a4.005 4.005 0 0 0-2.62-3.97 4.433 4.433 0 0 1 3.882 4.637v.2a5.819 5.819 0 0 1-.124 1.085v.048a13.705 13.705 0 0 1-4.623 7.2c-.618.493-1.285.962-2 1.43l-.073.049c-9.566 6.264-23.683 9.692-62.988 15.314a714.792 714.792 0 0 0-14.782 2.393 1.524 1.524 0 0 1-1.211-.321 8 8 0 0 1-5.191 2.935c-.322.024-.618.049-.915.049a5.136 5.136 0 0 1-3.287-1.11 1.5 1.5 0 0 1-.916.567c-19.974 4.044-36.19 8.7-45.682 13.095a12.5 12.5 0 0 1-3.609 1.11 12.827 12.827 0 0 1-1.682.123 14.347 14.347 0 0 1-2.921-.342ZM13.006 49.149a5.581 5.581 0 0 1-.816-1.628 5.4 5.4 0 0 0 .445.74 4.636 4.636 0 0 0 3.931 1.9 6.623 6.623 0 0 0 .691-.024c2.967-.272 5.439-2.293 7-3.921a4.534 4.534 0 0 0 1.236 1.825 4.652 4.652 0 0 0 3.115 1.134 9.211 9.211 0 0 0 4.425-1.43c4.075-2.418 7.808-6.733 11.071-12.78.3-.518.569-1.085.865-1.652a33.284 33.284 0 0 0-1.038 4.932c-2.942 4.809-6.255 8.335-9.839 10.456-3.189 1.923-6.155 2-8.158.247a4.841 4.841 0 0 1-1.038-1.307 11.864 11.864 0 0 1-6.8 3.551c-.247.024-.494.049-.742.049a5.1 5.1 0 0 1-4.348-2.092Zm98.361.542a.089.089 0 0 1 .025.074.089.089 0 0 0-.025-.073Zm-67.065-6.609a3.839 3.839 0 0 0 3.639 2.935 2.513 2.513 0 0 0 .42-.025c1.977-.2 4.1-1.824 5.389-2.983a3.793 3.793 0 0 0 3.535 2.047 3.973 3.973 0 0 0 .544-.025c1.829-.2 3.559-1.258 5.24-3.256a3.791 3.791 0 0 0 3.635 2.318 4.139 4.139 0 0 0 .537-.028c2.25-.222 4.4-1.75 6.428-4.562 1.087 2.392 3.411 3.551 6.625 3.231a11.542 11.542 0 0 0 5.315-1.9.926.926 0 0 0 .2.419 1.028 1.028 0 0 0 .89.37l4.795-.469a1.049 1.049 0 0 0 .865-.691l4.082-12.078a6.914 6.914 0 0 1 2.2-2.1c-.1.419-.322 1.085-.519 1.677-.124.321-.223.691-.346 1.06-.05.074-.125.147-.174.222l-4 12.084a1.489 1.489 0 0 1-1.294 1.037l-4.8.468a1.532 1.532 0 0 1-1.334-.567 12.1 12.1 0 0 1-5.043 1.677c-3.09.321-5.439-.715-6.749-2.811-2 2.515-4.1 3.921-6.3 4.143a5.328 5.328 0 0 1-.618.025 4.424 4.424 0 0 1-3.733-1.923 8.113 8.113 0 0 1-5.09 2.888 4.7 4.7 0 0 1-.593.025 4.285 4.285 0 0 1-3.658-1.849c-1.36 1.134-3.362 2.515-5.241 2.712a3.563 3.563 0 0 1-.494.024c-2.178-.001-3.76-1.555-4.353-4.095Zm-23.929-5.178.174-.542L27.864 16.4a1.1 1.1 0 0 0-.149-.961 1 1 0 0 0-.444-.346h.37a1.526 1.526 0 0 1 1.311.641 1.494 1.494 0 0 1 .222 1.43l-7.318 20.962a7.962 7.962 0 0 1-.173.518c-.148.444-.271.863-.4 1.233a8.637 8.637 0 0 1-2 2.145 19.4 19.4 0 0 1 1.09-4.118Zm76.88 2.417a4.817 4.817 0 0 1-.816-1.923 4.082 4.082 0 0 0 .494.986 3.5 3.5 0 0 0 2.991 1.405 4.289 4.289 0 0 0 .543-.024c4.623-.469 7.787-5.968 9.765-10.086 0-.024.025-.024.025-.049a47.336 47.336 0 0 0 1.385-3.058c.1.049.222.074.321.123a25.862 25.862 0 0 0-.371 3.477c-.049.1-.1.222-.148.321 0 .025 0 .025-.025.074-2.027 4.242-5.29 9.889-10.161 10.357a4.691 4.691 0 0 1-.593.025 4 4 0 0 1-3.41-1.628Zm29.737.394c.149-.517.322-1.01.47-1.479a36.723 36.723 0 0 0 6.3-5.474c1.014 2.317 3.412 3.477 6.749 3.156a13.905 13.905 0 0 0 8.75-4.39c1.063 2.17 3.412 3.231 6.7 2.935a13.225 13.225 0 0 0 5.34-1.652.59.59 0 0 0 .148.271 1.091 1.091 0 0 0 .915.395l4.795-.444a1.074 1.074 0 0 0 .841-.641l1.335-3.354a4.721 4.721 0 0 0 1.236 2.12 5.076 5.076 0 0 0 4.276 1.579c2.72-.247 5.216-2.268 6.922-4.019.989 1.948 3.015 3.008 5.734 2.885-.791.222-1.656.42-2.57.641a5.646 5.646 0 0 1-2.546-2.047c-1.756 1.7-4.154 3.452-6.773 3.7a5.574 5.574 0 0 1-4.7-1.726 6.011 6.011 0 0 1-.791-1.11l-.89 2.2a1.537 1.537 0 0 1-1.285.961l-4.8.444a1.566 1.566 0 0 1-1.285-.518 14.223 14.223 0 0 1-5.117 1.479c-3.213.3-5.612-.641-6.872-2.613a14.294 14.294 0 0 1-8.579 4.044c-3.263.3-5.685-.715-6.922-2.787a38.272 38.272 0 0 1-5.76 4.907c-.049.123-.074.247-.124.37l-1.31.148c-.049.024-.124.024-.2.049Zm-95.518-.591c-.074-.025-.173-.049-.3-.1-.322-.222-.569-.567-.223-1.751.025-.025.025-.025.025-.049l.074-.247c.247-.79.569-1.653.569-1.677l7.268-20.222a1.107 1.107 0 0 0-.149-.961.877.877 0 0 0-.445-.345h.371a1.52 1.52 0 0 1 1.31.641 1.553 1.553 0 0 1 .2 1.43l-7.217 20.222c0 .025-.322.888-.569 1.653l-.024.073-.025.05-.024.1c0 .025-.025.049-.025.074-.223.715-.173.986-.074 1.11a.848.848 0 0 1-.353.083 1.08 1.08 0 0 1-.389-.084Zm80.687-5.031c.841 2.54 2.62 4.019 5.092 4.019a5.511 5.511 0 0 0 .618-.024 5.261 5.261 0 0 0 .618-.1c-.469.272-.889.518-1.26.765-.223.123-.4.247-.594.37-2.25-.468-3.856-2.268-4.474-5.03Zm-110.1 3.3a1.6 1.6 0 0 1-.918-1.303.94.94 0 0 0 .321.222 14.715 14.715 0 0 0 10.951.666c-.149.517-.272 1.01-.371 1.5a13.636 13.636 0 0 1-3.258.387 17.046 17.046 0 0 1-6.729-1.468Zm48.477-.049c0-2.614 3.46-9.2 4.87-9.322a1.947 1.947 0 0 1 .271.961l-.247.79a21.231 21.231 0 0 0-3.51 7.1 4.368 4.368 0 0 1-1.36.814 1.336 1.336 0 0 1-.028-.339Zm10.259-3.009 3.708-11.96c.025.024.025.049.05.074a.972.972 0 0 0 .865.394l1.038-.049-.371 1.209a1.556 1.556 0 0 1-.816-.222l-3.045 10.633a15.641 15.641 0 0 1-2.2 3.181c.124-.592.317-1.579.766-3.256Zm9.146-.71 3.51-11.2 1.682-.1a1.014 1.014 0 0 0 .915-.691l.989-3.058a.984.984 0 0 0-.149-.937 2.651 2.651 0 0 0-.3-.247l.1.025a1.531 1.531 0 0 1 1.533 2l-.989 3.057a1.513 1.513 0 0 1-1.361 1.036l-1.334.073-3.389 10.856c-.074.2-.123.394-.173.566a7.525 7.525 0 0 1-1.829 2.047 14.659 14.659 0 0 1 .795-3.427Zm10.061 2.12c-.124-.073-.47-.345-.47-1.233 0-2.466 1.706-6.978 3.165-8.162-.3 1.11-1.014 2.959-1.286 3.675a.99.99 0 0 0 1.014 1.356l4.8-.37a1.075 1.075 0 0 0 .865-.641c1.928-4.759 1.187-7.447.247-8.853a4.428 4.428 0 0 0-2.819-1.923 5.4 5.4 0 0 1 3.98 2.317 6 6 0 0 1 .989 2.737l-1.515 4.517a16.238 16.238 0 0 1-1.854 3.082l-3.931.3a1.574 1.574 0 0 1-1.335-.616 1.383 1.383 0 0 1-.271-.616 12.775 12.775 0 0 0-.816 3.847c0 .419.074.691.247.814.024.024.049.024.074.049a1.93 1.93 0 0 1-1.088-.28Zm23.534-4.808 1.483-4.291a14.17 14.17 0 0 0 .964-4.34c0-1.949-.938-3.3-2.5-3.7a4.181 4.181 0 0 1 2.2.863 9.676 9.676 0 0 0 2.5 4.833 2.677 2.677 0 0 0-.173.395 10.206 10.206 0 0 1-.841-1.184 16.317 16.317 0 0 1-.964 3.97l-1.088 3.156a14.81 14.81 0 0 1-2.348 3.107 21.328 21.328 0 0 1 .763-2.81Zm15.524.542c-.173 0-.2-.024-.247-.147a2.4 2.4 0 0 1-.2-1.209 14.983 14.983 0 0 1 .3-2.663 22.3 22.3 0 0 0 5.636-1.184l-.247.691c-.222.345-.445.666-.692.986a21.688 21.688 0 0 1-3.535.641 12.825 12.825 0 0 0-.222 2.17c0 .2.024.37.024.493a2.474 2.474 0 0 1-.741.222Zm20.938-1.258a1.327 1.327 0 0 1-.222-.616c4.721.05 7.663-1.627 9.245-5.277 1.187-2.885.618-4.734-.073-5.77a5.176 5.176 0 0 0-3.214-2.047 5.841 5.841 0 0 1 4.351 2.418 4.617 4.617 0 0 1 .792 2.022 16.946 16.946 0 0 0-1.608 3.65c-1.854 3.477-4.746 5.77-7.564 6.017q-.241.021-.451.021a1.529 1.529 0 0 1-1.261-.418Zm54.632-1.948a7.228 7.228 0 0 0 2.67-.863 18.813 18.813 0 0 1-4.647 2.515 12.5 12.5 0 0 0 1.972-1.652Zm-62.269-3.7a1.01 1.01 0 0 0-1.237-1.306l-1.334.394c.148-.123.321-.222.469-.345 4.129-3.009 6.427-7 6.427-11.22 0-3.847-1.978-6.535-5.29-7.324 4.005.542 6.5 3.526 6.5 7.941 0 3.97-1.9 7.694-5.414 10.678a1.538 1.538 0 0 1 .742.443 1.5 1.5 0 0 1 .321 1.554l-.3.814a21.321 21.321 0 0 1-2.695 3.354Zm24.27 4.76Zm-1.033-.246c-.223-.123-.4-.3-.4-.814 0-1.677 1.508-5.5 3.065-6.559a34.59 34.59 0 0 1-1.162 2.687.988.988 0 0 0 .074 1.011 1.018 1.018 0 0 0 .916.444l4.795-.346a1 1 0 0 0 .841-.566c1.83-3.724 1.31-5.968.544-7.177a4.775 4.775 0 0 0-2.966-2 5.365 5.365 0 0 1 4.1 2.367 5.181 5.181 0 0 1 .692 1.9l-1.456 3.631a13.326 13.326 0 0 1-2.4 3.107l-3.411.247a1.571 1.571 0 0 1-1.361-.666 1.95 1.95 0 0 1-.222-.518 9.363 9.363 0 0 0-.816 3.107c0 .3.049.321.124.37.023 0 .046.022.069.025a2.3 2.3 0 0 1-1.032-.25Zm20.271-1.332h-.074c-.024-.024-.2-.172-.222-.961a8.077 8.077 0 0 0 4.568-4.144 12.635 12.635 0 0 0 1.459-4.66 3.087 3.087 0 0 0-2.423-3.132 3.713 3.713 0 0 1 3.683 3.773 6.385 6.385 0 0 1-.1.937 14.327 14.327 0 0 0-1.212 2.91c-2.052 3.4-4.474 5.13-5.562 5.277ZM49.79 11.888c-.494-5.228-2.349-8.829-5.364-10.382a6.562 6.562 0 0 0-2-.641 6.959 6.959 0 0 1 3.041.789c3.213 1.652 5.167 5.376 5.661 10.8a35.618 35.618 0 0 1-1.236 12.355 11.944 11.944 0 0 0-2.472 2.91 37.393 37.393 0 0 0 2.37-15.831Zm137.84 15.339c0-2 2.3-7.176 3.757-7.25h.05a1.8 1.8 0 0 1 .049.37 6.2 6.2 0 0 1-.322 1.628c-.074.1-.124.2-.2.3a3.521 3.521 0 0 0-2.719 3.3 2.991 2.991 0 0 0 .371 1.479 1.757 1.757 0 0 1-.915.567 1.117 1.117 0 0 1-.071-.395Zm-44.6-3.724a.522.522 0 0 1-.1.247c-.4 1.011-.816 1.652-1.705 1.9a5.967 5.967 0 0 1 1.81-2.147Zm28.947-.074a6.643 6.643 0 0 1 2.175-1.7 2.966 2.966 0 0 1-.222.666c-.741 1.874-1.706 2.121-2.422 2.194Zm26.129-2.515a5.322 5.322 0 0 0-4.2-5.623 5.911 5.911 0 0 1 5.414 6.264v.37l-.025.025-.049.074c-.1.123-.2.247-.272.345a9.964 9.964 0 0 1-1.261 1.381 11.847 11.847 0 0 0 .398-2.836Zm-69.557-7.649h.073c.52 0 .742.1.742.814 0 .123-.025.222-.025.345h-.074c-1.73.049-4.078 2.565-6.057 6.313a15.977 15.977 0 0 1-1.927.616c2.225-4.829 5.043-8.01 7.268-8.088Zm-27.49 1.011a1.052 1.052 0 0 0-.148-.937.794.794 0 0 0-.3-.272h.148a1.517 1.517 0 0 1 1.285.616 1.59 1.59 0 0 1 .223 1.405l-1.508 4.488a7.763 7.763 0 0 0-1.681.666Zm-25.041 3.97-.939.049 1.013-3.13a1.015 1.015 0 0 0-.149-.912 2.652 2.652 0 0 0-.3-.247h.124a1.521 1.521 0 0 1 1.508 1.973l-.767 2.368a1.107 1.107 0 0 0-.49-.097Zm38.662-8.065a4.649 4.649 0 0 0-2.076-1.429 4.74 4.74 0 0 1 3.188 1.726c0 .024.025.024.025.049a5.668 5.668 0 0 1 1.236 3.749 40.674 40.674 0 0 0-2.052 3.847c.84-2.61 1.484-5.791-.321-7.937Zm62.1 1.628a.957.957 0 0 0-.1-.961 1.193 1.193 0 0 0-.322-.3h.149a1.436 1.436 0 0 1 1.31.641 1.6 1.6 0 0 1 .149 1.455l-1.31 3.181a9.658 9.658 0 0 0-1.755.542ZM40.075 9.594c-.52-.715-1.063-1.135-1.459-1.135a3.272 3.272 0 0 0-.84.222c-.123.049-.272.1-.42.147a1.523 1.523 0 0 1-1.557-.394 1.55 1.55 0 0 1-.47-.986.024.024 0 0 1 .025.024 1.008 1.008 0 0 0 1.038.247c.149-.049.272-.1.42-.147a4.084 4.084 0 0 1 .939-.247h.074c.791 0 1.508.838 1.879 1.356a10.265 10.265 0 0 1 1.162 2.268 8.909 8.909 0 0 0-.791-1.355Z" fill="#d6d4d4"></path><path d="M59.582 64.508c-9.937-2.268-25.585-5.721-39.552-7.3-1.409-.148-2.1-.863-2.1-1.529 0-.789.989-1.578 1.879-1.775l91.811-10.652 1.137-.1a6.235 6.235 0 0 0-.792 2.663c-.024.346-.024.666-.024 1.011a7.047 7.047 0 0 0 .915 3.674c-18.12 3.7-35.374 8.309-46 13.216a10.933 10.933 0 0 1-3.213.986 9.2 9.2 0 0 1-1.44.113 12.584 12.584 0 0 1-2.621-.307Zm53.989-17.851c0-3.058 2.473-5.006 4.178-6.066.989-.666 2.423-1.38 3.906-2.268l1.088-3.058a8 8 0 0 1-4.994 2.786c-3.386.321-5.141-2.49-5.141-6.559a25.087 25.087 0 0 1 .518-4.512 11.642 11.642 0 0 1-2.027-.814 55.84 55.84 0 0 1-1.755 3.995c-2.447 5.079-5.315 9.172-8.973 9.542-3.14.321-4.326-2.49-2.226-8.9l.445-1.356a23.023 23.023 0 0 0 1.063-3.649c0-.493-.346-.74-.841-.716-.74.05-2.125.962-3.386 2.762l-4.078 12.3-4.8.468.84-2.614a11.641 11.641 0 0 1-7.242 3.748c-3.708.394-5.71-1.406-6.131-4.66-1.9 3.205-4.227 5.721-6.9 5.991-1.953.2-3.436-.863-3.609-3.624-1.706 2.589-3.633 4.389-5.834 4.61-3.14.321-3.535-2.909-3.535-2.909s-3.313 3.551-5.957 3.822c-2.275.247-3.412-2-3.412-4.907 0-4.315 2.67-14.869 8.355-15.781a5.6 5.6 0 0 1 4.771 1.6l.841-2.712 4.8-.272-3.734 12.114c-1.359 4.513-.841 5.055-.3 5.006 1.187-.123 3.165-2.91 5.291-7.62l3.04-9.74-2.5.148.989-3.132 2.472-.123 1.459-4.561 4.795-.172-1.458 4.487 2.423-.123-.989 3.058-2.373.123-3.708 11.86c-1.434 4.463-.767 4.956-.1 4.882 1.484-.147 3.511-2.984 5.661-7.693 1.161-4.709 4.079-9.863 8.9-10.109 4.276-.222 6.279 3.3 3.708 9.616l-4.8.37c1.7-4.414 1.828-5.375.865-5.326-2.6.172-4.7 6.978-4.7 9.468 0 2.417 2 2.614 3.091 2.515 2.991-.272 6.154-2.909 8.305-7.471l5.463-16.372 4.8-.172-3.041 9.049s2.25-2.465 4.944-2.614c1.9-.1 2.893 1.036 2.893 2.885a12.855 12.855 0 0 1-.915 3.994l-1.483 4.29c-1.385 4.143-.816 4.562-.3 4.513 1.212-.1 3.289-2.737 5.439-7.176a76.722 76.722 0 0 0 1.681-3.921 9.173 9.173 0 0 1-2.942-6.9 10.763 10.763 0 0 1 2.077-6.658l.074-.123s2.62-3.477 5.339-.469c1.483 1.776.865 4.66 0 7.274l-.173.469-.779 2.287-.2.567a5.361 5.361 0 0 0 1.631.863c2.62-7.595 7.911-15.633 14.882-15.756 4.3-.074 6.4 2.81 6.4 6.509 0 4.34-2.621 7.94-6.032 10.405a21.344 21.344 0 0 1-10.951 3.97 5.929 5.929 0 0 1-.667 0 18.886 18.886 0 0 0-.47 3.649c0 1.332.3 2.49 1.608 2.367 1.78-.148 4.424-2.589 5.981-5.054l.569-1.553 5.661-1.628-3.189 8.827a24.633 24.633 0 0 0 6.823-7.89c1.311-3.772 4.153-7.595 8.652-7.816 3.411-.148 6.3 2 4.375 6.608-1.285 2.934-3.683 4.932-9.27 4.611 0 0-.865 3.4 2.967 3.082 3.04-.247 6.279-2.589 8.429-6.633 1.162-3.9 4.08-8.186 8.9-8.408 4.277-.2 6.279 2.687 3.708 7.915l-4.8.345c1.705-3.673 1.829-4.463.865-4.413-2.6.147-4.7 5.77-4.7 7.84 0 2 2 2.146 3.09 2.047 2.99-.247 6.155-2.44 8.306-6.214l5.475-13.508 4.8-.147-3.041 7.446a9.234 9.234 0 0 1 4.919-2.17c1.928-.1 2.917.887 2.917 2.268a12.279 12.279 0 0 1-1.359 4.216 6.674 6.674 0 0 1-4.672 3.8c-.049 1.208 0 3.008 1.583 2.761 1.656-.222 4.326-2.465 6.328-5.868 1.038-3.575 3.931-7.57 8.949-7.792 3.634-.172 5.661 1.653 5.661 4.834a11.36 11.36 0 0 1-1.36 5.1 7.665 7.665 0 0 0 4.029-3.008c.1-.123.173-.222.272-.346.024-.024.049-.073.073-.1a.024.024 0 0 1 .025-.025c2.274-2.761 2.892-3.156 4.647-3.452 1.632-.272 2.991 1.184 3.016 3.033v.148a5.056 5.056 0 0 1-.1.838 12.382 12.382 0 0 1-4.127 6.362 20.163 20.163 0 0 1-1.855 1.331c-.024.025-.049.025-.073.049-9.641 6.313-24.968 9.74-62.37 15.066a634.426 634.426 0 0 0-14.832 2.391 28.376 28.376 0 0 0 2.868-6.682l21.012-2.219c42.593-4.315 47.339-7.669 52.481-12.8l.223-.222.1-.1a5.731 5.731 0 0 0 1.657-2.835.706.706 0 0 0 .024-.222c0-.542-.173-.715-.543-.691-.594.025-1.187.814-1.607 1.356a.77.77 0 0 1-.124.173 2.258 2.258 0 0 1-.174.222l-.024.025c-1.607 2.047-3.758 3.871-6.155 3.9a9.385 9.385 0 0 1-6.3 3.279c-3.313.3-5.29-1.233-5.71-3.821-2 2.416-4.722 4.734-7.416 4.98-2.817.272-4.894-1.873-4.622-5.2.123-1.479.568-1.824 1.26-1.874.89-.049 2.5-.2 3.535-2.859a4.8 4.8 0 0 0 .371-1.48c0-.493-.222-.715-.717-.69-.816.049-2.052.764-3.411 2.293l-4.08 10.158-4.795.444.84-2.17a12.682 12.682 0 0 1-7.243 3.156c-3.782.345-5.809-1.184-6.156-3.995a13.473 13.473 0 0 1-9.294 5.425c-3.856.37-5.884-1.307-6.18-4.315a33.778 33.778 0 0 1-7.664 7c-1.483 4.34-2.991 11.688-8.529 12.4a5.593 5.593 0 0 1-.726.049c-2.828.007-3.778-2.395-3.756-4.333Zm4.648-2.984a3.511 3.511 0 0 0-1.657 2.465.761.761 0 0 0 .915.814c.889-.148 1.656-1.455 2.818-4.562a19.887 19.887 0 0 0-2.08 1.283ZM55.351 27.991c-2.4.147-5.834 7.791-5.834 10.331 0 1.035.371 1.43.965 1.381 1.656-.148 4.251-3.156 4.251-3.156l1.978-6.46s-.023-2.1-1.273-2.1a2.934 2.934 0 0 0-.087.004Zm135.962-9.074c-2.373.147-4.7 6.164-4.7 8.26 0 .912.47 1.454 1.187 1.405a3.377 3.377 0 0 0 2.15-1.528 1.955 1.955 0 0 1-.667-1.5 2.538 2.538 0 0 1 2.571-2.392 7.544 7.544 0 0 0 .642-2.859c0-1-.51-1.382-1.125-1.382Zm-47.858 3.452c-2.226.123-3.831 4.365-3.831 4.389 2.768.3 3.682-1.084 4.276-2.613.384-.936.558-1.778-.365-1.778ZM128.523 12.26c-3.362.1-6.823 5.178-8.9 10.455a15.647 15.647 0 0 0 7.095-2.762c1.978-1.479 3.683-3.477 3.683-5.868a1.61 1.61 0 0 0-1.763-1.827Zm-17.453 4.192v.024a4.5 4.5 0 0 0-.074.272 4.17 4.17 0 0 0-.074.814 5.173 5.173 0 0 0 .494 2.219c.271-.765.544-1.529.865-2.342a12.977 12.977 0 0 0 .544-2.146c.027-.308-.136-.476-.377-.476-.416-.001-1.066.497-1.378 1.635ZM14.044 36.226l.074-.2c-3.362 2.05-7.636 2.345-12.236.348 0 0 12.285-.394 19.035-20.145l5.982-.2-7.217 20.715a1.822 1.822 0 0 0-.1.272c-.124.419-.173.542-.173.542-1.755 5.129-1.162 5.721-.42 5.646 1.78-.147 4.573-4.216 6.477-9.172l6.4-18.123 5.982-.2-7.216 20.222s-.322.887-.594 1.7c-.024.049-.024.1-.049.148a.465.465 0 0 1-.049.172c-.272.888-.544 2.244.767 3.008.2.074.346.123.395.148a1.993 1.993 0 0 0 1.632-.123 9.27 9.27 0 0 0 2.719-2.737 38.99 38.99 0 0 0 2.324-3.6c.544-.912 1.038-1.849 1.532-2.786a29.357 29.357 0 0 0 3.583-16.346 15.46 15.46 0 0 0-2.348-7.422 3.515 3.515 0 0 0-2.843-1.776 7.367 7.367 0 0 0-1.607.444 6.945 6.945 0 0 1 2.077-3.8 5.326 5.326 0 0 1 5.76-.518c3.337 1.7 4.5 5.893 4.82 9.542.643 7.693-1.829 15.683-5.537 22.488-2.6 4.809-6.1 9.641-10.7 12.377-1.982 1.187-4.532 1.976-6.332.398a4.011 4.011 0 0 1-1.236-3.111v-.345c-1.409 1.947-4.326 4.98-7.811 5.351a5.887 5.887 0 0 1-.6.031c-3.912.004-5.435-4.278-2.491-12.948Z" fill="#be1e2f"></path></svg>