<svg xmlns="http://www.w3.org/2000/svg" class="header__logo-svg header__svg" viewBox="0 0 595.28 101.89">
               <g>
                  <path d="M441.31,53.29c3.77-1.68,6.04-4.8,6.04-9.42c0-7.44-5.55-11.01-14.1-11.01h-12.84v36.68h5.14V54.77h7.7
                     c0.33,0,0.72-0.01,1.12-0.02l10.84,14.8h6.37l-11.62-15.86L441.31,53.29z M432.31,51.68h-6.76V35.9h6.76
                     c6.45,0,9.64,2.41,9.64,7.97C441.95,49.32,438.75,51.68,432.31,51.68z"></path>
                  <polygon points="55.1,69.29 80.91,69.29 80.91,66.14 60.24,66.14 60.24,51.99 78.88,51.99 78.88,48.85 60.24,48.85 60.24,35.75
                     80.91,35.75 80.91,32.6 55.1,32.6 	"></polygon>
                  <polygon points="141.94,69.29 167.75,69.29 167.75,66.14 147.07,66.14 147.07,51.99 165.72,51.99 165.72,48.85 147.07,48.85
                     147.07,35.75 167.75,35.75 167.75,32.6 141.94,32.6 	"></polygon>
                  <polygon points="256.69,69.45 261.83,69.45 261.83,52.15 280.47,52.15 280.47,49.01 261.83,49.01 261.83,35.91 282.5,35.91
                     282.5,32.76 256.69,32.76 	"></polygon>
                  <polygon points="111.28,50.37 99.91,32.6 93.88,32.6 107.67,53.98 107.67,69.29 112.8,69.29 112.8,53.98 126.59,32.6 122.55,32.6
                     "></polygon>
                  <path d="M222.44,32.08c-10.48,0-18.29,8.28-18.29,18.87c0,10.58,7.81,18.87,18.29,18.87s18.24-8.28,18.24-18.87
                     C240.68,40.36,232.92,32.08,222.44,32.08z M222.44,66.88c-7.7,0-12.47-6.18-12.47-15.93c0-9.75,4.77-15.93,12.47-15.93
                     c7.7,0,12.47,6.18,12.47,15.93C234.91,60.69,230.14,66.88,222.44,66.88z"></path>
                  <polygon points="346.54,48.9 325.05,48.9 325.05,32.6 319.92,32.6 319.92,69.29 325.05,69.29 325.05,51.94 346.54,51.94
                     346.54,69.29 351.68,69.29 351.68,32.6 346.54,32.6 	"></polygon>
                  <path d="M385.95,32.08c-10.48,0-18.29,8.28-18.29,18.87c0,10.58,7.81,18.87,18.29,18.87s18.24-8.28,18.24-18.87
                     C404.19,40.36,396.43,32.08,385.95,32.08z M385.95,66.88c-7.7,0-12.47-6.18-12.47-15.93c0-9.75,4.77-15.93,12.47-15.93
                     c7.7,0,12.47,6.18,12.47,15.93C398.43,60.69,393.66,66.88,385.95,66.88z"></path>
                  <path d="M492.46,54.61c0,8.02-3.83,11.63-10.38,11.63c-6.5,0-10.53-4.09-10.53-11.63V32.6h-5.14v22.59
                     c0,8.96,5.14,14.62,15.25,14.62c8.18,0,14.46-5.03,14.46-14.62V32.6h-3.67V54.61z"></path>
                  <path d="M530.27,48.69l-4.93-1.31c-4.56-1.2-6.81-2.62-6.81-6.18c0-3.72,3.3-5.97,7.91-5.97c4.72,0,8.54,2.25,10.64,6.03l2.57-2.46
                     c-2.31-3.88-7.07-6.71-13.21-6.71c-7.34,0-12.79,4.24-12.79,10.22c0,5.71,3.56,8.12,9.8,9.8l5.03,1.36
                     c4.14,1.1,6.81,2.67,6.81,6.45c0,4.4-3.72,6.6-8.7,6.6c-4.66,0-9.33-1.99-12.21-6.87l-2.62,2.2c2.46,4.87,8.38,7.97,14.83,7.97
                     c7.29,0,13.57-4.19,13.57-11.32C540.17,53.04,536.4,50.32,530.27,48.69z"></path>
               </g>
            </svg>