<svg width="144" height="57" viewBox="0 0 144 57" class="icon icon-logo h-full w-auto" fill="none" xmlns="http://www.w3.org/2000/svg">
<path d="M98.6901 3.10154C98.6901 4.81309 97.2983 6.20307 95.5846 6.20307C93.8709 6.20307 92.4791 4.81309 92.4791 3.10154C92.4791 1.38999 93.8709 0 95.5846 0C97.2983 0 98.6901 1.38999 98.6901 3.10154ZM0.150635 24.8382H6.48105V0.554957H0.150635V24.8382ZM8.41289 24.8071H14.7433V15.0565C14.7433 13.096 15.8754 12.0275 17.4074 12.0275C18.9393 12.0275 19.9364 13.0908 19.9364 15.0565V24.8071H26.2668V13.0285C26.2668 8.93637 23.9663 6.40535 20.1389 6.40535C17.5735 6.40535 15.9066 7.83682 14.7433 9.33573V6.80989H8.41289V24.8071ZM35.064 25.2428C39.0263 25.2428 41.4255 23.5779 43.0925 21.1143L38.8601 18.0543C37.8631 19.216 36.8971 19.9162 35.3963 19.9162C33.262 19.9162 31.7975 18.1528 31.7975 15.8241V15.7566C31.7975 13.5627 33.2983 11.763 35.3288 11.763C36.8608 11.763 37.8267 12.4632 38.694 13.6613L42.9939 10.4664C41.4619 8.0391 38.9952 6.44165 35.2977 6.44165C29.6008 6.44165 25.6385 10.7309 25.6385 15.8241V15.8915C25.6385 20.9795 29.6372 25.2428 35.064 25.2428ZM42.5473 24.8071H48.8777V19.216C48.8777 15.0565 50.742 13.1634 54.0396 13.1634H54.5745V6.50908C51.5781 6.37423 49.9111 7.97167 48.8777 10.4353V6.80989H42.5473V24.8071ZM63.3976 25.2428C66.9965 25.2428 69.4944 23.7802 71.2237 21.5863L67.7287 18.6922C66.4304 19.9577 65.2308 20.523 63.73 20.523C61.767 20.523 60.3337 19.5272 59.8352 17.5615H71.8936C71.9247 17.1259 71.9247 16.6643 71.9247 16.2649C71.9247 10.9747 69.0633 6.41572 62.8316 6.41572C57.5034 6.41572 53.7384 10.5753 53.7384 15.8292V15.8967C53.7384 21.4877 57.7371 25.248 63.3976 25.248V25.2428ZM59.7365 14.3303C60.0688 12.3698 61.2009 11.068 62.8679 11.068C64.5349 11.068 65.7657 12.3335 65.9994 14.3303H59.7365ZM79.1484 25.2065C81.8488 25.2065 83.4119 23.9098 84.6427 22.4109V24.8071H90.9731V0.523838H84.6427V9.00898C83.4431 7.64492 81.8436 6.41572 79.112 6.41572C74.8485 6.41572 71.1821 9.97367 71.1821 15.8292V15.8967C71.1821 21.6537 74.8796 25.2116 79.1432 25.2116L79.1484 25.2065ZM81.0802 19.9162C79.0497 19.9162 77.3827 18.2202 77.3827 15.8241V15.7566C77.3827 13.3605 79.0497 11.7008 81.0802 11.7008C83.1107 11.7008 84.7413 13.3968 84.7413 15.7566V15.8241C84.7413 18.2202 83.1107 19.9162 81.0802 19.9162ZM92.5051 24.8071H98.8355V6.80989H92.5051V24.8071ZM112.192 25.2065C116.456 25.2065 120.153 21.6485 120.153 15.7929V15.7255C120.153 9.96848 116.456 6.41053 112.161 6.41053C109.461 6.41053 107.929 7.70716 106.698 9.20606V0.523838H100.367V24.8071H106.698V22.6132C107.866 23.9773 109.461 25.2065 112.197 25.2065H112.192ZM110.224 19.9162C108.193 19.9162 106.558 18.2202 106.558 15.8241V15.7566C106.558 13.3968 108.188 11.7008 110.224 11.7008C112.26 11.7008 113.921 13.3968 113.921 15.7566V15.8241C113.921 18.2513 112.291 19.9162 110.224 19.9162ZM119.987 24.8071H126.317V0.523838H119.987V24.8071ZM135.478 25.2428C139.077 25.2428 141.575 23.7802 143.304 21.5863L139.804 18.6922C138.506 19.9577 137.306 20.523 135.805 20.523C133.842 20.523 132.409 19.5272 131.91 17.5615H143.969C144 17.1259 144 16.6643 144 16.2649C144 10.9747 141.133 6.41572 134.907 6.41572C129.579 6.41572 125.814 10.5753 125.814 15.8292V15.8967C125.814 21.4877 129.812 25.248 135.473 25.248L135.478 25.2428ZM131.817 14.3303C132.149 12.3698 133.281 11.068 134.948 11.068C136.615 11.068 137.846 12.3335 138.08 14.3303H131.817Z" fill="#143F6E"></path>
<path d="M80.6505 56.0985C72.7019 56.6154 65.8477 50.6034 65.331 42.678C64.8142 34.7526 70.8378 27.9031 78.7785 27.3867C86.7191 26.8702 93.5813 32.8817 94.098 40.8071C94.6148 48.7326 88.5912 55.5821 80.6505 56.0985Z" fill="#E7E7E7"></path>
<path d="M80.5164 54.0425C73.7062 54.4854 67.8337 49.3344 67.3909 42.544C66.9482 35.7537 72.1091 29.8852 78.9125 29.4427C85.7159 29.0003 91.5953 34.1508 92.038 40.9411C92.4808 47.7315 87.3199 53.6 80.5164 54.0425Z" fill="#39C7F5"></path>
<path d="M85.0871 35.6697C84.1901 35.6124 83.3836 36.7333 83.2867 38.1755C83.1898 39.6178 83.8356 40.8416 84.7325 40.899C85.6295 40.9564 86.436 39.8354 86.5329 38.3932C86.6298 36.9509 85.9841 35.7271 85.0871 35.6697ZM80.8285 38.5396C81.8458 38.3509 82.4234 36.857 82.1119 35.2167C81.8 33.5696 80.7278 32.3939 79.7105 32.5826C78.6931 32.7713 78.1155 34.2652 78.427 35.9055C78.739 37.5526 79.8111 38.7282 80.8285 38.5396ZM77.7012 40.6689C78.6159 39.8472 78.4669 38.1896 77.364 36.9614C76.2616 35.7401 74.6241 35.411 73.7094 36.2327C72.7947 37.0544 72.9437 38.7121 74.0466 39.9402C75.149 41.1616 76.7865 41.4906 77.7012 40.6689ZM75.5985 42.3029C74.2421 41.3703 72.6132 41.3809 71.9658 42.3282C71.318 43.2686 71.8945 44.7896 73.2508 45.7222C74.6071 46.6548 76.2361 46.6442 76.8835 45.6969C77.5313 44.7565 76.9548 43.2355 75.5985 42.3029ZM85.0737 42.3672C83.4258 42.0865 83.4287 42.5491 82.303 40.5534C81.5172 39.1685 79.0176 39.1065 78.4783 41.8162C78.3136 42.6367 78.4252 44.4534 77.7111 45.8405C77.4509 46.3474 75.2163 50.6645 79.6239 49.4523C84.0248 48.2406 86.4134 45.5536 86.7891 44.937C87.2697 44.1504 86.7213 42.6412 85.0733 42.3604L85.0737 42.3672Z" fill="white"></path>
<path d="M0 27.8879H6.33041V30.2841C7.56637 28.7852 9.09315 27.4885 11.7936 27.4885C16.0883 27.4885 19.7858 31.0465 19.7858 36.8035V36.8709C19.7858 42.7265 16.0883 46.2845 11.8247 46.2845C9.09314 46.2845 7.49367 45.0553 6.33041 43.6912V52.1245H0V27.8879ZM13.5592 36.9021V36.8346C13.5592 34.4748 11.9286 32.7736 9.86173 32.7736C7.79487 32.7736 6.19539 34.4696 6.19539 36.8346V36.9021C6.19539 39.2982 7.82602 40.9942 9.86173 40.9942C11.8974 40.9942 13.5592 39.3293 13.5592 36.9021ZM18.2538 43.1726V43.1051C18.2538 37.846 22.0188 33.6916 27.347 33.6916C33.5735 33.6916 36.4401 38.2506 36.4401 43.5408C36.4401 43.9402 36.4401 44.4069 36.409 44.8374H24.3505C24.8491 46.7979 26.2824 47.7989 28.2506 47.7989C29.7514 47.7989 30.951 47.2336 32.2493 45.9681L35.7442 48.8622C34.0097 51.0561 31.5118 52.5187 27.9182 52.5187C22.2577 52.5187 18.259 48.7584 18.259 43.1674L18.2538 43.1726ZM30.5096 41.6114C30.2759 39.6146 29.1126 38.3491 27.3781 38.3491C25.6436 38.3491 24.579 39.6457 24.2467 41.6114H30.5096ZM37.7436 46.5023V39.1841H35.6144V34.0962H37.7436V29.532H44.074V34.091H48.27V39.1789H44.074V45.2679C44.074 46.5334 44.6401 47.0624 45.8033 47.0624C46.6342 47.0624 47.4391 46.829 48.2025 46.4608V51.4191C47.0704 52.0519 45.5696 52.4512 43.804 52.4512C40.0078 52.4512 37.7436 50.7864 37.7436 46.4971V46.5023ZM47.6676 49.8269L50.0305 45.9992C52.0974 47.3633 54.3616 48.0634 56.2259 48.0634C57.3268 48.0634 57.8254 47.7315 57.8254 47.0987V47.0313C57.8254 46.3311 56.8283 46.0355 54.9276 45.5013C51.3599 44.5677 48.5349 43.3748 48.5349 39.7443V39.6768C48.5349 35.8544 51.5988 33.7227 55.7637 33.7227C58.3966 33.7227 61.1282 34.4903 63.1899 35.8181L61.0243 39.8117C59.16 38.7796 57.1243 38.1468 55.6962 38.1468C54.7303 38.1468 54.2317 38.5099 54.2317 39.013V39.0804C54.2317 39.7806 55.2652 40.1125 57.1607 40.6778C60.7231 41.6737 63.5586 42.908 63.5586 46.3986V46.466C63.5586 50.4233 60.5933 52.4875 56.1999 52.4875C53.1671 52.4875 50.1707 51.6214 47.6728 49.8269H47.6676ZM60.6608 49.303C60.183 49.303 59.7936 49.692 59.7936 50.1692C59.7936 50.6463 60.183 51.0353 60.6608 51.0353C61.1386 51.0353 61.5281 50.6463 61.5281 50.1692C61.5281 49.692 61.1386 49.303 60.6608 49.303Z" fill="#143F6E"></path>
<path d="M61.7981 50.0499C61.7981 50.766 61.3331 51.0872 60.7595 51.0872C60.1859 51.0872 59.7209 50.766 59.7209 50.0499C59.7209 49.3338 60.1859 48.7532 60.7595 48.7532C61.3331 48.7532 61.7981 49.3338 61.7981 50.0499Z" fill="#143F6E"></path>
</svg>