<svg class="icon icon-logo h-10 lg:h-14 w-auto
" width="1185px" height="437px" viewBox="0 0 1185 437" version="1.1" xmlns="http://www.w3.org/2000/svg" xmlns:xlink="http://www.w3.org/1999/xlink">
        <g id="Page-1" stroke="none" stroke-width="1" fill="none" fill-rule="evenodd">
            <g id="Group" transform="translate(0.000000, -0.000000)" fill="currentColor" fill-rule="nonzero">
                <path d="M1183.46,17.1479365 L1184.81,19.4079365 C1171.4,34.0479365 1121.94,74.3379365 1103.61,84.8779365 C1077.45,99.9279365 1058.94,100.167937 1027.88,89.3779365 L953.57,63.2079365 L1001.16,10.1979365 C1040.74,-27.5620635 1103.42,54.4679365 1183.46,17.1479365 Z" id="Path"></path>
                <polygon id="Path" points="673.63 429.187937 673.63 4.14793654 773.99 4.14793654 773.99 429.187937"></polygon>
                <polygon id="Path" points="1050.32 144.947937 953.48 144.947937 953.58 63.1979365 853.43 171.317937 810.62 217.487937 852.8 217.487937 852.8 429.187937 953.16 429.187937 953.4 217.487937 983.31 217.487937"></polygon>
                <rect id="Rectangle" x="1058.82" y="144.947937" width="100.36" height="284.24"></rect>
                <path d="M504.21,144.947937 L504.21,331.787937 C492.99,344.777937 475.28,354.807937 453.44,354.807937 C426.28,354.807937 416.84,337.097937 416.84,305.807937 L416.84,144.947937 L315.89,144.947937 L315.89,330.607937 C315.89,397.907937 347.18,436.867937 417.43,436.867937 C461.11,436.867937 489.45,417.977937 513.06,391.997937 L523.69,429.187937 L603.98,429.187937 L603.98,144.947937 L504.21,144.947937 Z" id="Path"></path>
                <g transform="translate(106.480000, 138.397937)" id="Path">
                    <polygon points="85.6 128.07 185.27 290.78 68.98 290.78 -2.84217094e-14 170.58"></polygon>
                    <polygon points="36.23 42.45 85.6 128.07 172.23 82.25 121.87 -2.84217094e-14"></polygon>
                </g>
                <polygon id="Path" points="100.36 429.247937 -5.68434189e-14 429.247937 -5.68434189e-14 4.20793654 100.36 4.20793654"></polygon>
            </g>
        </g>
    </svg>