<svg class="icon-teleties-circle-logo" width="63" height="65" viewBox="0 0 63 65" fill="none" xmlns="http://www.w3.org/2000/svg">
    <g clip-path="url(#clip0_1842_32690)">
    <path d="M57.2668 37.3481C57.1617 37.3027 57.0566 37.2574 56.9516 37.2044C56.2011 36.8262 55.3456 36.1909 55.4432 35.4497C55.5708 34.7463 56.0435 34.0883 56.8991 33.9219C57.9947 33.6799 58.6176 35.0564 59.6232 34.595C59.9083 34.4589 60.111 34.1639 60.3436 33.9446C60.8239 33.4983 61.5518 33.3168 62.1672 33.5664C62.3473 33.6345 62.5124 33.7479 62.64 33.9068C62.8051 34.111 62.9026 34.3833 62.9552 34.6631C63.1653 35.6766 62.5799 36.7128 61.837 37.2195C61.0941 37.7338 60.2085 37.8246 59.353 37.7868C58.6476 37.749 57.9272 37.6204 57.2668 37.3557" fill="#111921"></path>
    <path d="M55.9607 42.1283C55.8632 42.0678 55.7656 41.9998 55.6756 41.9317C55.0152 41.4174 54.2872 40.6308 54.5349 39.9274C54.715 39.2391 55.3679 38.7021 56.2309 38.7021C57.3566 38.6719 57.7018 40.1392 58.7749 39.882C59.0826 39.7988 59.3377 39.5568 59.6154 39.3828C60.1782 39.0349 60.9212 38.9971 61.484 39.3526C61.6491 39.4585 61.7842 39.5946 61.8818 39.7686C62.0018 39.9955 62.0469 40.2829 62.0394 40.5703C62.0243 41.077 61.8517 41.5762 61.5891 41.9846C61.3039 42.3931 60.8987 42.6956 60.4859 42.8771C59.6604 43.2402 58.7674 43.157 57.9344 42.9528C57.244 42.7864 56.5611 42.5216 55.9607 42.1283Z" fill="#111921"></path>
    <path d="M53.8219 46.5829C53.7394 46.4997 53.6568 46.4165 53.5818 46.3333C53.0114 45.6979 52.4786 44.8055 52.8163 44.1474C53.1165 43.5046 53.8669 43.1113 54.715 43.2701C55.8331 43.4592 55.8932 44.9567 57.0038 44.9114C57.3265 44.8887 57.6192 44.6996 57.9269 44.5786C58.5422 44.3441 59.2852 44.45 59.773 44.9038C59.9155 45.0399 60.0281 45.1988 60.0881 45.3878C60.1707 45.6374 60.1557 45.9248 60.0957 46.2047C59.8705 47.2031 59.0675 48.0048 58.1595 48.1787C57.274 48.3754 56.411 48.1258 55.6305 47.7628C54.9776 47.4678 54.3547 47.0745 53.8444 46.5829" fill="#111921"></path>
    <path d="M50.9181 50.5538C50.8505 50.463 50.783 50.3647 50.723 50.2664C50.2727 49.5327 49.9275 48.5722 50.3552 47.9595C50.768 47.3847 51.586 47.1502 52.3889 47.4603C53.4546 47.8612 53.237 49.3361 54.3401 49.5025C54.6628 49.5478 54.993 49.4117 55.3082 49.3587C55.9686 49.2529 56.6365 49.4646 57.0492 50.0243C57.1693 50.1832 57.2593 50.3722 57.2819 50.5689C57.3119 50.8261 57.2518 51.1059 57.1393 51.3706C56.7265 52.2934 55.811 52.9438 54.8879 52.9438C53.9799 52.9665 53.1769 52.5581 52.4715 52.0589C51.8861 51.6429 51.3383 51.1437 50.9256 50.5613" fill="#111921"></path>
    <path d="M47.3604 53.9197C47.3079 53.8138 47.2629 53.708 47.2254 53.6021C46.9177 52.7928 46.7526 51.802 47.2629 51.265C47.7807 50.7885 48.6287 50.7053 49.3641 51.1667C50.3397 51.7566 49.8594 53.1634 50.9176 53.534C51.2252 53.6399 51.5705 53.5718 51.9007 53.5794C52.5385 53.5794 53.1839 53.9273 53.4841 54.5475C53.5741 54.729 53.6267 54.9257 53.6192 55.1374C53.6192 55.4022 53.4916 55.6593 53.3415 55.8938C52.7712 56.7258 51.7356 57.1644 50.85 57.0207C49.9495 56.8695 49.2291 56.3173 48.6287 55.6896C48.1259 55.1677 47.6756 54.5778 47.3755 53.9273" fill="#111921"></path>
    <path d="M43.2629 56.5592C43.2329 56.4458 43.2029 56.3323 43.1879 56.2189C43.0378 55.3869 43.0378 54.3432 43.6381 53.9196C44.231 53.549 45.0865 53.6398 45.7244 54.2297C46.5799 55.0012 45.852 56.2794 46.8275 56.8467C47.1127 56.9979 47.4729 57.0206 47.7806 57.066C48.4035 57.1719 48.9813 57.6484 49.1614 58.314C49.214 58.5106 49.2365 58.7073 49.1915 58.9115C49.1464 59.1838 48.9888 59.4258 48.7862 59.6224C48.0808 60.3334 46.9626 60.5376 46.1296 60.2578C45.2741 59.9325 44.6588 59.2518 44.1785 58.5182C43.7732 57.9131 43.443 57.2475 43.2629 56.5441" fill="#111921"></path>
    <path d="M38.7679 58.3822C38.7604 58.2687 38.7529 58.1477 38.7529 58.0343C38.7529 57.2098 38.933 56.1283 39.6084 55.8484C40.2538 55.5988 41.0943 55.8787 41.5971 56.5518C41.9348 56.9981 41.8973 57.5351 41.8598 58.0267C41.8223 58.5107 41.7847 58.9797 42.22 59.3503C42.4751 59.5696 42.8204 59.6301 43.1055 59.7285C43.7059 59.9554 44.1787 60.5377 44.2387 61.2185C44.2612 61.4151 44.2387 61.6193 44.1637 61.816C44.0661 62.058 43.8785 62.3 43.6458 62.4513C42.8204 63.011 41.6797 62.9883 40.9142 62.5572C40.1413 62.1261 39.6535 61.2941 39.3083 60.4999C39.0231 59.8268 38.813 59.1083 38.7604 58.3897" fill="#111921"></path>
    <path d="M34.0254 59.3198C34.0404 59.2064 34.0554 59.0929 34.0704 58.9795C34.2205 58.1475 34.5807 57.0962 35.3012 56.9751C35.6464 56.9222 36.0066 57.0054 36.3368 57.1945C36.6595 57.376 36.9446 57.6407 37.1322 58.034C37.6576 59.0551 36.5394 60.061 37.2448 60.9232C37.4474 61.1653 37.7776 61.2787 38.0478 61.4451C38.5956 61.7855 38.9633 62.4511 38.8958 63.1318C38.8808 63.3284 38.8207 63.5251 38.7082 63.699C38.5656 63.9184 38.3405 64.0999 38.0853 64.2285C37.1848 64.652 36.0516 64.3722 35.3837 63.8049C34.7008 63.2301 34.3781 62.3754 34.183 61.5056C34.0254 60.7871 33.9503 60.0383 34.0254 59.3274" fill="#111921"></path>
    <path d="M29.1851 59.3348C29.2151 59.2214 29.2526 59.1079 29.2902 58.9945C29.5903 58.1927 30.1232 57.2473 30.8586 57.2776C31.549 57.3532 32.2319 57.7843 32.4721 58.639C32.8023 59.7357 31.5265 60.5147 32.0668 61.4904C32.2244 61.7702 32.5246 61.9518 32.7647 62.1635C33.245 62.6098 33.4852 63.3359 33.2976 63.9863C33.245 64.1754 33.155 64.3569 33.0124 64.5006C32.8323 64.6897 32.5771 64.8183 32.307 64.8939C31.3464 65.2116 30.2883 64.6595 29.7329 63.9787C29.1701 63.2754 28.9975 62.3753 28.96 61.4979C28.93 60.7719 28.9825 60.0231 29.1851 59.3197" fill="#111921"></path>
    <path d="M24.4272 58.4352C24.4797 58.3293 24.5323 58.231 24.5923 58.1251C25.0276 57.399 25.7255 56.5822 26.4309 56.7561C27.1063 56.9074 27.6917 57.4973 27.7742 58.3823C27.9018 59.5319 26.521 60.0311 26.8662 61.1051C26.9712 61.4152 27.2339 61.6496 27.429 61.9144C27.8192 62.4514 27.9243 63.2077 27.6316 63.8203C27.5491 64.0019 27.429 64.1531 27.2639 64.2742C27.0538 64.4254 26.7761 64.5011 26.5059 64.5162C26.0107 64.554 25.5154 64.433 25.0951 64.191C24.6824 63.9187 24.3447 63.5481 24.127 63.1396C23.6993 62.3304 23.6918 61.4076 23.8118 60.5378C23.9094 59.8117 24.1045 59.0932 24.4272 58.4428" fill="#111921"></path>
    <path d="M19.9166 56.6499C19.9841 56.5591 20.0591 56.4683 20.1342 56.3776C20.697 55.7423 21.515 55.0918 22.1829 55.3943C22.8358 55.6364 23.2861 56.37 23.211 57.2474C23.1285 58.4046 21.6876 58.6088 21.8377 59.7433C21.8902 60.0685 22.1004 60.3559 22.2429 60.6509C22.5281 61.256 22.4981 62.0275 22.1004 62.5645C21.9878 62.7233 21.8377 62.8519 21.6576 62.9351C21.425 63.041 21.1473 63.0561 20.8696 63.0183C19.879 62.8972 19.031 62.1258 18.7834 61.2182C18.5132 60.3333 18.6708 59.4256 18.9485 58.5937C19.1736 57.8978 19.4963 57.2247 19.9241 56.6499" fill="#111921"></path>
    <path d="M15.8042 54.0479C15.8867 53.9723 15.9768 53.8967 16.0668 53.821C16.7347 53.2992 17.6428 52.8454 18.2581 53.2311C18.851 53.6017 19.1587 54.411 18.9335 55.2656C18.6484 56.3926 17.1925 56.3094 17.1325 57.4515C17.125 57.7843 17.2751 58.1019 17.3651 58.4272C17.5302 59.0927 17.3726 59.8113 16.8773 60.2802C16.7347 60.4163 16.5696 60.5147 16.3745 60.56C16.1269 60.6205 15.8492 60.5752 15.5866 60.492C14.6485 60.1592 13.9356 59.2818 13.853 58.3288C13.748 57.4061 14.0707 56.5439 14.4909 55.7724C14.8361 55.1295 15.2714 54.532 15.7967 54.0479" fill="#111921"></path>
    <path d="M12.2177 50.7126C12.3152 50.6521 12.4128 50.5916 12.5178 50.5386C13.2758 50.1453 14.2214 49.8882 14.7842 50.3647C15.2945 50.8412 15.4521 51.7034 15.0769 52.4975C14.5891 53.5489 13.1857 53.1934 12.9231 54.3052C12.8555 54.6304 12.9456 54.9783 12.9756 55.3111C13.0282 55.9843 12.7505 56.6574 12.1726 57.028C12.0075 57.1339 11.8199 57.2096 11.6173 57.2247C11.3622 57.2322 11.0995 57.1415 10.8594 57.0053C10.0039 56.4986 9.47103 55.4851 9.54608 54.5548C9.60612 53.6245 10.0789 52.8379 10.6267 52.1572C11.0845 51.5975 11.6173 51.0832 12.2177 50.7126Z" fill="#111921"></path>
    <path d="M9.29011 46.7645C9.39517 46.7267 9.50774 46.6889 9.6128 46.6511C10.4158 46.409 11.4064 46.3258 11.8792 46.9007C12.2919 47.4755 12.2919 48.3528 11.7741 49.0638C11.1062 50.0092 9.80041 49.3815 9.33514 50.4328C9.20756 50.7353 9.23758 51.1059 9.20756 51.4312C9.16253 52.0816 8.74979 52.7094 8.12692 52.959C7.94681 53.0346 7.75169 53.0724 7.54907 53.0497C7.27891 53.027 7.04627 52.8758 6.83615 52.6942C6.0857 52.0362 5.76301 50.9168 5.97314 50.0395C6.20577 49.1319 6.80613 48.4436 7.47403 47.8839C8.02186 47.415 8.63722 47.0141 9.29762 46.757" fill="#111921"></path>
    <path d="M7.10637 42.3325C7.21893 42.3099 7.3315 42.2947 7.44407 42.2872C7.84931 42.2493 8.31459 42.2493 8.70482 42.3552C9.11006 42.446 9.47027 42.6275 9.63537 42.9603C9.93555 43.6032 9.76295 44.473 9.14008 45.0705C8.31459 45.8798 7.13638 45.0176 6.49851 45.963C6.3184 46.2428 6.27337 46.6059 6.20583 46.916C6.04073 47.5513 5.52292 48.0883 4.87004 48.2169C4.67492 48.2547 4.4798 48.2547 4.28469 48.1942C4.03704 48.111 3.7969 47.9446 3.6318 47.7177C3.00893 46.9311 2.91887 45.7588 3.26408 44.9344C3.6393 44.0948 4.37474 43.5276 5.11768 43.0964C5.74055 42.741 6.42346 42.4611 7.11387 42.3401" fill="#111921"></path>
    <path d="M5.76338 37.5601C5.87594 37.5601 5.98851 37.5676 6.10108 37.5752C6.89655 37.6584 7.95468 37.9307 8.1498 38.6492C8.31489 39.3375 7.97719 40.1619 7.28678 40.6232C6.82151 40.9258 6.3112 40.835 5.83092 40.7518C5.35813 40.6686 4.91537 40.5854 4.51013 41.0014C4.26999 41.2434 4.20995 41.5762 4.07487 41.8712C3.79721 42.4612 3.18934 42.8998 2.52145 42.8998C2.32633 42.8998 2.13121 42.862 1.95111 42.7637C1.71847 42.6351 1.52335 42.4233 1.37326 42.1813C0.907985 41.2888 1.04307 40.1165 1.53836 39.3753C2.01865 38.6265 2.85915 38.2105 3.66963 37.9307C4.35254 37.6962 5.06546 37.5525 5.76338 37.5676" fill="#111921"></path>
    <path d="M5.29078 32.6059C5.40334 32.6286 5.51591 32.6589 5.62848 32.6891C6.43896 32.9236 7.40704 33.385 7.45206 34.1337C7.47458 34.4892 7.3395 34.8598 7.14438 35.1699C6.95677 35.48 6.6641 35.7523 6.26636 35.9112C5.23825 36.3498 4.36022 35.117 3.45969 35.7599C3.20454 35.949 3.06195 36.2742 2.87434 36.5314C2.49161 37.0608 1.8087 37.3709 1.15582 37.2423C0.968205 37.2045 0.780593 37.1289 0.622999 37.0003C0.420379 36.8339 0.270289 36.5843 0.172731 36.312C-0.194988 35.3515 0.225262 34.2245 0.833124 33.5892C1.4635 32.9463 2.3115 32.6891 3.15951 32.5681C3.86493 32.4698 4.58536 32.4622 5.29078 32.5984" fill="#111921"></path>
    <path d="M5.73357 27.6518C5.83863 27.6972 5.94369 27.7426 6.04876 27.7955C6.7992 28.1737 7.65471 28.809 7.55715 29.5502C7.42958 30.2536 6.9568 30.9117 6.10129 31.0781C5.00564 31.3201 4.38276 29.9435 3.37717 30.4049C3.092 30.5411 2.88938 30.836 2.65674 31.0554C2.17645 31.5016 1.44852 31.6831 0.833151 31.4335C0.653044 31.3655 0.487946 31.252 0.36037 31.0932C0.195272 30.889 0.0977134 30.6167 0.0451822 30.3368C-0.164943 29.3233 0.420405 28.2872 1.16335 27.7804C1.90629 27.2661 2.79182 27.1753 3.64733 27.2131C4.35275 27.251 5.07317 27.3795 5.73357 27.6443" fill="#111921"></path>
    <path d="M7.03949 22.8716C7.13705 22.9321 7.2271 23.0002 7.32466 23.0683C7.98506 23.5826 8.71299 24.3692 8.46534 25.0726C8.28523 25.7609 7.63235 26.2979 6.76933 26.2979C5.64366 26.3281 5.29846 24.8608 4.22532 25.118C3.91763 25.2012 3.66248 25.4432 3.38482 25.6172C2.82198 25.9651 2.07904 26.0029 1.51621 25.6474C1.35111 25.5415 1.21603 25.4054 1.11847 25.2239C0.990892 24.997 0.95337 24.7095 0.960874 24.4221C0.975883 23.9154 1.14849 23.4162 1.41114 23.0078C1.69631 22.5994 2.10155 22.2968 2.5143 22.1153C3.33979 21.7522 4.23282 21.8354 5.06582 22.0397C5.75623 22.2061 6.43914 22.4708 7.03949 22.8641" fill="#111921"></path>
    <path d="M9.17829 18.4169C9.26084 18.5001 9.34339 18.5833 9.41843 18.6665C9.98877 19.3018 10.5216 20.1943 10.1914 20.8523C9.89121 21.4952 9.14077 21.8885 8.29276 21.7297C7.1746 21.5406 7.11456 20.0431 6.0039 20.0884C5.68121 20.1111 5.38853 20.3002 5.08085 20.4212C4.46548 20.6557 3.72254 20.5498 3.23475 20.096C3.09217 19.9599 2.9796 19.801 2.91956 19.6119C2.83701 19.3623 2.85202 19.0749 2.91206 18.7951C3.13719 17.7967 3.94017 16.995 4.84821 16.821C5.73374 16.6244 6.59675 16.874 7.37722 17.237C8.03011 17.532 8.65298 17.9253 9.16328 18.4169" fill="#111921"></path>
    <path d="M12.0746 14.4461C12.1421 14.5369 12.2097 14.6352 12.2697 14.7335C12.72 15.4672 13.0652 16.4277 12.6449 17.0404C12.2322 17.6076 11.4142 17.8497 10.6037 17.5396C9.53809 17.1387 9.75572 15.6638 8.65256 15.4974C8.32987 15.4521 8.00718 15.5882 7.68449 15.6411C7.02409 15.747 6.3562 15.5352 5.94345 14.9756C5.82338 14.8167 5.73333 14.6276 5.71081 14.431C5.6808 14.1738 5.74083 13.894 5.8534 13.6293C6.26614 12.7065 7.18169 12.0561 8.10474 12.0561C9.01278 12.0334 9.81576 12.4418 10.5212 12.941C11.1065 13.357 11.6544 13.8562 12.0671 14.4386" fill="#111921"></path>
    <path d="M15.6393 11.0804C15.6918 11.1862 15.7369 11.2921 15.7744 11.398C16.0821 12.2073 16.2472 13.1981 15.7369 13.7427C15.2191 14.2192 14.3711 14.3024 13.6356 13.841C12.66 13.2511 13.1403 11.8443 12.0822 11.4737C11.7745 11.3678 11.4293 11.4358 11.0991 11.4283C10.4537 11.4283 9.81585 11.0804 9.51567 10.4602C9.42562 10.2786 9.37309 10.082 9.38059 9.87021C9.38059 9.60549 9.50817 9.34834 9.65826 9.11387C10.2286 8.28189 11.2642 7.84322 12.1497 7.98692C13.0503 8.13819 13.7707 8.69032 14.3711 9.31808C14.8739 9.83996 15.3241 10.4299 15.6243 11.0804" fill="#111921"></path>
    <path d="M19.729 8.44089C19.7591 8.55434 19.7816 8.66779 19.8041 8.78124C19.9542 9.61322 19.9542 10.657 19.3538 11.0805C18.761 11.4511 17.9055 11.3604 17.2676 10.7704C16.4121 9.99895 17.14 8.72074 16.1644 8.15348C15.8792 8.00221 15.519 7.97952 15.2113 7.93414C14.5885 7.82825 14.0106 7.35176 13.8305 6.68618C13.778 6.48953 13.7555 6.29288 13.8005 6.08867C13.8455 5.81638 14.0031 5.57436 14.2058 5.37771C14.9112 4.66675 16.0293 4.46253 16.8623 4.74238C17.7178 5.06761 18.3332 5.74831 18.8135 6.4744C19.2187 7.07948 19.5489 7.74506 19.7365 8.44845" fill="#111921"></path>
    <path d="M24.2241 6.62562C24.2316 6.73907 24.2391 6.86009 24.2391 6.97354C24.2391 7.79795 24.059 8.87952 23.3836 9.15936C22.7382 9.40896 21.8977 9.12911 21.3949 8.45597C21.0572 8.00972 21.0947 7.47272 21.1323 6.9811C21.1698 6.49704 21.2073 6.02811 20.772 5.6575C20.5169 5.43816 20.1717 5.37766 19.8865 5.27933C19.2862 5.05243 18.8134 4.47005 18.7533 3.78934C18.7308 3.59269 18.7533 3.38848 18.8359 3.19183C18.941 2.9498 19.1211 2.70777 19.3537 2.5565C20.1792 1.99681 21.3199 2.0195 22.0853 2.45061C22.8583 2.88173 23.3461 3.7137 23.6913 4.50786C23.9764 5.18101 24.1866 5.89953 24.2391 6.61806" fill="#111921"></path>
    <path d="M28.9751 5.68029C28.9601 5.79375 28.945 5.91476 28.93 6.02821C28.7799 6.86019 28.4197 7.9115 27.6993 8.03252C27.3541 8.08546 26.9939 8.00226 26.6637 7.81318C26.341 7.63166 26.0558 7.36694 25.8682 6.97364C25.3429 5.95258 26.4611 4.94664 25.7556 4.08441C25.5455 3.84238 25.2228 3.72893 24.9527 3.56254C24.4048 3.22218 24.0371 2.5566 24.1047 1.8759C24.1197 1.67925 24.1797 1.4826 24.2923 1.30864C24.4349 1.0893 24.66 0.907778 24.9151 0.7792C25.8157 0.355649 26.9489 0.635495 27.6168 1.20275C28.2997 1.77757 28.6224 2.63224 28.8175 3.50203C28.9826 4.22055 29.0501 4.96933 28.9751 5.68029Z" fill="#111921"></path>
    <path d="M33.8147 5.67275C33.7846 5.7862 33.7471 5.89965 33.7021 6.0131C33.4019 6.81482 32.8616 7.76025 32.1337 7.73C31.4433 7.65436 30.7603 7.22325 30.5202 6.36858C30.19 5.27189 31.4583 4.49286 30.9254 3.51717C30.7678 3.23733 30.4677 3.05581 30.2275 2.84403C29.7472 2.39779 29.5071 1.6717 29.6947 1.02125C29.7472 0.832162 29.8373 0.65064 29.9799 0.506935C30.16 0.31785 30.4151 0.189272 30.6853 0.113637C31.6459 -0.204026 32.704 0.348103 33.2593 1.02881C33.8222 1.73221 33.9948 2.63225 34.0323 3.50961C34.0623 4.2357 34.0098 4.98448 33.8072 5.68787" fill="#111921"></path>
    <path d="M38.5654 6.57267C38.5129 6.67856 38.4603 6.78444 38.4003 6.88277C37.965 7.60886 37.2671 8.4257 36.5617 8.25175C35.8863 8.10048 35.3009 7.51053 35.2184 6.62561C35.0908 5.47597 36.4716 4.97679 36.1264 3.90278C36.0214 3.59268 35.7587 3.35822 35.5636 3.0935C35.1734 2.55649 35.0683 1.80015 35.361 1.18752C35.4435 1.00599 35.5636 0.854726 35.7287 0.733711C35.9388 0.582443 36.2165 0.506808 36.4866 0.491682C36.9819 0.453864 37.4772 0.574879 37.8975 0.816908C38.3102 1.08919 38.6479 1.4598 38.8656 1.86822C39.2933 2.67751 39.3008 3.60025 39.1808 4.47004C39.0832 5.19613 38.8881 5.91465 38.5654 6.5651" fill="#111921"></path>
    <path d="M43.0761 8.35017C43.0085 8.44093 42.9335 8.5317 42.8584 8.62246C42.2956 9.25778 41.4776 9.90824 40.8097 9.6057C40.1568 9.36367 39.7066 8.63002 39.7816 7.75266C39.8641 6.59546 41.305 6.39125 41.1549 5.25674C41.1099 4.93151 40.8923 4.6441 40.7497 4.34913C40.4645 3.74405 40.4945 2.97258 40.8923 2.43558C41.0123 2.27675 41.1549 2.14817 41.335 2.06497C41.5677 1.95909 41.8528 1.94396 42.123 1.97421C43.1136 2.09523 43.9616 2.8667 44.2092 3.77431C44.4794 4.65923 44.3218 5.56684 44.0441 6.39881C43.819 7.09465 43.4963 7.76779 43.0686 8.34261" fill="#111921"></path>
    <path d="M47.1954 10.952C47.1129 11.0276 47.0228 11.1033 46.9328 11.1789C46.2649 11.7008 45.3568 12.1546 44.7415 11.7688C44.1486 11.3982 43.8409 10.589 44.0661 9.73429C44.3512 8.60734 45.8071 8.69054 45.8671 7.54846C45.8746 7.21567 45.717 6.89045 45.6345 6.57278C45.4694 5.9072 45.627 5.18868 46.1223 4.71975C46.2649 4.5836 46.43 4.48528 46.6251 4.4399C46.8727 4.37939 47.1504 4.42477 47.4131 4.50797C48.3511 4.84076 49.064 5.71812 49.1466 6.67111C49.2516 7.59384 48.929 8.45607 48.5087 9.22754C48.1635 9.87043 47.7282 10.4679 47.2029 10.952" fill="#111921"></path>
    <path d="M50.775 14.2872C50.6775 14.3477 50.5799 14.4082 50.4749 14.4612C49.7169 14.8544 48.7713 15.1116 48.2085 14.6351C47.6982 14.1511 47.5406 13.2964 47.9158 12.4947C48.4036 11.4433 49.807 11.7988 50.0696 10.687C50.1372 10.3618 50.0471 10.0139 50.0171 9.68107C49.9646 9.00793 50.2422 8.33478 50.8201 7.96418C50.9852 7.85829 51.1728 7.78266 51.3754 7.76753C51.6305 7.75997 51.8932 7.85073 52.1333 7.98687C52.9889 8.49362 53.5217 9.50711 53.4466 10.4374C53.3866 11.3677 52.9138 12.1543 52.366 12.835C51.9082 13.3947 51.3754 13.909 50.775 14.2796" fill="#111921"></path>
    <path d="M53.7098 18.2353C53.6048 18.2731 53.4922 18.3109 53.3871 18.3487C52.5842 18.5908 51.5936 18.6739 51.1208 18.0991C50.708 17.5243 50.708 16.647 51.2258 15.936C51.8937 14.9906 53.1995 15.6183 53.6648 14.567C53.7924 14.2645 53.7624 13.8939 53.7924 13.5686C53.8374 12.9182 54.2501 12.2904 54.873 12.0408C55.0531 11.9652 55.2482 11.9349 55.4509 11.9501C55.721 11.9728 55.9537 12.124 56.1638 12.3056C56.9142 12.9636 57.2369 14.083 57.0268 14.9603C56.7942 15.8679 56.1938 16.5562 55.5259 17.1159C54.9781 17.5848 54.3627 17.9857 53.7023 18.2353" fill="#111921"></path>
    <path d="M55.8856 22.6674C55.773 22.6901 55.6604 22.7053 55.5479 22.7128C55.1426 22.7506 54.6773 22.7506 54.2871 22.6523C53.8819 22.5616 53.5217 22.38 53.3566 22.0472C53.0564 21.4044 53.229 20.5346 53.8519 19.9371C54.6773 19.1278 55.8555 19.99 56.4934 19.0446C56.6735 18.7647 56.7186 18.4017 56.7861 18.0916C56.9512 17.4563 57.469 16.9192 58.1219 16.7907C58.317 16.7529 58.5121 16.7529 58.7072 16.8134C58.9549 16.889 59.195 17.063 59.3601 17.2899C59.983 18.084 60.0731 19.2488 59.7279 20.0732C59.3526 20.9127 58.6172 21.48 57.8743 21.9111C57.2514 22.2666 56.5685 22.5464 55.8781 22.6674" fill="#111921"></path>
    <path d="M57.237 27.4399C57.1245 27.4399 57.0119 27.4399 56.8993 27.4247C56.1039 27.3415 55.0457 27.0693 54.8506 26.3507C54.678 25.6625 55.0232 24.8381 55.7136 24.3767C56.1789 24.0741 56.6817 24.1649 57.1695 24.2481C57.6423 24.3313 58.0851 24.4145 58.4903 23.9985C58.7304 23.7565 58.7905 23.4237 58.9256 23.1287C59.2032 22.5388 59.8111 22.1001 60.479 22.1001C60.6741 22.1001 60.8692 22.1379 61.0493 22.2362C61.282 22.3648 61.4771 22.5766 61.6272 22.8186C62.0924 23.7111 61.9574 24.8834 61.4621 25.6247C60.9818 26.3734 60.1413 26.7894 59.3308 27.0693C58.6479 27.3037 57.935 27.4474 57.237 27.4323" fill="#111921"></path>
    <path d="M57.7096 32.3939C57.5971 32.3712 57.4845 32.3485 57.3719 32.3107C56.5615 32.0762 55.5934 31.6149 55.5483 30.8661C55.5258 30.5106 55.6609 30.14 55.856 29.8299C56.0436 29.5198 56.3363 29.2475 56.7341 29.0887C57.7622 28.65 58.6402 29.8828 59.5407 29.2399C59.7959 29.0509 59.9385 28.7256 60.1261 28.4685C60.5088 27.939 61.1917 27.6289 61.8446 27.7575C62.0322 27.7953 62.2198 27.871 62.3774 27.9995C62.58 28.1659 62.7301 28.4155 62.8277 28.6878C63.1954 29.6484 62.7752 30.7753 62.1673 31.4106C61.5369 32.0535 60.6889 32.3107 59.8409 32.4317C59.1355 32.53 58.4076 32.5376 57.7096 32.3939Z" fill="#111921"></path>
    <path d="M29.3801 19.3472H29.4627C30.0105 19.3472 30.4758 19.8237 30.4758 20.3909V48.7537C30.4758 49.321 30.0105 49.7975 29.4627 49.7975C28.8698 49.7975 28.4046 49.321 28.4046 48.7537V21.4801H18.4536C17.8608 21.4801 17.3955 21.0036 17.3955 20.3909C17.3955 19.8237 17.8608 19.3472 18.4536 19.3472H29.3801Z" fill="#111921"></path>
    <path d="M44.5466 19.3472C45.1394 19.3472 45.6047 19.8237 45.6047 20.3909C45.6047 21.0036 45.1394 21.4801 44.5466 21.4801H34.5956V48.7613C34.5956 49.3286 34.1304 49.805 33.5375 49.805C32.9822 49.805 32.5244 49.3286 32.5244 48.7613V20.3909C32.5244 19.8237 32.9897 19.3472 33.5375 19.3472H44.5466Z" fill="#111921"></path>
    </g>
    <defs>
    <clipPath id="clip0_1842_32690">
    <rect width="63" height="65" fill="white"></rect>
    </clipPath>
    </defs>
</svg>