<svg class="logo-mobile" alt="Kings Camo" xmlns="http://www.w3.org/2000/svg" xmlns:xlink="http://www.w3.org/1999/xlink" width="55.415" height="61.203" viewBox="0 0 55.415 61.203">
      <defs>
        <clipPath id="clip-path">
          <rect id="Rectangle_114" data-name="Rectangle 114" width="35.549" height="32.666" fill="#bdc885"></rect>
        </clipPath>
      </defs>
      <path id="Path_501" data-name="Path 501" d="M0-108.688v50.272l27.726,10.93L55.415-58.393v-50.295Z" transform="translate(0 108.688)" fill="#415c58"></path>
      <g id="Group_743" data-name="Group 743" transform="translate(9.933 9.865)">
        <g id="Group_133" data-name="Group 133" clip-path="url(#clip-path)">
          <path id="Path_100" data-name="Path 100" d="M35.55,9.3A8.169,8.169,0,0,0,34.387,5.28c-.861-1.551-.93-1.275-.376.236a9.709,9.709,0,0,1,.581,2.906c.019,1.7-.874,2.761-3.013,4.232,2.481-5.427-.7-7.7-.2-11.337.253-1.823.178-1.689-.412.007a5.85,5.85,0,0,0,.018,3.654c1.23,4.537-.393,7.692-1.869,9.056-1.16-.588-1.28-2.363-1.312-3.654s-.21-.862-.349-.032a6.958,6.958,0,0,0,.519,4.185c-1.289.392-4.956-.545-5.5-.759.425-.5,2.225-1.693,3.358-2.983C27.252,9.18,28.1,7.968,28.274,6.3a5.4,5.4,0,0,0-.557-2.916c-.789-1.661-1.019-1.9-.4.192a5.424,5.424,0,0,1-.18,3.72c-.862,2.092-3.4,3.779-4.068,4.294-.593.456-1.572,1.16-1.917,1.068s-2.027-6.26.158-10.288c1.193-2.2.985-2.5-1.014.834-1.36,2.267-1.263,4.129-.867,8.006.061.6.83,3.034.3,3.2a1.2,1.2,0,0,1-.326.071,4.938,4.938,0,0,0-1.668-.205,4.554,4.554,0,0,0-1.6.205,1.2,1.2,0,0,1-.323-.071c-.528-.166.241-2.6.3-3.2.4-3.877.494-5.738-.867-8.006-2-3.331-2.206-3.032-1.014-.834,2.186,4.028.5,10.2.158,10.288s-1.324-.612-1.917-1.068c-.67-.516-3.206-2.2-4.068-4.294a5.422,5.422,0,0,1-.18-3.72c.623-2.094.393-1.853-.4-.192A5.4,5.4,0,0,0,7.277,6.3C7.452,7.968,8.3,9.18,9.711,10.791c1.132,1.29,2.933,2.488,3.358,2.983-.541.214-4.207,1.151-5.5.759a6.959,6.959,0,0,0,.519-4.185c-.14-.83-.318-1.259-.35.032S7.59,13.447,6.43,14.035c-1.476-1.363-3.1-4.519-1.87-9.056a5.851,5.851,0,0,0,.019-3.654c-.59-1.7-.665-1.831-.412-.007.506,3.641-2.676,5.91-.2,11.337C1.832,11.184.939,10.126.958,8.422A9.7,9.7,0,0,1,1.54,5.517c.554-1.511.485-1.787-.377-.236A8.169,8.169,0,0,0,0,9.3c0,1.962,3.048,4.678,5.352,5.994.863,1.367,2.082,3.149,3.658,3.475a4.8,4.8,0,0,0,.988.1c.692,0,1-.1.1-.275a3.54,3.54,0,0,1-2.162-1.325,6.973,6.973,0,0,1-.818-1.231c3.045.141,5.85-.62,7.094-.62a7.685,7.685,0,0,1,1.192.105c-.022.14-.124.443-.333.5a13.282,13.282,0,0,1-2.07.114,18.281,18.281,0,0,0-2.257.266A2.061,2.061,0,0,0,11.8,17.87c.655.3,1.519.253,3.048-.353.124-.048.329-.143.48-.2-.138.957-.393,2.428-.393,2.428l-3.111,4.82,10.006,8.1V23.858s-1.071-4.617-1.474-6.486c.124.051.256.11.346.145,1.53.606,2.394.652,3.048.353a2.062,2.062,0,0,0,1.06-1.461,18.281,18.281,0,0,0-2.257-.266,13.28,13.28,0,0,1-2.07-.114c-.209-.056-.312-.36-.333-.5a7.682,7.682,0,0,1,1.192-.105c1.244,0,4.049.761,7.094.62a7.011,7.011,0,0,1-.818,1.231A3.54,3.54,0,0,1,25.455,18.6c-.9.171-.6.276.1.275a4.8,4.8,0,0,0,.988-.1c1.575-.326,2.795-2.108,3.658-3.475,2.3-1.316,5.35-4.033,5.353-5.994M20.131,15.533h0Zm3.36,16.538a.6.6,0,1,1-.6-.587.59.59,0,0,1,.6.587m-1.057,0a.455.455,0,0,0,.458.469.45.45,0,0,0,.448-.465.453.453,0,1,0-.906,0m.362.308H22.66v-.587a1.2,1.2,0,0,1,.226-.018.366.366,0,0,1,.2.043.163.163,0,0,1,.057.129.15.15,0,0,1-.122.136v.007a.173.173,0,0,1,.108.143.442.442,0,0,0,.043.147h-.147a.5.5,0,0,1-.047-.143c-.011-.064-.047-.093-.122-.093H22.8Zm0-.333h.064c.075,0,.136-.025.136-.086s-.039-.09-.125-.09a.317.317,0,0,0-.075.007Z" transform="translate(-0.001 -0.001)" fill="#bdc885"></path>
        </g>
      </g>
    </svg>