<svg class="logo-svg" xmlns="http://www.w3.org/2000/svg" viewBox="0 0 280 20">
  <title>Brochu Walker</title>
  <path d="M51.94.16c7.29.26,11.09,7.24,8.29,13.79-3.22,7.55-14.61,8.06-18,.43-2.84-6.39,1.14-13.83,8.29-14.23h1.42ZM50.32,1.03c-9.29.65-8.48,16.19,0,17.71,3.91.7,7.05-1.52,8-5.27,1.45-5.67-1.16-12.91-8.01-12.43Z"></path>
  <path d="M0,.63c.1-.08.16-.11.29-.12.88-.08,1.8.07,2.68.08,1.18.01,2.37-.15,3.55-.08,4.46.24,5.83,4,3.01,7.34-.23.27-.66.62-.83.87-.02.03-.05.04-.04.1,2.58.77,4.65,3.1,4.29,5.91s-2.7,4.49-5.38,4.78c-1.39.15-2.79-.1-4.17-.11-.88,0-1.96.18-2.8.08-.2-.02-.27-.12-.19-.32.52-.1,1.15.02,1.42-.55s.32-1.8.34-2.46c.15-4.63-.08-9.37-.05-14-.13-.98-.59-1.18-1.51-1.28-.21-.02-.43.05-.61-.08v-.16ZM5.16,1.23c-.19.01-.9.08-.94.28v6.95c.06.18.59.21.77.22.68.04,2.29.1,2.83-.28,1.86-1.31,1.56-5.09-.07-6.48-.75-.64-1.63-.77-2.59-.7ZM4.28,9.41l-.07.13c.09,2.3-.11,4.67,0,6.97.02.33.07,1.07.23,1.34.53.9,2.69.99,3.6.82,3.95-.7,3.23-6.04.86-8.11-1.37-1.2-2.87-1.22-4.63-1.15Z"></path>
  <path d="M188.92.16c.3.36.45.85.62,1.29,1.78,4.42,3.37,8.93,5.15,13.35.68,1.69,1.28,4.09,3.4,4.32.14.02.52-.07.57.11.04.2-.17.23-.33.25-.94.09-2.13-.02-3.08-.04-.27,0-1.67.04-1.78-.11-.04-.36.4-.15.38-.65l-2.39-6.39-.14-.18-5.46-.02c-.19-.01-.27.1-.32.27-.46,1.57-1.15,3.13-1.6,4.7-.21.74-.6,1.92.51,2.07.17.02.7-.06.71.15-.02.17-.14.2-.28.21-.71.07-1.55-.09-2.29-.08-.92,0-1.88.17-2.8.08-.16-.01-.42-.14-.26-.3.08-.08.8-.07,1-.11,1.46-.27,1.87-1.92,2.32-3.12,1.83-4.84,3.49-9.75,5.33-14.58.16-.41.29-.85.54-1.21h.2ZM186.06,11.17h4.89s.07-.06.06-.1c-.76-2.09-1.44-4.21-2.21-6.3-.05-.14-.27-.88-.41-.84l-.18.33-2.21,6.81s.03.09.06.1Z"></path>
  <path d="M78.45.16c1.47.06,2.87.38,4.32.58.32.05.67.04.98.09.19.03.31.12.3.33-.01.46-.13,1.01-.16,1.49-.04.77.02,1.6-.04,2.36-.01.2-.03.7-.33.6-.17-.05-.09-.53-.11-.68-.19-1.91-1.1-2.74-2.86-3.33-2.52-.85-6.49-.72-8.64.99-1.99,1.57-2.62,4.07-2.67,6.51-.11,6.19,5.09,10.55,11.21,9.41,1.63-.3,2.57-1.02,3.05-2.62.06-.18.15-.78.22-.88.12-.17.32-.06.35.16.05.42-.2,1.67-.28,2.15-.07.4-.24,1.47-.52,1.72-.59.55-3.29.76-4.14.79-3.28.12-6.59-.45-9.09-2.7-4.39-3.94-3.96-11.85.9-15.23,1.63-1.14,3.73-1.64,5.69-1.74.57-.03,1.25-.02,1.81,0Z"></path>
  <path d="M150.61.87c-.18-.05-.12-.32.16-.35.99-.11,2.25.09,3.28.08.84,0,1.72-.16,2.56-.08.16.02.4.05.31.27-.06.14-.55.08-.7.09-.55.05-.89.29-.85.88.07.94.55,2.46.79,3.42.93,3.6,1.99,7.22,3.02,10.79.02.05-.03.11.06.09l5.69-15.17c.21-.39.38-.36.57.03l5.35,15.08.12.02c.1-.46.24-.92.38-1.37.92-2.98,1.88-5.95,2.75-8.94.27-.91,1.11-3.36,1-4.18-.05-.36-.35-.54-.69-.61-.2-.04-.9,0-.95-.15v-.14c.05-.1.15-.1.25-.11.93-.08,1.91.09,2.84.08.66,0,1.35-.14,2.01-.08.14.01.29.03.26.22-.03.2-.38.12-.53.14-1.46.21-1.77,1.66-2.2,2.88-1.71,4.77-3.05,9.73-4.8,14.49-.15.4-.32.99-.55,1.34-.53.84-.89-.63-1.06-1l-4.94-14.01c-.09.05-.11.18-.15.27-1.99,4.85-3.54,9.89-5.6,14.71-.61.96-.98-.73-1.12-1.18-1.69-5.25-3.09-10.6-4.77-15.85-.24-.88-.93-1.64-1.9-1.64-.14,0-.49.03-.59,0Z"></path>
  <path d="M105.8,8.46s.07-.06.08-.08c0-1.56.06-3.14.02-4.7,0-.09-.04-.18-.04-.27-.04-1.09.21-2.23-1.17-2.49-.27-.05-.66,0-.88-.07-.1-.03-.13-.13-.1-.22.08-.1.16-.11.28-.12.91-.08,1.86.08,2.76.08s1.93-.16,2.8-.08c.16.01.31.05.25.25-.05.16-.28.09-.41.11-.29.04-.67.09-.91.28-.57.44-.43,1.88-.45,2.54-.11,3.75-.08,7.57,0,11.32.02.96-.03,1.95.13,2.9s.47,1.07,1.35,1.17c.17.02.76.02.85.06.23.11,0,.32-.21.34-.99.09-2.01-.08-3-.08-.89,0-1.89.15-2.76.08-.24-.02-.42-.1-.22-.34.74-.08,1.23,0,1.47-.82.32-1.08.15-2.33.27-3.43-.11-1.69.14-3.56,0-5.23,0-.07,0-.14-.05-.21l-.21-.05-10.63.02-.08.16c.02,2.2-.04,4.41.04,6.61.03.66-.02,2.06.43,2.54.39.42,1.3.33,1.83.39.3.16.07.32-.19.35-1.07.09-2.27-.09-3.36-.08-.79,0-1.61.15-2.41.08-.18-.02-.44-.17-.23-.31.09-.06.74-.08.96-.15.42-.14.54-.6.62-.99.15-.76.1-1.54.18-2.3-.13-4.21.16-8.51,0-12.71-.02-.39-.04-1.08-.19-1.42-.23-.54-.83-.66-1.37-.72-.15-.02-.55.07-.6-.11-.06-.2.08-.23.25-.25.91-.08,1.85.08,2.76.08s1.93-.16,2.8-.08c.24.02.41.25.21.33-.13.05-.52.05-.7.08-.57.11-.81.36-.93.92-.06.3-.09.73-.1,1.04-.07,1.79.06,3.63,0,5.43l.06.14h10.81Z"></path>
  <path d="M19.69,19.16c.6-.14,1.15.04,1.44-.62.33-.73.22-1.69.32-2.47-.15-4.38.2-8.89,0-13.26-.02-.44-.05-1.13-.34-1.47-.27-.33-.82-.43-1.22-.47-.25-.03-.7.12-.59-.28.08-.06.18-.07.28-.08.75-.06,1.68.02,2.45.04,3.05.07,7.47-.77,9.25,2.41.57,1.02.66,2.04.45,3.18-.33,1.88-1.6,3.42-2.95,4.69,1.59,1.93,3.04,3.99,4.71,5.84,1.2,1.33,2.22,2.25,4.1,2.44.15.02.59-.05.67.08.13.22-.22.27-.35.28-.78.07-2.01.04-2.8,0-1.77-.1-2.6-.78-3.69-2.07-1.56-1.85-2.9-3.93-4.4-5.84-.06-.06-.12-.1-.2-.11-.32-.05-.8,0-1.14,0-.09,0-.18-.04-.27-.04-.62-.01-1.26,0-1.88.02-.06.08-.07.18-.08.28-.07.9.03,1.86.04,2.75.02.95-.1,3.31.32,4.09.3.54,1,.52,1.55.58.14.01.48-.06.53.11.05.18-.15.24-.29.25-.99.09-2.01-.08-3-.08-.85,0-1.91.18-2.72.08-.13-.02-.24-.06-.25-.21l.04-.09ZM25.04,1.31c-.4.06-.87.02-1.26.12-.19.05-.27.12-.31.32v8.28c.06.2.21.24.37.31.68.28,2.14.37,2.88.32,2.69-.18,3.21-3.24,2.93-5.4-.29-2.28-1.79-3.89-4.15-3.96h-.46Z"></path>
  <path d="M279.99,19.39s-.27.08-.33.09c-.79.07-2,.04-2.8,0-1.74-.09-2.56-.73-3.65-1.99-.94-1.09-1.83-2.36-2.7-3.52-.52-.7-1.08-1.62-1.64-2.26-.1-.11-.21-.25-.37-.26-1,.06-2.09-.14-3.08-.04-.13.01-.21.02-.22.18,0,1.54-.02,3.07.04,4.6.02.62-.01,1.94.35,2.44.41.56,1.32.42,1.94.51.1.02.13.12.09.21-.05.11-.2.12-.31.13-1.09.09-2.22-.09-3.32-.08-.41,0-.89.07-1.3.08-.2,0-1.23.04-1.3-.08-.04-.08-.03-.22.06-.26.38-.05.98-.03,1.24-.33.51-.59.43-2.76.45-3.56.09-3.83.12-7.81,0-11.64-.03-1.15.26-2.44-1.21-2.69-.19-.03-.91,0-.96-.15-.06-.18.16-.24.29-.25.73-.07,1.69.02,2.45.04,3.16.07,7.84-.82,9.45,2.77,1.14,2.54-.43,5.26-2.18,7.05-.1.1-.5.36-.46.49,1.58,1.97,3.08,4.07,4.78,5.94,1.19,1.3,2.18,2.14,4.02,2.32.15.01.58-.06.64.11.01.04.02.14,0,.17ZM266.73,1.31c-.18.06-.38.01-.56.03-.24.02-.91.06-.97.33v8.41c.07.27.81.41,1.06.45,2.6.46,4.5.03,5.05-2.81.58-3.03-.61-6.31-4.11-6.42h-.46Z"></path>
  <path d="M224.62,9.28c.1.1.52-.46.59-.53,1.67-1.7,3.37-3.38,5.01-5.11.38-.4,1.67-1.66,1.73-2.13.02-.18,0-.4-.13-.53s-.61-.18-.32-.43h4.86c.06.08.06.23-.02.28-.56.04-1.07.15-1.59.37-.87.38-1.55,1.03-2.23,1.67-1.15,1.08-2.27,2.2-3.39,3.3-.89.88-1.79,1.75-2.62,2.69,1.36,1.5,2.8,2.93,4.22,4.37,1.49,1.51,3.03,3.2,4.69,4.52.94.76,1.84,1.2,3.06,1.36.19.02.41-.06.55.12.09.17-.24.23-.36.24-.96.08-2.96.07-3.87-.15-1.53-.37-3.19-2.14-4.28-3.25-1.98-2.03-3.88-4.14-5.73-6.28-.05-.04-.2-.08-.18.02.03,1.77-.04,3.54,0,5.31,0,.09.04.18.04.27.02.77-.06,2.63.38,3.24.25.34.64.38,1.03.43.19.03.59.01.74.05.23.07.09.32-.19.35-1.01.09-2.2-.09-3.24-.08-.75,0-1.54.15-2.29.08-.21-.02-.42-.14-.21-.34.83-.07,1.29-.02,1.52-.92.21-.8.13-1.65.22-2.46-.14-4.28.19-8.68-.04-12.94-.07-1.26-.07-1.8-1.52-1.95-.15-.02-.55.07-.6-.11-.06-.2.08-.23.25-.25.98-.09,2.12.09,3.12.08.76,0,1.56-.15,2.33-.08.14.01.38.1.28.28-.05.08-.75.12-.93.18-.97.28-.79,1.41-.83,2.2,0,.09-.04.18-.04.27-.06,1.94.05,3.9,0,5.84Z"></path>
  <path d="M122.57.82c-.42.11-.95.04-1.31.32-.31.24-.36.72-.41,1.08.04,3.33-.19,6.79-.04,10.11.16,3.59,1.78,6.75,5.86,6.55s5.11-3.68,5.23-7.14c.09-2.69.09-5.72,0-8.42-.01-.47-.03-1.41-.23-1.82-.17-.34-.6-.52-.95-.58-.24-.05-.79-.02-.94-.08-.2-.08-.03-.31.21-.33.92-.09,1.98.09,2.92.08.69,0,1.4-.14,2.09-.08.1,0,.26.04.29.15.08.27-.34.19-.49.21-.41.06-.85.16-1.07.55-.23.41-.24,1.41-.26,1.91-.11,3.37.35,7.34-.25,10.6-.78,4.24-4.04,6.29-8.28,5.85-4.52-.46-6.18-3.55-6.34-7.76-.11-2.99.12-6.06,0-9.05-.02-.44-.04-1.21-.28-1.57-.26-.38-.85-.49-1.28-.54-.15-.02-.55.07-.6-.11-.06-.2.08-.23.25-.25.91-.08,1.85.08,2.76.08s2.06-.18,2.92-.08c.13.02.24.06.25.21l-.04.09Z"></path>
  <path d="M252.43,3.61c-.07-.07-.08-.6-.1-.75-.13-.8-.49-1.03-1.24-1.2-1.28-.28-2.78-.1-4.09-.17l-.1.02-.08.28v6.85c.02.2.05.28.26.3.47.05.96-.04,1.42-.04.74,0,1.52.04,2.25,0,.36-.02,1.02-.07,1.3-.28.17-.12.59-.77.61-.22.02.45-.2,1.29-.24,1.81-.03.42,0,.89-.04,1.3-.02.17-.04.45-.28.36-.1-.05-.1-.61-.13-.78-.23-1.24-1.24-1.11-2.26-1.21-.87.06-1.87-.14-2.73-.04-.16.02-.16.11-.18.26.09,2.11-.11,4.31,0,6.41.03.66.11,1.46.78,1.78.77.37,3.61.32,4.44.03.72-.25.97-.7,1.16-1.4.05-.19.1-.93.38-.83.17.2.09.58.06.84-.05.54-.14,1.22-.25,1.76-.12.57-.2.81-.83.86-2.04.16-4.34-.13-6.39-.16-.96-.01-2.08.17-3,.08-.23-.02-.37-.13-.18-.33.38-.05.98-.03,1.24-.33.52-.6.43-2.9.45-3.72.09-3.82.12-7.79,0-11.6-.05-1.45.24-2.43-1.56-2.62-.22-.02-.66.1-.59-.24.08-.1.16-.11.28-.12.51-.05,1.04.03,1.54.04,2.17.05,4.37.08,6.55,0,.53-.02,1.09.03,1.61-.09.15-.03.5-.26.54-.05.05.28-.16,1.03-.2,1.38-.03.3-.01.64-.04.94-.02.18-.05.84-.2.91-.05.03-.15,0-.19-.03Z"></path>
  <path d="M214.33,16.02c.19-.18.3.11.31.29,0,.57-.24,2.21-.44,2.74-.17.45-.51.47-.96.5-2.49.16-5.12-.21-7.62-.16-.75.01-1.58.17-2.33.08-.2-.02-.36-.17-.18-.34.58-.08,1.15.02,1.41-.6.36-.84.21-1.97.33-2.86-.13-4.2.16-8.48,0-12.67-.02-.39-.04-1.08-.19-1.42-.23-.54-.83-.67-1.37-.72-.15-.02-.55.07-.6-.11-.06-.2.09-.24.25-.25,1.01-.09,2.17.09,3.2.08.85,0,1.75-.16,2.6-.08.14.01.38.1.28.28-.06.1-.72.1-.9.13-1.12.18-1.1,1.01-1.14,1.97-.16,3.93.12,7.98,0,11.92.07.61.05,1.23.12,1.84.1.79.17,1.42,1.02,1.69.94.31,3.55.32,4.5.05.78-.22,1.18-.73,1.44-1.47.06-.17.2-.85.26-.9Z"></path>
</svg>