<svg class="icon icon-logo" width="200" height="72" viewBox="0 0 200 72" fill="none" xmlns="http://www.w3.org/2000/svg">
  <path d="M34.3123 20.0611L34.9367 29.1577H34.3123C33.4799 26.4367 32.2928 24.4769 30.7512 23.2785C29.1635 22.0625 27.2074 21.428 25.209 21.4807C23.4778 21.4575 21.7754 21.9257 20.299 22.8309C18.7278 23.8723 17.5227 25.3808 16.8534 27.1439C15.9476 29.4915 15.5204 31.9969 15.597 34.5123C15.5413 36.679 15.9459 38.8329 16.7841 40.8313C17.5142 42.5279 18.7604 43.9508 20.3452 44.8974C21.9921 45.861 23.8722 46.3522 25.7794 46.3171C27.4105 46.3505 29.0232 45.9682 30.466 45.2061C32.2416 44.0489 33.7607 42.5389 34.929 40.7696L35.5456 41.1631C34.4229 43.2852 32.7781 45.0857 30.7666 46.3943C28.7994 47.5405 26.5518 48.115 24.2764 48.0531C19.7594 48.0531 16.2599 46.4097 13.7779 43.1229C11.9142 40.6308 10.9374 37.586 11.003 34.4737C10.9795 31.9015 11.6108 29.3657 12.8375 27.1054C13.9946 24.9335 15.7389 23.1314 17.8709 21.9051C20 20.6749 22.4194 20.0382 24.8776 20.0611C26.9039 20.0745 28.8991 20.5605 30.7049 21.4807C31.0735 21.7025 31.4821 21.8494 31.9074 21.9128C32.0832 21.9172 32.2582 21.8868 32.4223 21.8232C32.5863 21.7596 32.7362 21.6642 32.8632 21.5425C33.2481 21.1297 33.5145 20.6206 33.634 20.0688L34.3123 20.0611Z" fill="currentColor"></path>
  <path d="M42.2209 32.838V36.0323C43.4233 33.9028 44.6618 32.838 45.9362 32.838C46.4639 32.8209 46.9777 33.0089 47.3699 33.3627C47.5477 33.5071 47.6912 33.6894 47.7899 33.8962C47.8885 34.1031 47.9399 34.3294 47.9403 34.5586C47.9429 34.7481 47.9081 34.9363 47.838 35.1124C47.7679 35.2884 47.6638 35.449 47.5318 35.5848C47.4059 35.7177 47.254 35.8233 47.0856 35.895C46.9172 35.9667 46.7358 36.0029 46.5528 36.0014C46.0927 35.9654 45.6582 35.7751 45.3195 35.4613C45.0362 35.1929 44.684 35.0086 44.3021 34.9289C44.0653 34.9514 43.8454 35.0615 43.6854 35.2376C43.0797 35.8442 42.5842 36.5517 42.2209 37.3285V44.1259C42.1901 44.7341 42.29 45.3419 42.5138 45.9082C42.6786 46.213 42.9347 46.4586 43.246 46.6103C43.7153 46.8207 44.228 46.9159 44.7414 46.8881V47.4436H37.3493V46.8881C37.9147 46.925 38.4795 46.8077 38.9834 46.5486C39.2548 46.3662 39.4517 46.0924 39.5384 45.777C39.613 45.2818 39.6389 44.7805 39.6155 44.2802V38.7559C39.6469 37.7723 39.6134 36.7877 39.5153 35.8085C39.4741 35.5401 39.3405 35.2944 39.1376 35.1141C38.939 34.9684 38.6978 34.8925 38.4516 34.8981C38.0733 34.9089 37.7 34.9873 37.3493 35.1295L37.1875 34.574L41.558 32.838H42.2209Z" fill="currentColor"></path>
  <path d="M53.7291 32.838V44.2416C53.69 44.8373 53.7552 45.4353 53.9218 46.0085C54.0365 46.2896 54.243 46.5235 54.5076 46.672C54.956 46.8479 55.4378 46.9217 55.9182 46.8881V47.4436H48.9038V46.8881C49.3855 46.9237 49.8692 46.8553 50.3221 46.6874C50.5807 46.5303 50.7831 46.2954 50.9002 46.0162C51.0755 45.442 51.146 44.8408 51.1083 44.2416V38.7713C51.1389 37.7739 51.0925 36.7756 50.9696 35.7854C50.929 35.5234 50.8077 35.2806 50.6227 35.091C50.4343 34.9564 50.2065 34.8885 49.9752 34.8981C49.6074 34.913 49.245 34.9913 48.9038 35.1295L48.6803 34.574L53.0354 32.838H53.7291ZM52.4187 25.4002C52.6273 25.3959 52.8346 25.4341 53.028 25.5123C53.2215 25.5906 53.397 25.7073 53.5441 25.8554C53.6933 25.9994 53.812 26.172 53.893 26.3629C53.9741 26.5538 54.0159 26.7591 54.0159 26.9665C54.0159 27.1739 53.9741 27.3792 53.893 27.5701C53.812 27.761 53.6933 27.9336 53.5441 28.0775C53.3977 28.2271 53.2224 28.3452 53.029 28.4248C52.8355 28.5044 52.6278 28.5438 52.4187 28.5405C52.2083 28.5448 51.9992 28.506 51.8043 28.4264C51.6094 28.3467 51.4329 28.228 51.2856 28.0775C51.1353 27.9341 51.0155 27.7618 50.9334 27.5708C50.8512 27.3799 50.8085 27.1744 50.8077 26.9665C50.8038 26.7586 50.8437 26.5523 50.9247 26.3609C51.0057 26.1695 51.126 25.9972 51.2779 25.8554C51.4267 25.7054 51.6048 25.5875 51.8011 25.5092C51.9973 25.4309 52.2075 25.3938 52.4187 25.4002Z" fill="currentColor"></path>
  <path d="M67.0487 32.838V37.6757H66.5246C66.3142 36.5212 65.7795 35.4506 64.9829 34.5895C64.3166 34.0273 63.4641 33.7355 62.5934 33.7716C61.9504 33.7399 61.3178 33.9428 60.8128 34.3426C60.6101 34.4887 60.4435 34.6795 60.3259 34.9002C60.2083 35.1209 60.1428 35.3656 60.1345 35.6156C60.1209 36.1545 60.3015 36.6804 60.6433 37.097C61.1991 37.6843 61.8747 38.1448 62.6242 38.4472L64.9367 39.5428C67.0718 40.569 68.1356 41.9115 68.1356 43.5858C68.1467 44.1809 68.0178 44.7704 67.7594 45.3065C67.501 45.8426 67.1202 46.3104 66.6479 46.672C65.7058 47.441 64.5259 47.8583 63.3103 47.8525C62.2847 47.8308 61.2663 47.6752 60.281 47.3896C60.0067 47.2995 59.7214 47.2476 59.4331 47.2353C59.3092 47.2388 59.189 47.2787 59.0876 47.35C58.9862 47.4214 58.908 47.521 58.8627 47.6365H58.3462V42.5982H58.8858C59.0798 43.8406 59.6723 44.9862 60.5739 45.8619C61.3213 46.5753 62.3085 46.9827 63.3411 47.0038C63.9903 47.0313 64.6252 46.8075 65.114 46.3788C65.3352 46.1884 65.5114 45.9512 65.6301 45.6844C65.7487 45.4175 65.8067 45.1277 65.8 44.8357C65.8063 44.4985 65.7409 44.1637 65.608 43.8538C65.4751 43.5438 65.2778 43.2657 65.0292 43.038C64.0901 42.2857 63.0528 41.6653 61.9459 41.194C60.8229 40.7327 59.8053 40.0476 58.9552 39.1802C58.4818 38.5452 58.2446 37.7648 58.2846 36.9736C58.2726 36.4281 58.3748 35.8861 58.5845 35.3825C58.7943 34.8789 59.107 34.4248 59.5025 34.0494C59.9248 33.6528 60.4217 33.3443 60.9643 33.1416C61.5068 32.939 62.0842 32.8463 62.6628 32.8689C63.3642 32.8933 64.0592 33.0126 64.7286 33.2238C65.0752 33.3449 65.4348 33.4251 65.8 33.463C65.9392 33.4703 66.0771 33.4324 66.1931 33.355C66.3353 33.217 66.448 33.0517 66.5246 32.8689L67.0487 32.838Z" fill="currentColor"></path>
  <path d="M74.4716 28.5945V33.2238H77.8478V34.304H74.4716V43.5395C74.4063 44.1861 74.5466 44.8368 74.8724 45.3989C74.9961 45.553 75.1536 45.6764 75.3328 45.7594C75.512 45.8424 75.708 45.8827 75.9053 45.8773C76.2661 45.8762 76.6181 45.766 76.9151 45.561C77.2603 45.3348 77.5291 45.0094 77.6859 44.6274H78.3026C78.0241 45.5324 77.4884 46.3367 76.7609 46.9421C76.1715 47.4225 75.4396 47.6938 74.6797 47.7136C74.1806 47.7096 73.6914 47.5739 73.2615 47.3201C72.8038 47.0659 72.4433 46.6671 72.2363 46.1859C71.9747 45.4598 71.862 44.6883 71.9048 43.9176V34.3426H69.5924V33.8333C70.2462 33.554 70.8462 33.1623 71.3653 32.676C71.994 32.1137 72.5391 31.4641 72.984 30.7471C73.3695 30.0536 73.7068 29.3343 73.9937 28.5945H74.4716Z" fill="currentColor"></path>
  <path d="M84.2301 32.838V44.2416C84.1924 44.8378 84.2602 45.4359 84.4305 46.0085C84.5452 46.2896 84.7517 46.5235 85.0163 46.672C85.4647 46.8479 85.9465 46.9217 86.4269 46.8881V47.4436H79.4048V46.8881C79.8865 46.9245 80.3704 46.856 80.8231 46.6874C81.0854 46.5347 81.2889 46.2984 81.4012 46.0162C81.5841 45.4435 81.6573 44.8415 81.6171 44.2416V38.7713C81.6507 37.7736 81.6017 36.7749 81.4706 35.7854C81.4365 35.5214 81.3143 35.2767 81.1237 35.091C80.9388 34.9553 80.713 34.8872 80.484 34.8981C80.1137 34.9128 79.7486 34.9911 79.4048 35.1295L79.189 34.574L83.5518 32.838H84.2301ZM82.9274 25.4002C83.136 25.3959 83.3433 25.4341 83.5368 25.5123C83.7302 25.5906 83.9058 25.7073 84.0528 25.8554C84.202 25.9994 84.3207 26.172 84.4018 26.3629C84.4828 26.5538 84.5246 26.7591 84.5246 26.9665C84.5246 27.1739 84.4828 27.3792 84.4018 27.5701C84.3207 27.761 84.202 27.9336 84.0528 28.0775C83.9064 28.2271 83.7312 28.3452 83.5377 28.4248C83.3442 28.5044 83.1366 28.5438 82.9274 28.5405C82.7157 28.5459 82.5051 28.5076 82.3089 28.4279C82.1126 28.3483 81.9348 28.229 81.7866 28.0775C81.6374 27.9336 81.5188 27.761 81.4377 27.5701C81.3566 27.3792 81.3149 27.1739 81.3149 26.9665C81.3149 26.7591 81.3566 26.5538 81.4377 26.3629C81.5188 26.172 81.6374 25.9994 81.7866 25.8554C81.9371 25.7076 82.1154 25.5911 82.3113 25.513C82.5071 25.4348 82.7166 25.3965 82.9274 25.4002Z" fill="currentColor"></path>
  <path d="M92.4315 35.8471C94.1196 33.841 95.7383 32.838 97.2722 32.838C97.9948 32.8179 98.7059 33.0228 99.3072 33.4244C99.9427 33.9049 100.414 34.5706 100.656 35.3301C100.928 36.2561 101.045 37.2207 101.003 38.1849V44.2416C100.964 44.8572 101.04 45.4747 101.227 46.0625C101.34 46.3232 101.539 46.5379 101.789 46.672C102.243 46.8484 102.73 46.9222 103.215 46.8881V47.4436H96.0698V46.8881H96.3704C96.8601 46.9316 97.3516 46.8268 97.781 46.5871C98.0646 46.3614 98.2631 46.0458 98.3437 45.6921C98.4016 45.211 98.4222 44.726 98.4053 44.2416V38.4318C98.4714 37.4679 98.2965 36.5027 97.8966 35.6233C97.7188 35.3307 97.4631 35.0934 97.1581 34.938C96.8532 34.7827 96.511 34.7154 96.17 34.7438C94.9136 34.7438 93.6726 35.415 92.4315 36.7575V44.2416C92.3865 44.8385 92.4439 45.4387 92.6011 46.0162C92.7295 46.2959 92.9425 46.528 93.2101 46.6797C93.7045 46.8533 94.229 46.9242 94.7517 46.8881V47.4436H87.6371V46.8881H87.9531C88.2268 46.9229 88.5049 46.8914 88.7638 46.796C89.0227 46.7007 89.255 46.5444 89.4408 46.3402C89.7603 45.6897 89.8937 44.9634 89.8262 44.2416V38.9719C89.8572 37.9417 89.8186 36.9106 89.7106 35.8857C89.6757 35.5962 89.5487 35.3257 89.3483 35.1141C89.1599 34.9729 88.9282 34.9019 88.6931 34.9135C88.3302 34.9278 87.9727 35.0062 87.6371 35.145L87.3981 34.5895L91.7532 32.8535H92.4315V35.8471Z" fill="currentColor"></path>
  <path d="M112.55 45.3989C111.666 46.1134 110.733 46.7656 109.759 47.351C109.187 47.6078 108.567 47.7393 107.94 47.7368C107.482 47.7512 107.026 47.6695 106.601 47.4967C106.176 47.3239 105.792 47.0641 105.474 46.7337C105.145 46.3773 104.891 45.9592 104.726 45.5035C104.56 45.0479 104.487 44.5638 104.51 44.0796C104.493 43.4502 104.656 42.829 104.98 42.2896C105.556 41.4558 106.326 40.7751 107.223 40.3067C108.933 39.407 110.715 38.6509 112.55 38.046V37.4828C112.55 36.0708 112.318 35.0987 111.864 34.574C111.608 34.3067 111.296 34.099 110.951 33.9656C110.606 33.8323 110.236 33.7766 109.867 33.8025C109.307 33.7845 108.759 33.9709 108.326 34.3271C108.144 34.4731 107.997 34.6573 107.894 34.8666C107.792 35.076 107.736 35.3053 107.732 35.5385V36.4335C107.755 36.8329 107.623 37.2257 107.362 37.5291C107.237 37.66 107.086 37.7627 106.919 37.8306C106.751 37.8984 106.571 37.9298 106.391 37.9226C106.211 37.9282 106.033 37.8945 105.868 37.8238C105.703 37.7532 105.555 37.6473 105.435 37.5137C105.175 37.2103 105.042 36.8174 105.065 36.418C105.091 35.9306 105.23 35.4559 105.471 35.0314C105.712 34.6069 106.048 34.2443 106.453 33.9722C107.583 33.1617 108.958 32.7665 110.345 32.8535C111.432 32.8123 112.513 33.0319 113.498 33.4938C114.12 33.811 114.608 34.3425 114.87 34.9907C115.119 35.8862 115.216 36.8174 115.155 37.7451V42.5596C115.133 43.3886 115.159 44.2181 115.232 45.044C115.249 45.2708 115.341 45.4854 115.494 45.6536C115.609 45.7556 115.757 45.8107 115.91 45.8079C116.064 45.8167 116.217 45.779 116.35 45.6999C116.809 45.3637 117.238 44.9867 117.629 44.5734V45.4375C116.45 46.9806 115.317 47.7522 114.253 47.7522C114.023 47.7621 113.793 47.7201 113.581 47.6293C113.369 47.5385 113.18 47.4012 113.028 47.2275C112.66 46.6927 112.491 46.0457 112.55 45.3989ZM112.55 44.3959V38.995C111.498 39.3762 110.469 39.8167 109.466 40.3144C108.777 40.652 108.169 41.1365 107.686 41.7341C107.335 42.2041 107.146 42.7753 107.146 43.362C107.123 44.0441 107.367 44.7083 107.825 45.2138C108.011 45.4463 108.245 45.6357 108.511 45.7689C108.777 45.9021 109.069 45.9759 109.366 45.9853C110.178 45.9545 111.239 45.4247 112.55 44.3959Z" fill="currentColor"></path>
  <path d="M140.815 20.0611C142.538 20.0497 144.245 20.3956 145.827 21.0768C147.41 21.758 148.834 22.7598 150.011 24.0191C151.285 25.3209 152.282 26.8666 152.945 28.5636C153.607 30.2606 153.92 32.074 153.865 33.8951C153.926 35.7604 153.611 37.6188 152.938 39.3594C152.265 41.1 151.249 42.687 149.95 44.0256C148.72 45.2914 147.251 46.2994 145.628 46.9908C144.005 47.6822 142.261 48.0431 140.497 48.0524C138.734 48.0618 136.986 47.7194 135.355 47.0452C133.725 46.371 132.246 45.3786 131.003 44.1259C128.434 41.5129 127.149 38.1232 127.149 33.9568C127.086 32.0042 127.449 30.0614 128.213 28.2638C128.977 26.4661 130.124 24.857 131.573 23.5485C134.087 21.233 137.4 19.983 140.815 20.0611ZM140.43 21.4962C139.313 21.4586 138.202 21.6801 137.185 22.1431C136.167 22.6062 135.27 23.2984 134.564 24.1657C132.719 26.3724 131.799 29.6129 131.805 33.8873C131.805 38.2543 132.758 41.6183 134.664 43.9793C135.353 44.8484 136.235 45.5439 137.24 46.0102C138.245 46.4765 139.346 46.7005 140.453 46.6643C141.659 46.6836 142.854 46.4275 143.947 45.9155C145.039 45.4034 146.001 44.6489 146.758 43.7092C148.434 41.7495 149.269 38.6633 149.264 34.4506C149.264 29.8675 148.346 26.4495 146.512 24.1966C145.774 23.308 144.842 22.602 143.787 22.1336C142.732 21.6652 141.583 21.447 140.43 21.4962Z" fill="currentColor"></path>
  <path d="M160.718 32.838V36.0323C161.925 33.9028 163.166 32.838 164.441 32.838C164.968 32.8209 165.482 33.0089 165.874 33.3627C166.052 33.5071 166.196 33.6894 166.294 33.8962C166.393 34.1031 166.445 34.3294 166.445 34.5586C166.448 34.7489 166.413 34.9379 166.341 35.1142C166.27 35.2906 166.164 35.4506 166.029 35.5848C165.905 35.7183 165.754 35.8243 165.587 35.8961C165.42 35.9678 165.239 36.0037 165.057 36.0014C164.595 35.9654 164.158 35.7752 163.816 35.4613C163.535 35.1901 163.182 35.0054 162.799 34.9289C162.563 34.9549 162.344 35.0644 162.182 35.2376C161.581 35.8483 161.087 36.5549 160.718 37.3285V44.1259C160.685 44.7349 160.788 45.3437 161.018 45.9082C161.18 46.2125 161.434 46.4581 161.743 46.6103C162.212 46.8201 162.725 46.9153 163.238 46.8881V47.4436H155.846V46.8881C156.414 46.9257 156.982 46.8083 157.488 46.5486C157.759 46.3662 157.956 46.0924 158.043 45.777C158.113 45.2814 158.139 44.7804 158.12 44.2802V38.7559C158.151 37.7721 158.115 36.7874 158.012 35.8085C157.974 35.539 157.84 35.2923 157.635 35.1141C157.436 34.9674 157.195 34.8913 156.949 34.8981C156.57 34.9089 156.197 34.9873 155.846 35.1295L155.692 34.574L160.055 32.838H160.718Z" fill="currentColor"></path>
  <path d="M172.195 32.838V44.2416C172.157 44.8378 172.225 45.4359 172.396 46.0085C172.51 46.2875 172.713 46.5208 172.974 46.672C173.425 46.847 173.909 46.9208 174.392 46.8881V47.4436H167.37V46.8881C167.852 46.9245 168.335 46.856 168.788 46.6874C169.05 46.5347 169.254 46.2984 169.366 46.0162C169.549 45.4435 169.622 44.8415 169.582 44.2416V38.7713C169.616 37.7736 169.567 36.7749 169.436 35.7854C169.402 35.5214 169.279 35.2767 169.089 35.091C168.901 34.9542 168.673 34.8861 168.441 34.8981C168.074 34.9137 167.711 34.992 167.37 35.1295L167.154 34.574L171.501 32.838H172.195ZM170.916 25.4002C171.125 25.3949 171.334 25.4325 171.529 25.5108C171.724 25.589 171.901 25.7063 172.049 25.8554C172.198 25.9994 172.317 26.172 172.398 26.3629C172.479 26.5538 172.52 26.7591 172.52 26.9665C172.52 27.1739 172.479 27.3792 172.398 27.5701C172.317 27.761 172.198 27.9336 172.049 28.0775C171.746 28.3744 171.339 28.5407 170.916 28.5407C170.492 28.5407 170.085 28.3744 169.783 28.0775C169.633 27.9336 169.515 27.761 169.434 27.5701C169.353 27.3792 169.311 27.1739 169.311 26.9665C169.311 26.7591 169.353 26.5538 169.434 26.3629C169.515 26.172 169.633 25.9994 169.783 25.8554C169.932 25.7081 170.109 25.592 170.303 25.5139C170.498 25.4357 170.706 25.3971 170.916 25.4002Z" fill="currentColor"></path>
  <path d="M184.397 45.3989C183.515 46.1152 182.582 46.7675 181.607 47.351C181.038 47.6078 180.42 47.7394 179.795 47.7368C179.337 47.7522 178.88 47.6709 178.455 47.4981C178.03 47.3252 177.647 47.0648 177.329 46.7337C176.999 46.3777 176.744 45.9598 176.577 45.5042C176.41 45.0485 176.336 44.5643 176.358 44.0796C176.344 43.4506 176.507 42.8305 176.828 42.2896C177.404 41.4533 178.177 40.7722 179.078 40.3067C180.785 39.4052 182.564 38.649 184.397 38.046V37.4828C184.397 36.0708 184.166 35.0987 183.711 34.574C183.457 34.306 183.147 34.0977 182.803 33.9643C182.46 33.8309 182.09 33.7756 181.722 33.8025C181.149 33.7749 180.586 33.9619 180.142 34.3271C179.957 34.4701 179.806 34.6535 179.702 34.8633C179.598 35.0732 179.543 35.3041 179.541 35.5385V36.4335C179.564 36.8329 179.432 37.2257 179.171 37.5291C179.046 37.66 178.895 37.7627 178.728 37.8306C178.56 37.8984 178.38 37.9298 178.2 37.9226C178.022 37.927 177.845 37.8928 177.681 37.8222C177.517 37.7516 177.371 37.6463 177.252 37.5137C176.991 37.2103 176.858 36.8174 176.882 36.418C176.908 35.9306 177.047 35.4559 177.287 35.0314C177.528 34.6069 177.864 34.2443 178.269 33.9722C179.412 33.1441 180.808 32.7428 182.216 32.838C183.302 32.7978 184.383 33.0173 185.368 33.4784C185.989 33.7978 186.476 34.3286 186.74 34.9752C186.983 35.8641 187.079 36.7866 187.026 37.7065V42.521C187.003 43.35 187.029 44.1795 187.103 45.0055C187.12 45.2322 187.212 45.4468 187.365 45.615C187.478 45.7191 187.627 45.7745 187.781 45.7693C187.935 45.7781 188.088 45.7405 188.22 45.6613C188.68 45.3251 189.108 44.9481 189.5 44.5348V45.3989C188.318 46.9421 187.193 47.7136 186.124 47.7136C185.892 47.7247 185.661 47.6833 185.447 47.5924C185.234 47.5016 185.043 47.3637 184.89 47.189C184.532 46.6635 184.359 46.0338 184.397 45.3989ZM184.397 44.3959V38.995C183.345 39.3762 182.316 39.8167 181.314 40.3144C180.626 40.6555 180.019 41.1395 179.533 41.7341C179.188 42.2064 179.001 42.7766 179.001 43.362C178.978 44.0441 179.222 44.7083 179.68 45.2138C179.865 45.4471 180.099 45.637 180.365 45.7703C180.632 45.9036 180.924 45.977 181.221 45.9853C182.038 45.9545 183.097 45.4247 184.397 44.3959Z" fill="currentColor"></path>
  <path d="M200 64H0V72H200V64Z" fill="currentColor"></path>
  <path d="M200 0H0V8H200V0Z" fill="currentColor"></path>
</svg>