<svg class="bartesian-white-logo" id="Layer_2" data-name="Layer 2" xmlns="http://www.w3.org/2000/svg" viewBox="0 0 300.1 85.83">
    <defs>
      <style>
        .cls-1 {
          fill: none;
        }

        .cls-2 {
          fill: #fff;
        }
      </style>
    </defs>
    <g id="Layer_1-2" data-name="Layer 1">
      <g>
        <path class="cls-2" d="M290.42,65.02H0V0h290.42v65.02ZM145.17,61.2h140.06c1.45,0,1.31.15,1.31-1.34V4.96q0-1.24-1.27-1.24H5.15q-1.28,0-1.28,1.24v54.97c0,.21.01.43,0,.64-.03.43.15.65.6.62.29-.02.59,0,.88,0h139.82Z"></path>
        <path class="cls-2" d="M267.18,41.12c.01-.25.04-.5.04-.76,0-5.22.01-10.44-.02-15.66,0-1.11-.13-2.23-.29-3.34-.23-1.6-1.11-2.67-2.73-3.04-.78-.18-1.55-.39-2.33-.56-.73-.16-.39-.72-.4-1.1,0-.16.33-.47.51-.47,4.15-.02,8.31,0,12.46,0,.05,0,.1.03.15.05.35,1.19.25,1.36-.88,1.63-.1.02-.21.03-.31.06-2.96.6-3.59,1.25-3.89,4.26-.12,1.19-.13,2.39-.14,3.59-.01,7.51,0,15.02,0,22.53v1c-1.39.4-1.82.28-2.58-.74-4.5-6.07-8.99-12.15-13.49-18.22-1.82-2.46-3.65-4.92-5.48-7.37-.1-.14-.25-.24-.48-.44-.04.32-.09.52-.09.72,0,5.83-.03,11.66.05,17.5.02,1.34.33,2.68.6,4,.22,1.09.98,1.75,2.01,2.08.89.28,1.79.53,2.7.72.74.15.52.68.54,1.12.02.54-.37.48-.72.48-8.15,0-16.3,0-24.45,0-.41,0-.75-.02-.71-.58.03-.47-.1-.97.66-1.01.72-.04,1.43-.18,2.12-.35,1.46-.34,1.69-.8,1.2-2.23-.25-.73-.53-1.45-.8-2.17-.57-1.52-1.11-3.05-1.72-4.55-.1-.26-.52-.55-.8-.55-3.51-.04-7.03-.03-10.54,0-.26,0-.67.27-.75.51-.73,2.11-1.46,4.22-2.07,6.37-.38,1.33.05,2,1.38,2.42.83.26,1.7.46,2.57.54.7.07.71.44.73.97.01.57-.28.64-.75.64-8.44,0-16.88,0-25.33,0-.18,0-.36-.03-.59-.06-.02-.3-.02-.56-.05-.81-.05-.47.15-.67.63-.7.69-.03,1.38-.11,2.07-.19,1.48-.18,2.26-1.01,2.26-2.49.01-8.04,0-16.08.01-24.13,0-1.16-.49-1.96-1.6-2.29-.94-.28-1.89-.54-2.86-.71-.75-.13-.44-.66-.5-1.04-.07-.49.23-.57.63-.57,4.47,0,8.95,0,13.42,0,.52,0,.71.18.7.7-.01.49,0,.86-.68.91-.82.05-1.64.21-2.44.4-1.2.27-1.75.95-1.86,2.18-.03.26-.02.53-.02.8v22.93c0,2,.57,2.72,2.5,3.21,3.64.91,6.18-.31,7.56-3.77,2.75-6.92,5.44-13.87,8.15-20.8.83-2.13,1.69-4.25,2.48-6.4.25-.69.72-.57,1.21-.59.48-.02.83.04,1.04.6,2.74,7.15,5.51,14.3,8.27,21.45.89,2.28,1.74,4.57,2.68,6.84,1.23,2.96,5.05,3.91,7.47,1.81.59-.51,1-1.39,1.18-2.17.25-1.08.28-2.22.28-3.33.03-5.73.02-11.45.02-17.18,0-3.04-1.22-4.68-4.12-5.6-.4-.13-.81-.29-1.23-.33-.53-.06-.62-.35-.63-.81-.03-.61.17-.84.82-.83,2.61.03,5.22.03,7.83,0,.54,0,.86.18,1.18.62,3.88,5.3,7.8,10.58,11.7,15.87,1.94,2.63,3.87,5.28,5.82,7.91.16.21.33.4.5.61.07-.02.13-.03.2-.05M227.72,35.7c-1.7-4.34-3.34-8.53-4.97-12.72-.09.01-.19.02-.28.03-1.61,4.19-3.22,8.38-4.88,12.69h10.13Z"></path>
        <path class="cls-2" d="M84.41,34.17v4.38c0,2.08,0,4.16,0,6.23,0,1.69.59,2.35,2.27,2.61.5.08,1,.19,1.5.18.72,0,.8.37.8.96,0,.67-.41.62-.85.62-7.86,0-15.71,0-23.57,0h-1.8c-.33-1.35-.26-1.43.94-1.6.68-.1,1.37-.23,2.03-.42,1.13-.32,1.36-.78.95-1.91-.62-1.73-1.26-3.45-1.9-5.17-.15-.4-.35-.79-.44-1.2-.19-.9-.65-1.21-1.61-1.19-3.25.07-6.5.03-9.75.02-.44,0-.85,0-1.02.53-.68,2.15-1.44,4.29-2.05,6.46-.36,1.28.06,1.9,1.31,2.32.73.24,1.49.41,2.25.54,1.26.22,1.27.2,1,1.57h-12.08c-.3-1.3-.26-1.43.93-1.64,2.13-.37,3.49-1.65,4.25-3.58,2.58-6.51,5.11-13.03,7.66-19.54,1.03-2.63,2.08-5.24,3.05-7.89.28-.76.77-.71,1.37-.74.6-.03.82.26,1.01.77,3.03,7.87,6.08,15.74,9.12,23.61.61,1.59,1.18,3.19,1.87,4.75,1.19,2.69,4.37,3.24,6.6,2.24.48-.21.87-.84,1.11-1.36.2-.46.17-1.04.17-1.57,0-7.62,0-15.24,0-22.85,0-.19,0-.37,0-.56-.05-1.69-.54-2.29-2.17-2.66-.57-.13-1.14-.26-1.72-.32-.76-.07-.48-.61-.53-1.01-.05-.46.19-.59.62-.59,5.49.03,10.97-.06,16.46.13,2.7.09,5.27.99,7.04,3.24,2.69,3.42,1.62,9.13-2.15,11.34-1.23.72-2.59,1.2-3.9,1.8-.14.06-.28.14-.53.26.48.66.91,1.29,1.36,1.9,2.33,3.14,4.66,6.29,7,9.42,1.4,1.87,3.16,3.14,5.57,3.33.69.06.77.35.5,1.56h-2.99c-1.68,0-3.36-.01-5.04.01-.48,0-.75-.17-1.03-.56-3.23-4.63-6.46-9.24-9.74-13.83-.22-.31-.71-.54-1.1-.57-.89-.09-1.8-.03-2.82-.03M87.12,17.91s0,.03,0,.05c-.69,0-1.38,0-2.07,0-.41,0-.64.1-.64.58,0,4.39,0,8.78,0,13.17,0,.44.17.63.61.61,1.2-.03,2.42.09,3.58-.11,1.1-.19,2.26-.53,3.19-1.13,2.86-1.85,3.98-5.31,3.02-8.7-.71-2.48-2.43-3.99-4.98-4.28-.9-.1-1.8-.11-2.71-.16M58.14,22.99c-.09,0-.19,0-.28,0-1.61,4.2-3.23,8.39-4.88,12.69h10.11c-1.68-4.32-3.32-8.51-4.95-12.7"></path>
        <path class="cls-2" d="M16.37,49.09c0-.34.01-.61,0-.87-.03-.44.16-.61.59-.66.69-.07,1.38-.17,2.05-.33,1.11-.25,1.73-.99,1.83-2.13.03-.34.03-.69.03-1.04,0-7.51,0-15.02,0-22.53,0-2.4-.66-3.18-3.03-3.6-.05-.01-.11-.01-.16-.02-1.28-.25-1.29-.26-1.05-1.66.11-.02.23-.07.36-.07,5.46.02,10.92-.05,16.38.1,2.46.07,4.77.91,6.46,2.88,2.16,2.53,1.92,6.76-.45,9.12-1.36,1.35-2.99,2.19-4.82,2.71-.34.1-.68.22-1.02.33,0,.08,0,.15,0,.22.23.06.45.14.68.18,2.1.42,4.11,1.05,5.87,2.36,3.97,2.96,4.05,9.28.15,12.36-2.15,1.7-4.61,2.61-7.3,2.66-5.35.1-10.71.04-16.06.04-.13,0-.26-.03-.5-.06M25.7,38.82h.03c0,1.92,0,3.84,0,5.75,0,1.31.74,2.13,1.9,2.47,3.71,1.08,8.71.32,9.71-5.38.97-5.49-1.9-9.02-7.46-9.04-1.04,0-2.08.01-3.12.03-1.07.02-1.07.03-1.07,1.13,0,1.68,0,3.36,0,5.03M25.7,24.34c0,1.92.01,3.83,0,5.75,0,.55.18.75.74.73,1.12-.04,2.24.01,3.35-.04,2.17-.11,4.03-.87,5.12-2.86,1.1-2.02,1.16-4.2.58-6.36-.53-1.98-1.9-3.23-3.94-3.46-1.66-.19-3.34-.09-5.01-.17-.64-.03-.84.21-.83.83.03,1.86,0,3.72,0,5.59"></path>
        <path class="cls-2" d="M145.61,18.03c-.02.28-.04.55-.04.81,0,3.81.01,7.61-.02,11.42,0,.73.22.99.95.96,1.38-.06,2.77-.03,4.15-.09,1.72-.08,2.89-.98,3.5-2.57.26-.69.51-1.41.62-2.14.13-.84.71-.61,1.2-.64.59-.03.52.4.52.77v11.26c0,.41.04.84-.58.79-.47-.03-.99.17-1.12-.63-.15-.89-.43-1.76-.76-2.6-.54-1.38-1.61-2.2-3.09-2.3-1.59-.11-3.19-.08-4.79-.11-.46,0-.6.24-.6.65.02,3.54-.02,7.08.08,10.62.06,2.1.85,2.93,2.93,3.02,2.52.11,5.05.02,7.57-.06,1.68-.05,2.91-.91,3.7-2.39.76-1.43,1.54-2.85,2.26-4.3.52-1.04.48-1.06,1.87-.84-.19,3.11-.37,6.23-.56,9.43-.35.02-.63.06-.91.06-8.52,0-17.04,0-25.56,0-.43,0-.92.15-.94-.61-.01-.66.15-.98.87-.99.58,0,1.16-.12,1.74-.23,1.47-.27,2.12-1.02,2.13-2.53.02-2.29,0-4.58,0-6.87,0-5.51,0-11.02,0-16.54,0-2.14-.52-2.8-2.58-3.29-.52-.12-1.04-.28-1.56-.32-.8-.06-.55-.62-.58-1.06-.05-.57.35-.55.74-.55,7.98,0,15.97,0,23.96-.01.58,0,.81.16.8.77-.03,2.1,0,4.21-.03,6.31,0,.26-.27.71-.43.72-.46.02-.98.28-1.35-.43-.75-1.4-1.6-2.74-2.53-4.02-.66-.9-1.61-1.47-2.8-1.48-2.89,0-5.79,0-8.79,0"></path>
        <path class="cls-2" d="M167.26,38.03c.36-.02.6-.01.83-.05.66-.09.95.15,1.16.83.82,2.77,2.02,5.34,4.34,7.2,2.55,2.05,5.42,2.46,8.49,1.42,1.88-.63,2.86-2.06,3.2-3.94.63-3.61-1.16-6.59-4.66-7.94-2.41-.93-4.83-1.83-7.17-2.91-2.54-1.18-4.4-3.03-5.05-5.9-1.03-4.52,1.32-8.89,5.66-10.53,3.77-1.42,7.32-.83,10.71,1.16.57.33.86.28,1.2-.27.66-1.06.84-1.1,2.34-.81v10.74c-.39,0-.86.08-1.27-.03-.24-.07-.46-.43-.57-.7-.66-1.65-1.14-3.39-1.97-4.95-1.36-2.58-3.55-4.05-6.57-4.05-2.47,0-4.54,1.32-5.27,3.4-.77,2.16-.08,5.01,1.85,6.31,1.61,1.08,3.47,1.82,5.24,2.65,1.89.9,3.89,1.61,5.72,2.61,3.81,2.08,4.95,5.67,4.12,9.66-.86,4.15-4.52,7.19-9.09,7.76-3.38.42-6.51-.34-9.48-1.88-.54-.28-.81-.28-1.11.29-.21.41-.59.92-.98,1-1.26.26-1.39.1-1.43-1.21-.09-2.98-.17-5.96-.24-8.94,0-.29,0-.57,0-.95"></path>
        <rect class="cls-1" y="0" width="300.1" height="85.82"></rect>
        <path class="cls-2" d="M126.56,49.11h-15.38c0-.33.02-.61,0-.89-.04-.46.19-.59.61-.63.85-.08,1.7-.16,2.53-.31,1.53-.27,2.18-1.02,2.2-2.57.03-2.64.02-5.27.02-7.91,0-5.97-.01-11.93.02-17.9,0-.81-.21-1.09-1.02-1.01-.87.08-1.76.1-2.63.04-1.99-.16-3.4.75-4.39,2.35-.81,1.31-1.54,2.67-2.16,4.07-.33.75-.82.72-1.4.63-.14-.02-.34-.33-.34-.51-.02-2.58,0-5.17-.02-7.75,0-.43.21-.54.59-.54,9.24,0,18.49,0,27.73,0,.1,0,.2.05.4.1v1.65c0,2.08,0,4.15,0,6.23,0,.34.15.81-.45.83-.49,0-.98.14-1.22-.56-.64-1.82-1.58-3.48-2.84-4.96-.8-.94-1.75-1.53-3.02-1.53-1.17,0-2.35,0-3.51-.07-.69-.04-.91.17-.91.89.03,3.94.02,7.89.02,11.83,0,4.47,0,8.95,0,13.42,0,2.04.58,2.75,2.6,3.18.55.12,1.09.22,1.65.33q1.18.23.95,1.58"></path>
        <path class="cls-2" d="M300.1,3.7c0,1.98-1.56,3.54-3.58,3.54s-3.6-1.56-3.6-3.54,1.6-3.5,3.6-3.5,3.58,1.56,3.58,3.5M293.8,3.7c0,1.56,1.15,2.8,2.73,2.8s2.67-1.24,2.67-2.77-1.13-2.82-2.69-2.82-2.71,1.26-2.71,2.79M295.96,5.54h-.81v-3.5c.32-.06.77-.11,1.34-.11.66,0,.96.11,1.22.26.19.15.34.43.34.77,0,.38-.3.68-.73.81v.04c.34.13.53.38.64.85.11.53.17.75.26.87h-.87c-.11-.13-.17-.45-.28-.85-.06-.39-.28-.56-.73-.56h-.38v1.41ZM295.98,3.55h.38c.45,0,.81-.15.81-.51,0-.32-.24-.53-.75-.53-.21,0-.36.02-.45.04v1Z"></path>
        <rect class="cls-1" y="0" width="300.07" height="85.82"></rect>
        <path class="cls-2" d="M9.59,73.87c0-.15.09-.24.24-.24h3.66c1.43,0,2.19.76,2.19,2.2v3.72c0,1.42-.76,2.19-2.19,2.19h-1.83v3.84c0,.15-.08.24-.24.24h-1.59c-.15,0-.24-.09-.24-.24v-11.71ZM13,79.73c.41,0,.61-.23.61-.61v-2.86c0-.4-.2-.61-.61-.61h-1.34v4.08h1.34Z"></path>
        <path class="cls-2" d="M26.38,79.54c0,1.02-.38,1.69-1.11,2.01l1.05,3.99c.05.18-.05.27-.21.27h-1.59c-.15,0-.23-.08-.26-.21l-1.02-3.87h-1.05v3.84c0,.15-.09.24-.24.24h-1.58c-.15,0-.24-.09-.24-.24v-11.71c0-.15.09-.24.24-.24h3.83c1.43,0,2.19.76,2.19,2.2v3.72ZM23.69,79.73c.4,0,.61-.21.61-.61v-2.86c0-.4-.21-.61-.61-.61h-1.51v4.08h1.51Z"></path>
        <path class="cls-2" d="M36.88,75.4c0,.15-.06.26-.24.26h-3.81v3.05h2.91c.15,0,.24.09.24.26v1.51c0,.17-.09.26-.24.26h-2.91v3.08h3.81c.18,0,.24.08.24.24v1.52c0,.15-.06.24-.24.24h-5.61c-.14,0-.23-.09-.23-.24v-11.71c0-.15.09-.24.23-.24h5.61c.18,0,.24.09.24.24v1.52Z"></path>
        <path class="cls-2" d="M49.69,73.63c.2,0,.3.11.3.3v11.59c0,.2-.11.3-.3.3h-1.42c-.2,0-.3-.11-.3-.3v-6.86h-.11l-1.51,6.89c-.05.18-.15.28-.34.28h-.75c-.18,0-.29-.09-.34-.28l-1.51-6.89h-.11v6.86c0,.2-.11.3-.3.3h-1.4c-.2,0-.3-.11-.3-.3v-11.59c0-.2.11-.3.3-.3h2.01c.18,0,.29.09.34.28l1.69,7.59,1.69-7.59c.05-.18.15-.28.33-.28h2.01Z"></path>
        <path class="cls-2" d="M56.25,73.63c.15,0,.24.09.24.24v11.71c0,.15-.09.24-.24.24h-1.58c-.17,0-.24-.09-.24-.24v-11.71c0-.15.08-.24.24-.24h1.58Z"></path>
        <path class="cls-2" d="M66.71,73.63c.17,0,.3.14.3.3v9.7c0,1.43-.76,2.2-2.19,2.2h-1.71c-1.43,0-2.2-.76-2.2-2.2v-9.7c0-.17.14-.3.3-.3h1.46c.17,0,.3.14.3.3v9.27c0,.41.21.61.61.61h.79c.4,0,.61-.2.61-.61v-9.27c0-.17.14-.3.3-.3h1.4Z"></path>
        <path class="cls-2" d="M79.82,73.63c.2,0,.3.11.3.3v11.59c0,.2-.11.3-.3.3h-1.42c-.2,0-.3-.11-.3-.3v-6.86h-.11l-1.51,6.89c-.05.18-.15.28-.34.28h-.75c-.18,0-.29-.09-.34-.28l-1.51-6.89h-.11v6.86c0,.2-.11.3-.3.3h-1.4c-.2,0-.3-.11-.3-.3v-11.59c0-.2.11-.3.3-.3h2.01c.18,0,.29.09.34.28l1.69,7.59,1.69-7.59c.05-.18.15-.28.33-.28h2.01Z"></path>
        <path class="cls-2" d="M97.37,77.47c0,.15-.09.24-.24.24h-1.52c-.17,0-.24-.09-.24-.24v-1.22c0-.4-.21-.61-.61-.61h-.79c-.41,0-.61.21-.61.61v6.95c0,.41.21.61.61.61h.79c.4,0,.61-.2.61-.61v-1.22c0-.15.08-.24.24-.24h1.52c.15,0,.24.09.24.24v1.65c0,1.43-.78,2.19-2.2,2.19h-1.71c-1.43,0-2.21-.76-2.21-2.19v-7.81c0-1.43.78-2.19,2.21-2.19h1.71c1.42,0,2.2.76,2.2,2.19v1.65Z"></path>
        <path class="cls-2" d="M101.8,75.82c0-1.43.76-2.2,2.2-2.2h1.71c1.43,0,2.2.76,2.2,2.2v7.8c0,1.43-.76,2.2-2.2,2.2h-1.71c-1.43,0-2.2-.76-2.2-2.2v-7.8ZM105.32,83.86c.4,0,.61-.2.61-.61v-7.04c0-.4-.21-.61-.61-.61h-.89c-.39,0-.61.21-.61.61v7.04c0,.41.21.61.61.61h.89Z"></path>
        <path class="cls-2" d="M118.43,77.47c0,.15-.09.24-.24.24h-1.52c-.17,0-.24-.09-.24-.24v-1.22c0-.4-.21-.61-.61-.61h-.79c-.41,0-.61.21-.61.61v6.95c0,.41.21.61.61.61h.79c.4,0,.61-.2.61-.61v-1.22c0-.15.08-.24.24-.24h1.52c.15,0,.24.09.24.24v1.65c0,1.43-.78,2.19-2.2,2.19h-1.71c-1.43,0-2.21-.76-2.21-2.19v-7.81c0-1.43.78-2.19,2.21-2.19h1.71c1.42,0,2.2.76,2.2,2.19v1.65Z"></path>
        <path class="cls-2" d="M127.77,85.82c-.18,0-.29-.08-.35-.23l-1.92-4.53-.56,1.08v3.37c0,.2-.11.3-.3.3h-1.46c-.2,0-.3-.11-.3-.3v-11.59c0-.2.11-.3.3-.3h1.46c.2,0,.3.11.3.3v4.73l2.35-4.8c.08-.15.18-.23.35-.23h1.6c.23,0,.32.15.21.37l-2.59,5.32,2.76,6.16c.11.2.01.35-.23.35h-1.62Z"></path>
        <path class="cls-2" d="M139.48,73.63c.17,0,.24.09.24.24v1.52c0,.15-.08.24-.24.24h-1.77v9.94c0,.17-.08.24-.24.24h-1.58c-.15,0-.24-.08-.24-.24v-9.94h-1.77c-.15,0-.24-.09-.24-.24v-1.52c0-.15.09-.24.24-.24h5.61Z"></path>
        <path class="cls-2" d="M149.57,85.82c-.14,0-.21-.08-.24-.21l-.43-2.23h-2.71l-.41,2.23c-.03.14-.11.21-.24.21h-1.63c-.17,0-.24-.09-.2-.26l2.53-11.72c.03-.15.12-.21.26-.21h2.12c.14,0,.23.06.26.21l2.53,11.72c.03.17-.03.26-.21.26h-1.62ZM147.54,76.3l-.98,5.32h1.95l-.98-5.32Z"></path>
        <path class="cls-2" d="M157.5,73.63c.15,0,.24.09.24.24v11.71c0,.15-.09.24-.24.24h-1.58c-.17,0-.24-.09-.24-.24v-11.71c0-.15.08-.24.24-.24h1.58Z"></path>
        <path class="cls-2" d="M164.24,83.81h3.63c.17,0,.24.09.24.24v1.52c0,.17-.08.24-.24.24h-5.46c-.15,0-.24-.08-.24-.24v-11.71c0-.15.09-.24.24-.24h1.58c.17,0,.24.09.24.24v9.94Z"></path>
        <path class="cls-2" d="M176.44,73.63c1.43,0,2.19.76,2.19,2.19v1.62c0,.15-.08.24-.24.24h-1.58c-.15,0-.24-.09-.24-.24v-1.19c0-.4-.2-.61-.61-.61h-.73c-.38,0-.61.21-.61.61v2.1l3.63,1.19c.26.1.39.27.39.56v3.52c0,1.43-.76,2.2-2.19,2.2h-1.71c-1.42,0-2.19-.76-2.19-2.2v-1.6c0-.17.09-.24.24-.24h1.59c.17,0,.24.08.24.24v1.17c0,.41.23.61.61.61h.73c.4,0,.61-.2.61-.61v-2.03l-3.61-1.19c-.28-.09-.41-.28-.41-.56v-3.6c0-1.43.78-2.19,2.19-2.19h1.71Z"></path>
        <path class="cls-2" d="M189.77,75.82c0-1.43.76-2.2,2.19-2.2h1.71c1.43,0,2.19.76,2.19,2.2v7.8c0,1.43-.76,2.2-2.19,2.2h-1.71c-1.43,0-2.19-.76-2.19-2.2v-7.8ZM193.29,83.86c.39,0,.61-.2.61-.61v-7.04c0-.4-.21-.61-.61-.61h-.89c-.39,0-.61.21-.61.61v7.04c0,.41.21.61.61.61h.89Z"></path>
        <path class="cls-2" d="M206.56,73.63c.15,0,.24.09.24.24v11.71c0,.15-.09.24-.24.24h-1.51c-.14,0-.23-.06-.27-.2l-2.33-6.51h-.08v6.46c0,.15-.08.24-.24.24h-1.58c-.15,0-.24-.09-.24-.24v-11.71c0-.15.09-.24.24-.24h1.51c.14,0,.23.06.28.2l2.32,6.48h.09v-6.43c0-.15.08-.24.24-.24h1.58Z"></path>
        <path class="cls-2" d="M217.93,73.87c0-.15.08-.24.24-.24h3.66c1.43,0,2.2.78,2.2,2.21v7.79c0,1.43-.76,2.2-2.2,2.2h-3.66c-.17,0-.24-.08-.24-.24v-11.71ZM221.41,83.81c.4,0,.61-.2.61-.61v-6.94c0-.41-.21-.63-.61-.63h-1.4v8.17h1.4Z"></path>
        <path class="cls-2" d="M234.54,75.4c0,.15-.06.26-.24.26h-3.81v3.05h2.91c.15,0,.24.09.24.26v1.51c0,.17-.09.26-.24.26h-2.91v3.08h3.81c.18,0,.24.08.24.24v1.52c0,.15-.06.24-.24.24h-5.61c-.14,0-.23-.09-.23-.24v-11.71c0-.15.09-.24.23-.24h5.61c.18,0,.24.09.24.24v1.52Z"></path>
        <path class="cls-2" d="M247.35,73.63c.2,0,.3.11.3.3v11.59c0,.2-.11.3-.3.3h-1.42c-.2,0-.3-.11-.3-.3v-6.86h-.11l-1.51,6.89c-.05.18-.15.28-.34.28h-.75c-.18,0-.29-.09-.34-.28l-1.51-6.89h-.11v6.86c0,.2-.11.3-.3.3h-1.4c-.2,0-.3-.11-.3-.3v-11.59c0-.2.11-.3.3-.3h2.01c.18,0,.29.09.34.28l1.69,7.59,1.69-7.59c.05-.18.15-.28.33-.28h2.01Z"></path>
        <path class="cls-2" d="M257.81,85.82c-.14,0-.21-.08-.24-.21l-.43-2.23h-2.71l-.41,2.23c-.03.14-.11.21-.24.21h-1.63c-.17,0-.24-.09-.2-.26l2.53-11.72c.03-.15.12-.21.26-.21h2.12c.14,0,.23.06.26.21l2.53,11.72c.03.17-.03.26-.21.26h-1.62ZM255.78,76.3l-.98,5.32h1.95l-.98-5.32Z"></path>
        <path class="cls-2" d="M270.18,73.63c.15,0,.24.09.24.24v11.71c0,.15-.09.24-.24.24h-1.51c-.14,0-.23-.06-.28-.2l-2.33-6.51h-.08v6.46c0,.15-.08.24-.24.24h-1.59c-.15,0-.24-.09-.24-.24v-11.71c0-.15.09-.24.24-.24h1.51c.14,0,.23.06.27.2l2.32,6.48h.09v-6.43c0-.15.08-.24.24-.24h1.59Z"></path>
        <path class="cls-2" d="M274.84,73.87c0-.15.08-.24.24-.24h3.66c1.43,0,2.19.78,2.19,2.21v7.79c0,1.43-.76,2.2-2.19,2.2h-3.66c-.17,0-.24-.08-.24-.24v-11.71ZM278.32,83.81c.4,0,.61-.2.61-.61v-6.94c0-.41-.21-.63-.61-.63h-1.4v8.17h1.4Z"></path>
        <path class="cls-2" d="M286.09,73.52v.66h-1.27v3.32h-.79v-3.32h-1.27v-.66h3.33ZM290.39,77.5l-.15-2.34c-.01-.31-.01-.69-.03-1.11h-.04c-.1.35-.22.82-.34,1.18l-.72,2.21h-.82l-.72-2.27c-.07-.31-.19-.77-.28-1.13h-.04c0,.37-.01.75-.03,1.11l-.15,2.34h-.76l.29-3.98h1.18l.69,1.95c.09.31.16.6.26,1.01h.01c.1-.37.19-.7.28-1l.69-1.96h1.14l.31,3.98h-.79Z"></path>
        <rect class="cls-1" y="0" width="300.1" height="85.82"></rect>
      </g>
    </g>
  </svg>