<svg class="Icon Icon--logo" width="180" viewBox="0 0 322 39" fill="none" xmlns="http://www.w3.org/2000/svg">
      <g clip-path="url(#clip0_66_1552)">
        <path d="M76.4001 2.73256C75.536 3.33986 74.9101 4.24067 74.6336 5.27513C74.328 6.36916 74.1901 7.97399 74.056 10.3336C74.0038 11.2408 73.933 15.7199 73.8771 17.6754C73.8286 19.4975 73.8174 26.9613 73.0982 29.4924C72.7883 30.6533 72.3573 31.7766 71.8124 32.8431C71.1822 34.0151 70.3354 35.0508 69.3191 35.8927C68.0936 36.8825 66.6909 37.618 65.1898 38.0578C62.0443 39.1138 56.0292 39.1214 52.8688 38.0845C51.3863 37.6574 49.9956 36.9488 48.7693 35.9956C47.7677 35.2031 46.9217 34.224 46.276 33.1099C45.7189 32.1376 45.2796 31.0995 44.9679 30.0185C44.7007 29.1124 44.5308 28.1794 44.461 27.2357C44.2859 24.3158 44.4163 10.8863 44.4387 9.58644C44.4946 6.20906 44.3678 4.57373 43.6933 3.55594C42.9479 2.4581 41.5876 2.00067 39.5938 1.75289V1.23828H54.6055V1.75289C52.8092 1.92062 51.3482 2.64108 50.6513 3.71223C50.0774 4.60042 50.0066 5.27894 49.9469 8.24463C49.8948 10.9321 49.9469 24.2739 49.973 25.1468C49.987 26.8315 50.2586 28.5035 50.778 30.1023C51.2299 31.5038 51.9494 32.7995 52.8949 33.9143C56.8416 38.4886 63.5984 37.1811 65.5662 36.5178C66.7774 36.1393 67.9025 35.5172 68.8756 34.6881C69.7452 33.9249 70.4638 32.9984 70.9925 31.9587C71.5174 30.9159 71.907 29.8074 72.1515 28.6614C72.4046 27.4812 72.5728 26.2836 72.6547 25.0782C72.8075 23.0693 72.7814 20.885 72.7814 18.9791C72.7814 16.1163 72.8075 13.4822 72.7553 10.6309C72.7366 9.91045 72.7143 9.2243 72.6807 8.56865C72.6472 7.91299 72.595 7.3069 72.5279 6.73892C72.4835 6.2729 72.3821 5.81442 72.2261 5.37424C71.8995 4.42711 71.2925 3.60765 70.4894 3.02989C69.667 2.42761 68.4495 2.00702 66.837 1.76814V1.23828H79.3294V1.75289C78.2945 1.85551 77.2944 2.18999 76.4001 2.73256Z" fill="black"></path>
        <path d="M152.283 38.3399V37.8253C153.353 37.6767 154.672 37.4441 155.332 36.6398C155.801 36.0795 155.984 35.5953 155.533 33.9333C155.343 33.2319 155.086 32.3704 154.75 31.3565C154.415 30.3425 152.719 25.547 152.182 24.1138H138.766C138.269 25.4225 137.782 26.6678 137.305 27.8495C134.603 34.6423 133.973 36.0947 136.273 37.1773C137.155 37.5164 138.077 37.7331 139.015 37.8215V38.3361H128.301V37.7758C129.475 37.6347 130.999 37.5471 132.773 34.5775C133.505 33.2964 134.161 31.9712 134.737 30.6093C135.55 28.7758 144.218 8.06929 145.116 5.92697L144.449 4.08962C143.704 2.06928 141.799 1.76814 141.095 1.75289V1.23828H149.715C151.236 5.40474 160.08 29.6449 161.064 32.115C161.418 33.007 162.387 36.1023 164.969 37.3488C165.605 37.6385 166.29 37.7953 166.986 37.8101V38.3247L152.283 38.3399ZM145.683 7.11249C145.448 7.6271 141.129 18.27 139.232 23.035H151.78C150.505 19.5966 146.015 7.93968 145.683 7.11249Z" fill="black"></path>
        <path d="M281.75 38.3399V37.8253C286.8 36.9486 286.844 36.6436 286.938 31.6423C287.008 27.9371 286.971 23.5267 286.99 19.993H267.088V31.0744C267.088 32.0731 267.118 33.0337 267.137 33.96C267.182 36.3005 268.564 36.9486 269.306 37.2573C269.996 37.556 270.726 37.7475 271.471 37.8253V38.3399H256.59V37.8253C261.062 36.8761 261.23 36.0413 261.435 32.0274C261.509 30.4797 261.606 12.6703 261.584 9.58644C261.584 8.44286 261.614 7.12392 261.509 6.00321C261.36 4.47843 261.073 3.02989 259.091 2.29419C258.333 2.01936 257.546 1.83765 256.746 1.75289V1.23828H271.762V1.75289C271.252 1.82375 270.746 1.92687 270.249 2.06166C267.923 2.70588 267.245 4.28784 267.178 5.87361C267.126 7.07818 267.118 8.37424 267.1 9.7656C267.062 12.7389 267.1 16.2459 267.077 18.9638H286.967C286.945 14.9575 287.012 11.6335 286.915 7.6271C286.815 3.35391 285.775 2.72494 284.247 2.1379C283.493 1.91172 282.714 1.78365 281.929 1.75671V1.23828H297.093V1.75289C292.889 2.4238 292.621 4.42125 292.558 6.46827C292.52 7.51274 292.513 8.6487 292.509 9.68936C292.509 13.8215 292.468 31.3946 292.636 34.0858C292.781 36.4492 294.037 36.9791 294.775 37.2535C295.556 37.5406 296.368 37.7313 297.194 37.8215V38.3361L281.75 38.3399Z" fill="black"></path>
        <path d="M306.72 38.3399V37.8253C310.286 36.9829 311.565 36.575 311.565 31.9778C311.565 30.453 311.673 11.824 311.691 9.58644C311.751 3.01084 311.028 2.40474 306.846 1.75289V1.23828H321.91V1.75289C318.646 2.40092 317.222 2.46192 317.263 8.70969C317.263 9.65887 317.211 29.9689 317.215 31.0744C317.215 35.2675 316.737 37.0096 322 37.8253V38.3399H306.72Z" fill="black"></path>
        <path d="M110.527 23.036V23.5506C110.527 23.5506 114.291 23.8137 114.302 26.6002V34.8797C114.303 35.3039 114.157 35.7147 113.89 36.0387C113.622 36.3627 113.25 36.5788 112.841 36.6485C107.769 37.5138 91.2255 38.8899 91.2255 19.9445C91.2255 9.46932 97.032 3.77809 101.336 2.11227C107.296 0.133869 115.159 2.36004 118.808 7.24314H119.475C119.259 6.59893 118.029 3.16436 117.828 2.58876C103.759 -3.64377 93.976 3.09956 91.7771 5.04746C86.608 9.38546 85.0166 14.9585 85.0166 19.8683C85.0166 22.6815 85.7881 28.7806 90.6516 33.4121C96.0257 38.5316 103.759 38.341 109.457 38.341H118.733V26.6154C118.733 23.8137 122.505 23.5659 122.505 23.5659V23.036H110.527Z" fill="black"></path>
        <path d="M207.064 1.23438H168.767L167.228 7.80617H167.734C167.936 7.18863 168.554 2.62955 178.747 2.62955C179.385 2.62955 184.338 2.57618 185.046 2.57618C185.046 2.57618 185.046 24.5597 185.02 31.7947C185.02 34.951 184.647 37.1924 179.452 37.8252V38.3398H196.379V37.8252C190.941 37.2496 190.815 34.6461 190.815 31.7947C190.789 24.4911 190.789 2.57618 190.789 2.57618C191.497 2.57618 196.45 2.62955 197.087 2.62955C207.28 2.62955 207.895 7.20388 208.1 7.80617H208.607L207.064 1.23438Z" fill="black"></path>
        <path d="M247.634 31.8265C242.201 38.4135 231.113 39.7248 224.93 33.4618C221.655 29.9853 220.123 24.9154 220.149 19.9447C220.149 12.7897 223.13 3.98025 230.26 2.1124C240.647 -0.609331 246.688 5.99296 247.612 7.09842L247.743 7.25471H248.425C248.425 7.25471 246.695 2.55839 246.628 2.52409C231.27 -4.50895 213.951 3.74772 213.951 19.9447C213.951 38.9129 236.271 42.1492 246.628 36.4847C246.695 36.4466 248.425 31.7045 248.425 31.7045H247.743L247.634 31.8265Z" fill="black"></path>
        <path d="M31.9428 31.5395C31.5983 32.4902 31.1049 33.3773 30.4819 34.166C29.9002 34.9023 29.2217 35.5526 28.4657 36.0986C27.7839 36.6018 27.0394 37.0094 26.2519 37.3108C24.8721 37.813 23.4286 38.1083 21.9661 38.1876C20.3908 38.2918 18.8628 38.3426 17.382 38.34H0V37.8254C4.40887 37.063 4.89336 35.4087 5.08715 31.9779C5.4263 26.058 5.2884 11.4849 5.13933 7.70345C4.90454 1.74919 2.85104 2.16088 0.555301 1.753V1.23839H17.5348C18.7558 1.23496 19.9757 1.31135 21.1872 1.46711C22.3332 1.61918 23.4585 1.90437 24.5413 2.31717C26.1824 2.92001 27.6407 3.95164 28.7713 5.30955C31.1155 7.99697 31.0074 13.4785 28.2943 15.8991C26.7383 17.3553 24.81 18.3295 22.7338 18.7085V18.9144C23.9557 19.0597 25.1543 19.3646 26.3004 19.8216C27.4414 20.2656 28.503 20.8993 29.4421 21.6971C30.3616 22.4718 31.1217 23.4254 31.6782 24.5027C32.7255 26.4735 32.7218 29.4735 31.9428 31.5395ZM23.3711 5.82416C22.6037 4.56342 21.4921 3.56023 20.1734 2.93852C18.3585 2.04271 13.8378 1.48998 11.1545 2.26762C10.86 3.79239 10.8079 6.94106 10.7818 9.89151C10.7445 12.7848 10.7594 16.3718 10.7594 18.9601C12.4961 18.9601 14.0167 18.9982 15.4441 18.9106C18.4678 18.7403 20.7598 17.8636 22.3201 16.2803C24.9997 13.7225 25.3836 8.92327 23.3525 5.82416H23.3711ZM26.1252 25.9474C25.8087 25.0768 25.3665 24.2597 24.8134 23.523C24.2596 22.787 23.597 22.144 22.8493 21.617C22.0799 21.0794 21.2407 20.6547 20.3561 20.3553C19.6427 20.1208 18.9088 19.9574 18.1647 19.8674C17.3194 19.7739 16.4695 19.7306 15.6192 19.7378H10.7333C10.7333 24.5446 10.7669 30.3197 10.7818 30.922C10.8153 32.2257 10.875 33.3007 10.9569 34.1393C11.0137 34.8923 11.2716 35.6148 11.7023 36.2282C12.0678 36.6519 12.5282 36.9789 13.044 37.1812C14.5608 37.7873 16.9572 37.5624 18.8392 37.3604C20.0039 37.218 21.1317 36.852 22.1636 36.2816C23.4999 35.5948 24.6313 34.5534 25.4395 33.2663C26.6656 31.3489 26.9712 28.2079 26.1252 25.9474Z" fill="black"></path>
      </g>
    </svg>