<svg class="logo" version="1.1" id="Layer_1" xmlns="http://www.w3.org/2000/svg" xmlns:xlink="http://www.w3.org/1999/xlink" x="0px" y="0px" viewBox="0 0 100 36" style="enable-background:new 0 0 100 36;" xml:space="preserve">
    <g>
        <path d="M12.541,4.027c0.09,0.247,0.112,0.448,0.112,0.583c0,0.56-0.493,1.031-1.165,1.031c-0.65,0-0.986-0.359-1.434-0.829
		C9.292,3.982,8.866,3.422,7.611,3.422c-0.964,0-1.703,0.65-1.703,1.457c0,1.457,1.658,1.501,4.056,2.555
		c2.936,1.3,4.392,3.003,4.392,6.051c0,3.765-2.644,6.23-6.678,6.23C3.712,19.714,1,17.272,1,14.022c0-2.577,1.636-4.28,4.146-4.28
		c1.524,0,2.398,0.695,2.398,1.726c0,0.807-0.583,1.255-1.591,1.255c-0.09,0-0.134-0.022-0.224-0.022
		c-1.053,0-1.658,0.56-1.658,1.479c0,1.39,1.501,2.689,3.518,2.689c2.331,0,3.765-1.434,3.765-3.406c0-2.6-2.017-3.227-4.885-4.28
		C4.115,8.308,2.905,7.097,2.905,4.834c0-2.375,1.77-4.056,4.056-4.056c0.717,0,1.345,0.157,1.972,0.538
		c0.314-0.56,0.807-0.829,1.389-0.829c0.583,0,0.986,0.291,1.188,0.807L12.541,4.027z"></path>
        <path d="M23.32,10.683c0,3.115-1.882,5.199-4.415,5.199c-2.532,0-4.415-2.039-4.415-5.199c0-3.115,1.882-5.154,4.415-5.154
		C21.438,5.529,23.32,7.568,23.32,10.683z M17.158,10.616c0,1.726,0.627,2.6,1.726,2.6c1.12,0,1.77-0.896,1.77-2.6
		c0-1.703-0.65-2.6-1.77-2.6C17.785,8.016,17.158,8.913,17.158,10.616z"></path>
        <path d="M37.842,11.736h0.157c0.627,0,1.031,0.448,1.031,1.053c0,0.605-0.381,0.919-0.807,1.322l-1.77,1.614
		c-0.269,0.269-0.515,0.403-0.852,0.403c-0.56,0-1.12-0.56-1.12-1.188c0-0.695,0.829-0.919,0.829-2.443v-2.286
		c0-1.165-0.247-1.748-1.165-1.748c-1.165,0-1.658,1.076-1.658,3.249c0,0.762,0.112,1.233,0.403,1.479
		c0.403,0.314,0.829,0.493,0.829,1.255c0,0.672-0.359,1.076-1.031,1.076h-2.779c-0.695,0-1.053-0.269-1.053-0.986
		c0-0.896,0.448-0.919,0.852-1.3c0.224-0.224,0.269-0.583,0.269-1.21V10.19c0-1.165-0.246-1.748-1.165-1.748
		c-1.12,0-1.636,1.053-1.636,3.182c0,0.784,0.09,1.322,0.314,1.569c0.314,0.314,0.695,0.493,0.695,1.255
		c0,0.695-0.314,1.076-0.896,1.076h-2.779c-0.762,0-1.121-0.291-1.121-0.986c0-0.896,0.493-0.941,0.964-1.3
		c0.247-0.157,0.291-0.56,0.291-1.21V9.002h-0.359c-0.717,0-1.098-0.314-1.098-0.919c0-0.403,0.157-0.672,0.538-0.964l1.569-1.21
		c0.314-0.247,0.583-0.403,1.031-0.403c0.538,0,0.896,0.381,0.896,0.919v0.269c0,0.157,0.022,0.269,0.179,0.269
		c0.314,0,0.852-1.457,2.712-1.457c2.017,0,2.241,1.434,2.577,1.434c0.291,0,0.627-1.434,2.6-1.434c1.748,0,2.51,1.076,2.51,3.137
		v3.093H37.842z"></path>
        <path d="M41.697,11.49c0.224,1.165,1.12,1.86,2.151,1.86c1.367,0,1.883-1.21,2.712-1.21c0.583,0,1.098,0.538,1.098,1.322
		c0,1.053-1.389,2.42-3.81,2.42c-2.958,0-4.885-2.129-4.885-5.065c0-3.272,1.972-5.289,4.751-5.289c2.555,0,4.325,1.86,4.325,4.056
		c0,1.569-0.672,1.905-2.263,1.905H41.697z M45.327,8.868c0-0.627-0.583-1.098-1.613-1.098c-0.986,0-1.905,0.717-2.039,1.793h2.286
		C44.924,9.585,45.327,9.451,45.327,8.868z"></path>
        <path d="M52.454,5.842h1.658c0.941,0,1.434,0.426,1.434,1.188c0,0.784-0.448,1.188-1.434,1.188h-1.658v3.81
		c0,0.583,0.022,0.964,0.381,0.964c0.426,0,0.762-0.807,1.479-0.807c0.672,0,1.188,0.56,1.188,1.367
		c0,1.255-1.233,2.308-2.846,2.308c-2.129,0-2.846-1.12-2.846-3.451V8.196h-0.896c-0.807,0-1.21-0.381-1.21-1.165
		c0-0.986,0.829-1.322,1.726-2.286c0.919-0.986,1.165-1.905,2.017-1.905c0.627,0,1.031,0.493,1.031,1.188V4.52v1.322H52.454z"></path>
        <path d="M59.67,12.05c0,0.583,0,0.964,0.246,1.188c0.381,0.314,1.21,0.291,1.21,1.322c0,0.717-0.448,0.986-1.345,0.986h-2.913
		c-0.896,0-1.345-0.269-1.345-1.031c0-0.852,0.583-0.941,1.121-1.255c0.291-0.179,0.314-0.56,0.314-1.21V9.137h-0.224
		c-0.717,0-1.098-0.314-1.098-0.919c0-0.403,0.157-0.695,0.538-0.986l1.524-1.188c0.314-0.269,0.583-0.403,1.031-0.403
		c0.717,0,0.919,0.448,0.919,1.255v5.154H59.67z M60.14,2.884c0,1.233-0.784,2.062-1.86,2.062c-1.076,0-1.882-0.896-1.882-2.062
		c0-1.233,0.807-2.107,1.882-2.107C59.356,0.778,60.14,1.719,60.14,2.884z"></path>
        <path d="M75.514,11.736h0.157c0.627,0,1.031,0.448,1.031,1.053c0,0.605-0.381,0.919-0.807,1.322l-1.77,1.614
		c-0.269,0.269-0.515,0.403-0.852,0.403c-0.56,0-1.12-0.56-1.12-1.188c0-0.695,0.829-0.919,0.829-2.443v-2.286
		c0-1.165-0.247-1.748-1.165-1.748c-1.165,0-1.658,1.076-1.658,3.249c0,0.762,0.112,1.233,0.403,1.479
		c0.403,0.314,0.829,0.493,0.829,1.255c0,0.672-0.359,1.076-1.031,1.076H67.58c-0.695,0-1.053-0.269-1.053-0.986
		c0-0.896,0.448-0.919,0.852-1.3c0.224-0.224,0.269-0.583,0.269-1.21V10.19c0-1.165-0.247-1.748-1.165-1.748
		c-1.12,0-1.636,1.053-1.636,3.182c0,0.784,0.09,1.322,0.314,1.569c0.314,0.314,0.695,0.493,0.695,1.255
		c0,0.695-0.314,1.076-0.896,1.076H62.18c-0.762,0-1.12-0.291-1.12-0.986c0-0.896,0.493-0.941,0.964-1.3
		c0.247-0.157,0.291-0.56,0.291-1.21V9.002h-0.359c-0.717,0-1.098-0.314-1.098-0.919c0-0.403,0.157-0.672,0.538-0.964l1.569-1.21
		c0.314-0.247,0.583-0.403,1.031-0.403c0.538,0,0.896,0.381,0.896,0.919v0.269c0,0.157,0.022,0.269,0.179,0.269
		c0.314,0,0.852-1.457,2.712-1.457c2.017,0,2.241,1.434,2.577,1.434c0.291,0,0.627-1.434,2.6-1.434c1.748,0,2.51,1.076,2.51,3.137
		v3.093H75.514z"></path>
        <path d="M79.368,11.49c0.224,1.165,1.12,1.86,2.151,1.86c1.367,0,1.883-1.21,2.712-1.21c0.583,0,1.098,0.538,1.098,1.322
		c0,1.053-1.39,2.42-3.81,2.42c-2.958,0-4.885-2.129-4.885-5.065c0-3.272,1.972-5.289,4.751-5.289c2.555,0,4.325,1.86,4.325,4.056
		c0,1.569-0.672,1.905-2.263,1.905H79.368z M82.999,8.868c0-0.627-0.583-1.098-1.614-1.098c-0.986,0-1.905,0.717-2.039,1.793h2.286
		C82.595,9.585,82.999,9.451,82.999,8.868z"></path>
        <path d="M97.184,4.027c0.09,0.247,0.112,0.448,0.112,0.583c0,0.56-0.493,1.031-1.165,1.031c-0.65,0-0.986-0.359-1.434-0.829
		c-0.762-0.829-1.188-1.389-2.443-1.389c-0.964,0-1.703,0.65-1.703,1.457c0,1.457,1.658,1.501,4.056,2.555
		C97.543,8.733,99,10.437,99,13.484c0,3.765-2.645,6.23-6.679,6.23c-3.989,0-6.701-2.443-6.701-5.692c0-2.577,1.636-4.28,4.146-4.28
		c1.524,0,2.398,0.695,2.398,1.726c0,0.807-0.583,1.255-1.591,1.255c-0.09,0-0.134-0.022-0.224-0.022
		c-1.053,0-1.658,0.56-1.658,1.479c0,1.39,1.501,2.689,3.518,2.689c2.331,0,3.765-1.434,3.765-3.406c0-2.6-2.017-3.227-4.885-4.28
		c-2.331-0.852-3.541-2.062-3.541-4.325c0-2.375,1.77-4.056,4.056-4.056c0.717,0,1.345,0.157,1.972,0.538
		c0.314-0.56,0.807-0.829,1.389-0.829c0.583,0,0.986,0.291,1.188,0.807L97.184,4.027z"></path>
        <path d="M31.814,28.813h0.269c0.627,0,1.165,0.515,1.165,1.188c0,0.56-0.359,0.964-0.852,1.457l-2.6,2.443
		c-0.314,0.291-0.583,0.493-0.964,0.493c-0.762,0-1.345-0.583-1.345-1.322c0-1.053,1.434-1.479,1.434-3.137
		c0-0.291-0.045-0.672-0.157-1.098l-0.291-1.165h-4.146l-0.493,1.838c-0.986,3.742-3.742,6.006-7.283,6.006
		c-2.017,0-3.182-0.964-3.182-2.331c0-0.964,0.672-1.524,1.882-1.524c0.448,0,1.031,0.09,1.703,0.09c2.308,0,3.653-1.479,4.549-4.46
		l1.681-5.871c0.112-0.359,0.246-0.672,0.246-1.098c0-0.65-0.583-1.188-1.524-1.188c-1.703,0-2.913,1.121-2.913,2.51
		c0,0.672,0.291,1.031,0.852,1.031c0.291,0,0.583-0.157,0.896-0.157c0.56,0,0.941,0.448,0.941,1.21c0,1.121-0.919,1.972-2.331,1.972
		c-2.039,0-3.474-1.479-3.474-3.899c0-3.115,2.039-5.109,5.692-5.109c1.457,0,3.07,0.314,4.93,0.314
		c1.098,0,2.039-0.112,2.846-0.112c0.964,0,1.457,0.426,1.457,1.21c0,1.188-1.479,0.896-1.479,1.927c0,0.224,0.022,0.448,0.09,0.65
		L31.814,28.813z M26.391,20.7c-0.224,0-0.224,0.112-0.269,0.359l-1.076,3.989h2.689l-1.076-3.989
		C26.57,20.79,26.615,20.7,26.391,20.7z"></path>
        <path d="M37.484,27.737c0,0.583,0,0.964,0.247,1.188c0.381,0.314,1.21,0.291,1.21,1.322c0,0.717-0.448,0.986-1.345,0.986h-2.913
		c-0.896,0-1.345-0.269-1.345-1.031c0-0.852,0.583-0.941,1.12-1.255c0.291-0.179,0.314-0.56,0.314-1.21v-7.776h-0.224
		c-0.717,0-1.098-0.314-1.098-0.919c0-0.403,0.157-0.672,0.538-0.964l1.524-1.21c0.314-0.269,0.583-0.403,1.031-0.403
		c0.717,0,0.919,0.448,0.919,1.255v10.017H37.484z"></path>
        <path d="M41.675,21.53c0.717,0,1.098,0.381,1.098,1.076c0,0.964-0.919,1.12-0.919,1.658c0,0.381,0.112,0.627,0.157,0.829
		l0.852,2.689c0.045,0.224,0.09,0.269,0.224,0.269c0.134,0,0.134-0.09,0.179-0.269l0.852-2.913c0.09-0.247,0.134-0.426,0.134-0.627
		c0-0.762-0.964-0.717-0.964-1.703c0-0.695,0.381-1.053,1.12-1.053h2.689c0.762,0,1.098,0.381,1.098,1.053
		c0,1.031-0.964,0.896-0.964,1.703c0,0.224,0.09,0.403,0.134,0.627l0.852,2.913c0.045,0.224,0.09,0.269,0.224,0.269
		s0.134-0.09,0.179-0.269l0.852-2.689c0.09-0.269,0.157-0.493,0.157-0.762c0-0.65-0.896-0.762-0.896-1.748
		c0-0.695,0.359-1.076,1.076-1.076h2.644c0.807,0,1.21,0.291,1.21,1.031c0,1.053-0.986,0.896-1.524,2.42l-2.039,5.916
		c-0.134,0.381-0.426,0.583-0.762,0.583h-1.658c-0.269,0-0.672-0.269-0.784-0.583l-0.986-3.249
		c-0.045-0.224-0.045-0.291-0.179-0.291c-0.134,0-0.134,0.09-0.179,0.291l-0.986,3.249c-0.112,0.314-0.493,0.583-0.784,0.583h-1.658
		c-0.269,0-0.583-0.224-0.717-0.583l-2.039-5.916c-0.538-1.524-1.524-1.367-1.524-2.42c0-0.717,0.403-1.031,1.21-1.031h2.622V21.53z
		"></path>
        <path d="M61.978,27.76c0,0.448,0,0.807,0.224,1.076c0.269,0.359,0.941,0.314,0.941,1.3c0,0.695-0.426,1.098-1.188,1.098h-1.367
		c-1.053,0-1.255-0.538-1.255-1.703v-2.734h-0.515c-1.86,0-2.936,0.583-2.936,1.389c0,0.426,0.426,0.784,0.941,0.784
		c0.403,0,0.65-0.381,1.031-0.381c0.448,0,0.829,0.448,0.829,1.21c0,1.031-0.896,1.748-2.42,1.748c-1.748,0-3.137-1.345-3.137-3.137
		c0-2.151,1.994-3.496,5.602-3.496h0.627V24.51c0-0.717-0.426-1.165-1.165-1.165c-1.076,0-1.86,1.3-3.003,1.3
		c-0.762,0-1.255-0.515-1.255-1.165c0-1.188,1.614-2.286,4.303-2.286c2.42,0,3.787,1.031,3.787,3.048v3.518H61.978z"></path>
        <path d="M66.863,21.53c0.784,0,1.165,0.314,1.165,0.986c0,0.964-1.031,0.896-1.031,1.591c0,0.179,0.045,0.403,0.134,0.583
		l1.076,2.376c0.112,0.224,0.112,0.314,0.246,0.314c0.112,0,0.134-0.134,0.224-0.314l0.941-2.376
		c0.112-0.246,0.134-0.426,0.134-0.583c0-0.695-1.031-0.627-1.031-1.591c0-0.672,0.381-0.986,1.165-0.986h2.532
		c0.829,0,1.233,0.291,1.233,0.986c0,1.12-1.076,0.941-1.613,2.443l-2.174,6.23c-0.919,2.6-1.994,4.168-4.46,4.168
		c-2.017,0-3.249-1.188-3.249-2.555c0-0.986,0.627-1.636,1.501-1.636c0.583,0,1.121,0.291,1.434,0.852
		c0.291,0.538,0.359,0.964,0.829,0.964c0.448,0,0.941-0.695,1.367-2.129l-3.003-6.163c-0.762-1.591-1.591-1.3-1.591-2.263
		c0-0.695,0.403-0.919,1.233-0.919h2.936V21.53z"></path>
        <path d="M83.29,19.714c0.09,0.247,0.112,0.448,0.112,0.583c0,0.56-0.493,1.031-1.165,1.031c-0.65,0-0.986-0.359-1.434-0.829
		c-0.762-0.829-1.188-1.389-2.443-1.389c-0.964,0-1.703,0.65-1.703,1.457c0,1.457,1.658,1.501,4.056,2.555
		c2.936,1.3,4.392,3.003,4.392,6.051c0,3.765-2.644,6.23-6.678,6.23c-3.989,0-6.701-2.443-6.701-5.692
		c0-2.577,1.636-4.28,4.146-4.28c1.524,0,2.398,0.695,2.398,1.726c0,0.807-0.583,1.255-1.591,1.255c-0.09,0-0.134-0.022-0.224-0.022
		c-1.053,0-1.658,0.56-1.658,1.479c0,1.389,1.502,2.689,3.518,2.689c2.331,0,3.765-1.434,3.765-3.406
		c0-2.599-2.017-3.227-4.885-4.28c-2.331-0.852-3.541-2.062-3.541-4.325c0-2.376,1.77-4.056,4.056-4.056
		c0.717,0,1.345,0.157,1.972,0.538c0.314-0.56,0.807-0.829,1.389-0.829c0.583,0,0.986,0.291,1.188,0.807L83.29,19.714z"></path>
        <path d="M12.541,4.027c0.09,0.247,0.112,0.448,0.112,0.583c0,0.56-0.493,1.031-1.165,1.031c-0.65,0-0.986-0.359-1.434-0.829
		C9.292,3.982,8.866,3.422,7.611,3.422c-0.964,0-1.703,0.65-1.703,1.457c0,1.457,1.658,1.501,4.056,2.555
		c2.936,1.3,4.392,3.003,4.392,6.051c0,3.765-2.644,6.23-6.678,6.23C3.712,19.714,1,17.272,1,14.022c0-2.577,1.636-4.28,4.146-4.28
		c1.524,0,2.398,0.695,2.398,1.726c0,0.807-0.583,1.255-1.591,1.255c-0.09,0-0.134-0.022-0.224-0.022
		c-1.053,0-1.658,0.56-1.658,1.479c0,1.39,1.501,2.689,3.518,2.689c2.331,0,3.765-1.434,3.765-3.406c0-2.6-2.017-3.227-4.885-4.28
		C4.115,8.308,2.905,7.097,2.905,4.834c0-2.375,1.77-4.056,4.056-4.056c0.717,0,1.345,0.157,1.972,0.538
		c0.314-0.56,0.807-0.829,1.389-0.829c0.583,0,0.986,0.291,1.188,0.807L12.541,4.027z"></path>
        <path d="M23.32,10.683c0,3.115-1.882,5.199-4.415,5.199c-2.532,0-4.415-2.039-4.415-5.199c0-3.115,1.882-5.154,4.415-5.154
		C21.438,5.529,23.32,7.568,23.32,10.683z M17.158,10.616c0,1.726,0.627,2.6,1.726,2.6c1.12,0,1.77-0.896,1.77-2.6
		c0-1.703-0.65-2.6-1.77-2.6C17.785,8.016,17.158,8.913,17.158,10.616z"></path>
        <path d="M37.842,11.736h0.157c0.627,0,1.031,0.448,1.031,1.053c0,0.605-0.381,0.919-0.807,1.322l-1.77,1.614
		c-0.269,0.269-0.515,0.403-0.852,0.403c-0.56,0-1.12-0.56-1.12-1.188c0-0.695,0.829-0.919,0.829-2.443v-2.286
		c0-1.165-0.247-1.748-1.165-1.748c-1.165,0-1.658,1.076-1.658,3.249c0,0.762,0.112,1.233,0.403,1.479
		c0.403,0.314,0.829,0.493,0.829,1.255c0,0.672-0.359,1.076-1.031,1.076h-2.779c-0.695,0-1.053-0.269-1.053-0.986
		c0-0.896,0.448-0.919,0.852-1.3c0.224-0.224,0.269-0.583,0.269-1.21V10.19c0-1.165-0.246-1.748-1.165-1.748
		c-1.12,0-1.636,1.053-1.636,3.182c0,0.784,0.09,1.322,0.314,1.569c0.314,0.314,0.695,0.493,0.695,1.255
		c0,0.695-0.314,1.076-0.896,1.076h-2.779c-0.762,0-1.121-0.291-1.121-0.986c0-0.896,0.493-0.941,0.964-1.3
		c0.247-0.157,0.291-0.56,0.291-1.21V9.002h-0.359c-0.717,0-1.098-0.314-1.098-0.919c0-0.403,0.157-0.672,0.538-0.964l1.569-1.21
		c0.314-0.247,0.583-0.403,1.031-0.403c0.538,0,0.896,0.381,0.896,0.919v0.269c0,0.157,0.022,0.269,0.179,0.269
		c0.314,0,0.852-1.457,2.712-1.457c2.017,0,2.241,1.434,2.577,1.434c0.291,0,0.627-1.434,2.6-1.434c1.748,0,2.51,1.076,2.51,3.137
		v3.093H37.842z"></path>
        <path d="M41.697,11.49c0.224,1.165,1.12,1.86,2.151,1.86c1.367,0,1.883-1.21,2.712-1.21c0.583,0,1.098,0.538,1.098,1.322
		c0,1.053-1.389,2.42-3.81,2.42c-2.958,0-4.885-2.129-4.885-5.065c0-3.272,1.972-5.289,4.751-5.289c2.555,0,4.325,1.86,4.325,4.056
		c0,1.569-0.672,1.905-2.263,1.905H41.697z M45.327,8.868c0-0.627-0.583-1.098-1.613-1.098c-0.986,0-1.905,0.717-2.039,1.793h2.286
		C44.924,9.585,45.327,9.451,45.327,8.868z"></path>
        <path d="M52.454,5.842h1.658c0.941,0,1.434,0.426,1.434,1.188c0,0.784-0.448,1.188-1.434,1.188h-1.658v3.81
		c0,0.583,0.022,0.964,0.381,0.964c0.426,0,0.762-0.807,1.479-0.807c0.672,0,1.188,0.56,1.188,1.367
		c0,1.255-1.233,2.308-2.846,2.308c-2.129,0-2.846-1.12-2.846-3.451V8.196h-0.896c-0.807,0-1.21-0.381-1.21-1.165
		c0-0.986,0.829-1.322,1.726-2.286c0.919-0.986,1.165-1.905,2.017-1.905c0.627,0,1.031,0.493,1.031,1.188V4.52v1.322H52.454z"></path>
        <path d="M59.67,12.05c0,0.583,0,0.964,0.246,1.188c0.381,0.314,1.21,0.291,1.21,1.322c0,0.717-0.448,0.986-1.345,0.986h-2.913
		c-0.896,0-1.345-0.269-1.345-1.031c0-0.852,0.583-0.941,1.121-1.255c0.291-0.179,0.314-0.56,0.314-1.21V9.137h-0.224
		c-0.717,0-1.098-0.314-1.098-0.919c0-0.403,0.157-0.695,0.538-0.986l1.524-1.188c0.314-0.269,0.583-0.403,1.031-0.403
		c0.717,0,0.919,0.448,0.919,1.255v5.154H59.67z M60.14,2.884c0,1.233-0.784,2.062-1.86,2.062c-1.076,0-1.882-0.896-1.882-2.062
		c0-1.233,0.807-2.107,1.882-2.107C59.356,0.778,60.14,1.719,60.14,2.884z"></path>
        <path d="M75.514,11.736h0.157c0.627,0,1.031,0.448,1.031,1.053c0,0.605-0.381,0.919-0.807,1.322l-1.77,1.614
		c-0.269,0.269-0.515,0.403-0.852,0.403c-0.56,0-1.12-0.56-1.12-1.188c0-0.695,0.829-0.919,0.829-2.443v-2.286
		c0-1.165-0.247-1.748-1.165-1.748c-1.165,0-1.658,1.076-1.658,3.249c0,0.762,0.112,1.233,0.403,1.479
		c0.403,0.314,0.829,0.493,0.829,1.255c0,0.672-0.359,1.076-1.031,1.076H67.58c-0.695,0-1.053-0.269-1.053-0.986
		c0-0.896,0.448-0.919,0.852-1.3c0.224-0.224,0.269-0.583,0.269-1.21V10.19c0-1.165-0.247-1.748-1.165-1.748
		c-1.12,0-1.636,1.053-1.636,3.182c0,0.784,0.09,1.322,0.314,1.569c0.314,0.314,0.695,0.493,0.695,1.255
		c0,0.695-0.314,1.076-0.896,1.076H62.18c-0.762,0-1.12-0.291-1.12-0.986c0-0.896,0.493-0.941,0.964-1.3
		c0.247-0.157,0.291-0.56,0.291-1.21V9.002h-0.359c-0.717,0-1.098-0.314-1.098-0.919c0-0.403,0.157-0.672,0.538-0.964l1.569-1.21
		c0.314-0.247,0.583-0.403,1.031-0.403c0.538,0,0.896,0.381,0.896,0.919v0.269c0,0.157,0.022,0.269,0.179,0.269
		c0.314,0,0.852-1.457,2.712-1.457c2.017,0,2.241,1.434,2.577,1.434c0.291,0,0.627-1.434,2.6-1.434c1.748,0,2.51,1.076,2.51,3.137
		v3.093H75.514z"></path>
        <path d="M79.368,11.49c0.224,1.165,1.12,1.86,2.151,1.86c1.367,0,1.883-1.21,2.712-1.21c0.583,0,1.098,0.538,1.098,1.322
		c0,1.053-1.39,2.42-3.81,2.42c-2.958,0-4.885-2.129-4.885-5.065c0-3.272,1.972-5.289,4.751-5.289c2.555,0,4.325,1.86,4.325,4.056
		c0,1.569-0.672,1.905-2.263,1.905H79.368z M82.999,8.868c0-0.627-0.583-1.098-1.614-1.098c-0.986,0-1.905,0.717-2.039,1.793h2.286
		C82.595,9.585,82.999,9.451,82.999,8.868z"></path>
        <path d="M97.184,4.027c0.09,0.247,0.112,0.448,0.112,0.583c0,0.56-0.493,1.031-1.165,1.031c-0.65,0-0.986-0.359-1.434-0.829
		c-0.762-0.829-1.188-1.389-2.443-1.389c-0.964,0-1.703,0.65-1.703,1.457c0,1.457,1.658,1.501,4.056,2.555
		C97.543,8.733,99,10.437,99,13.484c0,3.765-2.645,6.23-6.679,6.23c-3.989,0-6.701-2.443-6.701-5.692c0-2.577,1.636-4.28,4.146-4.28
		c1.524,0,2.398,0.695,2.398,1.726c0,0.807-0.583,1.255-1.591,1.255c-0.09,0-0.134-0.022-0.224-0.022
		c-1.053,0-1.658,0.56-1.658,1.479c0,1.39,1.501,2.689,3.518,2.689c2.331,0,3.765-1.434,3.765-3.406c0-2.6-2.017-3.227-4.885-4.28
		c-2.331-0.852-3.541-2.062-3.541-4.325c0-2.375,1.77-4.056,4.056-4.056c0.717,0,1.345,0.157,1.972,0.538
		c0.314-0.56,0.807-0.829,1.389-0.829c0.583,0,0.986,0.291,1.188,0.807L97.184,4.027z"></path>
        <path d="M31.814,28.813h0.269c0.627,0,1.165,0.515,1.165,1.188c0,0.56-0.359,0.964-0.852,1.457l-2.6,2.443
		c-0.314,0.291-0.583,0.493-0.964,0.493c-0.762,0-1.345-0.583-1.345-1.322c0-1.053,1.434-1.479,1.434-3.137
		c0-0.291-0.045-0.672-0.157-1.098l-0.291-1.165h-4.146l-0.493,1.838c-0.986,3.742-3.742,6.006-7.283,6.006
		c-2.017,0-3.182-0.964-3.182-2.331c0-0.964,0.672-1.524,1.882-1.524c0.448,0,1.031,0.09,1.703,0.09c2.308,0,3.653-1.479,4.549-4.46
		l1.681-5.871c0.112-0.359,0.246-0.672,0.246-1.098c0-0.65-0.583-1.188-1.524-1.188c-1.703,0-2.913,1.121-2.913,2.51
		c0,0.672,0.291,1.031,0.852,1.031c0.291,0,0.583-0.157,0.896-0.157c0.56,0,0.941,0.448,0.941,1.21c0,1.121-0.919,1.972-2.331,1.972
		c-2.039,0-3.474-1.479-3.474-3.899c0-3.115,2.039-5.109,5.692-5.109c1.457,0,3.07,0.314,4.93,0.314
		c1.098,0,2.039-0.112,2.846-0.112c0.964,0,1.457,0.426,1.457,1.21c0,1.188-1.479,0.896-1.479,1.927c0,0.224,0.022,0.448,0.09,0.65
		L31.814,28.813z M26.391,20.7c-0.224,0-0.224,0.112-0.269,0.359l-1.076,3.989h2.689l-1.076-3.989
		C26.57,20.79,26.615,20.7,26.391,20.7z"></path>
        <path d="M37.484,27.737c0,0.583,0,0.964,0.247,1.188c0.381,0.314,1.21,0.291,1.21,1.322c0,0.717-0.448,0.986-1.345,0.986h-2.913
		c-0.896,0-1.345-0.269-1.345-1.031c0-0.852,0.583-0.941,1.12-1.255c0.291-0.179,0.314-0.56,0.314-1.21v-7.776h-0.224
		c-0.717,0-1.098-0.314-1.098-0.919c0-0.403,0.157-0.672,0.538-0.964l1.524-1.21c0.314-0.269,0.583-0.403,1.031-0.403
		c0.717,0,0.919,0.448,0.919,1.255v10.017H37.484z"></path>
        <path d="M41.675,21.53c0.717,0,1.098,0.381,1.098,1.076c0,0.964-0.919,1.12-0.919,1.658c0,0.381,0.112,0.627,0.157,0.829
		l0.852,2.689c0.045,0.224,0.09,0.269,0.224,0.269c0.134,0,0.134-0.09,0.179-0.269l0.852-2.913c0.09-0.247,0.134-0.426,0.134-0.627
		c0-0.762-0.964-0.717-0.964-1.703c0-0.695,0.381-1.053,1.12-1.053h2.689c0.762,0,1.098,0.381,1.098,1.053
		c0,1.031-0.964,0.896-0.964,1.703c0,0.224,0.09,0.403,0.134,0.627l0.852,2.913c0.045,0.224,0.09,0.269,0.224,0.269
		s0.134-0.09,0.179-0.269l0.852-2.689c0.09-0.269,0.157-0.493,0.157-0.762c0-0.65-0.896-0.762-0.896-1.748
		c0-0.695,0.359-1.076,1.076-1.076h2.644c0.807,0,1.21,0.291,1.21,1.031c0,1.053-0.986,0.896-1.524,2.42l-2.039,5.916
		c-0.134,0.381-0.426,0.583-0.762,0.583h-1.658c-0.269,0-0.672-0.269-0.784-0.583l-0.986-3.249
		c-0.045-0.224-0.045-0.291-0.179-0.291c-0.134,0-0.134,0.09-0.179,0.291l-0.986,3.249c-0.112,0.314-0.493,0.583-0.784,0.583h-1.658
		c-0.269,0-0.583-0.224-0.717-0.583l-2.039-5.916c-0.538-1.524-1.524-1.367-1.524-2.42c0-0.717,0.403-1.031,1.21-1.031h2.622V21.53z
		"></path>
        <path d="M61.978,27.76c0,0.448,0,0.807,0.224,1.076c0.269,0.359,0.941,0.314,0.941,1.3c0,0.695-0.426,1.098-1.188,1.098h-1.367
		c-1.053,0-1.255-0.538-1.255-1.703v-2.734h-0.515c-1.86,0-2.936,0.583-2.936,1.389c0,0.426,0.426,0.784,0.941,0.784
		c0.403,0,0.65-0.381,1.031-0.381c0.448,0,0.829,0.448,0.829,1.21c0,1.031-0.896,1.748-2.42,1.748c-1.748,0-3.137-1.345-3.137-3.137
		c0-2.151,1.994-3.496,5.602-3.496h0.627V24.51c0-0.717-0.426-1.165-1.165-1.165c-1.076,0-1.86,1.3-3.003,1.3
		c-0.762,0-1.255-0.515-1.255-1.165c0-1.188,1.614-2.286,4.303-2.286c2.42,0,3.787,1.031,3.787,3.048v3.518H61.978z"></path>
        <path d="M66.863,21.53c0.784,0,1.165,0.314,1.165,0.986c0,0.964-1.031,0.896-1.031,1.591c0,0.179,0.045,0.403,0.134,0.583
		l1.076,2.376c0.112,0.224,0.112,0.314,0.246,0.314c0.112,0,0.134-0.134,0.224-0.314l0.941-2.376
		c0.112-0.246,0.134-0.426,0.134-0.583c0-0.695-1.031-0.627-1.031-1.591c0-0.672,0.381-0.986,1.165-0.986h2.532
		c0.829,0,1.233,0.291,1.233,0.986c0,1.12-1.076,0.941-1.613,2.443l-2.174,6.23c-0.919,2.6-1.994,4.168-4.46,4.168
		c-2.017,0-3.249-1.188-3.249-2.555c0-0.986,0.627-1.636,1.501-1.636c0.583,0,1.121,0.291,1.434,0.852
		c0.291,0.538,0.359,0.964,0.829,0.964c0.448,0,0.941-0.695,1.367-2.129l-3.003-6.163c-0.762-1.591-1.591-1.3-1.591-2.263
		c0-0.695,0.403-0.919,1.233-0.919h2.936V21.53z"></path>
        <path d="M83.29,19.714c0.09,0.247,0.112,0.448,0.112,0.583c0,0.56-0.493,1.031-1.165,1.031c-0.65,0-0.986-0.359-1.434-0.829
		c-0.762-0.829-1.188-1.389-2.443-1.389c-0.964,0-1.703,0.65-1.703,1.457c0,1.457,1.658,1.501,4.056,2.555
		c2.936,1.3,4.392,3.003,4.392,6.051c0,3.765-2.644,6.23-6.678,6.23c-3.989,0-6.701-2.443-6.701-5.692
		c0-2.577,1.636-4.28,4.146-4.28c1.524,0,2.398,0.695,2.398,1.726c0,0.807-0.583,1.255-1.591,1.255c-0.09,0-0.134-0.022-0.224-0.022
		c-1.053,0-1.658,0.56-1.658,1.479c0,1.389,1.502,2.689,3.518,2.689c2.331,0,3.765-1.434,3.765-3.406
		c0-2.599-2.017-3.227-4.885-4.28c-2.331-0.852-3.541-2.062-3.541-4.325c0-2.376,1.77-4.056,4.056-4.056
		c0.717,0,1.345,0.157,1.972,0.538c0.314-0.56,0.807-0.829,1.389-0.829c0.583,0,0.986,0.291,1.188,0.807L83.29,19.714z"></path>
        <path d="M71.547,19.849H39.814c-0.695,0-1.277-0.56-1.277-1.277c0-0.717,0.56-1.277,1.277-1.277H71.57
		c0.695,0,1.277,0.56,1.277,1.277C72.847,19.289,72.264,19.849,71.547,19.849z"></path>
    </g>
</svg>