<svg class="svg-logo" xmlns="http://www.w3.org/2000/svg" viewBox="0 0 256.64 105.08">
	<title lang="en">Logo</title>
	<path d="M0,.53H10.86L22.53,33.66h.13L22.53.53h7.86V47.05H19.59L7.93,14.26H7.8l.06,32.79H0ZM33.85,23.79C33.85,9.66,43.25,0,56.91,0S80,9.73,80,23.79s-9.4,23.8-23.13,23.8S33.85,37.92,33.85,23.79Zm23.06,15.4c8.2,0,13.93-6.33,13.93-15.4S65.18,8.46,56.91,8.46,43.05,14.8,43.05,23.79,48.72,39.19,56.91,39.19ZM86.17,8.66h-6.8V.53h22.19V8.66H94.83V47.05H86.17ZM123,31.39,113.29.53h9.2l4.86,20.6h.14L132.75.53h8.6l-9.73,30.86V47.05H123Zm16.86-7.6C139.88,9.66,149.28,0,162.94,0s23.13,9.73,23.13,23.79-9.4,23.8-23.13,23.8S139.88,37.92,139.88,23.79Zm23.06,15.4c8.2,0,13.93-6.33,13.93-15.4S171.2,8.46,162.94,8.46s-13.86,6.34-13.86,15.33S154.74,39.19,162.94,39.19Zm26.32-5.47V.53h8.6V33.86c0,3.33,1.67,5.46,4.66,5.46s4.74-2.13,4.74-5.46V.53h8.59V33.72c0,8.6-4.86,13.87-13.33,13.87S189.26,42.32,189.26,33.72ZM220.65.53h12.4c7.53,0,13.13,4.07,13.13,13.27,0,5.59-2.14,10.53-7.8,12.66l9.4,20.59H238l-8.67-20.53V47.05h-8.66ZM231,20.93c3.73,0,6.47-2.14,6.47-6.8S234.78,7.66,231,7.66h-1.67V20.93ZM4.58,58H17.05L24,88.55h.13L30.84,58H43.3l3.07,46.52H37.71L35.84,69.09h-.13l-8.47,35.46H20.38L11.85,69.09h-.14L9.85,104.55H1.52ZM110,66.16h-6.8V58h22.19v8.13h-6.73v38.39H110Zm36.32,18.66H137v19.73h-8.66V58H137V76.69h9.33V58H155v46.52h-8.66ZM160.08,58h18.59v8.13h-9.93V77.49h9v7.8h-9V96.42H179v8.13H160.08Zm23,0h12.39c7.53,0,13.13,4.06,13.13,13.26,0,5.6-2.13,10.53-7.79,12.66l9.39,20.6H200.4L191.73,84v20.53h-8.66ZM193.4,78.42c3.73,0,6.46-2.13,6.46-6.8s-2.66-6.46-6.46-6.46h-1.67V78.42Zm23.06-10.73c-2.67.07-4.67-1.87-4.67-4.86,0-3.2,2.4-5.14,5.4-5.14s5.46,1.87,5.46,6.4c0,4.27-2.26,9.4-9.66,10.73l-.07-.53A11.14,11.14,0,0,0,216.46,67.69Zm9.66,35.66V93.82c3.06,2.4,5.66,3.39,7.86,3.39,2.4,0,4-1.19,4-4.33A9.31,9.31,0,0,0,235.71,87L229.78,79c-2.26-3-3.86-6.2-3.86-10.33,0-7.33,4.86-11.2,11.79-11.2a23.58,23.58,0,0,1,6.34.94v8.13a14.09,14.09,0,0,0-5.87-1.67c-2.4,0-3.93,1.27-3.93,3.6A7.09,7.09,0,0,0,236,72.82l5.67,7.53c3.13,4.2,5.26,7.4,5.26,12.6,0,7.86-5.13,12.13-12.53,12.13A20.91,20.91,0,0,1,226.12,103.35Zm23.48-2.83v-.13a3.53,3.53,0,1,1,7,0v.11a3.53,3.53,0,1,1-7,0Zm6.58,0v-.11a3.07,3.07,0,1,0-6.11,0v.13a3.15,3.15,0,0,0,3.06,3.37A3.18,3.18,0,0,0,256.18,100.5Zm-4.55-2.16h1.63c.94,0,1.6.42,1.6,1.34v0a1.27,1.27,0,0,1-.77,1.23l.88,1.5h-1.16l-.75-1.28h-.39v1.28h-1Zm1.56,2c.4,0,.62-.2.62-.53s-.22-.55-.62-.55h-.52v1.08Z"></path>
	<path fill="#f17eaf" d="M48.77,76.25A22.31,22.31,0,0,0,51,82.51c2.51,5.31,3.71,7.09,8.16,12l2,2.19a14,14,0,0,0,2,1.85c.43.28,1,.71,1.32.94a11.56,11.56,0,0,0,1.66,1,21.57,21.57,0,0,1,2.26,1.34,7.85,7.85,0,0,0,1.24.78,5.8,5.8,0,0,1,.89.52,11.62,11.62,0,0,0,1.8.9c.55.21,1.17.46,1.37.55a4.5,4.5,0,0,0,1.34.16,3.92,3.92,0,0,1,1.32.19,3.2,3.2,0,0,0,2.25-.49,23.76,23.76,0,0,0,2.49-2.13,9.65,9.65,0,0,1,1.37-.94,15.31,15.31,0,0,0,2.37-1.9,64.55,64.55,0,0,0,5.67-7.28,5.74,5.74,0,0,1,1.06-1.63,14.65,14.65,0,0,0,1.65-2.65c.66-1.53,1.28-2.52,1.53-2.43s.64-.86,2.17-4.28c.15-.34.48-1.22.73-1.94a10.76,10.76,0,0,1,.72-1.66.9.9,0,0,0,.19-.6,3,3,0,0,1,.17-1,11.42,11.42,0,0,0,.37-1.87,2.54,2.54,0,0,1,.3-1.16c.08,0,.18-.44.22-1a4.25,4.25,0,0,1,.19-1.16c.33-.53.32-6.62,0-8.13A9.88,9.88,0,0,0,94,56.64c-2.21-.72-5.65-.72-6.89,0a8.62,8.62,0,0,1-1.26.6,17,17,0,0,0-2.12,1.21A10.12,10.12,0,0,0,81,60.94a37.31,37.31,0,0,0-5.12,8.52c-.65,1.64-.82,1.88-1,1.42a29.42,29.42,0,0,0-6-6.42,11,11,0,0,1-1.25-1,6.6,6.6,0,0,0-1.85-1.17A30.06,30.06,0,0,0,61.6,61a20.82,20.82,0,0,1-2.06-.53c-1.12-.36-1.66-.3-3.18.35l-2.49,1c-2.35,1-3.55,2.48-4.88,6.16a16.68,16.68,0,0,0-.22,8.22Z"></path>
</svg>