<svg class="icon nrgy-logo" xmlns="http://www.w3.org/2000/svg" viewBox="0 0 298 51">
 <title>NRGY by Revo</title>
      <path d="M113.47,17.2c.85-3.97,1.69-7.93,2.55-11.9.09-.51.57-.92,1.09-.92h12.72c.52,0,.8.41.72.92-1.43,6.71-2.88,13.42-4.3,20.13-1.42,6.7-2.84,13.41-4.27,20.12-.09.5-.57.92-1.09.92h-13.21c-.29,0-.52-.12-.63-.34-2.44-4.06-4.86-8.13-7.28-12.18-2.43-4.07-4.84-8.13-7.28-12.19-.86,3.97-1.7,7.94-2.55,11.91-.84,3.96-1.66,7.93-2.52,11.9-.09.5-.6.92-1.12.92h-12.72c-.49,0-.8-.41-.72-.92,1.43-6.71,2.85-13.42,4.27-20.12,1.42-6.71,2.87-13.41,4.3-20.13.09-.51.6-.92,1.09-.92h13.21c.29,0,.54.12.66.34,2.44,4.06,4.85,8.13,7.28,12.19,2.42,4.05,4.84,8.12,7.28,12.18.83-3.97,1.68-7.93,2.52-11.9Z"></path>
      <path d="M144.74,39.78c-.41,1.92-.81,3.84-1.22,5.76-.11.5-.6.91-1.14.91h-12.73c-.49,0-.76-.41-.65-.91,1.41-6.71,2.83-13.42,4.25-20.12,1.42-6.71,2.87-13.41,4.28-20.13.11-.5.57-.92,1.06-.92h35.76c3.01,0,5.48,1.25,7.02,3.21,1.55,1.99,2.22,4.71,1.6,7.72-.57,2.6-1.11,5.19-1.65,7.79-1,4.63-4.82,8.77-9.51,10.31.92,1.94,1.87,3.88,2.79,5.81.93,1.95,1.92,3.87,2.87,5.81.14.29.08.63-.16.95-.22.31-.57.49-.92.49h-13.57c-.3,0-.52-.13-.62-.39-1-2.01-1.99-4.02-2.95-6.02-.96-2.01-1.98-4.02-2.92-6.03h-10.35c-.41,1.92-.81,3.85-1.22,5.76ZM167.28,20.67c.19-.98.41-1.95.62-2.93.41-2-.89-3.64-2.9-3.64h-14.82c-.7,3.41-1.44,6.81-2.17,10.22h14.82c2,0,4.01-1.64,4.44-3.64Z"></path>
      <path d="M193.54,7.59c2.39-1.99,5.43-3.21,8.43-3.21h36.41c.49,0,.81.41.7.92-.54,2.63-1.11,5.25-1.65,7.88-.11.5-.62.92-1.11.92h-29.16c-1.97,0-3.97,1.64-4.38,3.64-.54,2.56-1.09,5.13-1.65,7.69-.55,2.56-1.08,5.12-1.62,7.68-.41,2,.89,3.64,2.86,3.64h15.49c.46-2.16.89-4.32,1.35-6.48h-11.7c-.54,0-.81-.41-.7-.92.54-2.62,1.11-5.25,1.65-7.87.11-.5.59-.92,1.14-.92h25.35c.51,0,.81.41.7.92-.84,4.01-1.7,8.02-2.54,12.03-.84,4.01-1.7,8.02-2.54,12.03-.11.5-.62.91-1.11.91h-36.41c-3.03,0-5.51-1.23-7.05-3.21-1.54-1.98-2.16-4.71-1.54-7.72.73-3.37,1.42-6.74,2.14-10.11.72-3.37,1.43-6.74,2.16-10.11.62-3.01,2.42-5.75,4.78-7.72Z"></path>
      <path d="M250.94,19.9c-2.15-4.7-4.27-9.4-6.41-14.1-.12-.29-.05-.63.15-.94.25-.31.59-.49.91-.49h13.52c.3,0,.52.15.67.41,1.23,2.77,2.5,5.54,3.75,8.31,1.24,2.76,2.54,5.53,3.8,8.3,2.42-2.77,4.86-5.53,7.28-8.3,2.42-2.77,4.89-5.54,7.33-8.31.22-.26.54-.41.86-.41h13.47c.34,0,.59.18.69.49.12.3.03.65-.25.94-4.12,4.7-8.29,9.4-12.41,14.1-4.12,4.7-8.27,9.39-12.39,14.09-.42,1.92-.83,3.84-1.23,5.76-.41,1.92-.81,3.84-1.21,5.76-.12.5-.59.92-1.11.92h-12.73c-.49,0-.84-.41-.72-.92.39-1.92.8-3.84,1.21-5.76.41-1.92.81-3.84,1.23-5.76-2.12-4.7-4.27-9.39-6.42-14.09Z"></path>
    <path d="M64.22,25.48v-5.89c0-2.25-1.81-4.07-4.05-4.07h-19.46c-1.08,0-2.11-.43-2.87-1.19l-1.15-1.15c-.76-.76-1.19-1.8-1.19-2.88v-4.74c0-2.25-1.81-4.07-4.05-4.07h-15.13c-2.24,0-4.05,1.82-4.05,4.07v5.89c0,2.25,1.81,4.07,4.05,4.07h13.98c1.08,0,2.11.43,2.87,1.19l1.15,1.15c.76.76,1.19,1.8,1.19,2.88v3.59c0,1.08-.43,2.11-1.19,2.88l-1.14,1.15c-.76.76-1.79,1.19-2.87,1.19H4.91c-2.24,0-4.05,1.82-4.05,4.07v5.89c0,2.25,1.81,4.07,4.05,4.07h26.54c2.24,0,4.05-1.82,4.05-4.07v-4.74c0-1.08.43-2.11,1.19-2.88l1.14-1.15c.76-.76,1.79-1.19,2.87-1.19h19.46c2.24,0,4.05-1.82,4.05-4.07Z"></path>
</svg>