<svg class="logo--dark" width="191" height="63" viewBox="0 0 191 63" xmlns="http://www.w3.org/2000/svg" xmlns:xlink="http://www.w3.org/1999/xlink"><defs><path id="a" d="M.906.13h10.969v10.949H.906z"></path><path id="c" d="M.112.13H11.08v10.949H.112z"></path></defs><g fill="none" fill-rule="evenodd"><path d="M110.286 36.673l-7.782-6.424 5.792-4.906c1.443-1.206 2.165-2.257 2.165-3.153 0-.897-.635-2.132-1.9-3.71-1.27-1.576-2.39-2.365-3.366-2.365-.975 0-2.145.525-3.51 1.577l-.702.467c-.702.584-1.766 1.578-3.189 2.979-1.424 1.401-2.486 2.394-3.188 2.978V5.602c0-.739-.02-1.284-.059-1.635-.039-1.167-.39-2.024-1.053-2.57-.781-.66-2.107-.992-3.979-.992-2.496 0-4.018.525-4.564 1.577-.273.583-.438 1.1-.496 1.548-.059.447-.088 1.119-.088 2.014v34.983c0 .895.03 1.568.088 2.015.058.448.223.964.496 1.549.546 1.05 2.049 1.576 4.506 1.576 2.496 0 3.997-.505 4.505-1.518.311-.584.497-1.1.556-1.548.058-.447.088-1.12.088-2.015v-4.497c.974.78 2.399 2.093 4.27 3.943 1.873 1.85 3.256 3.143 4.154 3.884l.585.408c1.522 1.13 2.712 1.693 3.57 1.693 1.013 0 2.184-.817 3.51-2.452 1.208-1.596 1.813-2.861 1.813-3.797 0-.388-.127-.797-.38-1.227-.253-.427-.868-1.05-1.842-1.868M125 15.94c-.782-.662-2.107-.994-3.981-.994-2.497 0-4.017.507-4.563 1.52-.274.583-.438 1.1-.498 1.547-.058.448-.086 1.12-.086 2.015v20.499c0 .935.028 1.616.086 2.045.06.43.224.935.498 1.518.546 1.052 2.048 1.577 4.504 1.577 2.498 0 4-.506 4.507-1.52.31-.583.496-1.098.555-1.547.06-.446.087-1.119.087-2.014V20.145c0-.74-.019-1.305-.057-1.694-.04-1.13-.39-1.965-1.053-2.511M149.105 33.811c-.958 1.05-2.155 1.577-3.598 1.577-1.444 0-2.673-.526-3.686-1.577-1.015-1.05-1.522-2.22-1.522-3.505 0-1.284.469-2.46 1.405-3.531.936-1.071 2.183-1.608 3.744-1.608 1.56 0 2.798.545 3.715 1.636.917 1.09 1.374 2.267 1.374 3.532 0 1.267-.477 2.425-1.432 3.476m11.234-31.712c-.293-.584-.81-.994-1.55-1.227-.742-.234-1.726-.351-2.956-.351-1.229 0-2.214.117-2.954.351-.742.233-1.258.633-1.55 1.197-.293.566-.47 1.07-.527 1.52-.06.448-.089 1.117-.089 2.015v12.263c-1.6-1.946-3.842-2.92-6.728-2.92-3.472 0-6.66 1.539-9.565 4.613-2.907 3.077-4.36 6.65-4.36 10.718 0 4.069 1.443 7.631 4.33 10.688 2.886 3.055 6.084 4.585 9.595 4.585 2.926 0 5.207-.934 6.845-2.804.312 1.909 1.824 2.862 4.535 2.862 2.71 0 4.36-.526 4.943-1.578.313-.544.498-1.04.557-1.489.06-.446.088-1.12.088-2.015V5.66c0-.894-.029-1.567-.088-2.013-.059-.448-.234-.964-.526-1.548M189.3 30.978c-.761-1.342-1.707-2.287-2.839-2.832-2.419-1.206-4.914-1.947-7.488-2.22-2.654-.35-3.978-1.108-3.978-2.277 0-.856 1.149-1.285 3.451-1.285 1.482 0 2.856.292 4.124.877 1.268.583 2.136.876 2.605.876.896 0 1.774-.681 2.632-2.045.859-1.362 1.288-2.51 1.288-3.446 0-.934-.683-1.713-2.048-2.335-2.926-1.324-5.773-1.986-8.541-1.986-8.466 0-12.697 3.076-12.697 9.227 0 2.064.37 3.846 1.11 5.344.741 1.499 1.678 2.599 2.81 3.3 2.417 1.48 4.855 2.394 7.313 2.745 2.613.35 3.92.896 3.92 1.636 0 .934-1.19 1.401-3.569 1.401-1.327 0-2.809-.476-4.447-1.432-1.638-.953-2.935-1.43-3.89-1.43-.957 0-1.649.331-2.078.993-1.483 2.065-2.223 3.601-2.223 4.614s.37 1.752 1.113 2.22c3.47 2.18 7.087 3.27 10.852 3.27 3.764 0 6.894-.604 9.39-1.81 1.366-.701 2.429-1.762 3.19-3.183.76-1.421 1.14-3.144 1.14-5.17 0-2.024-.38-3.708-1.14-5.052" fill="#858381" fill-rule="nonzero"></path><g transform="translate(114.6)"><mask id="b" fill="#fff"><use xlink:href="#a"></use></mask><path d="M6.39.13A5.48 5.48 0 00.906 5.604a5.48 5.48 0 005.484 5.474 5.48 5.48 0 005.485-5.474A5.48 5.48 0 006.39.129" fill="#858381" fill-rule="nonzero" mask="url(#b)"></path></g><path d="M17.085 15.006c-2.615 0-4.896 1.187-6.846 3.562V5.66c0-.895-.03-1.566-.088-2.015-.058-.446-.244-.963-.556-1.548C9.088 1.048 7.605.521 5.148.521c-2.496 0-4.018.526-4.563 1.577-.274.546-.439 1.042-.497 1.49C.029 4.036 0 4.707 0 5.603v34.924c0 .935.03 1.616.088 2.045.058.43.223.935.497 1.518.545 1.052 2.048 1.577 4.505 1.577 2.496 0 3.998-.506 4.505-1.52.312-.583.498-1.098.556-1.547.059-.446.088-1.119.088-2.014v-11.33c.156-1.051.76-1.995 1.813-2.832 1.054-.837 2.272-1.256 3.657-1.256 1.384 0 2.525.447 3.423 1.342.896.896 1.346 2.142 1.346 3.738V40.47c0 .934.029 1.635.087 2.102.06.467.244.992.556 1.575.586 1.014 2.068 1.52 4.447 1.52 2.496 0 3.998-.506 4.506-1.52.31-.583.496-1.098.555-1.547.058-.446.087-1.119.087-2.014V30.308c0-4.283-1.296-7.905-3.89-10.864-2.595-2.958-5.842-4.438-9.741-4.438M44.434 15.94c-.781-.662-2.107-.994-3.98-.994-2.496 0-4.018.507-4.563 1.52-.274.583-.439 1.1-.497 1.547-.059.448-.088 1.12-.088 2.015v20.499c0 .935.03 1.616.088 2.045.058.43.223.935.497 1.518.545 1.052 2.048 1.577 4.506 1.577 2.495 0 3.997-.506 4.504-1.52.312-.583.498-1.098.556-1.547.059-.446.088-1.119.088-2.014V20.145c0-.74-.02-1.305-.059-1.694-.039-1.13-.39-1.965-1.052-2.511M69.067 33.404c-.994 1.011-2.204 1.518-3.627 1.518-1.424 0-2.595-.516-3.51-1.548-.917-1.031-1.376-2.17-1.376-3.417 0-1.247.449-2.394 1.346-3.446.897-1.051 2.097-1.577 3.6-1.577 1.5 0 2.72.517 3.655 1.549.936 1.031 1.404 2.189 1.404 3.474 0 1.283-.497 2.434-1.492 3.447m7.226-13.96c-2.847-2.998-5.86-4.497-9.04-4.497-3.179 0-5.509 1.012-6.99 3.037-.118-1.01-.538-1.781-1.26-2.307-.721-.525-2.116-.787-4.182-.787-2.068 0-3.375.523-3.92 1.575-.274.545-.44 1.032-.498 1.46-.058.43-.087 1.09-.087 1.987v37.785c0 .895.029 1.557.087 1.987.059.426.234.913.527 1.458.292.546.8.935 1.522 1.169.72.233 1.686.35 2.895.35s2.165-.117 2.867-.35c.702-.234 1.2-.633 1.492-1.198.292-.564.468-1.06.527-1.488.059-.43.088-1.092.088-1.987V42.164c1.442 1.79 3.762 2.685 6.962 2.685 3.198 0 6.211-1.499 9.039-4.498 2.828-2.996 4.242-6.482 4.242-10.452 0-3.973-1.424-7.456-4.271-10.455" fill="#6FACCA" fill-rule="nonzero"></path><g transform="translate(34.83)"><mask id="d" fill="#fff"><use xlink:href="#c"></use></mask><path d="M5.596.13A5.48 5.48 0 00.112 5.604a5.479 5.479 0 005.484 5.474 5.479 5.479 0 005.484-5.474A5.48 5.48 0 005.596.129" fill="#6FABCA" fill-rule="nonzero" mask="url(#d)"></path></g></g></svg>