<svg class="Icon__logo NavigationDesktop__icon--logo" xmlns="http://www.w3.org/2000/svg" viewBox="0 0 201 17"> <path d="M101.1,11c-0.1,0-0.2,0.1-0.2,0h-3.9V8.8h2.8c0.1,0,0.2,0,0.2,0c0.1,0,0.1,0.1,0.2,0.1h0V8h0c0,0.1-0.1,0.1-0.2,0.2
        c-0.1,0-0.2,0.1-0.2,0.1h-2.8V5.9h3.7c0.1,0,0.2,0,0.2,0s0.1,0.1,0.2,0.2h0.1l-0.1-0.9h-4.9v0c0.1,0,0.1,0.1,0.2,0.2
        c0,0.1,0.1,0.2,0.1,0.2v5.6c0,0.1,0,0.2-0.1,0.2c0,0.1-0.1,0.1-0.2,0.2v0h5.2l0.1-0.9h0C101.2,10.9,101.1,11,101.1,11z"></path> <path d="M102.6,5.3l-0.1,0.9h0.1c0-0.1,0.1-0.1,0.2-0.2c0.1,0,0.2-0.1,0.2,0h2.2v5.4c0,0.1,0,0.2-0.1,0.2c0,0.1-0.1,0.1-0.2,0.2v0
        h1.2v0c-0.1,0-0.1-0.1-0.2-0.2c0-0.1-0.1-0.2-0.1-0.2V5.9h2.2c0.1,0,0.2,0,0.2,0c0.1,0,0.1,0.1,0.2,0.2h0l-0.1-0.9H102.6z"></path> <path d="M13.7,0.7c0.4,0.2,0.5,0.6,0.3,1l-5.7,13l-5.7-13c-0.2-0.4-0.1-0.7,0.3-1V0.6H0v0.1c0.3,0.1,0.5,0.5,0.8,1l6.1,13.8
        c0.2,0.5,0.1,0.8-0.3,1v0.1h3.3v-0.1c-0.3-0.2-0.4-0.5-0.3-1l6.1-13.8c0.2-0.5,0.5-0.8,0.8-1V0.6L13.7,0.7L13.7,0.7z"></path> <path d="M31.2,14.8L31.2,14.8l-9.6,0V8.2h7.7c0.2,0,0.4,0,0.6,0.1s0.3,0.2,0.4,0.4h0.1V6.1h-0.1c-0.1,0.2-0.3,0.3-0.4,0.4
        c-0.2,0.1-0.4,0.1-0.6,0.1h-7.7V2.2h9c0.5,0,0.8,0.2,1,0.5h0.1l-0.3-2.1H19.2v0.1c0.2,0.1,0.3,0.2,0.4,0.4c0.1,0.2,0.1,0.4,0.1,0.6
        v13.7c0,0.2,0,0.4-0.1,0.6c-0.1,0.2-0.2,0.3-0.4,0.4v0.1h12.7l0.3-2.1h-0.1C32,14.6,31.7,14.8,31.2,14.8z"></path> <path d="M48.4,0.7c0.2,0.1,0.3,0.2,0.4,0.4c0.1,0.2,0.1,0.4,0.1,0.6V12c-0.3-0.5-0.8-1.1-1.7-1.8c-0.8-0.7-1.8-1.4-2.8-2.1
        c-1-0.7-2-1.4-2.9-2.2c-1.9-1.5-3.4-3.1-3.4-4.3v0c0-0.2,0-0.4,0.1-0.6c0.1-0.2,0.2-0.3,0.4-0.4V0.6h-2.8v0.1
        c0.2,0.1,0.3,0.2,0.4,0.4c0.1,0.2,0.1,0.4,0.1,0.6v13.7c0,0.2,0,0.4-0.1,0.6c-0.1,0.2-0.2,0.3-0.4,0.4v0.1h2.8v-0.1
        c-0.2-0.1-0.3-0.2-0.4-0.4c-0.1-0.2-0.1-0.4-0.1-0.6V4.8c0.3,0.5,0.8,1.1,1.6,1.8c0.8,0.7,1.8,1.4,2.8,2.1c1,0.7,2,1.4,3,2.2
        c1.9,1.5,3.4,3.1,3.4,4.4v0c0,0.2,0,0.4-0.1,0.6c-0.1,0.2-0.2,0.3-0.4,0.4v0.1h2.8v-0.1c-0.2-0.1-0.3-0.2-0.4-0.4
        c-0.1-0.2-0.1-0.4-0.1-0.6V1.6c0-0.2,0-0.4,0.1-0.6c0.1-0.2,0.2-0.3,0.4-0.4V0.6L48.4,0.7L48.4,0.7z"></path> <path d="M75.1,3.9L75.1,3.9c0-1.5,1.6-2.3,3.9-2.3c1.2,0,2.4,0.2,3.4,0.7c1.1,0.5,2,1,2.6,1.7h0.1V1.3H85c0,0.1-0.1,0.1-0.2,0.2
        c-0.1,0-0.2,0.1-0.2,0C84.2,1.5,81.8,0,79,0c-1.7,0-3,0.4-4.1,1.1c-1,0.7-1.6,1.7-1.6,2.9c0,5.4,11.2,3.6,11.2,8.1
        c0,0.9-0.5,1.7-1.4,2.4c-0.9,0.6-2.2,0.9-3.7,0.9c-1.8,0-3.1-0.3-4.2-0.9c-1.1-0.6-1.9-2.2-1.9-2.2v3.6l0,0c0.1-0.1,0.3-0.2,0.4-0.2
        c0.2,0,0.3,0,0.5,0.1c1.3,0.8,2.9,1.2,5.1,1.2c2.1,0,3.7-0.5,5-1.4c1.3-0.9,1.9-2.1,1.9-3.6C86.3,6.2,75.1,7.7,75.1,3.9z"></path> <path d="M67.1,0.7c0.2,0.1,0.3,0.2,0.4,0.4c0.1,0.2,0.1,0.4,0.1,0.6v8.8c0,3.2-2.1,4.9-5.3,4.9c-3.2,0-5.3-1.8-5.3-4.9V1.6
        c0-0.2,0-0.4,0.1-0.6c0.1-0.2,0.2-0.3,0.4-0.4V0.6h-2.8v0.1c0.2,0.1,0.3,0.2,0.4,0.4c0.1,0.2,0.1,0.4,0.1,0.6l0,8.7
        c0,2.1,0.6,3.7,1.9,4.9s3,1.8,5.1,1.8c2.1,0,3.8-0.6,5.1-1.8c1.3-1.2,1.9-2.8,1.9-4.9V1.6c0-0.2,0-0.4,0.1-0.6
        c0.1-0.2,0.2-0.3,0.4-0.4V0.6L67.1,0.7L67.1,0.7z"></path> <path d="M200.3,16.3c-0.2-0.1-0.4-0.3-0.6-0.5c-0.2-0.3-0.5-0.6-0.7-0.9c-0.9-1.2-2-2.8-2.3-3.2c-0.4-0.6-1-1.1-1.6-1.5
        c2.7-0.5,4.5-2.3,4.5-4.8c0-1.5-0.5-2.7-1.7-3.5c-1.1-0.9-2.5-1.4-4.3-1.4h-8.4v0.1c0.2,0.1,0.3,0.2,0.4,0.4
        c0.1,0.2,0.1,0.4,0.1,0.6v13.7c0,0.2,0,0.4-0.1,0.6c-0.1,0.2-0.2,0.3-0.4,0.4v0.1h2.8v-0.1c-0.2-0.1-0.3-0.2-0.4-0.4
        c-0.1-0.2-0.1-0.4-0.1-0.6v-4.8h4.2c2.2,0,3.5,2.2,4.8,4c0.2,0.2,0.4,0.6,0.7,1c0.1,0.1,0.2,0.3,0.2,0.4c0,0.2,0,0.3,0,0.5
        L200.3,16.3L200.3,16.3L200.3,16.3z M193.6,9h-6V2.2h6c2.6,0,4.2,1.2,4.2,3.3C197.8,7.7,196.1,9,193.6,9z"></path> <path d="M178.7,0.7c0.2,0.1,0.3,0.2,0.4,0.4c0.1,0.2,0.1,0.4,0.1,0.6v8.8c0,3.2-2.1,4.9-5.3,4.9c-3.2,0-5.3-1.8-5.3-4.9V1.6
        c0-0.2,0-0.4,0.1-0.6c0.1-0.2,0.2-0.3,0.4-0.4V0.6h-2.8v0.1c0.2,0.1,0.3,0.2,0.4,0.4c0.1,0.2,0.1,0.4,0.1,0.6l0,8.7
        c0,2.1,0.6,3.7,1.9,4.9c1.3,1.2,3,1.8,5.1,1.8c2.1,0,3.8-0.6,5.1-1.8s1.9-2.8,1.9-4.9V1.6c0-0.2,0-0.4,0.1-0.6
        c0.1-0.2,0.2-0.3,0.4-0.4V0.6L178.7,0.7L178.7,0.7z"></path> <path d="M118.4,0.6L118.4,0.6c0.2,0.2,0.3,0.3,0.4,0.5c0.1,0.2,0.1,0.4,0.1,0.6v13.7c0,0.2,0,0.4-0.1,0.6c-0.1,0.2-0.2,0.3-0.4,0.4
        v0.1h2.8v-0.1c-0.2-0.1-0.3-0.2-0.4-0.4c-0.1-0.2-0.1-0.4-0.1-0.6V8.2h7.7c0.2,0,0.4,0,0.6,0.1c0.2,0.1,0.3,0.2,0.4,0.4h0.1V6.1
        h-0.1c-0.1,0.2-0.3,0.3-0.4,0.4c-0.2,0.1-0.4,0.1-0.6,0.1h-7.7V2.2h9c0.5,0,0.8,0.2,1,0.5h0.1l-0.3-2.1H118.4z"></path> <path d="M145.4,14.8h-8.6V1.6c0-0.2,0-0.4,0.1-0.6c0.1-0.2,0.2-0.3,0.4-0.4V0.6h-2.8v0.1c0.2,0.1,0.3,0.2,0.4,0.4
        c0.1,0.2,0.1,0.4,0.1,0.6v13.7c0,0.2,0,0.4-0.1,0.6c-0.1,0.2-0.2,0.3-0.4,0.4v0.1l11.7,0l0.3-2.1h-0.1
        C146.2,14.6,145.9,14.8,145.4,14.8z"></path> <path d="M161.7,14.8h-9.6V8.2h7.7c0.2,0,0.4,0,0.6,0.1c0.2,0.1,0.3,0.2,0.4,0.4h0.1V6.1h-0.1c-0.1,0.2-0.3,0.3-0.4,0.4
        s-0.4,0.1-0.6,0.1h-7.7V2.2h9c0.5,0,0.8,0.2,1,0.5h0.1l-0.3-2.1h-12.1v0.1c0.2,0.1,0.3,0.2,0.4,0.4c0.1,0.2,0.1,0.4,0.1,0.6v13.7
        c0,0.2,0,0.4-0.1,0.6c-0.1,0.2-0.2,0.3-0.4,0.4v0.1h12.7l0.3-2.1l-0.1,0C162.5,14.6,162.2,14.8,161.7,14.8z"></path> </svg>