<svg aria-hidden="true" viewBox="0 0 311 34.78" focusable="false" version="1.2" baseProfile="tiny-ps" xmlns="http://www.w3.org/2000/svg" width="176" height="30" fill="none" class="logo-platanomelon" fetchpriority="high" loading="eager"><path class="cls-2" fill-rule="evenodd" clip-rule="evenodd" d="M31.77 1.8h7.98v32.8h-7.98V1.8Zm35.85 7.92h4.97V4.07h7.98v5.65h4.97v1.54h-4.97V34.6h-7.98l-.04-23.34h-4.94V9.72Zm61.21 24.88c6.02-15.72 3.81-22.17-.18-22.66-.24-.06-.49-.06-.74-.06-4.54 0-7.06 5.34-7.06 10.87V34.6h-8.04V9.72h8.04v3.32c1.97-2.21 4.73-3.56 7.74-3.56 6.14 0 17.68 5.1 9.03 25.12h-8.78Zm27.41-25.12c7.49 0 13.57 5.65 13.57 12.65s-6.08 12.65-13.57 12.65-13.57-5.65-13.57-12.65 6.14-12.65 13.57-12.65Zm4.85 21.98c.86 0 1.6-.24 2.27-.8 4.91-4.12-5.59-17.87-11.97-17.87-.86 0-1.66.25-2.33.8-4.91 4.12 5.65 17.87 12.03 17.87Z" fill="currentColor"></path><path class="cls-1" fill-rule="evenodd" clip-rule="evenodd" d="M86.53 12.64s5.28-3.16 10.56-3.16c3.07 0 13.02 0 13.02 12.59V34.6H102v-3.23c-2.77 2.17-6.57 3.41-10.07 3.41-4.18 0-7.2-1.8-8.12-4.71-1.23-3.9 2.23-8.62 8.37-10.36 1.6-.5 3.19-.74 4.73-.74 1.9 0 3.68.37 5.1 1.12 0-5.33 0-7.44-1.35-8.19h-.02c-.3-.13-.6-.25-.96-.25-2.09 0-5.22 1.67-10.13 7.32l-3.01-6.33Zm13.66 16.94c-2.27 2.72-5.77 3.55-7.8 1.86-2.03-1.7-1.84-5.28.44-8 2.27-2.72 5.77-3.55 7.8-1.86s1.84 5.28-.43 8ZM57 9.48c-4.78 0-8.5 1.29-11.74 3.16l3.24 6.33c4.25-5 7.13-7.32 9.9-7.32s2.57 4.23 2.33 8.43c-1.41-.74-3.11-1.12-5.1-1.12-5.02 0-13.35 3.05-13.35 9.65 0 3.11 2.98 6.16 8.37 6.16 3.5 0 7.31-1.24 10.07-3.41v3.23h8.11V22.06c0-11.28-8.11-12.59-11.84-12.59Zm1.92 20.1c-2.27 2.72-5.77 3.55-7.8 1.86-2.03-1.7-1.84-5.28.44-8 2.27-2.72 5.77-3.55 7.8-1.86s1.84 5.28-.43 8Z" fill="currentColor"></path><path class="cls-2" fill-rule="evenodd" clip-rule="evenodd" d="M221.47 20.9c.68 1.41 1.6 2.95 2.82 4.3 2.39 3.01 5.95 6.14 9.45 6.14 1.72 0 4.08-.73 5.78-2.83h.91c-2.33 3.81-6.69 6.26-11.72 6.26-7.43 0-13.44-5.65-13.44-12.65s6.02-12.65 13.44-12.65c6.26 0 13.2 4.54 13.2 11.42h-20.44Zm-.67-1.54h11.79c-2.46-4.73-5.59-6.75-8.16-6.75-1.11 0-2.03.37-2.82.98-1.53 1.23-1.53 3.38-.8 5.77ZM243.94 1.8h7.98v32.8h-7.98V1.8Zm23.56 7.68c7.49 0 13.57 5.65 13.57 12.65s-6.08 12.65-13.57 12.65-13.57-5.65-13.57-12.65 6.14-12.65 13.57-12.65Zm4.85 21.98c.86 0 1.6-.25 2.27-.8 4.91-4.12-5.59-17.87-11.97-17.87-.86 0-1.66.25-2.33.8-4.91 4.12 5.65 17.87 12.03 17.87ZM271.49 0l-10.87 8.11.18.37 13.63-3.38-2.95-5.1Zm27.62 34.6c6.02-15.72 3.81-22.17-.18-22.66-.25-.06-.49-.06-.74-.06-4.54 0-7.06 5.34-7.06 10.87V34.6h-8.04V9.72h8.04v3.32c1.96-2.21 4.72-3.56 7.74-3.56 6.14 0 17.68 5.1 9.02 25.12h-8.78Z" fill="currentColor"></path><path class="cls-2" fill-rule="evenodd" clip-rule="evenodd" d="M195.8 24.94c-1.25-15.47-7.18-23.72-15-23.72-7.28 0-9.05 10.5-9.05 15.95s1.32 12.71 3.23 17.42h6.75c-4.32-6.68-6.43-14.08-6.43-19.26 0-4.75.94-10.9 4.23-10.9 6.63 0 9 18.26 7.31 30.16h7.62c3.25-10.07 9.08-29.23 9.08-29.23-.98 11.53.32 22.62 4.49 29.24h8.75c-5.18-8.58-6.79-21.44-5.31-32.86h-8.42l-7.27 23.2Z" fill="currentColor"></path><path class="cls-1" fill-rule="evenodd" clip-rule="evenodd" d="M0 34.6h8.04V19.21c2.33 1.84 5.53 2.95 9.09 2.95 6.94 0 12.59-4.36 12.59-10.3S24.07 1.49 17.13 1.49c-3.56 0-6.75 1.17-9.09 3.01V1.8H0v32.8Zm10.78-18.45c3.13 3.75 7.95 4.9 10.75 2.55 2.8-2.34 2.53-7.28-.6-11.03-3.13-3.75-7.95-4.9-10.75-2.55-2.8 2.34-2.53 7.28.6 11.03Z" fill="currentColor"></path></svg>