<svg class="icon icon-logo" width="133px" height="24px" viewBox="0 0 133 24" version="1.1" xmlns:xlink="http://www.w3.org/1999/xlink" xmlns="http://www.w3.org/2000/svg">
  <title>Stetson</title>
  <g id="Group-2">
    <path d="M0 11.5899C0 5.1888 4.98034 0 11.6482 0C17.5742 0 22.6937 5.05646 22.6937 11.5899C22.6937 17.9911 17.5522 23.1813 11.0462 23.1813C5.49531 23.1813 0 18.3854 0 11.5899ZM4.32823 11.5611C4.32823 17.0517 7.368 20.9287 11.1607 20.9287C15.5287 20.9287 18.3648 16.7355 18.3648 11.5611C18.3648 6.28183 15.4965 2.19429 11.5337 2.19429C7.16914 2.19429 4.32823 6.39017 4.32823 11.5611Z" transform="translate(85.89087 0.04566765)" id="Fill-1" fill="#3F1E20" fill-rule="evenodd" stroke="none"></path>
    <path d="M10.8322 19.752L5.92526 19.7013L5.92526 10.5243L8.4912 10.5243C10.5957 10.5243 11.0619 11.304 11.256 12.0267L11.6825 11.952L11.6825 7.09166L11.256 7.01623C11.0846 7.6512 10.296 8.25051 8.4912 8.25051L5.92526 8.25051L5.92526 2.40686L10.2898 2.41851C11.9129 2.41851 12.6021 3.01234 12.8153 3.9696L13.2411 3.89417L13.8891 0.133714L13.7808 0C13.3282 0.0843428 11.6606 0.133714 11.2032 0.133714L0.0747429 0.133714L0 0.558857C1.13143 0.846857 2.184 1.64914 2.184 3.02606L2.184 19.1767C2.184 20.5529 1.13143 21.3559 0 21.6446L0.0747429 22.0697L14.1977 22.0697L14.8594 18.2318L14.4336 18.157C13.5374 19.2528 12.517 19.752 10.8322 19.752" transform="translate(34.94678 0.5058517)" id="Fill-3" fill="#3F1E20" stroke="none"></path>
    <path d="M9.01166 9.39223C6.26263 8.01874 4.22606 6.89349 4.22606 4.98103C4.22606 3.26057 5.63726 2.05714 7.75954 2.05714C10.0594 2.05714 11.2869 3.80914 11.6928 5.41714L12.1179 5.3424L12.6082 1.75131C12.6082 1.75131 10.5017 0 7.79863 0C4.29531 0 0.8208 2.04823 0.8208 6.04457C0.8208 9.24754 3.56366 10.8946 6.82354 12.8489C9.74537 14.6002 10.6094 15.8942 10.6094 17.3877C10.6094 19.2507 8.92663 20.9376 6.4704 20.9376C4.19589 20.9376 2.23269 19.6005 1.1328 16.9241L0.7104 17.0222L0 21.1447C1.78491 22.2987 4.30217 23.1641 6.59589 23.1641C11.5104 23.1641 14.2704 19.7856 14.2704 16.3783C14.2704 14.1387 13.3947 11.5817 9.01166 9.39223" id="Fill-5" fill="#3F1E20" stroke="none"></path>
    <path d="M9.01097 9.39223C6.26194 8.01874 4.22537 6.89349 4.22537 4.98103C4.22537 3.26057 5.63657 2.05714 7.75954 2.05714C10.0587 2.05714 11.2862 3.80914 11.6921 5.41714L12.1179 5.3424L12.6075 1.75131C12.6075 1.75131 10.501 0 7.79794 0C4.29463 0 0.8208 2.04823 0.8208 6.04457C0.8208 9.24754 3.56434 10.8946 6.82423 12.8489C9.74537 14.6002 10.6094 15.8942 10.6094 17.3877C10.6094 19.2507 8.92663 20.9376 6.46971 20.9376C4.19589 20.9376 2.232 19.6005 1.1328 16.9241L0.711086 17.0222L0 21.1447C1.78423 22.2987 4.30149 23.1641 6.59589 23.1641C11.5111 23.1641 14.2704 19.7856 14.2704 16.3783C14.2704 14.1387 13.3947 11.5817 9.01097 9.39223" transform="translate(70.18042 0)" id="Fill-7" fill="#3F1E20" stroke="none"></path>
    <path d="M19.0087 0C18.5561 0.0843428 16.8885 0.133029 16.4311 0.133029L3.33257 0.133029C2.8752 0.133029 1.20823 0.0843428 0.754972 0L0.646629 0.133029L0 3.88251L0.426514 3.95794C0.874972 3.04114 1.81166 2.40754 3.11589 2.40754L7.81029 2.40754L7.81029 19.1774C7.81029 20.5529 6.7584 21.3559 5.62629 21.6439L5.70172 22.0697L13.6601 22.0697L13.7355 21.6439C12.6027 21.3559 11.5515 20.5529 11.5515 19.1774L11.5515 2.40754L15.4745 2.40754C17.099 2.40754 17.8313 3.00069 18.0453 3.95794L18.4711 3.88251L19.117 0.133029L19.0087 0Z" transform="translate(50.76904 0.5057144)" id="Fill-9" fill="#3F1E20" stroke="none"></path>
    <path d="M21.2187 0.555429C20.3335 0.767314 19.6313 1.4976 19.6313 2.65166L19.6313 22.6834L18.9346 22.6834L4.34743 4.93577L4.2864 4.9968C4.2864 4.9968 4.45577 5.2608 4.45577 5.84503L4.45577 19.1739C4.45577 20.5543 5.51108 21.3545 6.64594 21.6418L6.56571 22.0663L0.0754285 22.0663L0 21.6418C1.13074 21.3545 2.18537 20.5543 2.18537 19.1739L2.18537 3.02811C2.18537 1.64846 1.13074 0.847543 0 0.555429L0.0754285 0.131657L2.56251 0.131657C3.0192 0.131657 4.68205 0.0891429 5.13394 0L17.4692 15.0816L17.531 15.0206C17.531 15.0206 17.3609 14.7559 17.3609 14.1765L17.3609 3.02811C17.3609 1.64846 16.3063 0.847543 15.1714 0.555429L15.251 0.131657L21.1385 0.131657L21.2187 0.555429Z" transform="translate(109.0002 0.5064678)" id="Fill-11" fill="#3F1E20" stroke="none"></path>
    <path d="M19.0087 0C18.5561 0.0843428 16.8885 0.133029 16.4311 0.133029L3.33257 0.133029C2.8752 0.133029 1.20823 0.0843428 0.754971 0L0.646628 0.133029L0 3.88251L0.426514 3.95794C0.874971 3.04114 1.81166 2.40754 3.11589 2.40754L7.81029 2.40754L7.81029 19.1774C7.81029 20.5529 6.7584 21.3559 5.62629 21.6439L5.70171 22.0697L13.6601 22.0697L13.7355 21.6439C12.6027 21.3559 11.5509 20.5529 11.5509 19.1774L11.5509 2.40754L15.4745 2.40754C17.0983 2.40754 17.8313 3.00069 18.0453 3.95794L18.4711 3.88251L19.117 0.133029L19.0087 0Z" transform="translate(14.32959 0.5057144)" id="Fill-13" fill="#3F1E20" stroke="none"></path>
    <path d="M1.61966 3.2304C2.496 3.2304 3.23726 2.60983 3.23726 1.61623C3.23726 0.617143 2.496 0 1.61966 0C0.742629 0 0 0.617143 0 1.61623C0 2.60983 0.742629 3.2304 1.61966 3.2304ZM3.01164 1.61623C3.01164 0.737828 2.37461 0.204342 1.61964 0.204342C0.8633 0.204342 0.225586 0.737828 0.225586 1.61623C0.225586 2.48777 0.8633 3.02606 1.61964 3.02606C2.37461 3.02606 3.01164 2.48777 3.01164 1.61623ZM2.34444 2.47954L1.90147 1.71497C2.13599 1.63749 2.27519 1.4592 2.27519 1.22469C2.27519 0.899657 2.05782 0.716572 1.66216 0.716572L1.04639 0.716572L1.04639 2.47954L1.33302 2.47954L1.33302 1.73691L1.61484 1.73691L2.01324 2.47954L2.34444 2.47954ZM1.3331 1.48937L1.66224 1.48937C1.8755 1.48937 1.99275 1.39406 1.99275 1.22469C1.99275 1.0464 1.88441 0.96 1.66224 0.96L1.3331 0.96L1.3331 1.48937Z" transform="translate(129.5408 20.08032)" id="Fill-15" fill="#3F1E20" fill-rule="evenodd" stroke="none"></path>
  </g>
</svg>