<svg class="desktop_logo" width="380" height="68" viewBox="0 0 380 68" fill="none" xmlns="http://www.w3.org/2000/svg">
  <mask id="mask0_213_25" style="mask-type:luminance" maskUnits="userSpaceOnUse" x="0" y="14" width="380" height="53">
  <path d="M380 14H0V67H380V14Z" fill="white"></path>
  </mask>
  <g mask="url(#mask0_213_25)">
  <mask id="mask1_213_25" style="mask-type:luminance" maskUnits="userSpaceOnUse" x="0" y="1" width="380" height="70">
  <path d="M380 1.32275H0V70.4532H380V1.32275Z" fill="white"></path>
  </mask>
  <g mask="url(#mask1_213_25)">
  <mask id="mask2_213_25" style="mask-type:luminance" maskUnits="userSpaceOnUse" x="0" y="14" width="381" height="53">
  <path d="M380.064 14.283H0V66.9013H380.064V14.283Z" fill="white"></path>
  </mask>
  <g mask="url(#mask2_213_25)">
  <path d="M108.053 39.8828C108.275 42.7777 110.415 45.4492 114.688 45.4492C117.93 45.4492 119.482 43.7426 119.482 41.8127C119.482 40.178 118.38 38.8459 115.575 38.2554L110.78 37.1392C103.774 35.5837 100.604 31.3496 100.604 26.2296C100.604 19.6982 106.358 14.283 114.18 14.283C124.499 14.283 127.97 20.8864 128.407 24.8181L120.22 26.676C119.926 24.5229 118.373 21.7793 114.244 21.7793C111.66 21.7793 109.6 23.3419 109.6 25.4159C109.6 27.1945 110.93 28.3106 112.92 28.6779L118.08 29.7941C125.236 31.2775 128.85 35.6558 128.85 40.999C128.85 46.9327 124.277 53.0248 114.766 53.0248C103.853 53.0248 100.089 45.9029 99.6451 41.7407L108.053 39.8828Z" fill="black"></path>
  <path d="M150.647 14.283C141.136 14.283 135.933 20.2959 135.146 25.9055H144.385C145.372 23.7812 147.498 22.2258 150.718 22.2258C154.847 22.2258 156.836 24.3789 156.836 26.9785C156.836 28.2386 156.171 29.2828 154.111 29.578L145.186 30.9174C139.14 31.8104 134.344 35.447 134.344 41.9711C134.344 47.6888 139.068 52.9528 146.811 52.9528C152.171 52.9528 155.627 50.4468 157.481 47.5664V51.9086H166.412L166.426 28.1595C166.426 20.8143 162.147 14.283 150.647 14.283ZM156.836 37.1392C156.836 43.5986 153.001 45.6005 148.872 45.6005C145.701 45.6005 144.149 43.5193 144.149 41.3735C144.149 38.5506 146.139 37.1464 148.65 36.772L156.836 35.5117V37.1464V37.1392Z" fill="black"></path>
  <path d="M77.1888 14.283C67.6782 14.283 62.4755 20.2959 61.6883 25.9055H70.9271C71.9146 23.7812 74.04 22.2258 77.2603 22.2258C81.3896 22.2258 83.379 24.3789 83.379 26.9785C83.379 28.2386 82.7134 29.2828 80.6524 29.578L71.7285 30.9174C65.6815 31.8104 60.8868 35.447 60.8868 41.9711C60.8868 47.6888 65.6099 52.9528 73.353 52.9528C78.7131 52.9528 82.1696 50.4468 84.0231 47.5664V51.9086H92.9543L92.9683 28.1595C92.9683 20.8143 88.6892 14.283 77.1888 14.283ZM83.3861 37.1392C83.3861 43.5986 79.5504 45.6005 75.4212 45.6005C72.251 45.6005 70.6981 43.5193 70.6981 41.3735C70.6981 38.5506 72.6875 37.1464 75.1994 36.772L83.3861 35.5117V37.1464V37.1392Z" fill="black"></path>
  <path d="M230.561 14.283C221.05 14.283 215.848 20.2959 215.061 25.9055H224.299C225.287 23.7812 227.412 22.2258 230.633 22.2258C234.762 22.2258 236.751 24.3789 236.751 26.9785C236.751 28.2386 236.086 29.2828 234.025 29.578L225.101 30.9174C219.054 31.8104 214.259 35.447 214.259 41.9711C214.259 47.6888 218.983 52.9528 226.726 52.9528C232.085 52.9528 235.542 50.4468 237.396 47.5664V51.9086H246.327V33.1354H246.341V28.1595C246.341 20.8143 242.062 14.283 230.561 14.283ZM236.758 37.1392C236.758 43.5986 232.922 45.6005 228.793 45.6005C225.623 45.6005 224.07 43.5193 224.07 41.3735C224.07 38.5506 226.06 37.1464 228.571 36.772L236.758 35.5117V37.1464V37.1392Z" fill="black"></path>
  <path d="M38.9876 14.3657H37.7352C33.6633 14.3657 29.9706 15.9644 27.2155 18.5568C24.4531 15.9644 20.7605 14.3657 16.6885 14.3657H15.4362C6.91299 14.3657 0 21.322 0 29.8985V51.9194H9.81128V30.5466C9.81128 26.7084 12.1156 23.6335 16.0659 23.3743C19.9446 23.6264 22.2203 26.6004 22.2991 30.3377V51.9194H32.1247V30.3377C32.2106 26.6004 34.4863 23.6264 38.3578 23.3743C42.3081 23.6335 44.6124 26.7084 44.6124 30.5466V51.9194H54.4165V29.8985C54.4237 21.322 47.5107 14.3657 38.9876 14.3657Z" fill="black"></path>
  <path d="M207.333 15.3665H197.494V36.4296C197.494 40.6711 194.981 44.0196 190.688 44.0196C185.958 44.0196 183.961 40.8223 183.961 36.7249V15.3665H174.121V38.4387C174.121 42.0321 174.958 45.3086 176.675 47.8361C178.444 50.4358 181.163 52.2289 184.891 52.7689C185.65 52.877 186.437 52.949 187.281 52.949C191.203 52.949 195.568 51.2351 197.787 47.4401V48.2754C197.787 55.2461 194.359 58.3209 188.24 58.3209C186.065 58.3209 184.24 57.6656 182.823 56.5711L176.489 62.944C179.488 65.3564 183.596 66.9046 188.526 66.9046C202.009 66.9046 207.333 57.8817 207.333 47.9802V15.3665Z" fill="black"></path>
  <path d="M298.181 44.9528L282.602 46.0618L294.388 35.757L289.493 30.8314L279.231 42.7061L280.333 27.0293H273.484L274.586 42.7061L264.317 30.8314L259.422 35.757L271.216 46.0618L255.636 44.9528L255.665 51.9091L274.708 50.5553L273.441 66.3112H280.369L279.11 50.5553L298.181 51.9091V44.9528Z" fill="black"></path>
  <path d="M339.746 39.1862L329.434 35.6937C329.005 37.5947 328.017 38.9053 327.251 39.719C327.223 39.7478 327.187 39.7839 327.158 39.8127C326.879 40.0935 326.636 40.2807 326.479 40.4391C326.45 40.468 326.421 40.504 326.357 40.5327C326.235 40.6264 326.171 40.6912 326.171 40.6912V40.6624C325.277 41.2528 324.11 41.6921 322.536 41.6921C319.029 41.6921 315.515 39.2294 315.515 33.6774C315.515 28.8454 318.256 25.7274 322.471 25.7274C323.33 25.7274 324.038 25.8497 324.689 26.073C324.689 26.073 327.738 26.8219 329.213 31.4378L339.488 27.9452L339.209 26.8507C337.764 21.1114 332.468 14.4072 322.249 14.4072C312.03 14.4072 303.629 22.7029 303.629 33.6774C303.629 44.6518 311.751 52.9475 322.493 52.9475C327.266 52.9475 330.987 51.4208 333.728 49.2028C335.202 47.9571 338.251 44.803 339.732 39.1934L339.746 39.1862ZM322.507 49.9734C313.396 49.9734 306.534 42.9595 306.534 33.6341C306.534 24.3087 313.275 17.3237 322.235 17.3237C330.021 17.3237 334.365 21.8748 335.96 26.2386L330.636 28.0461C329.163 24.6759 326.235 22.7749 322.421 22.7749C316.603 22.7749 312.574 27.2324 312.574 33.6557C312.574 40.0791 316.667 44.6014 322.514 44.6014C326.979 44.6014 329.685 42.0738 330.98 39.3014L336.153 41.044C334.494 45.4439 330.15 49.959 322.521 49.959L322.507 49.9734Z" fill="black"></path>
  <path d="M361.257 14.4004C350.544 14.4004 342.45 22.696 342.45 33.6705C342.45 44.645 350.544 52.9406 361.257 52.9406C371.97 52.9406 380.064 44.645 380.064 33.6705C380.064 22.696 371.999 14.4004 361.257 14.4004ZM361.257 49.9809C352.026 49.9809 345.341 43.1183 345.341 33.6417C345.341 24.1651 352.018 17.3312 361.257 17.3312C370.496 17.3312 377.172 24.1939 377.172 33.6417C377.172 43.0895 370.496 49.9809 361.257 49.9809Z" fill="black"></path>
  <path d="M361.256 22.6609C356.519 22.6609 351.41 26.1246 351.41 33.6714C351.41 41.2181 356.519 44.6818 361.256 44.6818C365.994 44.6818 371.104 41.2181 371.104 33.6714C371.132 26.0958 365.994 22.6609 361.256 22.6609ZM361.256 41.7437C357.778 41.7437 354.3 39.2522 354.3 33.6641C354.3 28.0761 357.807 25.5846 361.256 25.5846C364.706 25.5846 368.213 28.0761 368.213 33.6641C368.213 39.2522 364.734 41.7437 361.256 41.7437Z" fill="black"></path>
  </g>
  </g>
  </g>
  </svg>