<svg class="svg-icon icon-logo " xmlns="http://www.w3.org/2000/svg" viewBox="0 0 963.3 486.1"><title>Nothing New</title><path d="M16.81,192.56c13,0,26-.1,39.06.05,4.7,0,9.34.66,13.51,3.38,3.34,2.17,5.6,5.31,8,8.25,6.23,7.56,12.23,15.31,18.3,23,5.73,7.27,11.41,14.58,17.16,21.84,5.19,6.57,10.45,13.09,15.65,19.65s10.15,12.87,15.23,19.3l15.61,19.68L174.63,327q7.88,9.94,15.75,19.9c5.08,6.43,10.11,12.9,15.22,19.3,4,5,8.07,10,12.12,14.93.38.2.14,1.14.73.86.32-.15.22-.93-.35-1.23-2.53-61.93-.46-123.89-1.18-185.84,0-1.94.57-2.38,2.44-2.37q28.06.09,56.13,0c2.27,0,2.82.6,2.82,2.84q-.09,147.26,0,294.52c0,2.1-.5,2.72-2.66,2.7-11.85-.11-23.69.13-35.53-.12-8-.16-15-3-20.42-9.34-8.95-10.41-17.18-21.39-25.68-32.17-6.51-8.25-13.14-16.41-19.67-24.66-5.75-7.26-11.39-14.59-17.13-21.86-5.13-6.5-10.34-13-15.5-19.44s-10.21-12.83-15.29-19.26q-8.79-11.1-17.53-22.23-7.53-9.56-15-19.1-7.78-9.86-15.61-19.68a9.61,9.61,0,0,0-1.12-1c.21,3.75.26,7.17.66,10.55a26,26,0,0,1,.33,3.18q0,86,.08,171.94c0,2.75-.84,3.17-3.33,3.16-19.34-.11-38.69-.06-58-.06Z" transform="translate(-16.81 -6.51)" fill="#000"></path><path d="M16.81,8.14c6.06,0,12.12.15,18.17-.05,5.14-.17,8.92,1.73,12.11,5.77q27,34.29,54.14,68.42l17.07,21.53a149,149,0,0,1-.9-16.51c0-25.59,0-51.17-.06-76.75,0-1.79.29-2.49,2.31-2.47,8.76.12,17.53.1,26.3,0,1.75,0,2.24.42,2.23,2.21q-.08,73.08,0,146.17c0,1.22.19,2.27-1.7,2.23-5.51-.12-11-.06-16.54-.06s-9.47-2.39-12.73-6.57c-7.62-9.75-15.32-19.44-23-29.15L48.68,65.3c-.37-.47-.79-.9-1.48-1.68,0,1.46,0,2.48,0,3.51,1,29.82.17,59.65.48,89.48,0,1.75-.59,2.09-2.17,2.08-8.59-.06-17.18,0-25.77,0a5.85,5.85,0,0,0-2.93.26Z" transform="translate(-16.81 -6.51)" fill="#010101"></path><path d="M254.39,6.51c4,.7,8.08,1.29,12.08,2.12a73.38,73.38,0,0,1,57.41,61.11c3,20.89-.12,40.54-12.08,58.19-12.58,18.58-30.54,28.63-52.6,31.55-15.29,2-30.3.81-44.64-5.2-24-10.06-38.67-28.11-44.11-53.39-3.92-18.24-2.24-36.17,6.15-53,11.51-23.14,30.65-35.95,55.84-40.29,2.07-.36,4.26-.05,6.22-1.06Zm34.71,77c0-1.62.08-3.25,0-4.87-.63-9.88-2.83-19.33-8.73-27.47-8-11-19.24-15.55-32.52-15.9-19.55-.51-34.36,9.48-40.38,27.58-3.55,10.66-3.81,21.63-2.07,32.66,1.41,8.9,4.57,17.07,10.83,23.75,8.18,8.73,18.61,12,30.26,12,15.43.07,28.08-5.33,36.1-19.13C287.7,103.36,289.18,93.59,289.1,83.52Z" transform="translate(-16.81 -6.51)" fill="#010101"></path><path d="M932.4,6.51c4.11.72,8.25,1.28,12.32,2.19a74.26,74.26,0,0,1,33.53,16.66c1.16,1,1.47,1.62.49,3-2.93,4.22-5.64,8.59-8.49,12.87-3.83,5.76-8.54,7-14.63,3.58S943.73,38,936.89,36.67c-10.81-2.09-21.56-2.48-31.9,2.12-13,5.76-20.28,16.26-23.28,29.71-3,13.3-2.59,26.59,2.94,39.31,6.5,15,18.22,23,34.23,25.12a52.41,52.41,0,0,0,26.06-3.1c1.57-.6,2.24-1.24,2.21-3-.12-6.24-.11-12.47,0-18.71,0-1.65-.39-2.16-2.08-2.11-4.07.13-8.14.12-12.2,0-5.68-.13-7.56-2.13-7.57-7.81,0-5.15.08-10.31,0-15.46,0-1.72.48-2.07,2.12-2.06q24.66.09,49.34,0c1.75,0,2.06.56,2.06,2.16q-.07,29.69,0,59.37a3.56,3.56,0,0,1-1.87,3.24c-12.51,8.79-26.55,13.27-41.65,14.42s-30-.24-44.09-6.19c-26.65-11.24-42.41-31.1-46.12-59.89-2.57-20,1-38.85,12.52-55.75,10.35-15.19,25-24.14,42.52-28.75a96.36,96.36,0,0,1,13.06-2.25c.64-.07,1.48.36,1.91-.54Z" transform="translate(-16.81 -6.51)" fill="#010101"></path><path d="M673.46,396.38c1.26-5.28,2.51-10.42,3.72-15.58,2.09-8.91,5.33-17.47,8-26.21,5.88-19.43,11.93-38.81,18-58.19,3-9.82,6.23-19.61,9.27-29.43,6-19.23,11.69-38.52,17.81-57.68,2.75-8.6,8.77-14.68,17.78-16a108.7,108.7,0,0,1,32.81,0c8.7,1.36,14.4,7.39,17.11,15.88,2.58,8.11,5.07,16.25,7.59,24.38q8.67,28.08,17.32,56.16c5.52,17.87,11.23,35.69,16.53,53.63,4.21,14.29,9.43,28.27,13,42.74.53,2.15,1,4.32,1.4,6.5.12.63,0,1.29.87,1.42q3.24-18.15,8-36c5.1-19.09,10-38.24,15-57.35,5.68-21.5,11.48-43,17.19-64.46,2.43-9.17,4.88-18.33,7.11-27.54,1.33-5.51,4.65-9.39,9.25-12.25a26.09,26.09,0,0,1,14.23-3.89c17.17.09,34.35,0,51.52,0h3.16c-1.9,6.23-3.73,12.23-5.57,18.23q-8.37,27.33-16.76,54.66c-3.46,11.18-7.06,22.32-10.51,33.5-5.74,18.64-11.39,37.31-17.13,55.95-2.71,8.81-5.59,17.57-8.3,26.39-5.58,18.13-11.07,36.29-16.65,54.42-2.61,8.47-5.38,16.89-8,25.36q-4.44,14.35-8.73,28.76c-.6,2-1.52,2.75-3.76,2.74q-28.87-.17-57.76,0c-2.16,0-3-.58-3.64-2.67q-8.32-28.17-16.89-56.28C802.26,420,798,406.36,793.82,392.7c-6.16-20.36-12.2-40.76-18.37-61.12-3.49-11.53-7.16-23-10.71-34.54-.85-2.77-1.56-5.59-2.44-8.8-1.45,2.11-1.47,4.26-2.06,6.2q-3.43,11.18-6.87,22.36-8.19,26.7-16.37,53.39c-3.36,10.93-6.81,21.84-10.19,32.76q-8.68,28.08-17.33,56.16c-3.26,10.59-6.57,21.17-9.71,31.8-.49,1.64-1.39,1.6-2.58,1.6H673.6c-11.85,0-23.69,0-35.53,0-1.58,0-2.38-.42-2.85-2q-7.62-25.2-15.36-50.37c-3.45-11.19-7.05-22.32-10.5-33.51-5.75-18.63-11.4-37.3-17.14-55.94-2.71-8.81-5.58-17.57-8.29-26.39-5.58-18.13-11.07-36.29-16.65-54.42-2.71-8.81-5.57-17.58-8.3-26.39-5.08-16.43-10.09-32.88-15.2-49.3-.7-2.24.8-1.7,1.82-1.7q15.33,0,30.65,0c9,0,18.09-.3,27.11.08,9.21.38,17.25,3.49,21,12.82A102,102,0,0,1,628,217.94q6.44,24.42,12.79,48.87,7.21,27.65,14.44,55.3c4.22,16.11,8.6,32.19,12.64,48.34C670,379,671.6,387.61,673.46,396.38Z" transform="translate(-16.81 -6.51)" fill="#000"></path><path d="M335.75,342.59q0-73.48-.05-147c0-2.45.59-3.11,3.08-3.11q93.84.1,187.67,0c2.31,0,3,.45,3,2.93q-.19,23.87,0,47.72c0,2.76-.86,3.16-3.34,3.16-38.87-.08-77.74,0-116.61-.13-2.86,0-3.33.83-3.31,3.44q.15,31.61,0,63.19c0,2.47.69,2.93,3,2.93,29.47-.08,58.94,0,88.41-.12,2.5,0,3.1.67,3.08,3.12q-.17,23.19,0,46.37c0,2.13-.54,2.7-2.68,2.69-29.56-.07-59.12,0-88.68-.1-2.42,0-3.14.54-3.13,3.07q.17,32.42,0,64.82c0,2.53.5,3.3,3.2,3.29,38.87-.1,77.74,0,116.61-.13,2.58,0,3.5.41,3.46,3.31-.17,15.81-.14,31.63,0,47.45,0,2.58-.78,3.05-3.16,3.05q-93.82-.09-187.66,0c-2.44,0-2.95-.65-2.94-3Q335.8,416.08,335.75,342.59Z" transform="translate(-16.81 -6.51)" fill="#000"></path><path d="M793.35,103.47c1-1,.26-2.24.19-3.33-.41-6-.52-11.91-.51-17.88,0-23.77.05-47.54-.06-71.31,0-2.49.71-2.91,3-2.87,8.58.14,17.17.11,25.76,0,1.81,0,2.2.54,2.2,2.26q-.07,73.08,0,146.14c0,1.26.09,2.24-1.74,2.21-5.6-.12-11.2-.06-16.81-.09-5.15,0-9.12-2.27-12.28-6.3q-14.89-19-29.9-37.83-19.49-24.66-39-49.31c-.43-.54-.67-1.31-1.3-1.36.67,31,.16,62,.35,92.94,0,1.61-.55,1.95-2,1.94q-13.43-.09-26.84,0c-1.38,0-2.06-.35-1.86-1.82a7.77,7.77,0,0,0,0-1.08q0-72.39-.06-144.78c0-2.34.49-3,2.91-2.94,5.32.21,10.66.14,16,0a12.76,12.76,0,0,1,11,5.26Q748,46,773.94,78.57q8.92,11.25,17.82,22.51c.6.75,1.43,1.36,1.61,2.4l.35-.33Z" transform="translate(-16.81 -6.51)" fill="#010101"></path><path d="M599.11,83.58c0,24,0,48.09.06,72.13,0,2.32-.45,3.06-2.93,3-9.85-.17-19.71-.13-29.56,0-2.07,0-2.72-.44-2.71-2.64.1-19.43,0-38.87.11-58.3,0-2.26-.59-2.82-2.82-2.81q-27.93.14-55.86,0c-2.23,0-2.62.68-2.61,2.71.07,19.35,0,38.69.11,58,0,2.61-.8,3-3.14,3q-14.79-.18-29.56,0c-2,0-2.56-.48-2.56-2.54q.09-72.81,0-145.62c0-1.79.28-2.49,2.3-2.47q15.32.18,30.64,0c2,0,2.29.64,2.28,2.43-.06,19.35,0,38.69-.08,58,0,1.92.29,2.59,2.44,2.57q28.2-.15,56.4,0c2.15,0,2.45-.67,2.44-2.59-.07-19.25,0-38.5-.08-57.76,0-2,.37-2.71,2.58-2.68q15,.2,30.1,0c2.12,0,2.49.6,2.49,2.56Q599.06,47.11,599.11,83.58Z" transform="translate(-16.81 -6.51)" fill="#010101"></path><path d="M407.78,97.26c0,19.53,0,39.05.05,58.58,0,2.19-.45,2.91-2.77,2.88q-14.79-.21-29.56,0c-2.32,0-2.78-.68-2.78-2.88.07-39,0-78.1.11-117.15,0-2.3-.43-3-2.89-3-12.38.15-24.76,0-37.15.11-1.84,0-2.45-.38-2.42-2.34.12-7.77.11-15.55,0-23.32,0-1.72.49-2.08,2.13-2.08q57.75.08,115.52,0c2,0,2.13.76,2.11,2.35-.06,7.69-.1,15.37,0,23.05,0,1.95-.55,2.37-2.4,2.35-12.48-.08-24.95,0-37.43-.1-2.18,0-2.61.63-2.6,2.68C407.81,58,407.78,77.65,407.78,97.26Z" transform="translate(-16.81 -6.51)" fill="#010101"></path><path d="M663.36,83.53c0,24.13,0,48.26,0,72.39,0,2.26-.54,2.83-2.8,2.8-9.94-.14-19.88-.1-29.82,0-1.85,0-2.66-.21-2.66-2.43q.12-72.93,0-145.85c0-2,.6-2.34,2.43-2.33,10.12.09,20.24.11,30.36,0,2.07,0,2.48.54,2.47,2.53C663.33,34.91,663.36,59.22,663.36,83.53Z" transform="translate(-16.81 -6.51)" fill="#010101"></path></svg>