<svg class="logo-tag tw-h-full tw-w-auto" width="149" height="44" viewBox="0 0 149 44" fill="none" xmlns="http://www.w3.org/2000/svg">
  <path d="M0.5 0H148.5V42C148.5 43.1046 147.605 44 146.5 44H2.5C1.39543 44 0.5 43.1046 0.5 42V0Z" fill="var(--logo-tag-bg)"></path>
  <g clip-path="url(#clip0_2490_4948)">
  <path d="M58.3743 26.5892C55.9626 26.5892 53.9989 24.5984 53.9989 22.1536C53.9989 19.7087 55.9596 17.7179 58.3743 17.7179C60.7891 17.7179 62.7498 19.7087 62.7498 22.1536C62.7498 24.5984 60.7861 26.5892 58.3743 26.5892ZM58.3743 14.377C53.9688 14.377 50.5195 17.7931 50.5195 22.1536C50.5195 26.514 53.9688 29.9272 58.3743 29.9272C62.7799 29.9272 66.2291 26.511 66.2291 22.1536C66.2291 17.7961 62.7799 14.377 58.3743 14.377Z" fill="var(--logo-tag-color)"></path>
  <path d="M76.4317 26.5892C74.0199 26.5892 72.0562 24.5984 72.0562 22.1536C72.0562 19.7087 74.0199 17.718 76.4317 17.718C78.8434 17.718 80.8071 19.7087 80.8071 22.1536C80.8071 24.5984 78.8434 26.5892 76.4317 26.5892ZM76.4317 14.377C74.7536 14.377 73.217 14.8731 71.9539 15.7272V15.3934C71.9539 15.1739 71.7765 14.9964 71.557 14.9964H68.8716C68.652 14.9964 68.4746 15.1739 68.4746 15.3934V35.6679C68.4746 35.8844 68.652 36.0619 68.8716 36.0619H71.557C71.7765 36.0619 71.9539 35.8844 71.9539 35.6679V28.5769C73.217 29.431 74.7536 29.9272 76.4317 29.9272C80.8342 29.9272 84.2865 26.511 84.2865 22.1536C84.2865 17.7961 80.8372 14.377 76.4317 14.377Z" fill="var(--logo-tag-color)"></path>
  <path d="M88.5054 9.01208C87.3657 9.01208 86.4395 9.94732 86.4395 11.0931C86.4395 12.2388 87.3657 13.1199 88.5054 13.1199C89.6451 13.1199 90.5713 12.2117 90.5713 11.0931C90.5713 9.97439 89.6451 9.01208 88.5054 9.01208Z" fill="var(--logo-tag-color)"></path>
  <path d="M89.9105 15.0416H87.2251C87.0055 15.0416 86.8281 15.219 86.8281 15.4385V29.0611C86.8281 29.2777 87.0055 29.4581 87.2251 29.4581H89.9105C90.13 29.4581 90.3075 29.2807 90.3075 29.0611V15.4355C90.3075 15.216 90.13 15.0386 89.9105 15.0386" fill="var(--logo-tag-color)"></path>
  <path d="M96.7571 7.62585H94.0747C93.8552 7.62585 93.6777 7.80328 93.6777 8.0198V29.0582C93.6777 29.2777 93.8552 29.4521 94.0747 29.4521H96.7571C96.9766 29.4521 97.1541 29.2747 97.1541 29.0582V8.0198C97.1541 7.80027 96.9766 7.62585 96.7571 7.62585Z" fill="var(--logo-tag-color)"></path>
  <path d="M107.576 26.5892C105.164 26.5892 103.203 24.5984 103.203 22.1536C103.203 19.7087 105.164 17.7179 107.576 17.7179C109.987 17.7179 111.951 19.7087 111.951 22.1536C111.951 24.5984 109.987 26.5892 107.576 26.5892ZM107.576 14.377C103.17 14.377 99.7207 17.7931 99.7207 22.1536C99.7207 26.514 103.17 29.9272 107.576 29.9272C111.981 29.9272 115.43 26.511 115.43 22.1536C115.43 17.7961 111.981 14.377 107.576 14.377Z" fill="var(--logo-tag-color)"></path>
  <path d="M39.508 15.3946C39.508 15.3946 39.508 15.3946 39.5039 15.3905L39.508 15.3946Z" fill="var(--logo-tag-color)"></path>
  <path d="M50.0326 14.4161H47.0555C46.8961 14.4161 46.7517 14.5094 46.6856 14.6537L42.9296 23.4528L39.5074 15.3965V15.3935V15.3875C39.4773 15.3213 39.2788 14.9244 38.7496 14.9244C38.7406 14.9244 38.7315 14.9244 38.7225 14.9244C38.7135 14.9244 38.7045 14.9244 38.6954 14.9244C38.1632 14.9244 37.9647 15.3273 37.9376 15.3875V15.3965H37.9346L34.4854 23.4558L30.7294 14.6537C30.6632 14.5094 30.5189 14.4161 30.3595 14.4161H27.3764C27.238 14.4161 27.1057 14.4883 27.0305 14.6056C26.9553 14.7229 26.9493 14.8702 27.0095 14.9965L33.5261 29.1604L33.5441 29.1965C33.6223 29.3469 33.9531 29.9273 34.4884 29.9273C35.0748 29.9273 35.3996 29.1634 35.3996 29.1634L38.6924 21.7417L38.7165 21.6815L38.7436 21.7417L42.0334 29.2116C42.1206 29.3769 42.4484 29.9273 42.9687 29.9273C43.3987 29.9273 43.5942 29.6085 43.8077 29.3078L50.3934 14.9965C50.4536 14.8702 50.4476 14.7229 50.3724 14.6056C50.3002 14.4883 50.1679 14.4161 50.0296 14.4161" fill="var(--logo-tag-color)"></path>
  </g>
  <path d="M118.641 15.0938C118.109 15.0938 117.621 14.9648 117.176 14.707C116.73 14.4466 116.379 14.0938 116.121 13.6484C115.863 13.2031 115.734 12.7135 115.734 12.1797C115.734 11.6484 115.863 11.1602 116.121 10.7148C116.379 10.2695 116.73 9.91797 117.176 9.66016C117.621 9.40234 118.109 9.27344 118.641 9.27344C119.172 9.27344 119.66 9.40234 120.105 9.66016C120.551 9.91797 120.902 10.2695 121.16 10.7148C121.418 11.1602 121.547 11.6484 121.547 12.1797C121.547 12.7135 121.418 13.2031 121.16 13.6484C120.902 14.0938 120.551 14.4466 120.105 14.707C119.66 14.9648 119.172 15.0938 118.641 15.0938ZM118.641 14.6016C119.081 14.6016 119.484 14.4948 119.852 14.2812C120.221 14.0651 120.513 13.7721 120.727 13.4023C120.943 13.0299 121.051 12.6224 121.051 12.1797C121.051 11.737 120.943 11.332 120.727 10.9648C120.513 10.5951 120.221 10.3034 119.852 10.0898C119.484 9.8737 119.081 9.76562 118.641 9.76562C118.201 9.76562 117.796 9.8737 117.426 10.0898C117.059 10.3034 116.767 10.5951 116.551 10.9648C116.337 11.332 116.23 11.737 116.23 12.1797C116.23 12.6224 116.337 13.0299 116.551 13.4023C116.767 13.7721 117.059 14.0651 117.426 14.2812C117.796 14.4948 118.201 14.6016 118.641 14.6016ZM117.648 13.6289V10.7578H118.914C119.208 10.7578 119.438 10.8372 119.602 10.9961C119.766 11.1523 119.848 11.3685 119.848 11.6445C119.848 11.8633 119.793 12.0456 119.684 12.1914C119.574 12.3346 119.418 12.4284 119.215 12.4727L119.859 13.6289H119.168L118.586 12.5312H118.262V13.6289H117.648ZM118.785 12.0703C118.918 12.0703 119.027 12.0378 119.113 11.9727C119.202 11.9076 119.246 11.8008 119.246 11.6523C119.246 11.5039 119.203 11.3958 119.117 11.3281C119.034 11.2604 118.923 11.2266 118.785 11.2266H118.262V12.0703H118.785Z" fill="var(--logo-tag-color)"></path>
  <defs>
  <clipPath id="clip0_2490_4948">
  <path d="M26.5 9.4692C26.5 8.1055 27.6055 7 28.9692 7H113.031C114.395 7 115.5 8.1055 115.5 9.4692V37H26.5V9.4692Z" fill="var(--logo-tag-color)"></path>
  </clipPath>
  </defs>
</svg>