<svg xmlns="http://www.w3.org/2000/svg" class="block header-logo" width="94" height="48" viewBox="0 0 94 48"><path d="M55.4315 43.1322L55.4568 47.6597C49.1697 47.6597 48.1412 47.211 45.6455 47.211C43.1498 47.211 40.3138 47.6597 40.3138 47.6597C40.3138 47.6597 42.4339 45.8068 42.4339 40.5508V11.1423C42.4339 7.75674 41.0953 6.74586 41.0953 6.74586C41.0953 6.74586 42.507 6.99795 44.1305 6.99795C45.7539 6.99795 46.9337 6.74586 46.9337 6.74586C46.9337 6.74586 45.9253 7.9458 45.9253 10.5423V45.8396C45.9253 45.8396 46.5228 46.0236 48.1462 46.0236C53.9921 46.0236 55.4315 43.1322 55.4315 43.1322ZM38.214 18.8788C38.214 24.6113 36.404 30.3841 29.0002 30.3841C28.4304 30.3841 28.0422 30.369 27.8153 30.3564V42.1869C27.8153 46.243 30.5026 47.6597 30.5026 47.6597C30.5026 47.6597 27.6011 47.4303 26.2045 47.4303C24.8079 47.4303 22.0072 47.6496 22.0072 47.6496C22.0072 47.6496 24.4802 46.3841 24.4802 42.1743V13.1791C24.4802 7.71388 20.8023 6.78368 20.8023 6.78368C20.8023 6.78368 22.0173 7.01308 23.7467 7.01308C25.6045 7.01308 26.4263 6.7383 29.0733 6.7383C32.6932 6.7383 38.214 7.82228 38.214 18.8788ZM34.8713 18.9671C34.8713 12.9548 33.7016 8.0668 29.2497 8.0668C28.4178 8.0668 27.8179 8.33402 27.8179 8.33402V28.3977C28.1809 28.6926 28.9649 29.1993 30.0614 29.1993C33.2176 29.1993 34.8713 25.2113 34.8713 18.9646V18.9671ZM82.9696 12.6346C82.9696 10.0961 84.0485 7.86009 86.1686 7.86009C90.2398 7.86009 93.3506 12.5262 93.3506 12.5262V8.06428C93.3506 8.06428 89.6449 6.41311 87.6912 6.41311C85.0039 6.41311 80.4462 7.52734 80.4462 14.2177C80.4462 25.0777 90.9658 30.2228 90.9658 40.876C90.9658 44.5514 89.239 46.8833 86.8769 46.8833C83.6956 46.8833 79.9975 41.3096 79.9975 41.3096V46.7194C79.9975 46.7194 82.3999 48 86.103 48C88.871 48 93.9782 46.1245 93.9782 37.8232C93.9782 29.522 82.9696 19.4082 82.9696 12.6372V12.6346ZM18.3772 39.8803C19.325 45.1514 20.4771 47.6244 20.4771 47.6244C20.4771 47.6244 19.0503 47.4278 17.5503 47.4278C16.0504 47.4278 13.9203 47.6546 13.9203 47.6546C13.9203 47.6546 15.821 45.6556 15.3017 42.5826C15.0244 40.9365 14.3186 37.0493 13.4867 32.5042H5.16023C4.58295 35.7611 4.13172 38.3854 3.96786 39.4895C3.20151 44.6901 4.4796 47.5765 4.4796 47.5765C4.4796 47.5765 3.26453 47.4076 2.29148 47.4076C1.19237 47.4076 0 47.6521 0 47.6521C0 47.6521 1.41925 46.9135 2.29904 42.1969C3.06286 38.1056 7.96597 11.3843 8.18276 10.0633C8.63148 7.3181 7.12652 6.76351 7.12652 6.76351C7.12652 6.76351 8.09705 7.02064 9.07515 7.02064C10.9784 7.02064 12.2515 6.74334 12.2515 6.74334C12.2515 6.74334 16.8117 31.1732 18.3772 39.8803ZM13.3254 31.6143C11.5456 21.9039 9.28187 9.73814 9.28187 9.73814C9.28187 9.73814 6.91224 22.6425 5.31905 31.6143H13.3279H13.3254ZM66.2184 4.89302C64.9453 4.89302 64.5546 4.86025 64.5546 4.86025L66.0898 6.05262C72.8306 6.05262 78.2177 15.3647 78.2177 26.8549C78.2177 38.345 72.8281 47.6572 66.0898 47.6572C59.3515 47.6572 53.9619 38.345 53.9619 26.8549C53.9619 16.2092 58.5902 7.43658 64.6327 6.2064L60.1178 3.29478C60.1178 3.29478 60.7052 3.36033 62.2051 3.36033C66.0873 3.36033 68.1721 0 74.7288 0L78.3337 3.77627C78.3337 3.77627 77.3102 3.22924 75.0238 3.22924C71.4441 3.22924 69.5132 4.89302 66.2184 4.89302ZM65.5655 7.50213C61.0859 7.66598 57.5516 16.5092 57.8617 27.2557C58.1717 38.0022 62.2102 46.5807 66.6873 46.4169C71.1668 46.253 74.6305 37.4098 74.3205 26.6633C74.0104 15.9168 70.0451 7.33827 65.5655 7.49961V7.50213Z" fill="currentColor"></path></svg>