<svg class="desktop-logo" alt="Bridgman" xmlns="http://www.w3.org/2000/svg" id="Layer_1" version="1.1" viewBox="0 0 269.67 83.33">
                          <path fill="currentColor" class="st0" d="M82.83,42.25c.09-1.2,1.12-2.03,1.12-3.15,0-.48-.5-.72-1.49-.72s-2.57.94-4.71,2.82c-1.99,1.72-4.39,4.59-7.21,8.62-2.82,4.03-4.86,6.75-6.12,8.17-1.26,1.42-2.38,2.14-3.34,2.14h-.32c-1.4,0-2.77-.56-4.11-1.69.32-.48,1.1-1.53,2.33-3.14,2.12-2.76,4.29-5.51,6.13-8.46,1.38-2.2,2.66-4.34,3.37-6.85.35-1.23-.44-5.06,1.53-4.17,2.96,1.34,3.65,7.03,1.74,9.53.93-1.22,2.03-2.25,3.07-3.34,2.35-2.45,5.64-5.14,9.2-5.14,2.63,0,4.19,1.13,4.67,3.38.25,1.16,0,1.99-.43,3-.23.56-1.35,2.45.27,2.22.04,0-.84.76-1.21.85-.72.18-1.57,0-2.23-.29-1.52-.65-2.4-2.1-2.27-3.75"></path>
                          <path fill="currentColor" class="st0" d="M102.94,33.87c-.54-.46-.76-1.13-.66-2.01.1-.88.54-1.81,1.33-2.79.79-.98,1.84-1.47,3.17-1.47.39,0,.81.19,1.25.58.44.39.61,1.03.52,1.93-.1.9-.49,1.75-1.18,2.55-.69.8-1.46,1.31-2.32,1.55-.86.23-1.56.11-2.1-.35M101.98,37.97c-2.02,2.17-3.7,4.91-5.05,8.24-1.35,3.32-2.03,5.66-2.03,7s.5,2.01,1.51,2.01,2.68-.77,5.01-2.32c2.33-1.55,5-3.74,8-6.57.64-.62.96-.54.96.23,0,.1-.05.21-.15.31-2.36,2.16-4.35,3.94-5.97,5.34-1.62,1.39-3.55,2.72-5.78,3.98-2.24,1.26-4.06,1.9-5.49,1.9-1.77,0-3.08-.41-3.94-1.24-.86-.82-1.29-1.73-1.29-2.71,0-1.86.32-3.33.96-4.41.64-1.08,1.72-2.57,3.24-4.48-.54.46,5.12-6.83,6.08-7.35.96-.51,1.74-.77,2.36-.77s1.07.09,1.36.27c.3.18.37.37.22.58"></path>
                          <path fill="currentColor" class="st0" d="M130.06,39.28c0-1.03-.62-1.55-1.84-1.55-.64,0-1.47.21-2.5.62-2.31.93-4.6,2.73-6.85,5.41-2.8,3.35-4.2,6.55-4.2,9.59,0,1.8.56,2.89,1.69,3.25.24.1.49.15.74.15,2.01,0,5.01-2.11,8.99-6.34,1.08-1.08,1.99-2.24,2.73-3.48.39-1.19.91-2.55,1.55-4.1-.44.31-.8.35-1.07.11-.27-.23-.21-.75.19-1.55.39-.8.59-1.51.59-2.13M129.47,53.9c-.52,1.5-1.06,3.01-1.34,4.58-.22,1.29-.7,3.09.06,4.29-3.95-1.57-1.06-10.15-.32-13.03-3.13,4.48-7.23,9.7-13.29,9.57-6.46-.14-6.51-6.25-5.73-11.13-.71.59-1.37,1.46-2.25,1.75.16-1.9,1.31-2.64,2.56-3.92,2.24-2.3,4-5,6.75-6.77,4.32-2.78,13.43-5.97,15.64.72,2.57-5.33,5.28-10.47,8.38-15.51,2.26-3.67,5.63-6.35,9.94-4.03-.08.06-.25.05-.4.1-2.98.86-14.34,20.06-14.91,21.21-1.98,3.93-3.65,8.01-5.09,12.16"></path>
                          <path fill="currentColor" class="st0" d="M141.7,54.36c0,1.19.59,1.78,1.77,1.78.93,0,2.09-.54,3.46-1.62,3.34-2.32,6.83-5.7,10.46-10.13,1.67-2.01,2.5-3.58,2.5-4.72,0-.41-.13-.79-.4-1.12-.27-.34-.85-.5-1.73-.5s-2.3.54-4.24,1.63c-1.94,1.08-3.93,2.72-5.97,4.91-2.04,2.19-3.52,4.15-4.46,5.88-.93,1.73-1.4,3.03-1.4,3.91M130.28,78.65c-4.27,0-7.82-.98-10.65-2.94-2.82-1.96-4.24-4.74-4.24-8.35,0-.21.07-.31.22-.31.34,0,.56.2.66.62.44,2.63,1.65,4.9,3.61,6.81.89.87,2.1,1.6,3.65,2.16,1.55.57,2.84.85,3.87.85h1.99c5.45-.31,10.22-3.2,14.3-8.66,1.92-2.58,3.61-5.14,5.09-7.69,1.48-2.55,3.07-5.4,4.79-8.55,1.72-3.14,3.17-5.54,4.35-7.19-1.52,1.81-3.44,3.87-5.75,6.19-2.31,2.32-4.3,4-5.97,5.03-1.67,1.03-3.22,1.55-4.64,1.55s-2.64-.45-3.65-1.35c-1-.9-1.51-2.02-1.51-3.37,0-3.81,1.62-7.55,4.86-11.21,2.46-2.73,5.5-4.67,9.14-5.8,1.62-.57,3.2-.85,4.75-.85s3.05.45,4.49,1.35c1.45.9,2.37,1.97,2.76,3.21.78,0,1.65.35,2.58,1.04.94.7,1.4,1.2,1.4,1.51s-.2.57-.59.77c-1.57.83-4.05,4.44-7.44,10.83-3.29,6.14-7.15,11.63-11.57,16.47-2.21,2.42-4.78,4.34-7.7,5.76-2.92,1.42-5.86,2.13-8.81,2.13"></path>
                          <path fill="currentColor" class="st0" d="M201.68,40.21c0,1.91-1.55,5.05-4.64,9.43-1.87,2.63-2.8,4.25-2.8,4.87s.31.93.92.93,1.49-.39,2.62-1.16c2.8-2.01,5.6-4.43,8.4-7.27.39-.41.66-.52.81-.31.15.21.22.36.22.46s-.54.7-1.62,1.78c-1.08,1.08-2.27,2.21-3.57,3.4-1.3,1.18-2.94,2.41-4.9,3.67-1.97,1.26-3.59,1.89-4.86,1.89-2.65,0-3.98-1.24-3.98-3.71,0-.88.15-1.91.44-3.09.64-2.01,3.41-5.9,8.33-11.68.64-.72.96-1.29.96-1.7s-.49-.62-1.47-.62-2.53.9-4.64,2.71c-.74.62-1.65,1.54-2.73,2.75-1.08,1.21-2.35,3.16-3.8,5.84-1.45,2.68-2.52,5.05-3.2,7.11-.29.93-.89,1.39-1.77,1.39-.2,0-.44-.02-.74-.08-.93-.26-1.3-.72-1.11-1.39,3.83-7.17,6.12-11.65,6.85-13.46.74-1.8,1.11-3.09,1.11-3.87s-.3-1.16-.89-1.16c-2.6,0-6.34,4.46-11.2,13.38-1.77,2.89-3.19,4.95-4.27,6.19-1.08,1.24-2.06,1.86-2.95,1.86h-.29c-1.28,0-2.53-.54-3.76-1.63.3-.46,1.01-1.47,2.14-3.02,2.51-3.2,4.69-6.29,6.56-9.28-2.11,2.22-3.91,3.94-5.38,5.18-.49.41-.77.44-.85.08-.07-.36.04-.68.33-.97.3-.28.79-.75,1.48-1.39.69-.64,1.14-1.07,1.36-1.28.22-.2.64-.6,1.25-1.2.62-.59,1.07-1.07,1.37-1.43,1.37-1.7,2.38-3.14,3.02-4.33.25-.62.36-1.22.33-1.82-.03-.59-.15-.98-.37-1.16-.22-.18-.31-.4-.26-.66,0-.41.2-.62.59-.62.2,0,.42.05.66.15,1.52.72,2.29,2.29,2.29,4.72,0,1.45-.27,3.02-.81,4.72.98-1.6,2.04-3.17,3.17-4.72,2.01-2.73,4.03-4.1,6.04-4.1,1.37,0,2.06.83,2.06,2.47,0,1.55-1.03,4.31-3.1,8.28,2.06-2.78,3.66-4.82,4.79-6.11,2.6-2.84,5.11-4.26,7.52-4.26,2.55,0,4,1.16,4.35,3.48v.7Z"></path>
                          <path fill="currentColor" class="st0" d="M227.25,37.89c-1.03,0-2.26.34-3.69,1.01-2.51,1.13-4.89,3.09-7.15,5.88-3.59,4.44-5.38,7.68-5.38,9.74,0,1.09.42,1.62,1.25,1.62.69,0,1.83-.46,3.43-1.39,1.6-.93,3.69-2.76,6.3-5.49.15-.15.71-.72,1.7-1.7.98-.98,1.81-1.83,2.5-2.55,2.31-2.53,3.46-4.34,3.46-5.45s-.81-1.67-2.43-1.67M232.63,45.55c-.54.67-1.09,1.39-1.66,2.17-.57.77-1.28,1.83-2.14,3.17-.86,1.34-1.29,2.47-1.29,3.4s.38,1.39,1.14,1.39,2-.49,3.72-1.47c3.44-2.06,7.24-5.16,11.42-9.28.49-.51.81-.59.96-.23v.31c0,.16-.1.34-.3.54-8.45,8.35-14.59,12.53-18.42,12.53-1.13,0-2.08-.4-2.84-1.2-.76-.8-1.14-1.74-1.14-2.83s.44-2.73,1.33-4.95c-2.21,2.89-4.58,5.12-7.11,6.69-2.53,1.57-4.51,2.36-5.93,2.36s-2.64-.45-3.65-1.35c-1.01-.9-1.51-2.02-1.51-3.36,0-3.81,1.62-7.55,4.86-11.21,2.46-2.73,5.5-4.66,9.14-5.8,1.62-.57,3.2-.85,4.75-.85s3.05.45,4.5,1.35c1.45.9,2.37,1.97,2.76,3.21,1.48,0,2.53.57,3.17,1.7.1.15.15.41.15.77s-.19.78-.55,1.24c-.37.46-.83,1.03-1.36,1.7"></path>
                          <path fill="currentColor" class="st0" d="M263.34,54.83c-1.16.87-2.16,1.52-3,1.93-2.7,1.44-4.81,1.68-6.34.7-.93-.62-1.4-1.48-1.4-2.59s.2-2.23.59-3.36c.89-2.63,3.42-6.42,7.59-11.37.69-.82,1.03-1.47,1.03-1.94s-.46-.69-1.36-.69-2.35.9-4.31,2.71c-1.82,1.65-4.02,4.41-6.6,8.27-2.58,3.87-4.44,6.49-5.6,7.85-1.16,1.37-2.17,2.05-3.06,2.05h-.29c-1.28,0-2.53-.54-3.76-1.63.29-.46,1.01-1.47,2.14-3.02,2.51-3.2,4.69-6.29,6.56-9.28-2.11,2.22-3.9,3.94-5.38,5.18-.49.41-.77.44-.85.08-.07-.36.04-.69.33-.97.3-.28.79-.75,1.48-1.39.69-.65,1.14-1.07,1.36-1.28.22-.21.63-.6,1.25-1.2.61-.59,1.07-1.07,1.36-1.43,1.37-1.7,2.38-3.14,3.02-4.33.25-.62.36-1.22.33-1.82-.03-.59-.15-.98-.37-1.16-.22-.18-.31-.4-.26-.66,0-.41.2-.62.59-.62.2,0,.42.05.66.15,1.52.72,2.29,2.15,2.29,4.29s-.44,4.42-1.33,6.85c1.91-2.63,3.36-4.51,4.35-5.65,2.55-2.99,5.06-4.49,7.52-4.49s3.83,1.08,4.27,3.25c.05.31.07.79.07,1.43s-.23,1.51-.7,2.59c-.47,1.08-1.56,2.86-3.28,5.34-1.72,2.47-2.71,4.03-2.99,4.68-.27.65-.36,1.12-.26,1.43.1.31.32.49.66.54.28.05.66-.02,1.13-.2"></path>
                          <path fill="currentColor" class="st0" d="M3.81,57.03c-.43-1.17-.51-2.88-.14-4.29.23-.87.43-1.78.73-2.69.32-.9.65-1.83.98-2.78.31-.96.8-1.86,1.21-2.83.22-.48.43-.96.65-1.44.23-.48.5-.94.76-1.41.52-.94,1.02-1.91,1.6-2.84.6-.92,1.19-1.85,1.81-2.77.61-.93,1.32-1.78,1.97-2.68l1.02-1.32,1.08-1.25c.72-.83,1.44-1.66,2.19-2.45,1.52-1.55,3.03-3.07,4.6-4.4.79-.66,1.52-1.37,2.31-1.97.79-.6,1.55-1.19,2.3-1.77,1.48-1.16,3.01-2.09,4.36-3.01,1.37-.91,2.7-1.6,3.85-2.27,1.14-.68,2.2-1.16,3.06-1.58,1.72-.83,2.73-1.25,2.73-1.25,0,0-.78.78-2.18,2.06-.7.63-1.56,1.4-2.51,2.3-.48.45-.99.92-1.52,1.42-.53.5-1.12,1-1.68,1.57-.58.55-1.18,1.13-1.8,1.72-.31.29-.63.59-.95.89-.31.31-.63.63-.95.96-.64.64-1.31,1.3-1.98,1.97-.68.67-1.33,1.39-2.01,2.1-1.39,1.4-2.7,2.95-4.1,4.47-.68.77-1.31,1.59-1.99,2.38-3.04,3.5-5.43,7.51-7.44,11.68-1,2.07-1.86,4.19-2.65,6.34-.68,1.84-1.22,4.32-2.53,5.83-.93,1.07-2.28.7-2.79-.71"></path>
                          <path fill="currentColor" class="st0" d="M38.21,28.64c1.99-.21,4.08-.32,6.28-.32s4.68.3,7.45.89c2.76.59,4.9,1.69,6.4,3.3,1.66,1.72,2.5,3.67,2.5,5.84s-.59,4.34-1.77,6.48c-1.18,2.15-2.98,4.32-5.4,6.53-7.09,6.44-16.11,9.66-27.06,9.66-2.95,0-5.57-.31-7.85-.93-2.29-.62-3.77-1.16-4.47-1.61-.7-.46-1.54-1.09-2.54-1.89-.99-.8-1.22-1.21-.68-1.21.27,0,1.07.24,2.41.73,1.34.48,3.83.72,7.45.72s7.5-.41,11.64-1.25c4.13-.83,7.68-2.08,10.63-3.74,2.95-1.67,5.29-3.54,7.01-5.64,2.09-2.52,3.14-5.07,3.14-7.65,0-1.4-.37-2.82-1.13-4.27-.75-1.45-2.26-2.56-4.51-3.34-2.26-.78-4.27-1.17-6.04-1.17s-3.8.11-6.08.32c-2.28.22-5.19.94-8.74,2.18-.61.21-1.69.58-2.23,0-.32-.35-.27-.9-.18-1.33.03-.13.04-.29.08-.41.09-.28,1.14-.51,1.43-.56.71-.12,1.42-.25,2.13-.38,1.35-.24,2.7-.5,4.05-.78,2.43-.5,4.86-1.06,7.26-1.69,2.08-.55,4.15-1.16,6.18-1.87,1.74-.6,3.46-1.28,5.14-2.05,1.42-.66,2.81-1.4,4.13-2.25,1.12-.72,2.19-1.53,3.16-2.45.72-.69,1.39-1.44,1.96-2.26.65-1.02.97-1.99.97-2.9s-.43-1.77-1.29-2.58c-1.72-1.56-4.93-2.34-9.62-2.34s-10.87,1.09-18.52,3.26c-7.65,2.18-12.98,4.55-15.99,7.13-.91.7-1.23,1.28-.97,1.73.27.46.32.71.16.77-.16.05-.37-.03-.64-.24-1.13-.64-1.85-1.46-2.17-2.46-.32-.99-.48-1.72-.48-2.17s.14-.82.4-1.09c2.31-3.33,7.66-6.29,16.07-8.9,8.4-2.6,14.83-3.91,19.29-3.91,8.91,0,14.52,1.53,16.83,4.59.91,1.18,1.37,2.44,1.37,3.78,0,2.09-1.18,4.27-3.54,6.52-5.48,5.1-13.34,8.83-23.6,11.2"></path>
                          <g>
                            <path fill="currentColor" class="st0" d="M185.1,67.73v1.27h-5.63v4.5h5.44v1.27h-5.44v4.57h5.78v1.29h-7.2v-12.89h7.05Z"></path>
                            <path fill="currentColor" class="st0" d="M195.38,68.39v1.61c-.89-.76-1.85-1.15-2.91-1.15-1.36,0-2.25.76-2.25,1.87,0,.85.21,1.59,2.34,2.66,2.66,1.38,3.31,2.31,3.31,4.06,0,1.91-1.47,3.35-3.69,3.35-1.23,0-2.36-.4-3.35-1.13v-1.78c.96,1.06,2.1,1.64,3.35,1.64s2.25-.81,2.25-2.06c0-1.1-.36-1.74-2.85-3.04-2.02-1.04-2.8-2.02-2.8-3.67,0-1.83,1.57-3.2,3.72-3.2,1,0,2,.28,2.87.83Z"></path>
                            <path fill="currentColor" class="st0" d="M209.39,67.73v1.25h-4.61v11.64h-1.42v-11.64h-4.56v-1.25h10.59Z"></path>
                            <path fill="currentColor" class="st0" d="M212.81,78.81v1.81h-1.59v-1.81h1.59Z"></path>
                            <path fill="currentColor" class="st0" d="M228.98,67.56v13.06h-1.42v-10.66l-2.49,1.98-.81-1,4.18-3.38h.55Z"></path>
                            <path fill="currentColor" class="st0" d="M236.65,79.75c2.44-1.7,3.89-3.59,4.33-5.5-.76.49-1.57.76-2.46.76-2.1,0-3.61-1.7-3.61-3.63,0-2.25,1.7-3.82,3.82-3.82,2.42,0,4.08,1.89,4.08,4.61,0,3.1-2.04,6.48-5.31,8.62l-.85-1.04ZM238.81,73.72c1.1,0,2.51-.38,2.51-1.85,0-1.7-.93-3.01-2.59-3.01-1.46,0-2.4,1.1-2.4,2.46s1.15,2.4,2.48,2.4Z"></path>
                            <path fill="currentColor" class="st0" d="M252.57,69.07h-6.24v-1.34h8.36c-1.36,3.02-2.72,6.09-6.03,13.06l-1.25-.57,5.16-11.15Z"></path>
                            <path fill="currentColor" class="st0" d="M263.89,69.07h-6.24v-1.34h8.36c-1.36,3.02-2.72,6.09-6.03,13.06l-1.25-.57,5.16-11.15Z"></path>
                          </g>
                        </svg>