<svg xmlns="http://www.w3.org/2000/svg" viewBox="0 0 1641.47 1669.21" style="translate: none; rotate: none; scale: none; transform: translate(0px, 0px); transform-origin: 50% 50%;" class="footer--logo">
            <g>
              <g>
                <path class="b" d="M22.48,591.01l8.72-21.88,46.21,1.43c7.6.28,19.16,1.8,20.31,1.92-.52-.38-10.35-7.55-15.72-13.45l-33.56-35.82.82-2.07,49.11-3.25c7.73-.51,19.5.91,20.66,1.03-.54-.38-10.27-7.34-16.08-12.57l-34.6-30.57,8.01-20.11,86.92,76.92-.82,2.07-57.53,3.32c-6.32.4-16.02-.21-17.02-.27.38.32,8.03,6.96,12.5,11.66l39.15,42.83-.82,2.07-116.26-3.27Z"></path>
                <path class="b" d="M173.23,309.43l26.56-30.08c14.65-16.59,34.42-23.34,53.4-6.58,12.29,10.85,14.35,24.16,9.73,36.85l47,8.58-16.86,19.1-42.71-8.41-9.38,10.62,28.16,24.87-14.75,16.71-81.15-71.67ZM238.27,314.2c7.27-8.24,8.69-16.34-.27-24.25-9.06-8.01-16.9-5.15-23.96,2.85l-11.38,12.88,24.23,21.4,11.38-12.88Z"></path>
                <path class="b" d="M362.92,136.5l61.35-36.98,10.1,16.77-42.26,25.48,12.83,21.27,37.21-22.44,9.87,16.36-37.22,22.43,12.99,21.55,44.17-26.63,10.11,16.77-63.26,38.14-55.88-92.71Z"></path>
                <path class="b" d="M635.89,79.47c-6.42-3.74-15.9-11.52-15.9-11.52,0,0,4.24,11.27,5.99,18.88l10.22,44.22-20.33,4.7-24.59-106.42,2.18-.51,64.75,37.66c6.23,3.63,15.74,11.56,15.74,11.56,0,0-4.15-11.62-5.84-18.91l-10.22-44.22,20.32-4.7,24.59,106.42-2.17.51-64.75-37.66Z"></path>
                <path class="b" d="M841.58,84.96l18.91-9.04c4.15,8.15,9.89,14.35,20.84,15.21,9.2.73,15.43-3.41,15.93-9.76.6-7.62-5.21-10.79-15.02-16.03l-5.37-2.82c-15.49-8.08-25.44-17.49-24.02-35.58,1.32-16.66,15.01-28.35,34.84-26.8,14.12,1.11,23.89,6.84,30.18,20.26l-18.18,9.75c-3.26-7.13-7.18-10.14-13.53-10.65-6.5-.51-10.95,3.29-11.38,8.69-.52,6.66,3.39,9.69,12.58,14.56l5.37,2.82c18.25,9.58,28.23,18.66,26.77,37.23-1.57,20-18.15,29.71-39.25,28.04-20.63-1.63-33.19-12.51-38.67-25.88Z"></path>
                <path class="b" d="M1092.84,43.7l20.99,7.51-36.51,101.92-20.99-7.52,36.51-101.91Z"></path>
                <path class="b" d="M1272.23,129.9l18.26,12.77-50.85,72.64,40.16,28.12-11.23,16.04-58.42-40.9,62.08-88.67Z"></path>
                <path class="b" d="M1439.32,270.06l15,18.58-20.75,40.7c-4.41,8.48-12.95,20.7-13.77,21.97.72-.38,14.48-6.38,24.27-8.97l43.86-12.09,13.61,16.85-114.79,31.72-1.4-1.74,53.96-107.03Z"></path>
                <path class="b" d="M1593.02,513.21l.73,1.76-82.28,87.3-8.89-21.67,11.26-11.16-15.96-38.89-15.85-.03-8.16-19.89,119.15,2.59ZM1528.05,555l12.57-12.56c5.49-5.52,14.44-12.64,15.35-13.36-.5.03-12.17,1.39-20.25,1.42l-17.78-.1,10.1,24.6Z"></path>
                <path class="b" d="M77.68,1168.3l17.66,11.32c-4.75,7.82-7,15.95-1.98,25.72,4.23,8.21,11.02,11.34,16.68,8.42,6.8-3.5,6.43-10.12,5.73-21.21l-.43-6.05c-1.28-17.43,1.48-30.85,17.62-39.16,14.86-7.65,32.01-2.16,41.13,15.53,6.48,12.59,6.76,23.92-1.35,36.33l-17.85-10.33c4.33-6.53,4.84-11.45,1.93-17.11-2.99-5.8-8.56-7.58-13.38-5.1-5.95,3.06-6.46,7.98-5.77,18.36l.43,6.05c1.46,20.55-1.02,33.82-17.58,42.36-17.83,9.18-34.81.2-44.51-18.62-9.47-18.4-6.82-34.81,1.65-46.51Z"></path>
                <path class="b" d="M250.18,1281.88l1.19,1.49-54.76,106.66-14.54-18.33,7.71-13.85-26.13-32.91-15.22,4.37-13.36-16.84,115.12-30.59ZM199.42,1340.05l8.58-15.56c3.74-6.81,10.36-16.14,11.04-17.08-.48.17-11.3,4.71-19.04,6.99l-17.11,4.83,16.53,20.82Z"></path>
                <path class="b" d="M314.8,1433.12c-.97-7.37-.62-19.63-.62-19.63,0,0-6.32,10.25-11.26,16.29l-28.72,35.12-16.14-13.2,69.14-84.53,1.72,1.41,9.81,74.24c.94,7.15.49,19.52.49,19.52,0,0,6.65-10.4,11.39-16.19l28.72-35.12,16.14,13.21-69.14,84.52-1.72-1.41-9.81-74.24Z"></path>
                <path class="b" d="M533.97,1502.73l31.29,11.32c31.29,11.32,46.07,40.2,35.17,70.29-10.89,30.1-40.58,42.89-72.01,31.51l-31.29-11.32,36.83-101.81ZM534.04,1597.06c22.59,8.18,37.81-1.55,44.68-20.57,6.88-19.01,1.43-36.22-21.18-44.41l-9.28-3.36-23.51,64.97,9.28,3.36Z"></path>
                <path class="b" d="M686.98,1548.23l21.95,3.78-18.34,106.65-21.95-3.78,18.34-106.65Z"></path>
                <path class="b" d="M782.02,1560.4l71.64.52-.14,19.58-49.35-.36-.18,24.84,43.47.31-.14,19.11-43.47-.32-.18,25.16,51.58.36-.14,19.59-73.88-.52.78-108.28Z"></path>
                <path class="b" d="M930.96,1609.1c-6.41-31.36,11.04-58.83,43.02-65.37,17.31-3.54,30.75-1.42,41.53,6.78l-11.82,17.7c-6.42-4.38-13.36-7.35-25.68-4.82-19.19,3.93-28.63,21.31-24.58,41.11,4.05,19.82,19.95,32.32,42.24,27.76,6.86-1.41,15.03-4.38,19.95-8.14l-3.52-17.17-25.57,5.23-3.93-19.18,45.55-9.32,9.7,47.42c-5.07,6.23-18.85,16.69-38.19,20.64-34.62,7.09-62.28-11.3-68.7-42.65Z"></path>
                <path class="b" d="M1103.93,1565.04c-13.56-28.98-1.04-60.85,27.23-74.07,28.26-13.21,60.74-2.4,74.3,26.59,13.56,28.99,1.04,60.85-27.23,74.07-28.27,13.22-60.74,2.4-74.3-26.59ZM1184.69,1527.27c-8.56-18.31-27.21-26.64-45.1-18.27-17.88,8.36-23.46,28.02-14.89,46.34,8.57,18.31,27.22,26.64,45.1,18.27,17.89-8.36,23.46-28.02,14.89-46.34Z"></path>
                <path class="b" d="M1299.25,1519.42c-5.19.92-10.18-.63-13.47-5.32-4.31-6.12-2.44-14.25,3.56-18.46,5.85-4.13,14.14-3.14,18.63,3.24,3.02,4.3,3.36,8.93,3.88,13.82l2.3,19.6-8.86,6.23-6.04-19.1Z"></path>
                <path class="b" d="M1409.36,1353.22c-25.17-19.74-28.35-53.59-9.2-78.01,12.08-15.4,26.24-22.1,44.11-20.41l-.98,20.87c-9.65-1.11-19.69,2.15-27.36,11.91-12.08,15.4-8.34,35.13,7.57,47.6,15.9,12.48,36.2,11.61,48.28-3.78,8.65-11.02,8.2-21.29,4.67-31.74l20.1-6.28c5.73,16.42,3.76,33.89-9.12,50.29-19.15,24.42-52.9,29.29-78.07,9.55Z"></path>
                <path class="b" d="M1477.24,1151.89l.84-1.72,119.85,3.4-10.26,21.03-15.81-.98-18.44,37.76,10.52,11.86-9.43,19.32-77.27-90.67ZM1551.63,1172.61l-17.74-1.04c-7.77-.42-19.03-2.38-20.17-2.58.36.36,9.11,8.17,14.51,14.17l11.74,13.34,11.66-23.88Z"></path>
                <path class="b" d="M0,827.33h16.29v33.52h33.87v-33.52h16.3v79.15h-16.3v-31.08H16.29v31.08H0v-79.15Z"></path>
                <path class="b" d="M124.96,827.33h16.29v79.15h-16.29v-79.15Z"></path>
                <path class="b" d="M1518.48,827.33h50.98v14.32h-34.69v20.61h31.55v14.55h-31.55v29.68h-16.29v-79.15Z"></path>
                <path class="b" d="M1625.17,827.33h16.29v79.15h-16.29v-79.15Z"></path>
              </g>
            </g>
          </svg>