<svg class="logo" width="59" height="31" viewBox="0 0 59 31" fill="none" xmlns="http://www.w3.org/2000/svg">
  <path d="M0.322543 21.0812C0.261827 18.7195 1.13642 16.4295 2.75593 14.7096C3.44293 13.9357 4.23571 13.2626 5.11082 12.7103C6.36751 11.9605 7.79134 11.5358 9.25347 11.4748C10.9417 11.3671 12.6273 11.7223 14.1285 12.5023C14.3039 12.593 14.4707 12.7009 14.6419 12.801C15.0116 13.0172 15.1643 12.9438 15.1831 12.5262C15.209 11.9473 15.2349 11.368 15.2404 10.7883C15.2565 9.10536 15.2596 7.422 15.2734 5.73865C15.2761 5.39993 15.3075 5.06122 15.3169 4.72251C15.3345 4.59563 15.3247 4.46646 15.2883 4.34367C15.2518 4.22089 15.1894 4.10734 15.1054 4.01066C15.0213 3.91399 14.9176 3.83643 14.8011 3.7832C14.6846 3.72997 14.558 3.7023 14.4299 3.70206C13.9534 3.62945 13.4679 3.66948 12.9962 3.56351C12.9134 3.54506 12.8286 3.53564 12.7466 3.51366C12.3148 3.39592 12.1904 3.22872 12.2128 2.78443C12.2352 2.34014 12.411 2.12153 12.8427 2.08228C14.654 1.86638 16.4483 1.52634 18.2131 1.06458C18.6928 0.942859 19.1791 0.848381 19.6696 0.781597C20.0722 0.736854 20.1798 0.822807 20.1904 1.23413C20.2029 1.67214 20.1982 2.11093 20.1994 2.54934C20.2053 4.99646 20.1778 7.44437 20.223 9.88875C20.3175 15.0228 20.2602 20.1573 20.3089 25.2909C20.3144 25.884 20.3536 26.4774 20.3576 27.0712C20.3599 27.3931 20.4133 27.45 20.7453 27.5226C21.1874 27.6195 21.6365 27.6805 22.0884 27.7051C22.3001 27.7144 22.511 27.7369 22.7199 27.7726C22.7912 27.7751 22.8613 27.7919 22.9261 27.8219C22.9908 27.852 23.0489 27.8946 23.0969 27.9474C23.1449 28.0002 23.1819 28.0621 23.2057 28.1294C23.2294 28.1967 23.2395 28.2681 23.2353 28.3393C23.2581 28.4949 23.2254 28.6536 23.1429 28.7875C23.0605 28.9214 22.9335 29.022 22.7843 29.0717C22.4551 29.1536 22.1218 29.2179 21.7858 29.2644C20.648 29.3944 19.5185 29.5886 18.4026 29.8461C17.8118 29.9921 17.2406 30.2087 16.7016 30.4913C16.5191 30.6002 16.3217 30.682 16.1156 30.7343C16.0318 30.766 15.9413 30.7755 15.8528 30.762C15.7642 30.7485 15.6807 30.7124 15.6101 30.6571C15.5396 30.6019 15.4846 30.5294 15.4502 30.4466C15.4159 30.3639 15.4035 30.2737 15.4143 30.1848C15.4228 29.7182 15.4053 29.2514 15.3617 28.7868C15.3032 28.3943 15.253 28.3582 14.9186 28.5583C14.2203 28.9895 13.4906 29.3675 12.7356 29.6891C11.8251 30.0434 10.8635 30.2486 9.88772 30.2966C8.95647 30.3533 8.02181 30.3057 7.1011 30.155C5.78666 29.9129 4.56032 29.3254 3.54796 28.4528C1.86657 27.1148 0.983875 25.331 0.570199 23.2716C0.428269 22.5494 0.345443 21.8168 0.322543 21.0812ZM15.322 24.2913C15.3648 23.5291 15.2734 22.6268 15.2683 21.7225C15.2608 20.4088 15.2643 19.0928 15.1627 17.7831C15.1264 16.9612 14.908 16.1575 14.5233 15.4302C13.2525 13.1821 10.3995 12.9222 8.62943 13.9639C7.61988 14.5853 6.86263 15.5437 6.49158 16.6697C5.72609 18.7555 5.62761 21.0277 6.20977 23.1719C6.50765 24.4813 7.24854 25.6477 8.3072 26.4739C8.94961 26.9888 9.69695 27.3569 10.4967 27.5523C11.2965 27.7477 12.1294 27.7657 12.9369 27.605C13.5681 27.4497 14.1754 27.2099 14.7423 26.8919C14.9318 26.8146 15.091 26.6778 15.1958 26.502C15.3006 26.3263 15.3453 26.1211 15.3232 25.9177C15.3154 25.4236 15.322 24.9287 15.322 24.2913Z" fill="#040404"></path>
  <path d="M32.5847 30.2632C31.2318 30.2878 29.8887 30.0284 28.6422 29.5018C27.9448 29.1882 27.2919 28.7835 26.7006 28.2985C25.8482 27.6399 25.1177 26.8372 24.542 25.9267C23.9482 24.9436 23.5565 23.8518 23.39 22.7154C23.2393 21.8369 23.1784 20.9453 23.2083 20.0544C23.2339 18.3337 23.7127 16.6501 24.5965 15.1735C25.2704 14.0113 26.21 13.0254 27.3385 12.2965C28.467 11.5676 29.7521 11.1165 31.0886 10.9802C32.4951 10.8044 33.9221 10.8964 35.2944 11.2514C37.1432 11.7561 38.7466 12.9133 39.8079 14.509C41.2405 16.525 41.8793 18.9984 41.602 21.456C41.5583 22.2326 41.4336 23.0025 41.2299 23.7531C40.4214 26.3577 38.928 28.3997 36.3671 29.5273C35.1736 30.0408 33.8837 30.2918 32.5847 30.2632ZM36.7089 20.5383C36.7219 19.6415 36.6876 18.7446 36.6061 17.8514C36.5608 16.9179 36.3686 15.9973 36.0366 15.1236C35.722 14.2818 35.1354 13.569 34.3697 13.0984C33.6548 12.6834 32.8271 12.5048 32.0046 12.5882C31.5376 12.617 31.0812 12.74 30.663 12.9498C30.2448 13.1597 29.8734 13.452 29.5712 13.8092C29.0695 14.4096 28.7315 15.1296 28.59 15.8992C28.3199 17.4161 28.1814 18.9536 28.176 20.4944C28.1511 21.5263 28.2088 22.5585 28.3486 23.5812C28.4364 24.4398 28.6227 25.2854 28.904 26.1014C29.1058 26.7559 29.4936 27.3376 30.02 27.7757C30.5465 28.2138 31.1889 28.4893 31.8692 28.5689C32.6053 28.7168 33.3696 28.6199 34.0455 28.2929C34.7214 27.966 35.2718 27.4269 35.6127 26.758C35.8834 26.2609 36.0925 25.7327 36.2352 25.1849C36.6076 23.6655 36.767 22.1017 36.7089 20.5383Z" fill="#040404"></path>
  <path d="M43.6447 22.7071C43.6675 20.3318 43.7429 17.958 43.7311 15.5812C43.7272 14.8268 43.7311 14.8304 42.9944 14.8158C42.5279 14.8308 42.0609 14.8131 41.5968 14.7629C41.2082 14.7004 41.0932 14.5701 41.0803 14.1741C41.0767 14.0611 41.0846 13.9477 41.0826 13.8346C41.0692 13.6645 41.1132 13.4947 41.2075 13.3524C41.3019 13.2102 41.4411 13.1036 41.6031 13.0497C42.0195 12.8746 42.4182 12.6572 42.8268 12.4609C44.258 11.7903 45.4673 10.724 46.3121 9.3882C46.5868 8.95961 46.8505 8.52474 47.119 8.09301C47.2717 7.89299 47.4861 7.74887 47.7289 7.68296C47.9718 7.61705 48.2296 7.63302 48.4625 7.7284C48.5195 7.75774 48.5679 7.80138 48.603 7.85504C48.638 7.9087 48.6586 7.97055 48.6626 8.03453C48.6732 8.16091 48.674 8.28886 48.6736 8.41602C48.6713 9.56168 48.6658 10.7069 48.6658 11.8526C48.6658 12.3134 48.6878 12.3346 49.1415 12.3369C50.1882 12.3424 51.2346 12.342 52.2813 12.3463C52.4227 12.3432 52.5641 12.3502 52.7044 12.3671C52.797 12.3752 52.8845 12.4133 52.9534 12.4757C53.0223 12.538 53.069 12.6212 53.0863 12.7125C53.2109 13.2526 53.202 13.8149 53.0604 14.3507C53.0373 14.456 52.9801 14.5507 52.8976 14.6199C52.8151 14.6892 52.712 14.7293 52.6043 14.7338C52.4783 14.7472 52.3504 14.7452 52.2232 14.746C51.233 14.7503 50.2432 14.7523 49.2529 14.7574C48.625 14.7605 48.5994 14.786 48.5979 15.3987C48.5932 17.2936 48.5895 19.1887 48.5869 21.0842C48.5869 22.4418 48.59 23.7997 48.5869 25.1573C48.5889 25.4968 48.6212 25.8354 48.6834 26.1692C48.7184 26.5266 48.8845 26.8585 49.1498 27.1006C49.4151 27.3427 49.7608 27.4779 50.1199 27.4801C50.6447 27.5554 51.1781 27.4198 51.6031 27.1029C51.8115 26.9337 52.0403 26.7889 52.2476 26.6189C52.2814 26.5825 52.3227 26.5537 52.3687 26.5345C52.4146 26.5153 52.4641 26.5062 52.5139 26.5078C52.5636 26.5093 52.6125 26.5215 52.6571 26.5435C52.7018 26.5656 52.7412 26.5969 52.7727 26.6354C52.9352 26.7924 53.1079 26.9408 53.2555 27.1111C53.5604 27.462 53.5569 27.5888 53.2794 27.9632C52.8006 28.5985 52.182 29.1151 51.4716 29.4731C50.3061 30.102 48.9766 30.3607 47.6602 30.2149C45.6782 29.9908 44.1479 28.7179 43.8017 26.4337C43.7008 25.7912 43.6484 25.142 43.6447 24.4917C43.644 23.8959 43.644 23.301 43.6447 22.7071Z" fill="#040404"></path>
  <path d="M56.2196 29.7502C55.656 29.7526 55.1144 29.5313 54.7136 29.135C54.3128 28.7386 54.0856 28.1995 54.0818 27.6359C54.0921 27.0719 54.3232 26.5345 54.7254 26.1391C55.1276 25.7437 55.6689 25.5218 56.233 25.5212C56.8044 25.5201 57.3536 25.7419 57.7641 26.1394C58.1745 26.537 58.4137 27.0789 58.4309 27.65C58.4156 28.2215 58.1741 28.7637 57.7596 29.1574C57.345 29.5511 56.7912 29.7643 56.2196 29.7502Z" fill="#040404"></path>
</svg>