<svg aria-hidden="true" focusable="false" width="205" height="33" viewBox="0 0 205 33" fill="none" class="icon tw-hidden lg:tw-block header__heading-logo" xmlns="http://www.w3.org/2000/svg" role="img">
	<title>Tea Drops  </title>
	<path d="M14.6478 32H5.3522V10.3273H0V1H20V10.3273H14.6478V32Z" fill="#1D7CB1"></path>
	<path d="M22 1H42V10.2455H31.2956V14.0526H42V18.9474H31.2956V23.0263H42V32H22V1.27186V1Z" fill="#1D7CB1"></path>
	<path d="M76 31.9923V1H87.1341C95.763 1 103 8.13098 103 16.6333C103 25.1356 95.763 32.2666 87.1341 31.9923H76ZM85.1854 10.5994V22.1186H86.8558C90.196 22.1186 92.7011 19.376 92.7011 16.3591C92.7011 13.3421 92.1445 13.3421 91.0311 12.2451C89.9177 11.148 88.5259 10.5994 86.8558 10.5994H85.1854Z" fill="#1D7CB1"></path>
	<path d="M132 32H119.938L114.845 26.2389V32H106V1H117.258C123.423 1 128.516 6.2124 128.516 12.5221C128.516 16.3628 126.371 19.9292 123.423 21.8496L132 32ZM114.845 9.77876V16.6371H116.454C118.33 16.6371 119.67 14.9911 119.67 13.3451C119.67 11.6991 118.062 10.0532 116.454 10.0532H114.845V9.77876Z" fill="#1D7CB1"></path>
	<path d="M147.059 0.503025C155.672 0.503025 163.208 7.76637 162.939 16.3749C162.939 24.9834 155.672 32.2469 147.059 32.2469C138.447 32.2469 130.911 24.9834 131.18 16.3749C131.18 7.76637 138.447 0.234009 147.059 0.503025ZM147.059 10.1875C143.83 10.1875 141.138 12.8777 141.138 16.1059C141.138 19.3341 143.83 22.0243 147.059 22.0243C150.289 22.0243 152.981 19.3341 152.981 16.1059C152.981 12.8777 150.289 10.1875 147.059 10.1875Z" fill="#1D7CB1"></path>
	<path d="M175.032 25.1416V32H166V1H176.948C183.517 1 189.264 6.48677 188.991 13.0708C188.991 19.6549 183.517 25.416 176.948 25.1416H175.306H175.032ZM175.032 9.50449V16.3629H176.674C178.59 16.3629 179.958 14.7168 179.958 13.0708C179.958 11.4248 178.316 9.77876 176.674 9.77876H175.032V9.50449Z" fill="#1D7CB1"></path>
	<path d="M191 24.0513C191 24.0513 191.528 24.0513 191.793 24.0513C193.642 24.0513 194.962 22.7264 194.962 20.8717C194.962 19.017 194.434 18.4871 193.641 16.8974C192.321 14.5128 191.528 12.9231 191.528 10.5385C191.528 4.70947 194.962 0.999973 201.302 0.999973C204.5 1 204.207 0.843744 204.207 1.52992V8.94868H203.943C202.358 8.94868 201.302 10.0086 201.302 11.8633C201.302 13.718 201.566 13.453 202.623 14.7778C204.207 17.1624 205 19.017 205 22.1965C205 27.4957 201.038 32 194.962 32C191 32 191.264 32.25 191.264 31.47V24.0513H191Z" fill="#1D7CB1"></path>
	<path d="M58.4574 26.793L56.4798 21.4648L54.5022 26.793H58.4574ZM53.13 30.4661L52.565 32H43L56.4798 1L70 32H60.435L59.87 30.4661H53.13Z" fill="#1D7CB1"></path>
</svg>