<svg class="c-header__logo-svg" fill="none" viewBox="0 0 164 34" xmlns="http://www.w3.org/2000/svg"><g clip-rule="evenodd" fill-rule="evenodd"><path d="m135.993 25.9061 10.438-25.9061-8.778.517743-4.339 12.720357-4.829-12.18362-8.778.51775 9.653 21.01837s-1.022 3.1872-5.071 3.4106v7.9988c3.416-.1805 8.825-.9167 11.704-8.0939zm-17.309-14.435v-9.82762c-5.852.34675-7.997 3.27746-8.145 4.37944v-3.9092l-8.63.50825v25.30293l8.873-.4845v-8.5309c.005-4.7642 1.465-7.0679 7.902-7.4384zm-18.7115-8.72571v9.79911c-6.4372.3657-7.9025 2.6695-7.9025 7.4147v8.5024l-8.873.4845v-25.22222l8.6305-.50823v3.89493c.1475-1.09722 2.2931-4.02319 8.145-4.36519zm-18.8975 16.45861c.1141-.7314.1856-1.4725.1856-2.2325v-.7695c0-7.45263-5.6094-13.06229-12.9361-12.63005-7.6312.45124-13.4451 6.71165-13.4451 14.13105v.7647c0 7.4194 5.8139 13.0196 13.4451 12.6064 5.7187-.3135 10.3812-4.1895 12.1558-9.424l-8.6637.4845c-.8325 1.0166-2.0648 1.672-3.4873 1.7528-2.2741.1283-4.0915-1.3775-4.6483-3.7097l9.1965-.5177v.0095zm-17.4034-4.2131 9.1966-.5273c-.2997-2.3465-2.1696-3.8474-4.5483-3.7097-2.2742.133-4.0917 1.843-4.6483 4.237zm-19.6014 16.0927 8.8729-.4845v-14.4873c0-7.36713-2.4359-10.95808-8.7303-10.58283-2.2931.13774-4.829.82174-7.0223 3.15871v-7.875395l-8.873.531995v30.60382l8.873-.4845v-11.8084c0-3.0874 1.3655-5.4671 4.0964-5.6239 1.708-.0997 2.7784.8693 2.7784 3.7145v13.3378zm-30.8773-15.7603c-2.6642.152-4.83371 2.4035-4.83371 5.016s2.16951 4.6169 4.83851 4.4648c1.9935-.1139 3.7585-1.3869 4.4913-3.2536l.2378-.6033 8.4544-.4749-.1903 1.1162c-1.0943 6.4124-6.5608 11.3238-12.998 11.6753-7.27438.3989-13.1929-5.187-13.1929-12.4496s5.91852-13.51827 13.1929-13.94577c6.4086-.37998 11.8705 3.88067 12.9884 10.13637l.1951 1.102-8.4639.4845-.2426-.57c-.747-1.7527-2.5025-2.812-4.477-2.698z" fill="#fff"></path><path d="m158.245 15.1379c2.825-.1615 4.924 1.8667 4.924 4.6122s-2.099 5.0065-4.924 5.1584c-2.784.152-4.83-1.8761-4.83-4.6169 0-2.7406 2.051-4.9969 4.83-5.1537zm-11.681.5889c2.826-.1614 4.924 1.8668 4.924 4.6123s-2.093 5.0063-4.924 5.1584c-2.783.152-4.829-1.8762-4.829-4.617 0-2.7407 2.051-4.9969 4.829-5.1537z" fill="#e94a34"></path></g></svg>