<svg xmlns="http://www.w3.org/2000/svg" fill="none" width="265" height="48" viewBox="0 0 265 48" class="icon icon-logo"><path fill="#484847" d="M50.641 34.346v1.87H35.303v-1.87l2.466-2.102v-9.268c0-3.583-1.85-4.985-4.085-4.985-1.233 0-2.313.312-3.315.935.232.934.309 2.025.309 3.115v10.203l2.466 2.102v1.87H17.728v-1.87l2.467-2.102v-9.268c0-3.583-1.696-4.985-3.854-4.985-1.31 0-2.467.39-3.469 1.012v13.24l2.467 2.103v1.87H0v-1.87l2.467-2.102V16.278L0 14.33v-1.87l10.56-1.713a1.913 1.913 0 011.464.39c.54.389.771.934.771 1.635v2.492c2.081-2.96 5.165-4.595 8.402-4.595 3.854 0 6.783 2.025 8.247 5.53 2.005-3.427 5.473-5.53 9.173-5.53 5.78 0 9.48 4.517 9.48 11.449v10.203l2.544 2.024zm31.063-2.024c-1.696 2.647-4.702 4.439-8.247 4.439-3.083 0-5.319-1.558-5.781-4.284-1.542 2.337-4.394 4.595-8.48 4.595-3.93 0-6.936-2.336-6.936-5.919 0-5.53 5.318-8.645 15.262-9.424-.309-2.881-1.85-4.283-4.857-4.283-2.312 0-5.01.7-7.168 1.947l-1.464-1.87c3.16-4.283 8.016-6.93 13.026-6.93 7.169 0 10.868 4.127 10.868 11.292v5.92c0 2.024.309 2.803 1.31 2.803.386 0 .771-.078 1.157-.311l1.31 2.024zM67.6 28.817v-2.492c-1.465-.624-2.852-1.013-4.163-1.013-1.618 0-2.697.779-2.697 2.025 0 1.558 1.31 2.337 3.314 2.337 1.31 0 2.544-.312 3.546-.857zm66.133 5.529v1.87h-15.339v-1.87l2.467-2.102v-9.268c0-3.583-1.85-4.985-4.085-4.985-1.234 0-2.313.312-3.315.935.231.934.309 2.025.309 3.115v10.203l2.466 2.102v1.87h-15.339v-1.87l2.467-2.102v-9.268c0-3.583-1.696-4.985-3.854-4.985-1.31 0-2.467.39-3.469 1.012v13.24l2.467 2.103v1.87h-15.34v-1.87l2.467-2.102V16.278L83.17 14.33v-1.87l10.56-1.713a1.913 1.913 0 011.464.39c.54.389.771.934.771 1.635v2.492c2.081-2.96 5.165-4.595 8.402-4.595 3.854 0 6.783 2.025 8.247 5.53 2.004-3.427 5.473-5.53 9.173-5.53 5.781 0 9.481 4.517 9.481 11.449v10.203l2.466 2.024zm52.8 0v1.87h-15.416v-1.87l2.467-2.102v-9.268c0-3.583-1.85-4.985-4.086-4.985-1.233 0-2.312.312-3.314.935.231.934.308 2.025.308 3.115v10.203l2.467 2.102v1.87H153.62v-1.87l2.466-2.102v-9.268c0-3.583-1.695-4.985-3.854-4.985-1.31 0-2.466.39-3.468 1.012v13.24l2.466 2.103v1.87h-15.338v-1.87l2.466-2.102V16.278l-2.466-1.947v-1.87l10.56-1.713a1.916 1.916 0 011.464.39c.54.389.771.934.771 1.635v2.492c2.081-2.96 5.164-4.595 8.401-4.595 3.854 0 6.783 2.025 8.248 5.53 2.004-3.427 5.473-5.53 9.172-5.53 5.781 0 9.481 4.517 9.481 11.449v10.203l2.544 2.024zm31.063-2.024c-1.696 2.647-4.702 4.439-8.248 4.439-3.083 0-5.318-1.558-5.781-4.284-1.541 2.337-4.393 4.595-8.478 4.595-3.932 0-6.938-2.336-6.938-5.919 0-5.53 5.319-8.645 15.262-9.424-.308-2.881-1.85-4.283-4.856-4.283-2.312 0-5.01.7-7.168 1.947l-1.465-1.87c3.16-4.283 8.016-6.93 13.027-6.93 7.168 0 10.868 4.127 10.868 11.292v5.92c0 2.024.308 2.803 1.31 2.803a2.16 2.16 0 001.156-.311l1.311 2.024zm-14.183-3.505v-2.492c-1.464-.624-2.852-1.013-4.162-1.013-1.619 0-2.698.779-2.698 2.025 0 1.558 1.31 2.337 3.314 2.337 1.311 0 2.621-.312 3.546-.857zm15.185 5.529l2.467-2.102V5.608l-2.467-1.947V1.713L229.235 0a1.919 1.919 0 011.465.39c.539.389.77.934.77 1.635v30.219l2.467 2.102v1.87h-15.339v-1.87zM265 13.318l-2.467 2.103-6.012 19.315c-2.621 8.333-6.012 12.305-13.566 12.305-2.929 0-5.473-.467-7.245-1.324l2.466-6.308c.309-.779 1.002-1.246 1.85-1.246.308 0 .694.078 1.002.233 1.388.701 2.467 1.09 4.625 1.09 2.544 0 5.704-1.09 6.86-4.672l.077-.234-6.32 1.013c-.386.077-.771 0-1.08-.312a2.43 2.43 0 01-.693-.857L236.789 15.5l-2.544-2.103v-1.87h15.57v1.87l-2.466 2.103 6.089 15.031h.231l3.7-15.031-2.467-2.103v-1.87h10.252v1.792H265z"></path></svg>