<svg class="desktop-amber-logo" xmlns="http://www.w3.org/2000/svg" width="239.023" height="79.63" viewBox="0 0 239.023 79.63">
  <g id="Group_2" data-name="Group 2" transform="translate(-47.728 -57.614)">
    <path id="Path_19" data-name="Path 19" d="M212.422,57.614A20.647,20.647,0,0,0,191.4,78.256c0,11.944,9.368,20.64,21.022,20.64s20.992-8.7,20.992-20.64A20.621,20.621,0,0,0,212.422,57.614Zm0,40.463c-9.662,0-17.04-8.609-17.04-19.821,0-11.156,7.378-19.822,17.04-19.822s17.04,8.666,17.04,19.822C229.462,89.468,222.084,98.077,212.422,98.077Z" transform="translate(-58.784 0)" fill="#000"></path>
    <path id="Path_20" data-name="Path 20" d="M297.2,57.614H287.191V98.9H290.7V79.133h6.5c7.378,0,13.82-3.338,13.82-10.746S304.581,57.614,297.2,57.614Zm-.528,20.7H290.7V58.434h5.972c6.97,0,10.511,3.513,10.511,9.953S303.645,78.312,296.676,78.312Z" transform="translate(-97.977 0)" fill="#000"></path>
    <path id="Path_21" data-name="Path 21" d="M60.176,74.685c-5.039-3.024-9.07-5.394-9.07-9.425,0-4.386,4.712-6.817,8.951-6.817a13.565,13.565,0,0,1,7.735,2.638V59.274a19.227,19.227,0,0,0-7.675-1.66c-5.483,0-11.411,2.9-11.411,9.009,0,5.838,5.839,8.95,10.936,12.387,5.186,3.5,9.247,6.373,9.247,11.055,0,4.742-4.594,8-10.046,8A16.425,16.425,0,0,1,47.728,93.3V95.28a18.16,18.16,0,0,0,11,3.615c5.719,0,13.128-2.785,13.128-10.55C71.851,82.093,66.458,78.478,60.176,74.685Z" transform="translate(0 0)" fill="#000"></path>
    <path id="Path_22" data-name="Path 22" d="M361.238,57.614H351.226V98.9h3.513V79.133h6.5c7.378,0,13.82-3.338,13.82-10.746S368.616,57.614,361.238,57.614Zm-.527,20.7h-5.972V58.434h5.972c6.969,0,10.511,3.513,10.511,9.953S367.68,78.312,360.711,78.312Z" transform="translate(-124.178 0)" fill="#000"></path>
    <path id="Path_23" data-name="Path 23" d="M435.576,58.434h1.551v-.82h-21.87V98.9h21.87v-.82H418.771V78.665h15.517v-.82H418.771V58.434Z" transform="translate(-150.376)" fill="#000"></path>
    <path id="Path_24" data-name="Path 24" d="M141.243,98.873h3.513V57.614h-3.513v20.23h-24.68V57.636h-3.513V98.9h3.513V78.665h24.68V98.873Z" transform="translate(-26.727 0)" fill="#000"></path>
    <path id="Path_25" class="mobile-hide" data-name="Path 25" d="M120.2,178.094l-3.721,8.267h1.1l.768-1.736h4.795l.769,1.736H125l-3.721-8.267Zm-1.476,5.645,2.008-4.558h.023l2.008,4.558Z" transform="translate(-28.132 -49.295)" fill="#000"></path>
    <path id="Path_26" class="mobile-hide" data-name="Path 26" d="M142.994,184.779h-.024l-3.378-6.685h-1.37v8.267h1.016V179.5h.024l3.507,6.862h.414l3.5-6.862h.023v6.862h1.028v-8.267h-1.37Z" transform="translate(-37.026 -49.295)" fill="#000"></path>
    <path id="Path_27" class="mobile-hide" data-name="Path 27" d="M168.861,181.956v-.024a1.781,1.781,0,0,0,.981-1.713,2.148,2.148,0,0,0-2.421-2.125h-4.158v8.267h3.969c1.913,0,2.917-.851,2.917-2.433A1.982,1.982,0,0,0,168.861,181.956Zm-4.583-2.93H167.2c1.063,0,1.618.437,1.618,1.24,0,.886-.531,1.323-1.618,1.323h-2.917Zm2.775,6.4h-2.775v-2.964h2.811c1.441,0,2.031.425,2.031,1.476C169.121,184.967,168.5,185.428,167.054,185.428Z" transform="translate(-47.272 -49.295)" fill="#000"></path>
    <path id="Path_28" class="mobile-hide" data-name="Path 28" d="M183.062,186.361H189v-.934h-4.925v-2.893h4.548v-.886h-4.548v-2.622H189v-.932h-5.941Z" transform="translate(-55.373 -49.295)" fill="#000"></path>
    <path id="Path_29" class="mobile-hide" data-name="Path 29" d="M208.3,180.551c0-1.547-1.052-2.457-2.823-2.457h-4.016v8.267h1.016v-3.342h2.233l2.1,3.342h1.182l-2.15-3.342v-.012A2.342,2.342,0,0,0,208.3,180.551Zm-2.87,1.534h-2.953v-3.059h2.929c1.252,0,1.866.52,1.866,1.524S206.658,182.085,205.431,182.085Z" transform="translate(-62.901 -49.295)" fill="#000"></path>
    <rect id="Rectangle_3" class="mobile-hide" data-name="Rectangle 3" width="1.016" height="8.267" transform="translate(156.535 128.799)" fill="#000"></rect>
    <path id="Path_30" class="mobile-hide" data-name="Path 30" d="M248.648,184.919h-.023l-4.973-6.826h-1.11v8.267h1.016v-6.826h.024l4.971,6.826h1.123v-8.267h-1.028Z" transform="translate(-79.709 -49.295)" fill="#000"></path>
    <path id="Path_31" class="mobile-hide" data-name="Path 31" d="M262.523,179.026h3.118v7.335h1.016v-7.335h3.118v-.932h-7.252Z" transform="translate(-87.884 -49.295)" fill="#000"></path>
    <path id="Path_32" class="mobile-hide" data-name="Path 32" d="M282.722,186.361h5.941v-.934h-4.925v-2.893h4.548v-.886h-4.548v-2.622h4.925v-.932h-5.941Z" transform="translate(-96.149 -49.295)" fill="#000"></path>
    <path id="Path_33" class="mobile-hide" data-name="Path 33" d="M307.959,180.551c0-1.547-1.051-2.457-2.823-2.457h-4.015v8.267h1.015v-3.342h2.233l2.1,3.342h1.182l-2.149-3.342v-.012A2.342,2.342,0,0,0,307.959,180.551Zm-2.87,1.534h-2.953v-3.059h2.929c1.253,0,1.866.52,1.866,1.524S306.317,182.085,305.089,182.085Z" transform="translate(-103.677 -49.295)" fill="#000"></path>
    <rect id="Rectangle_4" class="mobile-hide" data-name="Rectangle 4" width="1.016" height="8.267" transform="translate(208.965 128.799)" fill="#000"></rect>
    <path id="Path_34" class="mobile-hide" data-name="Path 34" d="M334.725,177.793a4.312,4.312,0,1,0,4.253,4.311A4.125,4.125,0,0,0,334.725,177.793Zm0,7.689a3.382,3.382,0,1,1,3.213-3.377A3.127,3.127,0,0,1,334.725,185.482Z" transform="translate(-115.682 -49.172)" fill="#000"></path>
    <path id="Path_35" class="mobile-hide" data-name="Path 35" d="M359.859,180.551c0-1.547-1.051-2.457-2.822-2.457h-4.016v8.267h1.016v-3.342h2.233l2.1,3.342h1.182l-2.15-3.342v-.012A2.342,2.342,0,0,0,359.859,180.551Zm-2.87,1.534h-2.953v-3.059h2.929c1.252,0,1.866.52,1.866,1.524S358.217,182.085,356.99,182.085Z" transform="translate(-124.912 -49.295)" fill="#000"></path>
    <path id="Path_36" class="mobile-hide" data-name="Path 36" d="M375.151,181.454c-1.831-.378-2.409-.708-2.409-1.406,0-.8.815-1.347,2.008-1.347a2.275,2.275,0,0,1,2.456,1.867l1-.2a3.26,3.26,0,0,0-3.448-2.576c-1.8,0-3.035.934-3.035,2.28,0,1.217.827,1.819,3.177,2.291,2.008.413,2.669.839,2.669,1.712s-.839,1.429-2.186,1.429c-1.724,0-2.669-.756-2.882-2.326l-1,.154c.2,1.949,1.618,3.083,3.874,3.083,1.96,0,3.224-.934,3.224-2.362C378.6,182.671,377.679,181.974,375.151,181.454Z" transform="translate(-132.473 -49.172)" fill="#000"></path>
  </g>
</svg>