<svg id="Layer_1" class="logo logo-brand" data-name="Layer 1" xmlns="http://www.w3.org/2000/svg" viewBox="0 0 229.06 54"> <defs> <style>
      .cls-1 {
        fill: #005997;
        stroke-width: 0px;
      }</style></defs> <path class="cls-1" d="m21.37,29.92c-5.33,1.12-13.36,13.12-13.36,13.12,3.23-7.95,11.35-14.92,11.35-14.92C1.3,25.57.27,53.64.27,53.64c24.43-7.12,22.93-19.61,21.97-22.5-.35-1.04-.87-1.22-.87-1.22"></path> <path class="cls-1" d="m28.61,28.12s8.12,6.97,11.35,14.92c0,0-8.03-11.99-13.36-13.12,0,0-.53.18-.87,1.22-.96,2.89-2.46,15.38,21.97,22.5,0,0-1.03-28.07-19.09-25.52"></path> <path class="cls-1" d="m.27.49s1.03,28.07,19.09,25.52c0,0-8.12-6.97-11.35-14.92,0,0,8.03,11.99,13.36,13.12,0,0,.53-.18.87-1.22C23.2,20.09,24.7,7.6.27.49"></path> <path class="cls-1" d="m25.73,22.98c.35,1.04.87,1.22.87,1.22,5.33-1.12,13.36-13.12,13.36-13.12-3.23,7.95-11.35,14.92-11.35,14.92C46.67,28.56,47.7.49,47.7.49c-24.43,7.12-22.93,19.61-21.97,22.5"></path> <path class="cls-1" d="m178.28,7.1c-2.35,0-3.53,1.21-3.53,3.62s1.18,3.5,3.53,3.5,3.49-1.17,3.49-3.5-1.16-3.62-3.49-3.62"></path> <path class="cls-1" d="m69.74,26.61l6.59-8.5c.29-.38.5-.64.5-1.08,0-.84-.49-1.26-1.46-1.26h-3.96c-.67,0-1.2.28-1.59.83l-3.92,5.41-4.13-5.4c-.42-.56-1-.85-1.75-.85h-4.22c-.89,0-1.33.42-1.33,1.25,0,.5.28.75.58,1.12l6.9,8.74-7.02,9.44c-.37.49-.46.89-.46,1.17,0,.75.45,1.13,1.33,1.13h3.88c.81,0,1.42-.3,1.84-.88l4.17-6.01,4.09,5.96c.31.61.85.92,1.63.92h4.38c.89,0,1.33-.38,1.33-1.13,0-.28-.06-.67-.42-1.17l-6.97-9.71Z"></path> <path class="cls-1" d="m90.62,33.11h-2.97c-1.07,0-1.75-.1-2.02-.29-.39-.25-.58-.85-.58-1.82v-9.81h5.12c.91,0,1.36-.46,1.36-1.36v-2.63c0-.9-.45-1.36-1.36-1.36h-5.12v-1.39s0,0,0,0v-4.17c0-.85-.46-1.28-1.4-1.28h-3.5c-.88,0-1.32.43-1.32,1.28v20.67c0,5.14,2.69,7.65,8.19,7.65,1.4,0,2.57-.05,3.4-.05,1.3,0,1.89-.31,1.89-1.07l-.03-3.27c0-.88-.31-1.09-1.66-1.09"></path> <path class="cls-1" d="m212.71,25.47c-.33.16-1.51.14-3.06.14h-5.63c.05-1.92.44-3.21,1.15-3.87.72-.66,2.05-.99,4-.99,2.53,0,3.7.58,3.8,1.73.06.74.29,2.72-.26,2.99m-3.87-10.07c-3.91,0-6.75.91-8.52,2.74-1.78,1.83-2.66,4.71-2.66,8.64s.91,6.91,2.74,8.86c1.83,1.95,4.67,2.86,8.6,2.86,3.22,0,5.68,0,7.02,0,1.02,0,1.91-.46,1.91-1.78v-2.54c0-.93-.89-1.33-1.91-1.28h-6.34c-1.43-.01-2.43-.11-3.03-.28-1.08-.3-1.79-.93-2.14-1.9h7.22c1.65,0,3.62-.17,4.23-.39.88-.33,1.62-.81,2.25-1.72.89-1.3.7-4.05.65-6.22-.11-4.67-3.04-7.01-10-7.01"></path> <path class="cls-1" d="m107.97,25.47c-.33.16-1.51.14-3.06.14h-5.63c.06-1.92.44-3.21,1.16-3.87.72-.66,2.05-.99,4-.99,2.53,0,3.7.58,3.8,1.73.06.74.29,2.72-.26,2.99m-3.87-10.07c-3.91,0-6.75.91-8.52,2.74-1.77,1.83-2.66,4.71-2.66,8.64s.91,6.91,2.74,8.86c1.83,1.95,4.66,2.86,8.6,2.86,3.22,0,5.04,0,6.39,0,1.02,0,1.91-.46,1.91-1.78v-2.54c0-.93-.89-1.33-1.91-1.28h-5.71c-1.43-.01-2.42-.11-3.03-.27-1.07-.3-1.79-.94-2.15-1.9h7.22c1.65,0,3.62-.17,4.23-.39.88-.33,1.62-.81,2.24-1.72.89-1.3.65-4.07.65-6.22,0-4.67-3.04-7.01-10-7.01"></path> <path class="cls-1" d="m127.64,15.41c-3.44,0-6.4.25-8.87.74-1.49.3-2.23,1.17-2.23,2.6v18.28c0,.88.44,1.32,1.32,1.32h3.58c.88,0,1.32-.44,1.32-1.32v-15.7c.91-.19,2.46-.29,4.64-.29,1.46,0,2.46.18,2.98.54.64.44.95,1.36.95,2.77v12.68c0,.88.44,1.32,1.32,1.32h3.58c.88,0,1.32-.44,1.32-1.32v-13.41c0-5.47-3.31-8.21-9.91-8.21"></path> <path class="cls-1" d="m190.95,14.71c.22-.11.89-.16,2.02-.16h3.34c.93,0,1.4-.2,1.4-2.39,0-1.22-.63-2.86-1.9-3.13-.25-.05-1.39-.08-3.42-.08-5.39,0-8.08,2.57-8.08,7.71v20.31c0,.93.47,1.4,1.4,1.4h3.34c.86,0,1.28-.47,1.28-1.4v-13.65c.06,0,5.2,0,5.2,0,.93,0,1.4-.43,1.4-1.29v-2.56c0-.94-.47-1.41-1.4-1.41h-5.2v-1.61c0-.97.2-1.55.62-1.74"></path> <polygon class="cls-1" points="220.74 16.47 221.92 16.47 221.92 19.82 222.83 19.82 222.83 16.47 224.02 16.47 224.02 15.66 220.74 15.66 220.74 16.47"></polygon> <polygon class="cls-1" points="227.68 15.66 226.72 18.37 226.71 18.37 225.75 15.66 224.37 15.66 224.37 19.82 225.28 19.82 225.28 16.63 225.29 16.63 226.34 19.82 227.04 19.82 228.13 16.63 228.15 16.63 228.15 19.82 229.06 19.82 229.06 15.66 227.68 15.66"></polygon> <path class="cls-1" d="m169.99,8.96h-3.5c-.88,0-1.32.43-1.32,1.28v26.84c0,.85.46,1.28,1.4,1.28h3.5c.88,0,1.32-.43,1.32-1.28V10.24c0-.85-.46-1.28-1.4-1.28"></path> <path class="cls-1" d="m180.06,15.68h-3.58c-.88,0-1.32.44-1.32,1.32v20.05c0,.88.44,1.32,1.32,1.32h3.58c.88,0,1.32-.44,1.32-1.32v-20.05c0-.88-.44-1.32-1.32-1.32"></path> <path class="cls-1" d="m155.34,21.37v11.3c-.96.14-2.13.21-3.5.21-2.42,0-3.96-.32-4.62-.95-.77-.75-1.16-2.5-1.16-5.26,0-2.21.37-3.71,1.12-4.51.75-.8,2.22-1.2,4.4-1.2,1.88,0,3.13.12,3.76.37v.04Zm6.22-11.11c0-.85-.46-1.28-1.4-1.28h-3.5c-.88,0-1.32.43-1.32,1.28v5.15c-.99-.08-2.35-.11-4.08-.11-7.68,0-11.51,3.81-11.51,11.42,0,4.21.91,7.25,2.74,9.12,1.83,1.87,4.85,2.81,9.06,2.81,2.39,0,4.98-.28,7.75-.83,1.51-.3,2.27-1.16,2.27-2.6V12.77c0-.05,0-.1,0-.15v-2.36Z"></path>
</svg>