<svg xmlns="http://www.w3.org/2000/svg" class="logo" viewBox="0 0 1766 471" fill="none">
  <title>THE POSSE US</title>
  <path d="M108.8 5.30005H0.5V6.90005C14 24.6 17.2 47.5 17.2 85V289.6C17.2 328.7 13.6 350 0.5 367.7V369.3H72.9V367.7C58.3 350 54.2 328.6 54.2 289.6V216.7H108.9C190.1 216.7 243.3 178.2 243.3 111.5C243.3 44.8 190.1 5.30005 108.8 5.30005ZM102.1 190.1H54.2V31.9H102.1C165.6 31.9 203.7 57.9 203.7 111.5C203.6 164.6 165.6 190.1 102.1 190.1Z" fill="currentColor"></path>
  <path d="M523 0.100098C419.4 0.100098 345.4 79.3001 345.4 186.6C345.4 293.9 419.4 372.5 523 372.5C626.6 372.5 700.6 293.9 700.6 186.6C700.6 79.3001 626.6 0.100098 523 0.100098ZM523 343.9C443.3 343.9 386.5 279.8 386.5 186.6C386.5 93.4001 443.3 28.3001 523 28.3001C602.7 28.3001 659.5 93.4001 659.5 186.6C659.4 279.8 602.7 343.9 523 343.9Z" fill="currentColor"></path>
  <path d="M1314.7 180.3L1262.6 156.9C1226.7 140.8 1210.5 122 1210.5 93.4001C1210.5 52.8001 1244.4 27.8001 1289.7 27.8001C1323 27.8001 1355.8 41.9001 1377.7 75.7001H1379.8V25.1001C1359.5 11.6001 1325.6 0.100098 1289.7 0.100098C1221 0.100098 1173.6 44.9001 1173.6 99.6001C1173.6 139.2 1196.5 170.4 1246 192.8L1297.6 215.7C1335.1 232.9 1351.8 248.5 1351.8 277.7C1351.8 320.4 1312.7 344.4 1270.6 344.4C1232.6 344.4 1194.6 326.7 1166.4 284.5H1164.3V337.1C1194 360 1233 372.5 1270.5 372.5C1336.6 372.5 1388.7 330.8 1388.7 271.5C1388.7 227.7 1362.6 202.2 1314.7 180.3Z" fill="currentColor"></path>
  <path d="M1763.4 311C1749.3 334.4 1728 341.7 1686.8 341.7H1566V199.5H1655.1C1695.7 199.5 1712.9 204.7 1725.9 217.7H1728V153.6H1725.9C1712.9 166.6 1695.7 172.4 1655.1 172.4H1566V32.4001H1678.5C1723.8 32.4001 1743.1 39.2001 1756.6 56.4001H1758.7V5.40015H1512.3V7.00014C1525.3 24.7001 1528.4 47.1002 1528.4 85.6002V289.2C1528.4 328.3 1525.8 350.1 1512.3 367.8V369.4H1765.4V311H1763.4Z" fill="currentColor"></path>
  <path d="M1728 449.1H1566V470.6H1728V449.1Z" fill="currentColor"></path>
  <path d="M967.7 180.3L915.6 156.9C879.7 140.8 863.5 122 863.5 93.4001C863.5 52.8001 897.4 27.8001 942.7 27.8001C976 27.8001 1008.8 41.9001 1030.7 75.7001H1032.8V25.1001C1012.5 11.6001 978.6 0.100098 942.7 0.100098C874 0.100098 826.6 44.9001 826.6 99.6001C826.6 139.2 849.5 170.4 899 192.8L950.6 215.7C988.1 232.9 1004.8 248.5 1004.8 277.7C1004.8 320.4 965.7 344.4 923.6 344.4C885.6 344.4 847.6 326.7 819.4 284.5H817.3V337.1C847 360 886 372.5 923.6 372.5C989.7 372.5 1041.8 330.8 1041.8 271.5C1041.6 227.7 1015.6 202.2 967.7 180.3Z" fill="currentColor"></path>
</svg>