<svg class=" icon icon--logo" width="284" height="40" viewBox="0 0 284 40" fill="none" xmlns="http://www.w3.org/2000/svg">
      <path d="M133.734 35.8503C134.816 35.8503 135.899 35.8833 136.981 35.9122C137.404 35.9245 137.853 35.9781 138.235 36.141C138.458 36.2359 138.693 36.5843 138.695 36.8214C138.697 36.9905 138.338 37.2709 138.107 37.3101C137.468 37.4214 136.81 37.4668 136.159 37.4792C132.752 37.5493 129.363 37.3658 125.989 36.8297C123.495 36.4338 121.884 35.6895 119.392 33.8483C118.746 33.372 118.152 32.7699 117.55 32.2318C116.979 31.7225 117.175 31.3802 116.507 31.8111C115.117 32.7122 113.239 33.9596 111.969 34.9823C111.06 35.7142 110.171 36.4833 109.198 37.1204C107.472 38.2524 105.554 38.8111 103.474 38.6359C101.095 38.4359 99.9379 36.9328 100.379 34.5781C100.429 34.308 100.746 33.3761 101.134 32.4792C101.468 31.6647 101.882 31.3452 101.266 31.4359C100.629 31.605 98.5544 32.9596 97.9379 33.1555C96.575 33.7678 95.2864 34.5307 93.9462 35.1885C91.7194 36.2153 81.8472 39.5843 82.1606 34.8421C82.1936 34.2503 82.3029 33.6379 82.5091 33.0833C83.5977 30.172 84.5998 27.2235 86.0699 24.4689C86.2781 24.0792 86.4328 23.6482 86.5359 23.2173C86.7235 22.4379 86.2431 21.9905 85.5276 22.3245C84.7256 22.6998 83.9214 23.1266 83.2266 23.6709C80.1936 26.04 77.2266 28.4915 74.1833 30.8482C71.9709 32.5616 69.6967 34.1988 67.4142 35.8194C66.0905 36.7596 64.6266 37.4524 63.0204 37.7864C62.0823 37.9823 61.1441 37.9843 60.2163 37.706C58.8596 37.2977 57.9359 36.3802 57.8204 34.9761C57.775 34.4276 57.7606 33.8792 57.7256 33.3307C57.6142 31.5843 57.9338 30.4977 57.9338 30.4977C57.2946 31.2524 54.9338 33.1266 54.3689 33.6524C52.2348 35.6359 49.4575 37.4194 46.9524 38.9163C45.4946 39.7864 43.9482 40.1617 42.2637 39.9204C40.6761 39.6936 39.9214 38.8111 40.1317 37.2297C40.2348 36.4503 40.4988 35.64 40.8946 34.9658C41.5091 33.9204 42.241 33.0029 42.9524 32.0153C43.1936 31.6812 43.4307 31.4111 43.7276 31.0049C43.9049 30.7617 45.0122 29.4338 44.8596 29.2194C44.7379 29.0483 43.0719 29.8153 42.8039 29.8915C41.1214 30.3823 39.4658 30.9658 37.7792 31.4359C32.8328 32.8194 27.8946 34.2338 22.9194 35.4977C19.643 36.3307 16.3255 37.0792 12.9296 37.2276C-5.22708 38.1101 -1.33017 24.3946 7.16879 14.5348C10.4863 10.6255 14.2038 7.15544 18.4904 4.31214C23.7544 1.12659 30.3606 -1.17857 36.474 0.644113C39.6637 1.57607 41.5998 3.74928 42.4905 6.87299C44.0183 12.2317 42.7317 17.0152 39.241 21.2173C38.3606 22.2751 37.0884 23.0153 35.9647 23.8586C35.6781 24.0751 35.2781 24.174 34.9152 24.2441C34.5214 24.3204 34.1524 24.1781 33.9462 23.805C33.7297 23.4111 33.8926 23.0606 34.1771 22.7802C34.4823 22.4812 34.8183 22.2091 35.1544 21.9431C35.5998 21.5926 36.0678 21.2709 36.5132 20.9184C37.6575 20.0152 38.2988 18.807 38.9957 17.508C40.0637 15.5163 40.6369 13.6462 40.9194 11.506C41.1111 10.0585 40.7524 8.3905 40.3462 6.98637C39.5194 4.12864 37.4142 2.68328 34.672 2.02968C32.2451 1.45236 29.8451 1.83999 27.4905 2.47297C22.0575 3.93276 18.3276 5.96988 13.3399 10.7348C10.0595 13.8688 7.2492 17.0235 4.8925 20.8606C-1.48687 31.2524 3.1791 36.8503 14.144 35.2977C17.1894 35.0915 20.1667 34.4833 23.1338 33.8091C28.9998 32.473 34.8122 30.9431 40.507 28.9864C44.4781 27.6214 48.3049 25.9142 52.1317 24.2008C54.2493 23.2544 56.3915 22.3617 58.5049 21.4091C59.4266 20.9926 60.3132 20.4957 61.2039 20.0132C62.107 19.5266 63.0472 19.4276 64.0472 19.6091C65.7111 19.9121 66.5812 22.1122 65.5606 23.4936C64.0183 25.5781 62.4699 27.6606 60.9132 29.7348C60.0884 30.8359 59.4987 32.0132 59.5998 33.4359C59.6183 33.7101 59.6431 33.9843 59.6967 34.2524C59.9812 35.6627 60.9874 36.3204 62.3936 35.9843C64.4967 35.4833 66.3111 34.372 67.9565 33.0421C73.4802 28.5781 79.2802 24.4936 85.0864 20.4132C86.1544 19.6627 87.1359 18.7926 88.2018 18.042C88.9132 17.541 89.6678 17.0709 90.4637 16.7266C91.6163 16.2276 92.4018 16.9534 92.2843 18.1946C92.1647 19.4359 91.6864 20.4214 90.8225 21.3225C88.839 23.3864 87.6988 25.9905 86.4451 28.5101C85.9482 29.5101 85.4183 30.5039 85.0451 31.5513C84.7771 32.3101 84.7049 33.1472 84.6204 33.9575C84.5627 34.508 84.9111 34.8256 85.4472 34.9761C86.773 35.3472 88.0946 35.1926 89.3668 34.8318C90.6658 34.4627 91.9379 33.972 93.1812 33.44C94.7586 32.7637 96.307 32.0153 97.8472 31.2565C98.6616 30.8565 99.4513 30.4008 100.216 29.9101C102.849 28.2256 105.441 26.4771 108.093 24.8256C110.109 23.5699 112.053 22.2256 113.87 20.6915C114.614 20.0627 115.433 19.5142 116.255 18.9843C116.637 18.7389 117.093 18.5822 117.536 18.4647C118.074 18.3225 118.441 18.673 118.237 19.1761C117.833 20.174 117.389 21.1658 116.841 22.0895C116.62 22.4586 116.109 22.7101 115.678 22.8874C114.647 23.3101 113.74 23.9039 112.88 24.6029C110.985 26.141 109.072 27.6524 107.159 29.1678C105.62 30.3843 104.361 31.8544 103.26 33.4627C103.02 33.8111 102.845 34.2173 102.713 34.6214C102.443 35.4524 102.713 36.0008 103.511 36.3761C104.161 36.6792 104.855 36.7472 105.528 36.5617C106.466 36.2998 107.451 36.0709 108.284 35.5946C110.825 34.141 113.175 32.4111 115.301 30.3843C115.785 29.9225 116.614 29.2338 116.614 29.2338C116.589 28.807 116.534 27.8854 116.734 27.0049C116.905 26.2544 117.2 25.506 117.447 24.7802C117.928 23.3617 119.42 22.5926 120.884 22.9245C121.567 23.0792 122.058 23.8709 121.796 24.574C121.365 25.741 120.994 26.9307 120.068 27.873C118.843 29.1142 118.913 30.4833 120.167 31.7802C121.111 32.7575 122.27 33.4297 123.491 34.0029C126.049 35.207 128.75 35.7905 131.569 35.8503C132.29 35.8647 133.012 35.8503 133.734 35.8503C133.734 35.8689 133.734 35.8338 133.734 35.8503ZM44.1544 37.9039C44.5668 37.805 45.0122 37.772 45.3874 37.5926C46.0493 37.2771 46.6946 36.908 47.3049 36.4998C51.5111 33.6854 55.1771 30.1905 59.0988 27.0194C59.8018 26.4503 60.3379 25.6524 60.8637 24.8977C61.041 24.6441 61.0843 24.1204 60.94 23.8606C60.7214 23.4689 60.2451 23.6194 59.8616 23.7472C59.7482 23.7843 59.639 23.8359 59.5256 23.8792C58.5668 24.2586 57.6101 24.64 56.6513 25.0132C54.6163 25.8091 52.5936 26.6482 50.8616 28.0091C48.7977 29.6297 46.773 31.306 44.773 33.0029C43.8678 33.772 43.1008 34.6812 42.7111 35.8482C42.2513 37.2297 42.6761 37.8256 44.1544 37.9039Z" fill="currentColor"></path>
      <path d="M274.157 36.4318C270.745 36.572 267.357 36.3246 264.015 35.6091C261.64 35.1019 259.357 34.3761 257.607 32.5452C257.18 32.0978 256.728 31.6751 256.287 31.2421C256.042 31.0009 255.805 30.7514 255.549 30.5225C254.739 29.7947 254.31 29.8648 253.799 30.8339C252.293 33.6833 250.075 35.8421 247.3 37.4174C246.541 37.8483 245.654 38.1122 244.792 38.2875C243.444 38.5617 242.417 37.8483 241.607 36.7246C241.141 36.0792 240.98 35.2937 240.916 34.7617C240.862 34.3205 240.976 33.6132 240.976 33.6132C241.021 33.4462 240.17 33.9225 239.914 34.0875C239.382 34.4297 238.512 34.9411 237.9 35.3452C235.5 36.9266 232.963 37.9844 230.246 38.7596C228.817 39.1679 227.343 39.4895 225.869 39.6462C224.904 39.7493 223.877 39.5823 222.918 39.3596C221.712 39.0813 221.347 38.4194 221.493 37.1782C221.526 36.8895 221.605 36.605 221.669 36.3225C222.349 33.3431 223.036 30.3638 223.702 27.3823C223.786 27.0009 223.801 26.5967 223.79 26.2029C223.768 25.3761 223.238 25.073 222.611 25.5926C221.625 26.4132 220.66 27.2751 219.79 28.2153C217.776 30.3906 215.568 32.3452 213.258 34.1947C212.067 35.1514 210.943 36.1988 209.708 37.0937C207.388 38.7741 204.774 39.0607 202.097 38.2297C200.308 37.6751 199.186 36.3452 198.799 34.4668C198.716 34.0627 198.662 33.6504 198.545 33.2565C198.349 32.6009 197.838 32.3761 197.269 32.7534C196.759 33.0916 196.297 33.5163 195.858 33.9473C194.518 35.2627 193.106 36.4895 191.508 37.4833C190.39 38.1761 189.215 38.7782 187.873 38.8153C187.238 38.8318 186.563 38.7369 185.963 38.5287C184.912 38.1617 184.423 37.3163 184.609 36.2132C184.739 35.44 185.003 34.6875 185.238 33.9349C185.448 33.2627 185.728 32.6132 185.93 31.939C186.128 31.2813 186.605 30.6524 185.926 30.7741C185.355 30.8751 184.027 31.3287 183.502 31.5679C181.815 32.339 180.143 33.139 178.483 33.9658C173.968 36.2091 169.229 37.7596 164.227 38.3947C136.751 40.572 157.324 13.9452 168.846 6.99879C170.273 6.06064 171.813 5.41322 173.454 4.99054C177.382 3.6524 182.941 3.29776 183.238 8.79054C183.386 11.5637 183.227 14.3802 182.069 16.9039C181.508 18.1246 180.733 19.3328 179.683 20.271C179.471 20.4606 179.205 20.6132 178.939 20.7184C178.423 20.9225 177.968 20.7761 177.708 20.3761C177.444 19.9679 177.504 19.4441 177.922 19.0751C178.722 18.3699 179.361 17.5493 179.782 16.572C180.384 15.172 180.91 13.6833 180.986 12.1431C181.244 7.0359 180.339 5.10394 174.335 6.82972C171.351 7.68745 168.821 9.38642 166.45 11.273C154.726 20.6607 140.881 40.506 167.654 36.0937C169.955 35.4112 172.24 34.6235 174.448 33.6833C179.095 31.706 183.704 29.638 188.289 27.5205C189.887 26.7823 191.388 25.8215 192.9 24.9081C194.823 23.7431 196.671 22.4359 198.788 21.6297C199.502 21.3576 200.271 21.1967 201.029 21.0916C201.737 20.9947 202.141 21.4009 202.155 22.0462C202.166 22.4792 201.98 22.8504 201.555 22.8833C200.007 23.0091 198.871 23.9679 197.65 24.7473C195.186 26.3184 192.759 27.9473 190.619 29.9555C189.479 31.0277 188.359 32.1349 187.737 33.6091C187.541 34.073 187.446 34.5988 187.407 35.104C187.345 35.8813 187.768 36.3287 188.551 36.3967C189.44 36.4751 190.234 36.1452 190.908 35.6359C193.102 33.9782 195.25 32.2627 197.091 30.2009C197.994 29.1885 198.918 28.1885 199.753 27.1205C200.586 26.0545 201.304 24.8998 202.106 23.8091C202.528 23.2339 202.996 22.6813 203.504 22.1803C203.747 21.9411 204.118 21.7947 204.458 21.704C205.333 21.473 205.9 22.0648 205.609 22.9184C205.434 23.4318 205.168 23.9225 204.883 24.3885C203.889 26.0153 202.838 27.6071 201.871 29.2504C201.207 30.3782 200.712 31.5926 200.568 32.9163C200.419 34.2895 200.904 35.3823 202.077 36.1308C203.749 37.1988 205.469 37.0751 207.186 36.2524C209.036 35.3658 210.613 34.0875 212.095 32.6998C213.939 30.9741 215.702 29.1617 217.561 27.4565C218.737 26.3803 219.992 25.3823 221.277 24.4421C222.695 23.405 224.071 22.3328 225.3 21.071C225.788 20.5699 226.351 20.1369 226.91 19.7081C227.265 19.4359 227.698 19.3184 228.12 19.5534C228.559 19.7967 228.648 20.2586 228.561 20.6813C228.378 21.5679 228.157 22.4524 227.875 23.3122C226.947 26.1328 225.982 28.9431 225.04 31.7596C224.615 33.0297 224.159 34.2937 223.809 35.5844C223.396 37.0957 223.949 37.7576 225.539 37.8359C227.38 37.9287 229.097 37.3761 230.832 36.873C233.454 36.1101 235.669 34.6029 237.9 33.1163C242.12 30.306 245.939 27.0112 249.543 23.4565C250.277 22.7328 251.054 22.0545 251.782 21.3246C252.118 20.9885 252.384 20.5823 252.687 20.2112C253.023 19.8009 253.333 19.3617 253.712 19.0008C254.042 18.6854 254.481 18.6359 254.916 18.84C255.347 19.0421 255.386 19.4297 255.399 19.84C255.423 20.6957 255.126 21.4545 254.559 22.0524C253.722 22.9328 252.815 23.7493 251.92 24.5741C249.586 26.7266 247.223 28.8504 244.914 31.0318C244.322 31.5906 243.871 32.304 243.386 32.9679C243.196 33.2277 243.073 33.5411 242.949 33.84C242.229 35.5741 243.524 36.3844 244.807 36.4607C245.662 36.5122 246.403 36.0916 247.108 35.6545C248.968 34.4978 250.366 32.8792 251.632 31.1266C252.98 29.2586 253.992 27.2297 254.739 25.0462C255.085 24.0297 255.596 23.0627 256.122 22.1225C256.333 21.7452 256.739 21.4112 257.135 21.2174C257.947 20.8194 258.613 21.2895 258.522 22.1844C258.458 22.8277 258.271 23.4607 258.102 24.0895C257.928 24.7349 257.691 25.3658 257.512 26.0112C257.201 27.137 257.328 28.2112 257.883 29.2524C258.974 31.3081 260.768 32.4792 262.875 33.2442C265.275 34.1163 267.784 34.3782 270.312 34.5411C273.609 34.7534 276.902 34.7184 280.194 34.438C281.064 34.3638 281.945 34.4153 282.821 34.4112C282.924 34.4112 283.027 34.4215 283.128 34.44C283.522 34.506 283.904 34.6256 283.91 35.104C283.918 35.5617 283.545 35.7163 283.18 35.7617C281.273 35.9967 279.366 36.2545 277.45 36.4153C276.361 36.5081 275.256 36.4318 274.157 36.4318Z" fill="currentColor"></path>
    </svg>