<svg class="icon icon-footer-logo" width="19" height="24" viewBox="0 0 19 24" xmlns="http://www.w3.org/2000/svg">
                <path d="m18.756 12.08-.05-9.026a.477.477 0 0 0-.534-.473C11.99 3.306 10.123.785 9.818.283L9.794.24A.479.479 0 0 0 9.383 0h-.005a.479.479 0 0 0-.411.234l-.023.038c-.311.513-2.18 3.034-8.36 2.31a.482.482 0 0 0-.534.472L0 12.078c-.002.213-.008 5.26 3.826 8.204 3.11 2.388 4.794 3.416 5.237 3.674l.075.044.484-.002.072-.042c.44-.257 2.122-1.283 5.235-3.674 3.829-2.94 3.829-7.975 3.827-8.203m-3.53-4.914c-.125.187-3.046 3.855-5.325 9.898-.037.097-.14.153-.245.153H7.38a.27.27 0 0 1-.254-.175s-1.14-4.44-3.54-6.615c-.054-.068-.182-.25-.026-.316a.825.825 0 0 1 .28-.04l2.723.013c.12 0 .25.165.26.192 0 0 1.574 2.264 1.752 3.816-.02.116 2.427-5.886 3.874-7.073.01-.01.157-.17.262-.17h2.196c.053 0 .267-.02.324.051.088.109.013.238-.005.266" fill="currentColor" fill-rule="evenodd"></path>
              </svg>