<svg version="1.1" class="logo" width="527.47253" height="71.208794" viewBox="0 0 527.47253 71.208794" xmlns="http://www.w3.org/2000/svg" xmlns:svg="http://www.w3.org/2000/svg">
   <defs id="defs6"></defs>
   <g id="g8">
     <path style="fill:currentColor;stroke-width:0.527473;fill-opacity:1" d="m 154.98562,58.813189 -14.95117,-12.263736 17.92273,-0.263737 17.92274,-0.263736 0.14008,-14.9011 0.14009,-14.901099 h -29.29116 -29.29116 l 0.14009,14.901099 0.14008,14.9011 6.43993,0.263736 6.43993,0.263737 9.00106,7.328239 c 4.95059,4.030528 8.92799,7.401321 8.83866,7.490643 -0.0893,0.08933 -8.22459,0.198957 -18.07836,0.243624 -17.15661,0.07777 -18.04285,0.03318 -20.91031,-1.052561 -3.80459,-1.44056 -6.88437,-4.492648 -8.45424,-8.378214 -1.167042,-2.888536 -1.215392,-3.634288 -1.368062,-21.09987 -0.18415,-21.066652 0.006,-22.3859482 3.760182,-26.1405062 4.06256,-4.06255498 3.57822,-4.01773098 43.41293,-4.01773098 39.85362,0 38.63051,-0.118224 42.89488,4.14614698 4.21886,4.218855 4.41014,5.2061132 4.64681,23.9838232 0.23114,18.337863 -0.13695,22.103562 -2.52934,25.875972 -1.70499,2.688485 -5.06965,5.357216 -7.39934,5.868902 -0.85353,0.187464 -1.53979,0.500012 -1.52501,0.694544 0.0148,0.194527 2.40882,2.252593 5.32012,4.573472 2.91129,2.320879 5.40552,4.397802 5.54273,4.615385 0.13721,0.217582 -5.19624,0.395604 -11.85212,0.395604 H 169.9368 Z M 1.0227782,54.498606 V 46.82051 l 35.9999998,-0.135529 36,-0.135528 0.15543,-3.536952 0.15543,-3.536952 -31.27631,-0.155356 C 13.251128,39.177106 10.614388,39.089725 8.6711282,38.213779 2.4470582,35.408205 -0.53961179,28.19584 0.12262821,17.570457 0.76994821,7.1844198 3.8226382,3.5337168 13.390868,1.7030128 c 3.3499,-0.640943 10.5072,-0.77993598 40.16183,-0.77993598 h 36.08546 V 8.8351648 16.747254 h -35.86813 -35.86813 v 3.428571 3.428572 h 30.01894 c 28.03663,0 30.2321,0.06634 33.24692,1.004661 6.55585,2.04041 8.77334,5.083551 9.68407,13.289787 0.70328,6.337046 -0.0517,14.042428 -1.6908,17.255241 -1.32972,2.606458 -3.89385,4.645672 -7.2793,5.789111 -2.21972,0.749713 -7.32277,0.877477 -41.69412,1.043884 L 1.0227782,62.176697 Z M 204.23213,36.659342 c 0.13326,-18.005945 0.37449,-26.008723 0.82468,-27.3587522 1.41937,-4.256326 4.44609,-7.200561 8.74893,-8.51050298 1.63755,-0.498529 10.92803,-0.658219 38.29396,-0.658219 h 36.13187 L 290.713,1.3654608 c 1.36479,0.678476 3.42583,2.258133 4.58008,3.510347 3.6886,4.001661 3.75167,4.548922 3.75167,32.5510672 v 24.70793 l -9.0989,-0.144327 -9.0989,-0.144322 -0.14861,-6.197802 -0.1486,-6.197802 h -28.99426 -28.99424 v 6.32967 6.329671 h -9.25873 -9.25873 z m 76.35109,-12.263737 v -9.230769 h -29.01099 -29.01099 v 9.230769 9.23077 h 29.01099 29.01099 z m 157.94697,36.965598 c -0.91085,-0.666029 -1.0239,-1.418827 -1.0239,-6.818463 0,-5.254251 0.14175,-6.25675 1.05495,-7.461398 0.66014,-0.870822 10.87248,-6.757995 27.28818,-15.730988 L 492.08266,17.01099 464.6626,16.874417 437.24256,16.737844 V 8.8304598 0.92307682 h 44.27001 c 40.45506,0 44.3451,0.07508 45.14125,0.87123298 0.73421,0.734209 0.84382,1.861146 0.69702,7.165397 -0.17385,6.2808312 -0.17765,6.2971442 -1.79445,7.7001972 -0.89113,0.773317 -12.69306,7.57746 -26.2265,15.120317 l -24.60626,13.714286 26.35836,0.136747 26.35837,0.136747 v 8.170946 8.170946 h -43.94314 c -37.11883,0 -44.10215,-0.116271 -44.96703,-0.74869 z M 310.12168,41.230771 c 0,-11.193407 0.2046,-20.272528 0.45467,-20.175825 0.25008,0.0967 4.38795,3.38022 9.19529,7.296704 l 8.7406,7.120879 0.0355,13.054946 0.0355,13.054945 h -9.23077 -9.23077 z M 339.13267,30.989012 V 0.39560382 h 38.21579 c 40.12032,0 41.62061,0.07765 46.17981,2.39004798 4.78093,2.42486 7.0705,6.333621 7.95749,13.5850932 0.9113,7.450059 -0.45236,15.09635 -3.38076,18.956594 -3.53505,4.659936 -7.36554,6.302094 -16.64037,7.133848 l -4.41529,0.395958 11.14057,9.131396 c 6.12731,5.022269 11.14056,9.235456 11.14056,9.36264 0,0.127179 -5.4,0.22723 -12,0.222335 l -12,-0.0089 -20.71408,-17.002087 -20.71409,-17.002085 24.802,-0.137033 24.80199,-0.137033 v -5.269561 -5.26956 H 385.55025 357.59421 V 39.16484 61.582423 h -9.23077 -9.23077 z m -19.8822,-10.191754 -9.06901,-7.478576 -0.0299,-6.4615392 -0.0299,-6.46153898 h 9.23077 9.23077 V 14.373627 c 0,7.687912 -0.0593,13.960964 -0.13187,13.940115 -0.0725,-0.02085 -4.21293,-3.403267 -9.20088,-7.516484 z" id="path827"></path>
   </g>
 </svg>