<svg class="icon-logo-desktop" width="211" height="71" viewBox="0 0 211 71" fill="none" xmlns="http://www.w3.org/2000/svg">
    <path d="M12.9736 32.1389C19.9692 32.1389 24.4633 29.3831 24.4633 24.889C24.4633 23.617 24.0818 22.5571 23.4882 21.7091C23.8698 21.5396 24.3786 21.4548 24.7601 21.4548C25.5233 21.4548 26.5832 21.6667 27.1768 21.9211V15.1375C26.88 15.0527 26.4984 14.9679 25.9897 14.9679C23.5306 14.9679 20.9444 16.4095 20.054 19.2077C17.9765 18.4021 15.4327 18.063 12.9736 18.063C5.85085 18.063 1.44151 20.6916 1.44151 24.9738C1.44151 27.56 3.05262 29.7223 6.02044 30.9518V31.0366C3.73098 31.5878 1.05994 33.1141 1.05994 36.2939C1.05994 38.2442 2.24707 39.6433 4.02776 40.4064V40.4912C1.78069 41.1696 0.084795 42.4839 0.084795 44.4342C0.084795 47.6564 4.15495 49.6067 12.0833 49.6067C23.1066 49.6067 27.092 45.9605 27.092 40.9152C27.092 35.9123 23.0642 34.7252 17.2982 34.6828L11.8713 34.5556C10.345 34.5556 9.49703 34.2164 9.49703 33.3261C9.49703 32.6477 9.92101 32.2237 11.0657 32.0965C11.9561 32.1389 12.2953 32.1389 12.9736 32.1389ZM12.2953 41.636L16.2382 41.7208C18.3581 41.7632 19.2061 42.2295 19.2061 42.9927C19.2061 44.4342 17.1286 45.155 13.3128 45.155C9.83621 45.155 7.50435 44.519 7.50435 42.7383C7.50435 42.1447 7.75874 41.7208 8.18271 41.3816C9.66663 41.5512 11.1081 41.5936 12.2953 41.636ZM13.1008 27.8992C11.2353 27.8992 10.1754 26.9664 10.1754 25.1857C10.1754 23.405 11.2353 22.4299 13.1008 22.4299C14.9663 22.4299 15.9838 23.405 15.9838 25.1857C15.9838 26.9664 14.9663 27.8992 13.1008 27.8992ZM40.526 41.7632C48.7511 41.7632 53.4573 36.5059 53.4573 29.9767C53.4573 23.3626 48.7511 18.063 40.526 18.063C32.3433 18.063 27.5948 23.3626 27.5948 29.9767C27.5948 36.5059 32.3433 41.7632 40.526 41.7632ZM40.526 35.9123C38.6181 35.9123 37.6854 34.6404 37.6854 29.9343C37.6854 25.2281 38.6181 23.9138 40.526 23.9138C42.4339 23.9138 43.3667 25.2281 43.3667 29.9343C43.3667 34.6404 42.4339 35.9123 40.526 35.9123ZM65.8115 14.7984L65.8539 10.6858H56.1449L56.1873 14.7984V36.845L56.1449 41H65.8539L65.8115 36.845V14.7984ZM77.5314 41.636C80.6688 41.636 82.9159 40.0673 84.4422 38.0746H84.527V41H93.812L93.7696 36.845V14.7984L93.812 10.6858H84.103L84.1454 14.7984V20.6068H84.0606C82.7039 19.0381 81.0928 18.1902 78.5489 18.1902C72.8253 18.1902 68.7127 21.8787 68.7127 29.9767C68.7127 38.117 72.8677 41.636 77.5314 41.636ZM81.5592 23.9138C82.6191 23.9138 83.3823 24.4226 84.1454 25.4825V34.4708C83.2127 35.5307 82.4071 35.9547 81.5168 35.9547C79.3545 35.9547 78.8033 34.0044 78.8033 29.8071C78.8033 25.6097 79.3545 23.9138 81.5592 23.9138ZM121.336 41L121.293 36.845V26.6697C122.099 25.6945 123.159 25.0585 124.091 25.0585C125.194 25.0585 125.915 25.7369 125.915 27.348V36.845L125.872 41H135.581L135.539 36.845V24.9314C135.539 20.1828 132.953 18.1902 128.925 18.1902C126.508 18.1902 123.583 19.0805 121.081 22.4299H120.996C120.106 19.2077 117.689 18.1902 114.722 18.1902C112.305 18.1902 109.38 19.0805 106.836 22.5147H106.751V18.8685H97.4658L97.5082 22.9811V36.845L97.4658 41H107.175L107.132 36.845V26.7544C107.938 25.7369 108.956 25.0585 109.888 25.0585C110.991 25.0585 111.669 25.7369 111.669 27.348V36.845L111.627 41H121.336ZM147.514 25.7369C148.15 24.2106 148.786 23.3626 150.354 23.3626C152.22 23.3626 152.856 24.465 152.856 26.1185V27.0512H152.305C141.62 27.0512 137.805 30.6974 137.805 34.8948C137.805 38.4985 140.094 41.636 145.903 41.636C148.87 41.636 151.16 40.7032 153.237 38.5833H153.322C153.407 39.2617 153.534 40.1944 153.661 41H162.395C162.226 39.9825 162.014 38.2442 162.014 36.8874V26.6697C162.014 20.0132 157.604 18.063 150.863 18.063C145.775 18.063 140.773 19.2501 139.119 24.677L147.514 25.7369ZM150.1 36.2091C148.446 36.2091 147.429 35.4883 147.429 34.0044C147.429 31.7997 149.93 30.9942 152.729 30.9942H152.856V34.8524C152.347 35.5731 151.372 36.2091 150.1 36.2091ZM165.575 41H175.284L175.242 36.845V31.2062C175.496 28.0264 176.895 26.3729 179.524 26.3729C180.245 26.3729 181.05 26.5001 181.771 26.6697V18.275C181.432 18.2326 181.135 18.1902 180.753 18.1902C177.913 18.1902 175.581 19.8437 174.224 23.0235H174.139V18.8685H165.575L165.617 22.9811V36.845L165.575 41ZM210.581 41V40.9152L202.695 26.2457L210.242 18.9533V18.8685H199.77L193.834 25.5249H193.749V14.7984L193.792 10.6858H184.083L184.125 14.7984V36.8874L184.083 41H193.792L193.749 36.8874V34.9796L195.911 32.8597L199.812 41H210.581Z" fill="#231F20"></path>
    <path d="M6.12114 65.6075C5.30498 66.3918 4.36164 66.784 3.2911 66.784C2.46435 66.784 1.81249 66.5773 1.33552 66.1639C0.869148 65.74 0.635962 65.1782 0.635962 64.4786C0.635962 63.6307 0.991041 62.9629 1.7012 62.4753C2.42196 61.9878 3.46069 61.7016 4.81741 61.6168L6.05754 61.5214C6.23773 61.5002 6.32782 61.4207 6.32782 61.2829V60.8536C6.32782 60.2813 6.14763 59.8308 5.78726 59.5022C5.43748 59.163 4.96051 58.9935 4.35634 58.9935C3.4236 58.9935 2.66044 59.4174 2.06688 60.2654C2.03508 60.3184 2.00328 60.3555 1.97148 60.3767C1.93968 60.3873 1.89729 60.382 1.84429 60.3608L0.985741 60.0746C0.932745 60.0534 0.906246 60.0163 0.906246 59.9633C0.906246 59.9315 0.922145 59.8838 0.953943 59.8202C1.27192 59.2584 1.7224 58.8239 2.30536 58.5165C2.89893 58.1985 3.59849 58.0395 4.40404 58.0395C5.44278 58.0395 6.23773 58.2833 6.7889 58.7709C7.34006 59.2478 7.61565 59.9103 7.61565 60.7582V66.3865C7.61565 66.4819 7.59975 66.5455 7.56795 66.5773C7.53615 66.6091 7.47786 66.625 7.39306 66.625H6.59811C6.47092 66.625 6.39672 66.5402 6.37552 66.3706L6.34372 65.6393C6.33312 65.5651 6.30663 65.528 6.26423 65.528C6.22183 65.528 6.17413 65.5545 6.12114 65.6075ZM6.32782 62.5866C6.32782 62.4171 6.24833 62.3323 6.08934 62.3323L5.0559 62.4276C4.07016 62.4912 3.307 62.682 2.76644 63C2.23647 63.318 1.97148 63.7579 1.97148 64.3196C1.97148 64.7754 2.13047 65.1358 2.44845 65.4008C2.77703 65.6658 3.21161 65.7982 3.75218 65.7982C4.08076 65.7982 4.40404 65.74 4.72202 65.6234C5.04 65.5068 5.32088 65.3478 5.56467 65.1464C5.80845 64.9556 5.99394 64.7542 6.12114 64.5422C6.25893 64.3196 6.32782 64.1076 6.32782 63.9063V62.5866ZM18.4063 60.0587C18.1837 59.7301 17.8763 59.4704 17.4841 59.2796C17.1025 59.0782 16.6574 58.9776 16.1486 58.9776C15.5656 58.9776 15.0887 59.1047 14.7177 59.3591C14.3467 59.6029 14.1612 59.9262 14.1612 60.329C14.1612 60.5728 14.2513 60.7953 14.4315 60.9967C14.6223 61.1875 14.9615 61.3571 15.449 61.5055L17.4682 62.1097C18.1678 62.3005 18.6871 62.5866 19.0263 62.9682C19.3655 63.3392 19.5351 63.7844 19.5351 64.3037C19.5351 64.7913 19.3867 65.2259 19.0899 65.6075C18.7931 65.9784 18.3851 66.2699 17.8657 66.4819C17.3463 66.6833 16.7581 66.784 16.1009 66.784C15.2847 66.784 14.5587 66.625 13.9227 66.307C13.2868 65.9784 12.8363 65.5545 12.5713 65.0351C12.5395 64.9821 12.5236 64.9397 12.5236 64.9079C12.5236 64.8549 12.5501 64.8125 12.6031 64.7807L13.2232 64.4309C13.3292 64.3673 13.4087 64.3726 13.4617 64.4468C14.034 65.3584 14.9191 65.8141 16.1168 65.8141C16.7422 65.8035 17.2562 65.6764 17.659 65.4326C18.0724 65.1782 18.2791 64.8496 18.2791 64.4468C18.2791 64.15 18.1572 63.901 17.9134 63.6996C17.6696 63.4982 17.2721 63.318 16.721 63.159L15.0834 62.6979C14.3096 62.4965 13.7531 62.2157 13.414 61.8553C13.0854 61.4949 12.9211 61.055 12.9211 60.5357C12.9211 60.0481 13.0536 59.6135 13.3186 59.2319C13.5941 58.8504 13.9757 58.5589 14.4633 58.3575C14.9615 58.1455 15.5285 58.0395 16.1645 58.0395C16.8641 58.0395 17.4894 58.172 18.0406 58.437C18.6023 58.702 19.0316 59.0623 19.3284 59.5181C19.4026 59.6241 19.3973 59.6983 19.3125 59.7407L18.6447 60.1064C18.6023 60.1276 18.5706 60.1382 18.5494 60.1382C18.507 60.1382 18.4593 60.1117 18.4063 60.0587ZM21.7088 66.625C21.571 66.625 21.5021 66.5561 21.5021 66.4183V55.0346C21.5021 54.8968 21.5604 54.8279 21.677 54.8279H22.615C22.7316 54.8279 22.7899 54.8915 22.7899 55.0187V59.2637C22.7899 59.3803 22.8376 59.3962 22.933 59.3114C23.5372 58.8451 24.0513 58.5165 24.4752 58.3257C24.8992 58.1349 25.3656 58.0395 25.8743 58.0395C26.6905 58.0395 27.3159 58.2568 27.7504 58.6914C28.1956 59.1259 28.4182 59.7142 28.4182 60.4562V66.3706C28.4182 66.5402 28.3387 66.625 28.1797 66.625H27.2894C27.1516 66.625 27.0827 66.5561 27.0827 66.4183V60.7424C27.0827 60.2124 26.9449 59.8043 26.6693 59.5181C26.4043 59.2319 25.9909 59.0888 25.4292 59.0888C24.984 59.0888 24.5759 59.1895 24.2049 59.3909C23.8446 59.5817 23.3888 59.9103 22.8376 60.3767V66.3865C22.8376 66.5455 22.7528 66.625 22.5832 66.625H21.7088ZM34.3006 66.784C33.5056 66.784 32.8008 66.6038 32.186 66.2434C31.5819 65.8724 31.1102 65.3584 30.771 64.7012C30.4424 64.0441 30.2781 63.2968 30.2781 62.4594C30.2781 61.6009 30.4477 60.8377 30.7869 60.17C31.1367 59.5022 31.6137 58.9829 32.2178 58.6119C32.8326 58.2303 33.5321 58.0395 34.3165 58.0395C35.1008 58.0395 35.7951 58.2303 36.3993 58.6119C37.014 58.9829 37.4857 59.5022 37.8143 60.17C38.1535 60.8377 38.3231 61.5956 38.3231 62.4435C38.3231 63.2809 38.1535 64.0282 37.8143 64.6853C37.4751 65.3425 36.9981 65.8565 36.3834 66.2275C35.7792 66.5985 35.0849 66.784 34.3006 66.784ZM34.3324 65.7824C35.1591 65.7824 35.8004 65.4856 36.2562 64.892C36.7225 64.2878 36.9557 63.4611 36.9557 62.4118C36.9557 61.373 36.7172 60.5516 36.2403 59.9474C35.7739 59.3326 35.1326 59.0253 34.3165 59.0253C33.4897 59.0253 32.8379 59.3326 32.3609 59.9474C31.8839 60.5516 31.6455 61.373 31.6455 62.4118C31.6455 63.4505 31.8839 64.2719 32.3609 64.8761C32.8379 65.4803 33.495 65.7824 34.3324 65.7824ZM41.3857 58.1985C41.5341 58.1985 41.6083 58.278 41.6083 58.437V59.1047C41.6083 59.2001 41.6348 59.2478 41.6878 59.2478C41.7196 59.2478 41.762 59.2213 41.815 59.1683C42.0376 58.9458 42.2337 58.7656 42.4033 58.6278C42.5729 58.49 42.8219 58.3575 43.1505 58.2303C43.4791 58.1031 43.866 58.0395 44.3112 58.0395C44.9789 58.0395 45.5725 58.1985 46.0919 58.5165C46.6218 58.8345 47.0352 59.3114 47.332 59.9474C47.6394 60.5834 47.7931 61.3624 47.7931 62.2846C47.7931 63.2173 47.6394 64.0229 47.332 64.7012C47.0352 65.3796 46.6112 65.8989 46.0601 66.2593C45.5089 66.6091 44.8676 66.784 44.1363 66.784C43.2565 66.784 42.504 66.519 41.8786 65.989C41.8044 65.9148 41.7461 65.8777 41.7037 65.8777C41.6507 65.8777 41.6242 65.9466 41.6242 66.0844V69.0417C41.6242 69.1794 41.5659 69.2483 41.4493 69.2483H40.4636C40.347 69.2483 40.2887 69.1794 40.2887 69.0417V58.4529C40.2887 58.3681 40.3046 58.3045 40.3364 58.2621C40.3788 58.2197 40.4477 58.1985 40.5431 58.1985H41.3857ZM41.6242 64.7648C41.9634 65.1146 42.3026 65.3796 42.6418 65.5598C42.9915 65.7294 43.3731 65.8141 43.7865 65.8141C44.5814 65.8141 45.2174 65.5121 45.6944 64.9079C46.1819 64.3037 46.4257 63.4346 46.4257 62.3005C46.4257 61.1981 46.1872 60.3767 45.7103 59.8361C45.2333 59.2849 44.6185 59.0094 43.866 59.0094C43.442 59.0094 43.0604 59.1047 42.7213 59.2955C42.3821 59.4757 42.1118 59.7089 41.9104 59.9951C41.7196 60.2813 41.6242 60.5622 41.6242 60.8377V64.7648ZM54.5426 66.3547C54.5426 66.4607 54.5214 66.5349 54.479 66.5773C54.4366 66.6091 54.3624 66.625 54.2564 66.625H53.4296C53.3342 66.625 53.2706 66.6091 53.2389 66.5773C53.2071 66.5455 53.1912 66.4872 53.1912 66.4024L53.2071 55.0505C53.2071 54.9021 53.2706 54.8279 53.3978 54.8279H54.3518C54.479 54.8279 54.5426 54.8968 54.5426 55.0346V66.3547ZM58.3942 56.386C58.3942 56.492 58.373 56.5715 58.3306 56.6245C58.2882 56.6669 58.2141 56.6881 58.1081 56.6881H57.1859C57.0269 56.6881 56.9474 56.598 56.9474 56.4178V55.0823C56.9474 54.9127 57.0216 54.8279 57.17 54.8279H58.1717C58.2353 54.8279 58.2882 54.8491 58.3306 54.8915C58.373 54.9339 58.3942 54.9922 58.3942 55.0664V56.386ZM58.3306 66.3547C58.3306 66.4607 58.3094 66.5349 58.267 66.5773C58.2247 66.6091 58.1505 66.625 58.0445 66.625H57.2336C57.1382 66.625 57.0746 66.6091 57.0428 66.5773C57.011 66.5455 56.9951 66.4872 56.9951 66.4024V58.4211C56.9951 58.2727 57.0587 58.1985 57.1859 58.1985H58.1558C58.2723 58.1985 58.3306 58.2674 58.3306 58.4052V66.3547ZM68.0809 66.3706C68.1021 66.3918 68.1127 66.4289 68.1127 66.4819C68.1127 66.5773 68.0544 66.625 67.9378 66.625H66.8248C66.7612 66.625 66.7082 66.6144 66.6658 66.5932C66.6235 66.5614 66.5811 66.5084 66.5387 66.4342L64.1379 62.3164C64.1167 62.2634 64.0902 62.2369 64.0584 62.2369C64.0266 62.2263 63.9895 62.2422 63.9471 62.2846L62.2618 63.9858C62.1876 64.06 62.1505 64.1659 62.1505 64.3037V66.3547C62.1505 66.4607 62.1293 66.5349 62.0869 66.5773C62.0445 66.6091 61.9703 66.625 61.8643 66.625H61.0535C60.9581 66.625 60.8945 66.6091 60.8627 66.5773C60.8309 66.5455 60.815 66.4872 60.815 66.4024V55.0505C60.815 54.9021 60.8733 54.8279 60.9899 54.8279H61.9597C62.0869 54.8279 62.1505 54.8968 62.1505 55.0346V62.4118C62.1505 62.5177 62.1664 62.5707 62.1982 62.5707C62.23 62.5707 62.2671 62.5389 62.3095 62.4753L66.2366 58.3893C66.3532 58.2621 66.4645 58.1985 66.5705 58.1985H67.5403C67.6675 58.1985 67.7311 58.2356 67.7311 58.3098C67.7311 58.3416 67.694 58.4052 67.6198 58.5006L65.1077 61.0603C65.0653 61.1239 65.0441 61.1716 65.0441 61.2034C65.0441 61.2352 65.06 61.2776 65.0918 61.3306L68.0809 66.3706ZM70.1979 62.9364C70.1979 63.4452 70.3198 63.9169 70.5636 64.3514C70.818 64.786 71.1572 65.1305 71.5811 65.3849C72.0051 65.6393 72.4715 65.7665 72.9803 65.7665C74.0402 65.7665 74.8669 65.3266 75.4605 64.4468C75.5029 64.4044 75.54 64.3832 75.5718 64.3832C75.6036 64.3726 75.6407 64.3779 75.6831 64.3991L76.3509 64.733C76.4357 64.786 76.4463 64.8602 76.3827 64.9556C75.9693 65.5916 75.4764 66.0579 74.904 66.3547C74.3317 66.6409 73.648 66.784 72.8531 66.784C72.0793 66.784 71.3851 66.6038 70.7703 66.2434C70.1555 65.883 69.6733 65.3796 69.3235 64.733C68.9843 64.0759 68.8147 63.3286 68.8147 62.4912C68.8147 61.5903 68.9896 60.8059 69.3394 60.1382C69.6892 59.4598 70.1661 58.9405 70.7703 58.5801C71.3851 58.2197 72.074 58.0395 72.8372 58.0395C73.6003 58.0395 74.2681 58.2091 74.8404 58.5483C75.4234 58.8875 75.8739 59.3856 76.1919 60.0428C76.5099 60.6894 76.6688 61.4578 76.6688 62.3482V62.4118C76.6688 62.5071 76.6529 62.5813 76.6211 62.6343C76.5893 62.6767 76.5257 62.6979 76.4304 62.6979H70.341C70.2456 62.6979 70.1979 62.7774 70.1979 62.9364ZM75.063 61.8235C75.1796 61.8235 75.2538 61.8129 75.2856 61.7917C75.3174 61.7599 75.3333 61.6963 75.3333 61.6009C75.3333 61.1345 75.2326 60.7053 75.0312 60.3131C74.8404 59.9103 74.5543 59.5923 74.1727 59.3591C73.8017 59.1153 73.3671 58.9935 72.869 58.9935C72.3284 58.9935 71.8567 59.1312 71.454 59.4068C71.0512 59.6718 70.7438 60.0216 70.5318 60.4562C70.3198 60.8801 70.2191 61.3359 70.2297 61.8235H75.063ZM82.1842 66.625C82.0358 66.625 81.9616 66.5561 81.9616 66.4183V58.4052C81.9616 58.2674 82.0199 58.1985 82.1365 58.1985H83.0904C83.207 58.1985 83.2653 58.2568 83.2653 58.3734V59.2955C83.2653 59.4121 83.313 59.428 83.4084 59.3432C84.002 58.8769 84.5055 58.543 84.9188 58.3416C85.3428 58.1402 85.8145 58.0395 86.3338 58.0395C87.1394 58.0395 87.7648 58.2568 88.2099 58.6914C88.6657 59.1259 88.8936 59.7089 88.8936 60.4403V66.3706C88.8936 66.5402 88.8141 66.625 88.6551 66.625H87.7648C87.627 66.625 87.5581 66.5561 87.5581 66.4183V60.7424C87.5581 60.2124 87.4203 59.8043 87.1447 59.5181C86.8797 59.2319 86.4663 59.0888 85.9046 59.0888C85.4594 59.0888 85.046 59.1895 84.6644 59.3909C84.2935 59.5817 83.8377 59.9103 83.2971 60.3767V66.3865C83.2971 66.4713 83.2759 66.5349 83.2335 66.5773C83.2017 66.6091 83.1434 66.625 83.0586 66.625H82.1842ZM94.776 66.784C93.981 66.784 93.2762 66.6038 92.6614 66.2434C92.0573 65.8724 91.5856 65.3584 91.2464 64.7012C90.9178 64.0441 90.7535 63.2968 90.7535 62.4594C90.7535 61.6009 90.9231 60.8377 91.2623 60.17C91.6121 59.5022 92.0891 58.9829 92.6932 58.6119C93.308 58.2303 94.0075 58.0395 94.7919 58.0395C95.5762 58.0395 96.2705 58.2303 96.8747 58.6119C97.4894 58.9829 97.9611 59.5022 98.2897 60.17C98.6289 60.8377 98.7985 61.5956 98.7985 62.4435C98.7985 63.2809 98.6289 64.0282 98.2897 64.6853C97.9505 65.3425 97.4735 65.8565 96.8588 66.2275C96.2546 66.5985 95.5603 66.784 94.776 66.784ZM94.8078 65.7824C95.6345 65.7824 96.2758 65.4856 96.7316 64.892C97.198 64.2878 97.4311 63.4611 97.4311 62.4118C97.4311 61.373 97.1927 60.5516 96.7157 59.9474C96.2493 59.3326 95.608 59.0253 94.7919 59.0253C93.9651 59.0253 93.3133 59.3326 92.8363 59.9474C92.3593 60.5516 92.1209 61.373 92.1209 62.4118C92.1209 63.4505 92.3593 64.2719 92.8363 64.8761C93.3133 65.4803 93.9704 65.7824 94.8078 65.7824ZM107.71 66.784C106.915 66.784 106.21 66.6038 105.595 66.2434C104.991 65.8724 104.519 65.3584 104.18 64.7012C103.851 64.0441 103.687 63.2968 103.687 62.4594C103.687 61.6009 103.857 60.8377 104.196 60.17C104.546 59.5022 105.023 58.9829 105.627 58.6119C106.241 58.2303 106.941 58.0395 107.725 58.0395C108.51 58.0395 109.204 58.2303 109.808 58.6119C110.423 58.9829 110.895 59.5022 111.223 60.17C111.562 60.8377 111.732 61.5956 111.732 62.4435C111.732 63.2809 111.562 64.0282 111.223 64.6853C110.884 65.3425 110.407 65.8565 109.792 66.2275C109.188 66.5985 108.494 66.784 107.71 66.784ZM107.741 65.7824C108.568 65.7824 109.209 65.4856 109.665 64.892C110.131 64.2878 110.365 63.4611 110.365 62.4118C110.365 61.373 110.126 60.5516 109.649 59.9474C109.183 59.3326 108.542 59.0253 107.725 59.0253C106.899 59.0253 106.247 59.3326 105.77 59.9474C105.293 60.5516 105.054 61.373 105.054 62.4118C105.054 63.4505 105.293 64.2719 105.77 64.8761C106.247 65.4803 106.904 65.7824 107.741 65.7824ZM115.83 59.1842C115.746 59.1842 115.703 59.2319 115.703 59.3273V64.3673C115.703 64.8443 115.783 65.1729 115.942 65.3531C116.101 65.5333 116.36 65.6234 116.721 65.6234H117.818C117.934 65.6234 117.993 65.6817 117.993 65.7982L117.977 66.3388C117.977 66.4448 117.913 66.5137 117.786 66.5455C117.51 66.5985 117.012 66.625 116.291 66.625C115.624 66.625 115.136 66.4713 114.829 66.1639C114.521 65.8459 114.368 65.3478 114.368 64.6694V59.3591C114.368 59.2425 114.315 59.1842 114.209 59.1842H112.937C112.82 59.1842 112.762 59.1312 112.762 59.0253V58.3575C112.762 58.2515 112.815 58.1985 112.921 58.1985H114.272C114.346 58.1985 114.384 58.1561 114.384 58.0713L114.558 55.5434C114.558 55.4056 114.617 55.3367 114.733 55.3367H115.528C115.655 55.3367 115.719 55.4109 115.719 55.5593V58.0713C115.719 58.1561 115.761 58.1985 115.846 58.1985H117.85C117.966 58.1985 118.024 58.2462 118.024 58.3416V59.0253C118.024 59.1312 117.966 59.1842 117.85 59.1842H115.83ZM119.976 66.625C119.838 66.625 119.769 66.5561 119.769 66.4183V55.0346C119.769 54.8968 119.827 54.8279 119.944 54.8279H120.882C120.998 54.8279 121.057 54.8915 121.057 55.0187V59.2637C121.057 59.3803 121.104 59.3962 121.2 59.3114C121.804 58.8451 122.318 58.5165 122.742 58.3257C123.166 58.1349 123.632 58.0395 124.141 58.0395C124.957 58.0395 125.583 58.2568 126.017 58.6914C126.462 59.1259 126.685 59.7142 126.685 60.4562V66.3706C126.685 66.5402 126.605 66.625 126.446 66.625H125.556C125.418 66.625 125.349 66.5561 125.349 66.4183V60.7424C125.349 60.2124 125.212 59.8043 124.936 59.5181C124.671 59.2319 124.258 59.0888 123.696 59.0888C123.251 59.0888 122.843 59.1895 122.472 59.3909C122.111 59.5817 121.656 59.9103 121.104 60.3767V66.3865C121.104 66.5455 121.02 66.625 120.85 66.625H119.976ZM129.928 62.9364C129.928 63.4452 130.05 63.9169 130.294 64.3514C130.548 64.786 130.887 65.1305 131.311 65.3849C131.735 65.6393 132.202 65.7665 132.71 65.7665C133.77 65.7665 134.597 65.3266 135.191 64.4468C135.233 64.4044 135.27 64.3832 135.302 64.3832C135.334 64.3726 135.371 64.3779 135.413 64.3991L136.081 64.733C136.166 64.786 136.176 64.8602 136.113 64.9556C135.699 65.5916 135.207 66.0579 134.634 66.3547C134.062 66.6409 133.378 66.784 132.583 66.784C131.809 66.784 131.115 66.6038 130.5 66.2434C129.886 65.883 129.403 65.3796 129.054 64.733C128.714 64.0759 128.545 63.3286 128.545 62.4912C128.545 61.5903 128.72 60.8059 129.07 60.1382C129.419 59.4598 129.896 58.9405 130.5 58.5801C131.115 58.2197 131.804 58.0395 132.567 58.0395C133.33 58.0395 133.998 58.2091 134.571 58.5483C135.154 58.8875 135.604 59.3856 135.922 60.0428C136.24 60.6894 136.399 61.4578 136.399 62.3482V62.4118C136.399 62.5071 136.383 62.5813 136.351 62.6343C136.319 62.6767 136.256 62.6979 136.16 62.6979H130.071C129.976 62.6979 129.928 62.7774 129.928 62.9364ZM134.793 61.8235C134.91 61.8235 134.984 61.8129 135.016 61.7917C135.048 61.7599 135.063 61.6963 135.063 61.6009C135.063 61.1345 134.963 60.7053 134.761 60.3131C134.571 59.9103 134.284 59.5923 133.903 59.3591C133.532 59.1153 133.097 58.9935 132.599 58.9935C132.059 58.9935 131.587 59.1312 131.184 59.4068C130.781 59.6718 130.474 60.0216 130.262 60.4562C130.05 60.8801 129.949 61.3359 129.96 61.8235H134.793ZM138.499 66.625C138.35 66.625 138.276 66.5561 138.276 66.4183V58.4052C138.276 58.2674 138.334 58.1985 138.451 58.1985H139.373C139.49 58.1985 139.548 58.2568 139.548 58.3734V59.4068C139.548 59.4704 139.564 59.5075 139.596 59.5181C139.638 59.5287 139.68 59.5075 139.723 59.4545C140.528 58.5112 141.35 58.0395 142.187 58.0395C142.558 58.0395 142.744 58.1084 142.744 58.2462V59.2001C142.744 59.3061 142.696 59.3485 142.6 59.3273C142.41 59.2955 142.171 59.2796 141.885 59.2796C141.578 59.2796 141.244 59.3697 140.883 59.5499C140.523 59.7301 140.221 59.9633 139.977 60.2495C139.733 60.5357 139.611 60.8271 139.611 61.1239V66.3865C139.611 66.5455 139.532 66.625 139.373 66.625H138.499Z" fill="#231F20"></path>
</svg>