<svg class="logo-svg desktop-only" xmlns="http://www.w3.org/2000/svg" version="1.0" width="100%" viewBox="0 0 1555.000000 2375.000000" preserveAspectRatio="xMidYMid meet">
            <g transform="translate(0.000000,2375.000000) scale(0.100000,-0.100000)" stroke="none" fill="#000000">
            <path xmlns="http://www.w3.org/2000/svg" style="fill:#5f477b" d="M1260 15895 l0 -7855 1470 0 1470 0 0 6483 c0 5029 -3 6486 -12 6495 -9 9 752 12 3425 12 l3437 0 0 -6492 0 -6493 1430 -3 1430 -2 0 7855 0 7855 -6325 0 -6325 0 0 -7855z"></path>
            <path d="M7255 5001 c-189 -52 -325 -152 -403 -298 -46 -86 -62 -161 -62 -283 0 -177 41 -281 155 -395 89 -89 175 -137 412 -233 275 -110 323 -145 323 -235 0 -34 -6 -53 -26 -77 -107 -127 -373 -98 -589 65 -33 25 -67 45 -75 45 -32 0 -270 -271 -270 -307 0 -86 243 -255 457 -319 119 -36 329 -45 453 -20 261 53 452 209 519 421 40 127 36 297 -10 419 -70 189 -216 300 -539 411 -246 85 -320 134 -320 213 0 76 58 127 160 139 97 11 203 -23 352 -114 36 -22 63 -33 75 -28 16 5 193 219 236 286 23 36 15 52 -57 113 -84 72 -210 143 -315 178 -88 28 -109 31 -251 35 -129 2 -167 0 -225 -16z"></path>
            <path d="M10057 5010 c-213 -38 -413 -146 -568 -307 -142 -147 -230 -313 -271 -513 -27 -129 -21 -365 11 -485 27 -96 93 -240 150 -323 135 -200 356 -355 597 -419 88 -23 118 -26 264 -26 147 -1 176 2 262 26 197 53 341 137 488 287 173 176 262 365 292 623 22 190 -14 383 -107 572 -131 268 -353 452 -650 541 -79 23 -110 27 -255 30 -91 1 -187 -1 -213 -6z m316 -495 c239 -62 397 -275 398 -536 0 -163 -51 -290 -161 -399 -105 -104 -217 -150 -371 -150 -299 0 -529 237 -529 545 0 160 53 290 164 401 73 72 143 114 233 139 66 18 197 18 266 0z"></path>
            <path d="M1726 4968 c-25 -40 -707 -1950 -704 -1972 3 -21 7 -21 249 -24 189 -2 249 1 257 10 5 7 31 79 57 161 l47 147 330 -2 331 -3 46 -145 c25 -80 50 -151 54 -158 6 -9 69 -12 258 -12 l249 0 0 29 c0 30 -691 1953 -710 1977 -10 11 -53 14 -231 14 -216 0 -219 0 -233 -22z m332 -957 c51 -159 95 -296 98 -305 6 -14 -15 -16 -196 -16 -163 0 -201 3 -197 13 3 7 47 145 98 305 51 161 96 292 99 292 3 0 47 -130 98 -289z"></path>
            <path d="M3936 4974 c-9 -24 -7 -1977 2 -1992 7 -9 63 -12 248 -10 l239 3 5 592 5 592 323 -583 c177 -320 328 -588 334 -594 9 -9 85 -12 274 -12 230 0 263 2 268 16 9 24 7 1977 -2 1992 -7 9 -63 12 -248 10 l-239 -3 -5 -593 -5 -593 -319 578 c-176 318 -326 586 -334 596 -14 15 -40 17 -277 17 -231 0 -264 -2 -269 -16z"></path>
            <path d="M12386 4974 c-9 -24 -7 -1977 2 -1992 7 -9 63 -12 248 -10 l239 3 5 592 5 592 323 -583 c177 -320 328 -588 334 -594 9 -9 85 -12 274 -12 230 0 263 2 268 16 9 24 7 1977 -2 1992 -7 9 -63 12 -248 10 l-239 -3 -5 -593 -5 -593 -319 578 c-176 318 -326 586 -334 596 -14 15 -40 17 -277 17 -231 0 -264 -2 -269 -16z"></path>
            <path d="M153 1413 c-10 -4 -13 -121 -13 -538 0 -477 2 -534 16 -539 24 -9 356 -7 470 4 228 20 323 100 332 281 4 72 1 93 -18 137 -24 55 -79 112 -135 139 l-34 16 26 20 c45 35 73 112 73 197 -1 161 -91 258 -263 280 -74 10 -432 12 -454 3z m409 -243 c43 -12 58 -34 58 -84 0 -57 -34 -76 -136 -76 l-84 0 0 85 0 85 63 0 c34 0 79 -5 99 -10z m31 -389 c66 -11 97 -42 97 -97 0 -85 -52 -113 -212 -114 l-78 0 0 110 0 110 73 -1 c39 0 93 -4 120 -8z"></path>
            <path d="M1463 1413 c-10 -4 -13 -121 -13 -538 0 -477 2 -534 16 -539 20 -8 578 -8 598 0 13 5 16 25 16 120 l0 114 -185 0 -185 0 0 100 0 100 175 0 175 0 0 115 0 115 -175 0 -175 0 0 90 0 90 185 0 185 0 0 114 c0 95 -3 115 -16 120 -19 7 -583 7 -601 -1z"></path>
            <path d="M3613 1413 c-9 -3 -13 -37 -13 -119 l0 -114 125 0 125 0 0 -420 0 -420 130 0 130 0 0 420 0 420 125 0 125 0 0 114 c0 95 -3 115 -16 120 -19 7 -713 7 -731 -1z"></path>
            <path d="M5863 1403 c-55 -19 -136 -92 -162 -146 -31 -64 -29 -167 4 -233 14 -28 36 -61 49 -74 l25 -22 -63 -63 c-98 -96 -127 -200 -91 -323 22 -71 96 -150 177 -188 58 -27 72 -29 183 -29 114 0 123 1 188 32 38 18 81 42 98 53 l29 21 58 -55 c33 -31 68 -56 78 -56 27 0 147 122 139 141 -3 8 -33 39 -66 68 -54 48 -59 55 -46 70 35 39 117 166 117 181 0 17 -135 120 -157 120 -6 0 -37 -36 -68 -81 -31 -44 -60 -79 -65 -77 -5 2 -40 31 -78 65 l-69 62 63 64 c51 52 66 76 80 123 42 147 -31 290 -176 345 -61 23 -185 24 -247 2z m180 -220 c29 -27 22 -71 -19 -109 -19 -19 -42 -34 -49 -34 -16 0 -51 42 -60 72 -24 72 69 124 128 71z m6 -517 l84 -85 -57 -16 c-148 -43 -256 57 -162 151 19 19 38 34 43 34 5 0 46 -38 92 -84z"></path>
            <path d="M7843 1413 c-10 -4 -13 -121 -13 -538 0 -477 2 -534 16 -539 24 -9 356 -7 470 4 228 20 323 100 332 281 4 72 1 93 -18 137 -24 55 -79 112 -135 139 l-34 16 26 20 c45 35 73 112 73 197 -1 161 -91 258 -263 280 -74 10 -432 12 -454 3z m409 -243 c43 -12 58 -34 58 -84 0 -57 -34 -76 -136 -76 l-84 0 0 85 0 85 63 0 c34 0 79 -5 99 -10z m31 -389 c66 -11 97 -42 97 -97 0 -85 -52 -113 -212 -114 l-78 0 0 110 0 110 73 -1 c39 0 93 -4 120 -8z"></path>
            <path d="M10891 1404 c-181 -49 -338 -208 -385 -390 -20 -77 -20 -212 -1 -284 50 -190 205 -346 390 -395 123 -32 297 -15 403 39 55 28 142 102 142 121 0 15 -147 175 -161 175 -4 0 -28 -13 -52 -30 -58 -39 -156 -64 -216 -55 -90 14 -172 72 -218 158 -26 47 -25 208 1 257 85 161 286 208 434 100 23 -16 46 -30 51 -30 13 0 161 161 161 175 0 19 -83 91 -137 118 -84 43 -149 57 -257 56 -56 0 -125 -7 -155 -15z"></path>
            <path d="M14483 1413 c-10 -4 -13 -121 -13 -538 0 -477 2 -534 16 -539 20 -8 578 -8 598 0 13 5 16 25 16 120 l0 114 -185 0 -185 0 0 100 0 100 175 0 175 0 0 115 0 115 -175 0 -175 0 0 90 0 90 185 0 185 0 0 114 c0 95 -3 115 -16 120 -19 7 -583 7 -601 -1z"></path>
            <path d="M2630 876 c0 -478 2 -535 16 -540 20 -8 548 -8 568 0 13 5 16 25 16 120 l0 114 -170 0 -170 0 0 420 0 420 -130 0 -130 0 0 -534z"></path>
            <path d="M9152 1013 c3 -390 3 -399 26 -456 33 -81 114 -166 194 -203 59 -27 71 -29 193 -29 122 0 134 2 193 29 80 37 161 122 194 203 23 57 23 66 26 456 l3 397 -130 0 -129 0 -4 -357 c-3 -337 -4 -360 -23 -392 -32 -55 -68 -75 -130 -75 -62 0 -98 20 -130 75 -19 32 -20 55 -23 392 l-4 357 -129 0 -130 0 3 -397z"></path>
            <path d="M11940 875 l0 -535 130 0 130 0 0 155 0 156 38 41 39 41 138 -197 138 -196 154 0 c103 0 153 4 153 11 0 6 -87 137 -193 292 -106 155 -196 288 -201 295 -5 8 57 87 178 229 102 119 186 222 186 230 0 10 -33 13 -158 13 l-157 0 -158 -196 -157 -196 0 196 0 196 -130 0 -130 0 0 -535z"></path>
            <path d="M13350 876 c0 -478 2 -535 16 -540 20 -8 548 -8 568 0 13 5 16 25 16 120 l0 114 -170 0 -170 0 0 420 0 420 -130 0 -130 0 0 -534z"></path>
            </g>
        </svg>