<svg loading="lazy" class="badge-logo badge-logo-svg" width="207" height="207" viewBox="0 0 207 207" fill="none" xmlns="http://www.w3.org/2000/svg" title="Ranked number 1 with Chewy for Pitbulls" alt="Ranked number 1 with Chewy for Pitbulls"><title>Ranked number 1 with Chewy for Pitbulls</title>
<g clip-path="url(#clip0_1846_2112)">
<path d="M103.05 0C159.877 0 206.1 46.223 206.1 103.05C206.1 159.877 159.877 206.1 103.05 206.1C46.223 206.1 0 159.877 0 103.05C0.000107581 46.2231 46.2231 0.000107568 103.05 0ZM103.05 6C49.5368 6.00011 6.00011 49.5368 6 103.05C6 156.563 49.5368 200.1 103.05 200.1C156.563 200.1 200.1 156.563 200.1 103.05C200.1 49.5368 156.563 6 103.05 6ZM114.892 170.03C115.521 169.96 115.761 170.2 115.831 170.83L117.501 185.39C117.791 187.96 116.051 190.74 110.431 191.38C104.811 192.02 102.511 189.71 102.221 187.14L100.551 172.58C100.471 171.95 100.682 171.65 101.312 171.58L104.541 171.21C105.171 171.14 105.411 171.38 105.481 172.01H105.491L107.062 185.71C107.212 187.09 108.501 187.52 109.971 187.351C111.441 187.191 112.63 186.48 112.471 185.101L110.901 171.4C110.821 170.77 111.031 170.47 111.661 170.4L114.892 170.03ZM83.0107 168.55L88.5908 169.47C94.1808 170.39 95.7911 172.801 95.3711 175.351L95.1016 176.98C94.8615 178.4 93.9911 179.39 92.5312 179.94C94.251 180.99 95.2013 182.43 94.9414 184L94.5811 186.2C94.161 188.75 91.8111 190.74 86.2314 189.82L86.2207 189.83L79.6611 188.74C79.0411 188.64 78.8512 188.33 78.9512 187.71L82.001 169.3C82.111 168.67 82.3911 168.45 83.0107 168.55ZM123.911 167.771C124.501 167.541 124.801 167.721 125.021 168.311V168.32L130.531 182.811L136.041 180.71C136.631 180.49 136.961 180.59 137.181 181.18L138.011 183.37C138.241 183.96 138.071 184.29 137.481 184.51L128.031 188.101C127.531 188.291 127.221 188.08 127.011 187.521L120.381 170.08C120.151 169.49 120.281 169.15 120.871 168.93L123.911 167.771ZM84.3516 185.54L86.8711 185.96C88.3311 186.2 89.6616 185.88 89.8916 184.51L90.0508 183.561C90.2308 182.431 89.0909 181.63 87.6309 181.39L85.1113 180.97L84.3516 185.54ZM65.3213 161.58C65.5813 161 65.9112 160.92 66.4912 161.17V161.16L78.1016 166.24C78.6812 166.49 78.8408 166.79 78.5908 167.37L77.6514 169.521C77.3914 170.1 77.0506 170.21 76.4707 169.96L72.9414 168.42L66.7314 182.62C66.4815 183.2 66.1813 183.36 65.6016 183.11L62.6211 181.811C62.0411 181.551 61.9307 181.21 62.1807 180.63L68.3916 166.43L64.8613 164.89C64.2815 164.64 64.1311 164.31 64.3809 163.73L65.3213 161.58ZM138.102 161.351C138.622 160.991 138.952 161.09 139.312 161.61L148.142 174.351L152.991 170.99C153.511 170.63 153.851 170.65 154.211 171.17L155.551 173.101C155.901 173.62 155.821 173.97 155.301 174.33L146.991 180.09C146.551 180.4 146.201 180.28 145.861 179.78L135.231 164.44C134.872 163.921 134.911 163.56 135.431 163.2L138.102 161.351ZM85.7109 177.34L87.251 177.601C88.711 177.841 90.0512 177.49 90.2812 176.09L90.4111 175.32C90.6311 173.96 89.4209 173.57 87.9609 173.33V173.32L86.4209 173.061L85.7109 177.34ZM58.1211 155.42C58.4911 154.9 58.8514 154.83 59.3613 155.2L61.9912 157.12C62.5011 157.5 62.5116 157.841 62.1416 158.351H62.1309L51.1309 173.43C50.7609 173.94 50.4309 174.03 49.9209 173.66L47.291 171.74C46.781 171.37 46.7511 171.01 47.1211 170.5L58.1211 155.42ZM152.781 148.89C156.571 144.82 159.601 145.33 161.491 147.09L162.312 147.851C162.781 148.28 162.811 148.641 162.381 149.101L160.251 151.39C159.821 151.85 159.471 151.82 159.011 151.39V151.4L158.681 151.09C157.661 150.15 156.631 150.511 155.691 151.521C154.752 152.53 154.451 153.61 155.461 154.55L155.681 154.75C156.271 155.31 156.971 155.09 157.281 154.93L161.981 152.4C164.051 151.28 166.241 151.22 167.871 152.74L169.441 154.2C171.331 155.96 171.961 159.051 168.102 163.19C164.252 167.33 161.091 166.97 159.191 165.21L157.711 163.84C157.241 163.41 157.212 163.05 157.642 162.59L159.771 160.3C160.211 159.84 160.551 159.87 161.011 160.3L162.001 161.22C163.011 162.16 164.191 161.65 165.191 160.57C166.201 159.49 166.641 158.26 165.631 157.32L165.191 156.91C164.401 156.17 163.041 156.88 161.951 157.43L157.812 159.49C156.342 160.22 154.251 160.001 152.971 158.811L151.691 157.62C149.791 155.86 148.991 152.96 152.781 148.89ZM44.7207 140.94C45.1907 140.52 45.5508 140.52 45.9707 140.99L50.291 145.851C54.0408 150.09 53.4507 153.27 51.5107 154.99L49.1016 157.13C47.1716 158.85 43.9407 159.06 40.1807 154.83L38.5811 153.03L34.0508 157.04C33.5809 157.46 33.2412 157.48 32.8213 157.01L30.6611 154.58C30.2412 154.11 30.2909 153.75 30.7607 153.33L44.7207 140.94ZM103.082 141.82C106.772 141.82 108.102 143.48 108.103 145.17V152.11C108.102 153.79 106.772 155.46 103.082 155.46C99.3926 155.46 98.0822 153.8 98.082 152.11V145.17C98.0821 143.49 99.3925 141.82 103.082 141.82ZM96.043 141.97C96.4526 141.97 96.6328 142.111 96.6328 142.521V144.05C96.6328 144.46 96.4526 144.62 96.043 144.62H91.5527V147.17H95.7227C96.1324 147.17 96.3124 147.31 96.3125 147.72V149.25C96.3125 149.66 96.1325 149.82 95.7227 149.82H91.5527V154.72C91.5527 155.13 91.4126 155.31 91.0029 155.311H88.8828C88.4728 155.311 88.3125 155.13 88.3125 154.72V142.57C88.3125 142.16 88.4728 141.98 88.8828 141.98L96.043 141.97ZM115.062 141.98C118.753 141.98 120.043 143.64 120.043 145.33L120.053 147.04C120.053 148.16 119.483 149.27 118.013 149.9L119.933 154.72C120.073 155.08 119.813 155.31 119.383 155.311H117.263C116.893 155.311 116.812 154.99 116.692 154.72L114.973 150.39H113.503V154.72C113.503 155.13 113.362 155.311 112.952 155.311H110.832C110.422 155.31 110.263 155.13 110.263 154.72V142.57C110.263 142.16 110.422 141.981 110.832 141.98H115.062ZM41.6211 150.34L43.2207 152.14C44.2007 153.24 45.461 153.81 46.501 152.89L47.6016 151.91C48.6412 150.99 48.2308 149.66 47.251 148.561L45.6514 146.76L41.6211 150.34ZM103.093 144.47C102.133 144.47 101.332 144.84 101.332 145.74V151.54C101.332 152.44 102.133 152.811 103.093 152.811C104.053 152.81 104.872 152.44 104.872 151.54V145.74C104.872 144.84 104.053 144.47 103.093 144.47ZM113.492 144.61V147.73H115.062C116.022 147.73 116.843 147.36 116.843 146.46V145.89C116.843 144.99 116.022 144.62 115.062 144.62V144.61H113.492ZM47.6885 91.3301C47.9785 88.0801 50.6287 85.6302 54.1387 85.9502C57.6286 86.2502 59.789 89.1099 59.499 92.3799C59.419 93.4699 59.0384 97.5299 58.6084 102.55H58.7188C58.7367 102.531 61.9819 99.2001 67.7236 99.4717L68.2891 99.5303C72.8225 99.9449 76.2289 102.642 77.8975 106.49C78.7934 102.008 81.5585 97.5442 87.502 94.3096C98.7924 88.1873 108.009 94.012 110.498 100.186L110.551 100.343C111.187 99.2277 112.227 98.3161 113.612 97.8096C116.802 96.6398 119.912 98.3602 121.012 101.37C121.014 101.377 124.493 111.043 127.062 118.11L127.202 118.08C127.202 118.08 128.272 109.93 128.992 104.32C129.722 98.7403 130.662 95.7097 135.452 95.1797C140.232 94.6297 141.792 97.3702 143.722 102.66C145.642 107.98 148.442 115.69 148.442 115.69H148.592C149.529 108.232 150.855 98.0487 150.862 97.9902C151.259 94.9291 153.787 92.5901 157.008 92.8467L157.312 92.8604C160.09 93.2118 161.938 95.2517 162.255 97.7207C163.024 96.7905 164.108 96.0858 165.448 95.7598C168.818 94.9098 171.759 96.9798 172.509 100.14C172.509 100.14 174.928 110.3 176.688 117.72H176.828C179.158 110.47 182.389 100.54 182.389 100.54C183.357 97.5661 186.287 95.7464 189.479 96.6445L189.799 96.75C193.089 97.8301 194.588 101.19 193.488 104.29C184.038 130.26 181.648 136.98 173.469 139.43C165.309 141.88 158.249 137.01 157.129 132.42C156.299 129.12 158.548 126.44 161.078 126.26C164.758 126.03 165.859 129.41 167.759 128.45C169.918 127.37 166.348 119.92 162.918 108.73C162.312 106.727 161.782 105.003 161.466 103.979C160.824 107.643 160.02 111.916 159.232 115.56C157.162 124.91 156.272 127.3 149.872 128.21C143.452 128.76 142.272 126.309 137.372 112.229H137.232C135.532 127.079 134.902 129.73 128.532 130.61C122.082 131.17 120.702 129.04 116.662 120.36C116.042 119.04 115.402 117.621 114.767 116.177C114.487 117.16 113.996 118.232 113.231 119.38C111.531 121.92 108.682 124.69 103.812 127C95.4515 130.91 84.7112 130.18 79.4912 118.76C79.2044 118.136 78.9377 117.471 78.6992 116.771C78.1306 123.197 77.6204 128.986 77.6191 129C77.3291 132.22 74.7085 134.7 71.1885 134.38C67.6787 134.08 65.5186 131.19 65.8086 127.92C65.8105 127.898 66.3896 121.447 67.0186 114.1C67.3284 110.51 65.0888 108.37 62.8389 108.17C60.5889 107.96 57.9987 109.39 57.6787 113.25C57.0087 120.61 56.4688 127.07 56.4688 127.07C56.1886 130.31 53.5384 132.79 50.0186 132.47C46.5287 132.14 44.3692 129.28 44.6592 126.01C44.6603 125.997 44.7001 125.534 44.7715 124.723C42.9392 127.244 39.7342 129.7 34.4102 130.88C25.8202 132.77 14.9298 128.98 12.6797 117.32C10.5197 106.04 17.2 97.0397 27.1699 94.9697C34.8999 93.3597 41.9505 96.6602 43.0205 101.16C43.7103 104.14 42.2995 106.45 39.3896 107.03C34.4702 108.02 33.4299 103.35 29.0205 104.02C23.9705 104.78 23.3396 110.01 24.0596 113.54C24.9496 117.86 27.8104 121.43 32.3604 120.49C36.2159 119.667 37.2561 115.399 40.7178 114.306L41.0703 114.229C42.9292 113.768 44.5194 114.427 45.5771 115.55C46.4087 106.079 47.5278 93.3133 47.6885 91.3301ZM110.243 105.324C109.673 106.217 108.801 107.008 107.661 107.7C103.932 109.943 91.2906 115.724 91.2119 115.76C92.3619 117.92 95.8819 120.17 99.7119 118.62C103.632 117.04 104.122 114.65 105.212 112.31C106.595 109.408 109.393 108.41 111.875 109.369C111.26 107.875 110.703 106.493 110.243 105.324ZM99.7217 103.7C99.7217 103.7 96.7819 98.6106 91.542 101.07C86.3294 103.537 88.1817 109.042 88.2012 109.1L99.7217 103.7ZM123.073 46.5303C123.922 46.4151 124.768 46.6429 125.471 47.1699L125.47 47.1709C126.471 47.9143 127.069 49.123 127.243 50.5381L127.251 50.5986V83.8105C127.251 86.5108 125.054 88.7196 122.341 88.7197H116.721C114.02 88.7197 111.811 86.5242 111.811 83.8105V63.9111L107.907 65.8984L107.908 65.8994C107.561 66.0781 107.021 66.3404 106.48 66.5742C106.036 66.7663 105.507 66.9772 105.077 67.0791L104.9 67.1152C104.027 67.2658 103.144 67.0227 102.464 66.4609L102.456 66.4551L102.448 66.4482C101.787 65.8794 101.141 64.8475 101.141 63.1104V57.75C101.141 56.7535 101.506 55.7556 102.052 54.9219C102.591 54.0993 103.35 53.3692 104.243 52.917L112.652 48.2168C114.35 47.2644 117.128 46.5303 119.081 46.5303H123.073ZM81.042 57.6504C82.0615 57.6506 82.3013 58.3498 82.0615 59.2695L81.0918 63.0498H86.4014L87.3711 59.2695C87.6111 58.2998 88.1015 57.6506 89.1211 57.6504H92.6719C93.6915 57.6505 93.9313 58.3498 93.6914 59.2695L92.7217 63.0498H94.1318C95.1515 63.0499 95.5917 63.4299 95.5918 64.5596V67.4199C95.5918 68.5598 95.1516 68.9902 94.1318 68.9902H91.1611L90.332 72.1699H91.6914C92.7113 72.1699 93.1513 72.5499 93.1514 73.6797V76.54C93.1513 77.6799 92.7114 78.1104 91.6914 78.1104H88.7715L87.8018 81.9395C87.5118 83.0194 87.0716 83.5595 86.0518 83.5596H82.502C81.632 83.5596 81.1914 83.0195 81.4814 81.9395L82.4512 78.1104H77.1416L76.1719 81.9395C75.8819 83.0193 75.4417 83.5595 74.4219 83.5596H70.8711C70.0014 83.5594 69.5616 83.0193 69.8516 81.9395L70.8213 78.1104H69.3115C68.2916 78.1103 67.8516 77.6699 67.8516 76.54V73.6797C67.8516 72.5499 68.2916 72.1699 69.3115 72.1699H72.3818L73.2119 68.9902H71.752C70.732 68.9902 70.292 68.5499 70.292 67.4199V64.5596C70.2921 63.4298 70.7321 63.0498 71.752 63.0498H74.7715L75.7412 59.2695C75.9812 58.2998 76.4715 57.6505 77.4912 57.6504H81.042ZM27.8301 64.8701C28.3901 63.9201 29.2906 63.9201 29.8506 64.8701V64.8799L31.3701 67.4902C31.9302 68.4502 33.2504 69.44 34.3203 69.71L37.9902 70.6396C38.5302 70.7696 38.6801 71.2302 38.3301 71.6602L35.2002 75.5195C34.8502 75.9395 34.6006 76.74 34.6406 77.29L34.9404 81.3896C35.0204 82.4896 34.26 83.0298 33.25 82.5898L29.75 81.0703C29.25 80.8504 28.4299 80.8503 27.9199 81.0703L23.5 82.9902C23.0002 83.2099 22.6202 82.9395 22.6602 82.3896L22.96 78.29C23.04 77.1902 22.5505 75.6003 21.8506 74.7402L19.3506 71.6504C19.0006 71.2204 19.1604 70.7699 19.6904 70.6299L24.3301 69.4502C24.8601 69.3102 25.5208 68.8198 25.8008 68.3398L27.8301 64.8701ZM176.239 64.8701C176.799 63.9201 177.699 63.9201 178.259 64.8701V64.8799L179.779 67.4902C180.339 68.4501 181.66 69.44 182.729 69.71L186.399 70.6396C186.939 70.7697 187.089 71.2302 186.739 71.6602L183.609 75.5195C183.259 75.9395 183.009 76.74 183.049 77.29L183.349 81.3896C183.429 82.4896 182.669 83.0298 181.659 82.5898L178.159 81.0703C177.659 80.8503 176.839 80.8503 176.329 81.0703L171.909 82.9902C171.409 83.2102 171.029 82.9396 171.069 82.3896L171.369 78.29C171.449 77.19 170.959 75.6002 170.259 74.7402L167.759 71.6504C167.409 71.2205 167.559 70.77 168.099 70.6299L172.739 69.4502C173.269 69.3102 173.929 68.8198 174.209 68.3398L176.239 64.8701ZM78.7012 72.1699H84.0117L84.8418 68.9902H79.5312L78.7012 72.1699ZM41.6025 39.0195C45.8524 35.0699 49.1227 35.6001 50.9326 37.54L52.752 39.5C53.9519 40.7899 54.4923 42.6797 53.4727 44.9795L60.8525 48.4697C61.3923 48.7298 61.3525 49.2803 60.8525 49.7402L58.4121 52.0098C57.9921 52.4098 57.5618 52.1295 57.1318 51.9395L50.502 48.7998L48.8125 50.3799L53.4521 55.3701C53.8921 55.8501 53.922 56.1997 53.4521 56.6396L51.0127 58.9102C50.5427 59.3501 50.1724 59.3098 49.7324 58.8398L36.7021 44.8496C36.2523 44.3697 36.2527 43.9995 36.7227 43.5596L41.6025 39.0195ZM159.072 35.0303C159.532 34.5603 159.902 34.5402 160.362 34.9902L165.353 39.8604C169.492 43.9102 169.162 47.2504 167.312 49.1504L160.032 56.6104C158.182 58.5102 154.852 58.9199 150.702 54.8701L150.692 54.8604L145.622 49.9102C145.222 49.5202 145.282 49.1499 145.712 48.71L159.072 35.0303ZM151.622 49.9395L153.612 51.8799C154.692 52.9399 156.032 53.4202 157.022 52.4102L163.052 46.2295C164.042 45.2195 163.522 43.8998 162.442 42.8398V42.8301L160.452 40.8896L151.622 49.9395ZM47.8721 41.6201C46.9021 40.5802 45.5621 41.0297 44.4521 42.0596L42.6426 43.7402L45.9824 47.3301L47.792 45.6504C48.902 44.6204 49.4524 43.3095 48.4824 42.2695L47.8721 41.6201ZM138.973 22.5C139.283 21.9401 139.632 21.81 140.202 22.1299L149.402 27.2803C149.972 27.6002 150.112 27.9203 149.792 28.4902L148.622 30.5898C148.312 31.1598 147.952 31.2399 147.382 30.9199L141.842 27.8203L139.882 31.3203L144.992 34.1797C145.562 34.4997 145.702 34.8297 145.382 35.3896L144.282 37.3604C143.972 37.9301 143.612 38.0094 143.042 37.6895L137.933 34.8301L135.672 38.8701L141.482 42.1201C142.052 42.4401 142.192 42.7602 141.872 43.3301L140.702 45.4297C140.392 45.9997 140.032 46.0798 139.462 45.7598L139.442 45.7295L129.973 40.4297C129.403 40.1197 129.323 39.7595 129.643 39.1895L138.973 22.5ZM65.9023 22.46C66.4922 22.1801 66.9021 22.3298 67.332 22.8096L80.4727 37.7695C80.8927 38.2195 80.8419 38.6196 80.252 38.8896L77.1523 40.3398C76.5623 40.6098 76.1722 40.4199 75.7822 39.96L73.8018 37.6201L69.1621 39.7803L69.6924 42.7998C69.8024 43.3897 69.6923 43.8198 69.1025 44.0898L66.2822 45.4102C65.6924 45.68 65.3526 45.47 65.2725 44.8604L62.2422 25.1797C62.1423 24.54 62.2923 24.1303 62.8818 23.8604L65.9023 22.46ZM112.312 15.1895C112.453 14.56 112.752 14.3397 113.382 14.4795L116.632 15.1895C117.272 15.3295 117.422 15.6503 117.282 16.2803L115.612 23.96L115.912 24.0303L122.192 17.3496C122.592 16.9298 123.172 16.6103 123.802 16.75L127.272 17.5C127.902 17.6401 127.902 18.0801 127.492 18.5L119.774 26.4072L124.183 37.3301C124.382 37.85 124.162 38.2796 123.532 38.1396L119.372 37.2402C118.742 37.1002 118.502 36.5795 118.302 36.0596L115.152 27.6396L114.822 27.5703L113.212 34.9502C113.072 35.58 112.802 35.8099 112.172 35.6699L108.922 34.96C108.282 34.8299 108.102 34.4999 108.242 33.8701L112.312 15.1895ZM98.4619 14.2598C99.1019 14.1898 99.3519 14.4401 99.4219 15.0801L101.592 34.0703C101.672 34.7201 101.482 35.0199 100.842 35.0898L97.8418 35.4297C97.3821 35.4896 97.1819 35.3895 96.9619 35.0996L91.1318 27.5098C90.522 26.7399 89.9419 25.7202 89.502 24.9004L90.6924 35.3096C90.7724 35.9595 90.5823 36.2601 89.9424 36.3301L86.9424 36.6699C86.3024 36.7399 86.0221 36.4896 85.9521 35.8496L83.7822 16.8604C83.7022 16.2204 83.9225 15.9098 84.5625 15.8398L87.5625 15.5C87.9623 15.4501 88.2221 15.5503 88.3721 15.7803L94.542 23.8604C94.982 24.4703 95.4821 25.3401 95.8721 26.04L94.6826 15.6201C94.6026 14.9802 94.8221 14.6697 95.4619 14.5996L98.4619 14.2598ZM66.4023 27.6895C66.5323 28.1094 67.8726 32.1397 68.1826 33.9697L68.4727 35.6797L71.1025 34.4502H71.0918L69.9922 33.1201C68.7522 31.6301 66.5423 27.9295 66.4023 27.6895Z" fill="white"></path>
</g>
<defs>
<clipPath id="clip0_1846_2112">
<rect width="206.1" height="206.1" fill="white"></rect>
</clipPath>
</defs>
</svg>