<svg xmlns="http://www.w3.org/2000/svg" width="100" height="55" viewBox="0 0 85 40" fill="none" class="header__heading-logo">
<path fill-rule="evenodd" clip-rule="evenodd" d="M42.0749 18.1811C42.0352 18.1811 41.9724 18.1747 41.8866 18.1613C41.8006 18.1483 41.7442 18.1416 41.7181 18.1416C41.6254 18.1416 41.5525 18.1911 41.4997 18.2895C41.3544 18.5726 41.1991 18.9411 41.034 19.3949C40.7033 20.3098 40.0921 22.1783 39.1996 25.0013H39.0806H38.9616C38.6906 23.9813 38.2146 22.468 37.5341 20.4611C37.4944 20.3098 37.4447 20.1485 37.3852 19.9775C37.3721 19.9575 37.3587 19.9411 37.3455 19.928C37.3193 19.928 37.286 19.9906 37.2464 20.1154C36.8167 21.3988 36.2913 23.0272 35.67 25.0013H35.551H35.432C35.1281 23.8562 34.4012 21.6257 33.2509 18.3093C33.2112 18.1975 33.1185 18.1416 32.9732 18.1416C32.9268 18.1416 32.8542 18.1483 32.755 18.1613C32.6559 18.1747 32.5832 18.1811 32.5371 18.1811C32.5567 18.1285 32.5667 18.0824 32.5667 18.0429C32.5667 18.01 32.5567 17.9572 32.5371 17.8849C33.0129 17.9113 33.4755 17.9244 33.9249 17.9244C34.4141 17.9244 34.8337 17.9113 35.1842 17.8849C35.1644 17.9508 35.1543 18.0003 35.1543 18.0331C35.1543 18.0726 35.1644 18.1218 35.1842 18.1811C34.7677 18.1547 34.5761 18.1416 34.609 18.1416C34.4967 18.1416 34.4406 18.1811 34.4406 18.26C34.4406 18.2667 34.447 18.2962 34.4604 18.3488C34.7381 19.4411 35.1876 20.8688 35.8088 22.6321C35.8683 22.8034 35.898 22.9716 35.898 23.1357C35.898 23.1688 35.9111 23.1852 35.9376 23.1852C35.9639 23.1852 36.0136 23.0634 36.0862 22.8198C36.3639 21.958 36.7011 20.9088 37.0977 19.6713C37.1307 19.5662 37.1472 19.4841 37.1472 19.4247C37.1472 19.3457 37.1374 19.2765 37.1176 19.2175C37.0447 19.02 36.9357 18.7175 36.7902 18.3093C36.7508 18.1975 36.6581 18.1416 36.5128 18.1416C36.4664 18.1416 36.3871 18.1483 36.2748 18.1613C36.1622 18.1747 36.0829 18.1811 36.0368 18.1811C36.0499 18.1483 36.0566 18.1021 36.0566 18.0429C36.0566 17.9836 36.0499 17.9311 36.0368 17.8849C36.5128 17.9113 36.9687 17.9244 37.405 17.9244C37.9207 17.9244 38.3534 17.9113 38.704 17.8849C38.6839 17.9508 38.6741 18.0003 38.6741 18.0331C38.6741 18.0726 38.6839 18.1218 38.704 18.1811C38.2875 18.1547 38.0992 18.1416 38.1389 18.1416C38.0263 18.1416 37.9702 18.1811 37.9702 18.26C37.9702 18.2667 37.9769 18.2962 37.99 18.3488C38.2939 19.5595 38.737 20.9875 39.3188 22.6321C39.3915 22.8365 39.4278 23.0041 39.4278 23.1357C39.4278 23.1818 39.4409 23.2049 39.4672 23.2049C39.4873 23.2049 39.5069 23.1818 39.5267 23.1357C39.5468 23.0572 39.5764 22.9521 39.6161 22.8208C39.8605 22.0393 40.2108 20.88 40.667 19.3434C40.8321 18.7588 40.915 18.3977 40.915 18.2598C40.915 18.1811 40.8653 18.1416 40.7661 18.1416C40.7265 18.1416 40.6505 18.1483 40.5382 18.1613C40.4256 18.1747 40.3496 18.1811 40.31 18.1811C40.3167 18.1352 40.32 18.0857 40.32 18.0331C40.32 17.9872 40.3167 17.9377 40.31 17.8849C40.6142 17.9113 40.9248 17.9244 41.2421 17.9244C41.5657 17.9244 41.8402 17.9113 42.0648 17.8849C42.0517 17.9441 42.0453 17.997 42.0453 18.0429C42.0453 18.0759 42.055 18.1218 42.0749 18.1811Z" fill="#2C2628"></path>
<path fill-rule="evenodd" clip-rule="evenodd" d="M44.5818 22.0896C44.5818 22.0698 44.5751 22.0404 44.5622 22.0006C44.4108 21.5534 44.1975 20.9052 43.9216 20.0563C43.8822 19.925 43.8526 19.757 43.833 19.5529C43.833 19.5201 43.8199 19.5037 43.7936 19.5037C43.7738 19.5037 43.7573 19.5365 43.7441 19.6019C43.7114 19.7463 43.5636 20.2478 43.3006 21.1065L43.0253 21.9816C43.0186 22.0011 43.0152 22.0242 43.0152 22.0504C43.0152 22.1093 43.0678 22.1388 43.1728 22.1388C43.4423 22.1522 43.6491 22.1588 43.7936 22.1588C44.2863 22.1588 44.5455 22.1457 44.5717 22.1191C44.5782 22.1127 44.5818 22.1029 44.5818 22.0896ZM47.2289 24.8629C46.7598 24.8368 46.3106 24.8234 45.881 24.8234C45.3599 24.8234 44.9269 24.8368 44.5818 24.8629V24.7345V24.5668C44.9483 24.5934 45.1155 24.6063 45.0833 24.6063C45.2247 24.6063 45.2955 24.5634 45.2955 24.4778C45.2955 24.4452 45.2891 24.4027 45.2757 24.3496C45.1634 23.9219 44.9846 23.3168 44.7405 22.5334C44.7206 22.4681 44.6712 22.4352 44.5916 22.4352C44.3008 22.4286 44.0465 22.4252 43.8281 22.4252C43.6102 22.4252 43.3722 22.4286 43.1146 22.4352C43.035 22.4352 42.9822 22.4383 42.956 22.4447C42.9093 22.4647 42.8766 22.5009 42.8565 22.5534C42.7046 23.0537 42.6219 23.3265 42.6088 23.3727C42.5096 23.7016 42.4434 23.9814 42.4104 24.2114C42.397 24.297 42.3906 24.3598 42.3906 24.3991C42.3906 24.5373 42.4614 24.6063 42.6028 24.6063C42.6477 24.6063 42.7293 24.5998 42.8486 24.5865C42.9673 24.5737 43.0459 24.5668 43.0848 24.5668V24.7147V24.8629C42.7867 24.8368 42.4635 24.8234 42.114 24.8234C41.7448 24.8234 41.4507 24.8368 41.2305 24.8629V24.7247V24.5668C41.4801 24.5934 41.5916 24.6063 41.5656 24.6063C41.7361 24.6063 41.9692 24.1911 42.2646 23.3609C42.5863 22.4583 43.1875 20.6001 44.0672 17.7863H44.1952H44.3234C44.6583 19.0432 45.3674 21.2406 46.451 24.3793C46.5033 24.5309 46.6084 24.6063 46.766 24.6063C46.8054 24.6063 46.8794 24.5998 46.9875 24.5865C47.096 24.5737 47.1763 24.5668 47.2289 24.5668V24.7147V24.8629Z" fill="#2C2628"></path>
<path fill-rule="evenodd" clip-rule="evenodd" d="M52.6932 24.863C52.3228 24.863 51.7873 24.8566 51.0869 24.8433C50.3863 24.8302 49.8276 24.8236 49.4114 24.8236C48.8097 24.8236 48.2245 24.8366 47.6563 24.863C47.6694 24.7971 47.6761 24.7412 47.6761 24.6953C47.6761 24.6689 47.6661 24.6228 47.6465 24.5571C47.6795 24.5571 47.7619 24.5636 47.8943 24.5766C47.9999 24.5902 48.0795 24.5966 48.1323 24.5966C48.3041 24.5966 48.3935 24.5371 48.3999 24.4189C48.4329 23.7477 48.4493 22.7082 48.4493 21.3C48.4493 19.4115 48.4298 18.4048 48.3901 18.28C48.3633 18.1943 48.2876 18.1515 48.1622 18.1515C48.1158 18.1515 48.0331 18.16 47.9141 18.1761C47.7951 18.1925 47.7091 18.2007 47.6563 18.2007C47.6694 18.1418 47.6761 18.0859 47.6761 18.033C47.6761 18.0066 47.6661 17.9607 47.6465 17.8948C48.1622 17.9212 48.6114 17.9343 48.9949 17.9343C49.4642 17.9343 49.8936 17.9212 50.2838 17.8948C50.2704 17.9671 50.2637 18.02 50.2637 18.0528C50.2637 18.1053 50.2704 18.1548 50.2838 18.2007C50.2441 18.2007 50.163 18.1925 50.0409 18.1761C49.9186 18.16 49.831 18.1515 49.7782 18.1515C49.6128 18.1515 49.5268 18.211 49.5203 18.3295C49.4608 19.2192 49.431 20.2141 49.431 21.3146C49.431 22.3823 49.4608 23.4038 49.5203 24.3789C49.5268 24.5241 49.705 24.5966 50.0558 24.5966C50.7232 24.5966 51.1794 24.5602 51.4238 24.4874C51.728 24.3882 51.9493 24.1802 52.0881 23.863C52.2138 23.5723 52.3295 23.0436 52.4351 22.2771C52.475 22.2905 52.5211 22.2969 52.5739 22.2969C52.6337 22.2969 52.6731 22.2936 52.6932 22.2869C52.6664 22.7741 52.6535 23.2279 52.6535 23.6489C52.6535 24.1028 52.6664 24.5077 52.6932 24.863Z" fill="#2C2628"></path>
<path fill-rule="evenodd" clip-rule="evenodd" d="M59.3548 24.863C58.9914 24.8433 58.5383 24.8336 57.9966 24.8336C57.567 24.8336 57.1206 24.8433 56.658 24.863C56.6712 24.8169 56.6779 24.771 56.6779 24.7248C56.6779 24.6853 56.6712 24.6328 56.658 24.5669C56.7376 24.5736 56.8298 24.5833 56.9357 24.5966C57.0416 24.6097 57.1108 24.6161 57.1438 24.6161C57.2363 24.6161 57.2826 24.5833 57.2826 24.5174C57.2826 24.4915 57.2729 24.4518 57.253 24.3989C57.0944 23.9782 56.8628 23.4979 56.5591 22.9579C56.2748 22.4846 55.9937 22.0107 55.7163 21.5366C55.6568 21.4315 55.5577 21.3787 55.4188 21.3787H55.2604C55.161 21.3787 55.1015 21.3987 55.0817 21.4387C55.0618 21.4784 55.0518 21.6041 55.0518 21.8159C55.0518 22.4318 55.085 23.2856 55.1512 24.3779C55.1576 24.5369 55.2401 24.6161 55.399 24.6161C55.4387 24.6161 55.5195 24.6064 55.6419 24.5866C55.7642 24.5669 55.8549 24.5571 55.9147 24.5571C55.9013 24.6161 55.8946 24.6689 55.8946 24.7148C55.8946 24.7543 55.9013 24.8038 55.9147 24.863C55.518 24.8433 55.0884 24.8336 54.6255 24.8336C54.2554 24.8336 53.8059 24.8433 53.2773 24.863C53.2969 24.7777 53.307 24.7248 53.307 24.7051C53.307 24.6789 53.2969 24.6295 53.2773 24.5571C53.3301 24.5571 53.4144 24.5669 53.5303 24.5866C53.6457 24.6064 53.7235 24.6161 53.7629 24.6161C53.9347 24.6161 54.0243 24.5371 54.0308 24.3787C54.0637 23.6595 54.0802 22.6361 54.0802 21.3097C54.0802 19.9369 54.0637 18.9438 54.0308 18.3297C54.0243 18.2112 53.9414 18.1515 53.783 18.1515C53.7366 18.1515 53.6521 18.16 53.5303 18.1761C53.4074 18.1925 53.3234 18.2007 53.2773 18.2007C53.2969 18.1482 53.307 18.1023 53.307 18.0628C53.307 18.023 53.2969 17.9671 53.2773 17.8948C53.7925 17.9212 54.2422 17.9343 54.6255 17.9343C55.0948 17.9343 55.5244 17.9212 55.9147 17.8948C55.9013 17.9607 55.8946 18.0133 55.8946 18.0528C55.8946 18.0989 55.9013 18.1482 55.9147 18.2007C55.8683 18.2007 55.7823 18.1925 55.6568 18.1761C55.5311 18.16 55.4451 18.1515 55.399 18.1515C55.2401 18.1515 55.1576 18.2043 55.1512 18.3095C55.0981 19.0859 55.0719 19.8428 55.0719 20.5795V20.8853C55.0783 21.0436 55.1213 21.1223 55.2007 21.1223H55.3789C55.4915 21.1223 55.5937 21.0533 55.6867 20.9153C56.4929 19.77 57.0251 18.8951 57.2826 18.2895C57.3025 18.2438 57.3125 18.2174 57.3125 18.2107C57.3125 18.1712 57.279 18.1515 57.2136 18.1515H57.1044C56.9787 18.1646 56.81 18.1779 56.5988 18.191C56.6119 18.1318 56.6186 18.0859 56.6186 18.0528C56.6186 18.0266 56.6119 17.9738 56.5988 17.8948C56.9159 17.9212 57.2762 17.9343 57.6793 17.9343C58.076 17.9343 58.4196 17.9212 58.7104 17.8948C58.697 17.9541 58.6908 18.0066 58.6908 18.0528C58.6908 18.0859 58.7006 18.1318 58.7204 18.191C58.3372 18.1646 58.1751 18.1515 58.2346 18.1515C58.1025 18.1515 57.9799 18.2177 57.8679 18.3492C57.5371 18.7512 57.1075 19.3671 56.579 20.1977C56.4731 20.3623 56.42 20.4746 56.42 20.5338C56.42 20.5733 56.4368 20.6261 56.4697 20.6918C57.2363 22.1748 57.9271 23.4102 58.5419 24.3987C58.6344 24.5438 58.7568 24.6161 58.909 24.6161C58.8822 24.6161 59.0311 24.6 59.3548 24.5669C59.3415 24.6589 59.3353 24.7148 59.3353 24.7346C59.3353 24.7741 59.3415 24.8169 59.3548 24.863Z" fill="#2C2628"></path>
<path fill-rule="evenodd" clip-rule="evenodd" d="M38.3257 8.15793C38.2794 8.61203 38.2562 9.04947 38.2562 9.47049C38.2562 9.89177 38.2693 10.2305 38.2961 10.4872C38.2034 10.4674 38.1506 10.4577 38.1374 10.4577C38.1109 10.4577 38.0646 10.4674 37.9984 10.4872C37.9785 9.86229 37.8894 9.39511 37.7307 9.08588C37.5061 8.63818 37.1162 8.41434 36.5608 8.41434H36.3033C36.2237 8.41434 36.174 8.42126 36.1544 8.43434C36.1345 8.44742 36.1211 8.49024 36.115 8.56254C36.0683 9.32588 36.0452 10.3195 36.0452 11.5433C36.0452 12.8328 36.0683 13.8725 36.115 14.6623C36.1211 14.7872 36.2041 14.8497 36.3625 14.8497C36.4086 14.8497 36.4946 14.8433 36.6203 14.83C36.7458 14.8166 36.8318 14.8102 36.8782 14.8102C36.8583 14.909 36.8485 14.9615 36.8485 14.9682C36.8485 14.9879 36.8583 15.0374 36.8782 15.1161C36.4815 15.09 36.0616 15.0766 35.6189 15.0766C35.2356 15.0766 34.7794 15.09 34.2509 15.1161C34.2573 15.0702 34.2607 15.0174 34.2607 14.9582C34.2607 14.9254 34.254 14.8761 34.2408 14.8102C34.2805 14.8102 34.3663 14.8166 34.4987 14.83C34.611 14.8433 34.6901 14.8497 34.7364 14.8497C34.8953 14.8497 34.9778 14.7872 34.9845 14.6623C35.0241 13.8464 35.044 12.81 35.044 11.5531C35.044 10.0595 35.0272 9.0628 34.9943 8.56254C34.9878 8.46383 34.9185 8.41434 34.7874 8.41434H34.5801C34.0276 8.41434 33.6332 8.60203 33.3965 8.97716C33.1992 9.2928 33.0874 9.79639 33.0609 10.4872C32.9816 10.4743 32.9352 10.4674 32.9221 10.4674C32.9022 10.4674 32.8528 10.4743 32.7734 10.4872C32.8131 10.1056 32.8329 9.70101 32.8329 9.27331C32.8329 8.8587 32.8131 8.4869 32.7734 8.15793C33.712 8.18434 34.687 8.19742 35.6985 8.19742C36.7558 8.19742 37.6318 8.18434 38.3257 8.15793Z" fill="#2C2628"></path>
<path fill-rule="evenodd" clip-rule="evenodd" d="M45.375 15.1162C44.833 15.0898 44.3802 15.0767 44.0168 15.0767C43.5472 15.0767 43.1243 15.0898 42.7474 15.1162C42.7608 15.0308 42.7673 14.9746 42.7673 14.9485C42.7673 14.9087 42.7608 14.8629 42.7474 14.8103C42.8268 14.8167 42.9308 14.8267 43.0599 14.8398C43.1889 14.8531 43.2696 14.8598 43.3028 14.8598C43.4215 14.8598 43.4844 14.797 43.4913 14.6716C43.524 14.15 43.5441 13.5067 43.5506 12.7408V11.85C43.5506 11.7705 43.539 11.7211 43.5158 11.7016C43.4926 11.6816 43.4215 11.6685 43.3028 11.6618C42.8927 11.6552 42.5259 11.6518 42.2024 11.6518C41.9181 11.6518 41.5443 11.6585 41.082 11.6716C40.9694 11.6716 40.8999 11.6831 40.8736 11.7062C40.8471 11.7295 40.8339 11.7872 40.8339 11.8795V12.7508C40.8339 13.5495 40.8504 14.1931 40.8836 14.6813C40.8901 14.8003 40.9828 14.8598 41.161 14.8598C41.2138 14.8598 41.2932 14.8513 41.399 14.8349C41.5312 14.8185 41.6139 14.8103 41.6471 14.8103C41.6273 14.8695 41.6172 14.9187 41.6172 14.9582C41.6172 14.9913 41.6273 15.0436 41.6471 15.1162C41.2504 15.0898 40.8339 15.0767 40.3978 15.0767C40.0076 15.0767 39.5484 15.0898 39.0196 15.1162C39.026 15.0834 39.0296 15.0372 39.0296 14.978C39.0296 14.9123 39.026 14.8564 39.0196 14.8103C39.0394 14.8103 39.1087 14.8185 39.2279 14.8349C39.3467 14.8513 39.4358 14.8598 39.4956 14.8598C39.6671 14.8598 39.7567 14.8103 39.7632 14.7116C39.7961 14.0864 39.8126 13.0372 39.8126 11.5631C39.8126 10.2536 39.7961 9.27336 39.7632 8.62183C39.7567 8.47721 39.6805 8.40465 39.5352 8.40465C39.4956 8.40465 39.4144 8.41311 39.2923 8.42926C39.17 8.44593 39.0754 8.45388 39.0098 8.45388C39.0296 8.3949 39.0394 8.34542 39.0394 8.30593C39.0394 8.26644 39.0296 8.21388 39.0098 8.14798C39.5252 8.17439 39.9878 8.18747 40.3978 8.18747C40.8406 8.18747 41.2569 8.17439 41.6471 8.14798C41.6273 8.22054 41.6172 8.27311 41.6172 8.30593C41.6172 8.34542 41.6273 8.3949 41.6471 8.45388C41.594 8.45388 41.5064 8.44593 41.3844 8.42926C41.262 8.41311 41.1775 8.40465 41.1314 8.40465C40.9728 8.40465 40.8901 8.47054 40.8836 8.60208C40.844 9.13516 40.8241 9.66157 40.8241 10.1813C40.8241 10.4444 40.8303 10.7241 40.844 11.0203C40.8504 11.1716 40.8671 11.2636 40.8934 11.2967C40.9199 11.3295 40.9792 11.3493 41.0719 11.3557C41.5809 11.3754 41.9544 11.3854 42.1924 11.3854C42.6287 11.3854 42.9986 11.379 43.3028 11.3657C43.4153 11.359 43.4844 11.3429 43.5109 11.3162C43.5372 11.2898 43.5506 11.2203 43.5506 11.108V10.2764C43.5506 9.60285 43.5341 9.04516 43.5011 8.6026C43.4944 8.4708 43.412 8.40465 43.2533 8.40465C43.2067 8.40465 43.1274 8.41311 43.0153 8.42926C42.8829 8.44593 42.7938 8.45388 42.7474 8.45388C42.7608 8.3949 42.7673 8.34542 42.7673 8.30593C42.7673 8.27977 42.7608 8.22695 42.7474 8.14798C43.3489 8.17439 43.8017 8.18747 44.1059 8.18747C44.4894 8.18747 44.9121 8.17439 45.375 8.14798C45.3551 8.22695 45.3454 8.28311 45.3454 8.31593C45.3454 8.35542 45.3551 8.40131 45.375 8.45388C45.3353 8.45388 45.2542 8.44593 45.1321 8.42926C45.0097 8.41311 44.9252 8.40465 44.8791 8.40465C44.7071 8.40465 44.6182 8.46721 44.6115 8.59208C44.585 9.11875 44.5719 10.1121 44.5719 11.5729C44.5719 13.0731 44.585 14.1029 44.6115 14.6621C44.6182 14.7939 44.7009 14.8598 44.8593 14.8598C44.9057 14.8598 44.9896 14.8513 45.112 14.8349C45.2343 14.8185 45.3219 14.8103 45.375 14.8103C45.3551 14.8893 45.3454 14.9485 45.3454 14.988C45.3454 15.0275 45.3551 15.0703 45.375 15.1162Z" fill="#2C2628"></path>
<path fill-rule="evenodd" clip-rule="evenodd" d="M51.3543 12.6979C51.2814 13.3362 51.2453 13.9254 51.2453 14.4649C51.2453 14.7082 51.2551 14.9254 51.2747 15.1162C50.5216 15.09 49.7017 15.0767 48.8161 15.0767C47.9368 15.0767 46.9884 15.09 45.9707 15.1162C45.9905 15.0569 46.0003 15.0074 46.0003 14.9682C46.0003 14.9287 45.9905 14.8762 45.9707 14.8103C46.0364 14.8103 46.1356 14.82 46.2679 14.84C46.3802 14.8531 46.4562 14.8597 46.4962 14.8597C46.6414 14.8597 46.7174 14.7805 46.7239 14.6228C46.7571 13.9121 46.7736 12.889 46.7736 11.5531C46.7736 10.2174 46.7571 9.23359 46.7239 8.60205C46.7174 8.47051 46.6314 8.40462 46.4663 8.40462C46.4202 8.40462 46.3375 8.41308 46.2185 8.42923C46.0997 8.4459 46.0168 8.45385 45.9707 8.45385C45.9905 8.3818 46.0003 8.33231 46.0003 8.30615C46.0003 8.28615 45.9905 8.23359 45.9707 8.14795C46.4861 8.17436 47.0577 8.18744 47.6859 8.18744C48.0689 8.18744 48.6114 8.18103 49.312 8.16795C50.145 8.15487 50.7034 8.14795 50.9872 8.14795C50.9543 8.35872 50.9378 8.62205 50.9378 8.93769C50.9378 9.4641 50.9677 9.93436 51.0272 10.349C50.9677 10.3426 50.928 10.3392 50.9082 10.3392C50.8484 10.3392 50.799 10.3459 50.7593 10.359C50.7462 10.2077 50.716 9.99051 50.6702 9.70744C50.5841 9.28641 50.4322 8.98385 50.214 8.79949C49.9629 8.58231 49.5629 8.46385 49.0145 8.44436C48.598 8.41795 48.3502 8.40462 48.2709 8.40462C48.0197 8.40462 47.8809 8.44769 47.8544 8.53359C47.8477 8.56026 47.841 8.61333 47.8345 8.69256C47.7817 9.54051 47.7552 10.3554 47.7552 11.1367C47.7552 11.2823 47.7683 11.37 47.7949 11.3997C47.8211 11.4297 47.8907 11.4446 48.0032 11.4446C48.4128 11.4446 48.7072 11.4018 48.8857 11.3162C49.1237 11.1977 49.2656 10.9677 49.312 10.6254C49.3382 10.4346 49.3516 10.201 49.3516 9.92462C49.4044 9.93128 49.4603 9.93436 49.5201 9.93436C49.5662 9.93436 49.6095 9.93128 49.6489 9.92462C49.5894 10.6026 49.5595 11.1946 49.5595 11.7013C49.5595 12.2213 49.5894 12.7408 49.6489 13.2605C49.6159 13.2541 49.5729 13.2508 49.5201 13.2508C49.4603 13.2508 49.4044 13.2541 49.3516 13.2605C49.3516 12.8921 49.3449 12.6356 49.3316 12.4908C49.2986 12.1487 49.1567 11.9182 48.9053 11.8C48.727 11.721 48.4262 11.6815 48.0032 11.6815C47.884 11.6815 47.8129 11.6964 47.79 11.7262C47.7665 11.7562 47.7552 11.8405 47.7552 11.9795C47.7552 12.039 47.7585 12.2377 47.765 12.5754C47.7784 13.37 47.8013 14.0254 47.8345 14.5415C47.841 14.6874 47.8873 14.7769 47.9734 14.8097C48.0591 14.8431 48.3007 14.8597 48.6974 14.8597C49.4441 14.8597 49.9497 14.7867 50.214 14.6403C50.5841 14.4346 50.8453 13.9864 50.9973 13.2956C51.037 13.1164 51.0599 12.9205 51.0668 12.7079C51.0998 12.7146 51.1428 12.7179 51.1956 12.7179C51.2417 12.7179 51.2951 12.7113 51.3543 12.6979Z" fill="#2C2628"></path>
<path fill-rule="evenodd" clip-rule="evenodd" d="M42.0749 28.0003C42.0352 28.0003 41.9724 27.9939 41.8866 27.9806C41.8006 27.9675 41.7442 27.9611 41.7181 27.9611C41.6254 27.9611 41.5525 28.0103 41.4997 28.1088C41.3544 28.3919 41.1991 28.7603 41.034 29.2142C40.7033 30.129 40.0921 31.9975 39.1996 34.8206H39.0806H38.9616C38.6906 33.8006 38.2146 32.2872 37.5341 30.2803C37.4944 30.129 37.4447 29.9678 37.3852 29.7967C37.3721 29.777 37.3587 29.7603 37.3455 29.7472C37.3193 29.7472 37.286 29.8098 37.2464 29.9349C36.8167 31.218 36.2913 32.8465 35.67 34.8206H35.551H35.432C35.1281 33.6757 34.4012 31.4449 33.2509 28.1285C33.2112 28.0167 33.1185 27.9611 32.9732 27.9611C32.9268 27.9611 32.8542 27.9675 32.755 27.9806C32.6559 27.9939 32.5832 28.0003 32.5371 28.0003C32.5567 27.9478 32.5667 27.9016 32.5667 27.8621C32.5667 27.8293 32.5567 27.7767 32.5371 27.7042C33.0129 27.7306 33.4755 27.7436 33.9249 27.7436C34.4141 27.7436 34.8337 27.7306 35.1842 27.7042C35.1644 27.7703 35.1543 27.8195 35.1543 27.8524C35.1543 27.8916 35.1644 27.9411 35.1842 28.0003C34.7677 27.9739 34.5761 27.9611 34.609 27.9611C34.4967 27.9611 34.4406 28.0003 34.4406 28.0793C34.4406 28.086 34.447 28.1154 34.4604 28.168C34.7381 29.2603 35.1876 30.6883 35.8088 32.4513C35.8683 32.6226 35.898 32.7908 35.898 32.9549C35.898 32.988 35.9111 33.0044 35.9376 33.0044C35.9639 33.0044 36.0136 32.8826 36.0862 32.639C36.3639 31.7772 36.7011 30.728 37.0977 29.4906C37.1307 29.3854 37.1472 29.3031 37.1472 29.2442C37.1472 29.1652 37.1374 29.0957 37.1176 29.0367C37.0447 28.8393 36.9357 28.5367 36.7902 28.1285C36.7508 28.0167 36.6581 27.9611 36.5128 27.9611C36.4664 27.9611 36.3871 27.9675 36.2748 27.9806C36.1622 27.9939 36.0829 28.0003 36.0368 28.0003C36.0499 27.9675 36.0566 27.9213 36.0566 27.8621C36.0566 27.8029 36.0499 27.7503 36.0368 27.7042C36.5128 27.7306 36.9687 27.7436 37.405 27.7436C37.9207 27.7436 38.3534 27.7306 38.704 27.7042C38.6839 27.7703 38.6741 27.8195 38.6741 27.8524C38.6741 27.8916 38.6839 27.9411 38.704 28.0003C38.2875 27.9739 38.0992 27.9611 38.1389 27.9611C38.0263 27.9611 37.9702 28.0003 37.9702 28.0793C37.9702 28.086 37.9769 28.1154 37.99 28.168C38.2939 29.379 38.737 30.8067 39.3188 32.4513C39.3915 32.6557 39.4278 32.8234 39.4278 32.9549C39.4278 33.0011 39.4409 33.0242 39.4672 33.0242C39.4873 33.0242 39.5069 33.0011 39.5267 32.9549C39.5468 32.8765 39.5764 32.7713 39.6161 32.6401C39.8605 31.8585 40.2108 30.6993 40.667 29.1626C40.8321 28.5783 40.915 28.2172 40.915 28.079C40.915 28.0003 40.8653 27.9611 40.7661 27.9611C40.7265 27.9611 40.6505 27.9675 40.5382 27.9806C40.4256 27.9939 40.3496 28.0003 40.31 28.0003C40.3167 27.9544 40.32 27.9052 40.32 27.8524C40.32 27.8062 40.3167 27.757 40.31 27.7042C40.6142 27.7306 40.9248 27.7436 41.2421 27.7436C41.5657 27.7436 41.8402 27.7306 42.0648 27.7042C42.0517 27.7634 42.0453 27.8162 42.0453 27.8621C42.0453 27.8952 42.055 27.9411 42.0749 28.0003Z" fill="#2C2628"></path>
<path fill-rule="evenodd" clip-rule="evenodd" d="M43.1951 31.9088C43.1951 31.8891 43.1884 31.8596 43.1755 31.8198C43.024 31.3726 42.8108 30.7244 42.5349 29.8755C42.4955 29.7442 42.4659 29.5762 42.4463 29.3721C42.4463 29.3393 42.4332 29.3229 42.4069 29.3229C42.3871 29.3229 42.3706 29.3557 42.3577 29.4211C42.3247 29.5652 42.1769 30.0668 41.9141 30.9257L41.6385 31.8009C41.6318 31.8206 41.6285 31.8434 41.6285 31.8696C41.6285 31.9285 41.681 31.958 41.7861 31.958C42.0556 31.9714 42.2621 31.978 42.4069 31.978C42.8996 31.978 43.1588 31.965 43.185 31.9383C43.1915 31.9319 43.1951 31.9221 43.1951 31.9088ZM45.8422 34.6821C45.3731 34.656 44.9239 34.6426 44.4943 34.6426C43.9732 34.6426 43.5402 34.656 43.1951 34.6821V34.5539V34.386C43.5616 34.4126 43.7288 34.4255 43.6966 34.4255C43.838 34.4255 43.9088 34.3826 43.9088 34.297C43.9088 34.2644 43.9021 34.2219 43.889 34.1688C43.7767 33.7411 43.5979 33.136 43.3537 32.3526C43.3339 32.2873 43.2844 32.2544 43.2051 32.2544C42.9141 32.2478 42.6598 32.2444 42.4414 32.2444C42.2235 32.2444 41.9855 32.2478 41.7277 32.2544C41.6483 32.2544 41.5955 32.2575 41.569 32.2642C41.5226 32.2839 41.4897 32.3201 41.4698 32.3726C41.3179 32.8729 41.2352 33.1457 41.222 33.1919C41.1229 33.5209 41.0567 33.8006 41.0237 34.0306C41.0103 34.1162 41.0039 34.1791 41.0039 34.2183C41.0039 34.3565 41.0747 34.4255 41.2159 34.4255C41.2609 34.4255 41.3426 34.4193 41.4618 34.4057C41.5806 34.3929 41.6594 34.386 41.698 34.386V34.5339V34.6821C41.4 34.656 41.0768 34.6426 40.7272 34.6426C40.3581 34.6426 40.064 34.656 39.8438 34.6821V34.5439V34.386C40.0933 34.4126 40.2049 34.4255 40.1789 34.4255C40.3494 34.4255 40.5825 34.0103 40.8779 33.1801C41.1996 32.2775 41.8006 30.4193 42.6804 27.6055H42.8084H42.9367C43.2718 28.8624 43.9807 31.0598 45.0643 34.1985C45.1166 34.3501 45.2217 34.4255 45.3793 34.4255C45.4187 34.4255 45.4926 34.4193 45.6008 34.4057C45.7093 34.3929 45.7896 34.386 45.8422 34.386V34.5339V34.6821Z" fill="#2C2628"></path>
<path fill-rule="evenodd" clip-rule="evenodd" d="M49.9764 29.4611C49.9764 28.7242 49.7778 28.2668 49.3811 28.0891C49.2029 28.0104 48.978 27.9706 48.707 27.9706H48.4891C48.3104 27.9706 48.2148 28.0398 48.2014 28.178C48.1816 28.4542 48.1715 28.9745 48.1715 29.7373V30.7047C48.1715 30.777 48.1883 30.8232 48.2212 30.8429C48.2542 30.8627 48.3335 30.8727 48.4592 30.8727C49.054 30.8727 49.4342 30.8001 49.5995 30.6552C49.8507 30.4316 49.9764 30.0334 49.9764 29.4611ZM52.3061 34.6822C52.2466 34.6822 52.0583 34.6919 51.741 34.7119C51.5228 34.7247 51.3477 34.7216 51.2158 34.7019C50.872 34.6493 50.6273 34.4947 50.482 34.238C50.363 34.0275 50.2867 33.6886 50.2538 33.2216L50.2043 32.5109C50.1775 32.1029 50.11 31.7955 50.0011 31.588C49.8921 31.3806 49.7085 31.2475 49.4506 31.1883C49.2853 31.1488 48.945 31.1291 48.4296 31.1291C48.2576 31.1291 48.1715 31.1783 48.1715 31.277C48.1715 32.6655 48.1914 33.6491 48.2313 34.2283C48.2377 34.3532 48.3238 34.4157 48.4891 34.4157C48.5352 34.4157 48.6228 34.4093 48.7516 34.396C48.8806 34.3827 48.9649 34.3763 49.0045 34.3763C48.978 34.4486 48.9649 34.4983 48.9649 34.5242C48.9649 34.5573 48.9746 34.6098 48.9945 34.6822C48.5978 34.656 48.1816 34.6427 47.7455 34.6427C47.3488 34.6427 46.886 34.656 46.3574 34.6822C46.3706 34.6098 46.377 34.5606 46.377 34.5339C46.377 34.508 46.3706 34.4552 46.3574 34.3763C46.3971 34.3763 46.4762 34.3827 46.5952 34.396C46.7144 34.4093 46.7968 34.4157 46.8432 34.4157C47.015 34.4157 47.1044 34.3496 47.1108 34.218C47.1441 33.5327 47.1603 32.498 47.1603 31.1139C47.1603 30.1124 47.134 29.1209 47.0812 28.1388C47.0743 28.0268 46.9918 27.9706 46.8332 27.9706C46.7804 27.9706 46.6943 27.9791 46.5756 27.9952C46.4563 28.0119 46.3837 28.0201 46.3574 28.0201C46.377 27.9545 46.387 27.9083 46.387 27.8819C46.387 27.8688 46.377 27.8127 46.3574 27.7142C46.8728 27.7339 47.3553 27.7437 47.8047 27.7437C48.036 27.7437 48.3387 27.7388 48.7122 27.7288C49.0854 27.7188 49.3219 27.7142 49.421 27.7142C49.9364 27.7142 50.3395 27.8783 50.6306 28.2065C50.8949 28.5091 51.0273 28.9034 51.0273 29.3896C51.0273 30.2239 50.5577 30.7365 49.6191 30.927C49.5599 30.9401 49.5302 30.9532 49.5302 30.9663C49.5302 30.986 49.5599 30.9993 49.6191 31.0057C50.2736 31.0978 50.713 31.3014 50.9379 31.6168C51.1362 31.9057 51.2653 32.4645 51.3245 33.2922C51.3575 33.7324 51.4154 34.0296 51.4981 34.1842C51.5808 34.3386 51.7279 34.4157 51.9393 34.4157C51.9723 34.4157 52.0316 34.4109 52.1176 34.4011C52.2036 34.3911 52.2631 34.386 52.2961 34.386C52.283 34.4452 52.2765 34.4983 52.2765 34.5439C52.2765 34.5704 52.2866 34.6163 52.3061 34.6822Z" fill="#2C2628"></path>
<path fill-rule="evenodd" clip-rule="evenodd" d="M57.957 31.2032C57.957 30.247 57.8316 29.5296 57.5802 29.0514C57.2299 28.3965 56.6086 28.046 55.7166 28.0001C55.4585 27.9873 55.2834 27.9806 55.1909 27.9806C54.9135 27.9806 54.753 28.0004 54.7103 28.0393C54.667 28.0788 54.6423 28.1445 54.6356 28.236C54.5895 28.9434 54.5663 29.9193 54.5663 31.1639C54.5663 32.3557 54.5895 33.3383 54.6356 34.1111C54.6423 34.2552 54.6783 34.3422 54.7448 34.3716C54.8107 34.4011 55.0225 34.4157 55.3792 34.4157C55.703 34.4157 55.9806 34.3993 56.2122 34.3665C57.3754 34.2029 57.957 33.1483 57.957 31.2032ZM59.0378 31.1539C59.0378 31.9686 58.8923 32.6683 58.6015 33.2529C58.1257 34.2124 57.2232 34.6919 55.8949 34.6919C55.6236 34.6919 55.3164 34.6855 54.9727 34.6722C54.6289 34.6593 54.3249 34.6527 54.0604 34.6527C53.5914 34.6527 53.1584 34.6657 52.7617 34.6919C52.7816 34.6173 52.7916 34.5632 52.7916 34.5291C52.7916 34.4814 52.7816 34.4309 52.7617 34.3763C52.8014 34.3763 52.8841 34.3827 53.0098 34.396C53.1154 34.4093 53.1914 34.4157 53.2377 34.4157C53.4162 34.4157 53.5084 34.3532 53.5154 34.2283C53.5484 33.5637 53.5648 32.5337 53.5648 31.1391C53.5648 29.8034 53.5484 28.8163 53.5154 28.178C53.5084 28.0463 53.426 27.9806 53.2673 27.9806C53.2212 27.9806 53.1386 27.9873 53.0196 28.0004C52.9006 28.0137 52.8145 28.0201 52.7617 28.0201C52.7816 27.9675 52.7916 27.9178 52.7916 27.8722C52.7916 27.8391 52.7816 27.7865 52.7617 27.7142C53.1517 27.7339 53.6012 27.7437 54.1101 27.7437C54.4079 27.7437 54.8141 27.737 55.3297 27.7242C55.3826 27.7242 55.4552 27.7224 55.5477 27.7188C55.6404 27.7155 55.7228 27.7142 55.7957 27.7142C56.47 27.7142 57.0251 27.816 57.4614 28.0196C58.5121 28.5124 59.0378 29.557 59.0378 31.1539Z" fill="#2C2628"></path>
<path fill-rule="evenodd" clip-rule="evenodd" d="M63.5389 29.4611C63.5389 28.7242 63.3403 28.2668 62.9436 28.0891C62.7654 28.0104 62.5405 27.9706 62.2695 27.9706H62.0516C61.8729 27.9706 61.7773 28.0398 61.7639 28.178C61.7441 28.4542 61.734 28.9745 61.734 29.7373V30.7047C61.734 30.777 61.7508 30.8232 61.7837 30.8429C61.8167 30.8627 61.896 30.8727 62.0217 30.8727C62.6165 30.8727 62.9967 30.8001 63.162 30.6552C63.4132 30.4316 63.5389 30.0334 63.5389 29.4611ZM65.8686 34.6822C65.8091 34.6822 65.6208 34.6919 65.3035 34.7119C65.0853 34.7247 64.9102 34.7216 64.7783 34.7019C64.4342 34.6493 64.1898 34.4947 64.0445 34.238C63.9252 34.0275 63.8492 33.6886 63.8163 33.2216L63.7668 32.5109C63.74 32.1029 63.6725 31.7955 63.5636 31.588C63.4546 31.3806 63.271 31.2475 63.0132 31.1883C62.8478 31.1488 62.5075 31.1291 61.9921 31.1291C61.8201 31.1291 61.734 31.1783 61.734 31.277C61.734 32.6655 61.7539 33.6491 61.7938 34.2283C61.8002 34.3532 61.8863 34.4157 62.0516 34.4157C62.0977 34.4157 62.1853 34.4093 62.3141 34.396C62.4431 34.3827 62.5274 34.3763 62.567 34.3763C62.5405 34.4486 62.5274 34.4983 62.5274 34.5242C62.5274 34.5573 62.5372 34.6098 62.557 34.6822C62.1603 34.656 61.7441 34.6427 61.308 34.6427C60.9113 34.6427 60.4485 34.656 59.9199 34.6822C59.9328 34.6098 59.9395 34.5606 59.9395 34.5339C59.9395 34.508 59.9328 34.4552 59.9199 34.3763C59.9596 34.3763 60.0387 34.3827 60.1577 34.396C60.2769 34.4093 60.3593 34.4157 60.4057 34.4157C60.5775 34.4157 60.6669 34.3496 60.6733 34.218C60.7066 33.5327 60.7228 32.498 60.7228 31.1139C60.7228 30.1124 60.6965 29.1209 60.6437 28.1388C60.6368 28.0268 60.5543 27.9706 60.3957 27.9706C60.3429 27.9706 60.2568 27.9791 60.1381 27.9952C60.0188 28.0119 59.9462 28.0201 59.9199 28.0201C59.9395 27.9545 59.9495 27.9083 59.9495 27.8819C59.9495 27.8688 59.9395 27.8127 59.9199 27.7142C60.4353 27.7339 60.9178 27.7437 61.3672 27.7437C61.5985 27.7437 61.9012 27.7388 62.2747 27.7288C62.6479 27.7188 62.8844 27.7142 62.9835 27.7142C63.4989 27.7142 63.902 27.8783 64.1931 28.2065C64.4574 28.5091 64.5898 28.9034 64.5898 29.3896C64.5898 30.2239 64.1202 30.7365 63.1816 30.927C63.1224 30.9401 63.0925 30.9532 63.0925 30.9663C63.0925 30.986 63.1224 30.9993 63.1816 31.0057C63.8361 31.0978 64.2755 31.3014 64.5004 31.6168C64.6987 31.9057 64.8278 32.4645 64.887 33.2922C64.92 33.7324 64.9779 34.0296 65.0606 34.1842C65.1433 34.3386 65.2904 34.4157 65.5018 34.4157C65.5348 34.4157 65.5941 34.4109 65.6801 34.4011C65.7661 34.3911 65.8256 34.386 65.8586 34.386C65.8455 34.4452 65.839 34.4983 65.839 34.5439C65.839 34.5704 65.8491 34.6163 65.8686 34.6822Z" fill="#2C2628"></path>
<path fill-rule="evenodd" clip-rule="evenodd" d="M71.1444 31.366C71.1444 30.879 71.1209 30.4283 71.0748 30.0139C71.0089 29.4216 70.8767 28.9544 70.6784 28.6124C70.3742 28.086 69.925 27.8229 69.33 27.8229C68.3383 27.8162 67.7369 28.4511 67.5254 29.7275C67.4528 30.1618 67.4162 30.6388 67.4162 31.1585C67.4162 32.2775 67.5517 33.1065 67.8227 33.646C68.1338 34.2644 68.626 34.5736 69.3004 34.5736C70.0538 34.5736 70.5792 34.1429 70.8767 33.2806C71.0552 32.7608 71.1444 32.1226 71.1444 31.366ZM72.2349 31.0601C72.2349 32.047 72.0235 32.876 71.6005 33.5472C71.0849 34.3829 70.3147 34.8006 69.2903 34.8006C68.2987 34.8006 67.5388 34.4093 67.0098 33.6259C66.5603 32.9747 66.3359 32.1721 66.3359 31.218C66.3359 30.2177 66.5569 29.3952 67 28.7506C67.5221 27.9872 68.2889 27.6054 69.3004 27.6054C70.272 27.6054 71.022 27.9675 71.5508 28.6911C72.007 29.3165 72.2349 30.106 72.2349 31.0601Z" fill="#2C2628"></path>
<path fill-rule="evenodd" clip-rule="evenodd" d="M77.4889 32.7329C77.4889 32.1426 77.3733 31.7226 77.1417 31.4731C76.8973 31.198 76.4676 31.06 75.8528 31.06C75.6279 31.06 75.3902 31.0631 75.1391 31.0698C75.0201 31.0698 74.9608 31.1157 74.9608 31.2075C74.9608 32.3229 74.9835 33.2772 75.0298 34.0716C75.0432 34.2485 75.1123 34.357 75.2385 34.3959C75.2843 34.4093 75.4265 34.4157 75.6645 34.4157C76.3654 34.4157 76.8308 34.3272 77.0626 34.1498C77.3465 33.927 77.4889 33.4544 77.4889 32.7329ZM76.9931 29.5347C76.9931 28.9185 76.8924 28.5036 76.6907 28.2906C76.489 28.0772 76.0676 27.9706 75.4265 27.9706C75.1687 27.9706 75.0365 28.0234 75.0298 28.1285C74.9835 28.8131 74.9608 29.5795 74.9608 30.4282C74.9608 30.5929 74.9706 30.6947 74.9904 30.7344C75.0103 30.7736 75.0564 30.7936 75.1293 30.7936H75.7341C76.1964 30.7936 76.5006 30.7377 76.6461 30.6262C76.8774 30.4493 76.9931 30.0857 76.9931 29.5347ZM78.5893 32.7526C78.5893 34.0454 77.8557 34.6921 76.3885 34.6921C76.1305 34.6921 75.7969 34.6854 75.3868 34.6721C74.9768 34.6593 74.6468 34.6526 74.3954 34.6526C73.9725 34.6526 73.5627 34.6657 73.166 34.6921C73.1858 34.6106 73.1959 34.5559 73.1959 34.529C73.1959 34.4949 73.1892 34.4444 73.1761 34.3762C73.2353 34.3762 73.3311 34.3829 73.4635 34.3959C73.5761 34.4093 73.6521 34.4157 73.6915 34.4157C73.8367 34.4157 73.9127 34.3464 73.9197 34.2082C73.9527 33.5164 73.9691 32.4849 73.9691 31.1141C73.9691 29.7764 73.9527 28.7911 73.9197 28.1585C73.9127 28.0334 73.8267 27.9706 73.6618 27.9706C73.6155 27.9706 73.5359 27.979 73.4238 27.9952C73.2915 28.0118 73.2057 28.02 73.166 28.02C73.1858 27.9477 73.1959 27.9016 73.1959 27.8818C73.1959 27.8557 73.1858 27.7998 73.166 27.7141C73.6817 27.7339 74.1541 27.7436 74.584 27.7436C74.7756 27.7436 75.0548 27.7388 75.4216 27.7288C75.7884 27.7188 76.0676 27.7141 76.2595 27.7141C77.4755 27.7141 78.0837 28.247 78.0837 29.3129C78.0837 29.7472 77.9649 30.1093 77.7269 30.3985C77.4755 30.7082 77.1353 30.8662 76.7056 30.8726C76.6526 30.8726 76.6263 30.8854 76.6263 30.9116C76.6263 30.9316 76.6461 30.9413 76.6858 30.9413C77.9549 30.9413 78.5893 31.5452 78.5893 32.7526Z" fill="#2C2628"></path>
<path fill-rule="evenodd" clip-rule="evenodd" d="M84.7564 32.2641C84.6837 32.9023 84.6474 33.4913 84.6474 34.0308C84.6474 34.2744 84.6575 34.4916 84.677 34.6823C83.9236 34.6559 83.104 34.6426 82.2182 34.6426C81.3391 34.6426 80.3907 34.6559 79.373 34.6823C79.3929 34.6229 79.4027 34.5736 79.4027 34.5341C79.4027 34.4947 79.3929 34.4421 79.373 34.3762C79.4387 34.3762 79.5379 34.3859 79.6703 34.4059C79.7826 34.4193 79.8586 34.4257 79.8985 34.4257C80.0435 34.4257 80.1198 34.3465 80.1262 34.1888C80.1594 33.478 80.1759 32.4549 80.1759 31.119C80.1759 29.7834 80.1594 28.7995 80.1262 28.168C80.1198 28.0367 80.0337 27.9706 79.8686 27.9706C79.8225 27.9706 79.7398 27.979 79.6208 27.9954C79.5018 28.0118 79.4192 28.02 79.373 28.02C79.3929 27.9477 79.4027 27.8985 79.4027 27.8721C79.4027 27.8523 79.3929 27.7998 79.373 27.7141C79.8885 27.7403 80.46 27.7536 81.0882 27.7536C81.4713 27.7536 82.0137 27.7472 82.7141 27.7339C83.5471 27.7208 84.1057 27.7141 84.3896 27.7141C84.3564 27.9247 84.3401 28.188 84.3401 28.5036C84.3401 29.0303 84.37 29.5006 84.4295 29.9152C84.37 29.9085 84.3303 29.9054 84.3105 29.9054C84.2508 29.9054 84.2013 29.9118 84.1616 29.9249C84.1485 29.7736 84.1184 29.5564 84.0725 29.2736C83.9865 28.8523 83.8345 28.55 83.6163 28.3657C83.3652 28.1485 82.9652 28.0298 82.4168 28.0103C82.0003 27.9841 81.7525 27.9706 81.6729 27.9706C81.4221 27.9706 81.2832 28.0139 81.2567 28.0998C81.25 28.1264 81.2433 28.1793 81.2369 28.2588C81.1841 29.1067 81.1575 29.9213 81.1575 30.7026C81.1575 30.8485 81.1707 30.9359 81.1972 30.9659C81.2235 30.9959 81.293 31.0106 81.4053 31.0106C81.8151 31.0106 82.1095 30.9677 82.2878 30.8821C82.526 30.7639 82.668 30.5336 82.7141 30.1913C82.7406 30.0006 82.754 29.7672 82.754 29.4908C82.8068 29.4972 82.8627 29.5006 82.9224 29.5006C82.9685 29.5006 83.0118 29.4972 83.0512 29.4908C82.9917 30.1685 82.9618 30.7608 82.9618 31.2672C82.9618 31.7872 82.9917 32.307 83.0512 32.8265C83.018 32.8203 82.9752 32.8167 82.9224 32.8167C82.8627 32.8167 82.8068 32.8203 82.754 32.8265C82.754 32.4582 82.747 32.2018 82.7339 32.0567C82.7009 31.7147 82.5587 31.4844 82.3076 31.3659C82.1291 31.287 81.8285 31.2475 81.4053 31.2475C81.2863 31.2475 81.2152 31.2623 81.1923 31.2921C81.1689 31.3221 81.1575 31.4065 81.1575 31.5454C81.1575 31.6052 81.1609 31.8036 81.1673 32.1413C81.1807 32.9359 81.2036 33.5913 81.2369 34.1075C81.2433 34.2536 81.2897 34.3429 81.3757 34.3759C81.4615 34.409 81.7028 34.4257 82.0997 34.4257C82.8465 34.4257 83.3521 34.3529 83.6163 34.2065C83.9865 34.0006 84.2474 33.5523 84.3996 32.8616C84.4393 32.6823 84.4622 32.4865 84.4692 32.2739C84.5022 32.2806 84.5449 32.2839 84.598 32.2839C84.6441 32.2839 84.6974 32.2775 84.7564 32.2641Z" fill="#2C2628"></path>
<path fill-rule="evenodd" clip-rule="evenodd" d="M64.4072 18.5437C64.359 18.6152 64.3289 18.705 64.3173 18.8121C64.1792 18.7944 64.0744 18.7855 64.0025 18.7855C63.7627 18.7855 63.6126 18.8601 63.5531 19.0091C63.0495 20.3101 62.5338 22.1152 62.0063 24.4244C61.9762 24.5619 62.0452 24.6303 62.2132 24.6303C62.3208 24.6303 62.48 24.6183 62.6897 24.5947C62.6418 24.658 62.6147 24.7473 62.6088 24.8632C61.9852 24.8211 61.212 24.8211 60.2891 24.8632C60.3068 24.8211 60.3341 24.7319 60.3699 24.5947C60.49 24.6124 60.5889 24.6211 60.6669 24.6211C60.8763 24.6211 60.9995 24.5644 61.0353 24.4514C61.2331 23.8665 61.5298 22.9085 61.9254 21.578C62.3929 19.9967 62.6268 19.1075 62.6268 18.9106C62.6268 18.8214 62.555 18.7762 62.411 18.7762C62.3448 18.7762 62.1951 18.7885 61.9615 18.8121C61.9852 18.7647 62.0153 18.675 62.0514 18.5437C62.9323 18.5855 63.7177 18.5855 64.4072 18.5437Z" fill="#2C2628"></path>
<path fill-rule="evenodd" clip-rule="evenodd" d="M70.4538 18.5437C70.3997 18.6511 70.3729 18.7406 70.3729 18.8121C70.3489 18.8121 70.3008 18.8062 70.2289 18.7944C70.1573 18.7824 70.1032 18.7762 70.0672 18.7762C69.9232 18.7762 69.8271 18.8301 69.7794 18.9375C69.5394 19.4806 69.2609 20.3042 68.9434 21.408C68.5655 22.7029 68.2175 23.9262 67.9002 25.0778H67.7114C67.6933 24.857 67.6514 24.6244 67.5854 24.3798C67.1898 22.906 66.959 22.0555 66.8931 21.8285C66.5935 20.7667 66.3357 19.9132 66.1198 19.2688C66.1136 19.2211 66.1018 19.1432 66.0838 19.036C66.0781 19.018 66.066 19.0091 66.0479 19.0091C66.0358 19.0091 66.024 19.045 66.0119 19.1165C65.9941 19.2121 65.9848 19.2629 65.9848 19.2688L65.1758 22.0703C64.7923 23.3891 64.6001 24.1947 64.6001 24.4873V24.496C64.6001 24.5796 64.6993 24.6211 64.8971 24.6211C64.9329 24.6211 64.9929 24.6167 65.0769 24.6078C65.1606 24.5988 65.2265 24.5947 65.2747 24.5947C65.2209 24.678 65.1936 24.7675 65.1936 24.8632C64.9301 24.8452 64.6122 24.836 64.2405 24.836C63.9289 24.836 63.6352 24.8452 63.3594 24.8632C63.4135 24.7534 63.4403 24.6639 63.4403 24.5947C63.4825 24.5947 63.5407 24.6003 63.6157 24.6124C63.6906 24.6244 63.746 24.6303 63.7821 24.6303C63.9618 24.6303 64.0667 24.5796 64.0966 24.4783C64.4564 23.3801 64.867 22.0319 65.3288 20.4321C65.5864 19.5432 65.7154 19.0419 65.7154 18.9285C65.7154 18.827 65.6402 18.7762 65.4903 18.7762C65.4545 18.7762 65.4007 18.7824 65.3288 18.7944C65.2327 18.8003 65.1637 18.8062 65.1217 18.8121C65.1696 18.7226 65.1936 18.6334 65.1936 18.5437C65.4514 18.5796 65.7061 18.5975 65.9581 18.5975C66.1858 18.5975 66.4915 18.5796 66.875 18.5437C67.2047 20.0057 67.6004 21.4167 68.0622 22.7775C68.0918 22.8611 68.107 22.9565 68.107 23.0639C68.107 23.0878 68.1191 23.1026 68.1428 23.1085C68.1549 23.1085 68.2149 22.9267 68.3229 22.5626C68.7303 21.1783 69.0361 19.9996 69.2398 19.027C69.2517 18.9675 69.2576 18.9344 69.2576 18.9285C69.2576 18.827 69.1739 18.7762 69.0059 18.7762C68.9642 18.7762 68.8967 18.7824 68.804 18.7944C68.7108 18.8062 68.6433 18.8121 68.6016 18.8121C68.6492 18.7226 68.6734 18.6334 68.6734 18.5437C68.8772 18.5796 69.153 18.5975 69.5008 18.5975C69.8601 18.5975 70.1782 18.5796 70.4538 18.5437Z" fill="#2C2628"></path>
<mask id="mask0_39_457" style="mask-type:luminance" maskUnits="userSpaceOnUse" x="0" y="0" width="85" height="40">
<path fill-rule="evenodd" clip-rule="evenodd" d="M0 39.9092H84.7563V0H0V39.9092Z" fill="white"></path>
</mask>
<g mask="url(#mask0_39_457)">
<path fill-rule="evenodd" clip-rule="evenodd" d="M3.07762 36.3623H26.4544V4.06873H3.07762V36.3623ZM2.68945 36.7541H26.8426V3.67642H2.68945V36.7541Z" fill="#2C2628"></path>
<path fill-rule="evenodd" clip-rule="evenodd" d="M14.8608 19.7969C14.8217 19.6864 14.7305 19.6315 14.587 19.6315C14.5415 19.6315 14.4634 19.6379 14.3526 19.651C14.2414 19.6638 14.1633 19.6703 14.1177 19.6703C14.1306 19.6379 14.1371 19.5926 14.1371 19.5344C14.1371 19.4756 14.1306 19.4238 14.1177 19.3787C14.3866 19.3931 14.6473 19.4028 14.9039 19.409C14.6275 18.4133 14.1845 17.0156 13.5709 15.2062C13.5315 15.0569 13.4826 14.8985 13.4241 14.729C13.411 14.7097 13.3981 14.6936 13.3852 14.6805C13.3589 14.6805 13.3262 14.7426 13.2873 14.8656C12.884 16.0705 12.3935 17.5882 11.8184 19.411C11.8895 19.4118 11.9652 19.4174 12.0352 19.4174C12.5174 19.4174 12.9316 19.4046 13.277 19.3787C13.2574 19.4433 13.2474 19.4921 13.2474 19.5244C13.2474 19.5636 13.2574 19.6121 13.277 19.6703C12.8664 19.6444 12.6771 19.6315 12.7101 19.6315C12.5988 19.6315 12.5437 19.6703 12.5437 19.7485C12.5437 19.7549 12.5499 19.7841 12.5635 19.8356C12.8371 20.9131 13.2801 22.321 13.8929 24.06C13.9519 24.2287 13.9807 24.3938 13.9807 24.5567C13.9807 24.5887 13.9938 24.6046 14.0201 24.6046C14.0461 24.6046 14.0946 24.4844 14.1669 24.2446C14.4405 23.3949 14.7728 22.3603 15.1638 21.1397C15.1965 21.0364 15.2127 20.9551 15.2127 20.8967C15.2127 20.819 15.2029 20.7508 15.1836 20.6923C15.1115 20.4977 15.0041 20.1995 14.8608 19.7969Z" fill="#2C2628"></path>
<path fill-rule="evenodd" clip-rule="evenodd" d="M18.782 19.6315C18.7426 19.6315 18.6679 19.638 18.5572 19.651C18.4461 19.6638 18.3712 19.6703 18.3323 19.6703C18.3382 19.6277 18.3411 19.5818 18.3418 19.5331C18.2424 19.5372 18.1427 19.5415 18.0384 19.5469C18.058 19.4754 18.0678 19.43 18.0678 19.4105C18.0678 19.3846 18.058 19.3297 18.0384 19.2451C18.084 19.2451 18.1672 19.2531 18.288 19.2692C18.4085 19.2859 18.4917 19.2936 18.5371 19.2936C18.6937 19.2936 18.7748 19.2321 18.7815 19.1087C18.814 18.4536 18.8304 17.4218 18.8304 16.0138C18.8304 14.6515 18.814 13.6751 18.7815 13.0844C18.7748 12.9808 18.6937 12.9285 18.5371 12.9285C18.4848 12.9285 18.4036 12.9354 18.2929 12.948C18.1623 12.9674 18.0773 12.9774 18.0384 12.9774C18.0407 12.9695 18.0415 12.9649 18.0433 12.9577C18.0041 12.9569 17.9452 12.9508 17.8638 12.9387C17.7785 12.9254 17.7231 12.919 17.6971 12.919C17.6062 12.919 17.5343 12.9674 17.482 13.0649C17.3386 13.3441 17.1853 13.7074 17.0228 14.1551C16.7073 15.0274 16.1323 16.7826 15.2988 19.4149C15.3542 19.4154 15.4124 19.4174 15.4675 19.4174C15.976 19.4174 16.4025 19.4046 16.7482 19.3787C16.7289 19.4433 16.7191 19.4921 16.7191 19.5244C16.7191 19.5636 16.7289 19.6121 16.7482 19.6703C16.3379 19.6444 16.1522 19.6315 16.1911 19.6315C16.0803 19.6315 16.0249 19.6703 16.0249 19.7485C16.0249 19.7549 16.0316 19.7841 16.0443 19.8356C16.3443 21.03 16.7807 22.4374 17.3545 24.06C17.4261 24.261 17.4619 24.4267 17.4619 24.5567C17.4619 24.6018 17.4753 24.6244 17.5011 24.6244C17.5209 24.6244 17.5405 24.6018 17.5598 24.5567C17.5797 24.4785 17.6088 24.3754 17.6479 24.2454C17.889 23.4749 18.2344 22.3321 18.6844 20.8167C18.8469 20.24 18.9286 19.8838 18.9286 19.748C18.9286 19.6703 18.8794 19.6315 18.782 19.6315Z" fill="#2C2628"></path>
<path fill-rule="evenodd" clip-rule="evenodd" d="M20.6402 12.9775C20.5812 12.9775 20.49 12.9696 20.3664 12.9532C20.2422 12.937 20.1577 12.9285 20.1121 12.9285C19.9687 12.9285 19.8937 12.9808 19.8873 13.0847C19.835 13.9944 19.8087 15.0311 19.8087 16.1942C19.8087 17.2988 19.835 18.2737 19.8873 19.1185C19.8937 19.2355 19.9751 19.2937 20.1315 19.2937C20.1771 19.2937 20.2621 19.286 20.3857 19.2693C20.5098 19.2532 20.5943 19.245 20.6402 19.245C20.6332 19.2908 20.6301 19.3457 20.6301 19.4106C20.6301 19.4626 20.6332 19.508 20.6402 19.547C20.4467 19.5339 20.2487 19.5247 20.0462 19.5183C20.0457 19.5232 20.0439 19.5296 20.0439 19.5344C20.0439 19.5667 20.0539 19.6121 20.0733 19.6703C20.0341 19.6703 19.9723 19.6639 19.8878 19.6508C19.8028 19.638 19.7474 19.6316 19.7211 19.6316C19.6302 19.6316 19.5584 19.6801 19.5063 19.7775C19.3629 20.0562 19.2096 20.4196 19.0468 20.8675C18.7207 21.7696 18.118 23.6121 17.2381 26.3955H17.1207H17.0037C16.7361 25.3898 16.2668 23.8978 15.5961 21.9188C15.5564 21.7696 15.5075 21.6103 15.4493 21.4419C15.4356 21.4224 15.423 21.4062 15.4098 21.3932C15.3838 21.3932 15.3511 21.4552 15.3122 21.578C14.8885 22.8429 14.37 24.4493 13.7578 26.3955H13.6406H13.5231C13.2233 25.267 12.5059 23.0675 11.3723 19.797C11.3332 19.6865 11.2418 19.6316 11.0985 19.6316C11.0529 19.6316 10.9811 19.638 10.8835 19.6508C10.7856 19.6639 10.7137 19.6703 10.6684 19.6703C10.6874 19.6185 10.6975 19.5732 10.6975 19.5344C10.6975 19.5016 10.6874 19.4498 10.6684 19.3785C10.9265 19.3929 11.1712 19.3934 11.4218 19.3996C11.0859 18.2057 10.3954 16.1021 9.34883 13.0844C9.30993 12.9742 9.21849 12.9188 9.07528 12.9188C9.02969 12.9188 8.95783 12.9252 8.86021 12.9388C8.76207 12.9516 8.69046 12.958 8.64513 12.958C8.66445 12.906 8.67424 12.8606 8.67424 12.8219C8.67424 12.7896 8.66445 12.7375 8.64513 12.666C9.11418 12.6919 9.57034 12.705 10.0136 12.705C10.4958 12.705 10.91 12.6919 11.2554 12.666C11.2356 12.7308 11.2258 12.7798 11.2258 12.8121C11.2258 12.8508 11.2356 12.8996 11.2554 12.958C10.8446 12.9321 10.6555 12.9188 10.6882 12.9188C10.5775 12.9188 10.5218 12.958 10.5218 13.036C10.5218 13.0424 10.5285 13.0714 10.5417 13.1232C10.8152 14.2003 11.2585 15.6083 11.8715 17.3473C11.93 17.5162 11.9594 17.6816 11.9594 17.8437C11.9594 17.8762 11.9722 17.8924 11.9983 17.8924C12.0243 17.8924 12.0729 17.7724 12.1451 17.5324C12.4189 16.6821 12.7511 15.6478 13.1421 14.4278C13.1746 14.3237 13.1911 14.2424 13.1911 14.1842C13.1911 14.1065 13.1813 14.0385 13.1617 13.9798C13.0899 13.7852 12.9824 13.487 12.839 13.0844C12.8001 12.9742 12.7086 12.9188 12.5654 12.9188C12.5198 12.9188 12.4415 12.9252 12.3308 12.9388C12.22 12.9516 12.1415 12.958 12.0961 12.958C12.109 12.9252 12.1154 12.8801 12.1154 12.8219C12.1154 12.7637 12.109 12.7114 12.0961 12.666C12.5654 12.6919 13.0152 12.705 13.4451 12.705C13.9538 12.705 14.3803 12.6919 14.726 12.666C14.7064 12.7308 14.6966 12.7798 14.6966 12.8121C14.6966 12.8508 14.7064 12.8996 14.726 12.958C14.3157 12.9321 14.1297 12.9188 14.1688 12.9188C14.0581 12.9188 14.0024 12.958 14.0024 13.036C14.0024 13.0424 14.0091 13.0714 14.0218 13.1232C14.3218 14.3173 14.7584 15.7252 15.3323 17.3473C15.4039 17.5485 15.4397 17.7139 15.4397 17.8437C15.4397 17.8893 15.4529 17.9119 15.4786 17.9119C15.4984 17.9119 15.518 17.8893 15.5373 17.8439C15.5572 17.7662 15.5863 17.6626 15.6254 17.5329C15.8665 16.7624 16.2122 15.6193 16.6619 14.1042C16.8247 13.5278 16.9061 13.1719 16.9061 13.0355C16.9061 12.958 16.8572 12.9188 16.7598 12.9188C16.7204 12.9188 16.6457 12.9252 16.5349 12.9388C16.4237 12.9516 16.349 12.958 16.3101 12.958C16.3163 12.9129 16.3199 12.8639 16.3199 12.8121C16.3199 12.7667 16.3163 12.7178 16.3101 12.666C16.6096 12.6919 16.9161 12.705 17.2288 12.705C17.5482 12.705 17.8184 12.6919 18.0402 12.666C18.0271 12.7242 18.0209 12.7765 18.0209 12.8219C18.0209 12.8514 18.0314 12.8942 18.0472 12.9452C18.0606 12.8934 18.0688 12.8526 18.0688 12.8316C18.0688 12.8121 18.059 12.7603 18.0392 12.6757C18.5476 12.7016 19.0041 12.7147 19.4079 12.7147C19.845 12.7147 20.2554 12.7016 20.6402 12.6757C20.6332 12.7278 20.6301 12.7798 20.6301 12.8316C20.6301 12.8898 20.6332 12.9388 20.6402 12.9775ZM4.42578 34.8539H25.1089V5.64188H4.42578V34.8539Z" fill="#2C2628"></path>
<path fill-rule="evenodd" clip-rule="evenodd" d="M1.35253 3.62606H28.1798L28.731 2.72863C28.323 2.76658 27.6654 2.81504 26.9553 2.81504C25.4856 2.81504 24.4931 2.60734 24.0053 2.19811C22.9557 1.31683 21.4983 0.745293 19.5503 0.450678C19.3918 0.426319 19.2288 0.414267 19.0665 0.414267C18.0854 0.414267 17.2462 0.843242 16.7149 1.20324L16.5647 1.30504L16.4431 1.17068C16.0305 0.714524 15.4193 0.452985 14.7663 0.452985C14.1131 0.452985 13.5019 0.714524 13.0892 1.17068L12.9679 1.30504L12.8177 1.20324C12.2864 0.843242 11.4469 0.414267 10.4658 0.414267C10.3035 0.414267 10.1408 0.426319 9.98209 0.450678C8.03405 0.745293 6.57668 1.31683 5.52706 2.19811C5.03921 2.60734 4.04677 2.81504 2.57705 2.81504C1.86691 2.81504 1.20932 2.76658 0.801318 2.72863L1.35253 3.62606ZM28.4132 4.04042H1.11917L0 2.21786L0.429894 2.27222C0.439939 2.2735 1.45685 2.40093 2.57705 2.40093C3.92674 2.40093 4.85401 2.22119 5.25892 1.88119C6.36882 0.949396 7.89341 0.347344 9.9195 0.0409341C10.0988 0.0137546 10.2827 -9.15527e-05 10.4658 -9.15527e-05C11.4655 -9.15527e-05 12.3229 0.395806 12.9053 0.76478C13.3901 0.301191 14.0585 0.0386264 14.7663 0.0386264C15.4741 0.0386264 16.1423 0.301191 16.6273 0.76478C17.2094 0.395806 18.0669 -9.15527e-05 19.0665 -9.15527e-05C19.2497 -9.15527e-05 19.4336 0.0137546 19.6131 0.0409341C21.6392 0.347344 23.1635 0.949396 24.2737 1.88119C24.6786 2.22119 25.6059 2.40093 26.9553 2.40093C28.0765 2.40093 29.0924 2.2735 29.1027 2.27222L29.5326 2.2176L28.4132 4.04042Z" fill="#2C2628"></path>
<path fill-rule="evenodd" clip-rule="evenodd" d="M2.91429 39.495H4.70624C4.70702 39.487 4.70753 39.4791 4.70856 39.4714C4.71526 39.4021 4.72118 39.3421 4.71552 39.2657C4.67894 38.7683 5.14155 38.1665 5.56423 37.9809C6.20971 37.6968 6.6324 37.617 6.97188 37.5526C7.05431 37.537 7.13312 37.5221 7.21143 37.505C7.36829 37.4703 7.58311 37.4126 7.77165 37.3537L7.83399 37.3342L7.8958 37.3534C8.04134 37.3985 8.15802 37.4498 8.25255 37.5106C8.98844 37.9826 10.0133 38.2893 11.3862 38.4483C11.4975 38.4611 11.6121 38.4675 11.7262 38.4675C12.4155 38.4675 13.0035 38.2378 13.3755 38.0452L13.4996 37.9809L13.6063 38.0709C13.8888 38.3098 14.3118 38.4468 14.7666 38.4468C15.2215 38.4468 15.6442 38.3098 15.9268 38.0709L16.0334 37.9809L16.1575 38.0452C16.5292 38.2378 17.1175 38.4675 17.8068 38.4675C17.9212 38.4675 18.0355 38.4611 18.1471 38.4483C19.5199 38.2893 20.5448 37.9826 21.2805 37.5106C21.3765 37.4488 21.4963 37.3965 21.6462 37.3509L21.708 37.3319L21.7696 37.3514C21.9605 37.4111 22.1781 37.4701 22.3378 37.505C22.4159 37.5221 22.4949 37.537 22.5771 37.5526C22.9169 37.617 23.3393 37.6968 23.9848 37.9809C24.4074 38.1665 24.8703 38.7683 24.8337 39.2655C24.8281 39.3421 24.834 39.4021 24.8407 39.4714C24.8415 39.4791 24.8422 39.487 24.843 39.495H26.635V36.7539L24.9937 36.7519L2.91429 36.7539V39.495ZM27.0512 39.9093H24.7482C24.581 39.8975 24.476 39.8011 24.4396 39.6439L24.4345 39.6093C24.4327 39.575 24.4296 39.5429 24.4265 39.5116C24.4185 39.4309 24.4103 39.347 24.4185 39.2352C24.4409 38.9306 24.0986 38.4837 23.8166 38.3596C23.2149 38.095 22.8347 38.0232 22.4993 37.9596C22.413 37.9432 22.3303 37.9275 22.2484 37.9096C22.0929 37.8757 21.8953 37.8229 21.7086 37.7662C21.6251 37.795 21.5571 37.8257 21.5061 37.8588C20.7156 38.366 19.6325 38.6934 18.1952 38.8596C18.0677 38.8744 17.9371 38.8819 17.8068 38.8819C17.1044 38.8819 16.5001 38.6716 16.0854 38.4727C15.7362 38.7206 15.264 38.8611 14.7666 38.8611C14.2693 38.8611 13.7969 38.7206 13.4476 38.4727C13.0332 38.6716 12.4286 38.8819 11.7262 38.8819C11.5961 38.8819 11.4655 38.8744 11.338 38.8596C9.90052 38.6934 8.81741 38.366 8.02717 37.8588C7.97746 37.827 7.91203 37.7968 7.83193 37.7691C7.64776 37.8244 7.45355 37.8762 7.3008 37.9096C7.21864 37.9275 7.13621 37.9432 7.04993 37.9596C6.7143 38.0232 6.33438 38.095 5.73243 38.3596C5.45064 38.4837 5.10806 38.9306 5.13047 39.2352C5.13897 39.347 5.13073 39.4309 5.12274 39.5116C5.11965 39.5429 5.11656 39.575 5.1145 39.6093L5.10961 39.6439C5.07329 39.8011 4.96794 39.8975 4.82086 39.9083L2.49805 39.9093V36.3398L4.5553 36.3375H24.9937L27.0512 36.3398V39.9093Z" fill="#2C2628"></path>
</g>
</svg>