<svg class="icon icon-antler-logo" width="23" height="25" viewBox="0 0 23 25" fill="none" xmlns="http://www.w3.org/2000/svg">
    <path d="M22.4115 6.55951C22.3648 6.26596 22.317 5.9724 22.2516 5.68261C21.8225 3.54617 20.7397 1.57737 19.2192 0.0310402C18.4961 0.759475 17.7779 1.48302 17.0601 2.2062C21.1409 5.65292 21.2081 11.4759 18.2142 15.0339C17.221 14.0352 16.2272 13.0335 15.237 12.0333C14.8942 12.378 14.558 12.7159 14.2219 13.0538C17.1153 16.2389 14.4658 20.2581 11.25 20.2622C8.03422 20.2581 5.38466 16.2385 8.27811 13.0538C7.94197 12.7159 7.60582 12.378 7.26296 12.0333C6.27245 13.0331 5.27858 14.0348 4.28584 15.0339C1.29191 11.4759 1.35914 5.65254 5.43993 2.2062C4.7217 1.48302 4.00348 0.759475 3.28039 0.0310402C1.7599 1.57737 0.677517 3.54617 0.248 5.68261C0.183012 5.97203 0.134831 6.26596 0.0881445 6.55951C0.0168072 7.1485 0 7.74576 0 8.33888C0.0168072 8.78842 0.0545301 9.24021 0.117277 9.68599C0.210277 10.2216 0.329421 10.755 0.473963 11.2789C0.910951 12.805 1.69828 14.2246 2.73173 15.4225C3.09215 15.8322 3.48059 16.2175 3.86454 16.6057C6.31092 19.091 8.78569 21.5499 11.2343 24.031H11.2657C13.7143 21.5499 16.1891 19.0906 18.6355 16.6057C19.0194 16.2175 19.4078 15.8322 19.7683 15.4225C20.8017 14.225 21.589 12.805 22.026 11.2789C22.1706 10.755 22.2897 10.2216 22.3827 9.68599C22.4455 9.24059 22.4832 8.78879 22.5 8.33888C22.5 7.74576 22.4832 7.1485 22.4115 6.55951Z" fill="#FCFCF8"></path>
    </svg>