<svg class="outlines-logo" xmlns="http://www.w3.org/2000/svg" width="197" height="30" fill="none"><g clip-path="url(#a)" fill="#000"><path d="M67.069 29.432V9.759h-5.776V.461h22.033V9.76H77.55v19.673H67.069ZM86.454 29.432V.462h10.099v19.672h8.797v9.298H86.454ZM108.479 29.432V.462h10.099v28.97h-10.099ZM152.133 29.432V.462h18.896v7.914h-8.798v2.652h8.798v7.53h-8.798v2.96h8.798v7.914h-18.896ZM173.591 26.542l3.595-7.07c2.601 1.96 5.126 2.767 7.001 2.767 1.453 0 2.333-.385 2.333-1.46 0-.96-1.301-1.268-3.098-1.806-4.092-1.269-8.492-3.343-8.492-9.068 0-5.917 4.782-9.798 11.399-9.798 4.437 0 7.382.923 10.137 2.498l-3.711 7.185c-1.147-.922-3.137-1.921-5.355-1.921-1.071 0-1.989.346-1.989 1.306 0 1.038 1.684 1.422 3.749 2.036 4.208 1.23 7.841 3.458 7.841 8.914 0 5.955-4.781 9.874-11.82 9.874-5.164.001-8.837-1.42-11.59-3.457ZM14.88.107C6.662.107 0 6.798 0 15.054 0 23.308 6.662 30 14.88 30c8.217 0 14.88-6.692 14.88-14.946C29.76 6.798 23.096.107 14.88.107Zm0 20.594c-3.106 0-5.624-2.53-5.624-5.649s2.518-5.648 5.624-5.648c3.105 0 5.623 2.53 5.623 5.649S17.985 20.7 14.88 20.7ZM135.258 0c-7.882 0-13.036 3.842-13.036 12.296v17.137h9.823V12.41c0-1.437.554-2.394 1.428-2.904.409-.302.98-.477 1.785-.477.777 0 1.338.162 1.744.447.905.5 1.47 1.465 1.47 2.934v17.02h9.822V12.297C148.294 3.842 143.14 0 135.258 0ZM45.32 29.893c7.881 0 13.035-3.843 13.035-12.296V.46h-9.822v17.021c0 1.437-.554 2.394-1.428 2.903-.41.303-.98.478-1.785.478-.777 0-1.338-.162-1.744-.447-.905-.5-1.47-1.465-1.47-2.934V.462h-9.822v17.136c-.002 8.453 5.154 12.295 13.036 12.295Z"></path></g><defs><clipPath id="a"><path fill="#fff" d="M0 0h197v30H0z"></path></clipPath></defs></svg>