<svg xmlns="http://www.w3.org/2000/svg" class="logo" width="240" height="36" viewBox="0 0 1400 220" fill="#2d4e66" preserveAspectRatio="xMidYMid meet"><g id="svgLogosvg" transform="translate(0,220) scale(0.1,-0.1)" stroke="none">	<path d="M3579 1960 l-44 -169 -145 -3 -144 -3 -43 -155 c-24 -85 -43 -163 -43 -172 0 -16 13 -18 141 -18 131 0 140 -1 135 -18 -4 -10 -38 -137 -77 -283 -38 -145 -90 -339 -115 -430 -24 -92 -44 -171 -44 -178 0 -8 65 -11 228 -11 l228 0 13 52 c8 29 33 125 57 213 23 88 66 248 94 355 29 107 59 219 67 248 l14 52 144 0 c128 0 144 2 149 18 14 47 86 321 86 326 0 3 -63 6 -140 6 -77 0 -140 4 -140 8 0 8 13 59 55 219 14 51 25 97 25 103 0 6 -82 10 -229 10 l-228 0 -44 -170z"></path>	<path d="M5221 1960 l-45 -170 -302 0 c-180 0 -324 -4 -354 -11 -70 -15 -138 -64 -173 -123 -36 -62 -267 -919 -267 -991 0 -58 21 -100 63 -122 29 -17 79 -18 592 -21 l560 -3 199 743 c110 409 207 771 217 806 l18 62 -232 0 -232 0 -44 -170z m-145 -537 c-3 -10 -17 -63 -31 -118 -15 -55 -47 -173 -71 -262 -24 -89 -44 -165 -44 -168 0 -3 -71 -5 -159 -5 -119 0 -161 3 -169 13 -9 10 -4 42 18 123 88 336 111 410 127 422 12 8 64 12 176 12 146 0 158 -1 153 -17z"></path>	<path d="M10726 2113 c-6 -21 -163 -607 -376 -1403 -23 -85 -44 -163 -46 -173 -5 -16 7 -17 197 -15 l203 3 88 330 c49 182 142 530 208 775 65 245 122 457 126 473 l6 27 -200 0 c-182 0 -201 -2 -206 -17z"></path>    <g id="outdoor-o">	    <path d="M680 1777 c-84 -23 -132 -63 -174 -145 -9 -18 -59 -191 -111 -385 -51 -194 -106 -397 -120 -452 -34 -124 -31 -182 11 -226 15 -16 45 -34 66 -40 24 -6 209 -9 505 -7 452 3 470 4 514 24 60 28 113 84 138 147 11 29 71 239 132 467 122 453 132 514 93 567 -43 59 -37 58 -544 60 -346 2 -477 -1 -510 -10z m558 -367 c4 -37 -124 -499 -144 -521 -16 -18 -30 -19 -168 -17 -147 3 -151 4 -154 25 -5 34 120 492 141 519 19 24 21 24 170 22 l152 -3 3 -25z"></path>    </g>	<path d="M1831 1558 c-34 -128 -99 -368 -143 -533 -89 -330 -98 -393 -62 -442 43 -58 37 -58 543 -61 510 -3 528 -1 608 57 68 49 90 112 238 666 75 281 138 518 141 528 5 16 -10 17 -225 17 l-230 0 -15 -52 c-8 -29 -60 -224 -116 -433 -55 -209 -109 -391 -119 -405 -18 -25 -19 -25 -172 -25 -139 0 -154 2 -157 18 -2 9 49 212 112 451 64 238 116 436 116 439 0 4 -103 7 -228 7 l-229 0 -62 -232z"></path><g transform="translate(5185, 0)"><use href="#outdoor-o"></use></g>   <g transform="translate(6542, 0)"><use href="#outdoor-o"></use></g>	<path d="M8580 1781 c-85 -18 -155 -75 -191 -156 -10 -22 -56 -184 -103 -360 -47 -176 -110 -412 -141 -525 -30 -113 -55 -208 -55 -212 0 -5 104 -8 230 -8 127 0 230 2 230 5 0 7 219 826 231 863 6 17 19 37 29 42 10 6 79 10 154 10 79 0 137 4 141 10 7 11 95 320 95 333 0 9 -573 7 -620 -2z"></path>	<path d="M9287 1783 c-3 -4 -39 -136 -81 -293 -42 -157 -145 -543 -229 -858 l-154 -572 231 0 232 0 60 228 60 227 334 5 c368 5 370 6 444 70 54 48 77 97 120 260 7 30 55 210 106 399 114 429 116 470 27 518 -29 17 -78 18 -589 21 -306 1 -558 -1 -561 -5z m693 -358 c10 -12 2 -54 -44 -228 -71 -262 -84 -303 -100 -316 -9 -8 -68 -11 -173 -9 l-160 3 75 283 75 282 157 0 c128 0 160 -3 170 -15z"></path>	<path d="M11125 1778 c-13 -39 -85 -310 -85 -323 0 -13 49 -15 384 -15 416 0 416 0 402 -54 l-6 -24 -327 -5 c-364 -4 -377 -6 -448 -69 -60 -53 -76 -92 -145 -346 -79 -289 -78 -355 3 -399 29 -17 79 -18 593 -21 l560 -3 16 63 c8 35 72 277 142 537 84 314 128 493 128 528 1 61 -17 94 -65 120 -29 17 -78 18 -590 21 -448 2 -558 0 -562 -10z m611 -725 c-3 -10 -15 -55 -27 -100 l-22 -83 -157 0 c-190 0 -188 -1 -164 94 26 102 33 106 221 106 142 0 154 -1 149 -17z"></path>	<path d="M12475 1778 c-2 -7 -15 -56 -29 -108 -13 -52 -75 -282 -136 -510 -61 -228 -114 -442 -117 -474 -7 -70 11 -112 60 -142 30 -18 57 -19 361 -22 l328 -3 -6 -31 c-3 -18 -13 -42 -21 -55 l-15 -23 -307 -2 -307 -3 -42 -150 c-24 -82 -45 -160 -49 -172 l-5 -23 458 0 c505 0 524 2 595 60 20 18 48 50 61 73 14 23 56 159 96 307 85 317 153 569 254 945 42 154 79 295 82 313 l7 32 -229 -2 -228 -3 -37 -135 c-36 -131 -177 -652 -199 -737 l-11 -43 -158 0 c-120 0 -161 3 -170 13 -8 10 18 120 104 441 63 236 117 437 120 447 6 18 -2 19 -225 19 -176 0 -232 -3 -235 -12z"></path></g></svg>