<svg class="svg-logo" xmlns="http://www.w3.org/2000/svg" viewBox="0 0 1379 530">
	<path fill="currentColor" fill-rule="evenodd" d="M794.6,0C741.71,0,694.52,21.12,662.05,54.31V11.06H507.75V518.94h154.3V223.6a80,80,0,1,1,160,0V518.94H971V160.07C971,71.74,892,0,794.6,0Zm220.57,11.06h154.3V518.94h-154.3ZM1379,441.67a88.2,88.2,0,1,1-88.2-88.34A88.27,88.27,0,0,1,1379,441.67ZM228.94,386.52a80.06,80.06,0,0,0,80-80.12V11.06h154.3v508H308.94V475.69C276.64,508.88,229.28,530,176.56,530,79,530,0,458.26,0,369.93V11.06H149V306.4A80.05,80.05,0,0,0,228.94,386.52Z"></path>
</svg>