<svg class="svg-logo" fill="none" xmlns="http://www.w3.org/2000/svg" viewBox="0 0 143 40"><g clip-path="url(#a)"><g clip-path="url(#b)" fill="currentColor"><path d="m41.624 14.462.732 2.988s-2.433-3.32-7.643-3.32c-6.385 0-10.936 5.019-10.936 12.375l.001.087v.087c0 7.356 4.55 12.374 10.935 12.374 5.21 0 7.643-3.32 7.643-3.32l-.732 2.989h9.665v-24.26h-9.665Zm1.54 12.13v.001h.001v.004c-.066 2.71-1.531 5.606-5.443 5.606-3.909 0-5.374-2.894-5.443-5.611.07-2.717 1.534-5.612 5.443-5.612 3.912 0 5.377 2.896 5.443 5.606v.005ZM54.26 4.926v33.796h9.664l-.73-2.988s2.431 3.32 7.642 3.32c6.385 0 10.935-5.019 10.935-12.375v-.174c0-7.356-4.55-12.374-10.935-12.374a10.18 10.18 0 0 0-6.886 2.537c-.276.237-.529.499-.757.782 0 0-.81-7.486 2.837-12.524H54.26Zm8.124 21.665v-.005c.066-2.71 1.53-5.605 5.443-5.605 3.908 0 5.373 2.894 5.442 5.61-.069 2.718-1.534 5.612-5.442 5.612-3.912 0-5.377-2.895-5.444-5.606v-.006ZM112.215 26.207c0-5.828-4.47-12.101-14.284-12.101-6.88 0-14.284 3.787-14.284 12.101v.772c0 5.828 4.47 12.101 14.284 12.101 6.879 0 14.284-3.786 14.284-12.1v-.773Zm-14.284 5.996c-3.913 0-5.377-2.895-5.443-5.606v-.004c.067-2.713 1.532-5.61 5.443-5.61 3.912 0 5.377 2.896 5.443 5.606v.004c-.068 2.713-1.533 5.61-5.443 5.61ZM142.647 26.207c0-5.828-4.47-12.101-14.285-12.101-6.879 0-14.284 3.787-14.284 12.101v.772c0 5.828 4.47 12.101 14.284 12.101 6.88 0 14.285-3.786 14.285-12.1v-.773Zm-14.285 5.996c-3.912 0-5.377-2.895-5.443-5.606l.001-.004c.067-2.712 1.532-5.61 5.442-5.61 3.913 0 5.377 2.896 5.443 5.606v.004c-.067 2.713-1.532 5.61-5.443 5.61ZM12.317 22.23c3.226-1.235 7.622.768 9.171 1.711v-8.66c-2.287-.819-3.639-1.169-7.576-1.169C7.14 14.112 0 17.922 0 26.98c0 5.224 3.701 12.095 13.942 12.095 2.046 0 5.26-.352 7.546-1.17v-8.661c-1.549.943-5.945 2.946-9.17 1.711-1.979-.756-3.084-2.303-3.125-4.362.041-2.059 1.146-3.606 3.124-4.362ZM50.042 3.558c2.355 2.693 2.755 6.196 2.755 6.196s-3.417-.865-5.772-3.558C44.67 3.502 44.27 0 44.27 0s3.417.865 5.772 3.558ZM47.878 8.886c2.61.626 4.374 2.594 4.374 2.594s-2.466.955-5.075.329c-2.61-.625-4.374-2.594-4.374-2.594s2.465-.954 5.075-.329Z"></path></g></g><defs><clipPath id="a"><path fill="#fff" d="M0 0h142.759v40H0z"></path></clipPath><clipPath id="b"><path fill="#fff" d="M0 0h142.759v39.138H0z"></path></clipPath></defs></svg>