<svg class="icon--svg icon--recherche logo--white search--trigger" version="1.1" id="Calque_1" xmlns="http://www.w3.org/2000/svg" xmlns:xlink="http://www.w3.org/1999/xlink" x="0px" y="0px" viewBox="0 0 20.1 20.9" style="enable-background:new 0 0 20.1 20.9;" xml:space="preserve">
    <style type="text/css">
      .st0{fill:#FFFFFF;}
    </style>
    <g class="search--trigger">
      <path class="st0" d="M15,10.2c1.1-3.2,0.1-6.7-2.6-8.7C11.1,0.4,9.5-0.1,7.8,0C6.4,0.2,5,0.7,3.7,1.3C3.6,1.4,3.4,1.5,3.4,1.7
        c0,0.1,0,0.2,0.2,0.4c0.3,0.2,0.8,0.1,1.2-0.1c0.9-0.5,1.8-0.7,2.8-0.9c1.2,0,2.4,0.4,3.3,1.2c2.1,1.6,3.1,4.1,2.8,6.7
        c-0.4,2.5-2.2,4.4-4.7,4.9c-1.3,0.2-2.6,0.1-3.7-0.5c-1.1-0.7-1.9-1.7-2.3-2.8C1.7,8,1.2,4.5,3.3,3c0.2-0.2,0.2-0.3,0.2-0.4
        c0-0.2-0.2-0.3-0.4-0.3C2.7,2.2,2.3,2.3,2,2.6l0,0c-2.5,1.8-2.1,5.3-1,8c0.5,1.5,1.6,2.8,3,3.7C5,14.8,6,15,7.1,15
        c0.4,0,0.7,0,1.1-0.1C10.8,14.6,13.9,13.2,15,10.2z"></path>
      <path class="st0 search--trigger" d="M19.9,19.8l-5.4-5.4c-0.3-0.2-0.8-0.3-1.1-0.1c-0.2,0.1-0.5,0.3-0.5,0.6c0,0.2,0,0.3,0.1,0.4l5.4,5.4
        c0.2,0.1,0.4,0.2,0.6,0.2c0.2,0,0.3,0,0.5-0.1c0.2-0.1,0.5-0.3,0.5-0.6C20.1,20,20,19.9,19.9,19.8z"></path>
    </g>
    </svg>