<svg class="icon icon--full-color icon--site-logo h-full" xmlns="http://www.w3.org/2000/svg" viewBox="0 0 232 70" preserveAspectRatio="xMidYMid meet">
  <title>Character Logo</title>
  <path class="fill-current text-green" d="M232,70H0V0H232Z"></path>
  <path class="fill-current text-lime" d="M161.39,43.42c-1.31,0-3.15-.68-3.15-4.28V31.41h6.64V28.3h-6.64V22.56h-3.7V28.3h-4.15v3.11h4.15v8.33c0,5.74,4.2,7,7,7a5.88,5.88,0,0,0,2.48-.49,5.61,5.61,0,0,0,2-1.48,7.91,7.91,0,0,0,1.81-5h-3.4C164.31,42.14,163.06,43.42,161.39,43.42Z"></path>
  <path class="fill-current text-lime" d="M59.11,27.8a6.19,6.19,0,0,0-5.9,3.55h-.47V20.59H49v25.9h3.7V36.08a4.55,4.55,0,0,1,4.83-4.88c3,0,4.75,2,4.75,4.88V46.5H66V35.41C66,30.58,63.11,27.82,59.11,27.8Z"></path>
  <path class="fill-current text-lime" d="M87.88,41.8V28.22H84.23v3h-.31a6.53,6.53,0,0,0-2.46-2.67,6.62,6.62,0,0,0-3.53-.95,9.32,9.32,0,0,0-9.34,9.57c0,5.53,3.83,9.58,8.94,9.58a7.93,7.93,0,0,0,3.84-1A7.75,7.75,0,0,0,84.21,43h.2v.52a3.09,3.09,0,0,0,3.17,3.26h.35l1.2-2.62-.54-.29C88.08,43.57,87.88,43.15,87.88,41.8Zm-3.64-5.65-.07,3.54c-.34,2.3-2.76,3.65-5.89,3.66a5.9,5.9,0,0,1-6.07-6.19A5.89,5.89,0,0,1,78.3,31c3,0,5.72,1.61,5.94,3.75Z"></path>
  <path class="fill-current text-lime" d="M127.89,41.8V28.22h-3.65v3h-.3a6.58,6.58,0,0,0-6-3.62,9.32,9.32,0,0,0-9.35,9.57c0,5.53,3.83,9.58,9,9.58a7.93,7.93,0,0,0,3.84-1A7.72,7.72,0,0,0,124.22,43h.2v.52a3.1,3.1,0,0,0,3.17,3.26H128l1.2-2.62-.55-.29C128.09,43.57,127.89,43.15,127.89,41.8Zm-3.63-5.65-.07,3.54c-.34,2.3-2.77,3.65-5.89,3.66a5.89,5.89,0,0,1-6.07-6.19A5.89,5.89,0,0,1,118.31,31c3,0,5.72,1.61,6,3.75Z"></path>
  <path class="fill-current text-lime" d="M37.34,31.18c2.93,0,4.71,1.46,5.3,3.77h3.58c-.62-4.53-4.16-7.14-9-7.14-6,0-9.51,4.28-9.51,9.57S31.17,47,37.2,47c5.39,0,8.73-3,9-7.15H42.64c-.48,2.19-2.23,3.78-5.25,3.78a5.9,5.9,0,0,1-6.12-6.2A5.89,5.89,0,0,1,37.34,31.18Z"></path>
  <path class="fill-current text-lime" d="M140.59,31.18c2.93,0,4.71,1.46,5.31,3.77h3.6c-.62-4.53-4.17-7.14-9-7.14-5.95,0-9.52,4.28-9.52,9.57S134.44,47,140.48,47c5.38,0,8.72-3,9-7.15h-3.62c-.48,2.19-2.22,3.78-5.25,3.78a5.9,5.9,0,0,1-6.12-6.2A5.89,5.89,0,0,1,140.59,31.18Z"></path>
  <path class="fill-current text-lime" d="M100.8,27.84c-2.81,0-4.3,2.39-4.88,4h-.31v0l-.19-3.55H91.91V46.49h3.71V36.63c0-4.16,2.07-5.43,3.9-5.43,1.65,0,3.28.92,3.44,3.65h3.6v-.77C106.56,31.05,104.73,27.84,100.8,27.84Z"></path>
  <path class="fill-current text-lime" d="M200,27.84c-2.81,0-4.3,2.39-4.88,4h-.31v0l-.19-3.55h-3.51V46.49h3.7V36.63c0-4.16,2.08-5.43,3.9-5.43,1.65,0,3.28.92,3.45,3.65h3.61v-.77C205.8,31.05,204,27.84,200,27.84Z"></path>
  <path class="fill-current text-lime" d="M179.17,27.81c-5.95,0-9.51,4.28-9.51,9.57S173.14,47,179.17,47c5,0,8.29-2.65,8.93-6.36h-3.74c-.71,1.77-2.36,3-5,3-3.43,0-5.83-2.07-6-5.22h15a20.23,20.23,0,0,0-.2-3.87C187.11,30.1,183.86,27.81,179.17,27.81Zm-5.76,7.75c.29-3,2.73-4.63,5.89-4.63,2.93,0,4.79,1.55,5.31,3.85a3.31,3.31,0,0,1,.09.77Z"></path>
</svg>