<svg xmlns="http://www.w3.org/2000/svg" width="599" height="514" viewBox="0 0 599 514" fill="none" class="groomie-logoBg"> <g clip-path="url(#clip0_3076_88263)"> <path d="M252.262 74.1357C257.261 74.1357 372.226 80.555 421.497 76.9887C490.048 71.9959 558.599 57.7309 595.731 12.0826C600.015 7.08986 595.017 -0.755927 588.59 0.67058C552.172 9.94288 462.913 30.6272 261.545 17.0754C261.545 17.0754 254.405 16.3622 240.837 17.7887C107.306 23.4947 0.195312 132.622 0.195312 265.288C0.195312 402.232 113.019 513.5 252.262 513.5C391.506 513.5 499.331 410.078 505.758 265.288C506.472 257.442 506.472 251.023 506.472 251.023C570.024 234.618 590.018 193.249 597.873 175.418C599.301 171.851 595.731 168.998 592.16 170.425C508.614 206.801 327.954 188.256 283.682 191.109C261.545 192.536 129.442 218.213 137.297 353.731C137.297 357.297 142.295 358.011 143.724 355.158C214.417 227.485 273.685 251.023 436.493 254.589C440.777 254.589 444.348 254.589 448.632 254.589C444.348 367.996 356.517 457.153 252.262 457.153C144.438 457.153 56.6069 371.562 56.6069 265.288C56.6069 159.726 144.438 74.1357 252.262 74.1357Z" fill="#2B2B2B"></path> </g> <defs> <clipPath id="clip0_3076_88263"> <rect width="599" height="514" fill="white"></rect> </clipPath> </defs> </svg>