<svg class="logo" width="176px" height="73px" viewBox="0 0 712 255" version="1.1" xmlns="http://www.w3.org/2000/svg" xmlns:xlink="http://www.w3.org/1999/xlink">
    <g stroke-width="0" fill-rule="evenodd">
        <g transform="translate(-636.000000, -60.000000)" fill-rule="evenodd">
            <g id="Logo" transform="translate(636.000000, 60.103372)">
                <path d="M621.64 100.04c.19-.64 2-5.89 2.5-11.31.14-1.58.32-4.79.44-7.4.08-1.7-1.07-1.05-1.37-.3-2.22 5.46-6.07 15.3-6.43 16.58-.09.39-.47 1.6-.48 1.98-.36 3.86 4.14 4.51 5.35.45Zm2.97-21.55h.02Zm-19.6 24.04c2.59-.57 1.88-4.58 2.16-6.2 0-.05.01-.09.01-.14-.03-3.36-.25-6.64-.87-9.88-1.23-6.49-2.63-10.72-3.78-13.4-.43-1.01-1.69-2.01-2.25.66 0 0-1.27 9.29 1.93 26.64 0 0 .47 2.87 2.79 2.32Zm-23.4-9.71s2.22 6.81 5.59 9.54c1.49 1.21 3.83.16 4.13-1.7.08-.58.14-1.02-.15-1.84-.18-.43-.36-.69-.6-1.03-2.24-2.42-6.56-9.06-9.03-12.93-.56-.88-1.98-1.39-1.76.66.27 2.54 1.17 5.58 1.83 7.3Zm46.67 19.73c-1.64-.9-8.34-3.34-15.33 13.13 0 0-.1.05-.27.1-3.28 1.31-4.65-.92-4.65-.92 0-.21 1.62-1.87 3.14-4.41 6.84-11.4.43-13.32-1.98-12.87-8.8 1.64-7.5 15.15-3.86 17.85-3.31 2.8-6.49-1.2-6.43-1.31 3.65-6.63 3.42-13.68.68-15.28-1.8-1.05-4.4-.79-5.47 1.52-2.96 6.38 2.25 13.33 2.63 14.21-.73 1.65-2.3 1.96-2.41 1.75-5.78-11.86-10.33-14.02-12.85-13.42-2.05.49-2.6 1.72-2.81 3.42-.51 4.02 5.85 10.41 13.63 11.62.28.04 3.49 3.56 5.27 19.25.5 4.41.04 17.24.13 17.26v-.02s-.28 10.08.41 10.2h.59l.57-.02c1.54-.05 3.07-.18 4.51-.14.37-.01 6.26-.21 6.26-.21s-.06-22.97.33-27.79c.91-11.15 3.78-17.64 5.02-19.18 5.45-1.61 12.78-6.05 14.02-9.19 1.13-2.83.24-4.78-1.19-5.57Zm-46.44 4.41c2.09-4.5 9.42 8.33 9.5 8.89-.06.05-11.16-4.78-9.5-8.89Zm23.41 1.17c.18-7.86 3.85-7.65 5.02-7.09 2.5 1.19-.15 7.99-3.29 12.57 0 0-1.81-1.62-1.72-5.47Zm-7.7-6.99c3.8-.08.29 11.21.29 11.21s-5.23-11.11-.29-11.21Zm10.49 32.3c-.37 3.36-.71 7.9-.86 14.52-.09 3.75-.13 14.06-.13 14.06-.23.07-4.92.48-6.23.53-.09-.19-.39-14.88-.38-17.41.08-16.42-4.73-26.62-5.47-27.19 1.06.46 2.79-1.62 2.79-1.98 1.02 1.2 5.27 4.46 8.87.62 2.79 2.62 5.59 1.24 5.59 1.24s-3.19 6.7-4.18 15.59Zm8.32-19.18c1.71-3.85 8.96-12.81 10.8-8.96 1.25 2.61-6.23 7.42-10.8 8.96Z"></path>
                <path d="M613.56 42.35c-1.13-.15-30.62-5.95-49.82 13.83-3.11 3.21-19.32 17.62-15.19 49.77 4.26 33.11 31.96 42.3 37.03 44.9 2.27 1.16 2.06 2.93 2.3 5.83.11 1.39-.08 19.07-.1 19.07a3.63 3.63 0 0 0 2.71 3.44c.13 1.73.38 4.61.57 5.61.45 2.31-1.06 3.29 1.46 5.53.79.7.28 2.01.49 2.99.46 2.18 1.62 3.6 3.35 4.61.49.29.5.59.54.9.2 1.35 2.18 3.19 3.8 3.19 1.8 0 5.43.21 6.92.21 3.14.04 3.83-2.98 3.86-3.29.15-.02 4.29.61 4.01-4.68-.04-.68 0-1.21.42-1.78.62-.85.54-1.92.19-2.9-.26-.74-.13-1.27.15-2 .44-1.15 1.03-1.81 1.09-3.07.05-.94-.37-1.76.48-2.89.14-.21.24-.4.3-.58h.05c1.51.02 3.29-1.11 3.2-4.21 0-.02-.43-23.49.29-24.32.42-.49 30.67-12.13 36.04-39.88 6.41-33.16-10.11-65.84-44.14-70.28Zm-.7 154.2c-1.6-.09-2.63-.39-4.13-.42-2.94-.05-5.88-.04-8.83-.08-.77-.01-1.54-.09-2.3-.22-1.07-.18-1.75-1.62-1.8-3.44 5.75 1.29 11.11 1.2 17.07 1.37.3.83.03 2.09-.02 2.79Zm.61-6.05c-3.39 0-6.73.13-10.05-.04-2.37-.12-4.73-.6-7.09-.99-1.59-.27-1.97-.8-1.94-2.34 6.36.7 12.71 1.4 19.19 2.11-.04.44-.07.87-.11 1.27Zm-.86-4.94c-5.16-.44-17.45-1.77-18.47-1.97v-2.67c2.45 0 15.2 1.01 19.2 1.45.66.07.84.47.9 1.08.15 1.54-.35 2.22-1.64 2.11Zm7.87-41.55c-5.08 2.26-5.09 5.02-5.34 7.5-.13 1.24-1.03 18.09-.13 24.47a.926.926 0 0 1-.93 1.05c-2.83-.04-5.92-.07-7.47-.07-1.9 0-7.5-.4-12.12-.74a.923.923 0 0 1-.86-.9c-.12-4.84-.65-23.64-1-25.7-.33-1.95-.76-2.8-3.39-3.91-2.92-1.23-41.32-15.09-35.36-58.28 3.14-22.7 21.49-33.06 32.48-36.67 28.52-9.37 58.1 9.8 62.05 35.81 1.68 11.07 4.36 43.08-27.93 57.43Z"></path>
                <path d="M588.17 150.65c-5.18 6.81-14.02 18.74-28.69 14.06-19.48-6.21-38.57-45.16-70.75-28.22 0 0 5.83-30.98 6.31-35.24.33-2.85.27-9.56-4.99-9.19-3.31.23-5.13 4.99-6.08 7.49-1.3 3.41-11.71 33.73-30.44 31.66-6.95-.77-7.81-10.92-2.32-21.36 20.99-39.92-5.85-40.56-14.7-29.93-7 8.41-11.83 25.19-19.59 43.77-20.14 48.16-49.56 39.74-53.8 14.44-.3-1.78 29.97-14.34 28.67-40.7-.54-10.9-11.98-8.33-14.92-7.3-19.79 6.93-23.64 34.39-23.64 34.39s3.38-43.11 2.98-47.13c8.14-13.12 12.05-19.72 13.26-22.02 24.96-40.17 14.81-54.23 5.8-55.19-6.64-.71-12.5.26-18.25 10.16-8.44 14.53-12.19 71.06-12.19 71.06-3.95 8.47-14.01 27.24-26.63 27.61-10.43.31-16.72-2.93-28.88-18.88-3.61-4.73-4.25-8.88-10.46-7.75-1.85.34-4.14 2.54-4.9 3.19-1.37 1.16-6.11.29-9.51 5.39-1.14 1.71-11.1 16.94-26.28 16.94s-17.38-5.04-24.27-8.38c-5.35-2.6-9.77-9.75-16.46-6.25-1.67.86-2.83 2.35-4.21 3.58-1.33 1.2-8.32-.11-9.8 11.15-6.5 49.59-36.05 74.15-60.08 56.56 0 0 31.31 5.17 30.68-43.11-.56-43.76-37.42-37.25-47.13-20-2.54-11.81-8.32-15.46-9.89-16.35-2.51-1.42-4.62-3.5-10.17-.08-13.13 8.1-10.82 40.44-7.51 74.38.07.7.14 1.4.22 2.1-47.67-.76-64.99-23.81-76.68-14.02-5.81 4.86-2.18 11.49 5.15 14.62 14.95 6.39 49.38 7.23 72.42 7.26 2.04 16.21 10.15 65.49 28.23 81.58 9.55 8.5 16.91 3.95 19.01 0 4.41-8.29 2.52-13.2-.38-27.29-1.68-8.17-12.24-56.28-12.24-56.28 2.64 5.27 12.61 10.73 15.95 11.92 28.08 12.53 50.28-19.46 52.12-46.56-.26 7.07 9.52 37.36 32.4 28.81 16.45-6.15 17.23-30.65 3.94-49.84 1.34.35 17.64 14.48 36.11-4.2-5.64 18.89-3.74 48.57 18.1 48.57 16.58 0 24.59-21.8 19.15-52.82 1.17.76 6.03 19.71 25.65 18.94 19.08-.75 26.14-28.14 26.14-28.14-1.87 26.5-6.78 81.88-6.78 81.88.03 3.66 13.16 2.9 13.41-.42 1.03-13.4 1.35-28.58 1.64-30.59.47-3.29 2.01-3.16 2.36-1.74 9.31 37.74 38.31 34.95 55.15 6.49 17.81-30.1 21.98-49.4 29.55-58.35 4.14-4.89 18.24-2.25 1.67 23.36-3.27 5.06-13.16 27.39 5.48 31.32 16.87 3.56 34.67-24.63 34.73-24.71.38-.49-2.73 13.32-5.32 19.98-53.12 43.12-64.28 79.77-65.55 83.78-6.4 20.33 2.23 30.14 10.6 30.24 37.12.4 64.58-108.44 65.26-109.2 10.07-11.2 34.11 9.27 44.65 16.83 10.78 7.73 16.77 14.94 31.45 13.77 10.41-.83 19.89-8.58 25.22-16.18v-9.86ZM369.48 12.6c3.95-4.24 7.59-2.05 5.2 8.68-4.07 18.29-18.75 43.4-18.75 43.4-.19.24 3.04-40.82 13.55-52.08ZM86 119.13c-.3-13.74.51-23.51 4.03-24.5 5.09-1.43 10.99 65.08 10.99 65.08-2.14.88-7.78 1.63-11.43 1.25-.1-.96-3.31-28.76-3.59-41.84Zm27.06 124.71c-5.52-.81-20.01-46.45-22.11-73.47 7.89-.22 9.33-.56 11.85-1.21.94 8.07 10.08 50.1 11.84 56.94 4.95 19.29.79 18.09-1.58 17.75Zm1.07-86.83-6.1-46.38-.06-1.2c38.91-37.69 47.01 47.01 6.16 47.58Zm94.09-6.04c-13.33 2.9-23.38-28.38-14.84-41.91 6.05-9.58 16.52 4.02 20.39 14.16 2.98 7.81 6.93 25.03-5.55 27.74Zm64.71-8.64c-16.61 1.16-14.5-36.64-2.32-45.74 4.64-3.47 13.91-2.15 13.91 21.48 0 10.5-3.49 23.7-11.58 24.26Zm87.22-15.25c0-6.49 7.53-22.99 13.08-26.16 4.61-2.64 6.57-.05 4.71 6.4-4.95 17.13-17.79 20.81-17.79 19.76Zm65.51 112.94c-10.46-2.07-5.03-16.43 3.95-32.19 16.09-28.24 43.34-55.62 43.81-54.87.22.36-34.17 89.74-47.76 87.06Zm284.65-82.94c-3.73 2.36-7.44.28-8.75-3.29-.32-.86-4.33-23.92-41.6 9.21-15.17 13.49-32.75 5.65-39.81-1.69-.26-3.3.35-8.25.8-13.21.42.34.07 5.13 2.26 7.91 3.63 4.61 13.1 12.87 32.63-2.37 8.45-6.59 20.61-13.8 33.4-13.8 2.11 0 4.24.2 6.38.63 9.36 1.88 14.29 7.4 14.5 7.64 1.27 1.45 3.78 6.73.2 8.99Z"></path>
            </g>
        </g>
    </g>
</svg>