<svg class="footer__logo" width="65" height="59" viewBox="0 0 65 59" fill="none" xmlns="http://www.w3.org/2000/svg">
  <path fill-rule="evenodd" clip-rule="evenodd" d="M65 25.9996C65 40.3588 50.4493 51.9992 32.5 51.9992C14.5507 51.9992 0 40.3588 0 25.9996C0 11.6404 14.5507 0 32.5 0C50.4493 0 65 11.6404 65 25.9996ZM55.3718 34.1517C55.3718 41.4246 45.1324 47.3204 32.5014 47.3204C19.8705 47.3204 9.63104 41.4246 9.63104 34.1517C9.63104 26.8789 19.8705 20.9831 32.5014 20.9831C45.1324 20.9831 55.3718 26.8789 55.3718 34.1517Z" fill="black"></path>
  <path d="M48.3666 58.9999H15.9182L22.7495 32.6401C22.7495 32.6401 26.823 31.2812 32.2847 31.2812C37.7465 31.2813 41.82 32.6401 41.82 32.6401L48.3666 58.9999Z" fill="black"></path>
</svg>