<svg class="logo" xmlns="http://www.w3.org/2000/svg" viewBox="0 0 481.8 158" data-start-width="850">
	
  
  
	
  	<path fill="#000" d="M13.2,149.1V13.2h64.6c32.6,0,52.3,15.8,52.3,46.2c0,19.6-9.6,32.5-23.5,39.8l27.2,49.9H93l-22.8-43.4H50.5
		v43.4H13.2z M72.4,75.2c15.2,0,20.5-5.3,20.5-15.8s-5.3-15.8-20.5-15.8H50.5v31.6H72.4z"></path>
	<path fill="#000" d="M419.1,134.1c-5.1,10.1-14.8,15-28.1,15c-20.8,0-32.4-11.2-32.4-27.7c0-20.3,16.1-28.6,34.6-28.6l23.7-0.2
		v-5.4c0-6-3.3-10.1-10.2-10.1c-6.5,0-10,4.2-10.4,9.6h-34.1c1.9-21.9,18.3-35.3,45.7-35.3c29.2,0,44,13.9,44,41.1l0.1,56.6h-32.9
		C419.1,149.1,419.1,142.3,419.1,134.1z M417,112.2v-3.4h-14.2c-6.7,0.7-9.2,4.3-9.2,9.8c0,5.2,3.5,8.3,9,8.3
		C410.5,126.8,417,121.6,417,112.2z"></path>
	<path fill="#000" d="M236.5,51.3v97.7H201c0,0,0-6.8-0.1-15c-5,9.9-14.3,14.8-27.2,15c-20.4-0.1-32.7-13.6-32.7-36.6V51.3h36.1
		v52.4c0,11.3,3.7,16.3,11.3,16.3c6.7,0,12.1-5,12.1-18.1V51.3H236.5z"></path>
	<path fill="#000" d="M174.1,149.1h-1.2c0.3,0,0.6,0,0.9,0C173.9,149.1,174,149.1,174.1,149.1z"></path>
	<polygon fill="#000" points="357.7,149.1 318,149.1 289.1,93.8 289.1,149.1 252.1,149.1 252.1,13.2 289.1,13.2 289.1,89.2 
		317.4,51.3 357,51.3 324.9,93.4 	"></polygon>

	<path fill="#000" d="M464.3,51.4c-6.9,0-12.3,5.4-12.3,12.3c0,6.9,5.4,12.3,12.3,12.3c7,0,12.2-5.3,12.2-12.3
			C476.5,56.6,471.3,51.4,464.3,51.4z M464.3,73.4c-5.5,0-9.6-4.2-9.6-9.8c0-5.5,4.1-9.7,9.6-9.7c5.5,0,9.6,4.2,9.6,9.7
			C473.9,69.2,469.8,73.4,464.3,73.4z"></path>
	<path fill="#000" d="M469.7,61.5c0-2.7-1.8-4.1-4.8-4.1h-5.7v12.5h2.9v-4.3h2.3l2.5,4.3h3.2l-2.8-4.8
			C468.7,64.6,469.7,63.4,469.7,61.5z M464.6,63.3h-2.4v-3.5h2.4c1.6,0,2.3,0.6,2.3,1.7C466.8,62.7,466.2,63.3,464.6,63.3z"></path>
  
  
  
</svg>