<svg class="icon-logo tw-w-36 md:tw-w-auto
" width="196" height="56" viewBox="0 0 196 56" fill="none" xmlns="http://www.w3.org/2000/svg">
      <g clip-path="url(#clip0_68_225)">
        <path d="M23.0263 0C23.3352 0.0500266 23.6442 0.0946449 23.9518 0.151432C25.2906 0.39886 26.559 0.849099 27.7244 1.54677C28.6351 2.09165 29.4265 2.77985 30.0471 3.6587C30.8561 4.8012 31.2491 6.06809 31.3291 7.45531C31.3995 8.68705 31.264 9.89444 30.9456 11.0762C30.6447 12.1876 30.165 13.2286 29.5105 14.1846C29.2693 14.5374 29.0308 14.8917 28.7638 15.227C27.799 16.4412 26.6647 17.462 25.3354 18.2597C24.3759 18.8357 23.3461 19.2467 22.2322 19.3846C20.5477 19.5928 19.0761 19.1345 17.8511 17.923C17.1261 17.2051 16.7697 16.3438 16.7683 15.3433C16.7683 14.7294 16.8578 14.1224 17.0868 13.5383C17.2995 12.992 17.538 12.4647 17.8402 11.9618C18.5842 10.7192 19.5775 9.72949 20.7984 8.95746C21.8636 8.28413 23.0005 7.76493 24.1971 7.37148C24.3258 7.32957 24.4586 7.29306 24.5819 7.23898C24.8421 7.1227 24.9749 6.86175 24.918 6.6008C24.8584 6.32633 24.6483 6.15462 24.3597 6.1438C24.1673 6.13569 23.987 6.19383 23.8095 6.25332C22.2742 6.7644 20.8215 7.4472 19.5084 8.40041C18.6411 9.03047 17.8958 9.78222 17.267 10.6557C16.6599 11.5007 16.168 12.4025 15.8306 13.3855C15.6951 13.7816 15.6056 14.19 15.5731 14.6064C15.546 14.9485 15.5392 15.2906 15.5514 15.6367C15.584 16.5615 15.9214 17.3606 16.5136 18.0582C16.6287 18.1934 16.6342 18.3043 16.5434 18.449C16.0257 19.2697 15.5677 20.1256 15.13 20.9895C14.7722 21.6953 14.4362 22.4133 14.1245 23.1434C13.8169 23.8654 13.5662 24.605 13.3467 25.354C13.1718 25.953 13.0716 26.5722 13.1556 27.2077C13.2559 27.9648 13.7789 28.2785 14.4443 28.3313C15.0419 28.3786 15.5175 28.1244 15.939 27.735C16.7263 27.0035 17.4879 26.2477 18.1709 25.4148C18.6858 24.7861 19.2184 24.1696 19.7618 23.5639C20.2848 22.9798 20.8486 22.4416 21.5451 22.0522C22.1115 21.7359 22.72 21.5669 23.3528 21.4627C24.1917 21.3248 24.9979 21.4384 25.7731 21.7791C26.368 22.0414 26.8517 22.4552 27.2894 22.9216C28.0307 23.7099 28.5145 24.632 28.6513 25.7137C28.7394 26.41 28.6906 27.1076 28.5917 27.8012C28.4603 28.7288 28.1567 29.6076 27.7637 30.4486C27.2366 31.5762 26.5509 32.6092 25.75 33.5678C25.4085 33.9761 25.063 34.3818 24.6971 34.7671C24.0792 35.4161 23.4247 36.0313 22.7444 36.6181C21.8676 37.3752 20.9638 38.1013 20.026 38.7814C18.3281 40.0131 16.4472 40.8379 14.405 41.3071C13.0526 41.618 11.6812 41.7533 10.2963 41.6802C8.82327 41.6018 7.40311 41.2719 6.05206 40.6689C5.00184 40.2011 4.05462 39.5764 3.22935 38.7801C2.61277 38.1851 2.08157 37.5172 1.64251 36.7736C0.955467 35.6094 0.498793 34.3669 0.265713 33.0392C0.206087 32.7011 0.11936 32.3672 0.0976781 32.0224C0.0895474 31.8994 0.0705758 31.7723 0.00146484 31.6628V28.4097C0.0529593 28.315 0.0597349 28.2109 0.0719309 28.1082C0.123425 27.6742 0.166789 27.2388 0.2359 26.8061C0.417486 25.6528 0.599071 24.5036 0.899907 23.3719C1.25901 22.0198 1.67368 20.6907 2.17507 19.3846C2.55992 18.3814 2.98408 17.3971 3.44075 16.4249C4.00041 15.2351 4.62106 14.0804 5.29048 12.9501C5.88132 11.9536 6.51145 10.9856 7.17274 10.0351C7.94787 8.92095 8.77584 7.85147 9.66344 6.82389C10.6337 5.70032 11.6771 4.65247 12.8141 3.69656C13.8575 2.82042 14.9714 2.05244 16.1856 1.42914C17.3348 0.839635 18.5367 0.396156 19.8119 0.166305C20.129 0.109518 20.4488 0.0567869 20.7659 0.00135207C21.5194 0.00135207 22.2715 0.00135207 23.0249 0.00135207L23.0263 0ZM19.1045 2.88396C18.9609 2.8772 18.7915 2.92993 18.6221 2.98402C17.202 3.44642 16 4.25091 14.9674 5.31634C14.6774 5.61514 14.3806 5.90989 14.1597 6.26819C13.9971 6.53185 14.0432 6.85093 14.2586 7.03482C14.4782 7.2214 14.802 7.22681 15.0378 7.03752C15.1259 6.96586 15.2072 6.88068 15.2763 6.79144C15.6761 6.26549 16.1382 5.80308 16.6545 5.39205C17.286 4.88773 17.9717 4.4767 18.7292 4.18871C18.9338 4.11164 19.1493 4.06432 19.358 3.99807C19.5721 3.93047 19.7211 3.79931 19.7564 3.56405C19.8173 3.16114 19.5734 2.89072 19.1059 2.88667L19.1045 2.88396ZM22.2145 2.67304C22.22 2.21063 21.9706 1.97808 21.5058 1.94968C21.1345 1.9267 20.7347 2.24714 20.7578 2.65141C20.7808 3.06514 21.0437 3.35043 21.4652 3.35989C21.9178 3.37071 22.2091 3.103 22.2132 2.67304H22.2145Z" fill="#1F1F1F"></path>
        <path d="M178.182 56C178.005 55.9243 177.814 55.9216 177.629 55.9013C176.043 55.7255 174.548 55.2577 173.104 54.5884C172.369 54.249 171.677 53.8502 171.025 53.377C169.949 52.5941 169.026 51.6639 168.391 50.4862C167.946 49.6628 167.708 48.7718 167.833 47.8348C167.931 47.0898 168.163 46.3787 168.609 45.7445C169.342 44.7007 170.272 43.9098 171.464 43.4406C172.102 43.1891 172.766 43.0647 173.451 43.0336C173.67 43.0242 173.889 42.9917 174.107 42.9904C175.619 42.9823 177.115 43.1121 178.554 43.6137C179.514 43.949 180.374 44.4493 181.076 45.1969C181.221 45.3511 181.328 45.5296 181.445 45.7026C181.529 45.827 181.625 45.9311 181.758 46.0028C182.015 46.1407 182.278 46.1123 182.483 45.923C182.687 45.7324 182.74 45.4714 182.613 45.2091C182.512 45.0022 182.377 44.8143 182.228 44.6399C181.4 43.6745 180.365 43.0066 179.178 42.5658C178.083 42.1588 176.946 41.9533 175.783 41.8614C175.198 41.8154 174.614 41.8019 174.029 41.8195C173.581 41.8316 173.132 41.8695 172.687 41.9222C172.428 41.9533 172.254 41.8898 172.104 41.6694C171.383 40.6161 170.747 39.5156 170.295 38.319C170.013 37.574 169.867 36.7965 169.766 36.0069C169.605 34.7279 169.796 33.488 170.201 32.282C170.541 31.2693 171.058 30.3404 171.681 29.4683C172.254 28.6679 172.893 27.9283 173.597 27.2415C174.642 26.2207 175.864 25.4703 177.206 24.9078C178.35 24.4292 179.542 24.1182 180.773 23.9722C181.664 23.8667 182.557 23.8194 183.461 23.8681C184.53 23.9248 185.583 24.0573 186.618 24.3251C188.087 24.705 189.457 25.3053 190.735 26.1247C191.897 26.8696 192.917 27.7728 193.809 28.8193C194.303 29.4007 194.719 30.0375 195.087 30.7082C195.486 31.4369 195.77 32.2049 195.932 33.0202C195.946 33.0905 195.974 33.1595 195.997 33.2284V35.4188C195.961 35.5486 195.92 35.6784 195.89 35.8095C195.786 36.2692 195.645 36.7181 195.416 37.1291C194.887 38.081 194.18 38.872 193.28 39.5007C192.202 40.2551 191.005 40.5364 189.718 40.4187C187.677 40.2321 186.175 39.1654 185.071 37.4874C184.589 36.7546 184.282 35.9258 183.831 35.1754C183.587 34.7711 183.309 34.398 183.007 34.0383C182.891 33.9004 182.731 33.8179 182.584 33.7179C182.148 33.4191 181.369 33.8653 181.377 34.3899C181.381 34.6887 181.423 34.9767 181.56 35.2363C181.769 35.6324 181.991 36.0205 182.269 36.376C182.552 36.7371 182.85 37.0845 183.156 37.4266C183.632 37.9553 184.149 38.4407 184.689 38.899C185.364 39.4736 186.068 40.0145 186.746 40.585C187.536 41.2503 188.193 42.0318 188.663 42.9512C189.018 43.6475 189.285 44.3816 189.452 45.1523C189.826 46.8938 189.727 48.5825 188.987 50.2253C188.57 51.1515 187.99 51.9613 187.288 52.6806C186.513 53.4743 185.636 54.1382 184.629 54.6357C183.429 55.2293 182.179 55.6349 180.857 55.8404C180.529 55.8918 180.188 55.8796 179.871 56.0027H178.177L178.182 56ZM175.685 30.5892C175.878 30.5892 176.068 30.4851 176.211 30.2809C176.592 29.7401 177.047 29.2709 177.589 28.8883C178.39 28.3231 179.266 27.9635 180.263 27.9527C180.401 27.9513 180.535 27.9364 180.66 27.8783C180.874 27.7769 181.01 27.6038 181.029 27.3726C181.048 27.1414 180.896 26.9886 180.717 26.8656C180.607 26.7912 180.481 26.7939 180.355 26.7885C179.568 26.7615 178.821 26.94 178.103 27.2428C176.95 27.7282 176.035 28.5192 175.272 29.494C175.208 29.5751 175.147 29.663 175.104 29.7563C174.913 30.1714 175.176 30.5811 175.687 30.5878L175.685 30.5892ZM173.856 33.0324C174.322 33.0283 174.547 32.8025 174.543 32.3401C174.54 31.875 174.303 31.66 173.804 31.6654C173.344 31.6708 173.104 31.9102 173.107 32.3577C173.111 32.8106 173.36 33.0364 173.855 33.0324H173.856Z" fill="#1F1F1F"></path>
        <path d="M62.231 27.7296C62.2486 26.3897 62.311 25.1607 62.4966 23.9438C62.666 22.8324 62.8273 21.7143 63.1254 20.6272C63.555 19.0615 64.2569 17.6283 65.3193 16.383C66.3451 15.1811 67.5946 14.3293 69.1516 13.9818C70.4972 13.6816 71.832 13.7303 73.1221 14.2562C73.8877 14.5686 74.4907 15.0742 74.9339 15.7827C75.3567 16.4588 75.5301 17.197 75.6128 17.9717C75.7578 19.3184 75.5328 20.6326 75.2618 21.9414C75.0802 22.8189 74.7916 23.6707 74.5843 24.5428C74.5382 24.7361 74.4894 24.9281 74.4528 25.1215C74.3579 25.6177 74.7401 26.0206 75.2388 25.9381C75.5139 25.8921 75.7483 25.7664 75.8946 25.5055C76.3147 24.7591 76.8039 24.056 77.3135 23.3705C78.0615 22.3632 78.8935 21.4276 79.8597 20.6218C80.7717 19.8606 81.7664 19.2305 82.9033 18.8533C84.3845 18.3611 85.8602 18.3801 87.3264 18.9236C88.7628 19.4563 89.8158 20.4136 90.5326 21.7602C91.1451 22.9081 91.4798 24.1385 91.6682 25.4135C91.843 26.5993 91.9853 27.7878 92.0612 28.9857C92.1276 30.0349 92.2021 31.0868 92.4203 32.1198C92.4989 32.4889 92.6208 32.8472 92.8065 33.173C93.2483 33.9437 93.8025 34.037 94.5018 33.5773C94.8161 33.3704 95.075 33.1027 95.2918 32.7864C96.0263 31.7196 96.6659 30.5987 97.3014 29.4711C97.9153 28.3813 98.559 27.3078 99.2176 26.2437C99.7447 25.3932 100.304 24.5631 100.865 23.7342C101.692 22.516 102.596 21.356 103.577 20.2581C104.134 19.6361 104.727 19.0453 105.375 18.518C106.219 17.8298 107.115 17.224 108.155 16.8495C109.262 16.4507 110.382 16.429 111.519 16.667C112.797 16.9347 113.872 17.558 114.768 18.5031C115.281 19.0453 115.698 19.6496 116.056 20.304C116.625 21.3451 117.031 22.4457 117.316 23.5936C117.398 23.9168 117.498 24.2359 117.594 24.555C117.651 24.7456 117.731 24.9281 117.84 25.0944C118.108 25.5055 118.646 25.6001 119.052 25.3229C119.47 25.0376 119.739 24.6226 120.019 24.225C120.801 23.1109 121.66 22.0644 122.679 21.1586C123.771 20.1891 125 19.4536 126.431 19.0953C127.458 18.8384 128.496 18.8154 129.541 18.9966C130.504 19.1643 131.434 19.4293 132.301 19.889C133.219 20.3757 133.994 21.0261 134.646 21.8346C135.533 22.9365 136.143 24.1858 136.646 25.4973C137.143 26.794 137.521 28.1244 137.878 29.4657C138.132 30.4229 138.324 31.3951 138.569 32.3537C138.882 33.5787 139.077 34.8239 139.302 36.0638C139.406 36.6384 139.452 37.2211 139.479 37.8039C139.502 38.2933 139.539 38.7814 139.527 39.2722C139.497 40.5959 139.301 41.8912 138.802 43.1229C138.455 43.9801 137.955 44.7413 137.238 45.3565C136.382 46.0921 135.388 46.4193 134.276 46.4504C133.421 46.4733 132.586 46.3611 131.782 46.0623C130.731 45.6716 129.956 44.9631 129.389 44.0045C129.056 43.4407 128.869 42.8268 128.685 42.2062C128.372 41.1489 128.281 40.0578 128.161 38.9721C128.046 37.9147 127.909 36.8615 127.653 35.8285C127.56 35.4526 127.403 35.1052 127.207 34.7671C126.775 34.0221 125.889 34.0397 125.386 34.4142C125.126 34.6089 124.89 34.8307 124.671 35.0686C124.156 35.6311 123.687 36.2314 123.246 36.8534C122.788 37.4997 122.362 38.1689 121.898 38.8112C121.161 39.8347 120.367 40.8203 119.455 41.6978C118.768 42.3576 118.033 42.9607 117.151 43.3528C115.807 43.9517 114.442 43.9991 113.068 43.4663C112.522 43.2541 112.065 42.9012 111.686 42.4631C111.366 42.094 111.079 41.6938 110.857 41.253C110.488 40.5242 110.22 39.7617 109.996 38.9761C109.661 37.8079 109.515 36.61 109.32 35.4175C109.19 34.6252 109.149 33.822 108.962 33.0392C108.858 32.5998 108.71 32.1793 108.454 31.8034C108.342 31.6384 108.221 31.483 108.05 31.3734C107.619 31.099 107.186 31.126 106.711 31.4748C106.442 31.6722 106.196 31.9007 105.988 32.1644C105.474 32.812 105.034 33.5057 104.619 34.2195C104.111 35.0943 103.578 35.9529 103.009 36.7898C102.803 37.0913 102.608 37.3996 102.399 37.6998C101.772 38.6002 101.096 39.4615 100.327 40.2457C98.8679 41.7343 97.1605 42.7971 95.0723 43.1567C93.7822 43.3798 92.4948 43.4001 91.2251 43.0066C90.6925 42.8403 90.1925 42.6024 89.7317 42.2941C88.5907 41.5315 87.7248 40.5161 87.0202 39.3479C86.2057 37.9972 85.6325 36.5492 85.2124 35.0362C85.0715 34.5305 84.8587 34.0559 84.6189 33.5935C84.5227 33.407 84.3966 33.2447 84.234 33.1068C83.7963 32.7323 83.3329 32.6904 82.864 33.023C82.448 33.3191 82.0428 33.6327 81.643 33.9518C80.7609 34.6536 79.9139 35.3999 79.0019 36.0624C77.5425 37.1238 75.9922 38.0229 74.2441 38.5354C73.0381 38.8882 71.813 39.0113 70.5555 38.8936C69.2166 38.7679 67.9808 38.365 66.8547 37.6376C66.3804 37.3307 65.9413 36.9778 65.5334 36.5857C64.822 35.9029 64.1959 35.1471 63.6932 34.3007C63.1498 33.3867 62.8367 32.3861 62.5996 31.3518C62.3164 30.1228 62.2649 28.8775 62.2256 27.7364L62.231 27.7296ZM71.3469 16.4763C70.279 16.5534 69.3128 16.9198 68.4469 17.5377C67.558 18.1705 66.8547 18.9682 66.3492 19.9376C66.1649 20.2919 66.3628 20.7016 66.7598 20.7624C67.0593 20.8084 67.2829 20.7029 67.4441 20.4365C67.7518 19.9282 68.0892 19.4401 68.5215 19.0236C69.2451 18.326 70.0798 17.8433 71.0813 17.6756C71.2358 17.6499 71.3916 17.6445 71.5474 17.6242C71.8903 17.5796 72.0935 17.3606 72.0881 17.0483C72.0827 16.7359 71.8713 16.5142 71.5366 16.4763C71.4743 16.4696 71.4119 16.4763 71.3496 16.4763H71.3469ZM110.386 19.3454C109.418 19.432 108.542 19.774 107.734 20.3054C107.127 20.7056 106.612 21.2072 106.16 21.771C105.905 22.0888 105.698 22.4417 105.497 22.7946C105.318 23.1082 105.442 23.4246 105.761 23.5774C106.085 23.7329 106.402 23.6369 106.592 23.3111C106.925 22.7405 107.32 22.2172 107.806 21.767C108.247 21.3587 108.739 21.0342 109.298 20.807C109.689 20.6488 110.095 20.5623 110.507 20.4893C110.847 20.4298 111.056 20.1404 111.004 19.8376C110.961 19.582 110.785 19.317 110.385 19.3454H110.386Z" fill="#1F1F1F"></path>
        <path d="M142.218 35.9299C142.221 35.1484 142.218 34.3655 142.286 33.5854C142.42 32.0494 142.519 30.5108 142.701 28.9789C142.916 27.1671 143.186 25.3634 143.491 23.5665C143.684 22.4267 143.862 21.2815 144.121 20.1539C144.323 19.2697 144.485 18.3773 144.716 17.4998C145.094 16.0585 145.473 14.6172 145.96 13.207C146.327 12.1429 146.728 11.0896 147.211 10.0715C147.724 8.98718 148.299 7.93391 149.026 6.97395C149.673 6.12214 150.395 5.33929 151.321 4.77954C153.023 3.74926 154.811 3.54915 156.656 4.35093C157.813 4.8539 158.569 5.76114 159.064 6.90769C159.428 7.75274 159.592 8.63699 159.69 9.54288C159.791 10.4799 159.772 11.4182 159.734 12.3552C159.694 13.376 159.566 14.39 159.409 15.4C159.221 16.6169 158.957 17.8189 158.659 19.0114C158.447 19.8592 158.257 20.7164 157.966 21.5452C157.953 21.5844 157.939 21.625 157.934 21.6655C157.901 21.894 158.012 21.9873 158.224 21.8954C158.444 21.7994 158.646 21.6642 158.823 21.4992C159.408 20.9476 160.014 20.4203 160.66 19.9403C161.775 19.1128 162.964 18.43 164.319 18.0663C166.067 17.5972 167.697 17.854 169.192 18.8722C170.025 19.44 170.7 20.1607 171.126 21.0855C171.502 21.9008 171.619 22.7634 171.513 23.6517C171.38 24.7631 170.93 25.7474 170.319 26.6763C169.703 27.6119 168.928 28.3961 168.054 29.0803C167.068 29.851 165.975 30.4378 164.785 30.8366C164.576 30.9069 164.369 30.9786 164.174 31.0786C163.877 31.2301 163.784 31.4613 163.888 31.7817C163.937 31.9318 164.006 32.0724 164.099 32.1995C164.59 32.8647 165.003 33.5732 165.354 34.3236C165.78 35.2335 166.14 36.1624 166.366 37.1427C166.613 38.2067 166.708 39.283 166.643 40.3714C166.604 41.0299 166.492 41.6789 166.253 42.2954C165.659 43.8178 164.576 44.8238 163.021 45.3443C162.157 45.6337 161.274 45.7526 160.37 45.7526C159.165 45.7526 158.068 45.3727 157.051 44.7548C156.236 44.2586 155.615 43.5582 155.066 42.7862C154.65 42.2021 154.37 41.5531 154.085 40.9041C154.04 40.8027 154.019 40.6594 153.874 40.6675C153.75 40.6743 153.734 40.8068 153.691 40.8987C153.384 41.5491 153.115 42.2143 152.745 42.8362C152.094 43.926 151.311 44.8887 150.247 45.5972C149.383 46.1731 148.422 46.3949 147.383 46.284C146.762 46.2178 146.173 46.0569 145.616 45.777C144.858 45.3984 144.271 44.8346 143.823 44.122C143.155 43.062 142.813 41.8857 142.595 40.6675C142.472 39.9793 142.415 39.283 142.333 38.5907C142.229 37.7078 142.224 36.8236 142.22 35.938L142.218 35.9299ZM155.722 6.96583C155.727 6.63998 155.55 6.43582 155.223 6.39661C155.088 6.38039 154.952 6.39391 154.819 6.425C154.307 6.54804 153.825 6.74409 153.375 7.01586C152.094 7.79059 151.22 8.902 150.673 10.2811C150.627 10.3974 150.585 10.515 150.579 10.6421C150.563 10.9896 150.798 11.2411 151.147 11.2492C151.449 11.2559 151.673 11.0951 151.794 10.7584C152.105 9.8863 152.601 9.13726 153.287 8.51666C153.853 8.00422 154.498 7.63105 155.264 7.49855C155.563 7.44717 155.718 7.26734 155.723 6.96448L155.722 6.96583Z" fill="#1F1F1F"></path>
        <path d="M31.4198 30.738C31.4076 28.7869 31.5445 27.0319 31.7166 25.2783C31.8602 23.814 32.1353 22.37 32.3697 20.9206C32.6394 19.2643 32.8901 17.6053 33.1774 15.9531C33.363 14.8863 33.5731 13.8209 33.8211 12.7676C33.9986 12.0172 34.1585 11.2627 34.3753 10.5218C34.7453 9.26169 35.1396 8.00832 35.6545 6.79821C35.9893 6.01131 36.3633 5.24198 36.82 4.51727C37.3281 3.71144 37.9122 2.96239 38.648 2.3472C39.5885 1.56165 40.6698 1.14386 41.9071 1.18037C42.9234 1.21011 43.8354 1.54272 44.5997 2.2174C44.9764 2.55001 45.2677 2.95834 45.5049 3.40587C45.9616 4.26849 46.1621 5.19872 46.3125 6.15193C46.4494 7.02266 46.4399 7.8961 46.4453 8.77088C46.4521 9.68218 46.3139 10.5786 46.219 11.4791C46.1404 12.2349 46.028 12.9893 45.8938 13.737C45.7366 14.6186 45.5415 15.4947 45.3585 16.3722C45.3328 16.498 45.2881 16.6237 45.4209 16.7102C45.5591 16.7995 45.6933 16.74 45.7935 16.6453C46.0591 16.3939 46.3451 16.1667 46.6378 15.9477C47.7178 15.1378 48.9198 14.6064 50.2546 14.3806C51.5555 14.1602 52.8361 14.2981 54.1045 14.6186C55.1953 14.8944 56.1859 15.3649 57.0342 16.114C57.2944 16.3438 57.5248 16.6021 57.7267 16.8779C58.0912 17.3755 58.3893 17.9095 58.6143 18.4896C59.0357 19.5793 59.2404 20.7137 59.3664 21.867C59.4626 22.7472 59.5737 23.6288 59.5317 24.5157C59.4938 25.3067 59.426 26.0949 59.3732 26.8859C59.3095 27.8324 59.1983 28.7747 59.052 29.7117C58.8718 30.8664 58.6278 32.0089 58.3175 33.1338C58.0153 34.229 57.6494 35.3066 57.163 36.3355C56.5626 37.6065 55.8241 38.7882 54.7888 39.7617C53.9595 40.5405 52.977 41.0177 51.8658 41.2422C50.8617 41.445 49.867 41.3909 48.89 41.0989C47.8736 40.7946 47.066 40.2065 46.4928 39.2952C46.1716 38.7828 45.9724 38.2325 45.8071 37.6592C45.4534 36.4329 45.49 35.1863 45.5821 33.9356C45.6662 32.7985 45.9169 31.6885 46.2231 30.5946C46.4142 29.9132 46.6242 29.2358 46.7936 28.5476C46.8139 28.4665 46.8356 28.3854 46.8478 28.3029C46.8966 27.9581 46.7638 27.6904 46.4914 27.5768C46.1879 27.4497 45.8166 27.5511 45.6201 27.8188C45.5767 27.877 45.5401 27.9419 45.509 28.0081C45.3314 28.3975 45.1458 28.7815 44.9845 29.1777C44.6498 29.9984 44.3354 30.8272 44.0021 31.6479C43.6037 32.6336 43.2107 33.6219 42.7838 34.5954C42.4125 35.4459 42.0195 36.2882 41.5615 37.0954C41.0682 37.9661 40.537 38.8152 39.8554 39.5588C39.3581 40.1024 38.8038 40.5688 38.1276 40.8839C37.2902 41.2733 36.4337 41.3071 35.5638 41.038C34.71 40.7744 34.0216 40.2687 33.4715 39.567C32.8373 38.7571 32.4389 37.8404 32.1421 36.8628C31.7261 35.4945 31.5702 34.0924 31.4713 32.6755C31.4212 31.967 31.4266 31.2585 31.4185 30.738H31.4198ZM41.9992 4.14275C41.6306 4.14546 41.2756 4.2063 40.9287 4.33745C40.4219 4.52809 39.9869 4.81608 39.602 5.19601C39.0152 5.77199 38.6141 6.45479 38.3824 7.23493C38.2808 7.57836 38.5437 7.90826 38.9041 7.9326C39.2253 7.95423 39.4475 7.81497 39.5776 7.48777C39.7714 7.00103 40.0072 6.54267 40.3636 6.14922C40.6861 5.79363 41.0615 5.52997 41.529 5.40018C41.7932 5.32581 42.0615 5.31635 42.3339 5.30688C42.6334 5.29607 42.834 5.11354 42.8841 4.84312C42.9315 4.58623 42.7865 4.34151 42.5223 4.21847C42.3542 4.14005 42.1781 4.14546 42.0006 4.14275H41.9992Z" fill="#1F1F1F"></path>
      </g>
      <defs>
        <clipPath id="clip0_68_225">
          <rect width="196" height="56" fill="white"></rect>
        </clipPath>
      </defs>
    </svg>