<svg class="omni-logo" width="102" height="35" viewBox="0 0 102 35" fill="none" xmlns="http://www.w3.org/2000/svg">
  <path d="M66.9667 34.2193V11.3208H74.9048L75.1964 13.7076C76.02 12.7615 77.0392 12.0058 78.1836 11.4926C79.3279 10.9795 80.57 10.7212 81.824 10.7357C86.8726 10.7357 90.1996 13.6695 90.1996 19.799V34.2193H81.9665V21.7465C81.9665 20.6111 81.829 17.9956 78.9957 17.9956C75.3307 17.9956 75.1964 21.0156 75.1964 21.9902V34.2193H66.9667ZM93.071 11.3208H101.301V34.2193H93.071V11.3208ZM97.142 2.82694e-07C96.1808 -0.000327566 95.241 0.284513 94.4417 0.8185C93.6423 1.35249 93.0191 2.11163 92.6511 2.99992C92.283 3.88821 92.1865 4.86575 92.3738 5.80889C92.5612 6.75204 93.0239 7.61842 93.7034 8.29848C94.383 8.97853 95.2489 9.44171 96.1917 9.62943C97.1344 9.81714 98.1116 9.72097 98.9997 9.35306C99.8877 8.98516 100.647 8.36205 101.181 7.56255C101.715 6.76304 102 5.82306 102 4.86148C102 3.57242 101.488 2.33614 100.577 1.42448C99.6662 0.512823 98.4306 0.000439784 97.142 2.82694e-07ZM49.904 30.0009C49.4575 29.9998 49.0289 30.1762 48.7124 30.4913C48.3959 30.8063 48.2175 31.2342 48.2164 31.6808C48.2153 32.1275 48.3916 32.5562 48.7066 32.8728C49.0215 33.1894 49.4492 33.3679 49.8957 33.369C50.123 33.3796 50.3501 33.3441 50.5633 33.2645C50.7765 33.185 50.9714 33.0631 51.1363 32.9061C51.3011 32.7491 51.4324 32.5604 51.5223 32.3513C51.6123 32.1421 51.6589 31.917 51.6595 31.6893C51.66 31.4617 51.6145 31.2363 51.5256 31.0267C51.4367 30.8171 51.3063 30.6277 51.1423 30.47C50.9782 30.3122 50.7839 30.1893 50.5711 30.1087C50.3583 30.0281 50.1313 29.9914 49.904 30.0009ZM40.6254 30.054C40.2943 30.0634 39.9735 30.1704 39.7029 30.3614C39.4323 30.5523 39.2241 30.8189 39.1042 31.1277C38.9843 31.4365 38.9581 31.7739 39.029 32.0975C39.0998 32.4211 39.2644 32.7166 39.5023 32.9471C39.7402 33.1775 40.0408 33.3327 40.3664 33.3931C40.692 33.4535 41.0281 33.4166 41.3328 33.2868C41.6375 33.157 41.8972 32.9403 42.0793 32.6636C42.2615 32.3869 42.358 32.0627 42.3568 31.7314C42.354 31.5073 42.3069 31.2859 42.2182 31.0801C42.1296 30.8743 42.001 30.6881 41.8401 30.5322C41.6792 30.3762 41.489 30.2537 41.2805 30.1717C41.072 30.0896 40.8494 30.0496 40.6254 30.054ZM0 22.7709C0 15.8955 4.92429 10.5418 12.2246 10.5418C19.5248 10.5418 24.4491 15.8955 24.4491 22.7709C24.4491 29.6462 19.5248 35 12.2246 35C4.92429 35 0 29.6446 0 22.7709ZM16.7048 22.7709C16.7048 19.9995 15.0744 17.7519 12.2312 17.7519C9.38796 17.7519 7.75758 19.9995 7.75758 22.7709C7.75758 25.5422 9.38796 27.7882 12.2312 27.7882C15.0744 27.7882 16.7048 25.5422 16.7048 22.7709ZM49.1401 26.061V22.8057C49.1401 21.5725 49.4599 18.8111 52.5749 18.8111C55.6898 18.8111 56.008 21.5725 56.008 22.8057V34.2193H64.2394V19.799C64.2394 17.0044 63.2287 10.7357 55.1795 10.7357C51.2162 10.7357 48.2206 13.2535 47.7235 13.8054C47.528 13.5452 45.9771 10.7357 41.1489 10.7357C37.3265 10.7357 35.4012 12.7512 34.5214 13.8551L34.2298 11.3208H26.2999V34.2193H34.5297V22.8057C34.5297 21.5725 34.8478 18.8111 37.9627 18.8111C41.0777 18.8111 41.3975 21.5725 41.3975 22.8057V26.061C43.932 25.3693 46.6056 25.3693 49.1401 26.061Z" fill="#E73C3E"></path>
</svg>