<svg class="svg-logo" xmlns="http://www.w3.org/2000/svg" viewBox="0 0 322 62.09">
	<path fill="currentColor" d="M105.18,37.22q-3.87-3.66-11.24-4v-.54q6.51-.21,10.22-3.29a10.25,10.25,0,0,0,3.68-8.34,10.43,10.43,0,0,0-4-8.71c-2.7-2.1-6.47-3.15-11.35-3.15H64.49V61.8H90.17c6,0,10.72-1.31,14-3.95S109,51.47,109,46.56A12.22,12.22,0,0,0,105.18,37.22Zm-29.11-19H88.75a8.08,8.08,0,0,1,5.42,1.62A5.66,5.66,0,0,1,96,24.4a6.27,6.27,0,0,1-2.18,5.11,9.6,9.6,0,0,1-6.25,1.81H76V18.24ZM95.13,51a8.54,8.54,0,0,1-5.7,1.81H76.07V39.44H88.83A9.54,9.54,0,0,1,95,41.25a5.82,5.82,0,0,1,2.3,4.8A6.21,6.21,0,0,1,95.13,51ZM127,9.22,107.16,61.8H119l4.34-12.4h21.48l4.43,12.4H161.5L141.07,9.22Zm-.51,31.32,3.06-8.79q2.55-7.37,4.2-13.22h.51q2,6.46,4.28,13.13l3.15,8.86h-15.2Zm72.2-10.81c0,6.67.09,12,.23,15.86h-.54c-1.5-2.61-4-6.61-7.35-12l-1.13-1.81L175.63,9.22H162.94V61.8h11.18V42.64q0-11.74-.22-18.38h.62q1.88,3.22,7.49,12.51c1.11,1.7,1.9,3,2.41,3.83l13.22,21.17H210V9.22H198.69Zm50.25-17.64a32.18,32.18,0,0,0-13.82-2.87h-21V61.8h21q12.09,0,19.5-6.42T262,35.52c0-5.84-1.16-10.75-3.49-14.67A21.63,21.63,0,0,0,248.94,12.09Zm-3,36.37q-4.17,4.31-11.23,4.31h-9.08V18.24h9c4.77,0,8.51,1.39,11.29,4.17s4.17,7.15,4.17,13.11C250.13,41.25,248.74,45.59,246,48.46ZM265.54,61.8h11.57V18.24h16.8V61.8H305.4V18.24H322v-9H265.54ZM27.41,33.42c-5.31-1-15.18-1.27-15.92-7.35-.59-4.93,4.6-10.29,4.6-10.29h1.16C16.23,27.58,29,31.86,36,29.42A14.83,14.83,0,0,0,46.13,15.69C46.13,6.21,39.55,0,28.66,0H0V9.16H29.48c4.45,0,7.63,3,7.63,6.59a6.45,6.45,0,0,1-4.91,6.52c-5,1.08-10.47-1.9-11.89-6.55a3.34,3.34,0,0,0-5-2.16C5,18.78,3.6,25.76,3.4,27.81c-.79,7.43,4,12.73,21.51,13.39,5.45.2,10.44,1,12.51,3.12C40,47,38.79,52.46,32.8,52.26c-4.48-.17-7.18-2-10.07-4.42C20.06,45.62,16,43,11.86,43,6.75,43,.79,48.94.06,61.8H10.33s-.34-10.13.76-16.21h1.08c0,.06,5.68,15.27,19.95,16.43,9.76.83,14.1-6.24,14.1-12.42C46.16,38.13,35.44,34.87,27.41,33.42Z"></path>
</svg>