<svg class="icon icon--logo" xmlns="http://www.w3.org/2000/svg" width="117" height="32" viewBox="0 0 117 32" fill="none"><g fill="currentColor"><path d="M31.717 22.205v-8.713c0-1.19-.333-2.155-.999-2.893a3.645 3.645 0 0 0-2.555-1.21h-.358a7.926 7.926 0 0 0-2.978.666c-.465.228-.814.407-1.047.54a3.725 3.725 0 0 0-1.606-.983 4.662 4.662 0 0 0-1.455-.253c-.12 0-.24.01-.358.026a4.762 4.762 0 0 0-1.526.377l-.325-.179h-2.418v12.622h2.755v-9.636a3.577 3.577 0 0 1 1.803-.582c.342 0 .677.087.976.253.79.386 1.186 1.181 1.186 2.385v7.58h2.755v-9.731l.337-.139a4.575 4.575 0 0 1 1.552-.36c.28-.01.559.06.802.203.484.337.726 1.126.726 2.366v7.66h2.733Zm-19.125-6.201c0-.443-.175-.868-.486-1.18a1.656 1.656 0 0 0-1.175-.49H4.288c-.923 0-2.31-.224-2.06.716s1.137 2.623 2.06 2.623h6.643c.441 0 .864-.176 1.175-.489.311-.313.486-.738.486-1.18Z"></path><path d="M23.869 0C18.307 0 12.64 3.28 9.715 8.11c-1.512.035-4.656-.094-7.81 0-.948.025-2.116-.182-1.871.636.265.88 1.255 2.833 2.178 2.843 10.001.1 9.795.098 10.36-1.026 2.135-4.169 6.734-7.217 11.29-7.217 6.93 0 12.362 5.555 12.362 12.64 0 7.087-5.432 12.642-12.363 12.642-4.57 0-9.109-2.781-11.308-6.917-.09-.167-.359-.873-.681-1.107-.2-.11-.427-.165-.655-.16H6.659c-.924 0-2.456-.061-2.081.912.237.896 1.35 2.475 2.27 2.475l3.01-.026C12.79 28.615 18.317 32 23.856 32c8.656 0 15.7-7.181 15.7-16.004C39.558 7.174 32.526 0 23.87 0Zm69.26 17.055a3.398 3.398 0 0 1-.375 1.751c-.252.41-.752.618-1.502.618s-1.265-.181-1.54-.556c-.275-.374-.406-.94-.406-1.712V9.284h-2.762v8.278c0 3.074 1.57 4.61 4.708 4.608a5.534 5.534 0 0 0 1.877-.427l.178.15h2.579V9.279h-2.757v7.777ZM64.28 9.564a1.565 1.565 0 0 0-.712-.339 4.354 4.354 0 0 0-1.25-.167c-1.453 0-2.609.408-3.47 1.224-.86.816-1.29 1.96-1.29 3.434v3.75c0 1.545.409 2.72 1.227 3.525.817.804 1.961 1.207 3.43 1.209.902 0 1.579-.17 2.03-.503v1.36c0 .653-.163 1.143-.49 1.47a1.8 1.8 0 0 1-1.34.49h-.581c-.456 0-1.14-.143-1.016.457.123.602.56 1.71 1.016 1.71h1.31c2.565-.025 3.848-1.25 3.848-3.675V9.278H64.79l-.51.286Zm-.019 6.509c0 1.223-.134 2.103-.401 2.642-.267.54-.81.808-1.628.806-1.265 0-1.898-.814-1.898-2.442v-3.253a2.358 2.358 0 0 1 .439-1.431c.29-.391.778-.59 1.464-.59 1.352 0 2.029.716 2.029 2.147l-.005 2.12Zm15.003-6.545a5.115 5.115 0 0 0-2.175-.477 6.996 6.996 0 0 0-2.179.38l-.325-.15H72.16V21.89h2.729v-9.72a3.934 3.934 0 0 1 1.71-.46c.34-.004.675.073.978.225.714.369 1.071 1.04 1.073 2.013v7.93h2.752V13.18c-.006-1.775-.719-2.992-2.138-3.652Zm-26.917 3.03a3.045 3.045 0 0 0-.202-.919 19.232 19.232 0 0 0-.377-.792 1.906 1.906 0 0 0-.624-.732c-.296-.2-.606-.38-.928-.537a4.288 4.288 0 0 0-1.288-.379 11.875 11.875 0 0 0-1.331-.11c-.102 0-.183-.016-.238-.016h-.773c-.453 0-1.137-.146-1.016.455s.513 1.403.985 1.52l1.383.014c1.149.171 1.724.69 1.725 1.552a5.468 5.468 0 0 0-1.328-.515 8.93 8.93 0 0 0-1.899-.27 1.332 1.332 0 0 0-.275-.026 3.362 3.362 0 0 0-1.66.404c-1.15.569-1.727 1.682-1.728 3.339v2.447c.133 2.43 1.568 3.798 4.306 4.102.392.036.783.052 1.187.05 1.034 0 2.42-.084 4.155-.253v-8.438c0-.217-.043-.52-.074-.897Zm-2.681 6.882a7.835 7.835 0 0 1-1.452.15c-1.77 0-2.655-.771-2.655-2.315v-1.379c0-.504.166-.856.5-1.056.245-.139.522-.208.802-.2.134-.001.268.007.401.023.465.078.922.199 1.364.36.366.13.715.303 1.04.516v3.901Zm65.988-9.16a3.63 3.63 0 0 0-2.553-1.193h-.359a7.928 7.928 0 0 0-2.98.656c-.474.238-.818.42-1.051.55a3.792 3.792 0 0 0-1.609-.98 4.553 4.553 0 0 0-1.452-.252c-.119 0-.238.009-.356.026a4.724 4.724 0 0 0-1.53.38l-.325-.182h-2.428v12.612h2.753v-9.65a3.605 3.605 0 0 1 1.824-.577c.343-.003.68.084.978.253.783.386 1.178 1.181 1.186 2.385v7.577h2.753v-9.73l.334-.14a4.537 4.537 0 0 1 1.552-.357c.281-.011.559.058.802.2.487.337.73 1.126.729 2.366v7.651h2.745V13.18c-.006-1.198-.344-2.164-1.013-2.9Z"></path></g></svg>