<svg class="u-icon u-icon--logo" viewBox="0 0 129 52" xmlns="http://www.w3.org/2000/svg">
    <path d="M0 14.7752V11.6906H9.66077L10.2103 13.8416C12.0891 11.7846 14.7429 10.9893 17.1243 10.9893C23.1684 10.9893 29.1204 15.5724 29.1204 23.1941C29.1204 30.3495 23.809 35.8202 17.1243 35.8202C14.2394 35.8202 12.1333 35.0258 10.4856 33.6692V41.0568C10.4856 42.9276 11.3554 43.676 11.8129 43.676V46.7625H0V43.677C0.457487 43.677 1.32737 42.9286 1.32737 41.0577V17.3963C1.32737 15.5254 0.457487 14.7752 0 14.7752ZM19.9631 23.1922C19.9631 13.7898 13.7359 11.871 10.4856 16.4091V30.1989C14.0111 35.3424 19.9631 32.3605 19.9631 23.1941V23.1922Z"></path>
    <path d="M30.0488 31.9854C30.5063 31.9854 31.3762 31.238 31.3762 29.3671V17.3963C31.3762 15.5254 30.5063 14.7771 30.0488 14.7771V11.6906H40.5335V29.3671C40.5335 31.238 41.4033 31.9854 41.8618 31.9854V35.0718H30.0488V31.9854ZM35.4973 -2.24195e-05C36.1003 -0.00604787 36.6983 0.110792 37.2565 0.343662C37.8146 0.576532 38.3217 0.920754 38.7481 1.35619C39.1744 1.79163 39.5114 2.30953 39.7395 2.8796C39.9675 3.44967 40.0819 4.06046 40.076 4.67623C40.076 5.91644 39.5936 7.10587 38.7349 7.98283C37.8763 8.8598 36.7117 9.35248 35.4973 9.35248C34.283 9.35248 33.1184 8.8598 32.2598 7.98283C31.4011 7.10587 30.9187 5.91644 30.9187 4.67623C30.9128 4.06046 31.0272 3.44967 31.2552 2.8796C31.4832 2.30953 31.8203 1.79163 32.2466 1.35619C32.673 0.920754 33.18 0.576532 33.7382 0.343662C34.2964 0.110792 34.8944 -0.00604787 35.4973 -2.24195e-05Z"></path>
    <path d="M62.6627 48.3061C66.2793 45.968 67.974 42.8374 66.8289 41.5719C64.4024 38.9536 59.7327 47.8389 51.6736 47.8389C42.0589 47.8389 41.6925 36.8055 46.8667 32.3134C44.3482 30.0213 42.7916 26.8447 42.8827 23.2411C43.0659 15.7575 48.9728 10.8021 55.9779 10.9422C59.3663 10.9892 62.4335 12.0647 64.7228 13.9816C67.4245 11.1763 66.921 7.24838 61.8839 6.07884L65.1352 1.40259C69.7598 4.72317 70.5837 11.4104 66.0971 15.2913C67.882 17.3492 68.9811 20.0145 68.9811 23.2411C69.0271 30.3495 63.1662 35.8671 55.9779 35.8201C53.5475 35.8171 51.1616 35.1549 49.0639 33.9013C46.3171 36.2394 47.3242 38.6715 49.5675 38.6715C53.8258 38.6715 57.2602 36.7527 61.4264 36.7527C70.2173 36.7527 72.5113 45.684 66.9689 51.997L62.6627 48.3061ZM55.9779 33.6691C57.8567 33.6691 59.8238 30.2084 59.8238 23.2411C59.8238 16.5069 57.9009 13.0932 55.9779 13.0472C54.0052 12.9512 51.9939 16.3668 51.9939 23.2411C51.9939 30.2084 53.9629 33.7161 55.9779 33.6691Z"></path>
    <path d="M70.0059 31.9854C70.4633 31.9854 71.3342 31.238 71.3342 29.3671V5.70571C71.3342 3.83483 70.4633 3.08648 70.0059 3.08648V0H80.4914V29.3671C80.4914 31.238 81.3613 31.9854 81.8188 31.9854V35.0719H70.0059V31.9854Z"></path>
    <path d="M82.8392 23.1481C82.9331 14.7301 89.2956 10.9423 95.8433 10.9423C101.795 10.9423 106.877 15.9927 106.877 21.6984C106.877 22.5868 106.374 23.1011 105.504 23.1011H91.9964C91.9964 35.7732 101.383 35.0719 104.908 28.8999H107.107C99.9184 41.8991 82.5648 34.5576 82.8392 23.1481ZM98.2697 20.903C101.268 20.8157 99.1856 13.0002 96.1636 13.0002C94.3102 13.0002 92.2435 14.9124 92.0969 21.165L98.2697 20.903Z"></path>
    <path d="M110.183 13.7954H106.932V11.6904C109.221 10.9891 113.068 5.75156 113.616 2.85217H119.34V11.6904H125.475V13.7954H119.34V25.1579C119.434 30.9567 120.53 33.1077 122.133 33.1077C123.918 33.1077 126.025 30.9106 126.804 28.8997H129.001C126.941 33.716 123.323 35.82 119.569 35.82C114.762 35.82 110.183 31.8451 110.183 25.1579V13.7954Z"></path>
    <path d="M80.6932 42.7021C80.9412 42.7021 81.1423 42.4968 81.1423 42.2435C81.1423 41.9902 80.9412 41.7849 80.6932 41.7849C80.4452 41.7849 80.2441 41.9902 80.2441 42.2435C80.2441 42.4968 80.4452 42.7021 80.6932 42.7021Z"></path>
    <path d="M78.1765 44.5048C78.1765 44.5048 76.1314 46.1359 77.425 47.4723C78.571 48.6601 83.5715 45.1275 84.8706 44.477C84.8706 44.477 85.81 43.9359 85.8749 44.0069C85.9397 44.0779 85.6306 44.5048 85.6306 44.5048C85.6306 44.5048 84.1276 46.842 84.5437 47.4042C84.9599 47.9664 85.9998 47.314 85.9998 47.314C85.9998 47.314 89.2821 45.3415 90.2656 44.8195C91.1947 44.3283 91.6879 44.524 91.7959 44.5701C92.0251 44.666 92.0185 45.0152 92.0185 45.0152C92.0185 45.0152 91.9875 46.322 92.2834 46.8123C92.6592 47.4445 93.2153 48.1487 96.1425 47.5596C99.0697 46.9706 100.512 46.133 101.221 45.8615C101.248 45.8503 101.272 45.833 101.291 45.8109C101.31 45.7887 101.324 45.7624 101.331 45.7339C101.339 45.7054 101.34 45.6755 101.334 45.6465C101.329 45.6176 101.316 45.5903 101.299 45.5669C101.196 45.4019 100.988 45.5218 100.988 45.5218C100.988 45.5218 97.5253 46.9408 96.0429 47.1298C94.5399 47.3217 93.3187 47.1663 92.9964 46.464C92.6742 45.7617 92.8527 44.8876 92.8236 44.4194C92.8011 44.0616 92.7823 43.46 91.5855 43.6864C90.3887 43.9129 88.6132 45.0575 87.981 45.4652C87.3488 45.873 85.3789 47.0771 85.3197 46.7441C85.2859 46.5522 85.6297 45.7252 85.8993 45.3386C86.2234 44.8752 86.6395 44.3484 87.1036 43.6116C87.3234 43.2605 87.1609 42.8978 86.7062 42.94C86.3305 42.9774 85.2971 43.6202 85.0689 43.7555C82.0233 45.5602 80.5597 46.3719 79.1328 46.9379C78.076 47.3582 77.6936 46.7374 77.7077 46.4515C77.7246 46.1109 77.9388 45.6638 78.3052 45.2436C78.6715 44.8234 79.037 44.5288 79.0886 44.3801C79.1328 44.2506 79.0435 44.0069 78.7288 44.1489C78.5376 44.2556 78.3531 44.3745 78.1765 44.5048Z"></path>
    <path d="M120.551 45.189C120.551 45.189 117.898 46.5955 116.437 47.0541C114.975 47.5127 114.213 47.27 113.845 46.8996C113.412 46.466 113.446 45.5641 113.956 44.9625C114.594 44.2084 115.492 43.5647 116.545 43.0667C117.314 42.7031 117.812 43.0581 117.812 43.0581C117.812 43.0581 118.438 43.3574 118.005 44.3495C117.641 45.1823 115.786 45.5152 115.182 45.6246C114.905 45.6744 113.557 45.8798 112.81 45.9997C112.599 46.0333 109.71 46.6099 109.389 46.6713C109.068 46.7327 106.776 47.4388 105.974 47.7324C105.45 47.9243 105.233 47.6518 105.163 47.4446C105.131 47.3486 105.032 46.9428 105.928 46.8229C106.608 46.7327 107.538 46.535 108.808 46.0246C110.078 45.5142 110.572 44.7946 110.719 44.1624C110.88 43.4745 110.438 43.4793 110.438 43.4793C110.438 43.4793 110.186 43.2385 108.951 43.7892C107.381 44.4895 106.059 46.0918 105.861 46.3451C105.663 46.5984 105.408 46.9649 104.982 46.8056C104.642 46.679 104.841 46.3614 104.841 46.3614C104.841 46.3614 107.716 43.3478 109.712 40.7305C110.112 40.2076 110.84 39.0947 111.043 39.0688C111.157 39.0511 111.274 39.0779 111.369 39.1436C111.369 39.1436 111.754 39.3211 111.378 39.7279C111.002 40.1347 108.475 43.4073 108.475 43.4073C108.475 43.4073 109.934 42.6398 110.617 42.7357C111.392 42.8384 111.446 43.4217 111.446 43.4217C111.446 43.4217 111.608 44.5414 110.78 45.3329C109.926 46.1474 109.714 46.0937 109.714 46.0937L114.58 45.3367C114.58 45.3367 117.399 44.9318 117.498 43.9935C117.618 42.8422 115.224 44.3715 114.621 45.0585C114.621 45.0585 113.861 45.9287 114.418 46.4698C114.975 47.0109 116.338 46.5859 116.605 46.4928C116.872 46.3998 119.129 45.354 120.538 44.6219C121.605 44.0674 122.204 43.5512 123.433 43.1828C124.007 43.013 124.963 42.7472 124.936 43.2078C124.917 43.5474 124.286 43.5685 124.286 43.5685C124.286 43.5685 123.03 43.6309 122.133 44.2036C121.845 44.3878 120.955 44.8666 120.906 45.5468C120.855 46.2798 121.349 46.4381 121.349 46.4381C121.349 46.4381 122.664 46.7461 123.624 45.684C124.622 44.574 125.767 42.1821 125.767 42.1821L127.031 39.8037C127.031 39.8037 127.199 39.5159 127.455 39.6396C127.71 39.7634 127.507 40.1577 127.507 40.1577L126.262 42.8C126.262 42.8 125.259 44.6977 125.314 45.8798C125.361 46.915 126.241 47.2681 127.078 47.1117C127.589 47.0157 127.992 46.4305 128.111 46.2914C128.281 46.0995 128.462 46.086 128.542 46.1647C128.622 46.2434 128.629 46.4525 128.276 46.7922C127.923 47.1318 127.242 47.8216 126.154 47.6259C124.938 47.4081 124.782 46.3863 124.782 46.3863C124.782 46.3863 124.519 45.6389 124.936 44.692C125.3 43.8659 125.424 43.5493 125.424 43.5493C125.424 43.5493 124.699 45.4921 123.94 46.1714C123.182 46.8507 121.968 47.2892 121.184 47.1251C120.47 46.9764 120.339 46.1791 120.339 46.1791C120.339 46.1791 120.266 45.5967 120.551 45.189Z"></path>
</svg>