<svg class="svg-logo-short " xmlns="http://www.w3.org/2000/svg" viewBox="0 0 66 29" fill="none">
			<g fill="currentColor" clip-path="url(#a)"><path d="M0 5.783h4.308c.757 0 1.37.247 1.877.751.507.507.75 1.12.75 1.877v20.517h6.08V8.414c0-.757.246-1.37.75-1.877.507-.507 1.12-.75 1.877-.75h4.308V.063H0v5.72ZM32.43 21.413 42.8.064H21.9v5.72h8.556c.922 0 1.53.966 1.126 1.798L21.21 28.931h21.943v-5.72h-9.598c-.923 0-1.53-.966-1.126-1.798ZM61.297 1.253C59.94.465 58.417.064 56.767.064h-11.54v28.867h6.366v-9.414c0-1.082.882-1.965 1.965-1.965h3.21c1.648 0 3.172-.387 4.532-1.154a8.867 8.867 0 0 0 3.273-3.197 8.496 8.496 0 0 0 1.192-4.393c0-1.58-.4-3.06-1.192-4.392A8.592 8.592 0 0 0 61.3 1.253h-.004Zm-9.754 6.248a2.53 2.53 0 0 1 .93-.898 2.648 2.648 0 0 1 1.35-.354h2.547c.466 0 .895.12 1.28.354.406.235.732.547.966.932.235.385.35.801.35 1.273 0 .473-.115.889-.35 1.274-.234.385-.56.697-.973.935-.378.232-.807.35-1.273.35h-2.546a2.88 2.88 0 0 1-1.343-.312c-.384-.235-.7-.55-.929-.926a2.678 2.678 0 0 1-.319-1.32c0-.495.107-.94.313-1.308h-.003Z"></path></g><defs><clipPath id="a"><path fill="#fff" d="M0 .064h65.76V28.93H0z"></path></clipPath></defs>
		</svg>