<svg class="logo-svg h-auto max-w-full w-[100px]" enable-background="new 0 0 199.5 42.3" version="1.1" viewBox="0 0 199.5 42.3" xmlns="http://www.w3.org/2000/svg">
  <path fill="currentColor" d="m95.4 18.9h-6.7c-0.3 0-0.5-0.2-0.5-0.5v-17.6c0-0.3 0.2-0.5 0.5-0.5h6.7c0.3 0 0.5 0.2 0.5 0.5v17.5c0 0.3-0.2 0.6-0.5 0.6zm-36.9-0.6v-17.5c0-0.3-0.2-0.5-0.5-0.5h-6.7c-0.3 0-0.5 0.2-0.5 0.5v17.5c0 0.3 0.2 0.5 0.5 0.5h6.7c0.3 0.1 0.5-0.2 0.5-0.5zm29.7 5.7v2.5c0 4.3-3.5 7.9-7.9 7.9h-14c-4.3 0-7.9-3.5-7.9-7.9v-2.5c0-0.3-0.2-0.5-0.5-0.5h-6.7c-0.3 0-0.5 0.2-0.5 0.5v2.6c0 8.5 6.9 15.4 15.4 15.4h14.2c8.5 0 15.4-6.9 15.4-15.4v-2.6c0-0.3-0.2-0.5-0.5-0.5h-6.7c-0.1 0-0.3 0.2-0.3 0.5zm110.9-5.7v-17.5c0-0.3-0.2-0.5-0.5-0.5h-6.7c-0.3 0-0.5 0.2-0.5 0.5v17.5c0 0.3 0.2 0.5 0.5 0.5h6.7c0.3 0.1 0.5-0.2 0.5-0.5zm-37.4 0v-17.5c0-0.3-0.2-0.5-0.5-0.5h-6.7c-0.3 0-0.5 0.2-0.5 0.5v17.5c0 0.3 0.2 0.5 0.5 0.5h6.7c0.3 0.1 0.5-0.2 0.5-0.5zm29.7 5.7v2.5c0 4.3-3.5 7.9-7.9 7.9h-14c-4.3 0-7.9-3.5-7.9-7.9v-2.5c0-0.3-0.2-0.5-0.5-0.5h-6.7c-0.3 0-0.5 0.2-0.5 0.5v2.6c0 8.5 6.9 15.4 15.4 15.4h14.2c8.5 0 15.4-6.9 15.4-15.4v-2.6c0-0.3-0.2-0.5-0.5-0.5h-6.7c-0.1 0-0.3 0.2-0.3 0.5zm-80.1-5.7v-10.3h19.5c4.3 0 7.9 3.5 7.9 7.9v2.5c0 0.3 0.2 0.5 0.5 0.5h6.7c0.3 0 0.5-0.2 0.5-0.5v-2.6c0-8.5-6.9-15.4-15.4-15.4h-26.8c-0.3 0-0.5 0.2-0.5 0.5v17.5c0 0.3 0.2 0.5 0.5 0.5h6.7c0.2 0 0.4-0.3 0.4-0.6zm-103.2 0v-17.5c0-0.3-0.2-0.5-0.5-0.5h-6.6c-0.3 0-0.5 0.2-0.5 0.5v17.5c0 0.3 0.2 0.5 0.5 0.5h6.7c0.2 0.1 0.4-0.2 0.4-0.5zm135.6 23.8h8c0.3 0 0.5-0.4 0.3-0.7l-7.9-11.5c-2.7-4-7.3-6.4-12.1-6.4h-27.9c-0.3 0-0.5 0.2-0.5 0.5v17.5c0 0.3 0.2 0.5 0.5 0.5h6.7c0.3 0 0.5-0.2 0.5-0.5v-10.3h20.7c2.3 0 4.5 1.2 5.9 3.1l5.1 7.4c0.1 0.2 0.4 0.4 0.7 0.4zm-103.1 0h8c0.3 0 0.5-0.4 0.3-0.7l-7.9-11.5c-2.7-4-7.3-6.4-12.1-6.4h-27.9c-0.3 0-0.5 0.2-0.5 0.5v17.5c0 0.3 0.2 0.5 0.5 0.5h6.7c0.3 0 0.5-0.2 0.5-0.5v-10.3h20.7c2.3 0 4.5 1.2 5.9 3.1l5.1 7.4c0 0.2 0.3 0.4 0.7 0.4zm-5.9-41.4-12.1 17.6c-0.2 0.2 0 0.5 0.3 0.5h5.3c2.1 0 4.1-1 5.3-2.8l10.3-15.1c0.2-0.3 0-0.7-0.3-0.7h-8c-0.3 0.1-0.7 0.3-0.8 0.5z"></path>
</svg>