<svg class="rtnu-logo-icon" xmlns="http://www.w3.org/2000/svg" width="88" height="88" fill="none" viewBox="0 0 88 88"><path fill="#F7F2EE" d="M65.5808 75.8728 48.7664 46.7529h15.8638v-5.4992H23.3764v5.4992h15.8638L22.4258 75.8728C12.2197 68.941 5.49917 57.2429 5.49917 44 5.49917 22.7691 22.7691 5.49917 44 5.49917 65.2309 5.49917 82.5008 22.7691 82.5008 44c0 13.2363-6.7205 24.941-16.9266 31.8728M44 82.5008c-6.0273 0-11.7311-1.3929-16.8144-3.8752L44 49.4992l16.8144 29.1264C55.7311 81.1079 50.0207 82.5008 44 82.5008ZM44 0C19.7389 0 0 19.7389 0 44s19.7389 44 44 44 44-19.7389 44-44S68.2611 0 44 0Z"></path></svg>