<svg width="138" height="24" viewBox="0 0 138 24" fill="none" xmlns="http://www.w3.org/2000/svg" class="desktop-header__logo h-6 w-auto">
  <path d="M28.8931 24H52.4222L52.3463 17.3379L36.7099 19.0506L36.7343 0H28.8118L28.8931 24Z" class="header-svg-path" fill="currentColor"></path>
  <path d="M119.787 24H127.712L127.65 5.92886H137.28L137.261 0H110.113L110.132 5.92886H119.727L119.787 24Z" class="header-svg-path" fill="currentColor"></path>
  <path d="M103.302 0H94.431L82.4537 24H90.6527L92.447 20.1286L104.527 18.4405L107.137 24H115.439L103.302 0ZM94.9677 14.6594L98.8354 6.24624L102.283 13.6334L94.9677 14.6594Z" class="header-svg-path" fill="currentColor"></path>
  <path d="M81.1689 18.3858H62.9386L62.9278 15.7647L78.3067 13.617L78.2904 8.50068L62.9115 10.6484L62.8953 5.61423H81.1689V0H55.1245L55.1652 11.7319L52.2623 12.1368L52.2813 17.2531L55.1814 16.8482L55.2058 24H81.1689V18.3858Z" class="header-svg-path" fill="currentColor"></path>
  <path d="M7.71656 15.7647L23.0223 13.6252V8.50616L7.69759 10.6484L7.68133 5.61423H26.0824V0H0V24H26.0824V18.3858H7.72469L7.71656 15.7647Z" class="header-svg-path" fill="currentColor"></path>
</svg>