<svg xmlns="http://www.w3.org/2000/svg" viewBox="0 0 150 36" aria-hidden="true" focusable="false" role="presentation" class="logo logo-popsugar" fill="currentColor"><g transform="translate(-969 -722)"><path d="M-2447.1-725.652a5.165,5.165,0,0,1-1.122-3.728v-6.907h2.805v6.907a2.962,2.962,0,0,0,.462,1.97,2.091,2.091,0,0,0,1.7.735,2.09,2.09,0,0,0,1.7-.735,2.976,2.976,0,0,0,.462-1.97v-6.907h2.805v6.907h.013a5.056,5.056,0,0,1-1.135,3.728,4.983,4.983,0,0,1-3.828,1.409A5.063,5.063,0,0,1-2447.1-725.652Zm-56.421-4.576a5.654,5.654,0,0,1,5.91-6.01,5.647,5.647,0,0,1,5.909,6.01,5.634,5.634,0,0,1-5.909,5.985A5.634,5.634,0,0,1-2503.518-730.228Zm2.68,0c0,2.219,1.347,3.553,3.23,3.553s3.229-1.334,3.229-3.553-1.347-3.691-3.229-3.691S-2500.838-732.447-2500.838-730.228Zm125.524,3.815a2.157,2.157,0,0,1,2.157-2.156,2.157,2.157,0,0,1,2.157,2.156,2.158,2.158,0,0,1-2.157,2.157A2.157,2.157,0,0,1-2375.314-726.413Zm-54.352-3.865a5.767,5.767,0,0,1,6.1-6,5.918,5.918,0,0,1,4.8,2.032l-1.808,1.57a3.885,3.885,0,0,0-2.992-1.334c-1.87,0-3.329,1.372-3.329,3.74s1.484,3.741,3.379,3.741,2.431-.749,2.431-.749v-1.733h-2.456v-2.083h5.125v4.838h.013a6.858,6.858,0,0,1-5.187,2A5.78,5.78,0,0,1-2429.666-730.277Zm46.621,6.009-2.506-4.576h-.886v4.576h-2.805v-11.957h4.289a5.2,5.2,0,0,1,3.155.848,3.31,3.31,0,0,1,1.322,2.731,3.346,3.346,0,0,1-2.332,3.429l3.017,4.95Zm-3.417-6.72h1.11a2.381,2.381,0,0,0,1.435-.324,1.345,1.345,0,0,0,.611-1.21,1.355,1.355,0,0,0-.611-1.222,2.3,2.3,0,0,0-1.435-.311h-1.11Zm-14.451,6.72-.848-2.407h-4.264l-.848,2.407h-2.905l4.5-11.97h2.905l4.5,11.97Zm-4.463-4.588h2.967l-1.484-4.289Zm-60.187,2.818,1.359-2a4.806,4.806,0,0,0,3.055,1.472c.885,0,1.559-.424,1.559-1.2,0-.8-.861-1.1-1.372-1.284s-1.384-.486-1.783-.661a4.612,4.612,0,0,1-1.384-.848,2.87,2.87,0,0,1-.91-2.257,3.26,3.26,0,0,1,1.222-2.556,4.771,4.771,0,0,1,3.08-.935,5.817,5.817,0,0,1,3.715,1.434l-1.172,1.921a4.056,4.056,0,0,0-2.606-1.184c-.885,0-1.521.337-1.521,1.047s.661.985,1.184,1.184,1.372.511,1.746.661a4.753,4.753,0,0,1,1.621.948,3.059,3.059,0,0,1,.91,2.256,3.575,3.575,0,0,1-1.384,2.794,4.986,4.986,0,0,1-3.166.959A6.37,6.37,0,0,1-2465.563-726.038Zm-17.257,1.758v-11.945h4.277a4.764,4.764,0,0,1,3.117.9,3.47,3.47,0,0,1,1.248,2.855,3.522,3.522,0,0,1-1.248,2.88,4.764,4.764,0,0,1-3.117.9h-1.471v4.414Zm2.793-6.571h1.084a2.2,2.2,0,0,0,1.347-.324,1.538,1.538,0,0,0,.573-1.284,1.5,1.5,0,0,0-.573-1.272,2.249,2.249,0,0,0-1.347-.324h-1.084ZM-2521-724.28v-11.945h4.277a4.767,4.767,0,0,1,3.118.9,3.472,3.472,0,0,1,1.246,2.855,3.524,3.524,0,0,1-1.246,2.88,4.767,4.767,0,0,1-3.118.9h-1.471v4.414Zm2.793-6.571h1.084a2.2,2.2,0,0,0,1.347-.324,1.538,1.538,0,0,0,.573-1.284,1.5,1.5,0,0,0-.573-1.272,2.251,2.251,0,0,0-1.347-.324h-1.084Z" transform="translate(3490 1475.3)"></path></g></svg>