<svg class="logo" width="184" height="72" viewBox="0 0 184 72" fill="none" xmlns="http://www.w3.org/2000/svg">
  <g stroke="none" stroke-width="1" fill="none" fill-rule="evenodd">
    <g transform="translate(-166.000000, -218.000000)" fill-rule="nonzero" fill="currentColor">
      <g transform="translate(166.000000, 218.645161)">
        <g transform="translate(0.000000, -0.645161)">
          <path d="M7.25560284,0.250210143 L13.1409929,0.250210143 L13.1409929,31.5001401 C13.1409929,34.3973102 13.4019858,39.414682 10.3744681,42.9702998 C6.73361702,47.2502101 0,46.9604931 0,46.9604931 L0.0130496454,45.9596526 C0.0130496454,45.9596526 3.30156028,46.1571869 5.2329078,44.4583917 C7.00765957,42.8912861 7.26865248,41.3241804 7.26865248,37.4261698 L7.26865248,0.250210143 L7.25560284,0.250210143 Z" id="Path"></path>
          <path d="M167.80539,26.2193892 C170.611064,27.3387504 173.416738,28.4449426 175.830922,30.3149342 C181.06383,34.3578033 180.633191,41.3505184 174.930496,44.7217708 C174.773901,44.8139535 174.591206,44.8929672 174.42156,44.9851499 C172.59461,45.6172597 170.571915,45.9859905 168.431773,45.9859905 C160.902128,45.9859905 154.781844,41.5875595 154.155461,36.0039227 L153.007092,36.0039227 C153.633475,42.1538246 160.262695,47 168.431773,47 C177.031489,47 184,41.6534043 184,35.0557579 C184,34.9767442 183.98695,34.9108994 183.98695,34.8318857 C184.156596,31.4606332 182.655887,27.9971981 179.432624,25.4687588 C178.545248,24.7708041 177.631773,24.1123564 176.496454,23.5592603 C175.295887,22.9798263 172.424965,21.8077893 169.984681,20.8859625 C167.179007,19.7666013 164.373333,18.6604091 161.959149,16.8035864 C156.726241,12.7607173 157.156879,5.89969179 162.794326,2.46259456 C163.851348,1.83048473 165.795745,1.13253012 167.935887,1.13253012 C173.67773,1.13253012 178.453901,3.70047632 180.711489,7.38778369 L182.016454,7.38778369 C179.706667,3.12104231 174.382411,0.118520594 167.948936,0.118520594 C161.20227,0.118520594 153.81617,5.46511628 153.81617,12.0627627 C153.81617,12.1417764 153.82922,12.2076212 153.82922,12.2866349 C153.659574,15.6578874 155.160284,19.1213225 158.383546,21.6497618 C159.270922,22.3477164 160.106099,22.9798263 161.319716,23.5592603 C162.520284,24.1386943 165.639149,25.3502382 167.80539,26.2193892" id="Path"></path>
          <path d="M58.3971631,46.3020454 C58.0839716,45.4460633 44.2904965,8.91538246 40.9367376,0 C39.9449645,2.47576352 39.0053901,4.71448585 38.1571631,6.97954609 C38.1571631,6.97954609 38.1571631,6.99271505 38.1571631,6.99271505 L22.5889362,46.3020454 L23.6851064,46.3020454 L38.3920567,9.15242365 L52.2899291,46.3020454 L58.3971631,46.3020454 Z" id="Path"></path>
          <path d="M70.8204255,22.8744746 C70.8204255,17.211824 72.4385816,12.0495937 75.1007092,8.0857383 C75.3225532,7.74334547 75.5574468,7.40095265 75.8053901,7.07172878 C75.8967376,6.96637714 75.9750355,6.84785654 76.066383,6.7425049 C76.3665248,6.36060521 76.6666667,5.99187447 77.0059574,5.63631269 C79.2504965,3.17371813 82.6695035,1.52759877 85.8144681,1.10619221 C86.3495035,1.06668535 86.8714894,1.02717848 87.4195745,1.02717848 C93.3049645,1.02717848 98.6553191,3.39759036 102.596312,7.25609414 L102.596312,5.86018493 C98.550922,2.22555338 93.2397163,0.0131689549 87.4195745,0.0131689549 C78.4675177,0.0131689549 70.7029787,5.26758196 66.9446809,12.9055758 C66.866383,13.0636033 66.8011348,13.2216307 66.7228369,13.3664892 C66.5140426,13.8142337 66.3182979,14.2619781 66.1356028,14.7228916 C66.0312057,14.9862707 65.9398582,15.2628187 65.8485106,15.5261978 C65.6919149,15.9607733 65.5483688,16.3953488 65.430922,16.8299243 C65.391773,16.9747829 65.3526241,17.1064724 65.3265248,17.2513309 C64.8175887,19.1871673 64.5174468,21.2020174 64.5174468,23.2958812 C64.5174468,36.1356122 74.8005674,46.5917624 87.4456738,46.5917624 C93.2658156,46.5917624 98.5770213,44.379378 102.622411,40.7315775 L102.622411,39.3356683 C98.772766,43.1019894 93.5790071,45.4328944 87.8371631,45.538246 C86.0363121,45.4460633 84.1049645,44.945643 81.8734752,43.8526198 C75.4008511,40.57355 70.8204255,32.4219669 70.8204255,22.8744746" id="Path"></path>
        </g>
        <rect x="114" y="0.35483871" width="6" height="46"></rect>
        <polygon points="140.427936 0.35483871 121 21.888153 142.02758 46.3285304 150 46.3548387 125.760231 18.1260712 141.782473 0.35483871"></polygon>
        <path d="M161.917707,60.6042532 L166.909013,60.6042532 L166.909013,59.3677193 L160.604889,59.3677193 L160.604889,70.1873914 L167,70.1873914 L167,68.9508574 L161.917707,68.9508574 L161.917707,65.2541361 L166.532065,65.2541361 L166.532065,64.0176022 L161.917707,64.0176022 L161.917707,60.6042532 Z M143.291297,59.3677193 L143.291297,70.1873914 L144.604115,70.1873914 L144.604115,61.5316537 L150.453301,70.1873914 L151.805113,70.1873914 L151.805113,59.3677193 L150.492296,59.3677193 L150.492296,68.023457 L144.643109,59.3677193 L143.291297,59.3677193 Z M132.970733,70.1873914 L134.28355,70.1873914 L134.28355,59.3677193 L132.970733,59.3677193 L132.970733,70.1873914 Z M118.89369,70.1873914 L125.106826,70.1873914 L125.106826,68.9508574 L120.206508,68.9508574 L120.206508,59.3677193 L118.89369,59.3677193 L118.89369,70.1873914 Z M95.6009297,70.1873914 L96.9137471,70.1873914 L96.9137471,65.9368059 L100.592236,59.3677193 L99.2014289,59.3677193 L96.3158302,64.6873914 L93.391237,59.3677193 L91.9224412,59.3677193 L95.6009297,65.9368059 L95.6009297,70.1873914 L95.6009297,70.1873914 Z M80.821985,70.1873914 L82.1348024,70.1873914 L82.1348024,60.6042532 L85.2673668,60.6042532 L85.2673668,59.3677193 L77.6894207,59.3677193 L77.6894207,60.6042532 L80.821985,60.6042532 L80.821985,70.1873914 Z M68.6426788,66.052731 C68.6426788,67.7916069 67.8627873,69.1311853 65.9780494,69.1311853 C64.0933115,69.1311853 63.31342,67.8044874 63.31342,66.052731 L63.31342,59.3548387 L62.0006026,59.3548387 L62.0006026,66.1815366 C62.0006026,68.641724 63.4823965,70.3548387 65.9780494,70.3548387 C68.4737023,70.3548387 69.9554963,68.641724 69.9554963,66.1815366 L69.9554963,59.3548387 L68.6426788,59.3548387 L68.6426788,66.052731 L68.6426788,66.052731 Z M49.4833434,61.2225202 L51.3550831,66.0269699 L47.6116037,66.0269699 L49.4833434,61.2225202 Z M44.5830249,70.1873914 L45.9868296,70.1873914 L47.1306706,67.2635038 L51.8360162,67.2635038 L52.9798571,70.1873914 L54.3576655,70.1873914 L50.0942584,59.3677193 L48.8724283,59.3677193 L44.5830249,70.1873914 Z M32.3257295,60.6042532 L37.3170354,60.6042532 L37.3170354,59.3677193 L31.0259103,59.3677193 L31.0259103,70.1873914 L37.4210209,70.1873914 L37.4210209,68.9508574 L32.3257295,68.9508574 L32.3257295,65.2541361 L36.9400878,65.2541361 L36.9400878,64.0176022 L32.3257295,64.0176022 L32.3257295,60.6042532 Z M17.3128174,64.0304827 L17.3128174,60.5913727 L19.0935698,60.5913727 C20.328398,60.5913727 21.069295,61.2611619 21.069295,62.3044874 C21.069295,63.3606935 20.3153998,64.0176022 19.0935698,64.0176022 L17.3128174,64.0176022 L17.3128174,64.0304827 Z M19.4185246,68.9508574 L17.3128174,68.9508574 L17.3128174,65.2412556 L19.4185246,65.2412556 C20.9783077,65.2412556 21.6672118,66.0784921 21.6672118,67.0960565 C21.6672118,68.1136209 20.9783077,68.9508574 19.4185246,68.9508574 M16,70.1873914 L19.4185246,70.1873914 C21.5762245,70.1873914 22.9670311,68.9894991 22.9670311,67.0960565 C22.9670311,64.9450026 21.3032625,64.4684218 21.1472842,64.4426607 C21.3032625,64.4168996 22.3821124,63.7986326 22.3821124,62.3302485 C22.3821124,60.5269699 21.1212878,59.3805998 18.8726005,59.3805998 L16,59.3805998 L16,70.1873914 L16,70.1873914 Z" id="Shape"></path>
      </g>
    </g>
  </g>
</svg>