<svg class="icon icon-logo" viewBox="0 0 97.9 15" fill="none" xmlns="http://www.w3.org/2000/svg"> <path d="M3.7,3.9c0.4-0.9,1.3-1.7,3-1.7s2.7,0.7,3.1,1.7c0.4-0.8,1.5-1.7,3.2-1.7c2.4,0,3.4,1.2,3.4,3.2v6.6h-3.8V6.2
		c0-0.9-0.4-1.3-1.2-1.3c-0.9,0-1.3,0.6-1.3,1.6v5.4H6.3V6.2c0-0.8-0.3-1.3-1.2-1.3c-0.9,0-1.3,0.6-1.3,1.6v5.4H0V2.4h3.7V3.9z
		M17.4,9c0-1.5,0.8-2.6,3.1-2.8l2.1-0.2C23.7,6,24,5.8,24,5.2c0-0.5-0.3-0.8-1.2-0.8c-0.9,0-1.2,0.3-1.2,1h-3.8
		c0-1.8,1.1-3.3,4.8-3.3c4,0,5.1,1.2,5.1,3.2v4.3c0,0.9,0.1,1.7,0.3,2.2h-3.8c-0.1-0.2-0.2-0.5-0.2-1c-0.4,0.7-1.3,1.2-2.8,1.2
		C19,12.2,17.4,10.9,17.4,9z M21.3,8.9c0,0.7,0.5,1.1,1.3,1.1c0.9,0,1.5-0.5,1.5-1.3V7.2c-0.1,0.4-0.5,0.6-1.2,0.7L22.2,8
		C21.5,8.1,21.3,8.4,21.3,8.9z M28.8,7.2c0-3.2,1.3-5.1,4.1-5.1c1.6,0,2.5,0.7,3,1.3V0h3.8v11.9H36v-1.1c-0.5,0.8-1.5,1.3-3,1.3
		C30.2,12.2,28.8,10.5,28.8,7.2z M32.7,7.2c0,1.8,0.4,2.6,1.6,2.6C35.5,9.7,36,9,36,7.1c0-1.8-0.4-2.5-1.6-2.5S32.7,5.3,32.7,7.2z
		M41.1,11.9V0h3.8v3.6c0.5-0.8,1.4-1.5,3-1.5c2.4,0,3.4,1.2,3.4,3.3v6.5h-3.8V6.2c0-0.9-0.4-1.3-1.3-1.3c-0.9,0-1.4,0.6-1.4,1.6v5.4
		H41.1z M52.2,9c0-1.5,0.8-2.6,3.1-2.8l2.1-0.2c1.1-0.1,1.4-0.3,1.4-0.9c0-0.5-0.3-0.8-1.2-0.8c-0.9,0-1.2,0.3-1.2,1h-3.8
		c0-1.8,1.1-3.3,4.8-3.3c4,0,5.1,1.2,5.1,3.2v4.3c0,0.9,0.1,1.7,0.3,2.2h-3.8c-0.1-0.2-0.2-0.5-0.2-1c-0.4,0.7-1.3,1.2-2.8,1.2
		C53.9,12.2,52.2,10.9,52.2,9z M56.1,8.9c0,0.7,0.5,1.1,1.3,1.1c0.9,0,1.5-0.5,1.5-1.3V7.2c-0.1,0.4-0.5,0.6-1.2,0.7L57,8
		C56.3,8.1,56.1,8.4,56.1,8.9z M64,15V2.4h3.8v1.2c0.4-0.7,1.4-1.4,3.1-1.4c2.8,0,4.1,1.8,4.1,5c0,3.3-1.3,5-4.2,5
		c-1.4,0-2.4-0.5-2.9-1.2v4H64z M67.7,7.1c0,1.9,0.4,2.6,1.6,2.6S71,9,71,7.2c0-1.8-0.4-2.5-1.6-2.5C68.2,4.6,67.7,5.3,67.7,7.1z
		M75.8,15V2.4h3.8v1.2C80,2.9,81,2.2,82.7,2.2c2.8,0,4.1,1.8,4.1,5c0,3.3-1.3,5-4.2,5c-1.4,0-2.4-0.5-2.9-1.2v4H75.8z M79.6,7.1
		c0,1.9,0.4,2.6,1.6,2.6s1.6-0.7,1.6-2.6c0-1.8-0.4-2.5-1.6-2.5C80.1,4.6,79.6,5.3,79.6,7.1z M86.5,2.4h4.1l1.7,5l1.6-5h4L92.7,15h-4
		l1.6-3.5L86.5,2.4z"></path> </svg>