<svg class=" icon icon--logo" width="191" height="14" viewBox="0 0 191 14" fill="none" xmlns="http://www.w3.org/2000/svg">
      <path d="M18.0579 13.1664H1.08621L0 11.2808L12.7319 2.58534H0.704884V0.314453H16.1865L17.6303 2.38741L5.03708 10.896H18.0579V13.1664Z" fill="currentColor"></path>
      <path d="M61.4521 13.1664H43.6831V0.314453H60.9321V2.58534H46.5945V5.54204H54.7626V7.70648H46.5945V10.896H61.4521V13.1664Z" fill="currentColor"></path>
      <path d="M106.764 13.1664H103.575L90.9589 3.48072V13.1664H87.9551V0.314453H91.0514L103.575 9.82546V0.314453H106.764V13.1664Z" fill="currentColor"></path>
      <path d="M148.749 2.58423H141.482V13.1653H138.571V2.58423H131.408V0.314453H148.749V2.58423Z" fill="currentColor"></path>
      <path d="M190.63 9.04474C190.63 9.82037 190.352 10.5034 189.798 11.0928C189.251 11.6987 188.415 12.1988 187.291 12.5947C186.443 12.8813 185.515 13.097 184.506 13.2406C183.497 13.3847 182.33 13.4562 181.006 13.4562C179.334 13.4562 177.574 13.2888 175.725 12.9562C174.778 12.7621 173.884 12.537 173.045 12.2803C172.198 12.0397 171.254 11.7065 170.214 11.279L172.005 9.13789C172.752 9.48661 173.464 9.77547 174.142 10.0044C174.82 10.2334 175.529 10.4297 176.268 10.5932C176.661 10.6708 177.031 10.7318 177.377 10.7784C177.724 10.825 178.167 10.8715 178.706 10.9181C179.23 10.9885 179.63 11.0229 179.908 11.0229C180.193 11.039 180.493 11.0462 180.809 11.0462C181.694 11.0462 182.552 10.998 183.38 10.9009C184.208 10.8039 184.984 10.6703 185.708 10.4995C186.94 10.1813 187.556 9.69618 187.556 9.04419C187.556 8.60897 187.201 8.24084 186.493 7.93758C185.892 7.70583 185.014 7.58885 183.859 7.58885L177.285 7.3449C175.822 7.3449 174.527 7.07712 173.403 6.54156C172.755 6.2078 172.275 5.83135 171.959 5.41221C171.612 5.00083 171.439 4.50075 171.439 3.91085C171.439 3.24333 171.708 2.64955 172.248 2.12951C172.779 1.60226 173.607 1.15596 174.732 0.791152C176.373 0.263902 178.264 0 180.405 0C181.907 0 183.409 0.151356 184.911 0.454067C185.243 0.523923 185.447 0.566613 185.523 0.582137C185.585 0.597661 186.001 0.706326 186.771 0.908134C187.264 1.02456 187.684 1.12935 188.031 1.22249C188.362 1.33115 188.962 1.52908 189.833 1.81571L187.938 3.72512C187.807 3.67855 187.505 3.58319 187.031 3.44015C186.558 3.296 186.229 3.2012 186.044 3.15463L184.103 2.74713L182.207 2.45606L180.313 2.36292C178.772 2.36292 177.536 2.46771 176.604 2.67728C175.911 2.80146 175.406 2.94506 175.091 3.10806C174.759 3.27882 174.594 3.52331 174.594 3.84155C174.594 4.02007 174.717 4.25293 174.964 4.54011C175.249 4.77241 175.607 4.88884 176.038 4.88884L185.951 5.34291C187.191 5.34291 188.284 5.73488 189.233 6.51883C190.164 7.29501 190.63 8.13661 190.63 9.04474Z" fill="currentColor"></path>
    </svg>