<svg class="gg-logo-narrow gg-svg-fill" fill="none" viewBox="0 0 140 18" xmlns="http://www.w3.org/2000/svg">
  <title>GoGenerosity</title>
  <g fill="#000"><path d="m17.2089 10.3091c1.8012 1.3733 4.2779 2.998 5.8352 2.998.7392 0 1.4712-.1501 2.1541-.4417s1.3034-.719 1.8261-1.2578.9373-1.1785 1.2202-1.88249.4285-1.45852.4285-2.22052-.1456-1.51654-.4285-2.22053-.6975-1.34366-1.2202-1.88247-1.1432-.96622-1.8261-1.25783c-.6829-.2916-1.4149-.44169-2.1541-.44169-1.3697 0-3.9214.87038-6.9235 3.30744-.1126.0967-.3002.25144-.4691.36749l-.075.05802-.0751-.05802c-.1501-.11605-.3565-.27079-.469-.36749-3.0021-2.43706-5.5351-3.30744-6.92355-3.30744-1.49287 0-2.92459.61134-3.98021 1.69952s-1.64866 2.56407-1.64866 4.103c0 1.53892.59304 3.01481 1.64866 4.10301s2.48734 1.6995 3.98021 1.6995c1.55732 0 4.03405-1.6247 5.83525-2.998l.319-.2514-.3002-.27079c-.9757-.85104-1.6699-1.50865-1.8576-1.70207l-.0187-.01934c-.0563-.05803-1.2947-1.31524-2.7394-1.43129l-.31897-.01934c-.67546 0-1.23835.52223-1.23835 1.1605 0 .63828.56289 1.16051 1.23835 1.16051.11767-.00062.23407.02511.34114.07543.10707.05031.20227.124.27899.21597.07673.09197.13316.20002.16539.31669.03223.11666.0395.23915.02129.35899-.05629.46424-.5066.71564-.90062.71564h-.05629c-1.5198-.0774-2.72062-1.31523-2.72062-2.82389 0-1.56668 1.27587-2.82389 2.85196-2.82389l.39402.01934c2.02641.1354 3.62121 1.74076 3.79011 1.91483.5629.54157 1.2759 1.19919 2.139 1.93418l.1876.17407.2064-.15473c.9006-.71564 1.6699-1.45063 2.1765-1.93417.1688-.17408 1.8012-1.77944 3.8088-1.91483l.3941-.01935c1.5761 0 2.8519 1.27656 2.8519 2.8239 0 1.54733-1.2758 2.82384-2.8519 2.82384-.1398-.0009-.2769-.0387-.3985-.1098-.1215-.0711-.2233-.1731-.2958-.2963-.0739-.1359-.1128-.28909-.1128-.44489s.0389-.30899.1128-.44486c.0687-.11958.1682-.21722.2874-.28209s.2536-.09443.3881-.0854c.6942 0 1.2384-.52223 1.2384-1.1605 0-.63828-.5442-1.14117-1.2196-1.16051h-.3002c-1.4073.11605-2.6268 1.2959-2.7582 1.43129v.01934c-.2627.25144-.9381.88972-1.8575 1.68273l-.3002.27079zm5.8352 4.6614c-1.6699 0-4.2029-1.2766-7.28-3.6749l-.1876-.1548-.1876.1548c-3.0772 2.4177-5.59139 3.6749-7.28005 3.6749-.9707-.004-1.93082-.2082-2.82378-.6006s-1.7007-.965-2.37564-1.6842-1.20341-1.5704-1.55429-2.5034c-.35088-.93297-.517067-1.92892-.488766-2.92915.112577-4.00374 3.471136-7.25315 7.486396-7.25315h.26268c1.35093.0580252 3.62125.638277 6.77345 3.13336l.1876.15473.1876-.15473c3.1709-2.514425 5.4412-3.0946766 6.7734-3.13336h.2627c4.0153 0 7.3738 3.24941 7.4864 7.25315.0285 1.00082-.1377 1.9974-.489 2.93085-.3512.9335-.8804 1.785-1.5562 2.5042-.6722.7221-1.4791 1.2965-2.3723 1.6887-.8932.3923-1.8541.5942-2.825.5936z"></path><path d="m37.0977 7.5636c0-3.84191 1.8742-6.7511 6.0104-6.7511 1.982 0 3.0591.53298 3.0591.53298v1.84323c-.9284-.33047-1.9045-.49568-2.8867-.48857-2.8437 0-4.007 1.88765-4.007 4.84125 0 2.95361 1.2279 4.73021 3.9208 4.73021.4272.0055.8537-.0393 1.2711-.1332v-2.86482c-.0023-.20543-.0824-.40179-.2234-.54706-.1409-.14527-.3314-.2279-.5307-.23021h-1.8096v-1.86543h2.3698c.554.00059 1.0852.22773 1.477.63158.3917.40385.6121.95142.6126 1.52255v4.90789c-1.0021.3348-2.0487.5071-3.1022.5108-4.4163 0-6.1612-2.7538-6.1612-6.6401z"></path><path d="m54.0291 9.31738c0-2.02089-.711-3.15348-2.1112-3.15348-1.4434 0-2.1113 1.11038-2.1113 3.15348 0 2.04312.6894 3.24232 2.1113 3.24232 1.3787 0 2.1112-1.1992 2.1112-3.24232zm-6.3768.02221c0-2.97582 1.6804-4.73021 4.244-4.73021 2.6067 0 4.2655 1.75439 4.2655 4.73021 0 2.97581-1.6803 4.79681-4.2655 4.79681-2.5851 0-4.244-1.7988-4.244-4.79681z"></path><path d="m57.4414 7.5636c0-3.84191 1.8742-6.7511 6.0105-6.7511 1.982 0 3.0591.53298 3.0591.53298v1.84323c-.9284-.33047-1.9046-.49568-2.8868-.48857-2.8436 0-4.007 1.88765-4.007 4.84125 0 2.95361 1.228 4.73021 3.9209 4.73021.4272.0054.8536-.0393 1.271-.1332v-2.86482c.0003-.10507-.0196-.20916-.0585-.30629-.0388-.09713-.0959-.18538-.168-.25968-.0721-.07429-.1577-.13317-.2519-.17324-.0942-.04008-.1952-.06056-.2971-.06026h-1.745v-1.86544h2.1974c.5999 0 1.1752.24567 1.5994.68297.4243.43729.6626 1.03039.6626 1.64882v4.70804c-1.0022.3348-2.0487.5071-3.1022.5107-4.4594.0445-6.2044-2.7093-6.2044-6.5956z"></path><path d="m73.7461 8.47226c.043-1.51011-.5602-2.30959-1.6589-2.30959-1.0986 0-1.788.75506-1.9388 2.30959zm-5.7305 1.02155c0-3.06465 1.5511-4.90787 4.0932-4.90787 2.6498 0 3.6192 1.88764 3.6192 3.95294.0093.4459-.0195.89178-.0862 1.33246h-5.5365c.1292 1.75436 1.0341 2.59826 2.779 2.59826.8224-.0114 1.6375-.1614 2.4128-.4441v1.5767s-1.034.5108-2.8005.5108c-2.973 0-4.481-1.8432-4.481-4.61919z"></path><path d="m77.4501 6.91878c0-.55518-.3016-.73285-.8832-.73285h-.1724v-1.39907c.3892-.13072.7974-.19083 1.2064-.17766.991 0 1.5511.44415 1.6804 1.37687.1292-.24429 1.0987-1.37687 2.8221-1.37687 2.2189 0 3.1453 1.4657 3.1453 3.73087v5.64073h-2.0897v-5.59632c0-1.22141-.5601-1.95426-1.7019-1.95426-.3629-.01021-.7237.05982-1.0581.20539-.3344.14556-.6348.36328-.8807.6385v6.68449h-2.0897v-7.03982z"></path><path d="m92.3418 8.47226c.0431-1.51011-.5601-2.30959-1.6588-2.30959s-1.7881.75506-1.9389 2.30959zm-5.752 1.02155c0-3.06465 1.5511-4.90787 4.0932-4.90787 2.6498 0 3.6192 1.88764 3.6192 3.95294.0093.4459-.0195.89178-.0861 1.33246h-5.5366c.1293 1.75436 1.0341 2.59826 2.7791 2.59826.8223-.0114 1.6374-.1614 2.4128-.4441v1.5767s-1.0341.5108-2.8006.5108c-2.9514 0-4.481-1.8432-4.481-4.61919z"></path><path d="m96.0244 6.91931c0-.5774-.3232-.73285-.9479-.73285h-.1077v-1.39908c.3891-.13072.7973-.19083 1.2064-.17766.8617 0 1.4864.2887 1.7018 1.35466.5817-.93271 1.465-1.35466 2.154-1.35466.29-.01529.58.04585.841.17766v1.82102c-.318-.07785-.644-.11515-.9699-.11103-.3441-.01087-.686.05952-.9997.20579-.3136.14626-.5907.36452-.8099.63809v6.61785h-2.0897v-7.03979z"></path><path d="m107.592 9.31738c0-2.02089-.711-3.15348-2.112-3.15348-1.443 0-2.111 1.11038-2.111 3.15348 0 2.04312.69 3.24232 2.111 3.24232 1.379 0 2.112-1.1992 2.112-3.24232zm-6.377.02221c0-2.97582 1.68-4.73021 4.244-4.73021 2.607 0 4.265 1.75439 4.265 4.73021 0 2.97581-1.68 4.79681-4.265 4.79681s-4.244-1.7988-4.244-4.79681z"></path><path d="m110.799 13.6479v-1.5989c.813.2814 1.663.4312 2.521.4441 1.141 0 1.831-.3775 1.831-1.0882 0-.5996-.367-.9105-1.681-1.288-1.465-.44414-2.736-1.08816-2.736-2.79815 0-1.75439 1.422-2.70932 3.62-2.70932.759-.01876 1.517.09384 2.24.33312v1.66556c-.736-.21751-1.496-.33692-2.262-.35532-1.142 0-1.637.39974-1.637.99934 0 .59961.517.93272 1.551 1.22142 2.09.53298 2.887 1.39907 2.887 2.79815 0 1.8654-1.573 2.887-3.792 2.887-.87-.0089-1.732-.182-2.542-.5108z"></path><path d="m118.537 1.72214c0-.732851.431-1.243624 1.185-1.243624.797 0 1.185.532984 1.185 1.221414 0 .68844-.409 1.26583-1.206 1.26583-.754 0-1.164-.55519-1.164-1.24362zm.28 5.19657c0-.53298-.301-.73285-.861-.73285h-.194v-1.39908c.434-.12614.884-.18599 1.335-.17766 1.142 0 1.81.53298 1.81 1.82102v7.52836h-2.09z"></path><path d="m123.275 11.0718v-4.64143h-1.271v-1.64336h1.271v-2.28737l2.068-.2887v2.57607h1.96v1.64336h-1.96v4.61913c0 .9328.345 1.3991 1.206 1.3991.239-.0006.477-.0229.711-.0666v1.5989c-.444.1118-.9.164-1.357.1555-1.788-.0222-2.628-1.066-2.628-3.0646z"></path><path d="m130.968 13.9366-3.253-9.14949h2.111l2.197 6.41799 2.155-6.41799h1.917l-4.61 13.21349h-1.917z"></path><path d="m137.216 2.41102h-.474v-.26649h1.228v.26649h-.474v1.53232h-.28z"></path><path d="m139.457 2.14453-.431 1.24363-.453-1.24363h-.323l-.086 1.79881h.259l.043-1.37687.431 1.24363h.215l.431-1.24363.043 1.37687h.28l-.086-1.79881z"></path></g>
</svg>