<svg class="store-logo" xmlns="http://www.w3.org/2000/svg" fill="none" viewBox="0 0 120 32" height="32" width="120"> <path fill="#4527A0" d="M57.6556 16.8347C57.6199 16.8611 57.5633 16.8592 57.4541 16.8611C57.26 16.8629 57.066 16.8611 56.8719 16.8611C55.3799 16.8611 53.8879 16.8611 52.3958 16.8611C49.7979 16.8611 47.2019 16.8611 44.6041 16.8573C44.378 16.8573 44.3026 16.9175 44.3045 17.145C44.3158 19.0257 45.2804 20.3647 46.8007 21.3125C49.0877 22.7342 52.4599 22.3261 54.2345 19.524C54.2684 19.4695 54.3061 19.4187 54.3551 19.3472C55.378 19.8306 56.401 20.3139 57.4974 20.8329C56.757 21.8109 56.0958 22.753 55.1105 23.5091C54.2138 24.1955 53.1908 24.7164 52.1095 25.0436C50.836 25.4292 49.4758 25.5458 48.1571 25.3445C45.9962 25.0154 43.9956 23.8438 42.5845 22.1851C42.1022 21.619 41.6878 20.9947 41.36 20.327C40.9945 19.5842 40.8042 18.7567 40.6761 17.9387C40.2768 15.3979 40.6969 12.7218 42.1569 10.5685C42.7729 9.66015 43.5623 8.87029 44.476 8.26097C46.1696 7.13071 48.2645 6.62482 50.2915 6.82041C51.9512 6.98026 53.5751 7.61027 54.8505 8.68223C56.6007 10.1548 57.5633 12.3889 57.7555 14.6363C57.812 15.2907 57.8384 15.9997 57.7197 16.6504C57.7046 16.7557 57.6914 16.8084 57.6556 16.8347ZM44.4929 13.9856C44.5494 14.0683 44.6756 14.0345 44.815 14.0382C45.0091 14.0439 45.2012 14.0514 45.3953 14.0552C48.1326 14.1323 50.8718 14.1191 53.6072 14.01C53.9293 13.9969 54.0536 13.8295 54.0047 13.5192C53.967 13.2728 53.8653 13.0377 53.7767 12.8064C53.577 12.2949 53.2756 11.8229 52.8951 11.4242C52.2771 10.7772 51.4633 10.3278 50.5948 10.1096C49.3383 9.79555 47.963 9.97609 46.8402 10.6211C45.8681 11.1797 45.1184 12.0805 44.7152 13.1205C44.6436 13.3029 44.4232 13.7392 44.4741 13.9348C44.476 13.9574 44.4835 13.9724 44.4929 13.9856Z"></path> <path fill="#4527A0" d="M20.0124 0.802734H16.3633V25.3994H20.0124V0.802734Z"></path> <path fill="#4527A0" d="M81.1686 0.816406H77.5195V25.4131H81.1686V0.816406Z"></path> <path fill="#4527A0" d="M59.3027 31.1943C59.3197 27.26 59.3122 23.3257 59.314 19.3933C59.314 15.461 59.3159 11.5286 59.3159 7.59807C59.3159 7.42318 59.3159 7.24828 59.3159 7.07338C59.3159 6.98499 59.3159 6.89472 59.3159 6.78941C60.4368 6.78941 61.5483 6.78941 62.6768 6.78941C62.7107 7.11475 62.6749 7.62252 62.82 7.90461C63.4529 7.73912 64.052 7.41377 64.6812 7.22195C67.8782 6.24967 70.7606 6.86087 73.2906 9.02923C75.8113 11.1901 76.4499 15.1582 75.5513 18.2386C75.4496 18.5903 75.3252 18.9345 75.1802 19.2711C74.1176 21.7197 71.8739 23.574 69.2497 24.1024C67.2151 24.5124 64.9111 24.2472 63.0875 23.2467C62.8614 23.1226 62.7578 23.1903 62.7578 23.4386C62.7578 25.9605 62.7578 28.4843 62.7578 31.0062C62.7578 31.0701 62.7653 31.1341 62.7691 31.1961C61.6124 31.1943 60.4576 31.1943 59.3027 31.1943ZM72.9082 15.5888C72.9101 14.72 72.7104 13.853 72.3185 13.0763C70.8868 10.2385 67.2641 9.08941 64.5626 10.9136C62.6278 12.2188 61.6934 14.7294 62.2623 16.9843C62.3377 17.2852 62.4394 17.5785 62.5637 17.8606C63.3757 19.7036 65.1918 21.0013 67.2151 21.1122C69.8845 21.2589 72.2413 19.32 72.7895 16.7398C72.8667 16.3599 72.9082 15.9744 72.9082 15.5888Z"></path> <path fill="#4527A0" d="M106.214 31.1931C106.481 30.5161 106.745 29.839 107.018 29.1639C107.538 27.8794 108.068 26.5968 108.58 25.3086C108.627 25.192 108.631 25.0303 108.588 24.9118C106.397 18.9333 104.2 12.9567 102.003 6.98006C101.983 6.92176 101.966 6.86158 101.936 6.76943C102.03 6.76943 102.098 6.76943 102.163 6.76943C103.311 6.76943 104.46 6.77319 105.607 6.76567C105.781 6.76379 105.847 6.82397 105.903 6.98006C107.45 11.2491 109 15.5162 110.551 19.7852C110.577 19.8567 110.605 19.9263 110.654 20.0504C110.82 19.6479 110.965 19.2925 111.11 18.9371C112.725 14.9445 114.339 10.9538 115.95 6.95937C116.004 6.82209 116.067 6.76567 116.223 6.76755C117.472 6.77507 118.723 6.77131 120 6.77131C119.962 6.87851 119.934 6.96689 119.9 7.05152C116.679 15.0385 113.457 23.0255 110.236 31.0125C110.213 31.0708 110.198 31.1329 110.179 31.1912C108.857 31.1931 107.536 31.1931 106.214 31.1931Z"></path> <path fill="#4527A0" d="M0 20.7419C1.01165 20.2981 2.0233 19.8542 3.03495 19.4085C3.099 19.3803 3.16305 19.3559 3.21957 19.3333C3.58881 19.8542 3.93356 20.4034 4.397 20.8472C4.82841 21.2591 5.34459 21.5807 5.90034 21.7969C6.73491 22.1204 7.65236 22.2069 8.53967 22.0922C9.17454 22.0094 9.81318 21.8176 10.3068 21.4095C10.8003 21.0014 11.1206 20.3488 11.0057 19.7188C10.8795 19.0268 10.2747 18.5152 9.63421 18.2237C9.22729 18.0394 8.794 17.9191 8.36635 17.7874C7.95378 17.6596 7.55817 17.526 7.13806 17.4207C5.10911 16.913 2.81453 16.4165 1.50711 14.6205C0.877893 13.7554 0.580238 12.659 0.672549 11.5945C0.764859 10.5301 1.24337 9.50518 1.99316 8.73976C2.84656 7.86904 4.00892 7.35751 5.19577 7.07541C8.20622 6.36078 12.1567 7.03216 13.9163 9.82676C14.0369 10.0186 14.1461 10.2161 14.2441 10.4192C14.2573 10.4474 14.2723 10.4775 14.2837 10.5057C14.2874 10.517 14.2874 10.5301 14.2912 10.564C13.2513 11.021 12.2057 11.478 11.1639 11.9349C10.757 11.446 10.4141 10.9815 9.87347 10.6279C9.36858 10.2969 8.79776 10.0694 8.20246 9.96781C7.25674 9.80608 6.25828 9.96781 5.41242 10.4173C4.92072 10.6787 4.44975 11.0811 4.3499 11.6265C4.25947 12.1174 4.49496 12.6251 4.8529 12.973C5.21084 13.321 5.67804 13.5335 6.14336 13.714C8.95601 14.7991 13.1251 14.9063 14.4494 18.1222C14.5625 18.3986 14.6491 18.6864 14.7075 18.9798C14.9242 20.0686 14.7433 21.2346 14.2045 22.2069C13.7091 23.1021 12.9273 23.8224 12.0343 24.3264C11.1413 24.8304 10.1429 25.1238 9.12933 25.2798C7.77105 25.4867 6.36378 25.4359 5.03187 25.0861C3.91661 24.7928 2.85974 24.3 1.97997 23.5478C1.54667 23.1754 1.15671 22.7504 0.827028 22.284C0.659361 22.0452 0.504882 21.7969 0.369242 21.5374C0.23737 21.2873 0.143176 21.0202 0 20.7795C0 20.7682 0 20.7551 0 20.7419Z"></path> <path fill="#4527A0" d="M96.7005 7.99491C96.7476 7.56424 96.7891 7.17872 96.8324 6.78379C97.9947 6.78379 99.1458 6.78379 100.316 6.78379C100.316 12.9936 100.316 19.1959 100.316 25.4114C99.1552 25.4114 98.0098 25.4114 96.8362 25.4114C96.7947 25.0033 96.7533 24.5933 96.7081 24.1401C95.5438 24.661 94.4474 25.1368 93.1682 25.3117C91.9079 25.4847 90.6137 25.417 89.3816 25.1011C87.6936 24.6685 86.1131 23.7677 84.9658 22.4569C83.8109 21.1367 83.1271 19.446 82.8615 17.714C82.5845 15.9142 82.7465 14.0392 83.4134 12.3429C84.0785 10.6485 85.2578 9.14397 86.795 8.16416C89.5549 6.40578 93.4338 6.30423 96.3068 7.8407C96.4217 7.90087 96.5498 7.93661 96.7005 7.99491ZM91.7157 10.1708C91.354 10.2122 90.9848 10.2272 90.6306 10.3006C86.2732 11.2183 84.4854 16.5104 87.3395 19.9331C89.4362 22.4475 92.7199 22.5378 94.9523 20.9768C97.0453 19.5118 97.9363 16.7831 97.147 14.2405C96.4142 11.884 94.0857 10.1463 91.7157 10.1708Z"></path> <path fill="#4527A0" d="M38.7357 16.8347C38.6999 16.8611 38.6434 16.8592 38.5341 16.8611C38.3401 16.8629 38.1461 16.8611 37.952 16.8611C36.46 16.8611 34.9679 16.8611 33.4759 16.8611C30.878 16.8611 28.282 16.8611 25.6841 16.8573C25.4581 16.8573 25.3827 16.9175 25.3846 17.145C25.3959 19.0257 26.3604 20.3647 27.8807 21.3125C30.1678 22.7342 33.54 22.3261 35.3146 19.524C35.3485 19.4695 35.3862 19.4187 35.4351 19.3472C36.4581 19.8306 37.4811 20.3139 38.5775 20.8329C37.8371 21.8109 37.1759 22.753 36.1906 23.5091C35.2939 24.1955 34.2709 24.7164 33.1895 25.0436C31.916 25.4292 30.5559 25.5458 29.2371 25.3445C27.0763 25.0154 25.0756 23.8438 23.6646 22.1851C23.1823 21.619 22.7679 20.9947 22.4401 20.327C22.0746 19.5842 21.8843 18.7567 21.7562 17.9387C21.3568 15.3979 21.7769 12.7218 23.237 10.5685C23.853 9.66015 24.6423 8.87029 25.556 8.26097C27.2496 7.13071 29.3445 6.62482 31.3716 6.82041C33.0313 6.98026 34.6552 7.61027 35.9306 8.68223C37.6807 10.1548 38.6434 12.3889 38.8356 14.6363C38.8921 15.2907 38.9185 15.9997 38.7998 16.6504C38.7828 16.7557 38.7696 16.8084 38.7357 16.8347ZM25.5711 13.9856C25.6276 14.0683 25.7538 14.0345 25.8932 14.0382C26.0873 14.0439 26.2794 14.0514 26.4735 14.0552C29.2108 14.1323 31.95 14.1191 34.6854 14.01C35.0075 13.9969 35.1318 13.8295 35.0829 13.5192C35.0452 13.2728 34.9435 13.0377 34.8549 12.8064C34.6552 12.2949 34.3538 11.8229 33.9732 11.4242C33.3553 10.7772 32.5415 10.3278 31.673 10.1096C30.4165 9.79555 29.0412 9.97609 27.9184 10.6211C26.9463 11.1797 26.1965 12.0805 25.7934 13.1205C25.7218 13.3029 25.5014 13.7392 25.5523 13.9348C25.5541 13.9574 25.5617 13.9724 25.5711 13.9856Z"></path> </svg>