<svg class="icon icon-logo h-10 lg:h-14 w-auto lg:mx-auto text-menu absolute top-0 origin-top origin-center left-1/2 -translate-x-1/2
 overflow-visible" width="188" height="77" viewBox="0 0 188 77" fill="none" xmlns="http://www.w3.org/2000/svg">
    <path d="M17.5635 0.186226L27.0147 4.28965C27.5185 4.50925 27.8414 5.00442 27.8285 5.55125L27.7984 65.4621C27.8156 67.8906 26.399 70.0952 24.1815 71.0855L12.1425 76.4764C11.5354 76.7476 10.8421 76.7649 10.2178 76.5237L0.912951 72.9198C0.361809 72.7088 0.00012207 72.1792 0.00012207 71.585L0.0173453 11.3598C0.00012207 8.76768 1.53299 6.41241 3.90979 5.37471L15.755 0.190532C16.332 -0.0635105 16.9865 -0.0635105 17.5635 0.190532V0.186226ZM11.3674 66.84L16.4009 69.2685V9.86136L11.3674 7.34677V66.8443V66.84Z" fill="currentColor" stroke-linejoin="round" paint-order="stroke"></path>
    <path d="M64.9792 74.1038V9.77087L59.9457 6.99363L59.9931 67.1758C59.9931 70.5774 57.7153 73.557 54.4343 74.4483L50.1673 75.6065C49.3707 75.8218 48.5827 75.2233 48.587 74.3966V9.51252L43.5493 6.56305L43.5966 67.1801C43.5966 70.5817 41.3189 73.5613 38.0378 74.4526L33.788 75.6065C32.9828 75.8261 32.1863 75.219 32.1906 74.3794L32.2121 9.63308C32.1949 6.98501 33.8397 4.61252 36.3284 3.69969L41.7882 1.69319C42.6795 1.36595 43.6225 2.04196 43.5966 2.99354C43.5751 3.69108 43.5579 4.4532 43.5579 5.17658L51.6872 0.47034C52.1307 0.211992 52.6776 0.20338 53.1297 0.444505L59.3085 3.74275C59.7606 3.98387 60.0276 4.46612 59.9888 4.97851C59.9673 5.27131 59.9501 5.57702 59.9501 5.86981L67.989 0.745911C68.4884 0.427282 69.1214 0.410059 69.6338 0.702853L75.6748 4.13457C76.1442 4.40153 76.4283 4.8924 76.4197 5.43062C76.3595 9.48668 76.3638 50.4219 76.3681 67.1973C76.3681 70.6032 74.086 73.5828 70.7964 74.4655L66.8479 75.529C65.905 75.7831 64.9792 75.0769 64.9792 74.0995V74.1038Z" fill="currentColor" stroke-linejoin="round" paint-order="stroke"></path>
    <path d="M107.981 8.81067C107.977 9.30153 107.964 15.2134 107.96 21.53C107.96 24.9057 105.703 27.8681 102.448 28.7767L97.8927 30.0469C97.2683 30.2191 96.6483 29.7498 96.6483 29.0996V9.68474L91.5287 7.4285V30.5033L104.868 38.1375C106.763 39.2225 107.934 41.2376 107.938 43.4207C107.951 49.9784 107.981 62.8355 107.994 65.9486C108.007 68.3383 106.603 70.4998 104.42 71.4687L92.73 76.6571C92.1229 76.9241 91.4383 76.9413 90.8226 76.6959L84.1572 74.0607C81.7459 73.1049 80.1571 70.7754 80.1571 68.179V52.9365C80.1571 49.6253 82.3186 46.706 85.4834 45.7372L90.2413 44.2818C90.8785 44.0881 91.5244 44.5617 91.5244 45.2291V67.1844L96.644 69.6128V44.2948L83.1669 36.4926C81.3067 35.4162 80.1614 33.4312 80.1614 31.2783V11.2047C80.1614 8.70302 81.6469 6.43817 83.9462 5.44784L95.8905 0.285184C96.4847 0.026836 97.1564 0.026836 97.7549 0.280878L104.205 3.03228C106.517 4.01831 108.007 6.30038 107.981 8.81497V8.81067Z" fill="currentColor" stroke-linejoin="round" paint-order="stroke"></path>
    <path d="M129.14 0.186226L138.591 4.28965C139.095 4.50925 139.418 5.00442 139.405 5.55125C139.34 9.01742 139.34 61.1563 139.375 65.4621C139.392 67.8906 137.975 70.0952 135.758 71.0855L123.719 76.4764C123.112 76.7476 122.418 76.7649 121.794 76.5237L112.489 72.9198C111.938 72.7045 111.572 72.1749 111.572 71.585C111.581 67.0596 111.615 15.4374 111.589 11.3598C111.572 8.76768 113.105 6.41241 115.482 5.37041L127.331 0.190532C127.908 -0.0635105 128.563 -0.0635105 129.14 0.190532V0.186226ZM122.944 66.84L127.977 69.2685V9.86136L122.944 7.34677V66.8443V66.84Z" fill="currentColor" stroke-linejoin="round" paint-order="stroke"></path>
    <path d="M176.555 74.1038V9.77087L171.522 6.99363L171.569 67.1758C171.569 70.5774 169.291 73.557 166.01 74.4483L161.743 75.6065C160.947 75.8218 160.159 75.2233 160.163 74.3966V9.51252L155.125 6.56305L155.173 67.1801C155.173 70.5817 152.895 73.5613 149.614 74.4526L145.364 75.6065C144.559 75.8261 143.762 75.219 143.766 74.3794L143.788 9.63308C143.771 6.98501 145.416 4.61252 147.904 3.69969L153.364 1.69319C154.255 1.36595 155.198 2.04196 155.173 2.99354C155.151 3.69108 155.134 4.4532 155.134 5.17658L163.267 0.47034C163.711 0.211992 164.258 0.20338 164.71 0.444505L170.889 3.74275C171.341 3.98387 171.608 4.46612 171.569 4.97851C171.547 5.27131 171.53 5.57702 171.53 5.86981L179.569 0.745911C180.069 0.427282 180.702 0.410059 181.214 0.702853L187.255 4.13457C187.724 4.40153 188.009 4.8924 188 5.43062C187.94 9.48668 187.944 50.4219 187.948 67.1973C187.948 70.6032 185.666 73.5828 182.377 74.4655L178.428 75.529C177.485 75.7831 176.559 75.0769 176.559 74.0995L176.555 74.1038Z" fill="currentColor" stroke-linejoin="round" paint-order="stroke"></path>
  </svg>