<svg width="19" height="32" viewBox="0 0 131.05 221.28" fill="none" xmlns="http://www.w3.org/2000/svg" class="logo" aria-hidden="true">
  <path d="m58.63,184.2l-28,23.9-19.1-54.1,47.1,30.2Zm-45.7-39.1l48.5-34.2v65.3l-48.5-31.1ZM61.43,16.9v78.1l-42.9-30.4L61.43,16.9ZM15.73,72.8l42.7,30.1-49.5,34.9,6.8-65Zm56.7,111.4l47.1-30.2-19.1,54.1-28-23.9Zm45.7-39.1l-48.5,31.1v-65.3l48.5,34.2Zm-2.7-72.3l6.8,65.1-49.5-35,42.7-30.1Zm-2.8-8.2l-42.9,30.3V16.9l42.9,47.7Zm18.4,79l-8.1-78.1c-.1-1.1-.8-2.6-1.5-3.3L66.83,1.4h-.1l-1.2-1.4-1.2,1.4h-.1L9.63,62.2c-.7.8-1.4,2.3-1.5,3.3L.03,143.6c-.1,1.1.1,2.7.4,3.7l25.7,73c.4,1,1.3,1.3,2.1.6l35.8-30.5c.8-.7,2.1-.7,2.9,0l35.8,30.5c.8.7,1.8.4,2.1-.6l25.7-73c.4-1,.6-2.6.5-3.7" fill="currentColor"></path>
</svg>