<svg class="logo" width="135" height="18" viewBox="0 0 135 18" fill="none" xmlns="http://www.w3.org/2000/svg">
    <g clip-path="url(#clip0_674_1857)">
    <path d="M59.4721 5.61149C59.3529 5.10624 58.861 3.48017 57.2603 2.0568C55.7475 0.710938 53.7071 0 51.3627 0C49.0182 0 46.6708 0.918109 45.0611 2.5874C43.4633 4.24178 42.584 6.51917 42.584 9.00075C42.584 11.4823 43.4633 13.7597 45.0611 15.4141C46.6723 17.0819 48.9109 18.0015 51.3627 18.0015C53.8144 18.0015 55.8295 17.2801 57.3617 15.8597C58.8834 14.4468 59.3574 12.8595 59.4721 12.3662H56.1678C55.6387 13.3633 54.3122 15.0206 51.3612 15.0206C49.7783 15.0206 48.4161 14.4051 47.419 13.2395C46.477 12.1396 45.9568 10.6343 45.9568 9.00075C45.9568 7.36723 46.4755 5.86189 47.419 4.76194C48.4161 3.59791 49.7798 2.98236 51.3612 2.98236C54.5447 2.98236 55.8697 5.14648 56.1186 5.61298H59.4721V5.61149Z" fill="#1E1C1E"></path>
    <path d="M79.092 17.5737V0.427734H75.8667V7.55649H66.3831V0.427734H63.1816V17.5737H66.3831V10.3213H75.8667V17.5737H79.092Z" fill="#1E1C1E"></path>
    <path d="M98.3238 3.19398V0.427734H83.9023V17.5737H98.3238V14.8075H87.1038V10.3213H95.8124V7.55649H87.1038V3.19398H98.3238Z" fill="#1E1C1E"></path>
    <path d="M134.615 3.19398V0.427734H120.195V17.5737H134.615V14.8075H123.397V10.3213H132.105V7.55649H123.397V3.19398H134.615Z" fill="#1E1C1E"></path>
    <path d="M117.514 0.427734H101.008V3.19398H107.66V17.5737H110.861V3.19398H117.514V0.427734Z" fill="#1E1C1E"></path>
    <path d="M20.4369 17.5737V0.427734H15.3664L10.2199 14.1651L10.1991 14.1129L5.07345 0.427734H0V17.5737H3.20295V3.50996L8.49996 17.5737H11.9384L17.2369 3.50996V17.5737H20.4369Z" fill="#1E1C1E"></path>
    <path d="M33.9984 0.427734H30.5599L22.8887 17.5737H26.339L27.9129 14.0399H36.6454L38.2193 17.5737H41.6697L33.9984 0.427734ZM29.1396 11.2721L32.2799 4.20748L35.4203 11.2721H29.1411H29.1396Z" fill="#1E1C1E"></path>
    </g>
    <defs>
    <clipPath id="clip0_674_1857">
    <rect width="134.616" height="18" fill="white"></rect>
    </clipPath>
    </defs>
</svg>