<svg class="logosvg" width="97" height="27" viewBox="0 0 97 27" fill="none" xmlns="http://www.w3.org/2000/svg">
                <path d="M50.5064 5.70947C46.259 5.70947 42.8157 9.19687 42.8157 13.4986C42.8157 17.8003 46.259 21.2877 50.5064 21.2877C52.0371 21.2896 53.5327 20.828 54.7972 19.9635V27H58.1964V13.4993C58.1964 9.19687 54.7538 5.70947 50.5064 5.70947ZM54.7972 13.4986C54.7972 15.8988 52.8761 17.8473 50.5064 17.8473C48.1367 17.8473 46.2149 15.9009 46.2149 13.4986C46.2149 11.0963 48.136 9.14988 50.5064 9.14988C52.8768 9.14988 54.7972 11.0963 54.7972 13.4986Z" fill="#551632"></path>
                <path d="M68.1376 15.2197C68.1413 15.912 67.8707 16.5773 67.3851 17.0696C66.8995 17.5619 66.2388 17.8409 65.5481 17.8451C64.8575 17.8409 64.1967 17.5619 63.7112 17.0696C63.2256 16.5773 62.9549 15.912 62.9587 15.2197V6.06567H59.5546V15.2197C59.5546 18.5711 62.2371 21.2876 65.5453 21.2876C68.8536 21.2876 71.5375 18.5711 71.5375 15.2197V6.06567H68.1376V15.2197Z" fill="#551632"></path>
                <path d="M11.486 12.1365C11.1691 11.4765 10.7365 10.879 10.2088 10.3724C10.5335 10.0467 10.82 9.68471 11.0626 9.29366C11.1839 9.09968 11.2942 8.89899 11.3929 8.69255C11.7822 7.87191 11.9836 6.97444 11.9822 6.06578C11.9822 2.71586 9.30037 4.65075e-06 5.99356 4.65075e-06C5.09498 -0.00112351 4.20796 0.203012 3.39989 0.596904C2.45944 1.05694 1.6546 1.75431 1.06448 2.62046C1.01409 2.69411 0.966498 2.76916 0.919608 2.84492C0.872718 2.92067 0.834227 2.9852 0.793635 3.05534C0.275466 3.97256 0.00391928 5.00895 0.0055979 6.06298H0V8.69045V20.93H0.0055979V20.9363H6.05024C6.60088 20.9365 7.1489 20.8605 7.67881 20.7105C7.73409 20.695 7.78868 20.6789 7.84327 20.6614C8.53703 20.4431 9.18538 20.1001 9.75667 19.6493L9.83786 19.5847C9.98763 19.4627 10.1311 19.3343 10.269 19.1982C10.7679 18.7046 11.1786 18.1288 11.4832 17.4959C11.8873 16.6607 12.0976 15.7447 12.0984 14.8165C12.0987 13.8883 11.8894 12.972 11.486 12.1365ZM3.39989 6.06578C3.39796 5.72252 3.46352 5.38224 3.59282 5.06437C3.72213 4.7465 3.91265 4.45728 4.1535 4.21322C4.39436 3.96916 4.68083 3.77505 4.99655 3.64197C5.31227 3.50888 5.65105 3.43944 5.99356 3.43761C6.33609 3.43944 6.67491 3.50888 6.99067 3.64195C7.30643 3.77503 7.59294 3.96913 7.83385 4.21318C8.07476 4.45723 8.26535 4.74645 8.39473 5.06432C8.52412 5.38219 8.58976 5.72249 8.58792 6.06578C8.59145 6.75879 8.3202 7.42484 7.83381 7.91743C7.34742 8.41003 6.68573 8.68884 5.99426 8.69255H3.39989V6.06578ZM6.21401 17.4987H3.39989V12.14H6.21401C6.89115 12.1855 7.52549 12.4881 7.98777 12.986C8.45005 13.484 8.70547 14.1399 8.70199 14.8201C8.70422 15.4994 8.44824 16.154 7.98609 16.651C7.52393 17.1479 6.8903 17.4498 6.21401 17.4952V17.4987Z" fill="#551632"></path>
                <path d="M28.3477 11.4814C27.4708 8.15809 24.4768 5.70947 20.9167 5.70947C16.6693 5.70947 13.2267 9.19687 13.2267 13.4986C13.2267 17.8003 16.6707 21.2877 20.9167 21.2877C22.0183 21.2878 23.1069 21.049 24.1077 20.5877C25.1086 20.1264 25.998 19.4536 26.715 18.6154L27.3274 20.93H30.8469L28.3484 11.4814H28.3477ZM20.9167 17.8452C18.547 17.8452 16.6259 15.8988 16.6259 13.4965C16.6259 11.0942 18.547 9.14778 20.9167 9.14778C23.2864 9.14778 25.2082 11.0942 25.2082 13.4965C25.2082 15.8988 23.2885 17.8452 20.9167 17.8452Z" fill="#551632"></path>
                <path d="M88.2102 12.1338C88.2102 12.1092 88.2018 12.0847 88.1969 12.0636C87.5314 8.44929 84.4016 5.7124 80.6385 5.7124C76.3911 5.7124 72.9478 9.1998 72.9478 13.5015C72.9478 17.8033 76.3911 21.2907 80.6385 21.2907C82.6395 21.2915 84.5606 20.5034 85.9868 19.0967L83.5842 16.6628C82.7916 17.4238 81.7362 17.8485 80.6385 17.8482C79.7971 17.8461 78.9749 17.5961 78.2742 17.1293C77.5735 16.6625 77.0252 15.9995 76.6976 15.2228C76.6871 15.1989 76.6766 15.173 76.6668 15.1491H88.1549C88.2709 14.6723 88.3294 14.1832 88.3292 13.6923C88.3292 13.6699 88.3292 13.6481 88.3292 13.6222C88.3292 13.5808 88.3292 13.5401 88.3292 13.4987C88.3295 13.0411 88.2897 12.5844 88.2102 12.1338ZM76.4583 12.4144C76.9146 10.2302 78.7307 8.86944 80.6392 8.86944C82.6513 8.86944 84.3792 10.2828 84.8201 12.4144H76.4583Z" fill="#551632"></path>
                <path d="M93.6014 15.22H90.2022C90.2022 18.5713 92.8847 21.2879 96.1929 21.2879V17.8453C95.8508 17.8435 95.5123 17.7741 95.1969 17.6412C94.8815 17.5083 94.5953 17.3144 94.3546 17.0706C94.114 16.8268 93.9236 16.5379 93.7943 16.2204C93.6651 15.9028 93.5995 15.5629 93.6014 15.22Z" fill="#551632"></path>
                <path d="M93.6014 6.06578V0.353516H90.2015V15.2206H93.6014V9.15128H96.9999V6.06578H93.6014Z" fill="#551632"></path>
                <path d="M90.2012 6.06567H88.5013V9.15117H90.2012V6.06567Z" fill="#551632"></path>
                <path d="M36.9134 11.9381C35.5262 11.6414 34.7298 11.243 34.7298 10.4511C34.7298 9.44948 35.6466 8.94727 36.5375 8.94727C37.8708 8.94727 38.4544 9.3085 39.1578 10.4062L42.0433 8.58885C41.2336 7.26951 39.8891 5.67871 36.604 5.67871C33.4449 5.67871 31.2053 7.86009 31.2053 10.4385C31.2053 13.5043 34.1538 14.3432 36.2443 14.837C38.1157 15.2789 38.5265 15.7804 38.5265 16.594C38.5265 17.6104 37.5712 17.9968 36.6026 17.9968C35.5773 17.9968 34.7578 17.6097 33.9831 16.5302L31.0962 18.3475C31.9045 19.6662 33.2545 21.3159 36.6026 21.3159C39.6015 21.3159 42.1084 19.6192 42.1084 16.6424C42.1098 14.2092 40.2328 12.6486 36.9134 11.9381Z" fill="#551632"></path>
            </svg>