<svg xmlns="http://www.w3.org/2000/svg" viewBox="0 0 252 17" class="logo" width="252" height="17">
  <title>PAT McGRATH LABS</title>
  <g stroke="none" stroke-width="1" fill="none" fill-rule="evenodd">
    <g transform="translate(-82.000000, -22.000000)" fill="#FFFFFF">
      <g transform="translate(25.000000, 22.000000)">
        <g transform="translate(57.000000, 0.000000)">
          <path d="M87.65055,13.5771918 C87.3975243,14.524731 85.8809477,16.9858106 81.9945559,16.9858106 C80.2712452,16.9858106 78.7956998,16.426116 77.6873312,15.331427 C76.585275,14.2309571 76.0313537,12.8367132 76.0313537,11.1413379 C76.0313537,9.42021145 76.5989521,7.98655249 77.7267843,6.84561642 C78.8556685,5.70415482 80.2843962,5.13657722 82.0008684,5.13657722 C83.6373823,5.13657722 85.0129799,5.62427353 86.1213485,6.60597255 L86.1213485,6.2444046 C86.1213485,5.9847904 86.1681662,5.79822555 86.2754786,5.68471003 C86.3749003,5.57750093 86.5016762,5.51811549 86.6558063,5.51811549 C86.8162488,5.51811549 86.9435508,5.57750093 87.0498111,5.68471003 C87.1502849,5.79822555 87.2039411,5.9847904 87.2039411,6.2444046 L87.2039411,8.666069 C87.1902641,8.93356622 87.1366079,9.12065661 87.0366601,9.23312106 C86.9435508,9.34611104 86.8162488,9.39446024 86.6558063,9.39446024 C86.5090408,9.39446024 86.3891034,9.34611104 86.2891556,9.25361692 C86.1949943,9.16007172 86.1350256,8.99347719 86.1213485,8.76013973 C86.0676923,8.15314703 85.6736875,7.57873748 84.9324956,7.0384877 C84.1913036,6.49140596 83.1965599,6.22495981 81.9408997,6.22495981 C80.3517295,6.22495981 79.1491995,6.72579448 78.3285753,7.71905527 C77.5137376,8.71389267 77.0992172,9.84747125 77.0992172,11.1287251 C77.0992172,12.516137 77.5531907,13.6565475 78.4548252,14.5567887 C79.3632982,15.4580809 80.6047552,15.905311 82.0482121,15.905311 C85.7678489,15.905311 86.6095147,13.3301904 86.6158272,13.2976073 C86.6889469,13.0169717 86.9824778,12.8367132 87.2702223,12.9155435 C87.5511283,12.9896439 87.7241958,13.2828923 87.65055,13.5771918 L87.65055,13.5771918 Z M112.306624,8.1662854 L112.306624,1.53403611 L116.580182,1.53403611 C117.695915,1.53403611 118.644367,1.88141462 119.425012,2.58195252 C120.200397,3.28196488 120.594401,4.01666254 120.594401,4.79024978 C120.594401,5.30474836 120.407657,5.81136392 120.033116,6.31167306 C119.660152,6.81250773 119.058361,7.24607395 118.229847,7.61289724 C117.409222,7.97972054 116.487072,8.1662854 115.471813,8.1662854 L112.306624,8.1662854 Z M123.318768,15.3650612 L122.350853,15.3650612 L117.722743,9.02711141 C117.729581,9.02711141 117.742206,9.02711141 117.75641,9.02027946 C118.85794,8.666069 120.220386,7.91980957 120.834276,7.1924694 C121.449218,6.45199085 121.749062,5.67735254 121.749062,4.85121182 C121.749062,3.69661185 121.262474,2.66183381 120.266678,1.74845431 C119.271934,0.834549277 118.056253,0.366823297 116.60701,0.366823297 L109.582257,0.366823297 C109.308189,0.366823297 109.107767,0.4272598 108.98783,0.527111413 C108.867367,0.63379498 108.807924,0.780944726 108.807924,0.948064795 C108.807924,1.1277977 108.867367,1.27442191 108.98783,1.37479906 C109.107767,1.47465067 109.308189,1.53403611 109.582257,1.53403611 L111.144599,1.53403611 L111.144599,15.3650612 L109.582257,15.3650612 C109.308189,15.3650612 109.107767,15.4186658 108.98783,15.5253493 C108.867367,15.6252009 108.807924,15.7723507 108.807924,15.9457772 C108.807924,16.1123717 108.867367,16.245332 108.98783,16.3598986 C109.107767,16.4723631 109.308189,16.5259676 109.582257,16.5259676 L113.989429,16.5259676 C114.276648,16.5259676 114.477595,16.4723631 114.597533,16.3598986 C114.71747,16.245332 114.776913,16.1123717 114.776913,15.9457772 C114.776913,15.7723507 114.71747,15.6252009 114.597533,15.5253493 C114.477595,15.4186658 114.276648,15.3650612 113.989429,15.3650612 L112.306624,15.3650612 L112.306624,9.32088537 L115.218787,9.32088537 C115.705901,9.32088537 116.112531,9.30038951 116.494437,9.26044887 L121.762739,16.5259676 L123.318768,16.5259676 C123.599674,16.5259676 123.79957,16.4723631 123.913195,16.3598986 C124.040497,16.245332 124.094153,16.1123717 124.094153,15.9457772 C124.094153,15.7723507 124.040497,15.6252009 123.913195,15.5253493 C123.79957,15.4186658 123.599674,15.3650612 123.318768,15.3650612 L123.318768,15.3650612 Z M252,12.2097502 C252,13.5304192 251.466068,14.6645233 250.41083,15.5989242 C249.349279,16.532274 247.920551,17 246.123595,17 C244.106753,17 242.490755,16.366205 241.282438,15.1043959 L241.282438,15.7723507 C241.282438,16.0456288 241.228256,16.2385001 241.121996,16.3598986 C241.014157,16.4855014 240.874756,16.5396315 240.701163,16.5396315 C240.533882,16.5396315 240.392903,16.4855014 240.286642,16.3598986 C240.172491,16.2385001 240.120413,16.0456288 240.120413,15.7723507 L240.120413,12.569216 C240.120413,12.2896315 240.172491,12.0757388 240.28033,11.9632744 C240.387116,11.8418759 240.527043,11.7824904 240.701163,11.7824904 C240.867918,11.7824904 241.001006,11.836095 241.108319,11.9485594 C241.215105,12.0557685 241.275074,12.2355014 241.282438,12.4825028 C241.32873,13.3301904 241.782703,14.1043032 242.643833,14.7980092 C243.505488,15.4922406 244.667513,15.8390936 246.123595,15.8390936 C247.57915,15.8390936 248.728024,15.4712192 249.56969,14.7444046 C250.418194,14.01759 250.837975,13.1630704 250.837975,12.169284 C250.837975,11.5549338 250.677533,11.0220415 250.357174,10.5480092 C250.030502,10.0739768 249.5497,9.69348955 248.914769,9.42021145 C248.474472,9.22734018 247.552322,9.02027946 246.150423,8.7732781 C244.220378,8.45953382 242.837942,7.96605663 241.988911,7.29284654 C241.141459,6.63172375 240.71484,5.69154198 240.71484,4.46336713 C240.71484,3.24307531 241.201428,2.20146531 242.176182,1.32802646 C243.14515,0.447230122 244.434477,0.0126128354 246.029433,0.0126128354 C247.645958,0.0126128354 249.042071,0.527111413 250.217247,1.54822555 L250.217247,1.16090639 C250.217247,0.88079634 250.270377,0.68739953 250.377689,0.567052059 C250.477637,0.447230122 250.617564,0.387319154 250.798522,0.387319154 C250.972116,0.387319154 251.111517,0.447230122 251.218829,0.567052059 C251.326141,0.68739953 251.379271,0.88079634 251.379271,1.16090639 L251.379271,4.11651416 C251.379271,4.39662421 251.326141,4.59685297 251.218829,4.71036849 C251.111517,4.83071596 250.972116,4.89062693 250.798522,4.89062693 C250.630715,4.89062693 250.497627,4.83649685 250.39084,4.7240324 C250.283528,4.6168233 250.224085,4.43709039 250.217247,4.18325708 C250.170955,3.40914431 249.769586,2.71543836 249.021555,2.09530728 C248.267738,1.48095709 247.285619,1.18140225 246.069412,1.18140225 C244.787976,1.18140225 243.766404,1.50092741 243.011535,2.16152467 C242.256666,2.82264746 241.875813,3.5962347 241.875813,4.49016941 C241.875813,4.95106344 241.983125,5.37096575 242.197224,5.75092741 C242.403958,6.13194015 242.69065,6.43254606 243.037837,6.66483245 C243.391337,6.90552739 243.785868,7.09209225 244.226164,7.23188451 C244.674351,7.37955979 245.361887,7.53249042 246.303501,7.68594658 C247.880046,7.93872882 248.968425,8.19939409 249.562851,8.47319772 C250.370325,8.8337146 250.972116,9.32719179 251.38611,9.9615123 C251.79274,10.5937307 252,11.3483987 252,12.2097502 L252,12.2097502 Z M235.845277,13.6565475 C235.559111,14.1505503 235.14459,14.5567887 234.590143,14.8847224 C234.035696,15.218437 233.388139,15.3787251 232.640109,15.3787251 L226.763177,15.3787251 L226.763177,8.74700136 L230.937839,8.74700136 C232.219276,8.74700136 233.227696,8.89362557 233.955211,9.17321009 C234.683252,9.46067763 235.251903,9.87374799 235.659059,10.4281872 C236.072527,10.9873563 236.279261,11.549153 236.279261,12.1367009 C236.279261,12.6632868 236.133022,13.1704278 235.845277,13.6565475 L235.845277,13.6565475 Z M226.763177,1.54822555 L231.370771,1.54822555 C232.466515,1.54822555 233.354472,1.84830592 234.035696,2.468437 C234.723757,3.0754297 235.064632,3.7502164 235.064632,4.47703104 C235.064632,4.98417213 234.904716,5.48395573 234.590143,5.97165203 C234.276622,6.45199085 233.835274,6.83195252 233.273988,7.09209225 C232.545947,7.41266848 231.745313,7.57243106 230.870506,7.57243106 L226.763177,7.57243106 L226.763177,1.54822555 Z M233.955211,8.0123037 C235.478626,7.13886484 236.232969,5.99740324 236.232969,4.57740819 C236.232969,3.4559169 235.778996,2.468437 234.877361,1.64177074 C233.962576,0.807221467 232.786874,0.387319154 231.337631,0.387319154 L224.03881,0.387319154 C223.764743,0.387319154 223.564321,0.440923705 223.444384,0.540249784 C223.324446,0.654290837 223.263426,0.794083096 223.263426,0.967509583 C223.263426,1.14093607 223.324446,1.28072833 223.444384,1.38793743 C223.564321,1.494621 223.764743,1.54822555 224.03881,1.54822555 L225.601152,1.54822555 L225.601152,15.3787251 L224.03881,15.3787251 C223.764743,15.3787251 223.564321,15.4386361 223.444384,15.5384877 C223.324446,15.6451713 223.263426,15.7854891 223.263426,15.95839 C223.263426,16.1255101 223.324446,16.2653023 223.444384,16.3793434 C223.564321,16.4923334 223.764743,16.5396315 224.03881,16.5396315 L232.726905,16.5396315 C233.621175,16.5396315 234.443378,16.3120749 235.204033,15.8658959 C235.966267,15.4113083 236.5265,14.871584 236.901042,14.2309571 C237.267692,13.5903302 237.454963,12.8892667 237.454963,12.116205 C237.454963,11.2480215 237.174583,10.4612959 236.613297,9.74131322 C236.046225,9.02027946 235.165106,8.44639545 233.955211,8.0123037 L233.955211,8.0123037 Z M209.493773,9.98831458 L212.605832,1.54822555 L213.032978,1.54822555 L216.244985,9.98831458 L209.493773,9.98831458 Z M220.392819,15.3787251 L219.491185,15.3787251 L213.820987,0.387319154 L209.807294,0.387319154 C209.52744,0.387319154 209.333331,0.440923705 209.206555,0.540249784 C209.086617,0.654290837 209.032961,0.794083096 209.032961,0.967509583 C209.032961,1.14093607 209.086617,1.28072833 209.206555,1.38793743 C209.333331,1.494621 209.52744,1.54822555 209.807294,1.54822555 L211.403302,1.54822555 L206.268089,15.3787251 L205.373293,15.3787251 C205.099226,15.3787251 204.898804,15.4386361 204.778867,15.5384877 C204.658929,15.6451713 204.598434,15.7854891 204.598434,15.95839 C204.598434,16.1255101 204.658929,16.2653023 204.778867,16.3793434 C204.898804,16.4923334 205.099226,16.5396315 205.373293,16.5396315 L209.720497,16.5396315 C209.994038,16.5396315 210.194986,16.4923334 210.314923,16.3793434 C210.428548,16.2653023 210.488517,16.1255101 210.488517,15.95839 C210.488517,15.7854891 210.428548,15.6451713 210.314923,15.5384877 C210.194986,15.4386361 209.994038,15.3787251 209.720497,15.3787251 L207.490082,15.3787251 L209.052425,11.149221 L216.686333,11.149221 L218.274978,15.3787251 L216.065079,15.3787251 C215.777334,15.3787251 215.576913,15.4386361 215.456975,15.5384877 C215.336512,15.6451713 215.270231,15.7854891 215.270231,15.95839 C215.270231,16.1255101 215.336512,16.2653023 215.456975,16.3793434 C215.576913,16.4923334 215.777334,16.5396315 216.065079,16.5396315 L220.392819,16.5396315 C220.666361,16.5396315 220.866256,16.4923334 220.987246,16.3793434 C221.106657,16.2653023 221.1661,16.1255101 221.1661,15.95839 C221.1661,15.7854891 221.106657,15.6451713 220.987246,15.5384877 C220.866256,15.4386361 220.666361,15.3787251 220.392819,15.3787251 L220.392819,15.3787251 Z M203.008738,13.2303388 C203.122889,13.3438543 203.176019,13.5372511 203.176019,13.8241931 L203.176019,16.5396315 L191.116,16.5396315 C190.841407,16.5396315 190.640985,16.4923334 190.52736,16.3793434 C190.401111,16.2653023 190.347454,16.1255101 190.347454,15.95839 C190.347454,15.7854891 190.401111,15.6451713 190.52736,15.5384877 C190.640985,15.4386361 190.841407,15.3787251 191.116,15.3787251 L193.111274,15.3787251 L193.111274,1.54822555 L191.116,1.54822555 C190.841407,1.54822555 190.640985,1.494621 190.52736,1.38793743 C190.401111,1.28072833 190.347454,1.14093607 190.347454,0.967509583 C190.347454,0.794083096 190.401111,0.654290837 190.52736,0.540249784 C190.640985,0.440923705 190.841407,0.387319154 191.116,0.387319154 L197.051848,0.387319154 C197.325916,0.387319154 197.526338,0.440923705 197.646801,0.540249784 C197.767264,0.654290837 197.827233,0.794083096 197.827233,0.967509583 C197.827233,1.14093607 197.767264,1.28072833 197.646801,1.38793743 C197.526338,1.494621 197.325916,1.54822555 197.051848,1.54822555 L194.287502,1.54822555 L194.287502,15.3787251 L202.000843,15.3787251 L202.000843,13.8241931 C202.000843,13.549864 202.060812,13.3501608 202.168124,13.2366452 C202.280697,13.1094658 202.421676,13.0506059 202.59527,13.0506059 C202.761499,13.0506059 202.902478,13.1094658 203.008738,13.2303388 L203.008738,13.2303388 Z M175.882376,15.5253493 C176.002313,15.6252009 176.055969,15.7723507 176.055969,15.9457772 C176.055969,16.1123717 176.002313,16.245332 175.882376,16.3598986 C175.755074,16.4723631 175.56149,16.5259676 175.287949,16.5259676 L171.241115,16.5259676 C170.967573,16.5259676 170.77399,16.4723631 170.653001,16.3598986 C170.526751,16.245332 170.473095,16.1123717 170.473095,15.9457772 C170.473095,15.7723507 170.526751,15.6252009 170.646688,15.5253493 C170.760313,15.4186658 170.960209,15.3650612 171.241115,15.3650612 L172.797144,15.3650612 L172.797144,8.72019908 L163.240555,8.72019908 L163.240555,15.3650612 L164.803423,15.3650612 C165.083803,15.3650612 165.27686,15.4186658 165.39785,15.5253493 C165.5241,15.6252009 165.585121,15.7723507 165.585121,15.9457772 C165.585121,16.1123717 165.5241,16.245332 165.39785,16.3598986 C165.27686,16.4723631 165.083803,16.5259676 164.803423,16.5259676 L160.76974,16.5259676 C160.48936,16.5259676 160.296303,16.4723631 160.167949,16.3598986 C160.055376,16.245332 159.994882,16.1123717 159.994882,15.9457772 C159.994882,15.7723507 160.055376,15.6252009 160.167949,15.5253493 C160.296303,15.4186658 160.48936,15.3650612 160.76974,15.3650612 L162.07853,15.3650612 L162.07853,1.53403611 L161.364167,1.53403611 C161.07011,1.53403611 160.876,1.47465067 160.749751,1.37479906 C160.636126,1.27442191 160.576157,1.1277977 160.576157,0.948064795 C160.576157,0.780944726 160.636126,0.63379498 160.749751,0.527111413 C160.876,0.4272598 161.07011,0.366823297 161.364167,0.366823297 L164.803423,0.366823297 C165.083803,0.366823297 165.27686,0.4272598 165.39785,0.527111413 C165.5241,0.63379498 165.585121,0.780944726 165.585121,0.948064795 C165.585121,1.1277977 165.5241,1.27442191 165.39785,1.37479906 C165.27686,1.47465067 165.083803,1.53403611 164.803423,1.53403611 L163.240555,1.53403611 L163.240555,7.55929269 L172.797144,7.55929269 L172.797144,1.53403611 L171.241115,1.53403611 C170.967573,1.53403611 170.77399,1.47465067 170.653001,1.37479906 C170.526751,1.27442191 170.473095,1.1277977 170.473095,0.948064795 C170.473095,0.780944726 170.526751,0.63379498 170.646688,0.527111413 C170.760313,0.4272598 170.960209,0.366823297 171.241115,0.366823297 L174.693523,0.366823297 C174.980741,0.366823297 175.181689,0.4272598 175.3011,0.527111413 C175.42209,0.63379498 175.474694,0.780944726 175.474694,0.948064795 C175.474694,1.1277977 175.42209,1.27442191 175.3011,1.37479906 C175.181689,1.47465067 174.980741,1.53403611 174.693523,1.53403611 L173.972846,1.53403611 L173.972846,15.3650612 L175.287949,15.3650612 C175.56149,15.3650612 175.755074,15.4186658 175.882376,15.5253493 L175.882376,15.5253493 Z M143.279399,0.366823297 L156.295234,0.366823297 L156.295234,3.08856807 C156.295234,3.37603561 156.241578,3.58257079 156.134266,3.70186719 C156.034844,3.8227402 155.894917,3.8831767 155.714485,3.8831767 C155.540891,3.8831767 155.400964,3.8227402 155.293652,3.70186719 C155.186866,3.58257079 155.133209,3.37603561 155.133209,3.08856807 L155.133209,1.53403611 L150.378324,1.53403611 L150.378324,15.3650612 L152.081119,15.3650612 C152.362025,15.3650612 152.556134,15.4186658 152.68291,15.5253493 C152.796009,15.6252009 152.855451,15.7723507 152.855451,15.9457772 C152.855451,16.1123717 152.796009,16.245332 152.68291,16.3598986 C152.556134,16.4723631 152.362025,16.5259676 152.081119,16.5259676 L147.64028,16.5259676 C147.3599,16.5259676 147.166843,16.4723631 147.046379,16.3598986 C146.925916,16.245332 146.865421,16.1123717 146.865421,15.9457772 C146.865421,15.7723507 146.925916,15.6252009 147.046379,15.5253493 C147.166843,15.4186658 147.3599,15.3650612 147.64028,15.3650612 L149.203148,15.3650612 L149.203148,1.53403611 L144.441424,1.53403611 L144.441424,3.08856807 C144.441424,3.37603561 144.386715,3.58257079 144.280981,3.70186719 C144.181033,3.8227402 144.041106,3.8831767 143.860148,3.8831767 C143.700232,3.8831767 143.560305,3.8227402 143.452992,3.70186719 C143.339367,3.58257079 143.279399,3.37603561 143.279399,3.08856807 L143.279399,0.366823297 Z M130.270928,9.96781872 L133.382987,1.53403611 L133.810659,1.53403611 L137.021614,9.96781872 L130.270928,9.96781872 Z M141.168922,15.3650612 L140.268339,15.3650612 L134.598142,0.366823297 L130.57761,0.366823297 C130.29723,0.366823297 130.104173,0.4272598 129.984235,0.527111413 C129.864298,0.63379498 129.803277,0.780944726 129.803277,0.948064795 C129.803277,1.1277977 129.864298,1.27442191 129.984235,1.37479906 C130.104173,1.47465067 130.29723,1.53403611 130.57761,1.53403611 L132.180983,1.53403611 L127.05103,15.3650612 L126.150448,15.3650612 C125.870068,15.3650612 125.669646,15.4186658 125.556021,15.5253493 C125.436084,15.6252009 125.376115,15.7723507 125.376115,15.9457772 C125.376115,16.1123717 125.436084,16.245332 125.556021,16.3598986 C125.669646,16.4723631 125.870068,16.5259676 126.150448,16.5259676 L129.891126,16.5259676 C130.164668,16.5259676 130.363511,16.4723631 130.478188,16.3598986 C130.598651,16.245332 130.659146,16.1123717 130.659146,15.9457772 C130.659146,15.7723507 130.598651,15.6252009 130.478188,15.5253493 C130.363511,15.4186658 130.164668,15.3650612 129.891126,15.3650612 L128.261451,15.3650612 L129.830631,11.1287251 L137.462962,11.1287251 L139.053184,15.3650612 L137.477691,15.3650612 C137.188895,15.3650612 136.983213,15.4186658 136.863275,15.5253493 C136.741234,15.6252009 136.682317,15.7723507 136.682317,15.9457772 C136.682317,16.1123717 136.741234,16.245332 136.863275,16.3598986 C136.983213,16.4723631 137.188895,16.5259676 137.477691,16.5259676 L141.168922,16.5259676 C141.443515,16.5259676 141.643937,16.4723631 141.763874,16.3598986 C141.883812,16.245332 141.944832,16.1123717 141.944832,15.9457772 C141.944832,15.7723507 141.883812,15.6252009 141.763874,15.5253493 C141.643937,15.4186658 141.443515,15.3650612 141.168922,15.3650612 L141.168922,15.3650612 Z M105.434422,9.5342525 C105.555412,9.64146161 105.61538,9.78072833 105.61538,9.9615123 C105.61538,10.0739768 105.574875,10.1874923 105.501756,10.2873439 C105.42811,10.3882466 105.347626,10.4612959 105.254516,10.4880982 C105.160355,10.5212069 104.88734,10.5411772 104.426528,10.5411772 L104.426528,15.5048535 C103.53857,15.9920242 102.656399,16.3598986 101.774754,16.6126808 C100.893635,16.8596822 100.019355,16.9858106 99.1434965,16.9858106 C97.9020395,16.9858106 96.7999833,16.7997712 95.8583697,16.426116 C94.9172821,16.0592927 94.1087569,15.5447941 93.4606743,14.8847224 C92.8062791,14.2178187 92.2923369,13.4773402 91.9314727,12.6632868 C91.564296,11.8492333 91.3838639,10.802368 91.3838639,9.54739087 L91.3838639,7.41950043 C91.3838639,6.14507852 91.6979104,4.91112279 92.33179,3.70975022 C92.9604091,2.50259676 93.828903,1.58133424 94.9235946,0.948064795 C96.0182862,0.313744281 97.2208162,0 98.510143,0 C100.379167,0 101.955712,0.507141091 103.250826,1.53403611 C103.250826,1.0810251 103.264503,0.807221467 103.297643,0.713150736 C103.331836,0.620656609 103.398117,0.540249784 103.498065,0.474032398 C103.598013,0.406238407 103.718476,0.366823297 103.845252,0.366823297 C104.012533,0.366823297 104.15246,0.433566217 104.259772,0.547081736 C104.372871,0.666903673 104.426528,0.874489922 104.426528,1.14829356 L104.426528,3.76966118 C104.426528,4.05712873 104.372871,4.25683195 104.259772,4.3692964 C104.15246,4.49016941 104.012533,4.54324842 103.845252,4.54324842 C103.685336,4.54324842 103.558034,4.49016941 103.451773,4.38348584 C103.344987,4.27680228 103.291331,4.09023742 103.27818,3.82957215 C103.223997,3.04232101 102.710055,2.40221961 101.748978,1.90874243 C100.786323,1.40790775 99.738449,1.15459998 98.6027262,1.15459998 C97.5348627,1.15459998 96.566421,1.39529492 95.7052917,1.84830592 C94.8431103,2.32181279 94.0414237,3.20891554 93.2944453,4.51644615 C92.792602,5.37727217 92.5458887,6.34478175 92.5458887,7.43211327 L92.5458887,9.54739087 C92.5458887,11.4624397 93.1340027,12.9896439 94.3154911,14.123748 C95.491193,15.2520712 97.1277069,15.8185977 99.1971527,15.8185977 C99.8983655,15.8185977 100.552761,15.7455484 101.147187,15.5989242 C101.748978,15.4517745 102.449665,15.1916347 103.250826,14.8248114 L103.250826,10.5411772 L101.581171,10.5411772 C101.307104,10.5411772 101.114047,10.4880982 100.994109,10.3819402 C100.874172,10.274731 100.813151,10.1344133 100.813151,9.9615123 C100.813151,9.78072833 100.874172,9.64146161 100.994109,9.5342525 C101.114047,9.42021145 101.307104,9.36713243 101.581171,9.36713243 L104.839996,9.3802708 C105.114063,9.3802708 105.314485,9.43282429 105.434422,9.5342525 L105.434422,9.5342525 Z M73.092362,15.5253493 C73.2133514,15.6252009 73.2727941,15.7723507 73.2727941,15.9457772 C73.2727941,16.1123717 73.2133514,16.245332 73.092362,16.3598986 C72.9724246,16.4723631 72.7714769,16.5259676 72.4842584,16.5259676 L68.6846634,16.5259676 C68.4048095,16.5259676 68.2043879,16.4723631 68.0833984,16.3598986 C67.9571485,16.245332 67.8898153,16.1123717 67.8898153,15.9457772 C67.8898153,15.7723507 67.9571485,15.6252009 68.0770859,15.5253493 C68.1970233,15.4186658 68.3974449,15.3650612 68.6846634,15.3650612 L70.354844,15.3650612 L70.354844,1.53403611 L70.1076046,1.53403611 L65.7262081,11.6821133 L64.3905897,11.6821133 L59.929761,1.53403611 L59.7030373,1.53403611 L59.7030373,15.3650612 L61.285895,15.3650612 C61.5662749,15.3650612 61.7666966,15.4186658 61.8792694,15.5253493 C62.0065713,15.6252009 62.0602275,15.7723507 62.0602275,15.9457772 C62.0602275,16.1123717 62.0065713,16.245332 61.8792694,16.3598986 C61.7666966,16.4723631 61.5662749,16.5259676 61.285895,16.5259676 L57.5662582,16.5259676 C57.2848262,16.5259676 57.0844046,16.4723631 56.9718318,16.3598986 C56.8508423,16.245332 56.7845611,16.1123717 56.7845611,15.9457772 C56.7845611,15.7723507 56.8508423,15.6252009 56.9718318,15.5253493 C57.0844046,15.4186658 57.2848262,15.3650612 57.5662582,15.3650612 L58.5473249,15.3650612 L58.5473249,1.53403611 L57.8129715,1.53403611 C57.5394301,1.53403611 57.3384824,1.47465067 57.218545,1.37479906 C57.0975556,1.27442191 57.0381129,1.1277977 57.0381129,0.948064795 C57.0381129,0.780944726 57.0975556,0.63379498 57.218545,0.527111413 C57.3384824,0.4272598 57.5394301,0.366823297 57.8129715,0.366823297 L60.6646404,0.366823297 L65.0581359,10.3740571 L69.3858762,0.366823297 L72.2370191,0.366823297 C72.5247636,0.366823297 72.7251853,0.4272598 72.8451226,0.527111413 C72.9661121,0.63379498 73.0260808,0.780944726 73.0260808,0.948064795 C73.0260808,1.1277977 72.9661121,1.27442191 72.8451226,1.37479906 C72.7251853,1.47465067 72.5247636,1.53403611 72.2370191,1.53403611 L71.5168688,1.53403611 L71.5168688,15.3650612 L72.4842584,15.3650612 C72.7714769,15.3650612 72.9724246,15.4186658 73.092362,15.5253493 L73.092362,15.5253493 Z M29.8444171,0.366823297 L42.8607786,0.366823297 L42.8607786,3.0754297 C42.8607786,3.36237171 42.8071224,3.563126 42.69981,3.68294794 C42.5930237,3.80276988 42.4525707,3.86373192 42.2789771,3.86373192 C42.0990711,3.86373192 41.9586181,3.80276988 41.8518318,3.68294794 C41.7518839,3.563126 41.6987538,3.36237171 41.6987538,3.0754297 L41.6987538,1.53403611 L36.9370295,1.53403611 L36.9370295,15.3650612 L38.5530279,15.3650612 C38.8334078,15.3650612 39.027517,15.4186658 39.1474543,15.5253493 C39.2673917,15.6252009 39.3273604,15.7723507 39.3273604,15.9457772 C39.3273604,16.1123717 39.2673917,16.245332 39.1474543,16.3598986 C39.027517,16.4723631 38.8334078,16.5259676 38.5530279,16.5259676 L34.0921991,16.5259676 C33.8181317,16.5259676 33.6177101,16.4723631 33.4977727,16.3598986 C33.3778353,16.245332 33.3173406,16.1123717 33.3173406,15.9457772 C33.3173406,15.7723507 33.3778353,15.6252009 33.4977727,15.5253493 C33.6177101,15.4186658 33.8181317,15.3650612 34.0921991,15.3650612 L35.7613276,15.3650612 L35.7613276,1.53403611 L31.0059159,1.53403611 L31.0059159,3.0754297 C31.0059159,3.36237171 30.9533118,3.563126 30.8470515,3.68294794 C30.7397391,3.80276988 30.5998121,3.86373192 30.4262186,3.86373192 C30.2584114,3.86373192 30.1179585,3.80276988 30.0116982,3.68294794 C29.8975472,3.563126 29.8444171,3.36237171 29.8444171,3.0754297 L29.8444171,0.366823297 Z M17.9643044,9.96781872 L21.0826761,1.53403611 L21.5103476,1.53403611 L24.7155161,9.96781872 L17.9643044,9.96781872 Z M28.8628243,15.3650612 L27.9680284,15.3650612 L22.2983572,0.366823297 L18.2246947,0.366823297 C17.9443148,0.366823297 17.7502056,0.4272598 17.6302682,0.527111413 C17.5098048,0.63379498 17.4498361,0.780944726 17.4498361,0.948064795 C17.4498361,1.1277977 17.5098048,1.27442191 17.6302682,1.37479906 C17.7502056,1.47465067 17.9443148,1.53403611 18.2246947,1.53403611 L19.8743597,1.53403611 L14.7449327,15.3650612 L13.8432982,15.3650612 C13.5697568,15.3650612 13.3693351,15.4186658 13.2562363,15.5253493 C13.1357729,15.6252009 13.0689657,15.7723507 13.0689657,15.9457772 C13.0689657,16.1123717 13.1357729,16.245332 13.2562363,16.3598986 C13.3693351,16.4723631 13.5697568,16.5259676 13.8432982,16.5259676 L17.6302682,16.5259676 C17.9106482,16.5259676 18.1047573,16.4723631 18.2246947,16.3598986 C18.3446321,16.245332 18.4046008,16.1123717 18.4046008,15.9457772 C18.4046008,15.7723507 18.3446321,15.6252009 18.2246947,15.5253493 C18.1047573,15.4186658 17.9106482,15.3650612 17.6302682,15.3650612 L15.9606137,15.3650612 L17.5234819,11.1287251 L25.1631771,11.1287251 L26.7455088,15.3650612 L25.1763281,15.3650612 C24.8891097,15.3650612 24.6892141,15.4186658 24.5687507,15.5253493 C24.4419747,15.6252009 24.3883185,15.7723507 24.3883185,15.9457772 C24.3883185,16.1123717 24.4419747,16.245332 24.5687507,16.3598986 C24.6892141,16.4723631 24.8891097,16.5259676 25.1763281,16.5259676 L28.8628243,16.5259676 C29.1437303,16.5259676 29.3436259,16.4723631 29.4640893,16.3598986 C29.5771882,16.245332 29.6445214,16.1123717 29.6445214,15.9457772 C29.6445214,15.7723507 29.5771882,15.6252009 29.4640893,15.5253493 C29.3436259,15.4186658 29.1437303,15.3650612 28.8628243,15.3650612 L28.8628243,15.3650612 Z M11.2593842,6.76468406 C10.9185096,7.31964882 10.3709007,7.78579819 9.61603173,8.17259181 C8.8622148,8.55360455 8.06000209,8.74700136 7.19939881,8.74700136 L3.49869951,8.74700136 L3.49869951,1.53403611 L7.63338274,1.53403611 C8.82854817,1.53403611 9.81697944,1.89507852 10.604989,2.6224187 C11.3861601,3.35553976 11.7801649,4.16959317 11.7801649,5.08349821 C11.7801649,5.65790775 11.6060453,6.21865339 11.2593842,6.76468406 L11.2593842,6.76468406 Z M7.51923181,0.366823297 L0.774858574,0.366823297 C0.493952615,0.366823297 0.300369481,0.4272598 0.180432105,0.527111413 C0.0531301534,0.63379498 0,0.780944726 0,0.948064795 C0,1.1277977 0.0531301534,1.27442191 0.180432105,1.37479906 C0.300369481,1.47465067 0.493952615,1.53403611 0.774858574,1.53403611 L2.33667467,1.53403611 L2.33667467,15.3650612 L0.774858574,15.3650612 C0.493952615,15.3650612 0.300369481,15.4186658 0.180432105,15.5253493 C0.0531301534,15.6252009 0,15.7723507 0,15.9457772 C0,16.1123717 0.0531301534,16.245332 0.180432105,16.3598986 C0.300369481,16.4723631 0.493952615,16.5259676 0.774858574,16.5259676 L5.04210416,16.5259676 C5.31511951,16.5259676 5.51606722,16.4723631 5.63653063,16.3598986 C5.75646801,16.245332 5.81696274,16.1123717 5.81696274,15.9457772 C5.81696274,15.7723507 5.75646801,15.6252009 5.63653063,15.5253493 C5.51606722,15.4186658 5.31511951,15.3650612 5.04210416,15.3650612 L3.49869951,15.3650612 L3.49869951,9.90055027 L7.13206555,9.90055027 C7.92691368,9.90055027 8.58814738,9.81488809 9.12207911,9.64146161 C9.86327106,9.40076666 10.5781609,9.02027946 11.2662227,8.50735749 C11.7265087,8.1662854 12.1205135,7.69961049 12.4477111,7.09944973 C12.7754347,6.50506987 12.9421898,5.83133424 12.9421898,5.08349821 C12.9421898,3.8227402 12.4413986,2.71543836 11.4266653,1.77420552 C10.4177184,0.84033016 9.11576662,0.366823297 7.51923181,0.366823297 L7.51923181,0.366823297 Z"></path>
        </g>
      </g>
    </g>
  </g>
</svg>