<svg class="svg-logo" xmlns="http://www.w3.org/2000/svg" viewBox="0 0 105 40" fill="none"><path fill="currentColor" d="M21.847 32.202v-3.841c0-7.624-5.844-7.442-5.844-7.442H6.969v18.723H16s5.846.184 5.846-7.44Zm-6.194-2.083c0 1.505-.107 2.375-1.335 2.375h-1.155V24.21h1.169c1.228 0 1.335.87 1.335 2.376l-.014 3.533ZM36.1 9.47V.809H23.727v38.835H36.1v-8.662h-6.186v-7.071H36.1v-7.37h-6.186V9.47H36.1ZM101.897 9.47V.809H89.523v38.835h12.374v-8.662H95.71v-7.071h6.187v-7.37H95.71V9.47h6.187ZM47.328.809V16.54h-2.644V.81H37.96v38.835h6.724V23.91h2.644v15.733h6.724V.809h-6.724ZM81.493.809l-1.614 32.773h-.618L77.647.81h-6.245l2.942 38.835h10.628L87.916.809h-6.423ZM16.003.809H6.969v18.723H16s5.845.183 5.845-7.44V8.25C21.847.627 16.003.81 16.003.81Zm-.342 13.056c0 1.507-.107 2.377-1.335 2.377h-1.163V7.957h1.169c1.228 0 1.335.87 1.335 2.377l-.006 3.531ZM65.572 39.644h6.422L69.05.809h-10.45L55.66 39.644h6.066l.255-5.187h3.336l.256 5.187Zm-3.228-12.555.996-20.227h.62l.995 20.227h-2.61Z"></path><path fill="currentColor" d="M105 16.242H0v7.968h105v-7.968Z"></path></svg>