<svg class="header-logo__img " width="117" height="67" xmlns="http://www.w3.org/2000/svg" viewBox="0 0 252 147">
	<title>Extra Butter NY</title>
	<defs>
		<style>.cls-1,.cls-2{fill:#12100b}.cls-2{fill-rule:evenodd}</style>
	</defs>
	<path class="cls-1" d="M64.29 105.71h3l7 9.24v-9.24h3.26v15h-2.73l-7.27-9.54v9.54h-3.26ZM81.51 105.71h11.3v2.94h-8v3h7.08v2.93h-7.12v3.15h8.15v2.94H81.51ZM94.94 105.71h3.54l3.11 10.17 3.41-10.21h2.83l3.36 10.21 3.11-10.17h3.46l-5.13 15.12h-2.87l-3.43-9.83-3.39 9.82h-2.87ZM130 114.8l-5.77-9.09h3.86l3.58 6 3.65-6H139l-5.77 9v6H130ZM147.22 121a8.06 8.06 0 0 1-5.71-2.26 7.26 7.26 0 0 1-1.65-2.45 7.55 7.55 0 0 1-.59-3 7.66 7.66 0 0 1 2.26-5.48 7.77 7.77 0 0 1 2.53-1.68 8.42 8.42 0 0 1 3.21-.61 8.28 8.28 0 0 1 3.19.61 8 8 0 0 1 2.52 1.66 7.31 7.31 0 0 1 1.65 2.44 7.59 7.59 0 0 1 .59 3 7.56 7.56 0 0 1-.6 3 7.73 7.73 0 0 1-1.62 2.47 7.91 7.91 0 0 1-2.53 1.67 8.23 8.23 0 0 1-3.25.63Zm.05-3a4.59 4.59 0 0 0 1.82-.37 4.17 4.17 0 0 0 1.43-1 4.72 4.72 0 0 0 .92-1.49 4.93 4.93 0 0 0 .33-1.81 5.08 5.08 0 0 0-.33-1.83 4.51 4.51 0 0 0-.95-1.5 4.38 4.38 0 0 0-1.44-1 4.44 4.44 0 0 0-1.83-.37 4.53 4.53 0 0 0-1.83.36 4.23 4.23 0 0 0-1.41 1 4.68 4.68 0 0 0-.93 1.49 5 5 0 0 0-.33 1.81 5 5 0 0 0 .33 1.82 4.51 4.51 0 0 0 .95 1.5 4.4 4.4 0 0 0 3.27 1.4ZM158.3 105.71h6.86a6 6 0 0 1 4.38 1.52 4.63 4.63 0 0 1 1.28 3.44 4.69 4.69 0 0 1-.89 3 5.08 5.08 0 0 1-2.32 1.68l3.66 5.36h-3.86l-3.21-4.8h-2.6v4.8h-3.3ZM165 113a2.75 2.75 0 0 0 1.88-.58 2 2 0 0 0 .65-1.54 1.91 1.91 0 0 0-.69-1.61 3 3 0 0 0-1.91-.54h-3.33V113ZM174.05 105.71h3.3v6.56l6.1-6.56h4l-6.11 6.37 6.39 8.64h-4l-4.65-6.39-1.74 1.8v4.59h-3.3ZM54 31.16h21.74v5.66H60.27v5.86h13.62v5.65H60.27v6.07H76v5.65H54ZM90 45.36l-9.65-14.2h7.42l6.07 9.37 6.1-9.37h7.22l-9.67 14.12 10.07 14.77h-7.43l-6.48-9.91-6.52 9.91h-7.22ZM119.71 37h-8.79v-5.84h23.93V37h-8.79v23h-6.35ZM139.4 31.16h13.2q5.49 0 8.42 2.93a9 9 0 0 1 2.47 6.61v.08a9 9 0 0 1-1.71 5.71 9.87 9.87 0 0 1-4.47 3.24l7.05 10.32h-7.43l-6.19-9.25h-5v9.25h-6.34Zm12.79 14a5.29 5.29 0 0 0 3.61-1.11 3.76 3.76 0 0 0 1.26-3V41a3.69 3.69 0 0 0-1.32-3.1 5.82 5.82 0 0 0-3.67-1h-6.32v8.29ZM180.17 31H186l12.38 29.09h-6.64l-2.64-6.48h-12.19l-2.63 6.48h-6.48Zm6.69 17L183 38.59 179.19 48ZM41.76 67.73h13.39c3.32 0 5.83.86 7.54 2.56a6.7 6.7 0 0 1 2 4.91v.08a6.93 6.93 0 0 1-.31 2.19 6.51 6.51 0 0 1-2 3 7.82 7.82 0 0 1-1.46 1 9.71 9.71 0 0 1 3.94 2.58 6.59 6.59 0 0 1 1.44 4.52v.08a7.49 7.49 0 0 1-.76 3.47 6.79 6.79 0 0 1-2.18 2.47 10.28 10.28 0 0 1-3.42 1.49 18.43 18.43 0 0 1-4.43.49H41.76Zm12.05 11.68a6.62 6.62 0 0 0 3.34-.72 2.49 2.49 0 0 0 1.24-2.33v-.09a2.53 2.53 0 0 0-1.07-2.2 5.31 5.31 0 0 0-3.1-.77H48v6.11ZM55.5 91a6.08 6.08 0 0 0 3.3-.76 2.61 2.61 0 0 0 1.2-2.33v-.09a2.74 2.74 0 0 0-1.11-2.29 6 6 0 0 0-3.59-.84H48V91ZM83.93 97.07q-5.82 0-9.16-3.22t-3.34-9.61V67.73h6.35v16.34a7.62 7.62 0 0 0 1.65 5.34 5.91 5.91 0 0 0 4.57 1.8 6 6 0 0 0 4.58-1.73 7.29 7.29 0 0 0 1.65-5.2V67.73h6.37V84a16.74 16.74 0 0 1-.89 5.73 10.8 10.8 0 0 1-2.54 4.07 10.24 10.24 0 0 1-4 2.43 16 16 0 0 1-5.24.84ZM109.73 73.59h-8.79v-5.86h23.93v5.86h-8.78v23h-6.36ZM137.29 73.59h-8.79v-5.86h23.93v5.86h-8.79v23h-6.35ZM157 67.73h21.74v5.66h-15.49v5.85h13.62v5.66h-13.62V91h15.68v5.65H157ZM185.28 67.73h13.2q5.49 0 8.41 2.93a8.88 8.88 0 0 1 2.48 6.6v.08a9.07 9.07 0 0 1-1.71 5.72 10 10 0 0 1-4.48 3.24l7.06 10.31h-7.43l-6.19-9.24h-5v9.24h-6.35Zm12.79 14a5.28 5.28 0 0 0 3.6-1.11 3.79 3.79 0 0 0 1.26-3v-.09a3.69 3.69 0 0 0-1.32-3.09 5.8 5.8 0 0 0-3.67-1h-6.31v8.29Z"></path><path class="cls-2" d="M3.22 95.18a10.09 10.09 0 0 1 1.84.68 37.39 37.39 0 0 1 15.54 17.36c.1.24.22.48.3.73a1.94 1.94 0 0 1 0 .49c-2.61.76-4.8-.32-6.86-1.71-3.69-2.49-6.08-6.07-7.95-10-1-2.19-1.86-4.49-2.78-6.74ZM.81 73.37c5.91 2.9 10.79 10.8 12.68 22.7-2.62-.02-17.01-7.31-12.68-22.7ZM23.94 135.6c9.59-.42 18 2.62 25.49 8.64a7.13 7.13 0 0 1-6.29 2.21c-7.93-.83-13.96-5.14-19.2-10.85ZM10.87 116.47c9.46 1.82 16.44 5.39 22.48 14.44-14.04 1.56-20.07-6.13-22.48-14.44ZM10.28 76.28c-3.77-1.22-11.57-15.75-6.4-25.17 5.98 6.73 8.12 18.76 6.4 25.17ZM41.52 119.72c4.58 6.77 10.95 12.35 10.09 21.54-8.03-2.07-13.5-13.68-10.09-21.54ZM31.17 105.61c4.53 5.88 7.61 14.43 4.89 23.11-7.2-4.12-9.75-16.22-4.89-23.11ZM11.14 32.46a34.09 34.09 0 0 1 .53 24.4C8.9 55.3 7.87 52.78 7.54 50a28.72 28.72 0 0 1 3.6-17.54ZM24.57 90.17c2.53 7.61 3.36 19.62-.69 22.59-6.41-7.12-4.31-18.7.69-22.59ZM22.35 72.59c1.47 6.23.63 16.3-5.83 22.84-3.99-7.87-1.34-18.56 5.83-22.84ZM17.14 39.17c-2.47-2.31-2.62-5.08-2.38-7.77.55-6.08 3.36-11.21 7.48-16.41a36.14 36.14 0 0 1-5.1 24.18ZM13.23 76C11.14 67.92 16 58.49 23.3 56.1c1.44 8.09-5.68 18.44-10.07 19.9ZM25.38 23c-.09-12.82 6.42-19.06 11-21.43-.98 8.43-4.02 14.17-11 21.43ZM14.5 57.19c-.16-8 6.41-15.83 13.76-16.49-.86 7.3-8.53 16.05-13.76 16.49ZM19.74 40.47C20.87 31.77 31.07 25.6 36.81 27c-2.71 5.26-8.76 12.14-17.07 13.47ZM47.45 15.2c-5 5-14.49 11.43-18.9 9.65 1.27-5.76 11.22-12.13 18.9-9.65ZM54.29 0c-5.57 6.2-10.91 12.06-18.92 14.67C35.27 8.5 45.57.48 54.29 0Z"></path><path class="cls-2" d="M248.78 95.18a10.09 10.09 0 0 0-1.84.68 37.39 37.39 0 0 0-15.54 17.36c-.1.24-.22.48-.3.73a1.94 1.94 0 0 0 0 .49c2.61.76 4.8-.32 6.86-1.71 3.69-2.49 6.08-6.07 7.95-10 1-2.19 1.86-4.49 2.78-6.74ZM251.2 73.37c-5.92 2.9-10.8 10.8-12.69 22.7 2.62-.02 17.01-7.31 12.69-22.7ZM228.06 135.6c-9.59-.42-17.95 2.62-25.49 8.64a7.14 7.14 0 0 0 6.3 2.21c7.92-.83 13.95-5.14 19.19-10.85ZM241.13 116.47c-9.46 1.82-16.44 5.39-22.48 14.44 14.04 1.56 20.07-6.13 22.48-14.44ZM241.72 76.28c3.77-1.22 11.57-15.75 6.4-25.17-5.98 6.73-8.12 18.76-6.4 25.17ZM210.49 119.72c-4.59 6.77-11 12.35-10.1 21.54 8.03-2.07 13.5-13.68 10.1-21.54ZM220.83 105.61c-4.53 5.88-7.61 14.43-4.89 23.11 7.2-4.12 9.75-16.22 4.89-23.11ZM240.86 32.46a34.09 34.09 0 0 0-.53 24.4c2.77-1.56 3.8-4.08 4.13-6.82a28.72 28.72 0 0 0-3.6-17.58ZM227.43 90.17c-2.53 7.61-3.36 19.62.69 22.59 6.41-7.12 4.31-18.7-.69-22.59ZM229.65 72.59c-1.46 6.23-.63 16.3 5.83 22.84 3.99-7.87 1.34-18.56-5.83-22.84ZM234.86 39.17c2.47-2.31 2.62-5.08 2.38-7.77-.55-6.08-3.36-11.21-7.48-16.41a36.2 36.2 0 0 0 5.1 24.18ZM238.77 76c2.09-8-2.74-17.47-10.07-19.86-1.44 8.05 5.68 18.4 10.07 19.86ZM226.62 23c.09-12.82-6.42-19.06-11-21.43.98 8.43 4.02 14.17 11 21.43ZM237.5 57.19c.16-8-6.41-15.83-13.76-16.49.87 7.3 8.53 16.05 13.76 16.49ZM232.26 40.47c-1.13-8.7-11.33-14.87-17.07-13.46 2.71 5.25 8.81 12.13 17.07 13.46ZM204.55 15.2c5 5 14.49 11.43 18.9 9.65-1.27-5.76-11.22-12.13-18.9-9.65ZM197.71 0c5.58 6.2 10.92 12.06 18.92 14.67.1-6.17-10.2-14.19-18.92-14.67Z"></path>
</svg>