<svg class="icon-logo-footer" width="660" height="122" viewBox="0 0 660 122" fill="none" xmlns="http://www.w3.org/2000/svg">
    <path d="M578.215 90.1211L513.843 0.0493266H488.143L495.395 9.86547L493.866 121.395H513.005L511.821 32.1121L577.771 121.395H595.283L596.121 0H576.143L578.166 90.0718H578.215V90.1211ZM415.583 0.0493266L466.489 121.444H442.466L431.318 94.9058H376.713L366.206 121.444H347.857L395.161 8.68161L391.561 0.0986532H415.583V0.0493266ZM425.448 80.8969L403.202 27.87L382.238 80.8969H425.448ZM99.8879 86.5695C99.8879 103.439 88.7892 121.444 54.1121 121.444H0L2.07175 60.7713L0 0.0986532H47.9462C71.3767 0.0986532 90.565 8.58296 90.565 28.4619C90.565 48.3408 72.2646 54.4081 70.2421 55.2466C89.1839 60.2287 99.9865 71.426 99.9865 86.6188H99.8879V86.5695ZM22.3946 49.87H45.3812C56.3318 49.87 68.8117 46.3677 68.8117 30.583C68.8117 14.7982 58.8475 13.9596 47.8969 13.9596C36.9462 13.9596 22.3946 14.8475 22.3946 14.8475V49.87ZM76.852 86.3722C76.852 71.0314 66.5426 64.4215 45.3812 64.4215H22.3946V106.103C22.3946 106.103 42.9148 107.534 52.9282 107.534C62.9417 107.534 76.852 103.094 76.852 86.4215V86.3722ZM319.592 0.0493266H303.709L260.596 78.2825L217.682 0.0493266H193.659L200.072 11.0493L198.592 121.444H217.731L216.646 39.5605L253.296 102.552H261.682L301.143 33.3453L298.825 121.444H320.381L319.543 0.0493266H319.592ZM133.677 0.0493266L135.749 60.722L133.677 121.395H157.354L155.283 60.722L157.354 0.0493266H133.677ZM660 0.0493266H636.323L638.395 60.722L636.323 121.395H660L657.928 60.722L660 0.0493266Z" fill="white"></path>
</svg>